<svg viewBox="0 0 3433 400" xmlns="http://www.w3.org/2000/svg"><g><g><g><g><g><line x1="54" y1="361.43298062220106" x2="49" y2="361.43298062220106" style="visibility: inherit;" fill="rgb(0, 0, 0)" stroke="rgb(204, 204, 204)" stroke-width="1px"></line><line x1="54" y1="262.3030100699471" x2="49" y2="262.3030100699471" style="visibility: inherit;" fill="rgb(0, 0, 0)" stroke="rgb(204, 204, 204)" stroke-width="1px"></line><line x1="54" y1="181.30792663786372" x2="49" y2="181.30792663786372" style="visibility: inherit;" fill="rgb(0, 0, 0)" stroke="rgb(204, 204, 204)" stroke-width="1px"></line><line x1="54" y1="112.82755935013127" x2="49" y2="112.82755935013127" style="visibility: inherit;" fill="rgb(0, 0, 0)" stroke="rgb(204, 204, 204)" stroke-width="1px"></line><line x1="54" y1="53.50716698068602" x2="49" y2="53.50716698068602" style="visibility: inherit;" fill="rgb(0, 0, 0)" stroke="rgb(204, 204, 204)" stroke-width="1px"></line><line x1="54" y1="1.1828726535261882" x2="49" y2="1.1828726535261882" style="visibility: inherit;" fill="rgb(0, 0, 0)" stroke="rgb(204, 204, 204)" stroke-width="1px"></line></g><g transform="translate(44, 0)"><text x="0" y="361.43298062220106" dx="0em" dy="0.3em" style="text-anchor: end; visibility: inherit; font-family: Roboto, sans-serif; font-size: 12px; font-weight: 200;" fill="rgb(50, 49, 63)" stroke="none" stroke-width="1px">0.04</text><text x="0" y="262.3030100699471" dx="0em" dy="0.3em" style="text-anchor: end; visibility: inherit; font-family: Roboto, sans-serif; font-size: 12px; font-weight: 200;" fill="rgb(50, 49, 63)" stroke="none" stroke-width="1px">0.05</text><text x="0" y="181.30792663786372" dx="0em" dy="0.3em" style="text-anchor: end; visibility: inherit; font-family: Roboto, sans-serif; font-size: 12px; font-weight: 200;" fill="rgb(50, 49, 63)" stroke="none" stroke-width="1px">0.06</text><text x="0" y="112.82755935013127" dx="0em" dy="0.3em" style="text-anchor: end; visibility: inherit; font-family: Roboto, sans-serif; font-size: 12px; font-weight: 200;" fill="rgb(50, 49, 63)" stroke="none" stroke-width="1px">0.07</text><text x="0" y="53.50716698068602" dx="0em" dy="0.3em" style="text-anchor: end; visibility: inherit; font-family: Roboto, sans-serif; font-size: 12px; font-weight: 200;" fill="rgb(50, 49, 63)" stroke="none" stroke-width="1px">0.08</text><text x="0" y="1.1828726535261882" dx="0em" dy="0.3em" style="text-anchor: end; visibility: hidden; font-family: Roboto, sans-serif; font-size: 12px; font-weight: 200;" fill="rgb(50, 49, 63)" stroke="none" stroke-width="1px">0.09</text></g><line x1="54" y1="0" x2="54" y2="378" fill="rgb(0, 0, 0)" stroke="rgb(204, 204, 204)" stroke-width="1px"></line></g></g><g transform="translate(54, 0)" clip-path="url(#clip_0)"><clipPath id="clip_0"><rect width="3379" height="378"></rect></clipPath><g><g><g><line x1="0" y1="0" x2="0" y2="378" fill="rgb(0, 0, 0)" stroke="rgb(60, 60, 60)" stroke-width="1px" opacity="0.25"></line><line x1="281.5833333333333" y1="0" x2="281.5833333333333" y2="378" fill="rgb(0, 0, 0)" stroke="rgb(60, 60, 60)" stroke-width="1px" opacity="0.25"></line><line x1="563.1666666666666" y1="0" x2="563.1666666666666" y2="378" fill="rgb(0, 0, 0)" stroke="rgb(60, 60, 60)" stroke-width="1px" opacity="0.25"></line><line x1="844.75" y1="0" x2="844.75" y2="378" fill="rgb(0, 0, 0)" stroke="rgb(60, 60, 60)" stroke-width="1px" opacity="0.25"></line><line x1="1126.3333333333333" y1="0" x2="1126.3333333333333" y2="378" fill="rgb(0, 0, 0)" stroke="rgb(60, 60, 60)" stroke-width="1px" opacity="0.25"></line><line x1="1407.9166666666667" y1="0" x2="1407.9166666666667" y2="378" fill="rgb(0, 0, 0)" stroke="rgb(60, 60, 60)" stroke-width="1px" opacity="0.25"></line><line x1="1689.5" y1="0" x2="1689.5" y2="378" fill="rgb(0, 0, 0)" stroke="rgb(60, 60, 60)" stroke-width="1px" opacity="0.25"></line><line x1="1971.0833333333335" y1="0" x2="1971.0833333333335" y2="378" fill="rgb(0, 0, 0)" stroke="rgb(60, 60, 60)" stroke-width="1px" opacity="0.25"></line><line x1="2252.6666666666665" y1="0" x2="2252.6666666666665" y2="378" fill="rgb(0, 0, 0)" stroke="rgb(60, 60, 60)" stroke-width="1px" opacity="0.25"></line><line x1="2534.25" y1="0" x2="2534.25" y2="378" fill="rgb(0, 0, 0)" stroke="rgb(60, 60, 60)" stroke-width="1px" opacity="0.25"></line><line x1="2815.8333333333335" y1="0" x2="2815.8333333333335" y2="378" fill="rgb(0, 0, 0)" stroke="rgb(60, 60, 60)" stroke-width="1px" opacity="0.25"></line><line x1="3097.4166666666665" y1="0" x2="3097.4166666666665" y2="378" fill="rgb(0, 0, 0)" stroke="rgb(60, 60, 60)" stroke-width="1px" opacity="0.25"></line><line x1="3379" y1="0" x2="3379" y2="378" fill="rgb(0, 0, 0)" stroke="rgb(60, 60, 60)" stroke-width="1px" opacity="0.25"></line></g><g><line x1="0" y1="361.43298062220106" x2="3379" y2="361.43298062220106" fill="rgb(0, 0, 0)" stroke="rgb(60, 60, 60)" stroke-width="1px" opacity="0.25"></line><line x1="0" y1="262.3030100699471" x2="3379" y2="262.3030100699471" fill="rgb(0, 0, 0)" stroke="rgb(60, 60, 60)" stroke-width="1px" opacity="0.25"></line><line x1="0" y1="181.30792663786372" x2="3379" y2="181.30792663786372" fill="rgb(0, 0, 0)" stroke="rgb(60, 60, 60)" stroke-width="1px" opacity="0.25"></line><line x1="0" y1="112.82755935013127" x2="3379" y2="112.82755935013127" fill="rgb(0, 0, 0)" stroke="rgb(60, 60, 60)" stroke-width="1px" opacity="0.25"></line><line x1="0" y1="53.50716698068602" x2="3379" y2="53.50716698068602" fill="rgb(0, 0, 0)" stroke="rgb(60, 60, 60)" stroke-width="1px" opacity="0.25"></line><line x1="0" y1="1.1828726535261882" x2="3379" y2="1.1828726535261882" fill="rgb(0, 0, 0)" stroke="rgb(60, 60, 60)" stroke-width="1px" opacity="0.25"></line></g></g></g><g><g><line x1="281.5833333333333" y1="0" x2="281.5833333333333" y2="378" fill="rgb(0, 0, 0)" stroke="rgb(153, 153, 153)" stroke-width="1.5px"></line></g></g><g><g><g><g><g><path stroke="rgb(255, 112, 67)" stroke-width="2px" d="M290.98821666666663,413.5421386323024L294.47985,374.055146203551L294.76143333333334,371.0185218360896L295.9440833333333,358.4866561473729L296.95778333333334,348.0194665746126L298.92886666666664,328.3465723251491L299.0415,327.2483121916286L299.4920333333333,322.8821473252111L308.2774333333333,245.33834837974774L311.7690666666667,217.92312115164754L314.1906833333333,199.8565176852238L314.5849,196.98375902421282L317.2881,177.76991168297994L318.02021666666667,172.70608069524826L319.3718166666667,163.50642863515586L321.7934333333333,147.4856054577181L322.24396666666667,144.56769485367718L325.7919166666667,122.2353362765537L326.7493,116.3966076062571L327.0872,114.35408801181283L328.66406666666666,104.944536655996L336.26681666666667,62.180066650863395L338.6884333333333,53.50721828365237L341.6169,53.5076733908714L343.75693333333334,53.508376739308716L348.037,53.51081778075974L352.59865,53.514789673484L355.69606666666664,53.51834785753883L355.8650166666667,53.51855472958135L356.65345,53.5195890912395L356.87871666666666,53.519878712935366L359.5819166666667,53.523767936857695L359.97613333333334,53.52434718588714L362.4540666666667,53.52844332557753L364.14356666666663,53.531463735602514L367.35361666666665,53.537794250636594L368.9868,53.541269865877844L369.8878666666667,53.543255943938824L370.7889333333333,53.54532478469408L376.8148166666667,53.560551749066946L379.23643333333337,53.56746198387463L379.4053833333333,53.56791715281478L385.43126666666666,53.58682776550873L386.67023333333333,53.59109000601026L387.28971666666666,53.59320045091031L389.54238333333336,53.601228509392726L390.4997666666667,53.604746003405L391.2318833333333,53.60747725325886L396.2440666666667,53.62721724008635L399.62306666666666,53.64153652157599L404.74788333333333,53.66475460339902L405.4236833333333,53.667941493653764L407.2258166666667,53.676674517876585L407.56371666666666,53.678330086849876L408.97163333333333,53.68532493386442L411.5058833333333,53.698238786946135L416.12385,53.722991388022955L418.77073333333334,53.737810494826675L419.72811666666666,53.74331604312817L419.84075,53.74397836932624L420.12233333333336,53.74559279357095L421.53025,53.753830588114525L421.58656666666667,53.754161758928255L422.26236666666665,53.758177224689874L422.54395,53.75987449432698L424.1771333333333,53.76968566784678L425.02188333333334,53.77486042470588L432.7935833333333,53.82474817241817L435.891,53.845822771402446L448.67488333333336,53.939946100839975L452.6733666666667,53.971752947940935L452.8423166666667,53.97311969943237L456.1086833333334,54.0000000000001L459.6003166666667,54.02953292949196L463.48616666666663,54.063458871806425L464.27459999999996,54.070459785558974L464.3872333333333,54.071495433055674L464.44354999999996,54.07195111871908L467.70991666666663,54.10148883201154L477.56533333333334,54.195210539063794L485.33703333333335,54.273907295575384L485.44966666666664,54.275109197198674L488.2655,54.304701869705674L492.26398333333333,54.34768521452865L495.19245000000006,54.379894361613815L496.37510000000003,54.39307715706908L496.7693166666666,54.397512965513464L502.79519999999997,54.46633585501018L504.3720666666666,54.48478717690845L505.94893333333334,54.503363663903016L508.8774,54.538404018366734L512.3690333333334,54.58099524734554L517.8880666666666,54.65005396992712L519.6338833333333,54.6723292530786L519.9154666666667,54.67593820297323L524.7023833333333,54.73824906421672L524.8150166666667,54.73974264084897L529.3766666666667,54.80065165458304L534.5578,54.87165355932517L535.5151833333333,54.8849339596367L536.6978333333333,54.90153501834134L544.2442666666667,55.00941551057879L544.4695333333333,55.01273660316854L544.9200666666667,55.01929583397395L551.2275333333333,55.112879205405555L552.0159666666666,55.12479651554956L554.1560000000001,55.15735274843826L554.8318,55.1676516453837L557.1971,55.204073450151824L561.5334833333333,55.27189988813793L565.9825000000001,55.34289406756527L566.0951333333334,55.34468049225559L569.1362333333333,55.3939969590801L570.7130999999999,55.419883024356466L576.62635,55.51833032888503L582.5959166666667,55.62024980311813L583.38435,55.633926748466074L586.8196666666666,55.69387747671624L594.0845166666667,55.82349349153682L601.4056833333333,55.957889964098165L603.8836166666666,56.00427887210657L608.6705333333333,56.095032079432656L609.7968666666667,56.11663082822675L611.8242666666666,56.15575262290207L612.2184833333333,56.16336928784801L614.2458833333333,56.202828200159864L615.4285333333333,56.22597239968189L618.9201666666667,56.29487099401734L620.0465,56.317312178509646L626.29765,56.443320287945845L626.8608166666667,56.45481520567649L621.9612666666666,56.35561886011375L622.6933833333333,56.37031784419025L623.0312833333334,56.377105357920435L623.7633999999999,56.391888338741666L626.97345,56.457105895113784L628.2687333333333,56.48363710432503L631.873,56.558074559574614L639.9826,56.72890714295424L643.0237,56.79421587874739L644.6568833333333,56.829562453392306L647.6979833333334,56.89580317189252L649.8943333333333,56.944124690203196L650.0632833333333,56.947835533167755L650.7390833333333,56.962762607878894L652.4848999999999,57.00150028948031L658.7923666666667,57.1432197505093L665.0998333333333,57.28773840673863L666.5640666666667,57.321705445153505L672.9841666666666,57.47241855669139L673.4347,57.483105226912514L675.7436833333334,57.538087199396884L680.9248166666667,57.662896898952305L684.5290833333333,57.75081504178722L687.2322833333334,57.81736038720165L688.5275666666668,57.84944607396242L692.3571,57.94496484322691L692.9202666666667,57.95908965883914L693.0892166666666,57.96335226537498L693.9339666666667,57.98458232666083L695.7924166666667,58.03155953301741L706.04205,58.29487428881112L709.8152666666667,58.39366803164464L711.3921333333333,58.43529178733405L711.9553,58.45022709060073L713.9263833333333,58.502567368402474L722.8244166666667,58.7422147988554L727.0481666666667,58.857983270817584L733.4682666666666,59.03636344532901L735.77725,59.10125815265642L742.1410333333333,59.281999445082064L743.7742166666666,59.32886254200442L744.0558,59.33695300456379L744.56265,59.35154136123411L749.6311499999999,59.49845772415902L749.8000999999999,59.503364160246925L751.3769666666666,59.549495696413594L751.9401333333333,59.56602033919921L757.1775833333334,59.72060164989187L759.09235,59.77762364179158L762.4713499999999,59.87888823432185L769.4546166666667,60.09072463332263L772.7773,60.192732640917576L774.2415333333333,60.237969706769334L774.4104833333333,60.24317835548117L775.5931333333333,60.279850651208385L775.98735,60.29207542254826L779.2537166666666,60.393877562070685L779.5916166666666,60.40446666013255L782.74535,60.503562596020245L794.2902666666666,60.87244582447136L797.444,60.97488595945027L799.2461333333333,61.03371031460928L804.1456833333333,61.194907079851006L806.0041333333334,61.256497160890916L810.45315,61.404929396479574L810.8473666666666,61.418153851248405L811.5794833333333,61.44275069949517L814.9584833333333,61.556697360459744L816.6479833333333,61.61399766750741L817.9432666666667,61.65807337359085L818.9569666666667,61.69262908843401L827.1228833333333,61.97376806002954L830.72715,62.09940856649336L839.2309666666667,62.39950374448539L840.6952,62.451678201535415L851.508,62.84191451179828L851.9022166666666,62.85628039751211L858.266,63.09004482831938L858.43495,63.09630165054138L859.6176,63.140101873700516L862.9402833333334,63.263619776476126L865.3619,63.354133982380944L870.1488166666667,63.53437138214074L871.8946333333333,63.600519079162346L872.7956999999999,63.63476062344178L873.7530833333333,63.67116367609527L876.0057499999999,63.75714598392996L878.5963166666667,63.856442174137435L878.6526333333334,63.85864430283189L879.8916,63.906289183103425L881.8626833333334,63.982362179563495L883.3269166666668,64.03908654938255L883.8337666666666,64.05874477972783L886.7622333333334,64.17268644019457L886.9311833333334,64.17925518435172L888.84595,64.25414573355046L889.0712166666667,64.2629622032166L890.3665000000001,64.3137874760429L890.7044,64.32705641519935L890.8170333333334,64.33150774554751L893.4076000000001,64.43360383062188L898.0255666666666,64.61674022728783L899.0955833333334,64.65941786663684L899.6024333333332,64.67965511867425L903.4319666666665,64.8331827885618L903.5446000000001,64.83768163539294L906.9236000000001,64.97406924933365L915.87795,65.33941905812226L918.8627333333334,65.46248751489426L919.9890666666666,65.50911454709792L921.7348833333333,65.58155129346184L922.2417333333333,65.60259587225548L923.1991166666667,65.64243450173639L924.1565,65.68236175004478L928.7744666666666,65.87584074002629L930.06975,65.93038224736881L930.8581833333334,65.96365500435736L935.0256166666667,66.14018696029753L941.4457166666667,66.41465724556916L946.8521166666667,66.64804351606847L947.1337,66.66027432653341L949.1610999999999,66.74841430390607L950.9069166666666,66.8245492690147L956.3696333333335,67.06416540795526L957.8338666666666,67.12875039966812L958.0591333333334,67.13869066741616L958.9602,67.17858196195299L961.3254999999999,67.28342568190561L964.9297666666668,67.44400358926892L965.0987166666667,67.4515601200545L965.9997833333333,67.4919064850517L971.4061833333333,67.7349587715223L974.3909666666666,67.87005954547635L986.3864166666666,68.41964487260942L987.9632833333333,68.49264338276652L993.93285,68.7707123873261L997.98765,68.96108624535205L1001.4792833333333,69.12600009261978L1005.8719833333334,69.33470449544623L1006.8293666666666,69.3803676366489L1008.3499166666667,69.45305245792919L1009.5325666666668,69.50970769536474L1010.2083666666666,69.54209148880621L1011.0531166666667,69.5826710708963L1014.2631666666667,69.73730209546301L1018.3742833333333,69.93641946000601L1024.5691166666668,70.23885020342921L1027.5538999999999,70.38554441355755L1027.7791666666665,70.3966322366591L1033.2982,70.66970347691176L1035.6634999999999,70.78741833780306L1038.53565,70.93089458376816L1039.8309333333334,70.99582905070673L1043.1536166666665,71.16287774079592L1043.3225666666667,71.17140187826593L1048.6163333333334,71.4393498014678L1050.5311,71.53675890446283L1052.5021833333333,71.63729232874213L1054.6985333333332,71.74970296631028L1059.8796666666667,72.01623154832518L1061.1186333333333,72.08024636746099L1065.7366,72.31986617107113L1073.67725,72.73563455461726L1077.39415,72.93182161962655L1077.7883666666667,72.95265537878645L1078.2952166666666,72.9795418813113L1079.2526,73.03029350876984L1080.2663,73.08412077782909L1083.5889833333333,73.2610833523885L1086.4048166666666,73.41167813920998L1089.0517,73.55375385602677L1092.59965,73.74501978823369L1096.8234,73.97392847965666L1097.1613,73.99229826251945L1098.8508,74.08433191192034L1099.35765,74.11193705762813L1099.9208166666667,74.14266442549032L1105.10195,74.42646211732361L1105.6088,74.45434875733415L1105.8340666666666,74.46670964759026L1106.79145,74.51940993338576L1110.3957166666667,74.71846954815786L1111.4657333333334,74.77775344347435L1119.0684833333332,75.20134697716077L1122.6164333333334,75.40049514535407L1125.207,75.54646925970928L1127.6849333333332,75.68661997592467L1132.5281666666667,75.9617883703734L1135.7945333333334,76.14839076905568L1144.1857166666666,76.63130038567427L1144.29835,76.63779444858339L1146.1004833333334,76.7421919113405L1147.8463,76.8436051698816L1151.1689833333332,77.03716556784312L1159.2222666666667,77.50973206937736L1160.5738666666666,77.5895248056172L1161.0807166666666,77.61948899797747L1164.1781333333333,77.80298731659356L1172.6819500000001,78.31036130533283L1173.4703833333333,78.35765653293637L1179.2146833333334,78.70379557503664L1180.3973333333333,78.77535060362742L1187.88745,79.23105073303175L1191.94225,79.47947265474079L1193.1812166666668,79.5556276478016L1194.1386,79.61459531937011L1196.7291666666667,79.77438264042301L1198.6439333333333,79.89277905782573L1202.3045166666666,80.12000241675639L1206.80985,80.40096441498831L1211.0899166666666,80.66930528432795L1213.1173166666665,80.79687129548854L1219.3684666666666,81.19220661068003L1219.4247833333334,81.19577335992842L1221.33955,81.31745629187358L1222.1279833333333,81.36762772523265L1224.4932833333332,81.51848449422366L1233.8981666666666,82.12242437451557L1235.6439833333334,82.23526905412623L1237.5587500000001,82.35931211401346L1243.64095,82.7550687695283L1245.4994,82.87656080352592L1246.5131000000001,82.94295572115473L1246.6257333333333,82.95033845884326L1247.9773333333335,83.03894088236223L1248.03365,83.04265514231206L1248.2026,83.05375388981994L1249.2726166666669,83.12402291351289L1251.2437,83.25375572970646L1252.9895166666668,83.36887943573228L1255.1858666666667,83.51399904260197L1255.7490333333333,83.55127131947042L1260.7612166666665,83.88411591343204L1261.5496500000002,83.93666048004935L1263.1828333333333,84.04557955066386L1263.6333666666667,84.07567215486044L1265.26655,84.18489130607533L1270.8419,84.55925037334453L1283.85105,85.44186728292247L1285.4279166666668,85.54973309778973L1285.9347666666667,85.5844193450509L1287.5116333333333,85.6925421929625L1289.4827166666666,85.82796637197616L1290.1585166666669,85.87442228147513L1293.7627833333333,86.12293709033399L1301.3655333333334,86.65042880440072L1304.4066333333333,86.86267137545855L1311.8967499999999,87.3883189061007L1311.9530666666667,87.392337625135L1319.8374000000001,87.95031000148971L1326.6517166666667,88.43642591224328L1327.0459333333333,88.46462416104386L1334.0855166666665,88.97075129387238L1340.4493,89.43151867452958L1341.5193166666668,89.50926451773566L1343.0961833333333,89.62409125655962L1344.3351499999999,89.71439400933822L1345.5178,89.80067452080289L1349.3473333333334,90.08095488917496L1352.3321166666667,90.30019170375932L1355.5984833333334,90.54085214396908L1358.0764166666665,90.72396368134899L1370.1281833333333,91.62131559916831L1371.1418833333332,91.69732653778327L1372.38085,91.7903065907149L1372.71875,91.81569686447301L1378.8572666666666,92.27829736444751L1379.6457,92.33789468059612L1380.2651833333332,92.38476545908519L1383.3626,92.61960018839288L1383.9820833333333,92.66668144352307L1384.3199833333333,92.69234779919559L1387.6426666666666,92.94534014547696L1389.1632166666668,93.06142040031962L1390.4585,93.16043138583224L1394.4006666666667,93.4625308856433L1395.6396333333332,93.55773750905081L1397.4980833333334,93.70078952301834L1398.8496833333334,93.80497160595631L1401.1023500000001,93.97891953444451L1402.1160499999999,94.05732938165563L1402.4539499999998,94.08348418323321L1402.6229,94.09658482730106L1406.9029666666665,94.4286723493939L1406.9592833333334,94.43302746031658L1409.6061666666667,94.6391728440033L1411.3519833333335,94.7754001685801L1412.8725333333334,94.89418490071346L1413.0414833333334,94.90744571765718L1413.3230666666666,94.92947226442939L1417.32155,95.24300343004384L1417.9410333333335,95.29168170934842L1420.70055,95.50886726565066L1423.9106,95.76233160130901L1426.44485,95.96294932405398L1428.7538333333334,96.14621504476125L1429.48595,96.20442057404888L1429.5422666666666,96.20888422368022L1430.7812333333334,96.30746032636222L1431.6823000000002,96.37921962847356L1437.93345,96.878803254632L1439.1161,96.97369552516804L1443.0019499999999,97.28611639954849L1443.1708999999998,97.29972276799697L1443.2272166666667,97.30428875683765L1445.9304166666666,97.52236936397756L1447.2820166666668,97.6316097551113L1454.7158166666666,98.23508594529291L1459.22115,98.60297834250694L1459.9532666666667,98.66288067148177L1463.5575333333334,98.95848043708493L1467.2181166666667,99.25978037856757L1468.5134,99.3666506557045L1473.244,99.75802444428842L1473.41295,99.77202813620629L1473.6945333333333,99.79539921499686L1477.46775,100.10893847925422L1478.48145,100.19335536719805L1482.7052,100.54603940927107L1484.90155,100.7299636282452L1493.7995833333332,101.47900565675236L1496.1648833333331,101.67917887192233L1496.2212000000002,101.68392843369985L1499.8817833333335,101.99455856332095L1500.2196833333333,102.02330767373341L1501.6839166666666,102.14792404260298L1502.8665666666666,102.248704247954L1503.2044666666668,102.27746981059784L1512.1025,103.03930349648255L1525.5621833333335,104.20359208604499L1526.2943,104.2673619871947L1528.2090666666666,104.4342273574413L1529.5606666666667,104.55223534030725L1530.3491000000001,104.62116130529556L1531.9259666666667,104.7590917587362L1538.3460666666667,105.32267904756367L1540.3171499999999,105.49635968313403L1542.4008666666668,105.68034455258143L1547.5256833333333,106.13423601804922L1554.84685,106.78632325639651L1559.0706,107.16445002448246L1564.1390999999999,107.62004807403747L1564.3080499999999,107.63528322874133L1572.5865999999999,108.38399141163273L1572.8118666666667,108.40440245112589L1575.2334833333334,108.62448927513219L1575.8529666666666,108.68083966695076L1576.4161333333334,108.73213738553662L1578.3309000000002,108.90668768620371L1578.8940666666667,108.95810523962939L1580.3583,109.09176247120706L1582.89255,109.32363664294857L1584.1878333333334,109.44234076548055L1587.0599833333333,109.70604307414338L1588.4115833333335,109.83034441132808L1589.4815999999998,109.92888979207639L1592.1284833333334,110.17299881123634L1598.4922666666666,110.76218511402497L1601.2517833333334,111.01871371108746L1605.8134333333333,111.44406114872733L1606.4329166666666,111.50194892414582L1607.55925,111.60727876858662L1611.6703666666667,111.99264797843738L1614.8804166666666,112.29446847301098L1620.9063,112.86330547784668L1628.8469499999999,113.61737911274949L1631.0433,113.82684231705434L1632.6764833333334,113.98287864219952L1637.5760333333335,114.45221840897398L1640.2792333333334,114.7119794666127L1640.3918666666666,114.72280614092132L1642.5319,114.92889565766767L1643.8271833333333,115.0538118206981L1647.8256666666668,115.44032879661134L1655.7663166666666,116.21170493869957L1659.3705833333333,116.56346729858531L1664.8896166666668,117.10428488910448L1665.34015,117.14849547406538L1673.9002833333334,117.99244301117518L1675.1392500000002,118.11511344859802L1676.9977000000001,118.2992783804615L1681.1651333333334,118.71335385999365L1683.3614833333334,118.93218522400917L1688.2047166666666,119.4160959712319L1692.3158333333333,119.82833212232269L1693.7237499999999,119.96981737147031L1694.4558666666665,120.04348440605972L1694.962716666667,120.09447702896242L1699.4117333333334,120.543137517362L1702.7344166666667,120.87923233946262L1709.1545166666667,121.53125807284064L1709.9992666666667,121.61733798081353L1714.4482833333332,122.07149867491886L1719.3478333333335,122.57348759204525L1724.3600166666665,123.08910916409499L1726.4437333333333,123.30410403648587L1728.4148166666664,123.50777234683348L1732.5822500000002,123.93943546041052L1739.5655166666668,124.66599074920177L1740.7481666666667,124.78944951246304L1741.2550166666665,124.84239867599362L1742.156083333333,124.93655690565392L1745.7040333333334,125.30804007321039L1745.7603500000002,125.31392446997408L1746.5487833333334,125.39660605426383L1753.4757333333334,126.12530680104285L1754.0952166666666,126.19069466389884L1759.7268833333335,126.78640112937157L1763.5001000000002,127.18692951987222L1774.7634333333333,128.38980449900794L1781.91565,129.15904780471053L1781.9719666666665,129.16513059895655L1783.60515,129.3413715739806L1783.7177833333335,129.3535422398233L1789.2931333333331,129.95704618308443L1797.7406333333333,130.87637466214622L1801.3449,131.27045579853703L1801.6828,131.30742345548933L1802.0207,131.34444348532443L1802.2459666666666,131.3691416522412L1802.3022833333332,131.37530408357836L1808.7787,132.08667775702492L1811.8761166666668,132.4281152034912L1818.6341166666666,133.17592577160934L1821.7878500000002,133.52622700205725L1827.3068833333332,134.1412838182714L1827.8700500000002,134.2041412263824L1828.2642666666668,134.24825090578443L1829.2779666666665,134.3615470138168L1832.4880166666667,134.7210303231727L1834.96595,134.99908455271384L1839.8091833333333,135.54407059560697L1844.9340000000002,136.12296106031584L1845.0466333333334,136.13566776158785L1846.8487666666665,136.33977223330785L1847.8624666666665,136.45470013826122L1863.8000833333333,138.27311625553702L1865.264316666667,138.44123724947673L1867.7422499999998,138.72624172472877L1870.8396666666665,139.0832061004942L1874.3312999999998,139.48659648874494L1875.0634166666664,139.5713058145786L1880.24455,140.17206545677237L1881.8777333333333,140.3619346988902L1884.0740833333332,140.61761934012915L1899.84275,142.46547351648084L1904.2917666666667,142.99075483565372L1905.7559999999999,143.16396169561983L1906.9949666666666,143.31069876959074L1908.0649833333332,143.43752512640737L1909.4729000000002,143.60457178181724L1910.3739666666668,143.7115612483251L1911.0497666666668,143.79180758681142L1913.4713833333335,144.07986076082892L1917.3009166666668,144.5363611382113L1920.7925500000001,144.95368199041712L1932.5064166666666,146.36151003668965L1932.9006333333332,146.40908742415428L1933.4074833333334,146.47028769775235L1936.2233166666665,146.81071506152617L1936.3922666666665,146.8311837122013L1937.5749166666667,146.97433749485663L1939.3207333333332,147.1859873582067L1940.39075,147.3158157952554L1948.0498166666666,148.248005018806L1952.6114666666665,148.80560299360764L1952.6677833333333,148.81252484390018L1954.58255,149.04716244067427L1962.2979333333333,149.99574513154184L1962.5795166666667,150.0304997258786L1964.04375,150.21115430208644L1966.6343166666666,150.53124700894415L1967.4790666666668,150.63574770098074L1972.0970333333335,151.2081575831934L1974.5186500000002,151.50905726853983L1975.9828833333333,151.6912431547944L1978.2918666666667,151.9789404181211L1980.7134833333332,152.28113793760417L1988.1472833333335,153.21216436524077L1988.5415,153.26167232403608L1988.7667666666666,153.28995026564422L1994.511066666667,154.01299542991245L1996.7637333333332,154.2973730279578L2002.0575000000001,154.9673136116841L2002.8459333333333,155.06735109056692L2003.8596333333332,155.19596666227076L2006.2249333333334,155.4965095035263L2021.5430666666664,157.45490517545034L2024.52785,157.83891534713948L2031.2295333333332,158.70402276088544L2041.4791666666665,160.0349548616545L2043.5628833333333,160.30669272016664L2048.8566499999997,160.99872805124187L2057.811,162.1751633095176L2059.2752333333333,162.36817353422998L2061.5279,162.6655691532394L2064.118466666667,163.00810628736573L2067.77905,163.49315292077117L2068.1732666666667,163.54548962461246L2068.6238,163.60525375557145L2071.3269999999998,163.96443189996276L2071.83385,164.0318930507345L2075.1565333333333,164.47442471911344L2075.88865,164.57205762311276L2084.0545666666667,165.66450626500858L2084.7303666666667,165.75518341281705L2086.588816666667,166.00478095022572L2088.954116666667,166.32288865651125L2092.6147,166.81618862457015L2096.7821333333336,167.37926448318316L2099.4290166666665,167.73776287183466L2103.0896,168.2345120987427L2104.722783333333,168.4565933749626L2105.4549,168.55620435723782L2109.34075,169.08574744295075L2109.5097,169.10879821457803L2111.9313166666666,169.43952999739057L2114.6908333333336,169.81708521816657L2117.8445666666667,170.24943907733632L2125.278366666667,171.27211063616315L2125.7289,171.33429885787353L2126.1231166666666,171.38864651776098L2131.3605666666667,172.1126842404233L2132.0363666666667,172.206281648111L2133.1627,172.36236621712652L2139.5828,173.25432940164586L2139.8080666666665,173.28572400840903L2141.3286166666667,173.4975804739556L2141.4412500000003,173.51324544386773L2146.5097499999997,174.22102165052155L2150.4519166666664,174.7731827817623L2151.9724666666666,174.98653854792602L2152.366683333333,175.04185160586957L2152.5356333333334,175.0655670812592L2153.94355,175.2633904099459L2161.602616666667,176.34271311699635L2166.78375,177.07591516314494L2167.1779666666666,177.13176224163635L2172.246466666667,177.8516811724301L2172.7533166666667,177.92377559584602L2173.4291166666667,178.01997445490719L2174.4991333333332,178.1723638840329L2175.4565166666666,178.3088056705037L2178.497616666667,178.74281625307094L2179.173416666667,178.8394120897344L2180.581333333333,179.04070718033267L2182.66505,179.3389627564432L2185.931416666667,179.80732460902013L2188.5219833333335,180.17946464064838L2189.592,180.3333673842914L2189.9862166666667,180.3901760035643L2192.5767833333334,180.76330068381964L2195.50525,181.18590192302975L2195.6742,181.21030617020799L2197.6452833333333,181.49520427099426L2204.96645,182.5567106932969L2207.8949166666666,182.98271110779535L2207.951233333333,182.99093405032534L2209.1338833333334,183.16320784959527L2212.2313,183.6150480691735L2217.13085,184.33161818115727L2217.1871666666666,184.33986613014622L2219.3272,184.65359625323572L2221.298283333333,184.94290876553148L2221.8051333333333,185.01733149144792L2224.0014833333335,185.340280291849L2226.761,185.74664385343715L2229.858416666667,186.20368637124253L2231.66055,186.46998395151823L2237.0106333333333,187.2624278264612L2245.5707666666667,188.5360105719576L2248.330283333333,188.94808726459527L2250.3576833333336,189.25124629080253L2253.8493166666667,189.77437309597923L2258.1857,190.42563682044317L2258.35465,190.45103262540505L2262.6347166666665,191.09570484922625L2263.8173666666667,191.27414112322194L2264.2679000000003,191.34218406743062L2265.000016666667,191.4527337554451L2265.11265,191.46975035416634L2265.45055,191.52077583789287L2270.9695833333335,192.35616326185732L2271.0822166666667,192.3732145020554L2275.9817666666668,193.11737626500204L2276.1507166666665,193.14303972648477L2277.6712666666667,193.37450274433206L2287.3014166666667,194.8453750971084L2287.6956333333333,194.90577661177096L2291.4125333333336,195.47607125294144L2291.6941166666666,195.51930006157147L2297.55105,196.42080119167602L2298.5084333333334,196.5685032295899L2302.28165,197.15134210230067L2303.407983333333,197.32562238804985L2309.4338666666667,198.25999887839103L2312.3623333333335,198.71541852157137L2313.2070833333332,198.84692769810434L2314.051833333333,198.97850451828387L2314.9529,199.11896308543572L2315.685016666667,199.2330735084777L2317.6560999999997,199.54072039190757L2318.7261166666667,199.70789106744144L2319.1203333333333,199.76950369109363L2332.242116666667,201.82896206269837L2335.6211166666667,202.36205957210976L2337.3106166666666,202.62902204521978L2338.380633333333,202.79825656099968L2343.3928166666665,203.59243831574707L2345.5891666666666,203.9412268275993L2345.8144333333335,203.97704377881095L2346.321283333333,204.05762796310196L2346.659183333333,204.11133951803265L2348.0670999999998,204.33531410642942L2351.27715,204.8467082436077L2359.4993833333333,206.16134769741228L2366.0321166666668,207.21061046462304L2367.8905666666665,207.5099360438912L2374.0290833333333,208.5008973686311L2374.3669833333333,208.5555301192895L2374.873833333333,208.63756517582496L2382.138683333333,209.81588240093416L2384.05345,210.12726982854412L2398.4705166666668,212.48406766147872L2399.5405333333333,212.6598222649091L2401.96215,213.05802049622827L2405.848,213.69818920209445L2417.9560833333335,215.7027719259518L2423.6440666666667,216.64959539814805L2426.7414833333332,217.16652126358954L2427.5862333333334,217.30770610821043L2431.4720833333336,217.95804646796861L2433.38685,218.27903263959846L2437.5542833333334,218.97895214843916L2438.45535,219.13053509710284L2439.074833333333,219.23479340579075L2440.9896000000003,219.55724486904714L2445.4949333333334,220.31753944351482L2448.93025,220.89863379703124L2448.9865666666665,220.9082226224396L2452.252933333333,221.46189091528416L2453.3792666666664,221.65307423944358L2455.8008833333333,222.0645891855456L2456.0824666666667,222.11244974354116L2460.1372666666666,222.8028742807509L2468.0779166666666,224.15994626339804L2469.3732,224.38195471230915L2469.4295166666666,224.39158862906567L2477.088583333333,225.70780548840492L2482.4949833333335,226.6405397833414L2485.817666666667,227.21528858512207L2486.43715,227.32256320939317L2502.4310833333334,230.1064273754959L2504.7400666666667,230.51050660713443L2508.682233333333,231.20171147325993L2510.2591,231.4787109886506L2513.13125,231.98382364764123L2518.5939666666663,232.94691360945572L2520.3397833333333,233.255355385799L2520.6213666666667,233.3051811347731L2521.5787499999997,233.4745126224355L2524.4509,233.98301891135034L2526.5909333333334,234.36251204946618L2538.079533333333,236.4080907286035L2542.1343333333334,237.1333722885624L2548.0475833333335,238.19425320003987L2552.947133333333,239.07613447731376L2553.6229333333335,239.19793786512187L2555.4250666666667,239.52310941130722L2557.0019333333335,239.8078652894888L2561.901483333333,240.69444060224342L2562.46465,240.79644296659035L2562.80255,240.85771870670268L2563.0278166666667,240.89859492396567L2564.7736333333332,241.2153238133805L2564.886266666667,241.23574634499394L2565.6747,241.3789198154156L2566.0126,241.4403391169624L2570.123716666667,242.18796662724722L2584.0339333333336,244.73141177776807L2588.9898,245.64260612444286L2590.4540333333334,245.9123960200721L2595.5225333333333,246.84785133743324L2597.043083333333,247.12905800432608L2600.98525,247.85928651864154L2604.8147833333333,248.57024269224837L2605.71585,248.73772597398747L2609.43275,249.42970483262246L2612.13595,249.93389757399967L2613.0370166666667,250.10212126615662L2614.6702,250.40734021940028L2616.0781166666666,250.6705928430769L2617.148133333333,250.87083631807224L2625.2577333333334,252.3927175087504L2625.7082666666665,252.4774986650257L2629.3125333333332,253.15639587361983L2630.833083333333,253.4432154488007L2638.4358333333334,254.88123689583992L2638.83005,254.95597870466202L2639.84375,255.1482622592894L2645.644366666667,256.2506212538194L2646.995966666667,256.5079841384463L2647.559133333333,256.6153171565456L2648.3475666666664,256.76562696198886L2651.8392000000003,257.43202762974465L2657.189283333333,258.45583562248925L2660.906183333333,259.1689481943387L2661.6383,259.3096040817044L2663.440433333333,259.65609214420573L2664.454133333333,259.8511454783337L2665.0173,259.9595857000313L2666.19995,260.18735024514496L2672.338466666667,261.3721190442553L2676.2806333333333,262.1352248011068L2681.7996666666663,263.2065891221875L2688.3887166666664,264.49007813273244L2690.52875,264.90797929364174L2692.3871999999997,265.27139154715036L2693.3445833333335,265.4587260670699L2695.540933333333,265.88888447642194L2709.1695666666665,268.5704539069873L2710.0706333333333,268.74847217776596L2718.1802333333335,270.35503454452953L2721.1087,270.9370469144278L2723.5866333333333,271.4302477324757L2725.5577166666667,271.823113193798L2727.2472166666666,272.16018010971817L2728.5988166666666,272.43007885329354L2729.9504166666666,272.7002433202787L2730.40095,272.7902781836671L2731.0204333333336,272.9142288060826L2731.07675,272.9255172503124L2734.45575,273.60216107104105L2735.9763,273.9070807858936L2736.2015666666666,273.95226936514257L2737.046316666667,274.1218184742087L2738.51055,274.4158705796262L2739.1300333333334,274.5403777310792L2739.7495166666668,274.66488575504417L2741.607966666667,275.03875558439086L2746.3948833333334,276.00360129480055L2749.3796666666667,276.6065335593706L2749.604933333333,276.6521001337685L2750.3370499999996,276.8001468450105L2754.8423833333336,277.71269707721837L2755.06765,277.7584115298996L2756.5881999999997,278.0669528668613L2757.09505,278.16988192024485L2761.9946,279.16627756617436L2762.3888166666666,279.246594750549L2764.86675,279.7516947944962L2767.8515333333335,280.3611179078295L2769.822616666667,280.7641385823004L2770.047883333333,280.810237151613L2773.4832,281.51379913594707L2778.9459166666666,282.6354179710333L2781.0859499999997,283.0757794883586L2783.6765166666664,283.60963077162654L2783.732833333333,283.62122901883413L2783.9017833333332,283.6560255774018L2787.055516666667,284.3070359478876L2791.7861166666667,285.2857620573267L2793.1377166666666,285.56588428094904L2795.8972333333336,286.13846302911253L2796.6856666666667,286.3022474970538L2805.0205333333333,288.0380029668967L2806.7100333333333,288.39083429927956L2810.0327166666666,289.0857724445048L2812.9048666666667,289.6875504589782L2824.5061,292.12833277618694L2825.01295,292.23535121540016L2826.1392833333334,292.47323475876084L2827.8851,292.84230012736447L2827.997733333333,292.8660904473333L2835.600483333333,294.4776830157303L2837.627883333333,294.90857511517055L2840.1058166666667,295.43598338138804L2843.4285,296.1443250604139L2844.1043,296.28854438408786L2850.468083333333,297.6494454985959L2852.5517999999997,298.0961623042258L2854.2976166666667,298.470828371557L2856.2687,298.8942556707798L2864.7162,300.71444179230144L2865.22305,300.8239460700964L2866.7436000000002,301.1525487040203L2868.4330999999997,301.51808864003027L2870.347866666667,301.93277941932115L2872.8821166666667,302.48229363494727L2873.3326500000003,302.5800941033011L2874.9095166666666,302.922474728237L2881.2733,304.3074843970545L2882.1743666666666,304.50402161497817L2883.46965,304.78666214096353L2885.6659999999997,305.26643022190945L2886.623383333333,305.47575770011133L2891.4666166666666,306.53641845155863L2891.973466666667,306.6475868893537L2893.8882333333336,307.0678647263377L2900.36465,308.4927247809001L2902.561,308.97713923192833L2905.489466666667,309.6239829394022L2921.708666666667,313.2258574498506L2922.8913166666666,313.489812966888L2930.8319666666666,315.26657456789957L2933.253583333333,315.80999316622683L2936.2383666666665,316.4808171161117L2936.632583333333,316.56951909775046L2937.7589166666667,316.8230082002098L2939.2231500000003,317.15276791279575L2944.2916499999997,318.2965247142893L2947.2201166666664,318.95882115799117L2950.5991166666668,319.7243947617602L2950.9933333333333,319.8137844971268L2952.6265166666667,320.1844182492333L2955.6113,320.8626784498773L2955.836566666667,320.91388714775906L2956.5686833333334,321.080431756384L2957.3571166666666,321.2599271195028L2958.708716666667,321.56773204640103L2959.3845166666665,321.72169560547377L2961.18665,322.1326271459932L2961.5808666666667,322.22261646061867L2962.3693000000003,322.40253611471184L2968.7330833333335,323.85801875285586L2969.352566666667,323.9999999999999L2969.690466666667,324.07743578398464L2971.9994500000003,324.60710689136766L2972.2247166666666,324.65882523847154L2973.01315,324.839848781492L2974.308433333333,325.13744840717965L2980.2780000000002,326.511818157301L2982.6996166666668,327.0707468203414L2985.17755,327.6433777307261L2986.1912500000003,327.87790802988013L2987.0923166666666,328.08638531632005L2988.7818166666666,328.4777410000297L2992.6676666666667,329.3792235002607L2999.70725,331.0173959442149L3002.1288666666665,331.5824126559917L3002.2414999999996,331.6087189976282L3004.3252166666666,332.095551321522L3004.381533333333,332.10875822994524L3004.9447,332.24038400911485L3005.395233333333,332.34577472133395L3006.80315,332.67524315868553L3011.4774333333335,333.77096301566223L3011.7590166666664,333.8370566223119L3012.6037666666666,334.035435361261L3023.5292,336.60942414427984L3031.3009,338.4501852286462L3043.240033333333,341.29369082323154L3047.6327333333334,342.34467038979335L3050.6738333333333,343.0738072354591L3052.08175,343.41184838986715L3059.17765,345.11948292145627L3063.7392999999997,346.22078147453203L3066.4988166666667,346.88839905966665L3067.1746166666667,347.0520756401863L3068.2446333333332,347.31131020224404L3071.5673166666666,348.1173856497797L3078.10005,349.70653590238726L3082.5490666666665,350.7922143116001L3084.914366666667,351.3704689653556L3087.955466666667,352.1151511289012" style="fill: none;" fill="none"></path></g></g></g></g></g></g><g transform="translate(54, 378)" clip-path="url(#clip_1)"><clipPath id="clip_1"><rect width="3379" height="22"></rect></clipPath><g><g><line x1="0" y1="0" x2="0" y2="5" style="visibility: inherit;" fill="rgb(0, 0, 0)" stroke="rgb(204, 204, 204)" stroke-width="1px"></line><line x1="281.5833333333333" y1="0" x2="281.5833333333333" y2="5" style="visibility: inherit;" fill="rgb(0, 0, 0)" stroke="rgb(204, 204, 204)" stroke-width="1px"></line><line x1="563.1666666666666" y1="0" x2="563.1666666666666" y2="5" style="visibility: inherit;" fill="rgb(0, 0, 0)" stroke="rgb(204, 204, 204)" stroke-width="1px"></line><line x1="844.75" y1="0" x2="844.75" y2="5" style="visibility: inherit;" fill="rgb(0, 0, 0)" stroke="rgb(204, 204, 204)" stroke-width="1px"></line><line x1="1126.3333333333333" y1="0" x2="1126.3333333333333" y2="5" style="visibility: inherit;" fill="rgb(0, 0, 0)" stroke="rgb(204, 204, 204)" stroke-width="1px"></line><line x1="1407.9166666666667" y1="0" x2="1407.9166666666667" y2="5" style="visibility: inherit;" fill="rgb(0, 0, 0)" stroke="rgb(204, 204, 204)" stroke-width="1px"></line><line x1="1689.5" y1="0" x2="1689.5" y2="5" style="visibility: inherit;" fill="rgb(0, 0, 0)" stroke="rgb(204, 204, 204)" stroke-width="1px"></line><line x1="1971.0833333333335" y1="0" x2="1971.0833333333335" y2="5" style="visibility: inherit;" fill="rgb(0, 0, 0)" stroke="rgb(204, 204, 204)" stroke-width="1px"></line><line x1="2252.6666666666665" y1="0" x2="2252.6666666666665" y2="5" style="visibility: inherit;" fill="rgb(0, 0, 0)" stroke="rgb(204, 204, 204)" stroke-width="1px"></line><line x1="2534.25" y1="0" x2="2534.25" y2="5" style="visibility: inherit;" fill="rgb(0, 0, 0)" stroke="rgb(204, 204, 204)" stroke-width="1px"></line><line x1="2815.8333333333335" y1="0" x2="2815.8333333333335" y2="5" style="visibility: inherit;" fill="rgb(0, 0, 0)" stroke="rgb(204, 204, 204)" stroke-width="1px"></line><line x1="3097.4166666666665" y1="0" x2="3097.4166666666665" y2="5" style="visibility: inherit;" fill="rgb(0, 0, 0)" stroke="rgb(204, 204, 204)" stroke-width="1px"></line><line x1="3379" y1="0" x2="3379" y2="5" style="visibility: inherit;" fill="rgb(0, 0, 0)" stroke="rgb(204, 204, 204)" stroke-width="1px"></line></g><g transform="translate(0, 8)"><text x="0" y="0" dx="0em" dy="0.95em" style="text-anchor: middle; visibility: hidden; font-family: Roboto, sans-serif; font-size: 12px; font-weight: 200;" fill="rgb(50, 49, 63)" stroke="none" stroke-width="1px">-5k</text><text x="281.5833333333333" y="0" dx="0em" dy="0.95em" style="text-anchor: middle; visibility: inherit; font-family: Roboto, sans-serif; font-size: 12px; font-weight: 200;" fill="rgb(50, 49, 63)" stroke="none" stroke-width="1px">0</text><text x="563.1666666666666" y="0" dx="0em" dy="0.95em" style="text-anchor: middle; visibility: inherit; font-family: Roboto, sans-serif; font-size: 12px; font-weight: 200;" fill="rgb(50, 49, 63)" stroke="none" stroke-width="1px">5k</text><text x="844.75" y="0" dx="0em" dy="0.95em" style="text-anchor: middle; visibility: inherit; font-family: Roboto, sans-serif; font-size: 12px; font-weight: 200;" fill="rgb(50, 49, 63)" stroke="none" stroke-width="1px">10k</text><text x="1126.3333333333333" y="0" dx="0em" dy="0.95em" style="text-anchor: middle; visibility: inherit; font-family: Roboto, sans-serif; font-size: 12px; font-weight: 200;" fill="rgb(50, 49, 63)" stroke="none" stroke-width="1px">15k</text><text x="1407.9166666666667" y="0" dx="0em" dy="0.95em" style="text-anchor: middle; visibility: inherit; font-family: Roboto, sans-serif; font-size: 12px; font-weight: 200;" fill="rgb(50, 49, 63)" stroke="none" stroke-width="1px">20k</text><text x="1689.5" y="0" dx="0em" dy="0.95em" style="text-anchor: middle; visibility: inherit; font-family: Roboto, sans-serif; font-size: 12px; font-weight: 200;" fill="rgb(50, 49, 63)" stroke="none" stroke-width="1px">25k</text><text x="1971.0833333333335" y="0" dx="0em" dy="0.95em" style="text-anchor: middle; visibility: inherit; font-family: Roboto, sans-serif; font-size: 12px; font-weight: 200;" fill="rgb(50, 49, 63)" stroke="none" stroke-width="1px">30k</text><text x="2252.6666666666665" y="0" dx="0em" dy="0.95em" style="text-anchor: middle; visibility: inherit; font-family: Roboto, sans-serif; font-size: 12px; font-weight: 200;" fill="rgb(50, 49, 63)" stroke="none" stroke-width="1px">35k</text><text x="2534.25" y="0" dx="0em" dy="0.95em" style="text-anchor: middle; visibility: inherit; font-family: Roboto, sans-serif; font-size: 12px; font-weight: 200;" fill="rgb(50, 49, 63)" stroke="none" stroke-width="1px">40k</text><text x="2815.8333333333335" y="0" dx="0em" dy="0.95em" style="text-anchor: middle; visibility: inherit; font-family: Roboto, sans-serif; font-size: 12px; font-weight: 200;" fill="rgb(50, 49, 63)" stroke="none" stroke-width="1px">45k</text><text x="3097.4166666666665" y="0" dx="0em" dy="0.95em" style="text-anchor: middle; visibility: inherit; font-family: Roboto, sans-serif; font-size: 12px; font-weight: 200;" fill="rgb(50, 49, 63)" stroke="none" stroke-width="1px">50k</text><text x="3379" y="0" dx="0em" dy="0.95em" style="text-anchor: middle; visibility: hidden; font-family: Roboto, sans-serif; font-size: 12px; font-weight: 200;" fill="rgb(50, 49, 63)" stroke="none" stroke-width="1px">55k</text></g><line x1="0" y1="0" x2="3379" y2="0" fill="rgb(0, 0, 0)" stroke="rgb(204, 204, 204)" stroke-width="1px"></line></g></g></g></g></svg>