<svg viewBox="0 0 3433 400" xmlns="http://www.w3.org/2000/svg"><g><g><g><g><g><line x1="54" y1="377.93991909367355" x2="49" y2="377.93991909367355" style="visibility: inherit;" fill="rgb(0, 0, 0)" stroke="rgb(204, 204, 204)" stroke-width="1px"></line><line x1="54" y1="336.0148260139121" x2="49" y2="336.0148260139121" style="visibility: inherit;" fill="rgb(0, 0, 0)" stroke="rgb(204, 204, 204)" stroke-width="1px"></line><line x1="54" y1="300.5676648898436" x2="49" y2="300.5676648898436" style="visibility: inherit;" fill="rgb(0, 0, 0)" stroke="rgb(204, 204, 204)" stroke-width="1px"></line><line x1="54" y1="269.8619372551238" x2="49" y2="269.8619372551238" style="visibility: inherit;" fill="rgb(0, 0, 0)" stroke="rgb(204, 204, 204)" stroke-width="1px"></line><line x1="54" y1="242.77756599401528" x2="49" y2="242.77756599401528" style="visibility: inherit;" fill="rgb(0, 0, 0)" stroke="rgb(204, 204, 204)" stroke-width="1px"></line><line x1="54" y1="218.54977031498834" x2="49" y2="218.54977031498834" style="visibility: inherit;" fill="rgb(0, 0, 0)" stroke="rgb(204, 204, 204)" stroke-width="1px"></line><line x1="54" y1="59.159621536303156" x2="49" y2="59.159621536303156" style="visibility: inherit;" fill="rgb(0, 0, 0)" stroke="rgb(204, 204, 204)" stroke-width="1px"></line></g><g transform="translate(44, 0)"><text x="0" y="377.93991909367355" dx="0em" dy="0.3em" style="text-anchor: end; visibility: hidden; font-family: Roboto, sans-serif; font-size: 12px; font-weight: 200;" fill="rgb(50, 49, 63)" stroke="none" stroke-width="1px">0.05</text><text x="0" y="336.0148260139121" dx="0em" dy="0.3em" style="text-anchor: end; visibility: inherit; font-family: Roboto, sans-serif; font-size: 12px; font-weight: 200;" fill="rgb(50, 49, 63)" stroke="none" stroke-width="1px">0.06</text><text x="0" y="300.5676648898436" dx="0em" dy="0.3em" style="text-anchor: end; visibility: inherit; font-family: Roboto, sans-serif; font-size: 12px; font-weight: 200;" fill="rgb(50, 49, 63)" stroke="none" stroke-width="1px">0.07</text><text x="0" y="269.8619372551238" dx="0em" dy="0.3em" style="text-anchor: end; visibility: inherit; font-family: Roboto, sans-serif; font-size: 12px; font-weight: 200;" fill="rgb(50, 49, 63)" stroke="none" stroke-width="1px">0.08</text><text x="0" y="242.77756599401528" dx="0em" dy="0.3em" style="text-anchor: end; visibility: inherit; font-family: Roboto, sans-serif; font-size: 12px; font-weight: 200;" fill="rgb(50, 49, 63)" stroke="none" stroke-width="1px">0.09</text><text x="0" y="218.54977031498834" dx="0em" dy="0.3em" style="text-anchor: end; visibility: inherit; font-family: Roboto, sans-serif; font-size: 12px; font-weight: 200;" fill="rgb(50, 49, 63)" stroke="none" stroke-width="1px">0.1</text><text x="0" y="59.159621536303156" dx="0em" dy="0.3em" style="text-anchor: end; visibility: inherit; font-family: Roboto, sans-serif; font-size: 12px; font-weight: 200;" fill="rgb(50, 49, 63)" stroke="none" stroke-width="1px">0.2</text></g><line x1="54" y1="0" x2="54" y2="378" fill="rgb(0, 0, 0)" stroke="rgb(204, 204, 204)" stroke-width="1px"></line></g></g><g transform="translate(54, 0)" clip-path="url(#clip_0)"><clipPath id="clip_0"><rect width="3379" height="378"></rect></clipPath><g><g><g><line x1="0" y1="0" x2="0" y2="378" fill="rgb(0, 0, 0)" stroke="rgb(60, 60, 60)" stroke-width="1px" opacity="0.25"></line><line x1="281.5833333333333" y1="0" x2="281.5833333333333" y2="378" fill="rgb(0, 0, 0)" stroke="rgb(60, 60, 60)" stroke-width="1px" opacity="0.25"></line><line x1="563.1666666666666" y1="0" x2="563.1666666666666" y2="378" fill="rgb(0, 0, 0)" stroke="rgb(60, 60, 60)" stroke-width="1px" opacity="0.25"></line><line x1="844.75" y1="0" x2="844.75" y2="378" fill="rgb(0, 0, 0)" stroke="rgb(60, 60, 60)" stroke-width="1px" opacity="0.25"></line><line x1="1126.3333333333333" y1="0" x2="1126.3333333333333" y2="378" fill="rgb(0, 0, 0)" stroke="rgb(60, 60, 60)" stroke-width="1px" opacity="0.25"></line><line x1="1407.9166666666667" y1="0" x2="1407.9166666666667" y2="378" fill="rgb(0, 0, 0)" stroke="rgb(60, 60, 60)" stroke-width="1px" opacity="0.25"></line><line x1="1689.5" y1="0" x2="1689.5" y2="378" fill="rgb(0, 0, 0)" stroke="rgb(60, 60, 60)" stroke-width="1px" opacity="0.25"></line><line x1="1971.0833333333335" y1="0" x2="1971.0833333333335" y2="378" fill="rgb(0, 0, 0)" stroke="rgb(60, 60, 60)" stroke-width="1px" opacity="0.25"></line><line x1="2252.6666666666665" y1="0" x2="2252.6666666666665" y2="378" fill="rgb(0, 0, 0)" stroke="rgb(60, 60, 60)" stroke-width="1px" opacity="0.25"></line><line x1="2534.25" y1="0" x2="2534.25" y2="378" fill="rgb(0, 0, 0)" stroke="rgb(60, 60, 60)" stroke-width="1px" opacity="0.25"></line><line x1="2815.8333333333335" y1="0" x2="2815.8333333333335" y2="378" fill="rgb(0, 0, 0)" stroke="rgb(60, 60, 60)" stroke-width="1px" opacity="0.25"></line><line x1="3097.4166666666665" y1="0" x2="3097.4166666666665" y2="378" fill="rgb(0, 0, 0)" stroke="rgb(60, 60, 60)" stroke-width="1px" opacity="0.25"></line><line x1="3379" y1="0" x2="3379" y2="378" fill="rgb(0, 0, 0)" stroke="rgb(60, 60, 60)" stroke-width="1px" opacity="0.25"></line></g><g><line x1="0" y1="377.93991909367355" x2="3379" y2="377.93991909367355" fill="rgb(0, 0, 0)" stroke="rgb(60, 60, 60)" stroke-width="1px" opacity="0.25"></line><line x1="0" y1="336.0148260139121" x2="3379" y2="336.0148260139121" fill="rgb(0, 0, 0)" stroke="rgb(60, 60, 60)" stroke-width="1px" opacity="0.25"></line><line x1="0" y1="300.5676648898436" x2="3379" y2="300.5676648898436" fill="rgb(0, 0, 0)" stroke="rgb(60, 60, 60)" stroke-width="1px" opacity="0.25"></line><line x1="0" y1="269.8619372551238" x2="3379" y2="269.8619372551238" fill="rgb(0, 0, 0)" stroke="rgb(60, 60, 60)" stroke-width="1px" opacity="0.25"></line><line x1="0" y1="242.77756599401528" x2="3379" y2="242.77756599401528" fill="rgb(0, 0, 0)" stroke="rgb(60, 60, 60)" stroke-width="1px" opacity="0.25"></line><line x1="0" y1="218.54977031498834" x2="3379" y2="218.54977031498834" fill="rgb(0, 0, 0)" stroke="rgb(60, 60, 60)" stroke-width="1px" opacity="0.25"></line><line x1="0" y1="59.159621536303156" x2="3379" y2="59.159621536303156" fill="rgb(0, 0, 0)" stroke="rgb(60, 60, 60)" stroke-width="1px" opacity="0.25"></line></g></g></g><g><g><line x1="281.5833333333333" y1="0" x2="281.5833333333333" y2="378" fill="rgb(0, 0, 0)" stroke="rgb(153, 153, 153)" stroke-width="1.5px"></line></g></g><g><g><g><g><g><path stroke="rgb(255, 112, 67)" stroke-width="2px" d="M325.7919166666667,-40.52447525541797L326.7493,24.705896127635057L327.0872,-34.14539180636992L328.66406666666666,6.7086374739394365L336.26681666666667,-6.584249071579305L343.75693333333334,-8.970164374363552L348.037,60.01205807334597L352.59865,44.87701583637185L355.69606666666664,12.60389940170381L355.8650166666667,44.94956205609752L356.65345,74.38699949742814L356.87871666666666,2.5527297606693176L359.5819166666667,52.05548134367149L359.97613333333334,-26.30359227673113L362.4540666666667,-55.35931912848458L364.14356666666663,30.212689191953086L367.35361666666665,15.748329532770308L368.9868,36.12264635856006L369.8878666666667,38.52190296203396L370.7889333333333,14.105907516196845L376.8148166666667,85.84127587818362L379.23643333333337,-0.05262554055658253L379.4053833333333,46.427536271098276L385.43126666666666,57.824119683750475L386.67023333333333,85.36834816137498L387.28971666666666,45.01594458593757L389.54238333333336,50.4275820483575L390.4997666666667,79.02327354475852L391.2318833333333,1.733956037319239L396.2440666666667,66.29908671939754L399.62306666666666,61.92711912820145L404.74788333333333,36.206265859498075L405.4236833333333,45.81493862800561L407.2258166666667,55.78258028446861L407.56371666666666,69.83185845579023L408.97163333333333,79.7509602433418L411.5058833333333,71.29287425857788L416.12385,93.57301703145396L418.77073333333334,92.04883939503468L419.72811666666666,82.0627981331841L419.84075,83.2647325157777L420.12233333333336,67.31000906368904L421.53025,70.53604735549982L421.58656666666667,105.51482412361923L422.26236666666665,93.24868130488109L422.54395,79.24008335313727L424.1771333333333,69.01149503731197L425.02188333333334,51.82635675513685L432.7935833333333,81.32778927423786L435.891,141.34964092215154L448.67488333333336,75.37875674053812L452.6733666666667,102.22757433551322L452.8423166666667,106.67833529563181L456.1086833333334,71.6078567346124L459.6003166666667,110.71027610923298L463.48616666666663,63.641219535036065L464.27459999999996,76.46462064090984L464.3872333333333,88.81141789760257L464.44354999999996,71.0973930257902L467.70991666666663,90.9795794748776L477.56533333333334,141.87887101033556L485.33703333333335,109.29081107044533L485.44966666666664,125.54610437329794L488.2655,94.11992072124693L492.26398333333333,143.0130533398238L495.19245000000006,85.56900981021097L496.37510000000003,105.45398767852672L496.7693166666666,108.01403091912083L502.79519999999997,118.67823559539336L504.3720666666666,133.00939680232253L505.94893333333334,99.55479286406614L508.8774,130.3124997961525L512.3690333333334,120.37745491591791L517.8880666666666,135.03058870981027L519.6338833333333,142.46777041974872L519.9154666666667,99.6381334929594L524.7023833333333,120.30198471384526L524.8150166666667,128.83654184097145L529.3766666666667,143.38636391878984L534.5578,120.60041099970111L535.5151833333333,127.43341337358883L536.6978333333333,100.95885789136216L544.2442666666667,137.49939835676392L544.4695333333333,85.06216101495806L544.9200666666667,103.56957501502312L551.2275333333333,96.95245777607863L552.0159666666666,126.48728305999438L554.1560000000001,81.64305871773772L554.8318,105.78768581234442L557.1971,133.023853415495L561.5334833333333,141.46706887418674L565.9825000000001,136.7321381066344L566.0951333333334,151.9101820336644L569.1362333333333,130.66847119103136L570.7130999999999,138.8360779635757L576.62635,155.1651421161011L582.5959166666667,58.48222992974185L583.38435,158.69559100262083L586.8196666666666,160.40864120805858L594.0845166666667,129.52350752906912L601.4056833333333,142.79868433818763L603.8836166666666,163.2613440358538L608.6705333333333,179.9150774412796L609.7968666666667,151.92528727789679L611.8242666666666,165.07849599442872L612.2184833333333,176.5034290177922L614.2458833333333,145.85190779059923L615.4285333333333,155.15346378078272L618.9201666666667,128.39595434612627L620.0465,118.34399319764132L626.29765,159.3715345104454L626.8608166666667,116.7348875103426L621.9612666666666,152.76393947734817L622.6933833333333,105.03939588876969L623.0312833333334,160.7293850620411L623.7633999999999,120.79025169705996L626.97345,154.6694779087404L628.2687333333333,130.3097216674114L631.873,150.55297269489265L639.9826,144.6640090139698L643.0237,166.55519987100018L644.6568833333333,172.42612646133608L647.6979833333334,161.03555397316836L649.8943333333333,167.92808677898788L650.0632833333333,178.05595405658792L650.7390833333333,138.7055780226484L652.4848999999999,149.8366170859392L658.7923666666667,157.67718221147325L665.0998333333333,128.5362287407452L666.5640666666667,187.8000766331375L672.9841666666666,159.42041465716517L673.4347,152.83555965370456L675.7436833333334,183.02762321346296L680.9248166666667,212.9317697575455L684.5290833333333,188.4066714027025L687.2322833333334,107.32722463209386L688.5275666666668,147.75360071447227L692.3571,179.44389186899485L692.9202666666667,189.0394924119316L693.0892166666666,164.60052871070852L693.9339666666667,154.45496180342735L695.7924166666667,174.47740232410246L706.04205,136.71166130680498L709.8152666666667,168.04825659711386L711.3921333333333,172.9003292645122L711.9553,160.2224449753831L713.9263833333333,183.1373412909209L722.8244166666667,178.3261867909394L727.0481666666667,205.18735315930982L733.4682666666666,184.3378009204836L735.77725,142.82848626418644L742.1410333333333,193.95734566699505L743.7742166666666,214.38537503292142L744.0558,169.76543239894997L744.56265,168.8776659199485L749.6311499999999,163.8742917413631L749.8000999999999,186.159810302306L751.3769666666666,134.79241498339024L751.9401333333333,129.48291229908668L757.1775833333334,177.01971637320756L759.09235,207.4416710616708L762.4713499999999,169.7538615342018L769.4546166666667,187.53980300971483L772.7773,194.8925828546205L774.2415333333333,133.22111634075625L774.4104833333333,211.14046339731885L775.5931333333333,237.92587108037L775.98735,184.23445944525608L779.2537166666666,160.43969744794188L779.5916166666666,183.86314718896392L782.74535,199.4951439848409L794.2902666666666,162.39309573763666L797.444,157.4390636356721L799.2461333333333,220.35653502641694L804.1456833333333,141.64355630257273L806.0041333333334,174.26162930418676L810.45315,183.1831117858812L810.8473666666666,149.48334714006097L811.5794833333333,181.18168183044685L814.9584833333333,184.8770778765771L816.6479833333333,175.78271085478644L817.9432666666667,181.40458945968274L818.9569666666667,183.6165908624479L827.1228833333333,196.18677012351444L830.72715,218.62033022375832L839.2309666666667,209.7706938298185L840.6952,160.20404633405406L851.508,198.41364348835882L851.9022166666666,145.0120122339618L858.266,219.3040710752894L858.43495,165.35285534074768L859.6176,159.11509068284377L862.9402833333334,188.72292441285205L865.3619,199.90455726047654L870.1488166666667,240.4770622565957L871.8946333333333,186.42980418754422L872.7956999999999,189.84805204112737L873.7530833333333,166.36852217658125L876.0057499999999,169.82770334863534L878.5963166666667,186.97801796932774L878.6526333333334,188.80365889777087L879.8916,196.9716535333998L881.8626833333334,216.94157061023833L883.3269166666668,202.08154374788165L883.8337666666666,225.75132908792088L886.7622333333334,180.0422011104808L886.9311833333334,217.5065786717505L888.84595,203.27779957310835L889.0712166666667,204.91874234992105L890.3665000000001,188.06909329625762L890.7044,160.57203285809263L890.8170333333334,182.36076527308327L893.4076000000001,222.92119462722766L898.0255666666666,200.82450108377188L899.0955833333334,213.73826254114005L899.6024333333332,161.86844570403068L903.4319666666665,197.55090204267256L903.5446000000001,135.35638090720883L906.9236000000001,162.31331167114502L915.87795,213.52073864373992L918.8627333333334,212.43020581622633L919.9890666666666,220.74182724459084L921.7348833333333,227.3984528173076L922.2417333333333,183.44366002636562L923.1991166666667,209.65274783347752L924.1565,209.77135346872808L928.7744666666666,208.41477321160497L930.06975,131.93636134949728L930.8581833333334,160.4423056178656L935.0256166666667,210.73499275690338L941.4457166666667,180.21521666137193L946.8521166666667,135.28119931975039L947.1337,199.71121919317855L949.1610999999999,198.55949233477895L950.9069166666666,203.7806420412816L956.3696333333335,186.70438167992745L957.8338666666666,32.47898317042799L958.0591333333334,217.84146179250513L958.9602,170.760818409104L961.3254999999999,188.04152928931407L964.9297666666668,186.90335623439827L965.0987166666667,228.38315386268107L965.9997833333333,230.15765164945466L971.4061833333333,165.3046822249038L974.3909666666666,150.1895906197217L986.3864166666666,156.06642081822912L987.9632833333333,150.98230676729693L993.93285,225.1714877373165L997.98765,185.74168679430696L1001.4792833333333,215.6828892775737L1005.8719833333334,219.0417446593812L1006.8293666666666,168.31435519236513L1008.3499166666667,226.6648363560984L1009.5325666666668,205.03300819160444L1010.2083666666666,196.49436246924856L1011.0531166666667,188.42414945383146L1014.2631666666667,206.36282064311612L1018.3742833333333,217.50661278208275L1024.5691166666668,214.09186115667248L1027.5538999999999,211.89878970572587L1027.7791666666665,250.75109681678552L1033.2982,186.27025922468653L1035.6634999999999,220.6969982711696L1038.53565,212.91304500385664L1039.8309333333334,180.9080162978567L1043.1536166666665,210.61492918127635L1043.3225666666667,227.5390650110353L1048.6163333333334,221.13305056886176L1050.5311,196.37637283707588L1052.5021833333333,188.7658016715234L1054.6985333333332,125.60195196363466L1059.8796666666667,229.74259871935274L1061.1186333333333,209.39718051173026L1065.7366,166.80949243538532L1073.67725,232.09634906330575L1077.39415,217.08699532309697L1077.7883666666667,200.6893991525021L1078.2952166666666,227.9257418744668L1079.2526,219.80199080729793L1080.2663,262.77724165184975L1083.5889833333333,215.244762975347L1086.4048166666666,234.83491631362273L1089.0517,111.6726287612153L1092.59965,54.00000000000002L1096.8234,164.00761904163855L1097.1613,195.5070913922511L1098.8508,195.37634703729668L1099.35765,192.51664625962084L1099.9208166666667,175.01144164571375L1105.10195,152.10988733408303L1105.6088,218.86338936912455L1105.8340666666666,176.17963423185552L1106.79145,177.33006042664937L1110.3957166666667,184.35094150202826L1111.4657333333334,212.18456630245305L1119.0684833333332,247.74716132343494L1122.6164333333334,161.698805325732L1125.207,222.40418176348888L1127.6849333333332,222.11870286545934L1132.5281666666667,247.80013584524644L1135.7945333333334,199.1611517475334L1144.1857166666666,210.85200412106198L1144.29835,203.56061447435238L1146.1004833333334,245.8934251190945L1147.8463,257.2368377807688L1151.1689833333332,231.20188600441065L1159.2222666666667,227.5794746386288L1160.5738666666666,142.66522698348555L1161.0807166666666,197.36570371610415L1164.1781333333333,248.95424186523312L1172.6819500000001,198.6202677437979L1173.4703833333333,205.3262406521336L1179.2146833333334,261.4455517440839L1180.3973333333333,224.26509398966212L1187.88745,175.2456163363191L1191.94225,204.90175671521664L1193.1812166666668,158.56953116886461L1194.1386,212.07193868086833L1196.7291666666667,169.68623558704303L1198.6439333333333,244.0838412022351L1202.3045166666666,232.95725555784037L1206.80985,219.97209416824458L1211.0899166666666,225.66104880971537L1213.1173166666665,223.27812313608786L1219.3684666666666,211.77091402441732L1219.4247833333334,253.1761784763876L1221.33955,197.87938299617676L1222.1279833333333,237.18362006592608L1224.4932833333332,195.83035105206025L1233.8981666666666,243.86139060213398L1235.6439833333334,248.1005100802044L1237.5587500000001,243.13144820931097L1243.64095,241.96534143750162L1245.4994,223.89649553460336L1246.5131000000001,240.89276584847264L1246.6257333333333,198.2543345093466L1247.9773333333335,218.8336597782594L1248.03365,189.4099519902499L1248.2026,216.36365772000394L1249.2726166666669,231.28464414873264L1251.2437,182.22481953378698L1252.9895166666668,196.9788443901404L1255.1858666666667,173.72715532358592L1255.7490333333333,106.01421539379537L1260.7612166666665,192.66928772654472L1261.5496500000002,221.88721619566923L1263.1828333333333,216.97563378064427L1263.6333666666667,164.03456951871328L1265.26655,226.61816351774442L1270.8419,215.79929751946472L1283.85105,168.54912431650467L1285.4279166666668,244.255385093505L1285.9347666666667,249.43925752982355L1287.5116333333333,224.65272148979264L1289.4827166666666,240.20887723394256L1290.1585166666669,245.0696490918988L1293.7627833333333,183.63738839764508L1301.3655333333334,223.8094996404734L1304.4066333333333,244.0338404363949L1311.8967499999999,209.02718236996108L1311.9530666666667,261.9143062246113L1319.8374000000001,252.41329175952697L1326.6517166666667,234.21736257063353L1327.0459333333333,238.25581136862579L1334.0855166666665,257.58457919651715L1340.4493,220.44067942088583L1341.5193166666668,199.09864317753332L1343.0961833333333,245.25324450522646L1344.3351499999999,234.203845853145L1345.5178,211.27579037979885L1349.3473333333334,251.71731850073692L1352.3321166666667,267.799998166651L1355.5984833333334,218.557802270971L1358.0764166666665,222.69646987975383L1370.1281833333333,220.17534572989888L1371.1418833333332,203.36698587128072L1372.38085,244.09142266569896L1372.71875,233.93521694593255L1378.8572666666666,233.0351739134204L1379.6457,227.14439351666235L1380.2651833333332,188.11812247927605L1383.3626,246.08102060304245L1383.9820833333333,270.3513877105565L1384.3199833333333,236.36412009778283L1387.6426666666666,242.92814558352512L1389.1632166666668,239.11232975577033L1390.4585,221.0994747143363L1394.4006666666667,257.64758636396834L1395.6396333333332,270.39075151282674L1397.4980833333334,232.51363712376386L1398.8496833333334,236.93451984077808L1401.1023500000001,292.16331349338475L1402.1160499999999,263.32909891717486L1402.4539499999998,262.4223938595528L1402.6229,241.31555897827158L1406.9029666666665,247.26445549004868L1406.9592833333334,228.43703637396194L1409.6061666666667,240.00987140008044L1411.3519833333335,236.50484154096458L1412.8725333333334,211.74677787648034L1413.0414833333334,246.65310973854514L1413.3230666666666,223.53984975418012L1417.32155,254.11606548652622L1417.9410333333335,236.74711594374597L1420.70055,211.96557622967148L1423.9106,205.31297730844497L1426.44485,224.85288192591761L1428.7538333333334,272.94318911232097L1429.48595,220.42599683898928L1429.5422666666666,205.7758673566067L1430.7812333333334,244.0838029126501L1431.6823000000002,232.71618789196125L1437.93345,250.88055573750333L1439.1161,203.82349650906562L1443.0019499999999,229.9121552840283L1443.1708999999998,221.29814251336649L1443.2272166666667,232.86884263503882L1445.9304166666666,223.55849713298133L1447.2820166666668,273.92366307204753L1454.7158166666666,202.9425781166421L1459.22115,202.02735665550728L1459.9532666666667,229.94518864819744L1463.5575333333334,198.58866064149862L1467.2181166666667,229.38475070958327L1468.5134,251.43523246457232L1473.244,235.68670062321814L1473.41295,192.03497694893704L1473.6945333333333,213.45686719698693L1477.46775,241.52253311038365L1478.48145,211.13938508395995L1482.7052,186.94123656916832L1484.90155,243.34407145676857L1493.7995833333332,248.50668162601434L1496.1648833333331,267.4275091039824L1496.2212000000002,230.65253811540325L1499.8817833333335,239.64844740803431L1500.2196833333333,234.86864613411979L1501.6839166666666,250.77096334660132L1502.8665666666666,242.35545182926938L1503.2044666666668,249.23257454374615L1512.1025,193.36736581842413L1525.5621833333335,245.51387654546974L1526.2943,232.61202161996363L1528.2090666666666,267.50408263346725L1529.5606666666667,222.2835987395605L1530.3491000000001,245.69900318023883L1531.9259666666667,231.8421677946534L1538.3460666666667,222.26092790274387L1540.3171499999999,253.81168951383134L1542.4008666666668,246.88529404246387L1547.5256833333333,295.34664380341667L1554.84685,241.56778679608675L1559.0706,261.90203835728994L1564.1390999999999,238.7606369449079L1564.3080499999999,248.2818629148161L1572.5865999999999,260.31243412813683L1572.8118666666667,234.51781478772497L1575.2334833333334,245.35045842274545L1575.8529666666666,239.39028640369514L1576.4161333333334,262.6292682417319L1578.3309000000002,233.5376703915193L1578.8940666666667,209.79109403871868L1580.3583,266.8441796360491L1582.89255,267.42274132173907L1584.1878333333334,253.67805529085945L1587.0599833333333,230.70206010343296L1588.4115833333335,238.05037542808876L1589.4815999999998,275.00145708180486L1592.1284833333334,281.7946199310302L1598.4922666666666,267.2896859133888L1601.2517833333334,200.45167301365433L1605.8134333333333,222.83673128484813L1606.4329166666666,224.33500883337086L1607.55925,254.12522499249496L1611.6703666666667,237.31975038647093L1614.8804166666666,266.2887028589237L1620.9063,291.66423787176143L1628.8469499999999,251.4622156325031L1631.0433,248.18482476870014L1632.6764833333334,273.7095366816934L1637.5760333333335,233.68448545253813L1640.2792333333334,203.40567288543807L1640.3918666666666,197.39989353037163L1642.5319,225.50035350480715L1643.8271833333333,184.88011167969992L1647.8256666666668,264.7357479057707L1655.7663166666666,242.29860656228036L1659.3705833333333,208.8509225780918L1664.8896166666668,239.5347870717012L1665.34015,254.11494557196346L1673.9002833333334,222.41273627634044L1675.1392500000002,213.13258826498233L1676.9977000000001,210.7613581846255L1681.1651333333334,277.0917070454835L1683.3614833333334,230.4395454170027L1688.2047166666666,242.00375733021346L1692.3158333333333,247.2061121074697L1693.7237499999999,290.9037677702917L1694.4558666666665,215.71935571581375L1694.962716666667,240.1477797785536L1699.4117333333334,245.47463866923022L1702.7344166666667,268.4132330903635L1709.1545166666667,219.58223702627464L1709.9992666666667,242.33652717867193L1714.4482833333332,256.5239919410617L1719.3478333333335,247.0764549331444L1724.3600166666665,275.40007460106165L1726.4437333333333,237.29274092635367L1728.4148166666664,258.9360374204621L1732.5822500000002,219.6686292913871L1739.5655166666668,237.51554762070074L1740.7481666666667,269.58776834245907L1741.2550166666665,242.69756100762785L1742.156083333333,287.16517231056724L1745.7040333333334,266.01317273413304L1745.7603500000002,270.29096000211496L1746.5487833333334,278.12405360714405L1753.4757333333334,264.2218182456046L1754.0952166666666,255.53062329166173L1759.7268833333335,277.45177537576205L1763.5001000000002,290.11086113192147L1774.7634333333333,259.07725898022005L1781.91565,298.13105716883933L1781.9719666666665,247.5791165751224L1783.60515,259.6114488699565L1783.7177833333335,271.7936731844774L1789.2931333333331,250.78663310020514L1797.7406333333333,239.0103759647904L1801.3449,196.734091771903L1801.6828,220.7573430107183L1802.0207,244.67930626412274L1802.2459666666666,261.42352327720147L1802.3022833333332,254.74090756895575L1808.7787,275.1309002242735L1811.8761166666668,229.8461747698703L1818.6341166666666,275.0307172566341L1821.7878500000002,304.1847029590912L1827.3068833333332,286.09170829417735L1827.8700500000002,297.92167263786405L1828.2642666666668,270.59151725817753L1829.2779666666665,215.0740525589163L1832.4880166666667,284.25724272973713L1834.96595,225.60081686694377L1839.8091833333333,245.461618644403L1844.9340000000002,224.2312684573954L1845.0466333333334,239.6914742603359L1846.8487666666665,258.38690936974183L1847.8624666666665,252.5587660620463L1863.8000833333333,259.5612934208256L1865.264316666667,266.6184028503868L1867.7422499999998,287.38398069414876L1870.8396666666665,263.58588312218217L1874.3312999999998,273.5881823668387L1875.0634166666664,251.88817822215836L1880.24455,267.1354583468122L1881.8777333333333,297.014278999333L1884.0740833333332,231.31195308630262L1899.84275,244.6267962876149L1904.2917666666667,261.88995731982817L1905.7559999999999,161.78530976150066L1906.9949666666666,210.4604883781315L1908.0649833333332,245.24458558745386L1909.4729000000002,270.06878440962566L1910.3739666666668,232.21309959236032L1911.0497666666668,294.168971484591L1913.4713833333335,257.771092314783L1917.3009166666668,237.6243980111531L1920.7925500000001,284.4317928582837L1932.5064166666666,270.4800426018082L1932.9006333333332,298.5514665816888L1933.4074833333334,284.0629142820794L1936.2233166666665,264.36358541376893L1936.3922666666665,252.28689559726197L1937.5749166666667,265.14604593307627L1939.3207333333332,282.70529180733104L1940.39075,285.1511645887786L1948.0498166666666,248.0942174341096L1952.6114666666665,275.6926493963502L1952.6677833333333,279.45104523299307L1954.58255,311.0862969263912L1962.2979333333333,314.0201795189039L1962.5795166666667,272.81794320197855L1964.04375,262.4373436441946L1966.6343166666666,276.1614390849366L1967.4790666666668,256.74524584173895L1972.0970333333335,285.9681441726184L1974.5186500000002,265.08017451920676L1975.9828833333333,237.20719782800475L1978.2918666666667,283.5887334867003L1980.7134833333332,283.9068776308189L1988.1472833333335,260.1748871629347L1988.5415,250.43195012599912L1988.7667666666666,207.35885411221568L1994.511066666667,317.96411489777495L1996.7637333333332,265.5893012797134L2002.0575000000001,248.86346773902523L2002.8459333333333,264.0189143002992L2003.8596333333332,289.81244655082196L2006.2249333333334,294.0475811870756L2021.5430666666664,255.50667944855385L2024.52785,259.8766209515303L2031.2295333333332,276.86953349190003L2041.4791666666665,291.80769985297854L2043.5628833333333,275.76982841782893L2048.8566499999997,291.09353808449714L2057.811,291.49154747306557L2059.2752333333333,294.34227963500325L2061.5279,310.25808377955616L2064.118466666667,261.2586555026652L2067.77905,305.8751685045086L2068.1732666666667,272.1760339693526L2068.6238,295.995374506132L2071.3269999999998,219.3575694808308L2071.83385,260.7229966657681L2075.1565333333333,278.5779229704331L2075.88865,259.8909139646043L2084.0545666666667,285.92457482105357L2084.7303666666667,289.47458024753337L2086.588816666667,272.3988700836306L2088.954116666667,262.34695478194277L2092.6147,310.95018788535214L2096.7821333333336,266.7710372326645L2099.4290166666665,252.51709612118066L2103.0896,274.84794598876283L2104.722783333333,295.7674297791098L2105.4549,291.0682200628944L2109.34075,278.3583094413116L2109.5097,248.1208308532183L2111.9313166666666,294.2546567303438L2114.6908333333336,232.19239172575774L2117.8445666666667,272.251868370903L2125.278366666667,284.93689342423215L2125.7289,267.493039042568L2126.1231166666666,306.0140197148369L2131.3605666666667,178.60773950721733L2132.0363666666667,172.45157225547447L2133.1627,236.3613802269762L2139.5828,253.1522594643151L2139.8080666666665,289.752520527421L2141.3286166666667,283.2402926600092L2141.4412500000003,284.5328931699704L2146.5097499999997,309.12914398749956L2150.4519166666664,125.77902954118453L2151.9724666666666,245.5835079921696L2152.366683333333,173.9434996630873L2152.5356333333334,223.04352768058448L2153.94355,255.87786780288454L2161.602616666667,278.9405506457401L2166.78375,209.866559205995L2167.1779666666666,269.26141183997254L2172.246466666667,264.34811261535367L2172.7533166666667,264.28934637771914L2173.4291166666667,303.65530114344267L2174.4991333333332,263.81285163144327L2175.4565166666666,280.3089156661016L2178.497616666667,289.71857093487074L2179.173416666667,272.28134343759626L2180.581333333333,271.443320138524L2182.66505,270.33080703097687L2185.931416666667,244.3371897616711L2188.5219833333335,281.0254887406142L2189.592,286.5549636342159L2189.9862166666667,267.9975152814893L2192.5767833333334,280.3285711997921L2195.50525,265.4787750170562L2195.6742,281.91733773616687L2197.6452833333333,263.00748722324346L2204.96645,278.8846388727297L2207.8949166666666,302.7287996651255L2207.951233333333,260.6782569416151L2209.1338833333334,287.97468395299484L2212.2313,201.62780633867135L2217.13085,258.00290593535453L2217.1871666666666,240.15856382423325L2219.3272,224.446969550081L2221.298283333333,247.11519115890994L2221.8051333333333,289.2739533470103L2224.0014833333335,276.0526439856814L2226.761,251.29317334063214L2229.858416666667,295.2549064474026L2231.66055,247.6092085975649L2237.0106333333333,255.0101555191502L2245.5707666666667,284.60633857962193L2248.330283333333,219.32841199424973L2250.3576833333336,278.7694500222254L2253.8493166666667,282.9422236305804L2258.1857,294.2271311200071L2258.35465,293.51496916486116L2262.6347166666665,263.3905352400431L2263.8173666666667,241.3435937549189L2264.2679000000003,281.96173443654317L2265.000016666667,278.8869775390048L2265.11265,291.5230772705163L2265.45055,267.4447163225141L2270.9695833333335,283.74603299914196L2271.0822166666667,298.040381155259L2275.9817666666668,328.50541234717565L2276.1507166666665,290.53090519418765L2277.6712666666667,263.40929626359036L2287.3014166666667,264.49964449584087L2287.6956333333333,296.78512991394905L2291.4125333333336,285.2935504740623L2291.6941166666666,270.6171275481413L2297.55105,285.18872721805366L2298.5084333333334,268.084266628823L2302.28165,265.37636655201896L2303.407983333333,262.15754368558135L2309.4338666666667,249.57274432112635L2312.3623333333335,274.22870375282986L2313.2070833333332,283.9399798867609L2314.051833333333,260.3106672874522L2314.9529,271.9972460146964L2315.685016666667,300.8073775609457L2317.6560999999997,272.24394840226716L2318.7261166666667,261.8626325199668L2319.1203333333333,306.76404147582423L2332.242116666667,281.468593248628L2335.6211166666667,250.01010811230304L2337.3106166666666,300.85163032029755L2338.380633333333,270.00247357512603L2343.3928166666665,285.4389120873431L2345.5891666666666,297.72645117424327L2345.8144333333335,254.87443874335878L2346.321283333333,279.9831072674235L2346.659183333333,296.1387560684301L2348.0670999999998,304.6789947771916L2351.27715,277.001844263344L2359.4993833333333,288.6661019469746L2366.0321166666668,265.76906454429036L2367.8905666666665,328.743670733583L2374.0290833333333,305.58345834641204L2374.3669833333333,273.1994265937713L2374.873833333333,291.57913569012237L2382.138683333333,310.08687506217984L2384.05345,289.12742871057435L2398.4705166666668,244.22218480208005L2399.5405333333333,323.57753342717376L2401.96215,319.0409035527736L2405.848,318.09239588666344L2417.9560833333335,286.5554472304936L2423.6440666666667,328.4137445707769L2426.7414833333332,297.59710427338L2427.5862333333334,314.13080442209196L2431.4720833333336,291.1326714198484L2433.38685,285.8264649137337L2437.5542833333334,300.0868844922508L2438.45535,285.8265796914136L2439.074833333333,275.63760953525224L2440.9896000000003,260.2707526324997L2445.4949333333334,278.49928442621353L2448.93025,285.76529656190314L2448.9865666666665,304.06926661641324L2452.252933333333,275.5310594114457L2453.3792666666664,316.1752357846396L2455.8008833333333,285.8619569023744L2456.0824666666667,305.9052015641627L2460.1372666666666,307.1542268358158L2468.0779166666666,294.1216547260266L2469.3732,325.4631052403912L2469.4295166666666,277.34646119868006L2477.088583333333,295.96922313274035L2482.4949833333335,227.6815459102384L2485.817666666667,269.53831911934907L2486.43715,307.5590276424016L2502.4310833333334,285.4170045991062L2504.7400666666667,315.0819000456254L2508.682233333333,279.5568811625566L2510.2591,275.8521329106722L2513.13125,333.06425761308265L2518.5939666666663,294.57570664913453L2520.3397833333333,310.1565272617344L2520.6213666666667,313.1376855438119L2521.5787499999997,291.1256006184222L2524.4509,310.248561748199L2526.5909333333334,281.8589827697002L2538.079533333333,286.51330908594025L2542.1343333333334,270.75461675369695L2548.0475833333335,308.07421315739566L2552.947133333333,270.27843010722677L2553.6229333333335,291.7823737566966L2555.4250666666667,241.8863481779478L2557.0019333333335,58.89371801196673L2561.901483333333,243.07890923668327L2562.46465,215.90997213986665L2562.80255,210.92849785926586L2563.0278166666667,244.55405830686792L2564.7736333333332,238.08487867687617L2564.886266666667,179.0367395454865L2565.6747,209.07523482927354L2566.0126,178.2595873924263L2570.123716666667,263.72898938315205L2584.0339333333336,302.0719551525234L2588.9898,309.33393846945836L2590.4540333333334,296.84106525484833L2595.5225333333333,299.93399108887724L2597.043083333333,306.794945273963L2600.98525,324.9755024020344L2604.8147833333333,318.5427906337607L2605.71585,286.80700905391654L2609.43275,310.00982298021194L2612.13595,320.7923775645638L2613.0370166666667,256.54387849337485L2614.6702,262.0803902374919L2616.0781166666666,284.6097180439061L2617.148133333333,295.2047833189636L2625.2577333333334,262.99320703820507L2625.7082666666665,309.23543238068135L2629.3125333333332,253.605031541013L2630.833083333333,271.10125133067464L2638.4358333333334,310.5808661355445L2638.83005,299.5073699887372L2639.84375,248.729962147167L2645.644366666667,283.93046306928494L2646.995966666667,315.82261804043577L2647.559133333333,324.41137956432345L2648.3475666666664,295.9365021167845L2651.8392000000003,257.6282945498799L2657.189283333333,358.4750801320046L2660.906183333333,308.149025636234L2661.6383,285.71109640867815L2663.440433333333,299.7560527691778L2664.454133333333,318.45597442630844L2665.0173,330.4119902806857L2666.19995,326.06522681805006L2672.338466666667,270.16762175218184L2676.2806333333333,282.48681589841925L2681.7996666666663,239.77462096514924L2688.3887166666664,322.7911507736207L2690.52875,289.0508025316623L2692.3871999999997,282.62774214504907L2693.3445833333335,292.0785217958005L2695.540933333333,274.6910817599001L2709.1695666666665,291.62659127945346L2710.0706333333333,296.6989539983489L2718.1802333333335,294.9861724328632L2721.1087,286.33123674893494L2723.5866333333333,283.92019536582876L2725.5577166666667,293.7672553757528L2727.2472166666666,332.68881348828586L2728.5988166666666,323.9915988834944L2729.9504166666666,313.4536659190208L2730.40095,283.60721634217924L2731.0204333333336,331.8778406710547L2731.07675,296.2703598361915L2734.45575,303.4667524360055L2735.9763,289.62277325598114L2736.2015666666666,263.91020439547844L2737.046316666667,281.43102530143483L2738.51055,303.3776150950338L2739.1300333333334,290.59956534621045L2739.7495166666668,237.98537418246755L2741.607966666667,315.4678504570591L2746.3948833333334,319.08716375025676L2749.3796666666667,294.32546221291364L2749.604933333333,270.0195531091124L2750.3370499999996,275.80235110551223L2754.8423833333336,305.77052179360857L2755.06765,291.54338569021866L2756.5881999999997,271.0899475066641L2757.09505,301.5462589129283L2761.9946,323.1084047298891L2762.3888166666666,346.3727218984072L2764.86675,306.6019965515972L2767.8515333333335,290.0934382972933L2769.822616666667,340.1731787788196L2770.047883333333,277.97104000272947L2773.4832,291.92152502594814L2778.9459166666666,309.26989835713255L2781.0859499999997,297.83642425072514L2783.6765166666664,347.93874187853686L2783.732833333333,324.8000256390783L2783.9017833333332,291.2903292281393L2787.055516666667,295.30432285899076L2791.7861166666667,331.9563811993326L2793.1377166666666,308.32282209343833L2795.8972333333336,263.80238021450697L2796.6856666666667,309.79349594528776L2805.0205333333333,301.308671567043L2806.7100333333333,325.2245282710517L2810.0327166666666,281.4238637634453L2812.9048666666667,265.92818854553605L2824.5061,280.98538572684805L2825.01295,270.8667193505023L2826.1392833333334,319.8279566526111L2827.8851,330.43006286294514L2827.997733333333,338.6865623223061L2835.600483333333,320.3950194872502L2837.627883333333,278.50931290275634L2840.1058166666667,273.83317753629484L2843.4285,287.7571418060806L2844.1043,288.81907703537956L2850.468083333333,303.0774489639255L2852.5517999999997,316.1492526077439L2854.2976166666667,292.12907691047485L2856.2687,287.54537899191126L2864.7162,304.56096910132186L2865.22305,303.6713760959722L2866.7436000000002,311.422534789382L2868.4330999999997,303.98613068417086L2870.347866666667,318.26105508626677L2872.8821166666667,257.9797404929696L2873.3326500000003,325.492644722127L2874.9095166666666,324L2881.2733,303.0696300242954L2882.1743666666666,333.77352314523125L2883.46965,317.4348483896848L2885.6659999999997,280.76469706620816L2886.623383333333,342.5410028751277L2891.4666166666666,335.62544890167135L2891.973466666667,337.9940000709907L2893.8882333333336,302.1959319845378L2900.36465,309.2181250887507L2902.561,289.27539809278846L2905.489466666667,327.044358286564L2921.708666666667,324.36286870862637L2922.8913166666666,262.67081905941046L2930.8319666666666,264.0651232236587L2933.253583333333,316.00380628347966L2936.2383666666665,312.80504986417947L2936.632583333333,295.2618422827058L2937.7589166666667,336.49868223372135L2939.2231500000003,333.3711323256719L2944.2916499999997,338.15110748128524L2947.2201166666664,332.5178430480156L2950.5991166666668,301.3870376949457L2950.9933333333333,277.50543577192184L2952.6265166666667,304.9661411894728L2955.6113,320.1596682919794L2955.836566666667,260.92838835017625L2956.5686833333334,313.34872211229094L2957.3571166666666,311.3171030798126L2958.708716666667,340.2262769313535L2959.3845166666665,331.5804853526945L2961.18665,307.6263534595244L2961.5808666666667,339.3541550806826L2962.3693000000003,293.40882239714057L2968.7330833333335,318.29060894409116L2969.352566666667,277.6369611181514L2969.690466666667,277.3691177100762L2971.9994500000003,298.8439082242349L2972.2247166666666,273.60354950085195L2973.01315,297.9791194239843L2974.308433333333,333.10963465300927L2980.2780000000002,335.1919504832988L2982.6996166666668,298.89755236186676L2985.17755,350.55375942881983L2986.1912500000003,103.48481831469229L2987.0923166666666,272.2843517515911L2988.7818166666666,297.82394444890144L2992.6676666666667,274.87775572672774L2999.70725,308.36317744982426L3002.1288666666665,267.00366888265296L3002.2414999999996,312.0375150488226L3004.3252166666666,300.25808847016384L3004.381533333333,294.05966736968605L3004.9447,354.2543684091523L3005.395233333333,289.4215274129802L3006.80315,335.1168623121987L3011.4774333333335,327.72662045768186L3011.7590166666664,290.1276303952917L3012.6037666666666,286.111335780453L3023.5292,336.6227602883404L3031.3009,325.58518814122476L3043.240033333333,301.4021442337358L3047.6327333333334,351.52053277317L3050.6738333333333,321.9996837640244L3052.08175,297.8619180438405L3059.17765,289.5556406293213L3063.7392999999997,330.92043148921204L3066.4988166666667,304.3164417675902L3067.1746166666667,327.8192408564282L3068.2446333333332,339.59477926742517L3071.5673166666666,324.35008439522636L3078.10005,300.8996662091344L3082.5490666666665,331.84364185027243L3084.914366666667,349.3069572606269L3087.955466666667,326.7628387190787" style="fill: none;" fill="none"></path></g></g></g></g></g></g><g transform="translate(54, 378)" clip-path="url(#clip_1)"><clipPath id="clip_1"><rect width="3379" height="22"></rect></clipPath><g><g><line x1="0" y1="0" x2="0" y2="5" style="visibility: inherit;" fill="rgb(0, 0, 0)" stroke="rgb(204, 204, 204)" stroke-width="1px"></line><line x1="281.5833333333333" y1="0" x2="281.5833333333333" y2="5" style="visibility: inherit;" fill="rgb(0, 0, 0)" stroke="rgb(204, 204, 204)" stroke-width="1px"></line><line x1="563.1666666666666" y1="0" x2="563.1666666666666" y2="5" style="visibility: inherit;" fill="rgb(0, 0, 0)" stroke="rgb(204, 204, 204)" stroke-width="1px"></line><line x1="844.75" y1="0" x2="844.75" y2="5" style="visibility: inherit;" fill="rgb(0, 0, 0)" stroke="rgb(204, 204, 204)" stroke-width="1px"></line><line x1="1126.3333333333333" y1="0" x2="1126.3333333333333" y2="5" style="visibility: inherit;" fill="rgb(0, 0, 0)" stroke="rgb(204, 204, 204)" stroke-width="1px"></line><line x1="1407.9166666666667" y1="0" x2="1407.9166666666667" y2="5" style="visibility: inherit;" fill="rgb(0, 0, 0)" stroke="rgb(204, 204, 204)" stroke-width="1px"></line><line x1="1689.5" y1="0" x2="1689.5" y2="5" style="visibility: inherit;" fill="rgb(0, 0, 0)" stroke="rgb(204, 204, 204)" stroke-width="1px"></line><line x1="1971.0833333333335" y1="0" x2="1971.0833333333335" y2="5" style="visibility: inherit;" fill="rgb(0, 0, 0)" stroke="rgb(204, 204, 204)" stroke-width="1px"></line><line x1="2252.6666666666665" y1="0" x2="2252.6666666666665" y2="5" style="visibility: inherit;" fill="rgb(0, 0, 0)" stroke="rgb(204, 204, 204)" stroke-width="1px"></line><line x1="2534.25" y1="0" x2="2534.25" y2="5" style="visibility: inherit;" fill="rgb(0, 0, 0)" stroke="rgb(204, 204, 204)" stroke-width="1px"></line><line x1="2815.8333333333335" y1="0" x2="2815.8333333333335" y2="5" style="visibility: inherit;" fill="rgb(0, 0, 0)" stroke="rgb(204, 204, 204)" stroke-width="1px"></line><line x1="3097.4166666666665" y1="0" x2="3097.4166666666665" y2="5" style="visibility: inherit;" fill="rgb(0, 0, 0)" stroke="rgb(204, 204, 204)" stroke-width="1px"></line><line x1="3379" y1="0" x2="3379" y2="5" style="visibility: inherit;" fill="rgb(0, 0, 0)" stroke="rgb(204, 204, 204)" stroke-width="1px"></line></g><g transform="translate(0, 8)"><text x="0" y="0" dx="0em" dy="0.95em" style="text-anchor: middle; visibility: hidden; font-family: Roboto, sans-serif; font-size: 12px; font-weight: 200;" fill="rgb(50, 49, 63)" stroke="none" stroke-width="1px">-5k</text><text x="281.5833333333333" y="0" dx="0em" dy="0.95em" style="text-anchor: middle; visibility: inherit; font-family: Roboto, sans-serif; font-size: 12px; font-weight: 200;" fill="rgb(50, 49, 63)" stroke="none" stroke-width="1px">0</text><text x="563.1666666666666" y="0" dx="0em" dy="0.95em" style="text-anchor: middle; visibility: inherit; font-family: Roboto, sans-serif; font-size: 12px; font-weight: 200;" fill="rgb(50, 49, 63)" stroke="none" stroke-width="1px">5k</text><text x="844.75" y="0" dx="0em" dy="0.95em" style="text-anchor: middle; visibility: inherit; font-family: Roboto, sans-serif; font-size: 12px; font-weight: 200;" fill="rgb(50, 49, 63)" stroke="none" stroke-width="1px">10k</text><text x="1126.3333333333333" y="0" dx="0em" dy="0.95em" style="text-anchor: middle; visibility: inherit; font-family: Roboto, sans-serif; font-size: 12px; font-weight: 200;" fill="rgb(50, 49, 63)" stroke="none" stroke-width="1px">15k</text><text x="1407.9166666666667" y="0" dx="0em" dy="0.95em" style="text-anchor: middle; visibility: inherit; font-family: Roboto, sans-serif; font-size: 12px; font-weight: 200;" fill="rgb(50, 49, 63)" stroke="none" stroke-width="1px">20k</text><text x="1689.5" y="0" dx="0em" dy="0.95em" style="text-anchor: middle; visibility: inherit; font-family: Roboto, sans-serif; font-size: 12px; font-weight: 200;" fill="rgb(50, 49, 63)" stroke="none" stroke-width="1px">25k</text><text x="1971.0833333333335" y="0" dx="0em" dy="0.95em" style="text-anchor: middle; visibility: inherit; font-family: Roboto, sans-serif; font-size: 12px; font-weight: 200;" fill="rgb(50, 49, 63)" stroke="none" stroke-width="1px">30k</text><text x="2252.6666666666665" y="0" dx="0em" dy="0.95em" style="text-anchor: middle; visibility: inherit; font-family: Roboto, sans-serif; font-size: 12px; font-weight: 200;" fill="rgb(50, 49, 63)" stroke="none" stroke-width="1px">35k</text><text x="2534.25" y="0" dx="0em" dy="0.95em" style="text-anchor: middle; visibility: inherit; font-family: Roboto, sans-serif; font-size: 12px; font-weight: 200;" fill="rgb(50, 49, 63)" stroke="none" stroke-width="1px">40k</text><text x="2815.8333333333335" y="0" dx="0em" dy="0.95em" style="text-anchor: middle; visibility: inherit; font-family: Roboto, sans-serif; font-size: 12px; font-weight: 200;" fill="rgb(50, 49, 63)" stroke="none" stroke-width="1px">45k</text><text x="3097.4166666666665" y="0" dx="0em" dy="0.95em" style="text-anchor: middle; visibility: inherit; font-family: Roboto, sans-serif; font-size: 12px; font-weight: 200;" fill="rgb(50, 49, 63)" stroke="none" stroke-width="1px">50k</text><text x="3379" y="0" dx="0em" dy="0.95em" style="text-anchor: middle; visibility: hidden; font-family: Roboto, sans-serif; font-size: 12px; font-weight: 200;" fill="rgb(50, 49, 63)" stroke="none" stroke-width="1px">55k</text></g><line x1="0" y1="0" x2="3379" y2="0" fill="rgb(0, 0, 0)" stroke="rgb(204, 204, 204)" stroke-width="1px"></line></g></g></g></g></svg>