<svg viewBox="0 0 330 200" xmlns="http://www.w3.org/2000/svg"><g><g><g><g><g><line x1="54" y1="178" x2="49" y2="178" style="visibility: inherit;" fill="rgb(0, 0, 0)" stroke="rgb(204, 204, 204)" stroke-width="1px"></line><line x1="54" y1="163.16666666666669" x2="49" y2="163.16666666666669" style="visibility: inherit;" fill="rgb(0, 0, 0)" stroke="rgb(204, 204, 204)" stroke-width="1px"></line><line x1="54" y1="148.33333333333334" x2="49" y2="148.33333333333334" style="visibility: inherit;" fill="rgb(0, 0, 0)" stroke="rgb(204, 204, 204)" stroke-width="1px"></line><line x1="54" y1="133.5" x2="49" y2="133.5" style="visibility: inherit;" fill="rgb(0, 0, 0)" stroke="rgb(204, 204, 204)" stroke-width="1px"></line><line x1="54" y1="118.66666666666669" x2="49" y2="118.66666666666669" style="visibility: inherit;" fill="rgb(0, 0, 0)" stroke="rgb(204, 204, 204)" stroke-width="1px"></line><line x1="54" y1="103.83333333333331" x2="49" y2="103.83333333333331" style="visibility: inherit;" fill="rgb(0, 0, 0)" stroke="rgb(204, 204, 204)" stroke-width="1px"></line><line x1="54" y1="89" x2="49" y2="89" style="visibility: inherit;" fill="rgb(0, 0, 0)" stroke="rgb(204, 204, 204)" stroke-width="1px"></line><line x1="54" y1="74.16666666666666" x2="49" y2="74.16666666666666" style="visibility: inherit;" fill="rgb(0, 0, 0)" stroke="rgb(204, 204, 204)" stroke-width="1px"></line><line x1="54" y1="59.33333333333332" x2="49" y2="59.33333333333332" style="visibility: inherit;" fill="rgb(0, 0, 0)" stroke="rgb(204, 204, 204)" stroke-width="1px"></line><line x1="54" y1="44.5" x2="49" y2="44.5" style="visibility: inherit;" fill="rgb(0, 0, 0)" stroke="rgb(204, 204, 204)" stroke-width="1px"></line><line x1="54" y1="29.66666666666666" x2="49" y2="29.66666666666666" style="visibility: inherit;" fill="rgb(0, 0, 0)" stroke="rgb(204, 204, 204)" stroke-width="1px"></line><line x1="54" y1="14.83333333333332" x2="49" y2="14.83333333333332" style="visibility: inherit;" fill="rgb(0, 0, 0)" stroke="rgb(204, 204, 204)" stroke-width="1px"></line><line x1="54" y1="0" x2="49" y2="0" style="visibility: inherit;" fill="rgb(0, 0, 0)" stroke="rgb(204, 204, 204)" stroke-width="1px"></line></g><g transform="translate(44, 0)"><text x="0" y="178" dx="0em" dy="0.3em" style="text-anchor: end; visibility: hidden; font-family: Roboto, sans-serif; font-size: 12px; font-weight: 200;" fill="rgb(50, 49, 63)" stroke="none" stroke-width="1px">-1.2</text><text x="0" y="163.16666666666669" dx="0em" dy="0.3em" style="text-anchor: end; visibility: inherit; font-family: Roboto, sans-serif; font-size: 12px; font-weight: 200;" fill="rgb(50, 49, 63)" stroke="none" stroke-width="1px">-1</text><text x="0" y="148.33333333333334" dx="0em" dy="0.3em" style="text-anchor: end; visibility: hidden; font-family: Roboto, sans-serif; font-size: 12px; font-weight: 200;" fill="rgb(50, 49, 63)" stroke="none" stroke-width="1px">-0.8</text><text x="0" y="133.5" dx="0em" dy="0.3em" style="text-anchor: end; visibility: inherit; font-family: Roboto, sans-serif; font-size: 12px; font-weight: 200;" fill="rgb(50, 49, 63)" stroke="none" stroke-width="1px">-0.6</text><text x="0" y="118.66666666666669" dx="0em" dy="0.3em" style="text-anchor: end; visibility: hidden; font-family: Roboto, sans-serif; font-size: 12px; font-weight: 200;" fill="rgb(50, 49, 63)" stroke="none" stroke-width="1px">-0.4</text><text x="0" y="103.83333333333331" dx="0em" dy="0.3em" style="text-anchor: end; visibility: inherit; font-family: Roboto, sans-serif; font-size: 12px; font-weight: 200;" fill="rgb(50, 49, 63)" stroke="none" stroke-width="1px">-0.2</text><text x="0" y="89" dx="0em" dy="0.3em" style="text-anchor: end; visibility: hidden; font-family: Roboto, sans-serif; font-size: 12px; font-weight: 200;" fill="rgb(50, 49, 63)" stroke="none" stroke-width="1px">0</text><text x="0" y="74.16666666666666" dx="0em" dy="0.3em" style="text-anchor: end; visibility: inherit; font-family: Roboto, sans-serif; font-size: 12px; font-weight: 200;" fill="rgb(50, 49, 63)" stroke="none" stroke-width="1px">0.2</text><text x="0" y="59.33333333333332" dx="0em" dy="0.3em" style="text-anchor: end; visibility: hidden; font-family: Roboto, sans-serif; font-size: 12px; font-weight: 200;" fill="rgb(50, 49, 63)" stroke="none" stroke-width="1px">0.4</text><text x="0" y="44.5" dx="0em" dy="0.3em" style="text-anchor: end; visibility: inherit; font-family: Roboto, sans-serif; font-size: 12px; font-weight: 200;" fill="rgb(50, 49, 63)" stroke="none" stroke-width="1px">0.6</text><text x="0" y="29.66666666666666" dx="0em" dy="0.3em" style="text-anchor: end; visibility: hidden; font-family: Roboto, sans-serif; font-size: 12px; font-weight: 200;" fill="rgb(50, 49, 63)" stroke="none" stroke-width="1px">0.8</text><text x="0" y="14.83333333333332" dx="0em" dy="0.3em" style="text-anchor: end; visibility: inherit; font-family: Roboto, sans-serif; font-size: 12px; font-weight: 200;" fill="rgb(50, 49, 63)" stroke="none" stroke-width="1px">1</text><text x="0" y="0" dx="0em" dy="0.3em" style="text-anchor: end; visibility: hidden; font-family: Roboto, sans-serif; font-size: 12px; font-weight: 200;" fill="rgb(50, 49, 63)" stroke="none" stroke-width="1px">1.2</text></g><line x1="54" y1="0" x2="54" y2="178" fill="rgb(0, 0, 0)" stroke="rgb(204, 204, 204)" stroke-width="1px"></line></g></g><g transform="translate(54, 0)" clip-path="url(#clip_0)"><clipPath id="clip_0"><rect width="276" height="178"></rect></clipPath><g><g><g><line x1="0" y1="0" x2="0" y2="178" fill="rgb(0, 0, 0)" stroke="rgb(60, 60, 60)" stroke-width="1px" opacity="0.25"></line><line x1="19.71428571428571" y1="0" x2="19.71428571428571" y2="178" fill="rgb(0, 0, 0)" stroke="rgb(60, 60, 60)" stroke-width="1px" opacity="0.25"></line><line x1="39.42857142857142" y1="0" x2="39.42857142857142" y2="178" fill="rgb(0, 0, 0)" stroke="rgb(60, 60, 60)" stroke-width="1px" opacity="0.25"></line><line x1="59.14285714285714" y1="0" x2="59.14285714285714" y2="178" fill="rgb(0, 0, 0)" stroke="rgb(60, 60, 60)" stroke-width="1px" opacity="0.25"></line><line x1="78.85714285714285" y1="0" x2="78.85714285714285" y2="178" fill="rgb(0, 0, 0)" stroke="rgb(60, 60, 60)" stroke-width="1px" opacity="0.25"></line><line x1="98.57142857142857" y1="0" x2="98.57142857142857" y2="178" fill="rgb(0, 0, 0)" stroke="rgb(60, 60, 60)" stroke-width="1px" opacity="0.25"></line><line x1="118.28571428571428" y1="0" x2="118.28571428571428" y2="178" fill="rgb(0, 0, 0)" stroke="rgb(60, 60, 60)" stroke-width="1px" opacity="0.25"></line><line x1="138" y1="0" x2="138" y2="178" fill="rgb(0, 0, 0)" stroke="rgb(60, 60, 60)" stroke-width="1px" opacity="0.25"></line><line x1="157.7142857142857" y1="0" x2="157.7142857142857" y2="178" fill="rgb(0, 0, 0)" stroke="rgb(60, 60, 60)" stroke-width="1px" opacity="0.25"></line><line x1="177.42857142857144" y1="0" x2="177.42857142857144" y2="178" fill="rgb(0, 0, 0)" stroke="rgb(60, 60, 60)" stroke-width="1px" opacity="0.25"></line><line x1="197.14285714285714" y1="0" x2="197.14285714285714" y2="178" fill="rgb(0, 0, 0)" stroke="rgb(60, 60, 60)" stroke-width="1px" opacity="0.25"></line><line x1="216.85714285714286" y1="0" x2="216.85714285714286" y2="178" fill="rgb(0, 0, 0)" stroke="rgb(60, 60, 60)" stroke-width="1px" opacity="0.25"></line><line x1="236.57142857142856" y1="0" x2="236.57142857142856" y2="178" fill="rgb(0, 0, 0)" stroke="rgb(60, 60, 60)" stroke-width="1px" opacity="0.25"></line><line x1="256.2857142857143" y1="0" x2="256.2857142857143" y2="178" fill="rgb(0, 0, 0)" stroke="rgb(60, 60, 60)" stroke-width="1px" opacity="0.25"></line><line x1="276" y1="0" x2="276" y2="178" fill="rgb(0, 0, 0)" stroke="rgb(60, 60, 60)" stroke-width="1px" opacity="0.25"></line></g><g><line x1="0" y1="178" x2="276" y2="178" fill="rgb(0, 0, 0)" stroke="rgb(60, 60, 60)" stroke-width="1px" opacity="0.25"></line><line x1="0" y1="163.16666666666669" x2="276" y2="163.16666666666669" fill="rgb(0, 0, 0)" stroke="rgb(60, 60, 60)" stroke-width="1px" opacity="0.25"></line><line x1="0" y1="148.33333333333334" x2="276" y2="148.33333333333334" fill="rgb(0, 0, 0)" stroke="rgb(60, 60, 60)" stroke-width="1px" opacity="0.25"></line><line x1="0" y1="133.5" x2="276" y2="133.5" fill="rgb(0, 0, 0)" stroke="rgb(60, 60, 60)" stroke-width="1px" opacity="0.25"></line><line x1="0" y1="118.66666666666669" x2="276" y2="118.66666666666669" fill="rgb(0, 0, 0)" stroke="rgb(60, 60, 60)" stroke-width="1px" opacity="0.25"></line><line x1="0" y1="103.83333333333331" x2="276" y2="103.83333333333331" fill="rgb(0, 0, 0)" stroke="rgb(60, 60, 60)" stroke-width="1px" opacity="0.25"></line><line x1="0" y1="89" x2="276" y2="89" fill="rgb(0, 0, 0)" stroke="rgb(60, 60, 60)" stroke-width="1px" opacity="0.25"></line><line x1="0" y1="74.16666666666666" x2="276" y2="74.16666666666666" fill="rgb(0, 0, 0)" stroke="rgb(60, 60, 60)" stroke-width="1px" opacity="0.25"></line><line x1="0" y1="59.33333333333332" x2="276" y2="59.33333333333332" fill="rgb(0, 0, 0)" stroke="rgb(60, 60, 60)" stroke-width="1px" opacity="0.25"></line><line x1="0" y1="44.5" x2="276" y2="44.5" fill="rgb(0, 0, 0)" stroke="rgb(60, 60, 60)" stroke-width="1px" opacity="0.25"></line><line x1="0" y1="29.66666666666666" x2="276" y2="29.66666666666666" fill="rgb(0, 0, 0)" stroke="rgb(60, 60, 60)" stroke-width="1px" opacity="0.25"></line><line x1="0" y1="14.83333333333332" x2="276" y2="14.83333333333332" fill="rgb(0, 0, 0)" stroke="rgb(60, 60, 60)" stroke-width="1px" opacity="0.25"></line><line x1="0" y1="0" x2="276" y2="0" fill="rgb(0, 0, 0)" stroke="rgb(60, 60, 60)" stroke-width="1px" opacity="0.25"></line></g></g></g><g><g><line x1="0" y1="89" x2="276" y2="89" fill="rgb(0, 0, 0)" stroke="rgb(153, 153, 153)" stroke-width="1.5px"></line></g></g><g><g><line x1="19.71428571428571" y1="0" x2="19.71428571428571" y2="178" fill="rgb(0, 0, 0)" stroke="rgb(153, 153, 153)" stroke-width="1.5px"></line></g></g><g><g><g><g><g><path stroke="rgb(255, 112, 67)" stroke-width="2px" d="M19.879885714285713,89L19.891714285714286,89L19.99422857142857,89L20.084914285714284,89L20.37274285714286,89L20.6172,89L20.636914285714287,89L20.719714285714286,89L20.790685714285715,89L20.928685714285713,89L20.93657142857143,89L20.968114285714282,89L21.5832,89L21.82765714285714,89L21.9972,89L22.0248,89L22.214057142857143,89L22.265314285714286,89L22.529485714285713,89L22.561028571428572,89L22.87645714285714,89L22.900114285714285,89L23.010514285714287,89L23.5428,89L23.712342857142858,89L23.917371428571432,89L24.0672,89L24.366857142857143,89L24.686228571428572,89L24.903085714285712,89L24.914914285714286,89L24.97011428571429,89L24.985885714285715,89L25.17514285714286,89L25.202742857142855,89L25.376228571428573,89L25.49451428571429,89L25.8336,89L25.95977142857143,89L26.381657142857144,89L26.551199999999998,89L26.56302857142857,89L26.984914285714282,89L27.11502857142857,89L27.27274285714286,89L27.391028571428574,89L27.741942857142856,89L27.978514285714287,89L28.337314285714285,89L28.38462857142857,89L28.5108,89L28.633028571428568,89L28.810457142857143,89L29.133771428571432,89L29.319085714285713,89L29.38611428571429,89L29.394,89L29.413714285714285,89L29.512285714285714,89L29.516228571428574,89L29.563542857142856,89L29.583257142857143,89L29.6976,89L30.300857142857144,89L30.517714285714284,89L31.412742857142856,89L31.692685714285716,89L31.704514285714286,89L32.17765714285714,89L32.449714285714286,89L32.5128,89L32.51674285714286,89L32.745428571428576,89L33.435428571428574,89L33.97954285714286,89L33.98742857142857,89L34.18457142857143,89L34.46451428571429,89L34.75234285714286,89L34.779942857142856,89L35.20182857142857,89L35.31222857142857,89L35.62765714285714,89L35.87211428571428,89L36.25851428571429,89L36.40045714285714,89L36.7356,89L37.06285714285714,89L37.4256,89L37.492628571428575,89L37.575428571428574,89L38.10377142857143,89L38.11954285714286,89L38.15108571428571,89L38.592685714285714,89L38.647885714285714,89L38.797714285714285,89L39.01062857142857,89L39.31422857142857,89L39.62571428571429,89L39.6336,89L39.846514285714285,89L39.95691428571429,89L40.78885714285715,89L40.84405714285714,89L41.08457142857143,89L41.5932,89L42.10577142857143,89L42.27925714285714,89L42.6144,89L42.8352,89L42.8628,89L43.00474285714286,89L43.332,89L43.88794285714286,89L44.160000000000004,89L44.23491428571428,89L44.510914285714286,89L44.6016,89L44.85394285714286,89L45.42171428571428,89L45.63462857142857,89L45.74897142857143,89L46.115657142857145,89L46.12748571428572,89L46.174800000000005,89L46.73862857142858,89L47.18022857142857,89L47.28274285714286,89L47.76377142857143,89L47.925428571428576,89L48.54051428571429,89L48.820457142857144,89L49.08857142857143,89L49.128,89L49.13982857142857,89L49.19897142857143,89L49.32908571428572,89L50.046685714285715,89L50.421257142857144,89L50.46068571428571,89L50.598685714285715,89L51.22165714285715,89L51.51737142857143,89L51.966857142857144,89L52.12851428571429,89L52.688399999999994,89L52.70811428571429,89L52.7436,89L53.11028571428571,89L53.220685714285715,89L53.26011428571429,89L53.6268,89L53.76085714285714,89L53.99742857142857,89L54.71897142857143,89L54.83331428571429,89L54.916114285714286,89L54.943714285714286,89L55.172399999999996,89L55.41685714285715,89L56.225142857142856,89L56.44594285714285,89L56.57211428571429,89L56.915142857142854,89L57.04525714285714,89L57.384342857142855,89L57.4356,89L57.79045714285714,89L57.881142857142855,89L57.95211428571428,89L58.523828571428574,89L58.77617142857142,89L59.371542857142856,89L59.47405714285714,89L60.23108571428572,89L60.25868571428571,89L60.716057142857146,89L61.031485714285715,89L61.201028571428566,89L61.53617142857143,89L61.65839999999999,89L61.72148571428571,89L61.94622857142857,89L62.1276,89L62.131542857142854,89L62.21828571428571,89L62.458800000000004,89L62.49428571428571,89L62.69931428571429,89L62.71114285714285,89L62.860971428571425,89L62.951657142857144,89L62.97531428571429,89L62.9832,89L63.164571428571435,89L63.48788571428571,89L63.5628,89L63.598285714285716,89L63.8664,89L63.87428571428571,89L64.11085714285714,89L64.73777142857142,89L64.94674285714287,89L65.0256,89L65.14782857142858,89L65.18331428571429,89L65.31737142857142,89L65.64068571428571,89L65.78657142857142,89L66.07834285714286,89L66.52782857142857,89L66.90634285714286,89L66.92605714285715,89L67.068,89L67.19022857142858,89L67.57268571428571,89L67.6752,89L67.75405714285714,89L68.172,89L68.62542857142857,89L68.8344,89L69.67422857142857,89L70.48645714285713,89L70.73091428571429,89L71.03845714285714,89L71.10548571428572,89L71.21194285714286,89L71.29474285714286,89L71.34205714285714,89L71.4012,89L71.91377142857144,89L72.55645714285714,89L72.57222857142857,89L72.95862857142858,89L73.12422857142857,89L73.32531428571428,89L73.416,89L73.64862857142857,89L74.16514285714287,89L74.45691428571428,89L75.22971428571428,89L75.78565714285713,89L76.04588571428572,89L76.07348571428572,89L76.176,89L76.24697142857143,89L76.4796,89L76.67674285714287,89L77.40617142857143,89L77.42982857142857,89L77.54811428571429,89L77.5836,89L77.62302857142856,89L77.98577142857143,89L78.02125714285714,89L78.10405714285714,89L78.3564,89L78.4313142857143,89L79.21199999999999,89L79.56685714285715,89L79.90594285714286,89L80.13462857142856,89L80.72211428571428,89L80.72999999999999,89L80.85617142857143,89L80.9784,89L81.77485714285714,89L81.8694857142857,89L81.90497142857141,89L82.12182857142858,89L82.7724,89L83.17457142857144,89L83.25737142857143,89L83.78177142857143,89L84.06565714285715,89L84.1524,89L84.21942857142858,89L84.4008,89L84.79114285714286,89L85.54817142857144,89L85.98582857142857,89L85.98977142857143,89L86.17902857142857,89L86.34462857142857,89L87.0030857142857,89L87.12531428571428,89L87.25937142857143,89L87.6852,89L87.81531428571428,89L87.89417142857144,89L87.9888,89L87.99274285714286,89L88.00457142857142,89L88.07948571428571,89L88.33971428571428,89L88.49348571428571,89L88.5329142857143,89L88.88382857142857,89L88.93902857142858,89L89.05337142857142,89L89.08491428571429,89L89.19925714285715,89L89.5896,89L90.50040000000001,89L90.6108,89L90.75668571428571,89L90.89468571428571,89L90.94200000000001,89L91.19434285714286,89L91.72662857142858,89L91.93954285714285,89L92.46394285714285,89L92.46788571428573,89L93.01988571428572,89L93.49697142857143,89L93.52457142857143,89L94.01742857142857,89L94.46297142857144,89L94.6482857142857,89L94.81782857142858,89L95.08594285714285,89L95.29491428571428,89L95.69708571428572,89L96.69857142857143,89L96.72222857142857,89L97.152,89L97.2072,89L97.5108,89L97.53445714285715,89L97.87354285714285,89L97.96422857142856,89L98.24022857142856,89L98.32697142857144,89L98.45708571428572,89L98.5517142857143,89L98.70942857142857,89L98.7804,89L98.80405714285715,89L98.81588571428571,89L99.11554285714286,89L99.1194857142857,89L99.3048,89L99.42702857142856,89L99.5334857142857,89L99.54531428571428,89L99.56502857142857,89L99.84497142857143,89L99.88834285714285,89L100.08154285714286,89L100.30628571428572,89L100.48371428571429,89L100.64537142857142,89L100.69662857142858,89L100.70057142857144,89L100.78731428571429,89L100.85040000000001,89L101.28805714285714,89L101.37085714285713,89L101.64291428571428,89L101.65474285714285,89L101.65868571428572,89L101.84794285714287,89L101.94257142857144,89L102.46302857142858,89L102.82971428571427,89L103.08205714285715,89L103.33834285714285,89L103.42902857142857,89L103.76022857142857,89L103.77205714285715,89L103.79177142857144,89L104.05594285714285,89L104.12691428571429,89L104.42262857142858,89L104.5764,89L105.19937142857142,89L105.3689142857143,89L105.64885714285714,89L105.75137142857143,89L105.83417142857142,89L105.85782857142857,89L106.48079999999999,89L107.42314285714286,89L107.4744,89L107.60845714285715,89L107.7582857142857,89L107.8686857142857,89L108.31817142857142,89L108.45617142857142,89L108.60205714285713,89L108.96085714285715,89L109.47342857142857,89L109.76914285714285,89L110.12400000000001,89L110.13582857142858,89L110.7312,89L110.94411428571429,89L110.98354285714285,89L111.11760000000001,89L111.15702857142857,89L111.25954285714285,89L111.43697142857143,89L111.52765714285714,89L111.82337142857143,89L111.8982857142857,89L112.0836,89L112.52914285714286,89L112.72234285714286,89L113.04171428571429,89L113.08508571428573,89L113.16394285714286,89L113.45177142857142,89L113.67651428571428,89L114.0984,89L114.65434285714286,89L114.80811428571428,89L114.92245714285714,89L115.2654857142857,89L115.45474285714285,89L115.46262857142857,89L115.61245714285715,89L115.70314285714285,89L115.98308571428572,89L116.53902857142857,89L116.79137142857142,89L117.17777142857143,89L117.20931428571429,89L117.89537142857142,89L118.02548571428571,89L118.31725714285714,89L118.47102857142858,89L118.81011428571428,89L119.19651428571429,89L119.24777142857143,89L119.28325714285714,89L119.59474285714286,89L119.82737142857142,89L120.27685714285714,89L120.336,89L120.64748571428571,89L120.99051428571428,89L121.48731428571428,89L121.62531428571428,89L121.9170857142857,89L122.406,89L122.4888,89L122.58737142857143,89L122.83971428571428,89L122.8949142857143,89L123.37988571428572,89L123.42325714285715,89L123.81754285714285,89L124.08171428571428,89L124.8702857142857,89L125.37102857142858,89L125.37497142857143,89L125.48931428571429,89L125.49719999999999,89L125.88754285714285,89L126.73131428571429,89L126.75497142857144,89L126.77862857142858,89L126.7944,89L126.79834285714286,89L127.25177142857142,89L128.16257142857143,89L128.54897142857143,89L128.5884,89L128.616,89L128.68697142857144,89L129.08520000000001,89L129.4242857142857,89L129.7830857142857,89L129.79097142857142,89L129.91714285714286,89L129.9881142857143,89L131.10394285714287,89L131.20645714285715,89L131.37994285714285,89L131.84125714285713,89L131.89251428571427,89L132.25525714285715,89L132.36960000000002,89L132.52337142857144,89L133.93885714285713,89L134.04137142857144,89L134.12811428571428,89L134.20302857142858,89L134.3016,89L134.3646857142857,89L134.412,89L134.84965714285715,89L135.09411428571428,89L135.91422857142857,89L135.94182857142857,89L135.9773142857143,89L136.17445714285714,89L136.18628571428573,89L136.2690857142857,89L136.3913142857143,89L136.46622857142856,89L137.00245714285714,89L137.32182857142857,89L137.32577142857144,89L137.45982857142857,89L138,89L138.0197142857143,89L138.1222285714286,89L138.3036,89L138.36274285714285,89L138.68605714285715,89L138.8556,89L138.9581142857143,89L139.11977142857143,89L139.28931428571428,89L139.80977142857142,89L139.85314285714284,89L140.2553142857143,89L140.41302857142858,89L140.78365714285712,89L140.83885714285714,89L140.9098285714286,89L142.1478857142857,89L142.35685714285714,89L143.54365714285714,89L143.68954285714284,89L144.6870857142857,89L144.78959999999998,89L145.12868571428572,89L145.38497142857142,89L145.41257142857143,89L145.44411428571428,89L145.63337142857142,89L145.66885714285715,89L145.9014857142857,89L145.95274285714285,89L146.57177142857145,89L146.70188571428574,89L146.8674857142857,89L147.60085714285714,89L147.9714857142857,89L148.02274285714287,89L148.2948,89L148.47617142857143,89L148.66937142857142,89L148.89017142857142,89L149.41062857142856,89L149.44217142857144,89L149.83645714285714,89L149.88377142857144,89L149.96262857142858,89L150.4278857142857,89L150.53434285714286,89L150.54222857142855,89L150.8970857142857,89L151.17308571428572,89L151.27954285714284,89L151.30714285714288,89L151.41754285714285,89L151.95377142857143,89L152.31651428571428,89L152.69897142857144,89L152.73445714285714,89L152.78177142857143,89L152.85668571428573,89L152.92371428571428,89L153.1366285714286,89L153.18394285714285,89L153.28251428571426,89L153.42839999999998,89L153.83845714285712,89L153.91337142857142,89L153.94097142857143,89L154.12234285714285,89L154.32737142857144,89L154.3392,89L154.47719999999998,89L155.19480000000001,89L155.19874285714286,89L155.28154285714285,89L155.4984,89L155.84142857142857,89L155.84537142857144,89L155.9952,89L156.1332,89L156.16868571428571,89L156.8586857142857,89L157.23325714285713,89L158.02577142857143,89L158.16771428571428,89L158.4121714285714,89L158.71577142857143,89L159.02725714285714,89L159.11005714285713,89L159.1416,89L159.19285714285712,89L159.20074285714287,89L159.6108,89L159.6186857142857,89L159.9617142857143,89L159.97354285714286,89L160.75422857142857,89L160.78182857142858,89L161.04205714285715,89L161.06177142857143,89L161.47182857142857,89L161.53885714285715,89L161.80302857142857,89L161.88188571428572,89L162.30377142857142,89L162.56794285714287,89L162.62708571428573,89L162.69017142857143,89L162.74142857142857,89L162.87942857142858,89L162.98194285714288,89L163.90062857142857,89L164.1372,89L164.25548571428573,89L164.3304,89L164.68131428571428,89L164.83508571428573,89L164.85085714285714,89L164.88634285714284,89L165.00857142857143,89L165.23331428571427,89L165.80897142857143,89L166.26634285714286,89L166.39645714285714,89L166.82622857142857,89L167.394,89L167.52805714285714,89L168.61234285714286,89L168.78188571428572,89L169.05394285714286,89L170.29988571428572,89L170.51674285714287,89L170.57588571428573,89L170.98200000000003,89L171.27377142857142,89L171.33685714285713,89L171.38022857142857,89L171.5142857142857,89L171.8297142857143,89L172.07022857142857,89L172.07417142857142,89L172.30285714285716,89L172.38171428571428,89L172.55125714285714,89L172.85485714285716,89L173.4108,89L173.5014857142857,89L173.50542857142858,89L174.04165714285716,89L174.42017142857145,89L174.6528,89L174.69617142857143,89L175.81594285714286,89L176.25359999999998,89L176.364,89L176.56508571428571,89L176.94754285714288,89L177.0697714285714,89L177.08948571428573,89L177.15651428571428,89L177.50742857142856,89L178.31177142857143,89L178.59565714285714,89L179.00965714285715,89L179.3526857142857,89L179.4,89L179.52617142857142,89L179.63657142857144,89L179.9796,89L180.01902857142858,89L180.04268571428574,89L180.05845714285712,89L180.18068571428572,89L180.1885714285714,89L180.24377142857145,89L180.26742857142858,89L180.55525714285713,89L181.52914285714286,89L181.87611428571427,89L181.97862857142857,89L182.33348571428573,89L182.43994285714285,89L182.71594285714284,89L182.98405714285715,89L183.30737142857143,89L183.49662857142857,89L183.55971428571428,89L183.77262857142858,89L184.41531428571426,89L184.44685714285714,89L184.69920000000002,89L184.80565714285717,89L185.33794285714285,89L185.36554285714286,89L185.43651428571428,89L185.84262857142858,89L185.93725714285716,89L185.9766857142857,89L186.03188571428572,89L186.27634285714285,89L186.65091428571426,89L187.0885714285714,89L187.15954285714284,89L187.19897142857144,89L187.28177142857143,89L187.71154285714283,89L187.98754285714284,89L188.37394285714285,89L188.98508571428573,89L189.11520000000002,89L189.18222857142857,89L189.336,89L190.35325714285713,89L191.12605714285715,89L191.29954285714285,89L191.43754285714286,89L191.55582857142858,89L191.65045714285714,89L191.77662857142855,89L192.06051428571428,89L192.16697142857143,89L192.18274285714284,89L192.2418857142857,89L192.34439999999998,89L192.43114285714285,89L193.10537142857143,89L193.12114285714287,89L193.17239999999998,89L193.4878285714286,89L193.50359999999998,89L193.64554285714286,89L193.98857142857142,89L194.01617142857143,89L194.18965714285713,89L194.3986285714286,89L194.5524,89L194.7929142857143,89L195.17537142857142,89L195.3252,89L195.50657142857145,89L195.51051428571427,89L195.74314285714286,89L196.07434285714285,89L196.16897142857144,89L196.36217142857143,89L196.41737142857144,89L197.0009142857143,89L197.11919999999998,89L197.35182857142857,89L197.5529142857143,89L198.36514285714287,89L198.40062857142857,89L198.6096,89L199.1418857142857,89L199.28382857142856,89L199.68994285714285,89L199.73725714285715,89L200.1828,89L200.45091428571428,89L200.5889142857143,89L201.18034285714288,89L201.21582857142857,89L201.32228571428573,89L201.44057142857145,89L201.57462857142858,89L201.75205714285713,89L201.78359999999998,89L201.894,89L202.33954285714285,89L202.40262857142858,89L202.6470857142857,89L202.7141142857143,89L203.0532,89L203.0886857142857,89L203.82994285714284,89L204.03497142857142,89L205.1705142857143,89L205.25331428571428,89L205.80925714285715,89L205.97879999999998,89L206.18777142857144,89L206.21537142857142,89L206.2942285714286,89L206.39674285714287,89L206.7516,89L206.95662857142858,89L207.19320000000002,89L207.2208,89L207.33514285714287,89L207.5441142857143,89L207.5598857142857,89L207.61114285714285,89L207.66634285714287,89L207.76097142857145,89L207.80828571428572,89L207.93445714285716,89L207.96205714285716,89L208.01725714285715,89L208.4628,89L208.5061714285714,89L208.5298285714286,89L208.69148571428573,89L208.70725714285712,89L208.76245714285716,89L208.85314285714284,89L209.27108571428573,89L209.44062857142856,89L209.68508571428572,89L209.74817142857142,89L209.86645714285714,89L210.63137142857144,89L210.80880000000002,89L210.99805714285716,89L211.0296,89L211.45542857142857,89L211.53428571428572,89L212.29919999999998,89L212.84331428571429,89L213.98674285714287,89L214.19965714285715,89L214.29822857142855,89L214.79502857142856,89L215.1144,89L215.3549142857143,89L215.42982857142854,89L215.66245714285714,89L216.11982857142857,89L216.43131428571428,89L216.88080000000002,89L217.07794285714286,89L217.22382857142858,89L217.44462857142858,89L217.5077142857143,89L217.626,89L217.91382857142855,89L218.36331428571427,89L218.71028571428573,89L218.9784,89L219.3372,89L219.34508571428572,89L219.36874285714285,89L220.08634285714285,89L220.7172,89L220.85914285714287,89L221.31257142857143,89L221.32834285714284,89L221.69502857142857,89L221.91188571428572,89L222.14845714285715,89L222.52302857142857,89L223.32737142857144,89L223.75714285714287,89L223.93062857142857,89L223.9464,89L223.97794285714286,89L224.56148571428574,89L224.7468,89L225.00702857142858,89L225.01491428571427,89L225.6773142857143,89L225.89417142857144,89L226.0045714285714,89L226.1346857142857,89L226.22931428571428,89L226.26874285714285,89L226.7537142857143,89L226.82468571428572,89L227.1204,89L227.27022857142856,89L227.43188571428573,89L227.83011428571427,89L227.90502857142857,89L228.31508571428571,89L228.4452,89L228.69754285714288,89L228.73697142857142,89L229.04845714285716,89L229.1076,89L229.2534857142857,89L230.26680000000002,89L230.29834285714284,89L230.5309714285714,89L230.58617142857145,89L231.24068571428572,89L231.46937142857143,89L231.49697142857144,89L231.51274285714285,89L231.5285142857143,89L231.9346285714286,89L232.08445714285713,89L232.21457142857142,89L232.25794285714284,89L232.71925714285715,89L232.91245714285714,89L232.9716,89L233.05440000000002,89L233.11354285714287,89L233.35011428571428,89L233.5788,89L234.07954285714285,89L234.46594285714284,89L234.95091428571428,89L235.09285714285713,89L235.1796,89L235.3530857142857,89L235.40434285714286,89L235.46348571428572,89L235.81045714285716,89L236.03125714285716,89L236.32302857142858,89L236.50045714285713,89L237.3324,89L237.75034285714284,89L237.7621714285714,89L237.8646857142857,89L237.98691428571428,89L238.69268571428572,89L238.7124,89L238.74394285714286,89L239.3826857142857,89L239.59165714285712,89L239.70600000000002,89L240.00171428571429,89L240.3684,89L240.38022857142857,89L240.8730857142857,89L241.71291428571428,89L241.84302857142856,89L242.00862857142857,89L242.13479999999998,89L242.2176,89L242.46599999999998,89L242.51331428571427,89L242.5685142857143,89L242.5961142857143,89L242.604,89L242.91154285714288,89L243.6173142857143,89L243.74742857142857,89L243.88937142857142,89L244.01554285714286,89L244.4532,89L244.59908571428574,89L245.3916,89L245.48622857142857,89L245.63605714285714,89L245.6597142857143,89L245.74645714285717,89L246.0264,89L246.30634285714285,89L246.3654857142857,89L246.49954285714287,89L246.7242857142857,89L247.16194285714286,89L247.31177142857143,89L247.45371428571428,89L247.88742857142856,89L248.75485714285713,89L249.56314285714288,89L249.7642285714286,89L250.13485714285713,89L250.59222857142856,89L250.80908571428571,89L250.92737142857143,89L250.94314285714287,89L251.10874285714286,89L251.2349142857143,89L251.34137142857142,89L251.4084,89L251.46754285714286,89L251.50697142857143,89L251.83817142857143,89L252.39805714285714,89L252.46114285714285,89L252.4729714285714,89L252.48479999999998,89L252.57154285714287,89L253.02497142857143,89L253.38377142857144,89L253.56908571428573,89L253.75834285714285,89L254.04617142857143,89L254.61394285714286,89L254.8032,89L254.8662857142857,89L254.98457142857143,89L255.17777142857142,89L255.22902857142856,89L255.24874285714284,89L255.30394285714286,89L255.56811428571427,89L255.7416,89L255.84805714285716,89L256.29754285714284,89" style="fill: none;" fill="none"></path></g></g></g></g><g opacity="0.2"><g><g><g><path stroke="rgb(255, 112, 67)" stroke-width="2px" d="M19.879885714285713,89L19.891714285714286,89L19.99422857142857,89L20.084914285714284,89L20.37274285714286,89L20.6172,89L20.636914285714287,89L20.719714285714286,89L20.790685714285715,89L20.928685714285713,89L20.93657142857143,89L20.968114285714282,89L21.5832,89L21.82765714285714,89L21.9972,89L22.0248,89L22.214057142857143,89L22.265314285714286,89L22.529485714285713,89L22.561028571428572,89L22.87645714285714,89L22.900114285714285,89L23.010514285714287,89L23.5428,89L23.712342857142858,89L23.917371428571432,89L24.0672,89L24.366857142857143,89L24.686228571428572,89L24.903085714285712,89L24.914914285714286,89L24.97011428571429,89L24.985885714285715,89L25.17514285714286,89L25.202742857142855,89L25.376228571428573,89L25.49451428571429,89L25.8336,89L25.95977142857143,89L26.381657142857144,89L26.551199999999998,89L26.56302857142857,89L26.984914285714282,89L27.11502857142857,89L27.27274285714286,89L27.391028571428574,89L27.741942857142856,89L27.978514285714287,89L28.337314285714285,89L28.38462857142857,89L28.5108,89L28.633028571428568,89L28.810457142857143,89L29.133771428571432,89L29.319085714285713,89L29.38611428571429,89L29.394,89L29.413714285714285,89L29.512285714285714,89L29.516228571428574,89L29.563542857142856,89L29.583257142857143,89L29.6976,89L30.300857142857144,89L30.517714285714284,89L31.412742857142856,89L31.692685714285716,89L31.704514285714286,89L32.17765714285714,89L32.449714285714286,89L32.5128,89L32.51674285714286,89L32.745428571428576,89L33.435428571428574,89L33.97954285714286,89L33.98742857142857,89L34.18457142857143,89L34.46451428571429,89L34.75234285714286,89L34.779942857142856,89L35.20182857142857,89L35.31222857142857,89L35.62765714285714,89L35.87211428571428,89L36.25851428571429,89L36.40045714285714,89L36.7356,89L37.06285714285714,89L37.4256,89L37.492628571428575,89L37.575428571428574,89L38.10377142857143,89L38.11954285714286,89L38.15108571428571,89L38.592685714285714,89L38.647885714285714,89L38.797714285714285,89L39.01062857142857,89L39.31422857142857,89L39.62571428571429,89L39.6336,89L39.846514285714285,89L39.95691428571429,89L40.78885714285715,89L40.84405714285714,89L41.08457142857143,89L41.5932,89L42.10577142857143,89L42.27925714285714,89L42.6144,89L42.8352,89L42.8628,89L43.00474285714286,89L43.332,89L43.88794285714286,89L44.160000000000004,89L44.23491428571428,89L44.510914285714286,89L44.6016,89L44.85394285714286,89L45.42171428571428,89L45.63462857142857,89L45.74897142857143,89L46.115657142857145,89L46.12748571428572,89L46.174800000000005,89L46.73862857142858,89L47.18022857142857,89L47.28274285714286,89L47.76377142857143,89L47.925428571428576,89L48.54051428571429,89L48.820457142857144,89L49.08857142857143,89L49.128,89L49.13982857142857,89L49.19897142857143,89L49.32908571428572,89L50.046685714285715,89L50.421257142857144,89L50.46068571428571,89L50.598685714285715,89L51.22165714285715,89L51.51737142857143,89L51.966857142857144,89L52.12851428571429,89L52.688399999999994,89L52.70811428571429,89L52.7436,89L53.11028571428571,89L53.220685714285715,89L53.26011428571429,89L53.6268,89L53.76085714285714,89L53.99742857142857,89L54.71897142857143,89L54.83331428571429,89L54.916114285714286,89L54.943714285714286,89L55.172399999999996,89L55.41685714285715,89L56.225142857142856,89L56.44594285714285,89L56.57211428571429,89L56.915142857142854,89L57.04525714285714,89L57.384342857142855,89L57.4356,89L57.79045714285714,89L57.881142857142855,89L57.95211428571428,89L58.523828571428574,89L58.77617142857142,89L59.371542857142856,89L59.47405714285714,89L60.23108571428572,89L60.25868571428571,89L60.716057142857146,89L61.031485714285715,89L61.201028571428566,89L61.53617142857143,89L61.65839999999999,89L61.72148571428571,89L61.94622857142857,89L62.1276,89L62.131542857142854,89L62.21828571428571,89L62.458800000000004,89L62.49428571428571,89L62.69931428571429,89L62.71114285714285,89L62.860971428571425,89L62.951657142857144,89L62.97531428571429,89L62.9832,89L63.164571428571435,89L63.48788571428571,89L63.5628,89L63.598285714285716,89L63.8664,89L63.87428571428571,89L64.11085714285714,89L64.73777142857142,89L64.94674285714287,89L65.0256,89L65.14782857142858,89L65.18331428571429,89L65.31737142857142,89L65.64068571428571,89L65.78657142857142,89L66.07834285714286,89L66.52782857142857,89L66.90634285714286,89L66.92605714285715,89L67.068,89L67.19022857142858,89L67.57268571428571,89L67.6752,89L67.75405714285714,89L68.172,89L68.62542857142857,89L68.8344,89L69.67422857142857,89L70.48645714285713,89L70.73091428571429,89L71.03845714285714,89L71.10548571428572,89L71.21194285714286,89L71.29474285714286,89L71.34205714285714,89L71.4012,89L71.91377142857144,89L72.55645714285714,89L72.57222857142857,89L72.95862857142858,89L73.12422857142857,89L73.32531428571428,89L73.416,89L73.64862857142857,89L74.16514285714287,89L74.45691428571428,89L75.22971428571428,89L75.78565714285713,89L76.04588571428572,89L76.07348571428572,89L76.176,89L76.24697142857143,89L76.4796,89L76.67674285714287,89L77.40617142857143,89L77.42982857142857,89L77.54811428571429,89L77.5836,89L77.62302857142856,89L77.98577142857143,89L78.02125714285714,89L78.10405714285714,89L78.3564,89L78.4313142857143,89L79.21199999999999,89L79.56685714285715,89L79.90594285714286,89L80.13462857142856,89L80.72211428571428,89L80.72999999999999,89L80.85617142857143,89L80.9784,89L81.77485714285714,89L81.8694857142857,89L81.90497142857141,89L82.12182857142858,89L82.7724,89L83.17457142857144,89L83.25737142857143,89L83.78177142857143,89L84.06565714285715,89L84.1524,89L84.21942857142858,89L84.4008,89L84.79114285714286,89L85.54817142857144,89L85.98582857142857,89L85.98977142857143,89L86.17902857142857,89L86.34462857142857,89L87.0030857142857,89L87.12531428571428,89L87.25937142857143,89L87.6852,89L87.81531428571428,89L87.89417142857144,89L87.9888,89L87.99274285714286,89L88.00457142857142,89L88.07948571428571,89L88.33971428571428,89L88.49348571428571,89L88.5329142857143,89L88.88382857142857,89L88.93902857142858,89L89.05337142857142,89L89.08491428571429,89L89.19925714285715,89L89.5896,89L90.50040000000001,89L90.6108,89L90.75668571428571,89L90.89468571428571,89L90.94200000000001,89L91.19434285714286,89L91.72662857142858,89L91.93954285714285,89L92.46394285714285,89L92.46788571428573,89L93.01988571428572,89L93.49697142857143,89L93.52457142857143,89L94.01742857142857,89L94.46297142857144,89L94.6482857142857,89L94.81782857142858,89L95.08594285714285,89L95.29491428571428,89L95.69708571428572,89L96.69857142857143,89L96.72222857142857,89L97.152,89L97.2072,89L97.5108,89L97.53445714285715,89L97.87354285714285,89L97.96422857142856,89L98.24022857142856,89L98.32697142857144,89L98.45708571428572,89L98.5517142857143,89L98.70942857142857,89L98.7804,89L98.80405714285715,89L98.81588571428571,89L99.11554285714286,89L99.1194857142857,89L99.3048,89L99.42702857142856,89L99.5334857142857,89L99.54531428571428,89L99.56502857142857,89L99.84497142857143,89L99.88834285714285,89L100.08154285714286,89L100.30628571428572,89L100.48371428571429,89L100.64537142857142,89L100.69662857142858,89L100.70057142857144,89L100.78731428571429,89L100.85040000000001,89L101.28805714285714,89L101.37085714285713,89L101.64291428571428,89L101.65474285714285,89L101.65868571428572,89L101.84794285714287,89L101.94257142857144,89L102.46302857142858,89L102.82971428571427,89L103.08205714285715,89L103.33834285714285,89L103.42902857142857,89L103.76022857142857,89L103.77205714285715,89L103.79177142857144,89L104.05594285714285,89L104.12691428571429,89L104.42262857142858,89L104.5764,89L105.19937142857142,89L105.3689142857143,89L105.64885714285714,89L105.75137142857143,89L105.83417142857142,89L105.85782857142857,89L106.48079999999999,89L107.42314285714286,89L107.4744,89L107.60845714285715,89L107.7582857142857,89L107.8686857142857,89L108.31817142857142,89L108.45617142857142,89L108.60205714285713,89L108.96085714285715,89L109.47342857142857,89L109.76914285714285,89L110.12400000000001,89L110.13582857142858,89L110.7312,89L110.94411428571429,89L110.98354285714285,89L111.11760000000001,89L111.15702857142857,89L111.25954285714285,89L111.43697142857143,89L111.52765714285714,89L111.82337142857143,89L111.8982857142857,89L112.0836,89L112.52914285714286,89L112.72234285714286,89L113.04171428571429,89L113.08508571428573,89L113.16394285714286,89L113.45177142857142,89L113.67651428571428,89L114.0984,89L114.65434285714286,89L114.80811428571428,89L114.92245714285714,89L115.2654857142857,89L115.45474285714285,89L115.46262857142857,89L115.61245714285715,89L115.70314285714285,89L115.98308571428572,89L116.53902857142857,89L116.79137142857142,89L117.17777142857143,89L117.20931428571429,89L117.89537142857142,89L118.02548571428571,89L118.31725714285714,89L118.47102857142858,89L118.81011428571428,89L119.19651428571429,89L119.24777142857143,89L119.28325714285714,89L119.59474285714286,89L119.82737142857142,89L120.27685714285714,89L120.336,89L120.64748571428571,89L120.99051428571428,89L121.48731428571428,89L121.62531428571428,89L121.9170857142857,89L122.406,89L122.4888,89L122.58737142857143,89L122.83971428571428,89L122.8949142857143,89L123.37988571428572,89L123.42325714285715,89L123.81754285714285,89L124.08171428571428,89L124.8702857142857,89L125.37102857142858,89L125.37497142857143,89L125.48931428571429,89L125.49719999999999,89L125.88754285714285,89L126.73131428571429,89L126.75497142857144,89L126.77862857142858,89L126.7944,89L126.79834285714286,89L127.25177142857142,89L128.16257142857143,89L128.54897142857143,89L128.5884,89L128.616,89L128.68697142857144,89L129.08520000000001,89L129.4242857142857,89L129.7830857142857,89L129.79097142857142,89L129.91714285714286,89L129.9881142857143,89L131.10394285714287,89L131.20645714285715,89L131.37994285714285,89L131.84125714285713,89L131.89251428571427,89L132.25525714285715,89L132.36960000000002,89L132.52337142857144,89L133.93885714285713,89L134.04137142857144,89L134.12811428571428,89L134.20302857142858,89L134.3016,89L134.3646857142857,89L134.412,89L134.84965714285715,89L135.09411428571428,89L135.91422857142857,89L135.94182857142857,89L135.9773142857143,89L136.17445714285714,89L136.18628571428573,89L136.2690857142857,89L136.3913142857143,89L136.46622857142856,89L137.00245714285714,89L137.32182857142857,89L137.32577142857144,89L137.45982857142857,89L138,89L138.0197142857143,89L138.1222285714286,89L138.3036,89L138.36274285714285,89L138.68605714285715,89L138.8556,89L138.9581142857143,89L139.11977142857143,89L139.28931428571428,89L139.80977142857142,89L139.85314285714284,89L140.2553142857143,89L140.41302857142858,89L140.78365714285712,89L140.83885714285714,89L140.9098285714286,89L142.1478857142857,89L142.35685714285714,89L143.54365714285714,89L143.68954285714284,89L144.6870857142857,89L144.78959999999998,89L145.12868571428572,89L145.38497142857142,89L145.41257142857143,89L145.44411428571428,89L145.63337142857142,89L145.66885714285715,89L145.9014857142857,89L145.95274285714285,89L146.57177142857145,89L146.70188571428574,89L146.8674857142857,89L147.60085714285714,89L147.9714857142857,89L148.02274285714287,89L148.2948,89L148.47617142857143,89L148.66937142857142,89L148.89017142857142,89L149.41062857142856,89L149.44217142857144,89L149.83645714285714,89L149.88377142857144,89L149.96262857142858,89L150.4278857142857,89L150.53434285714286,89L150.54222857142855,89L150.8970857142857,89L151.17308571428572,89L151.27954285714284,89L151.30714285714288,89L151.41754285714285,89L151.95377142857143,89L152.31651428571428,89L152.69897142857144,89L152.73445714285714,89L152.78177142857143,89L152.85668571428573,89L152.92371428571428,89L153.1366285714286,89L153.18394285714285,89L153.28251428571426,89L153.42839999999998,89L153.83845714285712,89L153.91337142857142,89L153.94097142857143,89L154.12234285714285,89L154.32737142857144,89L154.3392,89L154.47719999999998,89L155.19480000000001,89L155.19874285714286,89L155.28154285714285,89L155.4984,89L155.84142857142857,89L155.84537142857144,89L155.9952,89L156.1332,89L156.16868571428571,89L156.8586857142857,89L157.23325714285713,89L158.02577142857143,89L158.16771428571428,89L158.4121714285714,89L158.71577142857143,89L159.02725714285714,89L159.11005714285713,89L159.1416,89L159.19285714285712,89L159.20074285714287,89L159.6108,89L159.6186857142857,89L159.9617142857143,89L159.97354285714286,89L160.75422857142857,89L160.78182857142858,89L161.04205714285715,89L161.06177142857143,89L161.47182857142857,89L161.53885714285715,89L161.80302857142857,89L161.88188571428572,89L162.30377142857142,89L162.56794285714287,89L162.62708571428573,89L162.69017142857143,89L162.74142857142857,89L162.87942857142858,89L162.98194285714288,89L163.90062857142857,89L164.1372,89L164.25548571428573,89L164.3304,89L164.68131428571428,89L164.83508571428573,89L164.85085714285714,89L164.88634285714284,89L165.00857142857143,89L165.23331428571427,89L165.80897142857143,89L166.26634285714286,89L166.39645714285714,89L166.82622857142857,89L167.394,89L167.52805714285714,89L168.61234285714286,89L168.78188571428572,89L169.05394285714286,89L170.29988571428572,89L170.51674285714287,89L170.57588571428573,89L170.98200000000003,89L171.27377142857142,89L171.33685714285713,89L171.38022857142857,89L171.5142857142857,89L171.8297142857143,89L172.07022857142857,89L172.07417142857142,89L172.30285714285716,89L172.38171428571428,89L172.55125714285714,89L172.85485714285716,89L173.4108,89L173.5014857142857,89L173.50542857142858,89L174.04165714285716,89L174.42017142857145,89L174.6528,89L174.69617142857143,89L175.81594285714286,89L176.25359999999998,89L176.364,89L176.56508571428571,89L176.94754285714288,89L177.0697714285714,89L177.08948571428573,89L177.15651428571428,89L177.50742857142856,89L178.31177142857143,89L178.59565714285714,89L179.00965714285715,89L179.3526857142857,89L179.4,89L179.52617142857142,89L179.63657142857144,89L179.9796,89L180.01902857142858,89L180.04268571428574,89L180.05845714285712,89L180.18068571428572,89L180.1885714285714,89L180.24377142857145,89L180.26742857142858,89L180.55525714285713,89L181.52914285714286,89L181.87611428571427,89L181.97862857142857,89L182.33348571428573,89L182.43994285714285,89L182.71594285714284,89L182.98405714285715,89L183.30737142857143,89L183.49662857142857,89L183.55971428571428,89L183.77262857142858,89L184.41531428571426,89L184.44685714285714,89L184.69920000000002,89L184.80565714285717,89L185.33794285714285,89L185.36554285714286,89L185.43651428571428,89L185.84262857142858,89L185.93725714285716,89L185.9766857142857,89L186.03188571428572,89L186.27634285714285,89L186.65091428571426,89L187.0885714285714,89L187.15954285714284,89L187.19897142857144,89L187.28177142857143,89L187.71154285714283,89L187.98754285714284,89L188.37394285714285,89L188.98508571428573,89L189.11520000000002,89L189.18222857142857,89L189.336,89L190.35325714285713,89L191.12605714285715,89L191.29954285714285,89L191.43754285714286,89L191.55582857142858,89L191.65045714285714,89L191.77662857142855,89L192.06051428571428,89L192.16697142857143,89L192.18274285714284,89L192.2418857142857,89L192.34439999999998,89L192.43114285714285,89L193.10537142857143,89L193.12114285714287,89L193.17239999999998,89L193.4878285714286,89L193.50359999999998,89L193.64554285714286,89L193.98857142857142,89L194.01617142857143,89L194.18965714285713,89L194.3986285714286,89L194.5524,89L194.7929142857143,89L195.17537142857142,89L195.3252,89L195.50657142857145,89L195.51051428571427,89L195.74314285714286,89L196.07434285714285,89L196.16897142857144,89L196.36217142857143,89L196.41737142857144,89L197.0009142857143,89L197.11919999999998,89L197.35182857142857,89L197.5529142857143,89L198.36514285714287,89L198.40062857142857,89L198.6096,89L199.1418857142857,89L199.28382857142856,89L199.68994285714285,89L199.73725714285715,89L200.1828,89L200.45091428571428,89L200.5889142857143,89L201.18034285714288,89L201.21582857142857,89L201.32228571428573,89L201.44057142857145,89L201.57462857142858,89L201.75205714285713,89L201.78359999999998,89L201.894,89L202.33954285714285,89L202.40262857142858,89L202.6470857142857,89L202.7141142857143,89L203.0532,89L203.0886857142857,89L203.82994285714284,89L204.03497142857142,89L205.1705142857143,89L205.25331428571428,89L205.80925714285715,89L205.97879999999998,89L206.18777142857144,89L206.21537142857142,89L206.2942285714286,89L206.39674285714287,89L206.7516,89L206.95662857142858,89L207.19320000000002,89L207.2208,89L207.33514285714287,89L207.5441142857143,89L207.5598857142857,89L207.61114285714285,89L207.66634285714287,89L207.76097142857145,89L207.80828571428572,89L207.93445714285716,89L207.96205714285716,89L208.01725714285715,89L208.4628,89L208.5061714285714,89L208.5298285714286,89L208.69148571428573,89L208.70725714285712,89L208.76245714285716,89L208.85314285714284,89L209.27108571428573,89L209.44062857142856,89L209.68508571428572,89L209.74817142857142,89L209.86645714285714,89L210.63137142857144,89L210.80880000000002,89L210.99805714285716,89L211.0296,89L211.45542857142857,89L211.53428571428572,89L212.29919999999998,89L212.84331428571429,89L213.98674285714287,89L214.19965714285715,89L214.29822857142855,89L214.79502857142856,89L215.1144,89L215.3549142857143,89L215.42982857142854,89L215.66245714285714,89L216.11982857142857,89L216.43131428571428,89L216.88080000000002,89L217.07794285714286,89L217.22382857142858,89L217.44462857142858,89L217.5077142857143,89L217.626,89L217.91382857142855,89L218.36331428571427,89L218.71028571428573,89L218.9784,89L219.3372,89L219.34508571428572,89L219.36874285714285,89L220.08634285714285,89L220.7172,89L220.85914285714287,89L221.31257142857143,89L221.32834285714284,89L221.69502857142857,89L221.91188571428572,89L222.14845714285715,89L222.52302857142857,89L223.32737142857144,89L223.75714285714287,89L223.93062857142857,89L223.9464,89L223.97794285714286,89L224.56148571428574,89L224.7468,89L225.00702857142858,89L225.01491428571427,89L225.6773142857143,89L225.89417142857144,89L226.0045714285714,89L226.1346857142857,89L226.22931428571428,89L226.26874285714285,89L226.7537142857143,89L226.82468571428572,89L227.1204,89L227.27022857142856,89L227.43188571428573,89L227.83011428571427,89L227.90502857142857,89L228.31508571428571,89L228.4452,89L228.69754285714288,89L228.73697142857142,89L229.04845714285716,89L229.1076,89L229.2534857142857,89L230.26680000000002,89L230.29834285714284,89L230.5309714285714,89L230.58617142857145,89L231.24068571428572,89L231.46937142857143,89L231.49697142857144,89L231.51274285714285,89L231.5285142857143,89L231.9346285714286,89L232.08445714285713,89L232.21457142857142,89L232.25794285714284,89L232.71925714285715,89L232.91245714285714,89L232.9716,89L233.05440000000002,89L233.11354285714287,89L233.35011428571428,89L233.5788,89L234.07954285714285,89L234.46594285714284,89L234.95091428571428,89L235.09285714285713,89L235.1796,89L235.3530857142857,89L235.40434285714286,89L235.46348571428572,89L235.81045714285716,89L236.03125714285716,89L236.32302857142858,89L236.50045714285713,89L237.3324,89L237.75034285714284,89L237.7621714285714,89L237.8646857142857,89L237.98691428571428,89L238.69268571428572,89L238.7124,89L238.74394285714286,89L239.3826857142857,89L239.59165714285712,89L239.70600000000002,89L240.00171428571429,89L240.3684,89L240.38022857142857,89L240.8730857142857,89L241.71291428571428,89L241.84302857142856,89L242.00862857142857,89L242.13479999999998,89L242.2176,89L242.46599999999998,89L242.51331428571427,89L242.5685142857143,89L242.5961142857143,89L242.604,89L242.91154285714288,89L243.6173142857143,89L243.74742857142857,89L243.88937142857142,89L244.01554285714286,89L244.4532,89L244.59908571428574,89L245.3916,89L245.48622857142857,89L245.63605714285714,89L245.6597142857143,89L245.74645714285717,89L246.0264,89L246.30634285714285,89L246.3654857142857,89L246.49954285714287,89L246.7242857142857,89L247.16194285714286,89L247.31177142857143,89L247.45371428571428,89L247.88742857142856,89L248.75485714285713,89L249.56314285714288,89L249.7642285714286,89L250.13485714285713,89L250.59222857142856,89L250.80908571428571,89L250.92737142857143,89L250.94314285714287,89L251.10874285714286,89L251.2349142857143,89L251.34137142857142,89L251.4084,89L251.46754285714286,89L251.50697142857143,89L251.83817142857143,89L252.39805714285714,89L252.46114285714285,89L252.4729714285714,89L252.48479999999998,89L252.57154285714287,89L253.02497142857143,89L253.38377142857144,89L253.56908571428573,89L253.75834285714285,89L254.04617142857143,89L254.61394285714286,89L254.8032,89L254.8662857142857,89L254.98457142857143,89L255.17777142857142,89L255.22902857142856,89L255.24874285714284,89L255.30394285714286,89L255.56811428571427,89L255.7416,89L255.84805714285716,89L256.29754285714284,89" style="fill: none;" fill="none"></path></g></g></g></g></g></g><g transform="translate(54, 178)" clip-path="url(#clip_1)"><clipPath id="clip_1"><rect width="276" height="22"></rect></clipPath><g><g><line x1="0" y1="0" x2="0" y2="5" style="visibility: inherit;" fill="rgb(0, 0, 0)" stroke="rgb(204, 204, 204)" stroke-width="1px"></line><line x1="19.71428571428571" y1="0" x2="19.71428571428571" y2="5" style="visibility: inherit;" fill="rgb(0, 0, 0)" stroke="rgb(204, 204, 204)" stroke-width="1px"></line><line x1="39.42857142857142" y1="0" x2="39.42857142857142" y2="5" style="visibility: inherit;" fill="rgb(0, 0, 0)" stroke="rgb(204, 204, 204)" stroke-width="1px"></line><line x1="59.14285714285714" y1="0" x2="59.14285714285714" y2="5" style="visibility: inherit;" fill="rgb(0, 0, 0)" stroke="rgb(204, 204, 204)" stroke-width="1px"></line><line x1="78.85714285714285" y1="0" x2="78.85714285714285" y2="5" style="visibility: inherit;" fill="rgb(0, 0, 0)" stroke="rgb(204, 204, 204)" stroke-width="1px"></line><line x1="98.57142857142857" y1="0" x2="98.57142857142857" y2="5" style="visibility: inherit;" fill="rgb(0, 0, 0)" stroke="rgb(204, 204, 204)" stroke-width="1px"></line><line x1="118.28571428571428" y1="0" x2="118.28571428571428" y2="5" style="visibility: inherit;" fill="rgb(0, 0, 0)" stroke="rgb(204, 204, 204)" stroke-width="1px"></line><line x1="138" y1="0" x2="138" y2="5" style="visibility: inherit;" fill="rgb(0, 0, 0)" stroke="rgb(204, 204, 204)" stroke-width="1px"></line><line x1="157.7142857142857" y1="0" x2="157.7142857142857" y2="5" style="visibility: inherit;" fill="rgb(0, 0, 0)" stroke="rgb(204, 204, 204)" stroke-width="1px"></line><line x1="177.42857142857144" y1="0" x2="177.42857142857144" y2="5" style="visibility: inherit;" fill="rgb(0, 0, 0)" stroke="rgb(204, 204, 204)" stroke-width="1px"></line><line x1="197.14285714285714" y1="0" x2="197.14285714285714" y2="5" style="visibility: inherit;" fill="rgb(0, 0, 0)" stroke="rgb(204, 204, 204)" stroke-width="1px"></line><line x1="216.85714285714286" y1="0" x2="216.85714285714286" y2="5" style="visibility: inherit;" fill="rgb(0, 0, 0)" stroke="rgb(204, 204, 204)" stroke-width="1px"></line><line x1="236.57142857142856" y1="0" x2="236.57142857142856" y2="5" style="visibility: inherit;" fill="rgb(0, 0, 0)" stroke="rgb(204, 204, 204)" stroke-width="1px"></line><line x1="256.2857142857143" y1="0" x2="256.2857142857143" y2="5" style="visibility: inherit;" fill="rgb(0, 0, 0)" stroke="rgb(204, 204, 204)" stroke-width="1px"></line><line x1="276" y1="0" x2="276" y2="5" style="visibility: inherit;" fill="rgb(0, 0, 0)" stroke="rgb(204, 204, 204)" stroke-width="1px"></line></g><g transform="translate(0, 8)"><text x="0" y="0" dx="0em" dy="0.95em" style="text-anchor: middle; visibility: hidden; font-family: Roboto, sans-serif; font-size: 12px; font-weight: 200;" fill="rgb(50, 49, 63)" stroke="none" stroke-width="1px">-5k</text><text x="19.71428571428571" y="0" dx="0em" dy="0.95em" style="text-anchor: middle; visibility: inherit; font-family: Roboto, sans-serif; font-size: 12px; font-weight: 200;" fill="rgb(50, 49, 63)" stroke="none" stroke-width="1px">0</text><text x="39.42857142857142" y="0" dx="0em" dy="0.95em" style="text-anchor: middle; visibility: hidden; font-family: Roboto, sans-serif; font-size: 12px; font-weight: 200;" fill="rgb(50, 49, 63)" stroke="none" stroke-width="1px">5k</text><text x="59.14285714285714" y="0" dx="0em" dy="0.95em" style="text-anchor: middle; visibility: inherit; font-family: Roboto, sans-serif; font-size: 12px; font-weight: 200;" fill="rgb(50, 49, 63)" stroke="none" stroke-width="1px">10k</text><text x="78.85714285714285" y="0" dx="0em" dy="0.95em" style="text-anchor: middle; visibility: hidden; font-family: Roboto, sans-serif; font-size: 12px; font-weight: 200;" fill="rgb(50, 49, 63)" stroke="none" stroke-width="1px">15k</text><text x="98.57142857142857" y="0" dx="0em" dy="0.95em" style="text-anchor: middle; visibility: inherit; font-family: Roboto, sans-serif; font-size: 12px; font-weight: 200;" fill="rgb(50, 49, 63)" stroke="none" stroke-width="1px">20k</text><text x="118.28571428571428" y="0" dx="0em" dy="0.95em" style="text-anchor: middle; visibility: hidden; font-family: Roboto, sans-serif; font-size: 12px; font-weight: 200;" fill="rgb(50, 49, 63)" stroke="none" stroke-width="1px">25k</text><text x="138" y="0" dx="0em" dy="0.95em" style="text-anchor: middle; visibility: inherit; font-family: Roboto, sans-serif; font-size: 12px; font-weight: 200;" fill="rgb(50, 49, 63)" stroke="none" stroke-width="1px">30k</text><text x="157.7142857142857" y="0" dx="0em" dy="0.95em" style="text-anchor: middle; visibility: hidden; font-family: Roboto, sans-serif; font-size: 12px; font-weight: 200;" fill="rgb(50, 49, 63)" stroke="none" stroke-width="1px">35k</text><text x="177.42857142857144" y="0" dx="0em" dy="0.95em" style="text-anchor: middle; visibility: inherit; font-family: Roboto, sans-serif; font-size: 12px; font-weight: 200;" fill="rgb(50, 49, 63)" stroke="none" stroke-width="1px">40k</text><text x="197.14285714285714" y="0" dx="0em" dy="0.95em" style="text-anchor: middle; visibility: hidden; font-family: Roboto, sans-serif; font-size: 12px; font-weight: 200;" fill="rgb(50, 49, 63)" stroke="none" stroke-width="1px">45k</text><text x="216.85714285714286" y="0" dx="0em" dy="0.95em" style="text-anchor: middle; visibility: inherit; font-family: Roboto, sans-serif; font-size: 12px; font-weight: 200;" fill="rgb(50, 49, 63)" stroke="none" stroke-width="1px">50k</text><text x="236.57142857142856" y="0" dx="0em" dy="0.95em" style="text-anchor: middle; visibility: hidden; font-family: Roboto, sans-serif; font-size: 12px; font-weight: 200;" fill="rgb(50, 49, 63)" stroke="none" stroke-width="1px">55k</text><text x="256.2857142857143" y="0" dx="0em" dy="0.95em" style="text-anchor: middle; visibility: inherit; font-family: Roboto, sans-serif; font-size: 12px; font-weight: 200;" fill="rgb(50, 49, 63)" stroke="none" stroke-width="1px">60k</text><text x="276" y="0" dx="0em" dy="0.95em" style="text-anchor: middle; visibility: hidden; font-family: Roboto, sans-serif; font-size: 12px; font-weight: 200;" fill="rgb(50, 49, 63)" stroke="none" stroke-width="1px">65k</text></g><line x1="0" y1="0" x2="276" y2="0" fill="rgb(0, 0, 0)" stroke="rgb(204, 204, 204)" stroke-width="1px"></line></g></g></g></g></svg>