<svg viewBox="0 0 330 200" xmlns="http://www.w3.org/2000/svg"><g><g><g><g><g><line x1="65" y1="178" x2="60" y2="178" style="visibility: inherit;" fill="rgb(0, 0, 0)" stroke="rgb(204, 204, 204)" stroke-width="1px"></line><line x1="65" y1="163.16666666666666" x2="60" y2="163.16666666666666" style="visibility: inherit;" fill="rgb(0, 0, 0)" stroke="rgb(204, 204, 204)" stroke-width="1px"></line><line x1="65" y1="148.33333333333331" x2="60" y2="148.33333333333331" style="visibility: inherit;" fill="rgb(0, 0, 0)" stroke="rgb(204, 204, 204)" stroke-width="1px"></line><line x1="65" y1="133.5" x2="60" y2="133.5" style="visibility: inherit;" fill="rgb(0, 0, 0)" stroke="rgb(204, 204, 204)" stroke-width="1px"></line><line x1="65" y1="118.66666666666666" x2="60" y2="118.66666666666666" style="visibility: inherit;" fill="rgb(0, 0, 0)" stroke="rgb(204, 204, 204)" stroke-width="1px"></line><line x1="65" y1="103.83333333333331" x2="60" y2="103.83333333333331" style="visibility: inherit;" fill="rgb(0, 0, 0)" stroke="rgb(204, 204, 204)" stroke-width="1px"></line><line x1="65" y1="88.99999999999999" x2="60" y2="88.99999999999999" style="visibility: inherit;" fill="rgb(0, 0, 0)" stroke="rgb(204, 204, 204)" stroke-width="1px"></line><line x1="65" y1="74.16666666666669" x2="60" y2="74.16666666666669" style="visibility: inherit;" fill="rgb(0, 0, 0)" stroke="rgb(204, 204, 204)" stroke-width="1px"></line><line x1="65" y1="59.33333333333332" x2="60" y2="59.33333333333332" style="visibility: inherit;" fill="rgb(0, 0, 0)" stroke="rgb(204, 204, 204)" stroke-width="1px"></line><line x1="65" y1="44.5" x2="60" y2="44.5" style="visibility: inherit;" fill="rgb(0, 0, 0)" stroke="rgb(204, 204, 204)" stroke-width="1px"></line><line x1="65" y1="29.66666666666668" x2="60" y2="29.66666666666668" style="visibility: inherit;" fill="rgb(0, 0, 0)" stroke="rgb(204, 204, 204)" stroke-width="1px"></line><line x1="65" y1="14.83333333333332" x2="60" y2="14.83333333333332" style="visibility: inherit;" fill="rgb(0, 0, 0)" stroke="rgb(204, 204, 204)" stroke-width="1px"></line><line x1="65" y1="0" x2="60" y2="0" style="visibility: inherit;" fill="rgb(0, 0, 0)" stroke="rgb(204, 204, 204)" stroke-width="1px"></line></g><g transform="translate(55, 0)"><text x="0" y="178" dx="0em" dy="0.3em" style="text-anchor: end; visibility: hidden; font-family: Roboto, sans-serif; font-size: 12px; font-weight: 200;" fill="rgb(50, 49, 63)" stroke="none" stroke-width="1px">-0.02</text><text x="0" y="163.16666666666666" dx="0em" dy="0.3em" style="text-anchor: end; visibility: inherit; font-family: Roboto, sans-serif; font-size: 12px; font-weight: 200;" fill="rgb(50, 49, 63)" stroke="none" stroke-width="1px">0</text><text x="0" y="148.33333333333331" dx="0em" dy="0.3em" style="text-anchor: end; visibility: hidden; font-family: Roboto, sans-serif; font-size: 12px; font-weight: 200;" fill="rgb(50, 49, 63)" stroke="none" stroke-width="1px">0.02</text><text x="0" y="133.5" dx="0em" dy="0.3em" style="text-anchor: end; visibility: inherit; font-family: Roboto, sans-serif; font-size: 12px; font-weight: 200;" fill="rgb(50, 49, 63)" stroke="none" stroke-width="1px">0.04</text><text x="0" y="118.66666666666666" dx="0em" dy="0.3em" style="text-anchor: end; visibility: hidden; font-family: Roboto, sans-serif; font-size: 12px; font-weight: 200;" fill="rgb(50, 49, 63)" stroke="none" stroke-width="1px">0.06</text><text x="0" y="103.83333333333331" dx="0em" dy="0.3em" style="text-anchor: end; visibility: inherit; font-family: Roboto, sans-serif; font-size: 12px; font-weight: 200;" fill="rgb(50, 49, 63)" stroke="none" stroke-width="1px">0.08</text><text x="0" y="88.99999999999999" dx="0em" dy="0.3em" style="text-anchor: end; visibility: hidden; font-family: Roboto, sans-serif; font-size: 12px; font-weight: 200;" fill="rgb(50, 49, 63)" stroke="none" stroke-width="1px">0.1</text><text x="0" y="74.16666666666669" dx="0em" dy="0.3em" style="text-anchor: end; visibility: inherit; font-family: Roboto, sans-serif; font-size: 12px; font-weight: 200;" fill="rgb(50, 49, 63)" stroke="none" stroke-width="1px">0.12</text><text x="0" y="59.33333333333332" dx="0em" dy="0.3em" style="text-anchor: end; visibility: hidden; font-family: Roboto, sans-serif; font-size: 12px; font-weight: 200;" fill="rgb(50, 49, 63)" stroke="none" stroke-width="1px">0.14</text><text x="0" y="44.5" dx="0em" dy="0.3em" style="text-anchor: end; visibility: inherit; font-family: Roboto, sans-serif; font-size: 12px; font-weight: 200;" fill="rgb(50, 49, 63)" stroke="none" stroke-width="1px">0.16</text><text x="0" y="29.66666666666668" dx="0em" dy="0.3em" style="text-anchor: end; visibility: hidden; font-family: Roboto, sans-serif; font-size: 12px; font-weight: 200;" fill="rgb(50, 49, 63)" stroke="none" stroke-width="1px">0.18</text><text x="0" y="14.83333333333332" dx="0em" dy="0.3em" style="text-anchor: end; visibility: inherit; font-family: Roboto, sans-serif; font-size: 12px; font-weight: 200;" fill="rgb(50, 49, 63)" stroke="none" stroke-width="1px">0.2</text><text x="0" y="0" dx="0em" dy="0.3em" style="text-anchor: end; visibility: hidden; font-family: Roboto, sans-serif; font-size: 12px; font-weight: 200;" fill="rgb(50, 49, 63)" stroke="none" stroke-width="1px">0.22</text></g><line x1="65" y1="0" x2="65" y2="178" fill="rgb(0, 0, 0)" stroke="rgb(204, 204, 204)" stroke-width="1px"></line></g></g><g transform="translate(65, 0)" clip-path="url(#clip_0)"><clipPath id="clip_0"><rect width="265" height="178"></rect></clipPath><g><g><g><line x1="0" y1="0" x2="0" y2="178" fill="rgb(0, 0, 0)" stroke="rgb(60, 60, 60)" stroke-width="1px" opacity="0.25"></line><line x1="18.928571428571427" y1="0" x2="18.928571428571427" y2="178" fill="rgb(0, 0, 0)" stroke="rgb(60, 60, 60)" stroke-width="1px" opacity="0.25"></line><line x1="37.857142857142854" y1="0" x2="37.857142857142854" y2="178" fill="rgb(0, 0, 0)" stroke="rgb(60, 60, 60)" stroke-width="1px" opacity="0.25"></line><line x1="56.785714285714285" y1="0" x2="56.785714285714285" y2="178" fill="rgb(0, 0, 0)" stroke="rgb(60, 60, 60)" stroke-width="1px" opacity="0.25"></line><line x1="75.71428571428571" y1="0" x2="75.71428571428571" y2="178" fill="rgb(0, 0, 0)" stroke="rgb(60, 60, 60)" stroke-width="1px" opacity="0.25"></line><line x1="94.64285714285714" y1="0" x2="94.64285714285714" y2="178" fill="rgb(0, 0, 0)" stroke="rgb(60, 60, 60)" stroke-width="1px" opacity="0.25"></line><line x1="113.57142857142857" y1="0" x2="113.57142857142857" y2="178" fill="rgb(0, 0, 0)" stroke="rgb(60, 60, 60)" stroke-width="1px" opacity="0.25"></line><line x1="132.5" y1="0" x2="132.5" y2="178" fill="rgb(0, 0, 0)" stroke="rgb(60, 60, 60)" stroke-width="1px" opacity="0.25"></line><line x1="151.42857142857142" y1="0" x2="151.42857142857142" y2="178" fill="rgb(0, 0, 0)" stroke="rgb(60, 60, 60)" stroke-width="1px" opacity="0.25"></line><line x1="170.35714285714286" y1="0" x2="170.35714285714286" y2="178" fill="rgb(0, 0, 0)" stroke="rgb(60, 60, 60)" stroke-width="1px" opacity="0.25"></line><line x1="189.28571428571428" y1="0" x2="189.28571428571428" y2="178" fill="rgb(0, 0, 0)" stroke="rgb(60, 60, 60)" stroke-width="1px" opacity="0.25"></line><line x1="208.21428571428572" y1="0" x2="208.21428571428572" y2="178" fill="rgb(0, 0, 0)" stroke="rgb(60, 60, 60)" stroke-width="1px" opacity="0.25"></line><line x1="227.14285714285714" y1="0" x2="227.14285714285714" y2="178" fill="rgb(0, 0, 0)" stroke="rgb(60, 60, 60)" stroke-width="1px" opacity="0.25"></line><line x1="246.07142857142858" y1="0" x2="246.07142857142858" y2="178" fill="rgb(0, 0, 0)" stroke="rgb(60, 60, 60)" stroke-width="1px" opacity="0.25"></line><line x1="265" y1="0" x2="265" y2="178" fill="rgb(0, 0, 0)" stroke="rgb(60, 60, 60)" stroke-width="1px" opacity="0.25"></line></g><g><line x1="0" y1="178" x2="265" y2="178" fill="rgb(0, 0, 0)" stroke="rgb(60, 60, 60)" stroke-width="1px" opacity="0.25"></line><line x1="0" y1="163.16666666666666" x2="265" y2="163.16666666666666" fill="rgb(0, 0, 0)" stroke="rgb(60, 60, 60)" stroke-width="1px" opacity="0.25"></line><line x1="0" y1="148.33333333333331" x2="265" y2="148.33333333333331" fill="rgb(0, 0, 0)" stroke="rgb(60, 60, 60)" stroke-width="1px" opacity="0.25"></line><line x1="0" y1="133.5" x2="265" y2="133.5" fill="rgb(0, 0, 0)" stroke="rgb(60, 60, 60)" stroke-width="1px" opacity="0.25"></line><line x1="0" y1="118.66666666666666" x2="265" y2="118.66666666666666" fill="rgb(0, 0, 0)" stroke="rgb(60, 60, 60)" stroke-width="1px" opacity="0.25"></line><line x1="0" y1="103.83333333333331" x2="265" y2="103.83333333333331" fill="rgb(0, 0, 0)" stroke="rgb(60, 60, 60)" stroke-width="1px" opacity="0.25"></line><line x1="0" y1="88.99999999999999" x2="265" y2="88.99999999999999" fill="rgb(0, 0, 0)" stroke="rgb(60, 60, 60)" stroke-width="1px" opacity="0.25"></line><line x1="0" y1="74.16666666666669" x2="265" y2="74.16666666666669" fill="rgb(0, 0, 0)" stroke="rgb(60, 60, 60)" stroke-width="1px" opacity="0.25"></line><line x1="0" y1="59.33333333333332" x2="265" y2="59.33333333333332" fill="rgb(0, 0, 0)" stroke="rgb(60, 60, 60)" stroke-width="1px" opacity="0.25"></line><line x1="0" y1="44.5" x2="265" y2="44.5" fill="rgb(0, 0, 0)" stroke="rgb(60, 60, 60)" stroke-width="1px" opacity="0.25"></line><line x1="0" y1="29.66666666666668" x2="265" y2="29.66666666666668" fill="rgb(0, 0, 0)" stroke="rgb(60, 60, 60)" stroke-width="1px" opacity="0.25"></line><line x1="0" y1="14.83333333333332" x2="265" y2="14.83333333333332" fill="rgb(0, 0, 0)" stroke="rgb(60, 60, 60)" stroke-width="1px" opacity="0.25"></line><line x1="0" y1="0" x2="265" y2="0" fill="rgb(0, 0, 0)" stroke="rgb(60, 60, 60)" stroke-width="1px" opacity="0.25"></line></g></g></g><g><g><line x1="0" y1="163.16666666666666" x2="265" y2="163.16666666666666" fill="rgb(0, 0, 0)" stroke="rgb(153, 153, 153)" stroke-width="1.5px"></line></g></g><g><g><line x1="18.928571428571427" y1="0" x2="18.928571428571427" y2="178" fill="rgb(0, 0, 0)" stroke="rgb(153, 153, 153)" stroke-width="1.5px"></line></g></g><g><g><g><g><g><path stroke="rgb(255, 112, 67)" stroke-width="2px" d="M19.08757142857143,53.31932121515274L19.098928571428573,-197.8289427367728L19.962071428571427,-11.318910550176852L20.094571428571427,12.426066362406047L20.10214285714286,24.047718794490816L20.13242857142857,33.75815919508987L20.723000000000003,36.061751129452986L20.957714285714285,44.05044446115753L21.1205,52.382950637312724L21.147,62.10023826902391L21.328714285714284,71.0043442552054L21.377928571428573,72.38164584022297L21.631571428571426,72.34405342306032L21.661857142857144,69.85311393280611L21.964714285714287,74.52566770036753L21.98742857142857,67.9781871440052L22.09342857142857,63.15016260621757L22.6045,40.329871313399444L22.767285714285716,52.12939685915355L22.964142857142857,60.69907733238839L23.108,68.78638013451125L23.395714285714288,61.63970942901706L23.702357142857142,61.339516875564215L23.910571428571426,55.942078677585975L23.921928571428573,42.2118725391062L23.974928571428574,49.66327539801368L23.99007142857143,37.37129420288191L24.171785714285715,49.332795661027355L24.198285714285714,37.568845864805866L24.364857142857144,42.60827391044344L24.478428571428573,42.30519308906893L24.804000000000002,48.54900770333379L24.925142857142855,49.740432663577735L25.330214285714288,51.52956707477285L25.493,59.0329689235843L25.504357142857142,48.37672714153514L25.90942857142857,57.06097376933529L26.034357142857143,48.858373746612195L26.185785714285714,60.6922926761498L26.299357142857144,58.28637297112786L26.636285714285712,64.0960909935075L26.86342857142857,69.98072118772511L27.20792857142857,76.73013838047041L27.25335714285714,80.8406435547734L27.3745,67.09032508127753L27.491857142857143,72.15362691540494L27.66221428571429,72.73331915268837L27.97264285714286,55.420033613597354L28.15057142857143,53.01611923215349L28.214928571428572,46.67345313004479L28.2225,41.20897801171818L28.24142857142857,34.212318283546864L28.33607142857143,21.83266266411448L28.339857142857145,4.871251902216125L28.385285714285715,1.30417273070735L28.404214285714286,9.707671527374492L28.514,27.29198781009132L29.093214285714286,32.09901155112138L29.30142857142857,25.340002249809555L30.160785714285716,37.18965091419221L30.42957142857143,50.70205655758585L30.44092857142857,60.08367693033896L30.89521428571429,51.15968711199028L31.156428571428574,57.68699443003764L31.217,43.55344744702568L31.220785714285714,47.9230093440397L31.440357142857145,42.558140916719196L32.10285714285715,54.41509510986619L32.62528571428572,44.30619317945975L32.63285714285714,42.00704848159843L32.82214285714286,48.4351846093556L33.09092857142857,41.98273767643274L33.367285714285714,44.081910166087745L33.39378571428571,29.53144641324811L33.798857142857145,34.786413273870814L33.90485714285714,39.48472308220918L34.20771428571428,43.01015857290563L34.44242857142857,32.46191892160085L34.813428571428574,29.493745215232202L34.94971428571428,37.01411372576478L35.271499999999996,32.46794595967157L35.58571428571429,39.492275456166176L35.934,44.14198303478352L35.998357142857145,50.51481187577717L36.07785714285714,42.89455579604632L36.585142857142856,45.23423609351124L36.60028571428572,47.79056938869036L36.63057142857143,51.504534572840065L37.054571428571435,46.022399583681505L37.107571428571426,49.309629138819616L37.25142857142857,24.060485613092926L37.45585714285714,28.954899681095387L37.74735714285715,-91.14810598623546L39.44714285714286,-0.9821944462790957L39.9355,12.992473831565786L40.42764285714286,22.656893189844553L40.59421428571429,24.406957300352275L40.916000000000004,27.709019584684235L41.128,20.555931661952993L41.1545,24.225002307461395L41.29078571428571,33.501168817224695L41.605,39.27318636532478L42.13878571428572,45.757260936658305L42.4,35.011348201035396L42.47192857142857,27.846334023304937L42.73692857142857,36.41528055490241L42.824,46.848602569748124L43.06628571428572,44.989421578699776L43.61142857142857,52.12567644190123L43.81585714285715,63.17001489984869L43.925642857142854,63.787439943777805L44.27771428571428,52.126271179654914L44.28907142857143,38.50282203978416L44.3345,52.118118612783505L44.87585714285714,41.613130409036685L45.29985714285714,39.86548929388025L45.39828571428572,41.210691844823536L45.860142857142854,32.02974935749216L46.01535714285715,31.634108513925046L46.60592857142857,43.28757059561803L46.87471428571428,47.687923514151144L47.13214285714285,47.51336714880662L47.169999999999995,53.6230178862323L47.181357142857145,46.47254714898066L47.23814285714286,41.442994249566745L47.36307142857143,46.5896731732041L48.05207142857142,52.786555116595665L48.41171428571428,57.4690555688856L48.449571428571424,62.6067616005894L48.582071428571425,65.34660657042507L49.18021428571429,61.151771847579774L49.46414285714285,59.51132831746649L49.895714285714284,64.23144185223614L50.05092857142857,63.373557669389434L50.588499999999996,66.67126161638848L50.60742857142857,74.17226869821118L50.6415,83.23704485081534L50.99357142857143,85.76703638492972L51.09957142857143,69.04675116048138L51.13742857142857,72.35656969705286L51.4895,67.99718962294895L51.61821428571429,50.478831347754245L51.84535714285715,57.59134690526583L52.53814285714286,31.86211992935236L52.64792857142857,38.73100446411104L52.727428571428575,41.38424996662341L52.75392857142857,43.36517593402935L52.9735,41.08998854527698L53.208214285714284,45.48675781686105L53.98428571428571,47.66184433236066L54.196285714285715,45.73674323969059L54.31742857142857,48.132113889537365L54.64678571428571,31.435139739659455L54.77171428571428,24.995296767153476L55.09728571428572,29.12678919833233L55.1465,32.63194947993138L55.48721428571429,37.56250736703665L55.574285714285715,36.50137697250369L55.64242857142857,35.88562084416718L56.19135714285714,44.56711582332466L56.43364285714286,55.70305430749185L57.00528571428571,68.81361501724167L57.10371428571428,68.37170676257209L57.83057142857143,66.56140680921729L57.85707142857143,65.6543185678364L58.296214285714285,68.72316623476058L58.59907142857143,68.20719570027585L58.76185714285714,68.91897171484031L59.083642857142856,73.2768856673091L59.20099999999999,65.3950748278507L59.26157142857143,61.08079958515377L59.477357142857144,55.53924200235502L59.6515,44.82063625532667L59.65528571428571,47.67314342293346L59.738571428571426,46.357069267594404L59.969500000000004,58.23761617889065L60.003571428571426,56.09570914975843L60.200428571428574,25.35295877990744L60.21178571428571,22.613361920479818L60.355642857142854,22.385535525065496L60.44271428571428,35.220947624703285L60.465428571428575,44.83900032515088L60.473,52.450092316339195L60.64714285714286,56.71702226548811L60.95757142857143,63.203063126233324L61.0295,71.69400472277815L61.06357142857143,69.48291877402214L61.321,62.35233965063663L61.32857142857143,61.21860327200722L61.55571428571429,60.98946455017323L62.157642857142854,60.351566897433145L62.35828571428572,54.60180620165528L62.434,61.71827877632959L62.55135714285714,67.78758970789885L62.585428571428565,78.40426726259915L62.71414285714285,75.09575877661634L63.02457142857143,72.09805605888859L63.16464285714286,62.28671318790646L63.444785714285715,69.31878100595885L63.876357142857145,75.22221745650147L64.23978571428572,82.29011702813068L64.25871428571428,60.58950104886049L64.395,59.32435390125379L64.51235714285714,64.1018805544619L64.87957142857142,64.00503356030946L64.978,58.20651840069867L65.05371428571428,53.90567949952802L65.455,19.812422406879183L65.89035714285714,29.45797768309812L66.09100000000001,33.66298302888929L66.89735714285715,43.411694273630175L67.67721428571429,45.03954321256844L67.91192857142858,47.88271531528247L68.20721428571429,56.819677427794645L68.27157142857143,63.88927469901249L68.3737857142857,55.00696941951057L68.45328571428571,11.220097504938272L68.49871428571429,25.671598077435466L68.5555,37.16416964006142L69.04764285714286,39.02916571694591L69.66471428571428,25.871582915283593L69.67985714285714,32.26654425959814L70.05085714285714,40.013995734562904L70.20985714285715,37.75737685782677L70.40292857142857,43.71514632688552L70.49000000000001,53.788240551098816L70.71335714285715,41.23176244122644L71.20928571428573,51.374315918916956L71.48942857142856,39.04411498997527L72.23142857142857,38.43484454778889L72.76521428571428,48.214721960528216L73.01507142857143,50.90200225293014L73.04157142857143,58.75501508724491L73.14,59.132466045210386L73.20814285714286,54.99283296451214L73.4315,66.65871242502438L73.62078571428572,66.07792036259347L74.32114285714286,60.199969977996965L74.34385714285715,63.55044591886006L74.45742857142858,70.50397666619786L74.4915,65.19859732201421L74.52935714285714,70.7826214306843L74.87764285714286,65.8148434581111L74.91171428571428,70.52665086540546L74.99121428571429,71.48085477687621L75.23349999999999,74.0973307081233L75.30542857142858,72.73210335057117L76.05499999999999,69.11681907473842L76.39571428571429,73.92954858326198L76.72128571428571,73.90180790004551L76.94085714285714,80.99288756851331L77.50492857142856,74.89240747895927L77.51249999999999,69.65353988196279L77.63364285714286,72.47844314653032L77.751,65.52608642632559L78.51571428571428,64.60820874628338L78.60657142857143,53.51715061471824L78.64064285714285,60.641411448602256L78.84885714285714,65.91956917536169L79.4735,71.95805649509725L79.85964285714286,78.05429394858838L79.93914285714285,81.40929793676729L80.44264285714286,87.29044632373952L80.71521428571428,79.24574104342005L80.7985,77.136203808975L80.86285714285715,79.48474514401255L81.037,70.14091664124041L81.41178571428571,81.34980782548024L82.13864285714286,87.12804554806691L82.55885714285714,82.81130544685267L82.56264285714286,81.01958293780787L82.74435714285714,81.06796942308209L82.90335714285715,79.3802617343743L83.53557142857143,81.38230910120177L83.65292857142856,79.06476868325669L83.78164285714286,74.53748836532066L84.1905,77.48411066963494L84.31542857142857,70.80151489963973L84.39114285714287,67.30346737508737L84.482,70.18940866812349L84.48578571428571,81.02645847539262L84.49714285714285,84.8748888994322L84.56907142857143,88.81249047152775L84.81892857142857,83.79497862147294L84.96657142857143,85.10783005896201L85.00442857142858,88.48639006466213L85.34135714285713,89.61736702648179L85.39435714285715,86.12444716742273L85.50414285714285,89.78764356753686L85.53442857142858,92.31392527102452L85.64421428571428,95.74670025687L86.019,98.79987635323603L86.8935,101.96042295096194L86.9995,105.07832400774991L87.13957142857143,98.20922103907029L87.27207142857142,101.54279654623167L87.31750000000001,63.37364283790354L87.55978571428571,58.713448678723616L88.07085714285715,66.79851813077778L88.27528571428572,56.84919043339043L88.77878571428572,58.70838987464236L88.78257142857143,66.57461901793741L89.31257142857143,70.26887561072904L89.77064285714286,77.0792158966245L89.79714285714286,79.31645314397753L90.27035714285714,81.29549792283827L90.69814285714286,81.22363721800765L90.87607142857142,82.26946580934747L91.03885714285714,73.55482966140687L91.29628571428572,83.84554472867235L91.49692857142857,81.20450632756499L91.88307142857143,73.7010536431403L92.84464285714286,79.12837338917522L92.86735714285714,78.61417544150704L93.28,84.11412883178497L93.333,86.54380910639682L93.6245,87.40016865100725L93.64721428571428,87.13022998194475L93.97278571428572,89.08279172201622L94.05985714285714,90.03303258165785L94.32485714285714,91.27290528427133L94.40814285714286,87.04341692364692L94.53307142857143,88.62891925255785L94.62392857142858,85.21287252433032L94.77535714285715,78.74828687333907L94.8435,70.64122048280572L94.86621428571429,77.18531441041809L94.87757142857143,78.58992680638934L95.16528571428572,84.03351573040939L95.16907142857143,81.14089226937465L95.34700000000001,88.48645632903575L95.46435714285714,84.73218091756127L95.56657142857142,85.07208520431875L95.57792857142857,89.63790895180544L95.59685714285715,93.52665739729972L95.86564285714284,73.10204444518709L95.9072857142857,77.34195988552986L96.09278571428571,81.26236785840588L96.30857142857143,86.78124820416247L96.47892857142857,94.53658383478708L96.63414285714285,92.1517149459661L96.68335714285715,93.63745534340813L96.68714285714286,96.65630102191122L96.77042857142858,85.96475272186234L96.831,88.20840833520991L97.2512142857143,88.18009816873467L97.33071428571428,91.80210617023363L97.59192857142857,88.47327034077503L97.60328571428572,89.76966650310139L97.60707142857143,89.02694230339107L97.78878571428572,77.25851872361417L97.87964285714287,82.1216986018818L98.37935714285715,83.21573716533348L98.73142857142857,84.2016606288159L98.9737142857143,76.05020485788083L99.2197857142857,82.90281726287026L99.30685714285714,79.95996393366198L99.62485714285714,81.36010196918156L99.63621428571429,77.40175906781366L99.65514285714286,67.82201547998591L99.90878571428571,62.48874264208316L99.97692857142857,62.83720084271433L100.26085714285715,57.70531282140938L100.4085,59.05084547314846L101.00664285714286,70.12296837695136L101.16942857142858,74.00243330124633L101.43821428571428,74.89427301484382L101.53664285714287,73.99964054947966L101.61614285714285,34.564592812753894L101.63885714285713,38.81644068530492L102.237,44.28289771733677L103.14178571428572,48.462901394871075L103.191,54.7972101934182L103.31971428571428,54.573175409108515L103.46357142857143,64.72092551150655L103.56957142857142,62.05326128545772L104.00114285714285,73.06274642337131L104.13364285714285,65.61697548237977L104.27371428571428,72.52174596386818L104.61821428571429,75.25185064198728L105.11035714285714,68.39822689157776L105.3942857142857,73.27021919429978L105.735,79.46371567814866L105.74635714285715,80.80551781844459L106.318,84.30638788567201L106.52242857142858,87.06919856385602L106.56028571428571,86.8064907984906L106.68900000000001,89.59663507096893L106.72685714285714,78.57411634804876L106.82528571428571,77.8113719647175L106.99564285714285,84.59806807942095L107.08271428571427,85.89471268746614L107.36664285714286,85.5682010484633L107.43857142857142,89.32426652011114L107.6165,68.55779923260037L108.0442857142857,77.63686015888676L108.22978571428573,73.07998137634098L108.53642857142857,75.95331425768482L108.57807142857143,80.17577869470875L108.65378571428572,84.53354518999947L108.93014285714285,89.95947696802443L109.14592857142857,85.73738281046211L109.551,84.23571306321371L110.08478571428572,84.94541653303544L110.23242857142857,79.6192621472243L110.34221428571429,59.492121831483274L110.67157142857143,55.46775138883394L110.8532857142857,63.05165047361256L110.86085714285714,69.03557297770995L111.00471428571429,71.09910567386714L111.0917857142857,69.11219427688071L111.36057142857143,75.38647678489353L111.89435714285715,77.03111781288678L112.13664285714286,72.135017064533L112.50764285714286,72.71896491123056L112.53792857142858,70.48619366552168L113.19664285714285,73.68454724918915L113.32157142857143,76.36033977174597L113.60171428571428,84.32678034216582L113.74935714285715,90.36345749651936L114.07492857142857,86.28390805525353L114.44592857142857,85.69607043653959L114.49514285714285,88.77498509821916L114.52921428571429,67.54311617374853L114.82828571428571,73.92912375429631L115.05164285714285,71.57897182948828L115.48321428571428,68.52599185690735L115.54,71.61038470691669L115.83907142857143,69.06791363023945L116.16842857142858,76.11463794412626L116.64542857142857,70.0560172017467L116.77792857142856,73.51295043664113L117.05807142857142,80.24198827473303L117.5275,78.42717566139468L117.607,88.08898359436499L117.70164285714286,87.66401171444917L117.94392857142857,93.50432810747581L117.99692857142858,93.31606794681802L118.46257142857144,101.83784099063956L118.50421428571428,101.8464910159697L118.8827857142857,93.84224284824994L119.13642857142857,89.44675421923914L119.89357142857142,90.52222145044144L120.37435714285715,94.13648597965141L120.37814285714286,94.77420919638394L120.48792857142857,95.46056022909616L120.49549999999999,98.14683045126665L120.87028571428571,94.71101571345321L121.68042857142856,91.63509341633981L121.70314285714286,85.6844642981167L121.72585714285715,87.93641075600817L121.741,84.567325339608L121.74478571428571,89.56201360145084L122.18014285714285,92.7117218280193L123.05464285714285,88.99913155945393L123.42564285714286,89.34825533681071L123.4635,86.05825195363656L123.49000000000001,87.06684757964823L123.55814285714285,82.32137482878544L123.9405,86.42414844383703L124.26607142857142,83.91278341385937L124.61057142857143,87.00505668892943L124.61814285714286,84.7353394780119L124.73928571428571,76.71703395476196L124.80742857142857,79.23022256283625L125.87878571428571,79.10405218376268L125.9772142857143,81.63547242427046L126.14378571428571,69.61758747481692L126.58671428571428,77.26675800818019L126.63592857142856,79.40375601898234L126.98421428571429,74.12693596471577L127.09400000000001,76.83488217915935L127.24164285714285,74.77008556407581L128.60071428571428,76.97574281066555L128.69914285714285,72.42680885897846L128.78242857142857,71.72723145953758L128.85435714285714,75.40027949627209L128.94899999999998,81.10406850440772L129.00957142857143,76.45315961914785L129.055,80.89259433310696L129.4752142857143,75.94229393677878L129.70992857142858,80.71546301658728L130.49735714285714,87.13841108936124L130.52385714285714,90.6930184095022L130.5579285714286,90.8251013102173L130.74721428571428,90.37678282954397L130.75857142857143,87.66120511858L130.83807142857142,88.67250491898257L130.95542857142857,92.20281948154704L131.02735714285714,97.82911125388107L131.54221428571427,99.85882163300381L131.84885714285713,88.48924165309712L131.85264285714285,86.38414691458257L131.98135714285715,83.81567771393615L132.5,82.74567618541134L132.51892857142857,80.20735631229881L132.61735714285714,85.4372975835664L132.79149999999998,77.8805364938486L132.8482857142857,81.48836720218614L133.1587142857143,90.11557274205177L133.3215,82.24762326431556L133.41992857142858,88.13623633190097L133.57514285714285,92.37562055619013L133.73792857142857,100.4336543677744L134.23764285714284,101.15344481856923L134.2792857142857,99.80933371903458L134.66542857142858,100.28648550970735L134.81685714285715,101.098812822406L135.17271428571428,102.43229909872824L135.22571428571428,100.48637846940997L135.29385714285715,95.10811573805874L136.48257142857142,96.91923145840352L136.68321428571429,100.31252008480061L137.82271428571428,107.36704474707491L137.9627857142857,112.47007548234589L138.9205714285714,110.7400817693549L139.01899999999998,109.2984126809718L139.3445714285714,110.46273236031402L139.59064285714285,112.02362155726654L139.61714285714285,108.41984872738664L139.64742857142855,108.24021718638427L139.82914285714284,108.42832047224877L139.8632142857143,110.49816471185959L140.08657142857143,99.97537145623942L140.1357857142857,101.1152615320686L140.73014285714288,103.22553753045142L140.85507142857145,103.82519942014552L141.0140714285714,108.71832066258253L141.71821428571428,108.02824864992344L142.07407142857141,110.55713509962077L142.12328571428571,101.56768363161694L142.3845,105.04879131435769L142.55864285714287,98.3907121458257L142.74414285714286,85.23555906054328L142.95614285714285,78.5997225907906L143.45585714285713,83.60554684296582L143.48614285714285,85.10252914099598L143.86471428571429,94.56634545274242L143.91014285714286,98.77444814694721L143.98585714285713,102.18189814680426L144.43257142857144,105.37565907852738L144.53478571428573,107.84557571193403L144.54235714285713,88.13957920816308L144.88307142857144,78.036723036715L145.14807142857143,84.17110614809643L145.2502857142857,88.19889930293552L145.27678571428572,88.49193231299628L145.38278571428572,87.06291974712735L145.89764285714287,90.59840301913071L146.24592857142858,87.64582662359395L146.61314285714286,90.80782129158382L146.64721428571428,86.74441141615758L146.69264285714286,95.90604347791313L146.76457142857143,98.70168861937226L146.82892857142858,98.63212091306661L147.03335714285717,97.19132155540662L147.07878571428571,86.06406156457247L147.17342857142856,89.73530185821548L147.31349999999998,93.5303443524325L147.7072142857143,93.19934158648628L147.77914285714286,87.70926544487732L147.80564285714286,94.20092440758756L147.97978571428573,97.64796216141065L148.17664285714287,102.11825546469859L148.18800000000002,102.960895923071L148.32049999999998,101.89968363642011L149.0095,101.89926594650743L149.01328571428573,95.77214082534081L149.09278571428572,94.88352773934562L149.30100000000002,102.75335343431571L149.63035714285712,101.90038543192544L149.63414285714285,105.74372125574692L149.77800000000002,108.25047202859696L149.91049999999998,114.50802650780487L149.94457142857144,109.81996353117448L150.60707142857143,105.27738830036706L150.96671428571426,108.5264380294651L151.72764285714285,106.75153767353342L151.86392857142857,109.67570921680974L152.09864285714286,105.51336415374921L152.39014285714285,108.4672557096343L152.68921428571429,111.2144066549684L152.76871428571428,115.93026162274919L152.799,115.720787791992L152.84821428571428,117.66803912462038L152.85578571428573,116.26500464082272L153.2495,114.28576652495315L153.25707142857144,113.77464447784507L153.5864285714286,114.77165312727965L153.59778571428572,108.00012192574216L154.34735714285713,101.61204416005346L154.37385714285713,102.01608307148827L154.62371428571427,104.42712509628676L154.64264285714287,91.56239195085529L155.03635714285716,97.34021736352985L155.10071428571428,99.51465701965674L155.35435714285714,102.94300347211843L155.4300714285714,105.82381095144353L155.83514285714284,111.69762575854186L156.0887857142857,114.91854323286658L156.14557142857143,115.76314114069699L156.20614285714288,107.1246774708668L156.25535714285715,110.02317134862949L156.38785714285714,15.880475118617817L156.48628571428574,27.49506488726299L157.36835714285715,34.90527569600841L157.59550000000002,49.774102470670705L157.70907142857143,59.73600082854872L157.781,63.58258922632209L158.11792857142856,72.14725220756895L158.26557142857143,79.75147850870286L158.28071428571428,80.92765277261506L158.3147857142857,84.54112567601608L158.43214285714285,91.4706317728626L158.64792857142857,48.565119688001424L159.20064285714287,47.0336771852117L159.6397857142857,56.710493291232744L159.76471428571426,63.03925048606247L160.17735714285715,70.59545133764755L160.7225,79.27322836256599L160.85121428571426,82.0316094615272L161.89228571428572,79.85143291052275L162.05507142857144,87.383804379108L162.3162857142857,82.00928252511399L163.51257142857145,82.60046448364106L163.72078571428574,87.56838907983033L163.77757142857143,88.02929301963668L164.16750000000002,89.2716602153166L164.44764285714285,86.74580512032514L164.50821428571427,91.65167938886245L164.54985714285715,96.41810645143235L164.67857142857144,98.46900029774984L164.98142857142858,99.23810437558899L165.21235714285714,93.97628634912445L165.21614285714284,99.7026823048499L165.4357142857143,103.32095157590236L165.51142857142855,105.77945191987698L165.67421428571427,108.12241571839438L165.96571428571428,110.86602965610624L166.49949999999998,106.02890926514642L166.58657142857143,107.3273036150088L166.59035714285716,106.05129065539043L167.10521428571428,108.74221801551855L167.46864285714287,104.94612954051267L167.692,99.73167731544449L167.73364285714285,101.1045377888181L168.80878571428573,104.51155766722059L169.22899999999998,111.0683916255447L169.335,114.15457757297357L169.52807142857142,110.07296398780493L169.89528571428573,114.7080021446363L170.01264285714285,117.82951236082366L170.03157142857143,116.29893719874852L170.09592857142857,121.20947111486903L170.43285714285713,122.00035895741573L171.20514285714287,123.77623396729457L171.47771428571428,123.59547923782462L171.8752142857143,112.27545163255888L172.20457142857143,114.36289696038642L172.25,115.98784292434098L172.37114285714284,97.42827418257515L172.47714285714287,102.69370605734423L172.8065,105.55866606887497L172.84435714285715,105.02263911044444L172.86707142857145,98.84741332850648L172.88221428571427,99.96625701990956L172.99957142857141,104.21678506093028L173.00714285714284,109.56835900097809L173.06014285714286,112.41467409396725L173.08285714285714,116.0645687686645L173.35921428571427,115.62081500783158L174.2942857142857,116.60511298269485L174.62742857142857,116.45094513418294L174.72585714285714,120.39738502362327L175.06657142857142,121.6419358610199L175.1687857142857,122.59448961788692L175.4337857142857,106.65598750039555L175.6912142857143,109.33666799142273L176.00164285714285,109.09943092509157L176.18335714285715,108.15955700685555L176.24392857142857,113.26593970735479L176.44835714285716,115.18124005924011L177.06542857142855,117.40291915474826L177.09571428571428,104.49943438828585L177.338,104.91846887367967L177.4402142857143,107.3765855785017L177.95128571428572,110.07230845800504L177.97778571428572,111.84322449039585L178.04592857142856,110.73098568563842L178.43585714285715,116.24899423482887L178.5267142857143,110.2939901384175L178.56457142857144,112.99910865248243L178.61757142857144,110.7368675333007L178.8522857142857,113.17899442734429L179.21192857142856,113.90267631296975L179.63214285714284,95.32626442506647L179.7002857142857,101.31410011831001L179.73814285714286,99.50032023902479L179.81764285714286,96.906219711892L180.2302857142857,101.7041012885135L180.4952857142857,95.73965106290999L180.8662857142857,99.78958595364558L181.45307142857143,103.06393739734408L181.578,107.42117268174381L181.64235714285715,99.03678598158848L181.79000000000002,95.67949175659408L182.76671428571427,100.42548453388723L183.5087142857143,95.16735851929168L183.6752857142857,96.7022472918618L183.80778571428573,98.30420062136812L183.92135714285715,102.0318020942233L184.0122142857143,97.21460768646065L184.13335714285714,98.97312322957322L184.40592857142857,103.00120672257977L184.50814285714287,105.46265210425581L184.5232857142857,110.5573333493139L184.58007142857142,109.8337842700115L184.67849999999999,108.94657706488262L184.7617857142857,111.26389274813744L185.40914285714285,113.00730649439707L185.42428571428573,114.84322512792161L185.4735,80.22857182987259L185.77635714285717,84.42534655482633L185.79149999999998,87.0354549697601L185.92778571428573,92.62210260748887L186.25714285714287,97.92288400195075L186.28364285714287,102.76900265307144L186.45021428571428,102.1077672368648L186.65085714285715,109.31913948907743L186.7985,109.5791249760346L187.02942857142858,106.55849277362L187.39664285714284,107.50365939567813L187.5405,110.40337012293467L187.71464285714288,109.60672891384324L187.71842857142857,112.71083370471453L187.94178571428571,109.03493575591614L188.2597857142857,110.39599011991363L188.35064285714287,100.38212892907023L188.53614285714286,98.6761749624263L188.58914285714286,104.05298690864059L189.1494285714286,105.7528862201238L189.26299999999998,109.20116392597662L189.48635714285712,109.85390696432135L189.6794285714286,75.07463994062164L190.45928571428573,74.32840441214044L190.49335714285715,81.76701000715559L190.69400000000002,85.57713104277119L191.20507142857142,91.56359582548414L191.34135714285713,90.20128739685471L191.7312857142857,93.50318613501395L191.7767142857143,96.46132827549737L192.2045,95.99995605459922L192.46192857142856,97.18762059790053L192.59442857142858,101.43381484854206L193.16228571428573,104.42976531566936L193.19635714285712,108.58445609583046L193.29857142857142,107.59386684827315L193.41214285714287,105.15237057492402L193.54085714285716,105.88437376688384L193.71121428571428,108.94261498439526L193.7415,102.68955879703415L193.8475,95.74914078490171L194.27528571428573,101.77997804372444L194.33585714285715,104.31230254427474L194.57057142857144,104.65219804700978L194.63492857142856,106.49493537265649L194.9605,102.66716143531126L194.99457142857142,105.12970697802388L195.7062857142857,102.9277619361936L195.90314285714285,87.03187368023116L196.99342857142858,83.84685506460444L197.07292857142858,87.63009772373555L197.60671428571428,85.6215176941869L197.7695,91.22034493009131L197.97014285714286,94.92800375681774L197.99664285714286,101.5559349781539L198.07235714285716,99.29581345473842L198.17078571428573,96.58623391218774L198.51149999999998,89.76826022435031L198.70835714285715,96.03895692835185L198.93550000000002,102.45272215326L198.96200000000002,101.8728075400075L199.0717857142857,102.28005626069218L199.27242857142858,105.67344179080098L199.28757142857143,111.74164456843712L199.33678571428572,111.4167209564707L199.38978571428572,108.59437373536586L199.48064285714287,112.23170256721788L199.5260714285714,114.58761374487885L199.64721428571428,117.72845491423321L199.67371428571428,121.08492277407953L199.72671428571428,125.1644809823768L200.15449999999998,126.31297709851108L200.19614285714286,122.50865433548876L200.21885714285716,119.40617756175915L200.37407142857145,112.73265927020026L200.38921428571427,104.11307284127027L200.4422142857143,103.48582330190864L200.5292857142857,104.24045800141784L200.93057142857145,106.52087939563565L201.09335714285714,104.9090421638799L201.32807142857143,104.65510791297247L201.38864285714286,111.76802908471333L201.5022142857143,110.17467934127144L202.23664285714287,100.02856820860268L202.407,104.07265140049937L202.5887142857143,105.89594023546748L202.619,108.1857041477699L203.02785714285713,110.04357685442024L203.10357142857143,113.63357743077707L203.838,110.91411715821363L204.36042857142857,111.71889712045761L205.45828571428572,101.5378314218252L205.6627142857143,97.03476602145503L205.75735714285713,98.50594630043541L206.23435714285714,103.08153330173921L206.541,107.63356500571606L206.7719285714286,112.6076569559455L206.84385714285713,116.6160423451043L207.06721428571427,119.95677244503025L207.50635714285715,119.63100817245642L207.80542857142856,122.00451813170739L208.23700000000002,122.5733416425048L208.4262857142857,117.5706197951726L208.56635714285716,119.38449400590201L208.77835714285715,122.1765936163423L208.83892857142857,126.06813293684077L208.9525,128.4002333206144L209.22885714285712,127.84378327783921L209.66042857142855,131.42547022656714L209.99357142857144,127.0715700600661L210.251,127.26561630900399L210.5955,125.75235728390159L210.60307142857144,127.7221982887874L210.6257857142857,124.08152116576714L211.31478571428573,120.7514015890421L211.9205,121.70338498491306L212.05678571428572,121.55858538987528L212.49214285714285,122.98291858013552L212.5072857142857,124.39019141980755L212.85935714285714,126.96906396242055L213.06757142857143,116.00833452039997L213.2947142857143,118.49812211712616L213.65435714285715,117.86407804565852L214.42664285714287,121.12096694124915L214.83928571428572,115.22177073841861L215.00585714285714,116.65134642805488L215.02100000000002,120.44904151224553L215.0512857142857,121.7847762057634L215.61157142857144,114.08188667811143L215.7895,116.89343040527194L216.03935714285714,121.99019129689314L216.04692857142857,122.75064573030822L216.6829285714286,122.65934465937346L216.89114285714285,116.38778003739617L216.99714285714285,120.29415741493258L217.12207142857142,123.30036006805422L217.2129285714286,120.42212208601627L217.2507857142857,120.51853202408226L217.7164285714286,122.33755038628568L217.78457142857144,110.22897133072952L218.0685,114.98462307984178L218.21235714285714,118.52697187683314L218.36757142857144,106.46979412797815L218.74992857142857,107.2658188737219L218.82185714285714,108.76638290920877L219.21557142857142,110.4177121385069L219.3405,108.56179636608631L219.58278571428573,111.156354848987L219.62064285714285,111.41336753490936L219.9197142857143,113.17889343623835L219.9765,112.76787258182692L220.1165714285714,118.59334413061069L221.08950000000002,113.39509831543151L221.1197857142857,107.28357673723487L221.34314285714285,112.33240572086454L221.39614285714288,113.14198096840788L222.02457142857145,113.88484402838407L222.24414285714286,117.15694362391983L222.27064285714286,118.36172635781388L222.2857857142857,120.21223962201128L222.30092857142859,120.79891981135506L222.69085714285714,123.19166922449284L222.83471428571428,126.8231964079062L222.95964285714285,126.88738057069803L223.0012857142857,127.7322456173736L223.44421428571428,126.91365286705704L223.62971428571427,123.92976873488306L223.6865,125.66948492589401L223.76600000000002,126.25281844446553L223.82278571428571,128.0184170573879L224.04992857142855,125.32750807316575L224.26950000000002,125.51033400117728L224.75028571428572,123.33204926930675L225.1212857142857,123.95111757393784L225.58692857142856,80.06179489854198L225.72321428571428,79.58525437241107L225.8065,84.58120905797452L225.97307142857142,90.33623681025206L226.02228571428572,96.10218060960726L226.07907142857144,102.49606812203588L226.4122142857143,106.74497033762131L226.6242142857143,112.97293131310671L226.90435714285715,107.6170794364943L227.07471428571426,109.471869724729L227.8735,108.12111860861309L228.2747857142857,113.27628362617256L228.28614285714283,116.71860714281118L228.3845714285714,119.91412938175002L228.50192857142858,123.50144334430955L229.17957142857142,119.30688681140457L229.1985,118.8245897381192L229.22878571428572,118.60220117214479L229.84207142857144,121.28857027823645L230.04271428571428,119.69207651073793L230.1525,121.54932258630684L230.43642857142856,121.57517771734888L230.7885,124.63619235782846L230.79985714285715,124.88282274322495L231.27307142857143,119.43072607903218L232.07942857142856,118.477782375642L232.20435714285713,118.9261365941722L232.36335714285715,122.76578451411909L232.4845,124.48280841572598L232.56400000000002,120.99084885800845L232.80249999999998,121.73767037717501L232.84792857142855,114.5060576271274L232.90092857142855,117.11283990864602L232.92742857142858,119.137899662052L232.935,122.15788307713231L233.2302857142857,123.66864236646836L233.90792857142856,125.97106017873996L234.03285714285713,128.08544730723546L234.16914285714284,124.25758722228612L234.29028571428572,125.04730161201321L234.71050000000002,129.69786414868094L234.85057142857144,108.95065739722799L235.6115,110.91857394602839L235.70235714285712,113.840176245989L235.84621428571427,118.62804104434889L235.8689285714286,121.56828489337764L235.9522142857143,124.56978536129526L236.221,126.78282506883548L236.48978571428572,129.37866236828233L236.54657142857144,131.36313052964928L236.67528571428574,129.51222460893402L236.89107142857142,127.83957308368326L237.3112857142857,129.64969388101144L237.45514285714287,131.89534998559628L237.59142857142857,127.86049420136796L238.00785714285715,128.32239452326306L238.84071428571428,128.98803542005746L239.61678571428573,128.98346740871276L239.80985714285714,117.21486088182046L240.16571428571427,115.90753570541699L240.60485714285716,121.61098602172316L240.81307142857142,122.05793413836038L240.92664285714287,121.16634320439344L240.94178571428571,122.61401064622333L241.1007857142857,122.7638121273341L241.22192857142858,124.55645172570875L241.32414285714285,126.70597891033033L241.38850000000002,127.97578564167874L241.44528571428572,127.43511202144268L241.48314285714287,128.0894696093729L241.80114285714285,130.60921893450578L242.33871428571427,125.87504242928962L242.39928571428572,128.42461349820186L242.41064285714285,130.80272658740324L242.422,120.30559542999377L242.50528571428572,120.50159943626747L242.94064285714285,122.19950361914883L243.28514285714286,125.08383221002791L243.46307142857142,119.90456728414736L243.64478571428572,123.3003581048361L243.92114285714285,119.62070369264896L244.46628571428573,122.11482543872533L244.648,120.28654256476737L244.70857142857142,123.9813819563597L244.82214285714284,128.03160775270607L245.00764285714286,123.49067085648005L245.05685714285713,117.52077084929115L245.0757857142857,120.68675793062049L245.1287857142857,122.22638795133828L245.38242857142856,123.4116540817213L245.549,123.62799974755906L245.6512142857143,116.83366808367107L246.0827857142857,117.0500987932509" style="fill: none;" fill="none"></path></g></g></g></g><g opacity="0.2"><g><g><g><path stroke="rgb(255, 112, 67)" stroke-width="2px" d="M19.08757142857143,53.31932121515274L19.098928571428573,-418.33711848656344L19.28442857142857,-155.75214933355653L19.560785714285718,1.0877749721209142L19.7955,66.13886693120003L19.81442857142857,53.58477186659971L19.89392857142857,48.16336310406527L19.962071428571427,48.062626908222825L20.094571428571427,130.32654249047238L20.10214285714286,84.9163148701191L20.13242857142857,86.93776926894981L20.723000000000003,49.1609001060327L20.957714285714285,90.94935203840333L21.1205,102.64829460779825L21.147,122.09945937246084L21.328714285714284,127.09304875011244L21.377928571428573,81.20834977924824L21.631571428571426,72.09952102601528L21.661857142857144,53.439707323908806L21.964714285714287,105.66055552661419L21.98742857142857,23.923946683605518L22.09342857142857,30.389320616920795L22.6045,-115.66325461864476L22.767285714285716,133.30732818320394L22.964142857142857,119.98782314608493L23.108,125.01240423818427L23.395714285714288,11.74028231700262L23.702357142857142,59.23565801481405L23.910571428571426,17.990833411614094L23.921928571428573,-54.606952379147224L23.974928571428574,102.33899083236852L23.99007142857143,-49.714787165323905L24.171785714285715,134.24084271863103L24.198285714285714,-46.077939728895835L24.364857142857144,78.49384361505508L24.478428571428573,40.144165123502404L24.804000000000002,93.11934673786163L24.925142857142855,58.25369285047054L25.330214285714288,64.3249191492796L25.493,112.73625929156938L25.504357142857142,-27.94343517223995L25.90942857142857,119.29444811865687L26.034357142857143,-9.953995158274996L26.185785714285714,145.57972384244204L26.299357142857144,41.02126075824103L26.636285714285712,105.80180723468462L26.86342857142857,112.2372034465273L27.20792857142857,125.20959409823018L27.25335714285714,110.37242339551449L27.3745,-31.718915065129625L27.491857142857143,108.54495939115682L27.66221428571429,76.90039371699095L27.97264285714286,-69.05275494853657L28.15057142857143,35.73119033376375L28.214928571428572,1.0626655220985413L28.2225,1.9096121340990067L28.24142857142857,-16.110407918691674L28.385285714285715,-24.35665191213291L28.404214285714286,70.16369515657425L28.514,153.8016996961087L29.093214285714286,66.68429016073546L29.30142857142857,-23.29093700647358L30.160785714285716,122.45015726983547L30.42957142857143,147.92893972806633L30.44092857142857,127.58952955032387L30.89521428571429,-13.054548064867669L31.156428571428574,104.65627699096996L31.217,-58.15047930677734L31.220785714285714,79.36646883934736L31.440357142857145,3.9519763390223117L32.10285714285715,139.739889635394L32.62528571428572,-28.439965705076865L32.63285714285714,25.461701566974316L32.82214285714286,94.69434030602375L33.09092857142857,-4.451654836535454L33.367285714285714,59.18847833077112L33.39378571428571,-75.1805880268415L33.798857142857145,72.60380432258052L33.90485714285714,73.29625377058983L34.20771428571428,68.38114523887634L34.44242857142857,-43.44927207628887L34.813428571428574,8.13300921519598L34.94971428571428,91.13525811831155L35.271499999999996,-0.24910431106883957L35.58571428571429,90.04380381604034L35.934,77.60427614301443L35.998357142857145,96.37785598884025L36.07785714285714,-11.945853119095194L36.585142857142856,62.07214173177877L36.60028571428572,66.18767121434212L36.63057142857143,78.2327583829562L37.054571428571435,6.569194436073303L37.107571428571426,72.96680275599164L37.25142857142857,-157.64988001187646L37.45585714285714,64.17851735154787L37.74735714285715,-955.4934594631195L38.04642857142857,59.24227797985077L38.054,76.87169799208641L38.25842857142857,11.742161105076466L38.364428571428576,132.9279373238484L39.16321428571429,35.12798884510994L39.21621428571428,69.56279242038727L39.44714285714286,40.09974836309752L39.9355,113.56416383385658L40.42764285714286,92.20896339913207L40.59421428571429,37.0016710360845L40.916000000000004,51.47302512327829L41.128,-30.922817299763373L41.1545,50.63026710351309L41.29078571428571,100.25912270198265L41.605,80.81277095029753L42.13878571428572,92.42132170995075L42.4,-42.32396643360458L42.47192857142857,-23.71826182802521L42.73692857142857,98.08358557770649L42.824,121.93429732322693L43.06628571428572,31.609416643778477L43.61142857142857,103.48330538968244L43.81585714285715,142.65302928723395L43.925642857142854,68.2308753480514L44.27771428571428,-31.79590116937958L44.28907142857143,-59.54133506615959L44.3345,150.10360514993468L44.87585714285714,-33.98833633462589L45.29985714285714,27.288204073905945L45.39828571428572,50.8917391449213L45.860142857142854,-34.042931705713315L46.01535714285715,28.786791751782093L46.60592857142857,127.15428618962565L46.87471428571428,79.3560360396902L47.13214285714285,46.25713367263475L47.169999999999995,97.5924703752001L47.181357142857145,-4.987396781643218L47.23814285714286,5.246704459190369L47.36307142857143,83.62888639420271L48.05207142857142,97.38378675282001L48.41171428571428,91.16770589351654L48.449571428571424,99.581399636964L48.582071428571425,85.06450704236826L49.18021428571429,30.962715685367584L49.46414285714285,47.7055135021607L49.895714285714284,98.20078327258426L50.05092857142857,57.19960432747999L50.588499999999996,90.40391775717336L50.60742857142857,128.15492595483857L50.6415,148.47371228908497L50.99357142857143,103.9746803070108L51.09957142857143,-51.284481445948295L51.13742857142857,96.17641122639179L51.4895,36.62394621968269L51.61821428571429,-75.59591070810956L51.84535714285715,108.77813909451166L52.53814285714286,-153.3039558529854L52.64792857142857,88.16445210576057L52.727428571428575,60.47891839345297L52.75392857142857,57.621348043282836L52.9735,24.716098994016647L53.208214285714284,77.12908090651035L53.98428571428571,63.31533580025038L54.196285714285715,31.882327189048137L54.31742857142857,65.37092888355255L54.64678571428571,-88.72832989692692L54.77171428571428,-21.3504583736261L55.09728571428572,58.85998881359896L55.1465,57.85761116941771L55.48721428571429,73.04635837922496L55.574285714285715,28.86471725006899L55.64242857142857,31.454195593794193L56.19135714285714,107.0454157417019L56.43364285714286,135.84530010446906L57.00528571428571,163.16666666666666L57.10371428571428,65.19141620894274L57.83057142857143,53.53318255643049L57.85707142857143,59.126257290442794L58.296214285714285,90.80880763878423L58.59907142857143,64.49389955898127L58.76185714285714,74.04142532745999L59.083642857142856,104.63957788050175L59.20099999999999,8.671878789862003L59.26157142857143,30.03216300408045L59.477357142857144,15.658196449279785L59.6515,-32.31818215052288L59.65528571428571,68.20184254646301L59.738571428571426,36.8856503466765L59.969500000000004,143.7386013250798L60.003571428571426,40.68100118637085L60.200428571428574,-195.89404797554016L60.21178571428571,2.897246817747745L60.355642857142854,20.745932449897136L60.44271428571428,127.59383142242828L60.465428571428575,114.05744516849518L60.473,107.22500025232631L60.64714285714286,87.42492796480656L60.95757142857143,109.88129161546627L61.0295,132.8009450646738L61.06357142857143,53.570349405209214L61.321,11.035548910498619L61.32857142857143,53.05941851437092L61.55571428571429,59.34041702747345L62.157642857142854,55.76079526543617L62.35828571428572,13.222380866607036L62.434,112.93354861686626L62.55135714285714,111.46672903498012L62.585428571428565,154.80953687739867L62.71414285714285,51.285345246394485L63.02457142857143,50.524425024787575L63.16464285714286,-8.322787145773583L63.444785714285715,119.9266133358081L63.876357142857145,117.70760437101126L64.23978571428572,133.15582050258914L64.25871428571428,-95.58378444115323L64.395,50.21944246192774L64.51235714285714,98.48440843572217L64.87957142857142,63.308052733540535L64.978,16.4762207766374L65.05371428571428,22.953740522265434L65.455,-225.54724748929345L65.89035714285714,98.87435090045133L66.09100000000001,63.925234615802765L66.89735714285715,113.57045224805671L67.67721428571429,56.754718363285065L67.91192857142858,68.34423257907233L68.20721428571429,121.13650312274694L68.27157142857143,114.76719604432583L68.3737857142857,-8.91650628050171L68.45328571428571,-303.9018167654674L68.49871428571429,129.67502023031312L68.5555,119.8730043284595L69.04764285714286,52.45102272927761L69.66471428571428,-68.81987364093465L69.67985714285714,78.28929885228476L70.05085714285714,95.77024487406015L70.20985714285715,21.51711969574293L70.40292857142857,86.59155283371607L70.49000000000001,126.28149242699146L70.71335714285715,-49.1337111691634L71.20928571428573,124.36744668458897L71.48942857142856,-49.69290481011074L72.23142857142857,34.050094972054154L72.76521428571428,118.59777416040498L73.01507142857143,70.24160960316658L73.04157142857143,115.27095991124708L73.14,61.84887539843717L73.20814285714286,25.201047350962963L73.4315,150.61479575559497L73.62078571428572,61.898121749361366L74.32114285714286,17.897999177376423L74.34385714285715,87.66288752605516L74.45742857142858,120.54659958556294L74.4915,27.01726073026657L74.52935714285714,110.96928673734266L74.87764285714286,30.063129852215443L74.91171428571428,104.43621564904848L74.99121428571429,78.34799440205097L75.23349999999999,92.92737880349159L75.30542857142858,62.906942531466484L76.05499999999999,43.09862567981085L76.39571428571429,108.56542160362005L76.72128571428571,73.70216593394679L76.94085714285714,132.0254117399454L77.50492857142856,30.988952408234272L77.51249999999999,31.95086979866028L77.63364285714286,92.80848467350006L77.751,15.49191265304884L78.51571428571428,58.00249888499579L78.60657142857143,-26.30210380752884L78.64064285714285,111.91273122032482L78.84885714285714,103.90499937285978L79.4735,115.41536687811214L79.85964285714286,121.92721594994265L79.93914285714285,105.55432663857937L80.44264285714286,129.61543225621182L80.71521428571428,21.350239108006154L80.7985,61.95445223649344L80.86285714285715,96.3865426207582L81.037,2.8959869245688052L81.41178571428571,162.01707388910776L82.13864285714286,128.71241210897762L82.55885714285714,51.7449299643437L82.56264285714286,68.125055372715L82.74435714285714,81.4161934728424L82.90335714285715,67.23429984351L83.53557142857143,95.79048605263233L83.65292857142856,62.38607616722584L83.78164285714286,41.95591361820698L84.1905,98.69013020396233L84.31542857142857,22.708735505739842L84.39114285714287,42.128994206587464L84.482,90.95872387538353L84.48578571428571,159.01768577688685L84.49714285714285,112.57097014784813L84.56907142857143,117.15031162152687L84.81892857142857,47.68534415960312L84.96657142857143,94.55605597794056L85.00442857142858,112.80094485978285L85.34135714285713,97.75669303039709L85.39435714285715,60.98687637845674L85.50414285714285,116.15064716835815L85.53442857142858,110.4948706453045L85.64421428571428,120.45142515500385L86.019,120.77273383364081L86.8935,124.70599600672722L86.9995,127.5169889902075L87.13957142857143,48.77420131365457L87.27207142857142,125.5336104420324L87.31750000000001,-211.3191190958023L87.55978571428571,25.17533005774021L88.07085714285715,124.98450976113477L88.27528571428572,-14.753348241249734L88.77878571428572,72.08853011578321L88.78257142857143,123.18567793443799L89.31257142857143,96.85541076213121L89.77064285714286,126.09133697052795L89.79714285714286,95.41722612082958L90.27035714285714,95.53813165922958L90.69814285714286,80.7064757520954L90.87607142857142,89.79600272079307L91.03885714285714,10.838021973768864L91.29628571428572,157.90495316358283L91.49692857142857,62.19768898189068L91.88307142857143,19.70079579949379L92.84464285714286,118.1872810696562L92.86735714285714,74.91363611320656L93.28,123.69576060771942L93.333,104.02954091876745L93.6245,93.56314963599044L93.64721428571428,85.18755660951138L93.97278571428572,103.13483440876007L94.05985714285714,96.87165122727552L94.32485714285714,100.19592358668643L94.40814285714286,56.60496790210405L94.53307142857143,100.03933765242496L94.62392857142858,60.62853623429933L94.77535714285715,32.22446554899216L94.8435,12.296923016508426L94.86621428571429,124.28133464356262L94.87757142857143,88.69853077083826L95.16528571428572,123.20950815081596L95.16907142857143,60.323487361272186L95.34700000000001,141.3504337420066L95.46435714285714,57.71370705465475L95.56657142857142,87.51828162868816L95.57792857142857,122.49687001978356L95.59685714285715,121.51289620995522L95.86564285714284,-73.8882028659185L95.9072857142857,107.85544969389835L96.09278571428571,109.47645146648088L96.30857142857143,126.49909200395146L96.47892857142857,150.3495730453481L96.63414285714285,74.9884781887134L96.68335714285715,104.32991492499906L96.68714285714286,118.38209205244976L96.77042857142858,9.020659218231831L96.831,104.35537250339985L97.2512142857143,87.97635779033104L97.33071428571428,117.86868834495544L97.59192857142857,64.51656658450761L97.60328571428572,99.0994683926304L97.60707142857143,83.68176322678727L97.78878571428572,-7.435546055436173L97.87964285714287,117.12064887334901L98.37935714285715,91.08922781050205L98.73142857142857,91.29707702994347L98.9737142857143,17.3864493916432L99.2197857142857,132.21915899713832L99.30685714285714,58.78106866280237L99.62485714285714,91.4365052084128L99.63621428571429,48.91466835141182L99.65514285714286,-1.1207293570041656L99.90878571428571,24.106664349635448L99.97692857142857,65.34495740135512L100.26085714285715,20.77254493037859L100.4085,68.73426898320517L101.00664285714286,149.8059512420247L101.16942857142858,101.92186119904119L101.43821428571428,81.31259488811097L101.53664285714287,67.56122002005577L101.61614285714285,-249.2384556531906L101.63885714285713,69.4158048828443L102.237,83.6234655380249L103.14178571428572,78.54522294302782L103.191,100.38346531738836L103.31971428571428,52.96085950235525L103.46357142857143,137.75145493696132L103.56957142857142,42.854825297991425L104.00114285714285,152.2949427437658L104.13364285714285,12.031837070981656L104.27371428571428,122.21345483884215L104.61821428571429,94.89965316156545L105.11035714285714,19.07460678617159L105.3942857142857,108.33259002864361L105.735,124.03658381601173L105.74635714285715,90.46209387729564L106.318,109.50117410719395L106.52242857142858,106.95237705111504L106.56028571428571,84.91585622479519L106.68900000000001,109.67652581880489L106.72685714285714,-0.7518790513277054L106.82528571428571,72.32211320598921L106.99564285714285,133.44002864261466L107.08271428571427,95.22630257159472L107.36664285714286,83.21838777760667L107.43857142857142,116.35562294721603L107.6165,-80.8926784594854L108.0442857142857,142.97633141527572L108.22978571428573,40.285394728183746L108.53642857142857,96.63189023981491L108.57807142857143,110.56367849558592L108.65378571428572,115.89517619709173L108.93014285714285,129.00839582954842L109.14592857142857,55.352147807677596L109.551,73.42861439039311L110.08478571428572,90.05295461912948L110.23242857142857,41.28841337064901L110.34221428571429,-85.35729781786603L110.67157142857143,26.505478858947754L110.8532857142857,117.63085864111781L110.86085714285714,112.10019558916488L111.00471428571429,85.94977540522814L111.0917857142857,54.81294668217501L111.36057142857143,120.54073942452669L111.89435714285715,88.86714094877243L112.13664285714286,36.89914446572462L112.50764285714286,76.9214748243491L112.53792857142858,54.41756125787893L113.19664285714285,96.70220664640266L113.32157142857143,95.61727284391719L113.60171428571428,141.65903297190863L113.74935714285715,133.80774062375227L114.07492857142857,56.92452765007815L114.44592857142857,81.4655669182539L114.49514285714285,110.93307586014271L114.52921428571429,-85.2567273974419L114.82828571428571,119.88744060446817L115.05164285714285,54.66558338701725L115.48321428571428,46.55454582472643L115.54,93.80790046354133L115.83907142857143,50.77045784890652L116.16842857142858,126.8279489899675L116.64542857142857,26.453812186916675L116.77792857142856,98.39153552055359L117.05807142857142,128.66899828985333L117.5275,65.36647505064806L117.607,157.6223226529546L117.70164285714286,84.60560752948126L117.94392857142857,135.53545755892992L117.99692857142858,91.96121203651029L118.46257142857144,163.16666666666666L118.50421428571428,101.90874283760786L118.8827857142857,36.23789947728315L119.13642857142857,57.81364752848944L119.89357142857142,98.26205939302841L120.37435714285715,120.14734054232636L120.37814285714286,99.36372546106577L120.48792857142857,100.40003733336926L120.49549999999999,117.4791686075429L120.87028571428571,69.98441456755003L121.68042857142856,69.49853786826134L121.70314285714286,42.85944490631422L121.72585714285715,104.14304182181755L121.741,60.320956523219735L121.74478571428571,125.50739305963117L122.18014285714285,115.37929414709407L123.05464285714285,62.28065405289331L123.42564285714286,91.86080186565715L123.4635,62.381014491120965L123.49000000000001,94.32542921602726L123.55814285714285,48.16952994962534L123.9405,115.95066675543785L124.26607142857142,65.83918918172517L124.61057142857143,109.25928566853204L124.61814285714286,68.4008172551791L124.73928571428571,19.011523713668193L124.80742857142857,97.3169405783216L125.87878571428571,78.19603912780684L125.9772142857143,99.85339841743308L126.14378571428571,-16.8717812597752L126.58671428571428,132.3157066007455L126.63592857142856,94.78313514590263L126.98421428571429,36.151132623354584L127.09400000000001,96.32321641097465L127.24164285714285,59.91031976044178L128.60071428571428,92.84924332300821L128.69914285714285,39.6893989443779L128.78242857142857,66.69256787995496L128.85435714285714,101.83418258031207L128.94899999999998,122.15264841541648L129.00957142857143,42.98186452686787L129.055,112.84196874996024L129.4752142857143,40.31636157631874L129.70992857142858,115.06663065652052L130.49735714285714,133.36257836719352L130.52385714285714,116.27453666428724L130.5579285714286,91.77566513667503L130.74721428571428,87.15035966535407L130.75857142857143,68.117949133118L130.83807142857142,95.95054774483043L130.95542857142857,117.60950953016678L131.02735714285714,138.3199651564161L131.54221428571427,114.46608157455921L131.84885714285713,6.665543109178543L131.85264285714285,71.23436674724024L131.98135714285715,65.33112067977586L132.5,75.0451733817657L132.51892857142857,61.939775586128235L132.61735714285714,123.07572738826275L132.79149999999998,23.496632913748417L132.8482857142857,107.45291934907436L133.1587142857143,152.2031667092815L133.3215,25.62418358027935L133.41992857142858,130.51494349042574L133.57514285714285,122.88528735066453L133.73792857142857,158.42507802819213L134.23764285714284,106.3335760956009L134.2792857142857,90.13614072402316L134.66542857142858,103.72041397045055L134.81685714285715,106.9449061055978L135.17271428571428,112.02902820209661L135.22571428571428,86.4821300059557L135.29385714285715,56.402257720629365L136.48257142857142,109.95332656055689L136.68321428571429,124.73307265837985L137.82271428571428,158.13649272639304L137.9627857142857,149.1951655279845L138.9205714285714,98.2897991463542L139.01899999999998,98.92312202850977L139.3445714285714,118.84201661000648L139.59064285714285,123.25690610582629L139.61714285714285,82.48450000087422L139.64742857142855,106.94745904703933L139.82914285714284,109.78204739838839L139.8632142857143,125.3942568625013L140.08657142857143,24.24576097726822L140.1357857142857,109.31873273352781L140.73014285714288,118.41260578110814L140.85507142857145,108.14079892138639L141.0140714285714,143.93275058766204L141.71821428571428,103.06199268996716L142.07407142857141,128.7568261064589L142.12328571428571,36.87310667335987L142.3845,130.1013531622787L142.55864285714287,50.47437190016112L142.74414285714286,-9.438411504030267L142.95614285714285,30.843456849455833L143.45585714285713,119.63106892009574L143.48614285714285,95.87589354813099L143.86471428571429,162.67479399137665L143.91014285714286,129.05899048720795L143.98585714285713,126.70436617856222L144.43257142857144,128.36026643961668L144.53478571428573,125.62087738513947L144.54235714285713,-53.6789857943853L144.88307142857144,5.329282720883694L145.14807142857143,128.31855181852976L145.2502857142857,117.18580413858095L145.27678571428572,90.60080922146636L145.38278571428572,76.77871455997229L145.89764285714287,116.04229082912207L146.24592857142858,66.3969571540753L146.61314285714286,113.56381570547819L146.64721428571428,57.501182968417794L146.69264285714286,161.8397561846456L146.76457142857143,118.82116758823395L146.82892857142858,98.1314615185062L147.03335714285717,86.82229011257488L147.07878571428571,5.984272450208664L147.17342857142856,116.15619511902332L147.31349999999998,120.84220754851896L147.7072142857143,90.81720692664385L147.77914285714286,48.19871747493744L147.80564285714286,140.91958481135467L147.97978571428573,122.45533222580949L148.17664285714287,134.28971054901677L148.18800000000002,109.02514446775118L148.32049999999998,94.26243455708027L149.0095,101.89625994861126L149.01328571428573,51.6769288877646L149.09278571428572,88.48842700570822L149.30100000000002,159.39029573090374L149.63035714285712,95.76181243111688L149.63414285714285,133.40313808619976L149.77800000000002,126.29085873812437L149.91049999999998,159.54190218603858L149.94457142857144,76.08128079771996L150.60707142857143,72.58574032783508L150.96671428571426,131.90894345690805L151.72764285714285,93.97807445625463L151.86392857142857,130.72015688071647L152.09864285714286,75.55812673270702L152.39014285714285,129.7255900216599L152.68921428571429,130.98488640909392L152.76871428571428,149.86895557120442L152.799,114.21326300998527L152.84821428571428,131.68186428894597L152.85578571428573,106.16775647054115L153.2495,100.04174139599004L153.25707142857144,110.09624154865742L153.5864285714286,121.94684652239084L153.59778571428572,59.26729901631674L154.34735714285713,55.63882876435915L154.37385714285713,104.92383851607639L154.62371428571427,121.77872261901695L154.64264285714287,-1.021507243315392L155.03635714285716,138.92161664490897L155.10071428571428,115.16349323342243L155.35435714285714,127.61585744967061L155.4300714285714,126.55617953216034L155.83514285714284,153.9698339604462L156.0887857142857,138.0985886628429L156.14557142857143,121.84147690360743L156.20614285714288,44.95606187979379L156.25535714285715,130.88282400990525L156.38785714285714,-661.638273159663L156.48628571428574,111.08203059931594L157.36835714285715,88.23449774583179L157.59550000000002,156.7809049965193L157.70907142857143,131.42900704344112L157.781,91.26541392505169L158.11792857142856,133.784744810313L158.26557142857143,134.4769759873549L158.28071428571428,89.39225116372108L158.3147857142857,110.5462831283609L158.43214285714285,141.3403559780369L158.64792857142857,-260.21389351288485L159.20064285714287,36.01231228808561L159.6397857142857,126.35184198866287L159.76471428571426,108.58555226524669L160.17735714285715,124.97532304003835L160.7225,141.72477121402818L160.85121428571426,101.88290950159231L161.89228571428572,64.16130986313024L162.05507142857144,141.5921826530248L162.3162857142857,43.33034655948481L163.51257142857145,86.85503628353277L163.72078571428574,123.32115789502859L163.77757142857143,91.34629022578397L164.16750000000002,98.21263068914413L164.44764285714285,68.56792992850146L164.50821428571427,126.95788928866386L164.54985714285715,130.7207536722223L164.67857142857144,113.22871174911657L164.98142857142858,104.77313208331663L165.21235714285714,56.10844842096171L165.21614285714284,140.91395811736584L165.4357142857143,129.36062714954215L165.51142857142855,123.47259373962879L165.67421428571427,124.98407321919996L165.96571428571428,130.6110545520981L166.49949999999998,71.21750186135372L166.58657142857143,116.67148590336242L166.59035714285716,96.86818099518615L167.10521428571428,128.10807229578495L167.46864285714287,77.62673871219158L167.692,62.204717859625816L167.73364285714285,110.98463201522827L168.80878571428573,129.03093023474017L169.22899999999998,158.25609830922136L169.335,136.36499775201082L169.52807142857142,80.69872851421437L169.89528571428573,148.0650800274064L170.01264285714285,140.29415145764747L170.03157142857143,105.28381431102753L170.09592857142857,156.54921519973627L170.43285714285713,127.69215834885836L171.20514285714287,136.55671149740616L171.47771428571428,122.29463782409826L171.8752142857143,30.80836771925291L172.20457142857143,129.38565923770267L172.25,127.68212617312867L172.37114285714284,-36.139769713083915L172.47714285714287,140.5875518446167L172.8065,126.17698484038311L172.84435714285715,101.1650024751822L172.86707142857145,54.406034340461105L172.88221428571427,108.01826325803995L172.99957142857141,134.8066507987678L173.00714285714284,148.08214522525668L173.06014285714286,132.89881058285633L173.08285714285714,142.3318435586989L173.35921428571427,112.42724286019802L174.2942857142857,123.68883119523525L174.62742857142857,115.34144209325314L174.72585714285714,148.79881308041513L175.06657142857142,130.59862139572698L175.1687857142857,129.4497535402576L175.4337857142857,-8.048970361550676L175.6912142857143,128.62877841045457L176.00164285714285,107.39210187395412L176.18335714285715,101.39554634938636L176.24392857142857,150.01515291258693L176.44835714285716,128.96512291952968L177.06542857142855,133.39172444865108L177.09571428571428,11.636650577187538L177.338,107.9341432849566L177.4402142857143,125.06696645418802L177.95128571428572,129.47267475475866L177.97778571428572,124.58801364153624L178.04592857142856,102.72651297599077L178.43585714285715,155.9605639576912L178.5267142857143,67.43748524785042L178.56457142857144,132.46709271272022L178.61757142857144,94.45614865918952L178.8522857142857,130.7543010910352L179.21192857142856,119.11081316197911L179.63214285714284,-38.362994899352415L179.7002857142857,144.40688486148912L179.73814285714286,86.44705192744732L179.81764285714286,78.23720116416615L180.2302857142857,136.23311788092056L180.4952857142857,52.815165013074875L180.8662857142857,128.93583869189024L181.45307142857143,126.62853221346933L181.578,138.7789807120959L181.64235714285715,38.69669153292975L181.79000000000002,71.51798085868359L182.76671428571427,134.58107189834118L183.5087142857143,57.326090971628815L183.6752857142857,107.74841403216124L183.80778571428573,109.8330122878154L183.92135714285715,128.8583110546072L184.0122142857143,62.54660203059515L184.13335714285714,111.62866951525211L184.40592857142857,131.9902010411024L184.50814285714287,123.17698853959638L184.5232857142857,147.22233444079757L184.58007142857142,104.62660319109756L184.67849999999999,102.561594064037L184.7617857142857,127.94096791123349L185.40914285714285,125.55416935682297L185.42428571428573,128.0558198839426L185.4735,-168.88344124952954L185.77635714285717,114.62836465736228L185.79149999999998,105.81967782477537L185.92778571428573,132.82764872163534L186.25714285714287,136.07113043094674L186.28364285714287,137.6451680275301L186.45021428571428,97.3490402251482L186.65085714285715,161.21737586155845L186.7985,111.45016807069379L187.02942857142858,84.8198446283738L187.39664285714284,114.30576016753912L187.5405,131.27178011089563L187.71464285714288,103.8735241467754L187.71842857142857,135.0502108062307L187.94178571428571,82.58052264899015L188.2597857142857,120.19111906737089L188.35064285714287,28.31516068677107L188.53614285714286,86.39889969428378L188.58914285714286,142.74840402975678L189.1494285714286,117.98658782243729L189.26299999999998,134.01745757957298L189.48635714285712,114.55151669929424L189.6794285714286,-175.2220522463322L190.45928571428573,68.95795528093976L190.49335714285715,135.30058142046133L190.69400000000002,112.99751029908657L191.20507142857142,134.64651450763145L191.34135714285713,80.39713329573473L191.7312857142857,117.26603115225831L191.7767142857143,117.75025286028782L192.2045,92.67958875993887L192.46192857142856,105.73491132756072L192.59442857142858,131.99249150479832L193.16228571428573,125.99078589056927L193.19635714285712,138.48460777600604L193.29857142857142,100.46487209945917L193.41214285714287,87.58160231262445L193.54085714285716,111.1523967385292L193.71121428571428,130.9519247300923L193.7415,57.688056071599334L193.8475,45.800886566440255L194.27528571428573,145.18223307033378L194.33585714285715,122.53673624495664L194.57057142857144,107.09833125521737L194.63492857142856,119.75660235558945L194.9605,75.11973916490874L194.99457142857142,122.85196096574265L195.7062857142857,87.08097712695599L195.90314285714285,-27.366404096285514L196.99342857142858,60.925163716077805L197.07292857142858,114.85704079518715L197.60671428571428,71.16632698973021L197.7695,131.5135442179938L197.97014285714286,121.61099105079967L197.99664285714286,149.25530884973705L198.07235714285716,83.0303487206499L198.17078571428573,77.08614507317543L198.51149999999998,40.701203684012086L198.70835714285715,141.1674135358383L198.93550000000002,148.61080303415656L198.96200000000002,97.69932368397713L199.0717857142857,105.21091180791456L199.27242857142858,130.09469175338745L199.28757142857143,155.41280882060528L199.33678571428572,109.07833627363044L199.38978571428572,88.28272734085718L199.48064285714287,138.4085444882512L199.5260714285714,131.54244992509484L199.64721428571428,140.33221349368492L199.67371428571428,145.24048655231792L199.72671428571428,154.5239244814341L200.15449999999998,134.57838357364136L200.19614285714286,95.13000363111496L200.21885714285716,97.07851684590179L200.37407142857145,64.70520795881748L200.38921428571427,42.08031149208546L200.4422142857143,98.97168317437172L200.5292857142857,109.6713536257545L200.93057142857145,122.93243664254743L201.09335714285714,93.30909880747396L201.32807142857143,102.82761387775341L201.38864285714286,162.9577404682253L201.5022142857143,98.70778528600931L202.23664285714287,27.009833991527557L202.407,133.17679109300175L202.5887142857143,119.01764185105759L202.619,124.66449689368406L203.02785714285713,123.41416895637909L203.10357142857143,139.46981108685333L203.838,91.34291945894557L204.36042857142857,117.51067422578731L205.45828571428572,28.26753893494606L205.6627142857143,64.62745928764343L205.75735714285713,109.093620767196L206.23435714285714,136.01075778653222L206.541,140.39326858023801L206.7719285714286,148.4048104993999L206.84385714285713,145.46327489987016L207.06721428571427,143.9990759510547L207.50635714285715,117.28657348950702L207.80542857142856,139.08600783844787L208.23700000000002,126.66700592512885L208.4262857142857,81.56742486109337L208.56635714285716,132.4384411945939L208.77835714285715,142.2705563865602L208.83892857142857,154.07445689911643L208.9525,145.1837098530183L209.22885714285712,123.83916739622751L209.66042857142855,157.20187302151075L209.99357142857144,95.73776394377151L210.251,128.66211308414736L210.5955,114.8618538081646L210.60307142857144,141.8985950288673L210.6257857142857,97.88058252632618L211.31478571428573,96.78545906146365L211.9205,128.5545441781481L212.05678571428572,120.51650305837393L212.49214285714285,133.2334476051231L212.5072857142857,134.5179418561359L212.85935714285714,145.52849094942212L213.06757142857143,37.12701935569444L213.2947142857143,136.41642957553267L213.65435714285715,113.30103956411281L214.42664285714287,144.5598886652539L214.83928571428572,72.76689970493317L215.00585714285714,126.93960426002741L215.02100000000002,147.7799946591258L215.0512857142857,131.39768654108047L215.61157142857144,58.64633745451769L215.7895,137.1273270646731L216.03935714285714,158.67015902511775L216.04692857142857,128.2234243576725L216.6829285714286,122.00227629641691L216.89114285714285,71.25307726611695L216.99714285714285,148.4072667385141L217.12207142857142,144.93516276838878L217.2129285714286,99.70824546118575L217.2507857142857,121.21236747999984L217.7164285714286,135.42851859952012L217.78457142857144,23.086902389923726L218.0685,149.20972337263325L218.21235714285714,144.02026895682016L218.36757142857144,19.69764606654644L218.74992857142857,112.99458712587753L218.82185714285714,119.56552408263087L219.21557142857142,122.30186839525896L219.3405,95.20528777440387L219.58278571428573,129.82866917674738L219.62064285714285,113.26301620900631L219.9197142857143,125.88489131629467L219.9765,109.80987003942329L220.1165714285714,160.51763937513655L221.08950000000002,75.98477187504372L221.1197857142857,63.30065914988518L221.34314285714285,148.66742086534697L221.39614285714288,118.96826840564609L222.02457142857145,119.23102244362235L222.24414285714286,140.70533251638213L222.27064285714286,127.03221193452674L222.2857857142857,133.52986786762872L222.30092857142859,125.02109363302588L222.69085714285714,140.41161991904178L222.83471428571428,152.95828548197943L222.95964285714285,127.34929610292116L223.0012857142857,133.81250390410423L223.44421428571428,121.02246897543469L223.62971428571427,102.45558620989323L223.6865,138.18973751366138L223.76600000000002,130.4509072092672L223.82278571428571,140.72493822251755L224.04992857142855,105.9617860391736L224.26950000000002,126.8260812535882L224.75028571428572,107.65554111699262L225.1212857142857,128.40637963513532L225.58692857142856,-235.79742894570037L225.72321428571428,76.15572501222294L225.8065,120.53570261473456L225.97307142857142,131.75356768320003L226.02228571428572,137.59807123119631L226.07907142857144,148.51109464590746L226.4122142857143,137.32313546289998L226.6242142857143,157.7938307924196L226.90435714285715,69.07250609497231L227.07471428571426,122.82027852038541L227.8735,98.4001392647624L228.2747857142857,150.37656957221526L228.28614285714283,141.49205015599728L228.3845714285714,142.91141238001484L228.50192857142858,149.31834218961495L229.17957142857142,89.119832418859L229.1985,115.35363211234409L229.22878571428572,117.0017326399684L229.84207142857144,140.6216200745354L230.04271428571428,108.20255579054356L230.1525,134.91540499900776L230.43642857142856,121.76124988993007L230.7885,146.66546165570617L230.79985714285715,126.65775289386511L231.27307142857143,80.19350582361221L232.07942857142856,111.61971211681762L232.20435714285713,122.15281695375839L232.36335714285715,150.3986605281631L232.4845,136.8397509207328L232.56400000000002,95.86018909017244L232.80249999999998,127.1123367200295L232.84792857142855,62.46215603252253L232.90092857142855,135.87312550842762L232.92742857142858,133.71169034639993L232.935,143.8918620807429L233.2302857142857,134.5411559405426L233.90792857142856,142.5409195162356L234.03285714285713,143.3021022155881L234.16914285714284,96.70954497158527L234.29028571428572,130.73065599054098L234.71050000000002,163.16666666666666L234.85057142857144,-40.36120758454006L235.6115,125.08112091198564L235.70235714285712,134.86613378177086L235.84621428571427,153.0849696751684L235.8689285714286,142.72840046261746L235.9522142857143,146.17074774516124L236.221,142.70945509523153L236.48978571428572,148.06017998233438L236.54657142857144,145.644794838503L236.67528571428574,116.19177052378654L236.89107142857142,115.8019662052393L237.3112857142857,142.67662879948813L237.45514285714287,148.05671113170683L237.59142857142857,98.82276159028211L238.00785714285715,131.64656241362292L238.84071428571428,133.77846744780737L239.61678571428573,128.9505927041173L239.80985714285714,32.51947948336601L240.16571428571427,106.49908074736595L240.60485714285716,162.65712846202464L240.81307142857142,125.27449517448741L240.92664285714287,114.74981172879535L240.94178571428571,133.03246977676946L241.1007857142857,123.84189163893461L241.22192857142858,137.45757932712633L241.32414285714285,142.1755270094921L241.38850000000002,137.11423080662885L241.44528571428572,123.54403465613723L241.48314285714287,132.7986988077561L241.80114285714285,148.74315260226527L242.33871428571427,91.8044934819142L242.39928571428572,146.7731659449637L242.41064285714285,147.91734373755753L242.422,44.76066792011261L242.50528571428572,121.9121856453518L242.94064285714285,134.41884683693448L243.28514285714286,145.841541249305L243.46307142857142,82.63084101428589L243.64478571428572,147.73891827339926L243.92114285714285,93.13925636559725L244.46628571428573,140.06432456212738L244.648,107.1289002423485L244.70857142857142,150.5721113483111L244.82214285714284,157.17995405755937L245.00764285714286,90.81081352134544L245.05685714285713,74.55706424017748L245.0757857142857,143.47148463067907L245.1287857142857,133.30667613322535L245.38242857142856,131.94168410201866L245.549,125.18497921153903L245.6512142857143,67.93675660093626L246.0827857142857,118.60769029334188" style="fill: none;" fill="none"></path></g></g></g></g></g></g><g transform="translate(65, 178)" clip-path="url(#clip_1)"><clipPath id="clip_1"><rect width="265" height="22"></rect></clipPath><g><g><line x1="0" y1="0" x2="0" y2="5" style="visibility: inherit;" fill="rgb(0, 0, 0)" stroke="rgb(204, 204, 204)" stroke-width="1px"></line><line x1="18.928571428571427" y1="0" x2="18.928571428571427" y2="5" style="visibility: inherit;" fill="rgb(0, 0, 0)" stroke="rgb(204, 204, 204)" stroke-width="1px"></line><line x1="37.857142857142854" y1="0" x2="37.857142857142854" y2="5" style="visibility: inherit;" fill="rgb(0, 0, 0)" stroke="rgb(204, 204, 204)" stroke-width="1px"></line><line x1="56.785714285714285" y1="0" x2="56.785714285714285" y2="5" style="visibility: inherit;" fill="rgb(0, 0, 0)" stroke="rgb(204, 204, 204)" stroke-width="1px"></line><line x1="75.71428571428571" y1="0" x2="75.71428571428571" y2="5" style="visibility: inherit;" fill="rgb(0, 0, 0)" stroke="rgb(204, 204, 204)" stroke-width="1px"></line><line x1="94.64285714285714" y1="0" x2="94.64285714285714" y2="5" style="visibility: inherit;" fill="rgb(0, 0, 0)" stroke="rgb(204, 204, 204)" stroke-width="1px"></line><line x1="113.57142857142857" y1="0" x2="113.57142857142857" y2="5" style="visibility: inherit;" fill="rgb(0, 0, 0)" stroke="rgb(204, 204, 204)" stroke-width="1px"></line><line x1="132.5" y1="0" x2="132.5" y2="5" style="visibility: inherit;" fill="rgb(0, 0, 0)" stroke="rgb(204, 204, 204)" stroke-width="1px"></line><line x1="151.42857142857142" y1="0" x2="151.42857142857142" y2="5" style="visibility: inherit;" fill="rgb(0, 0, 0)" stroke="rgb(204, 204, 204)" stroke-width="1px"></line><line x1="170.35714285714286" y1="0" x2="170.35714285714286" y2="5" style="visibility: inherit;" fill="rgb(0, 0, 0)" stroke="rgb(204, 204, 204)" stroke-width="1px"></line><line x1="189.28571428571428" y1="0" x2="189.28571428571428" y2="5" style="visibility: inherit;" fill="rgb(0, 0, 0)" stroke="rgb(204, 204, 204)" stroke-width="1px"></line><line x1="208.21428571428572" y1="0" x2="208.21428571428572" y2="5" style="visibility: inherit;" fill="rgb(0, 0, 0)" stroke="rgb(204, 204, 204)" stroke-width="1px"></line><line x1="227.14285714285714" y1="0" x2="227.14285714285714" y2="5" style="visibility: inherit;" fill="rgb(0, 0, 0)" stroke="rgb(204, 204, 204)" stroke-width="1px"></line><line x1="246.07142857142858" y1="0" x2="246.07142857142858" y2="5" style="visibility: inherit;" fill="rgb(0, 0, 0)" stroke="rgb(204, 204, 204)" stroke-width="1px"></line><line x1="265" y1="0" x2="265" y2="5" style="visibility: inherit;" fill="rgb(0, 0, 0)" stroke="rgb(204, 204, 204)" stroke-width="1px"></line></g><g transform="translate(0, 8)"><text x="0" y="0" dx="0em" dy="0.95em" style="text-anchor: middle; visibility: hidden; font-family: Roboto, sans-serif; font-size: 12px; font-weight: 200;" fill="rgb(50, 49, 63)" stroke="none" stroke-width="1px">-5k</text><text x="18.928571428571427" y="0" dx="0em" dy="0.95em" style="text-anchor: middle; visibility: inherit; font-family: Roboto, sans-serif; font-size: 12px; font-weight: 200;" fill="rgb(50, 49, 63)" stroke="none" stroke-width="1px">0</text><text x="37.857142857142854" y="0" dx="0em" dy="0.95em" style="text-anchor: middle; visibility: hidden; font-family: Roboto, sans-serif; font-size: 12px; font-weight: 200;" fill="rgb(50, 49, 63)" stroke="none" stroke-width="1px">5k</text><text x="56.785714285714285" y="0" dx="0em" dy="0.95em" style="text-anchor: middle; visibility: inherit; font-family: Roboto, sans-serif; font-size: 12px; font-weight: 200;" fill="rgb(50, 49, 63)" stroke="none" stroke-width="1px">10k</text><text x="75.71428571428571" y="0" dx="0em" dy="0.95em" style="text-anchor: middle; visibility: hidden; font-family: Roboto, sans-serif; font-size: 12px; font-weight: 200;" fill="rgb(50, 49, 63)" stroke="none" stroke-width="1px">15k</text><text x="94.64285714285714" y="0" dx="0em" dy="0.95em" style="text-anchor: middle; visibility: inherit; font-family: Roboto, sans-serif; font-size: 12px; font-weight: 200;" fill="rgb(50, 49, 63)" stroke="none" stroke-width="1px">20k</text><text x="113.57142857142857" y="0" dx="0em" dy="0.95em" style="text-anchor: middle; visibility: hidden; font-family: Roboto, sans-serif; font-size: 12px; font-weight: 200;" fill="rgb(50, 49, 63)" stroke="none" stroke-width="1px">25k</text><text x="132.5" y="0" dx="0em" dy="0.95em" style="text-anchor: middle; visibility: inherit; font-family: Roboto, sans-serif; font-size: 12px; font-weight: 200;" fill="rgb(50, 49, 63)" stroke="none" stroke-width="1px">30k</text><text x="151.42857142857142" y="0" dx="0em" dy="0.95em" style="text-anchor: middle; visibility: hidden; font-family: Roboto, sans-serif; font-size: 12px; font-weight: 200;" fill="rgb(50, 49, 63)" stroke="none" stroke-width="1px">35k</text><text x="170.35714285714286" y="0" dx="0em" dy="0.95em" style="text-anchor: middle; visibility: inherit; font-family: Roboto, sans-serif; font-size: 12px; font-weight: 200;" fill="rgb(50, 49, 63)" stroke="none" stroke-width="1px">40k</text><text x="189.28571428571428" y="0" dx="0em" dy="0.95em" style="text-anchor: middle; visibility: hidden; font-family: Roboto, sans-serif; font-size: 12px; font-weight: 200;" fill="rgb(50, 49, 63)" stroke="none" stroke-width="1px">45k</text><text x="208.21428571428572" y="0" dx="0em" dy="0.95em" style="text-anchor: middle; visibility: inherit; font-family: Roboto, sans-serif; font-size: 12px; font-weight: 200;" fill="rgb(50, 49, 63)" stroke="none" stroke-width="1px">50k</text><text x="227.14285714285714" y="0" dx="0em" dy="0.95em" style="text-anchor: middle; visibility: hidden; font-family: Roboto, sans-serif; font-size: 12px; font-weight: 200;" fill="rgb(50, 49, 63)" stroke="none" stroke-width="1px">55k</text><text x="246.07142857142858" y="0" dx="0em" dy="0.95em" style="text-anchor: middle; visibility: inherit; font-family: Roboto, sans-serif; font-size: 12px; font-weight: 200;" fill="rgb(50, 49, 63)" stroke="none" stroke-width="1px">60k</text><text x="265" y="0" dx="0em" dy="0.95em" style="text-anchor: middle; visibility: hidden; font-family: Roboto, sans-serif; font-size: 12px; font-weight: 200;" fill="rgb(50, 49, 63)" stroke="none" stroke-width="1px">65k</text></g><line x1="0" y1="0" x2="265" y2="0" fill="rgb(0, 0, 0)" stroke="rgb(204, 204, 204)" stroke-width="1px"></line></g></g></g></g></svg>