<svg viewBox="0 0 330 200" xmlns="http://www.w3.org/2000/svg"><g><g><g><g><g><line x1="65" y1="178" x2="60" y2="178" style="visibility: inherit;" fill="rgb(0, 0, 0)" stroke="rgb(204, 204, 204)" stroke-width="1px"></line><line x1="65" y1="155.75" x2="60" y2="155.75" style="visibility: inherit;" fill="rgb(0, 0, 0)" stroke="rgb(204, 204, 204)" stroke-width="1px"></line><line x1="65" y1="133.5" x2="60" y2="133.5" style="visibility: inherit;" fill="rgb(0, 0, 0)" stroke="rgb(204, 204, 204)" stroke-width="1px"></line><line x1="65" y1="111.24999999999999" x2="60" y2="111.24999999999999" style="visibility: inherit;" fill="rgb(0, 0, 0)" stroke="rgb(204, 204, 204)" stroke-width="1px"></line><line x1="65" y1="88.99999999999999" x2="60" y2="88.99999999999999" style="visibility: inherit;" fill="rgb(0, 0, 0)" stroke="rgb(204, 204, 204)" stroke-width="1px"></line><line x1="65" y1="66.75" x2="60" y2="66.75" style="visibility: inherit;" fill="rgb(0, 0, 0)" stroke="rgb(204, 204, 204)" stroke-width="1px"></line><line x1="65" y1="44.5" x2="60" y2="44.5" style="visibility: inherit;" fill="rgb(0, 0, 0)" stroke="rgb(204, 204, 204)" stroke-width="1px"></line><line x1="65" y1="22.25" x2="60" y2="22.25" style="visibility: inherit;" fill="rgb(0, 0, 0)" stroke="rgb(204, 204, 204)" stroke-width="1px"></line><line x1="65" y1="0" x2="60" y2="0" style="visibility: inherit;" fill="rgb(0, 0, 0)" stroke="rgb(204, 204, 204)" stroke-width="1px"></line></g><g transform="translate(55, 0)"><text x="0" y="178" dx="0em" dy="0.3em" style="text-anchor: end; visibility: hidden; font-family: Roboto, sans-serif; font-size: 12px; font-weight: 200;" fill="rgb(50, 49, 63)" stroke="none" stroke-width="1px">-0.05</text><text x="0" y="155.75" dx="0em" dy="0.3em" style="text-anchor: end; visibility: inherit; font-family: Roboto, sans-serif; font-size: 12px; font-weight: 200;" fill="rgb(50, 49, 63)" stroke="none" stroke-width="1px">0</text><text x="0" y="133.5" dx="0em" dy="0.3em" style="text-anchor: end; visibility: hidden; font-family: Roboto, sans-serif; font-size: 12px; font-weight: 200;" fill="rgb(50, 49, 63)" stroke="none" stroke-width="1px">0.05</text><text x="0" y="111.24999999999999" dx="0em" dy="0.3em" style="text-anchor: end; visibility: inherit; font-family: Roboto, sans-serif; font-size: 12px; font-weight: 200;" fill="rgb(50, 49, 63)" stroke="none" stroke-width="1px">0.1</text><text x="0" y="88.99999999999999" dx="0em" dy="0.3em" style="text-anchor: end; visibility: hidden; font-family: Roboto, sans-serif; font-size: 12px; font-weight: 200;" fill="rgb(50, 49, 63)" stroke="none" stroke-width="1px">0.15</text><text x="0" y="66.75" dx="0em" dy="0.3em" style="text-anchor: end; visibility: inherit; font-family: Roboto, sans-serif; font-size: 12px; font-weight: 200;" fill="rgb(50, 49, 63)" stroke="none" stroke-width="1px">0.2</text><text x="0" y="44.5" dx="0em" dy="0.3em" style="text-anchor: end; visibility: hidden; font-family: Roboto, sans-serif; font-size: 12px; font-weight: 200;" fill="rgb(50, 49, 63)" stroke="none" stroke-width="1px">0.25</text><text x="0" y="22.25" dx="0em" dy="0.3em" style="text-anchor: end; visibility: inherit; font-family: Roboto, sans-serif; font-size: 12px; font-weight: 200;" fill="rgb(50, 49, 63)" stroke="none" stroke-width="1px">0.3</text><text x="0" y="0" dx="0em" dy="0.3em" style="text-anchor: end; visibility: hidden; font-family: Roboto, sans-serif; font-size: 12px; font-weight: 200;" fill="rgb(50, 49, 63)" stroke="none" stroke-width="1px">0.35</text></g><line x1="65" y1="0" x2="65" y2="178" fill="rgb(0, 0, 0)" stroke="rgb(204, 204, 204)" stroke-width="1px"></line></g></g><g transform="translate(65, 0)" clip-path="url(#clip_0)"><clipPath id="clip_0"><rect width="265" height="178"></rect></clipPath><g><g><g><line x1="0" y1="0" x2="0" y2="178" fill="rgb(0, 0, 0)" stroke="rgb(60, 60, 60)" stroke-width="1px" opacity="0.25"></line><line x1="18.928571428571427" y1="0" x2="18.928571428571427" y2="178" fill="rgb(0, 0, 0)" stroke="rgb(60, 60, 60)" stroke-width="1px" opacity="0.25"></line><line x1="37.857142857142854" y1="0" x2="37.857142857142854" y2="178" fill="rgb(0, 0, 0)" stroke="rgb(60, 60, 60)" stroke-width="1px" opacity="0.25"></line><line x1="56.785714285714285" y1="0" x2="56.785714285714285" y2="178" fill="rgb(0, 0, 0)" stroke="rgb(60, 60, 60)" stroke-width="1px" opacity="0.25"></line><line x1="75.71428571428571" y1="0" x2="75.71428571428571" y2="178" fill="rgb(0, 0, 0)" stroke="rgb(60, 60, 60)" stroke-width="1px" opacity="0.25"></line><line x1="94.64285714285714" y1="0" x2="94.64285714285714" y2="178" fill="rgb(0, 0, 0)" stroke="rgb(60, 60, 60)" stroke-width="1px" opacity="0.25"></line><line x1="113.57142857142857" y1="0" x2="113.57142857142857" y2="178" fill="rgb(0, 0, 0)" stroke="rgb(60, 60, 60)" stroke-width="1px" opacity="0.25"></line><line x1="132.5" y1="0" x2="132.5" y2="178" fill="rgb(0, 0, 0)" stroke="rgb(60, 60, 60)" stroke-width="1px" opacity="0.25"></line><line x1="151.42857142857142" y1="0" x2="151.42857142857142" y2="178" fill="rgb(0, 0, 0)" stroke="rgb(60, 60, 60)" stroke-width="1px" opacity="0.25"></line><line x1="170.35714285714286" y1="0" x2="170.35714285714286" y2="178" fill="rgb(0, 0, 0)" stroke="rgb(60, 60, 60)" stroke-width="1px" opacity="0.25"></line><line x1="189.28571428571428" y1="0" x2="189.28571428571428" y2="178" fill="rgb(0, 0, 0)" stroke="rgb(60, 60, 60)" stroke-width="1px" opacity="0.25"></line><line x1="208.21428571428572" y1="0" x2="208.21428571428572" y2="178" fill="rgb(0, 0, 0)" stroke="rgb(60, 60, 60)" stroke-width="1px" opacity="0.25"></line><line x1="227.14285714285714" y1="0" x2="227.14285714285714" y2="178" fill="rgb(0, 0, 0)" stroke="rgb(60, 60, 60)" stroke-width="1px" opacity="0.25"></line><line x1="246.07142857142858" y1="0" x2="246.07142857142858" y2="178" fill="rgb(0, 0, 0)" stroke="rgb(60, 60, 60)" stroke-width="1px" opacity="0.25"></line><line x1="265" y1="0" x2="265" y2="178" fill="rgb(0, 0, 0)" stroke="rgb(60, 60, 60)" stroke-width="1px" opacity="0.25"></line></g><g><line x1="0" y1="178" x2="265" y2="178" fill="rgb(0, 0, 0)" stroke="rgb(60, 60, 60)" stroke-width="1px" opacity="0.25"></line><line x1="0" y1="155.75" x2="265" y2="155.75" fill="rgb(0, 0, 0)" stroke="rgb(60, 60, 60)" stroke-width="1px" opacity="0.25"></line><line x1="0" y1="133.5" x2="265" y2="133.5" fill="rgb(0, 0, 0)" stroke="rgb(60, 60, 60)" stroke-width="1px" opacity="0.25"></line><line x1="0" y1="111.24999999999999" x2="265" y2="111.24999999999999" fill="rgb(0, 0, 0)" stroke="rgb(60, 60, 60)" stroke-width="1px" opacity="0.25"></line><line x1="0" y1="88.99999999999999" x2="265" y2="88.99999999999999" fill="rgb(0, 0, 0)" stroke="rgb(60, 60, 60)" stroke-width="1px" opacity="0.25"></line><line x1="0" y1="66.75" x2="265" y2="66.75" fill="rgb(0, 0, 0)" stroke="rgb(60, 60, 60)" stroke-width="1px" opacity="0.25"></line><line x1="0" y1="44.5" x2="265" y2="44.5" fill="rgb(0, 0, 0)" stroke="rgb(60, 60, 60)" stroke-width="1px" opacity="0.25"></line><line x1="0" y1="22.25" x2="265" y2="22.25" fill="rgb(0, 0, 0)" stroke="rgb(60, 60, 60)" stroke-width="1px" opacity="0.25"></line><line x1="0" y1="0" x2="265" y2="0" fill="rgb(0, 0, 0)" stroke="rgb(60, 60, 60)" stroke-width="1px" opacity="0.25"></line></g></g></g><g><g><line x1="0" y1="155.75" x2="265" y2="155.75" fill="rgb(0, 0, 0)" stroke="rgb(153, 153, 153)" stroke-width="1.5px"></line></g></g><g><g><line x1="18.928571428571427" y1="0" x2="18.928571428571427" y2="178" fill="rgb(0, 0, 0)" stroke="rgb(153, 153, 153)" stroke-width="1.5px"></line></g></g><g><g><g><g><g><path stroke="rgb(255, 112, 67)" stroke-width="2px" d="M20.10214285714286,-1.3047168687327284L20.13242857142857,0.094243648611815L20.723000000000003,7.008240021294739L20.957714285714285,16.569984748125812L21.1205,23.315588694651204L21.147,28.536490953341676L21.328714285714284,40.96369175503452L21.377928571428573,42.0293059634332L21.631571428571426,22.09123601230487L21.661857142857144,19.27162820293653L21.964714285714287,21.763494859707055L21.98742857142857,30.166042540192645L22.09342857142857,32.499447989229424L22.6045,25.66045960032951L22.767285714285716,24.768648419292248L22.964142857142857,4.980098275638878L23.108,9.288418675707092L23.395714285714288,15.224666674653287L23.702357142857142,17.137876875344876L23.910571428571426,14.51680653426176L23.921928571428573,14.835416184274282L23.974928571428574,17.164826636834952L23.99007142857143,12.600845191064698L24.171785714285715,19.90698077999457L24.198285714285714,14.891341584947927L24.364857142857144,9.433530620197654L24.478428571428573,14.581776313243504L24.804000000000002,21.323061700739704L24.925142857142855,18.923700202385554L25.330214285714288,12.441376273155798L25.493,14.899051613201436L25.504357142857142,14.7665984956645L25.90942857142857,3.901644627491195L26.034357142857143,-1.704436775536346L26.185785714285714,4.445628345802821L26.299357142857144,11.75875942068279L26.636285714285712,15.408395876938949L26.86342857142857,24.973601300905553L27.20792857142857,25.692574679696175L27.25335714285714,31.884266095905843L27.3745,36.559081845943034L27.491857142857143,43.92064556110931L27.66221428571429,45.86446121827479L27.97264285714286,42.09613532983119L28.15057142857143,49.11146847130243L28.214928571428572,41.510883092295714L28.2225,46.70682899183017L28.24142857142857,48.00707240179208L28.33607142857143,46.81354498871392L28.339857142857145,42.488677716562954L28.385285714285715,41.83918115586348L28.404214285714286,43.007939790212944L28.514,51.07436214939003L29.093214285714286,47.022038222534384L29.30142857142857,49.60548319180757L30.160785714285716,52.39784042640901L30.42957142857143,56.70576516396694L30.44092857142857,63.13190116112224L30.89521428571429,64.17294536087509L31.156428571428574,66.25807815280098L31.217,64.38537033393335L31.220785714285714,53.97959574540092L31.440357142857145,59.89917612432467L32.10285714285715,59.61314351341621L32.62528571428572,61.82070682962335L32.63285714285714,59.52826777869687L32.82214285714286,62.91700582912938L33.09092857142857,65.99293853514551L33.367285714285714,69.12681622676055L33.39378571428571,69.45160691972423L33.798857142857145,70.01846822589783L33.90485714285714,70.06711094308105L34.20771428571428,69.89361763475452L34.44242857142857,73.4129012861341L34.813428571428574,72.1174639749749L34.94971428571428,77.20564159849695L35.271499999999996,80.68621288909105L35.58571428571429,72.3314772650707L35.934,69.64283337988387L35.998357142857145,70.55833732275516L36.07785714285714,72.27633574412187L36.585142857142856,65.9912615619951L36.60028571428572,68.16800980467465L36.63057142857143,65.39977732252268L37.054571428571435,61.19658974781836L37.107571428571426,50.64170839745068L37.25142857142857,54.87047840887808L37.45585714285714,58.81607742603062L37.74735714285715,58.73694838119052L38.04642857142857,61.94839775731146L38.054,61.28851976501197L38.25842857142857,52.27748111136671L38.364428571428576,59.128522326805836L39.16321428571429,65.57811586515375L39.21621428571428,68.70240574034749L39.44714285714286,72.87581464309797L39.9355,73.19305035612662L40.42764285714286,68.1343035846328L40.59421428571429,56.9210464142959L40.916000000000004,60.988688005004235L41.128,65.59761147647704L41.1545,69.41730617441861L41.29078571428571,71.13265873300789L41.605,73.86926477211553L42.13878571428572,62.22396156903395L42.4,62.96908666030772L42.47192857142857,61.11200660127778L42.73692857142857,68.68253710292578L42.824,72.15243030104901L43.06628571428572,79.1159523407024L43.61142857142857,76.78979411291216L43.81585714285715,79.26922149088507L43.925642857142854,78.72589126564915L44.27771428571428,85.17501970142163L44.28907142857143,69.68590997542859L44.3345,55.198534227730484L44.87585714285714,61.44436929545083L45.29985714285714,59.696667622145426L45.39828571428572,65.05245873888435L45.860142857142854,65.148871800806L46.01535714285715,69.93473804025105L46.60592857142857,68.7027465614582L46.87471428571428,70.0850034740046L47.13214285714285,69.46582471797214L47.169999999999995,69.3563068453133L47.181357142857145,62.92359968955708L47.23814285714286,61.98301382340288L47.36307142857143,69.84131543918122L48.05207142857142,69.33803799505867L48.41171428571428,71.22146451713637L48.449571428571424,73.11346801377424L48.582071428571425,55.04559631732168L49.18021428571429,58.30575689273401L49.46414285714285,54.070854040476405L49.895714285714284,59.15876634910392L50.05092857142857,57.02434744700338L50.588499999999996,50.60132461518542L50.60742857142857,49.945708558610576L50.6415,59.12398169947522L50.99357142857143,64.6351595629908L51.09957142857143,65.03542088050709L51.13742857142857,72.42047632917165L51.4895,72.84400089325881L51.61821428571429,72.24350517987915L51.84535714285715,79.93262435079309L52.53814285714286,83.18249624566137L52.64792857142857,78.17362350004086L52.727428571428575,79.413604189572L52.75392857142857,82.42492819219463L52.9735,86.1847403770941L53.208214285714284,84.52502780267625L53.98428571428571,85.78770967903645L54.196285714285715,75.24096179622182L54.31742857142857,78.14716020433738L54.64678571428571,77.30178700043527L54.77171428571428,74.39744967922672L55.09728571428572,68.2919857724715L55.1465,73.8063752705502L55.48721428571429,78.72722375331917L55.574285714285715,73.18717352008726L55.64242857142857,76.93755606978551L56.19135714285714,79.07233048403059L56.43364285714286,81.3606850813103L57.00528571428571,90.43618150272677L57.10371428571428,94.81912411134012L57.83057142857143,95.26328080753694L57.85707142857143,91.09498935690966L58.296214285714285,92.63398378775348L58.59907142857143,93.99703004254597L58.76185714285714,88.44208312623847L59.083642857142856,88.10748898947028L59.20099999999999,87.45794923455324L59.26157142857143,86.86766818798874L59.477357142857144,88.73692124372809L59.6515,89.74193390474464L59.65528571428571,86.42419747387373L59.738571428571426,87.65098310191038L59.969500000000004,91.12158655070895L60.003571428571426,91.17744665097821L60.200428571428574,94.22275432695508L60.21178571428571,96.8403675134516L60.355642857142854,99.04480025919625L60.44271428571428,97.74173008285892L60.465428571428575,96.65788193654046L60.473,97.66209544149486L60.64714285714286,92.81782688866691L60.95757142857143,88.54603660068554L61.0295,84.17784168147517L61.06357142857143,85.64485100355597L61.321,90.22474884693462L61.32857142857143,89.6116405451735L61.55571428571429,93.83253481818957L62.157642857142854,95.8365021507163L62.35828571428572,96.9188071748321L62.434,91.35980984084335L62.55135714285714,91.02178078461608L62.585428571428565,97.07381207415449L62.71414285714285,94.84579622631243L63.02457142857143,92.40087568191316L63.16464285714286,93.40897792549524L63.444785714285715,95.52451030995759L63.876357142857145,98.88861297011013L64.23978571428572,102.24663382385486L64.25871428571428,100.94385074916741L64.395,98.69682398702922L64.51235714285714,99.56879765690664L64.87957142857142,94.73813624357255L64.978,95.48319252466908L65.05371428571428,94.1859538036002L65.455,91.49196364419254L65.89035714285714,90.08997281762242L66.09100000000001,93.37135664136166L66.89735714285715,94.97698924179532L67.67721428571429,93.65089463674903L67.91192857142858,96.00235338561127L68.20721428571429,96.68308566171935L68.27157142857143,96.04476475972537L68.3737857142857,96.99152220875585L68.45328571428571,99.37330237683696L68.49871428571429,103.04001958232543L68.5555,103.90052198115423L69.04764285714286,101.86872700006484L69.66471428571428,99.16187266442492L69.67985714285714,97.1288325069888L70.05085714285714,97.48229489924127L70.20985714285715,93.20508781894046L70.40292857142857,97.14412923983221L70.49000000000001,96.7495015623971L70.71335714285715,95.03266583248393L71.20928571428573,97.04337403994265L71.48942857142856,99.41211776199688L72.23142857142857,99.93295158125653L72.76521428571428,96.89507747252792L73.01507142857143,88.51943521815215L73.04157142857143,87.6717249992422L73.14,91.15111360076017L73.20814285714286,93.16177938350984L73.4315,95.17040220602094L73.62078571428572,97.79453993032759L74.32114285714286,99.1973812592393L74.34385714285715,101.1700527438131L74.45742857142858,105.02980586305385L74.4915,101.84742420610267L74.52935714285714,102.95321668071061L74.87764285714286,101.44937984214069L74.91171428571428,104.95786191838792L74.99121428571429,104.93248596474565L75.23349999999999,105.16680267157616L75.30542857142858,102.16817850330236L76.05499999999999,106.9599153865133L76.39571428571429,110.29079818220102L76.72128571428571,111.04818013073745L76.94085714285714,112.85093807519286L77.50492857142856,112.98337170315015L77.51249999999999,112.63540403762158L77.63364285714286,110.4001904793383L77.751,111.26323337848285L78.51571428571428,110.61639621018243L78.60657142857143,106.4449039218375L78.64064285714285,100.12129880076726L78.84885714285714,101.6534034727323L79.4735,105.65597410816692L79.85964285714286,107.12808520538465L79.93914285714285,106.61818432737714L80.44264285714286,107.15644348816026L80.71521428571428,105.80955711407385L80.7985,104.92646787085897L80.86285714285715,102.02316793822723L81.037,101.97103341342122L81.41178571428571,107.71332421791166L82.13864285714286,109.00858846099013L82.55885714285714,105.80397347699953L82.56264285714286,107.40439489786037L82.74435714285714,110.11353311306333L82.90335714285715,109.80257414526173L83.53557142857143,109.34295433953767L83.65292857142856,106.70303810486726L83.78164285714286,104.59905790789813L84.1905,107.0932275226207L84.31542857142857,105.62333542799865L84.39114285714287,106.44577581076834L84.482,104.59975134714995L84.48578571428571,109.22257644036424L84.49714285714285,108.75200006765061L84.56907142857143,102.32413555305101L84.81892857142857,104.10029334977416L84.96657142857143,105.0174387013338L85.00442857142858,105.70554293650297L85.34135714285713,107.7632247558439L85.39435714285715,109.84872093383542L85.50414285714285,110.25922880388116L85.53442857142858,109.73731361767811L85.64421428571428,108.57337508043986L86.019,106.51775283217926L86.8935,107.1370966380312L86.9995,107.96834529326617L87.13957142857143,105.29373407192166L87.27207142857142,104.38277891598369L87.31750000000001,106.58746998476398L87.55978571428571,107.29511739575256L88.07085714285715,96.65157174390808L88.27528571428572,92.77290854679485L88.77878571428572,95.75320147419029L88.78257142857143,99.3906023235756L89.31257142857143,101.79746486251334L89.77064285714286,101.82056826142666L89.79714285714286,103.68409406015313L90.27035714285714,104.85094287832095L90.69814285714286,105.24477645166311L90.87607142857142,105.37925852893657L91.03885714285714,103.1863276888796L91.29628571428572,106.66045774294432L91.49692857142857,105.21742106120912L91.88307142857143,105.79402049632778L92.84464285714286,108.20689081564724L92.86735714285714,107.78770064739413L93.28,105.75366918091783L93.333,107.65721021684249L93.6245,105.73779868084179L93.64721428571428,106.84033862777783L93.97278571428572,106.66408989831594L94.05985714285714,109.44638677194916L94.32485714285714,100.90595914267568L94.40814285714286,98.98170026549909L94.53307142857143,101.09770396837881L94.62392857142858,101.24795494124885L94.77535714285715,101.73085787561372L94.8435,97.74414431168118L94.86621428571429,97.4121326992078L94.87757142857143,101.06807545833642L95.16528571428572,99.91329697398629L95.16907142857143,98.50715179961558L95.34700000000001,98.71521110534263L95.46435714285714,97.53741871366148L95.56657142857142,101.54856012401714L95.57792857142857,103.06775204080277L95.59685714285715,104.09547165676857L95.86564285714284,107.4630318067742L95.9072857142857,105.97973657288503L96.09278571428571,108.02334517231061L96.30857142857143,108.74473340415098L96.47892857142857,110.69965201726112L96.63414285714285,110.4388359003769L96.68335714285715,111.32948782450543L96.68714285714286,113.19732043657685L96.77042857142858,114.59179085817713L96.831,116.65490510398557L97.2512142857143,116.55975072208655L97.33071428571428,116.62700263150565L97.59192857142857,116.12462175973744L97.60328571428572,116.29330024394588L97.60707142857143,109.58041641184555L97.78878571428572,107.24276023018821L97.87964285714287,103.00176328380535L98.37935714285715,105.09531130789775L98.73142857142857,104.80228075744581L98.9737142857143,106.92109001764382L99.2197857142857,107.39627339850762L99.30685714285714,106.54121259844568L99.62485714285714,104.73310320909543L99.63621428571429,101.34372653837765L99.65514285714286,104.66103007082764L99.90878571428571,102.1577069993029L99.97692857142857,102.72559778004529L100.26085714285715,103.60997801543043L100.4085,104.87348641213012L101.00664285714286,105.34713701254599L101.16942857142858,105.54841436887486L101.43821428571428,103.65296169290392L101.53664285714287,100.4751806975879L101.61614285714285,100.81362604521289L101.63885714285713,94.1827614611091L102.237,95.48279623924753L103.14178571428572,97.40990600789982L103.191,100.28204419179893L103.31971428571428,97.48611665156L103.46357142857143,97.93351928314922L103.56957142857142,101.19748463874015L104.00114285714285,104.6533535624322L104.13364285714285,97.32032511375289L104.27371428571428,101.40590325886433L104.61821428571429,103.0756406932255L105.11035714285714,103.4078826672614L105.3942857142857,104.56807957833837L105.735,107.30756084707221L105.74635714285715,107.50429613706217L106.318,108.96516085327768L106.52242857142858,110.68862437699683L106.56028571428571,108.43325328424697L106.68900000000001,109.5438447241189L106.72685714285714,109.63381798466139L106.82528571428571,108.87990557216885L106.99564285714285,111.71073480242056L107.08271428571427,112.1231828789388L107.36664285714286,114.05220637858379L107.43857142857142,111.8143103008204L107.6165,114.62718888809239L108.0442857142857,113.12215140230239L108.22978571428573,113.53361194627716L108.53642857142857,112.87285361873577L108.57807142857143,101.71919295083084L108.65378571428572,102.97186141177959L108.93014285714285,105.78938251744434L109.14592857142857,109.00638716998363L109.551,109.5137404229897L110.08478571428572,112.41000928257463L110.23242857142857,112.81222282747487L110.34221428571429,111.04376926753177L110.67157142857143,112.40379911608791L110.8532857142857,113.34661101488996L110.86085714285714,112.79029612218044L111.00471428571429,110.45137346066821L111.0917857142857,110.8408421800822L111.36057142857143,112.07216445619686L111.89435714285715,112.61150659987345L112.13664285714286,113.40697449341413L112.50764285714286,109.52169172642435L112.53792857142858,111.93708703652136L113.19664285714285,111.79153564134666L113.32157142857143,106.9899785994607L113.60171428571428,102.08776186124142L113.74935714285715,102.9985475473935L114.07492857142857,106.71617569317348L114.44592857142857,105.64811878820812L114.49514285714285,106.26638212367642L114.52921428571429,109.7047273496424L114.82828571428571,112.04516992428594L115.05164285714285,110.89516970939174L115.48321428571428,111.17378065126809L115.54,110.04207084602987L115.83907142857143,109.25375221364297L116.16842857142858,109.91506059792738L116.64542857142857,107.53741027014647L116.77792857142856,103.20411866245009L117.05807142857142,105.1734221138078L117.5275,105.3873020862491L117.607,108.42920179261236L117.70164285714286,108.94398254624075L117.94392857142857,103.00012493723229L117.99692857142858,104.78062289307194L118.46257142857144,110.99888690011714L118.50421428571428,112.08602746078849L118.8827857142857,108.79782290035529L119.13642857142857,110.98873167379307L119.89357142857142,110.95972421221026L120.37435714285715,111.02725687081052L120.37814285714286,112.87727676499877L120.48792857142857,111.40722137562807L120.49549999999999,110.85372210287L120.87028571428571,110.97932428338932L121.68042857142856,110.55444104349725L121.70314285714286,110.75511088368023L121.72585714285715,103.23651098154312L121.741,103.89186217278103L121.74478571428571,103.17533363396223L122.18014285714285,104.07497692170236L123.05464285714285,104.71832597708075L123.42564285714286,106.79637370363687L123.4635,108.82470210315194L123.49000000000001,110.50436325351392L123.55814285714285,112.94791975053833L123.9405,114.53545278052884L124.26607142857142,107.66008507886598L124.61057142857143,109.07051896359248L124.61814285714286,105.33671878444576L124.73928571428571,101.40031267604229L124.80742857142857,105.28258351843134L125.87878571428571,104.32013942057476L125.9772142857143,106.32976011819169L126.14378571428571,105.8951522433397L126.58671428571428,110.17413653439813L126.63592857142856,112.99642300747071L126.98421428571429,113.86624634610496L127.09400000000001,111.50847417964106L127.24164285714285,114.08680245071082L128.60071428571428,116.19546816248814L128.69914285714285,116.221733424934L128.78242857142857,114.49150181947137L128.85435714285714,116.59067064961941L128.94899999999998,115.12136826499133L129.00957142857143,112.64675334968769L129.055,112.68592274338417L129.4752142857143,112.77185465329947L129.70992857142858,112.1238628239692L130.49735714285714,113.65695089478164L130.52385714285714,114.09809451502211L130.5579285714286,113.87354191605296L130.74721428571428,112.42868096204532L130.75857142857143,108.83052682415799L130.83807142857142,109.5406287674829L130.95542857142857,109.24611455423913L131.02735714285714,108.5184012295111L131.54221428571427,109.4272030408298L131.84885714285713,108.35159558680364L131.85264285714285,111.29527468981344L131.98135714285715,113.09978857474283L132.5,114.820968360237L132.51892857142857,112.81078409548286L132.61735714285714,108.00004571029955L132.79149999999998,109.85070221506341L132.8482857142857,111.08185984611595L133.1587142857143,112.4586398674829L133.3215,96.49372143554507L133.41992857142858,98.93945912182195L133.57514285714285,101.51730148822426L133.73792857142857,105.41735771062032L134.23764285714284,100.1006914514709L134.2792857142857,102.17858345292734L134.66542857142858,101.54113671021494L134.81685714285715,102.72977572415014L135.17271428571428,101.81401797002775L135.22571428571428,99.81483494252508L135.29385714285715,102.74257479263599L136.48257142857142,107.22079039022385L136.68321428571429,109.26217031707012L137.82271428571428,108.6021606140497L137.9627857142857,109.40124481076565L138.9205714285714,110.88594780416996L139.01899999999998,113.60750931596905L139.3445714285714,115.43320372735383L139.59064285714285,117.63556174150018L139.61714285714285,118.45042838475285L139.64742857142855,119.37493531303102L139.82914285714284,120.81317271597557L139.8632142857143,120.64036434563869L140.08657142857143,120.96680155778708L140.1357857142857,118.26777369161287L140.73014285714288,116.99694467482463L140.85507142857145,119.11074810110532L141.0140714285714,119.26359228335595L141.71821428571428,118.88663614486713L142.07407142857141,119.04983210743725L142.12328571428571,120.66761130732444L142.3845,120.4348136130701L142.55864285714287,122.32510384024138L142.74414285714286,122.32900432607173L142.95614285714285,123.19001918199301L143.45585714285713,123.34760333683887L143.48614285714285,124.30880861204574L143.86471428571429,125.908019198459L143.91014285714286,127.20131327957843L143.98585714285713,125.17775635234337L144.43257142857144,125.63508563148756L144.53478571428573,126.2951766898064L144.54235714285713,125.72621208564429L144.88307142857144,123.47463269486427L145.14807142857143,123.21645200093549L145.2502857142857,119.84145020339376L145.27678571428572,120.87721586324753L145.38278571428572,119.06133977552281L145.89764285714287,120.71132407964978L146.24592857142858,122.22381062283759L146.61314285714286,116.01624076632399L146.64721428571428,110.22212443981044L146.69264285714286,113.78010028402497L146.76457142857143,110.84764962311415L146.82892857142858,113.733033123216L147.03335714285717,112.47609441346293L147.07878571428571,112.76765021628806L147.17342857142856,112.25062849925136L147.31349999999998,113.66139973653179L147.7072142857143,112.67441517948187L147.77914285714286,111.71897139205248L147.80564285714286,113.7013817254991L147.97978571428573,113.99690987250976L148.17664285714287,110.39994088592924L148.18800000000002,110.67849171531493L148.32049999999998,111.80332377758496L149.0095,113.940881974393L149.01328571428573,115.05390008055448L149.09278571428572,117.50594267121116L149.30100000000002,119.27426770416776L149.63035714285712,121.26283536933269L149.63414285714285,118.16571389586083L149.77800000000002,118.0725984050871L149.91049999999998,118.5572370009629L149.94457142857144,110.53684951197435L150.60707142857143,110.76546523355353L150.96671428571426,110.71194516407144L151.72764285714285,112.69796582045869L151.86392857142857,113.64511206785664L152.09864285714286,112.41659625275898L152.39014285714285,113.37425471521101L152.68921428571429,115.68602338149772L152.76871428571428,116.79590662932338L152.799,119.02065055222361L152.84821428571428,121.71620785530527L152.85578571428573,121.44740259837224L153.2495,116.60810088366068L153.25707142857144,116.86610676801028L153.5864285714286,115.65226775903714L153.59778571428572,116.21037135947056L154.34735714285713,112.30847829759175L154.37385714285713,112.69278459726858L154.62371428571427,114.94098781148234L154.64264285714287,114.54903195561948L155.03635714285716,116.41266312863947L155.10071428571428,116.32236155800229L155.35435714285714,116.25412062462146L155.4300714285714,116.91257441937871L155.83514285714284,114.41579543159557L156.0887857142857,115.69501889978551L156.14557142857143,117.45676483746936L156.20614285714288,119.54150968650092L156.25535714285715,116.52165103586809L156.38785714285714,116.87995613160885L156.48628571428574,120.52989556769171L157.36835714285715,122.22117918260966L157.59550000000002,124.59714101725469L157.70907142857143,125.29717159988347L157.781,125.04723922904627L158.11792857142856,125.50897308020788L158.26557142857143,123.35994053898116L158.28071428571428,122.17088077050131L158.3147857142857,123.10962507814133L158.43214285714285,124.02344504591612L158.64792857142857,121.15559919056774L159.20064285714287,116.38383941749164L159.6397857142857,118.14224844381656L159.76471428571426,119.17913945008698L160.17735714285715,120.07389006961563L160.7225,121.7107074699638L160.85121428571426,124.40128818937724L161.89228571428572,126.45284016747156L162.05507142857144,126.56872814903632L162.3162857142857,126.40530334493276L163.51257142857145,125.89325699048146L163.72078571428574,126.69601428354584L163.77757142857143,126.54511411512132L164.16750000000002,124.27944813078918L164.44764285714285,111.00837054047695L164.50821428571427,113.7387630138554L164.54985714285715,114.94295551454718L164.67857142857144,113.41405490912457L164.98142857142858,113.79655590552996L165.21235714285714,111.37259247629089L165.21614285714284,114.74860962022738L165.4357142857143,115.76110334718813L165.51142857142855,115.45076289718439L165.67421428571427,114.94188792395383L165.96571428571428,115.65271505166072L166.49949999999998,115.29291869918208L166.58657142857143,100.24793526504338L166.59035714285716,103.18336425278667L167.10521428571428,107.73010129417463L167.46864285714287,109.3061096223479L167.692,110.49941656305458L167.73364285714285,112.96342963142446L168.80878571428573,116.21868650651805L169.22899999999998,115.44859153886972L169.335,117.4511013058735L169.52807142857142,117.14782161282574L169.89528571428573,119.73056844348454L170.01264285714285,118.31504586534027L170.03157142857143,119.66066482930505L170.09592857142857,122.5537696466338L170.43285714285713,123.79086212614291L171.20514285714287,125.0264320913913L171.47771428571428,125.70578111278999L171.8752142857143,122.073228849249L172.20457142857143,122.17558056502257L172.25,121.9945740539361L172.37114285714284,122.97648307030434L172.47714285714287,123.80279314851948L172.8065,124.19118873598849L172.84435714285715,122.60952207285473L172.86707142857145,122.75892392050261L172.88221428571427,124.52210310277253L172.99957142857141,125.13742998250649L173.00714285714284,120.987566408677L173.06014285714286,117.76738578647296L173.08285714285714,121.61154314550708L173.35921428571427,122.17089736900579L174.2942857142857,125.22850658510075L174.62742857142857,123.99904268648967L174.72585714285714,121.7647138783624L175.06657142857142,123.46047983238365L175.1687857142857,114.78518774565671L175.4337857142857,116.38558739319355L175.6912142857143,116.81822095002958L176.00164285714285,113.8244095375191L176.18335714285715,114.96657355333215L176.24392857142857,113.63837157216524L176.44835714285716,113.97283477545858L177.06542857142855,116.70619983173984L177.09571428571428,118.34891825467818L177.338,116.88669807646987L177.4402142857143,114.36400030709632L177.95128571428572,116.13805750157073L177.97778571428572,117.84819019875296L178.04592857142856,116.33053278207103L178.43585714285715,119.72065451649817L178.5267142857143,116.96903782886483L178.56457142857144,117.95704574102507L178.61757142857144,117.29234581245679L178.8522857142857,120.31660919003707L179.21192857142856,119.06180567839972L179.63214285714284,112.36305525255925L179.7002857142857,110.85905886782896L179.73814285714286,112.34509527546427L179.81764285714286,113.47597000919846L180.2302857142857,109.9181551092908L180.4952857142857,110.31662722175338L180.8662857142857,111.81335207482303L181.45307142857143,115.38311714766265L181.578,114.016081946558L181.64235714285715,110.71464593583875L181.79000000000002,112.47198395928086L182.76671428571427,109.13723715229133L183.5087142857143,111.51622977755851L183.6752857142857,113.33064688165283L183.80778571428573,116.171735498467L183.92135714285715,116.23516349643322L184.0122142857143,117.83022208959927L184.13335714285714,117.56893364015261L184.40592857142857,117.14000628788202L184.50814285714287,118.76622847005486L184.5232857142857,119.4066507945162L184.58007142857142,119.35645209244174L184.67849999999999,121.43513759894515L184.7617857142857,120.4581029784401L185.40914285714285,119.62269445070325L185.42428571428573,118.35333635241824L185.4735,121.60921361899028L185.77635714285717,113.42609193869693L185.79149999999998,113.3099454773175L185.92778571428573,114.6342186701712L186.25714285714287,117.34159879665646L186.28364285714287,120.69200840475814L186.45021428571428,120.98172360131615L186.65085714285715,123.22198918623424L186.7985,122.22840257470655L187.02942857142858,123.12387581590262L187.39664285714284,118.25279643878126L187.5405,118.6976851805093L187.71464285714288,119.62152638276805L187.71842857142857,117.1885144369211L187.94178571428571,118.54152726400393L188.2597857142857,120.59722319061052L188.35064285714287,120.21440141301476L188.53614285714286,118.98297559098587L188.58914285714286,121.36521974697251L189.1494285714286,119.30501176988291L189.26299999999998,114.64654413900801L189.48635714285712,118.0090987920379L189.6794285714286,120.56034144473892L190.45928571428573,121.91704266167291L190.49335714285715,122.80354129989665L190.69400000000002,122.97908437621508L191.20507142857142,123.18988497872195L191.34135714285713,124.45146800516167L191.7312857142857,126.66572128486303L191.7767142857143,127.09249710689946L192.2045,126.72574166348124L192.46192857142856,127.09113302280406L192.59442857142858,127.75513121705512L193.16228571428573,129.66572693725692L193.19635714285712,130.68458409441715L193.29857142857142,129.5743239105697L193.41214285714287,130.0879700604855L193.54085714285716,130.43513971649884L193.71121428571428,131.42679082204768L193.7415,132.61322759309843L193.8475,132.44485187276368L194.27528571428573,128.3334205004908L194.33585714285715,129.91989535226725L194.57057142857144,130.7794237231629L194.63492857142856,129.67286955475072L194.9605,129.6332267903594L194.99457142857142,128.37586211981818L195.7062857142857,129.2120400957103L195.90314285714285,130.3708332054125L196.99342857142858,130.69693401860548L197.07292857142858,130.12250162503773L197.60671428571428,129.69267197539384L197.7695,130.42251635989294L197.97014285714286,131.84619431638203L197.99664285714286,131.72209514587496L198.07235714285716,129.6622346545004L198.17078571428573,128.04502168892964L198.51149999999998,122.41327769822924L198.70835714285715,124.72952078196626L198.93550000000002,122.53311892697519L198.96200000000002,123.67696346572977L199.0717857142857,120.64836046978479L199.27242857142858,122.46028583639578L199.28757142857143,124.22836102657202L199.33678571428572,125.09296112614805L199.38978571428572,123.80457376462488L199.48064285714287,123.38874535002857L199.5260714285714,122.64292635948904L199.64721428571428,118.08208125756988L199.67371428571428,117.23310717372834L199.72671428571428,119.14296768519463L200.15449999999998,122.20852762390203L200.19614285714286,122.81692237786137L200.21885714285716,121.2104900528999L200.37407142857145,116.46953162289762L200.38921428571427,118.25154503503616L200.4422142857143,116.69927361390727L200.5292857142857,117.71509535184865L200.93057142857145,118.78122177563766L201.09335714285714,120.4024833822683L201.32807142857143,109.73096213260632L201.38864285714286,114.33564708487299L201.5022142857143,117.11366103719335L202.23664285714287,119.13358240862163L202.407,118.71405010814125L202.5887142857143,121.83855507621425L202.619,121.82909372231512L203.02785714285713,124.02714379539935L203.10357142857143,124.83386036156094L203.838,126.93997837991127L204.36042857142857,123.80126363604721L205.45828571428572,125.45936021039368L205.6627142857143,124.46351819175766L205.75735714285713,123.35712841134583L206.23435714285714,121.22596068511997L206.541,120.67996750539304L206.7719285714286,122.67939389876861L206.84385714285713,124.21138375675373L207.06721428571427,126.2881512097444L207.50635714285715,128.8070606809771L207.80542857142856,129.89758261796754L208.23700000000002,130.88769630609778L208.4262857142857,132.61329064221835L208.56635714285716,132.49472891656112L208.77835714285715,132.92059817806344L208.83892857142857,132.04607892517464L208.9525,132.07483394373844L209.22885714285712,132.43788164200888L209.66042857142855,132.63082958139697L209.99357142857144,125.54701801406976L210.251,126.944777864461L210.5955,124.91996109962362L210.60307142857144,126.8715999381155L210.6257857142857,126.80647477267465L211.31478571428573,126.93539154379836L211.9205,128.26773701435735L212.05678571428572,128.5900428357183L212.49214285714285,129.21002400870756L212.5072857142857,127.80533986820825L212.85935714285714,128.82326798274013L213.06757142857143,128.84884683448632L213.2947142857143,129.2629937009982L213.65435714285715,129.72511553542375L214.42664285714287,130.50167676818688L214.83928571428572,132.4401274303304L215.00585714285714,132.46723026025617L215.02100000000002,133.43024852244804L215.0512857142857,133.92125646904123L215.61157142857144,134.57402084873658L215.7895,136.35333240995908L216.03935714285714,137.73747401727488L216.04692857142857,136.50856484231824L216.6829285714286,136.45576832619372L216.89114285714285,137.01967211898628L216.99714285714285,137.9701905409412L217.12207142857142,138.6754012008651L217.2129285714286,135.61516940461857L217.2507857142857,134.26696112853742L217.7164285714286,134.25065870516707L217.78457142857144,135.3665448265583L218.0685,135.19489821464157L218.21235714285714,135.93919903963115L218.36757142857144,136.2645123832666L218.74992857142857,135.17524404243005L218.82185714285714,134.72317657367586L219.21557142857142,133.47259346587123L219.3405,131.9587309361811L219.58278571428573,131.14982778881046L219.62064285714285,131.44947571636695L219.9197142857143,130.6765343080165L219.9765,131.8729418162199L220.1165714285714,132.78352620021124L221.08950000000002,131.51541464088473L221.1197857142857,131.592149159536L221.34314285714285,132.07593284939801L221.39614285714288,131.40538352574782L222.02457142857145,132.7078408304868L222.24414285714286,132.1250696807432L222.27064285714286,134.1498942751611L222.2857857142857,135.5893020535517L222.30092857142859,135.23413662435087L222.69085714285714,134.42211220771824L222.83471428571428,135.41601300756128L222.95964285714285,133.43968287915538L223.0012857142857,133.30371989224767L223.44421428571428,130.73303031843759L223.62971428571427,129.58925068790109L223.6865,130.1148736005434L223.76600000000002,128.77183756952073L223.82278571428571,130.29145444839634L224.04992857142855,129.02432536704825L224.26950000000002,130.88653573451734L224.75028571428572,130.17704292212608L225.1212857142857,130.5890465729219L225.58692857142856,130.73993521150874L225.72321428571428,130.94928954919638L225.8065,131.4765697761282L225.97307142857142,132.04168921892327L226.02228571428572,132.2286453106401L226.07907142857144,131.80987485885848L226.4122142857143,130.6399500070276L226.6242142857143,132.70016086179507L226.90435714285715,132.94572723114408L227.07471428571426,133.63612319230077L227.8735,133.97584649158026L228.2747857142857,135.97502184887804L228.28614285714283,134.960762941743L228.3845714285714,134.27529053657867L228.50192857142858,134.93577333922408L229.17957142857142,133.68970398982592L229.1985,133.86794672962364L229.22878571428572,133.20092196623946L229.84207142857144,134.2139294304002L230.04271428571428,133.77652919055797L230.1525,131.32322750074508L230.43642857142856,131.9692586975419L230.7885,130.73794400383872L230.79985714285715,130.37748459684036L231.27307142857143,126.26090751224663L232.07942857142856,128.1253861275645L232.20435714285713,130.26718942732637L232.36335714285715,132.25696846859037L232.4845,132.2549766326038L232.56400000000002,131.76034314996744L232.80249999999998,132.43405628147823L232.84792857142855,133.43392000457192L232.90092857142855,133.53604411825097L232.92742857142858,133.1741293443513L232.935,131.9650958929492L233.2302857142857,133.05902504021088L233.90792857142856,133.39313408369244L234.03285714285713,135.068800742686L234.16914285714284,136.09622772764138L234.29028571428572,135.85117137357386L234.71050000000002,138.27882846599786L234.85057142857144,137.65696434352984L235.6115,137.55498925406178L235.70235714285712,137.30842566022088L235.84621428571427,136.8717412114843L235.8689285714286,136.7958097064022L235.9522142857143,135.56865201311248L236.221,135.68660120893588L236.48978571428572,135.94989854672673L236.54657142857144,136.3660658102256L236.67528571428574,137.4412599282796L236.89107142857142,136.67309001134583L237.3112857142857,135.99592571650987L237.45514285714287,134.67984623971333L237.59142857142857,133.86537752422885L238.00785714285715,134.70951670943364L238.84071428571428,134.8846162860736L239.61678571428573,133.13252928996255L239.80985714285714,131.8134971102534L240.16571428571427,131.9070578863196L240.60485714285716,133.75212315807124L240.81307142857142,135.08579192459064L240.92664285714287,135.9925612619183L240.94178571428571,134.99838372003643L241.1007857142857,134.80433861676804L241.22192857142858,134.81435508659234L241.32414285714285,135.8784317122268L241.38850000000002,136.06390658563976L241.44528571428572,135.37267893753122L241.48314285714287,135.2142757475606L241.80114285714285,133.5757969946169L242.33871428571427,135.2528313482597L242.39928571428572,136.3347952847083L242.41064285714285,137.67025416815432L242.422,135.64085300783123L242.50528571428572,128.07938093507676L242.94064285714285,129.84614631527074L243.28514285714286,130.79649777075858L243.46307142857142,131.20132287904767L243.64478571428572,128.8448110215882L243.92114285714285,128.94250325367065L244.46628571428573,130.49254563113877L244.648,130.4328035144727L244.70857142857142,131.46171324104236L244.82214285714284,131.08817049181312L245.00764285714286,131.97922241439733L245.05685714285713,128.0244329386033L245.0757857142857,130.1623048919347L245.1287857142857,129.97692951859855L245.38242857142856,130.03860901256155L245.549,128.76532980722845L245.6512142857143,128.72863140886622L246.0827857142857,129.06925113959068" style="fill: none;" fill="none"></path></g></g></g></g><g opacity="0.2"><g><g><g><path stroke="rgb(255, 112, 67)" stroke-width="2px" d="M19.08757142857143,-102.61764693260197L19.098928571428573,16.906588792800903L19.197357142857143,-54.65834099054341L19.28442857142857,-72.70650970935826L19.560785714285718,1.9996918439865112L19.7955,4.851838022470474L19.81442857142857,73.4979799091816L19.89392857142857,-22.358817636966705L19.962071428571427,-60.65125498175625L20.094571428571427,31.303998202085495L20.10214285714286,50.3809956908226L20.13242857142857,7.7557061314582825L20.723000000000003,46.32400040328503L20.957714285714285,72.70374324917793L21.1205,64.00804010033607L21.147,60.77285987138748L21.328714285714284,119.24505931138992L21.377928571428573,48.858500987291336L21.631571428571426,-107.60258007049565L21.661857142857144,0.6925460398197174L21.964714285714287,38.36768877506256L21.98742857142857,86.70196545124054L22.09342857142857,48.3329067081213L22.6045,-21.088951408863068L22.767285714285716,18.633199453353882L22.964142857142857,-131.92562687397006L23.108,39.24151089787483L23.395714285714288,56.67269003391266L23.702357142857142,30.546351492404938L23.910571428571426,-3.912840962409973L23.921928571428573,17.08209854364395L23.974928571428574,33.63197576999664L23.99007142857143,-19.733995974063873L24.171785714285715,71.76917438209057L24.198285714285714,-20.77202859520912L24.364857142857144,-29.43132746219635L24.478428571428573,51.289816319942474L24.804000000000002,69.44450569152832L24.925142857142855,1.7791972756385803L25.330214285714288,-33.91825798153877L25.493,32.48910677433014L25.504357142857142,13.817967295646667L25.90942857142857,-73.95932096242909L26.034357142857143,-41.89985367655754L26.185785714285714,48.561464592814445L26.299357142857144,64.23849445581436L26.636285714285712,41.60772290825844L26.86342857142857,93.65963932871819L27.20792857142857,30.85678917169571L27.25335714285714,76.36825528740883L27.3745,70.1521213799715L27.491857142857143,96.83021356165409L27.66221428571429,59.837435603141785L27.97264285714286,15.003990948200226L28.15057142857143,99.55400314927101L28.214928571428572,-13.145736038684845L28.2225,84.07498870790005L28.24142857142857,57.358933955430984L28.33607142857143,38.228596568107605L28.339857142857145,11.378243833780289L28.385285714285715,37.1668381690979L28.404214285714286,51.416163712739944L28.514,109.10793890058994L29.093214285714286,17.866627395153046L29.30142857142857,68.19331903755665L30.160785714285716,72.48938900232315L30.42957142857143,87.70291742682457L30.44092857142857,109.37143892794847L30.89521428571429,71.6639733016491L31.156428571428574,81.26230370998383L31.217,50.90950761735439L31.220785714285714,-20.90057748556137L31.440357142857145,102.4971069842577L32.10285714285715,57.55480092763901L32.62528571428572,77.70687852799892L32.63285714285714,43.03117674589157L32.82214285714286,87.30357107520103L33.09092857142857,88.12858228385448L33.367285714285714,91.6795779466629L33.39378571428571,71.78895470499992L33.798857142857145,74.09788799285889L33.90485714285714,70.41716974973679L34.20771428571428,68.64506368339062L34.44242857142857,98.73968777060509L34.813428571428574,62.79472981393337L34.94971428571428,113.82326152920723L35.271499999999996,105.73456828296185L35.58571428571429,12.205502957105637L35.934,50.29361878335476L35.998357142857145,77.1469024270773L36.07785714285714,84.64019005000591L36.585142857142856,20.75966042280197L36.60028571428572,83.83336108922958L36.63057142857143,45.47769036889076L37.054571428571435,30.94756779074669L37.107571428571426,-25.31850564479828L37.25142857142857,85.30364316701889L37.45585714285714,87.2113601565361L37.74735714285715,58.16748034954071L38.04642857142857,85.06024506688118L38.054,56.53957237303257L38.25842857142857,-12.572325497865677L38.364428571428576,108.43347166478634L39.16321428571429,111.99397289007902L39.21621428571428,91.18701939284801L39.44714285714286,102.91064039617777L39.9355,75.47610503435135L40.42764285714286,31.727945625782013L40.59421428571429,-23.777576714754105L40.916000000000004,90.26235063374043L41.128,98.76672905683517L41.1545,96.90656971931458L41.29078571428571,83.47756725549698L41.605,93.56384766101837L42.13878571428572,-21.58400985598564L42.4,68.33154258131981L42.47192857142857,47.747122690081596L42.73692857142857,123.16552196443081L42.824,97.12427926063538L43.06628571428572,129.23047034814954L43.61142857142857,60.04908439517021L43.81585714285715,97.11296674609184L43.925642857142854,74.81569555401802L44.27771428571428,131.58759455010295L44.28907142857143,-41.78488510847092L44.3345,-49.06306254863743L44.87585714285714,106.39390022307634L45.29985714285714,47.118946582078934L45.39828571428572,103.59659255295992L45.860142857142854,65.8427297025919L46.01535714285715,104.37728204578161L46.60592857142857,59.83644758164883L46.87471428571428,80.0327209085226L47.13214285714285,65.00976790487766L47.169999999999995,68.56813725829124L47.181357142857145,16.629200100898743L47.23814285714286,55.213879615068436L47.36307142857143,126.39532112330198L48.05207142857142,65.71609054505825L48.41171428571428,84.7759601175785L48.449571428571424,86.72968973219395L48.582071428571425,-74.98383957147603L49.18021428571429,81.7682237625122L49.46414285714285,23.593438684940338L49.895714285714284,95.77505302429199L50.05092857142857,41.66352954506874L50.588499999999996,4.376619577407837L50.60742857142857,45.227422535419464L50.6415,125.1774553284049L50.99357142857143,104.29757059365511L51.09957142857143,67.91599002480507L51.13742857142857,125.56866210699081L51.4895,75.89198914170265L51.61821428571429,67.92190489172935L51.84535714285715,135.26907204464078L52.53814285714286,106.57091853022575L52.64792857142857,42.12616232037544L52.727428571428575,88.33739963173866L52.75392857142857,104.09658779203892L52.9735,113.24306082725525L53.208214285714284,72.58053895831108L53.98428571428571,94.87487924098969L54.196285714285715,-0.6610434055328369L54.31742857142857,99.06226021051407L54.64678571428571,71.21787165105343L54.77171428571428,53.49574339389801L55.09728571428572,24.352663576602936L55.1465,113.49189967662096L55.48721428571429,114.14119888842106L55.574285714285715,33.31697595119476L55.64242857142857,103.92801408469677L56.19135714285714,94.43570700287819L56.43364285714286,97.82933537662029L57.00528571428571,155.75L57.10371428571428,126.36194058507681L57.83057142857143,98.45975276827812L57.85707142857143,61.09695744514465L58.296214285714285,103.70969780534506L58.59907142857143,103.80649407207966L58.76185714285714,48.46467827260494L59.083642857142856,85.69950823485851L59.20099999999999,82.78339263796806L59.26157142857143,82.61958000063896L59.477357142857144,102.18941454589367L59.6515,96.97472994029522L59.65528571428571,62.5473729968071L59.738571428571426,96.47981737554073L59.969500000000004,116.09855235368013L60.003571428571426,91.57945622503757L60.200428571428574,116.138984978199L60.21178571428571,115.6786001175642L60.355642857142854,114.90948837995529L60.44271428571428,88.36389717459679L60.465428571428575,88.85772888362408L60.473,104.88914017379284L60.64714285714286,57.95497615635395L60.95757142857143,57.80315239727497L61.0295,52.741160213947296L61.06357142857143,96.20250825583935L61.321,123.18499726057053L61.32857142857143,85.19927096366882L61.55571428571429,124.20913458615541L62.157642857142854,110.25849656015635L62.35828571428572,104.70785480737686L62.434,51.35325525701046L62.55135714285714,88.58907987177372L62.585428571428565,140.62859463319182L62.71414285714285,78.81138709187508L63.02457142857143,74.80546389520168L63.16464285714286,100.66400882601738L63.444785714285715,110.74940730631351L63.876357142857145,123.09912227839231L64.23978571428572,126.41337406635284L64.25871428571428,91.56808403134346L64.395,82.52559860050678L64.51235714285714,105.84414914995432L64.87957142857142,59.97321230173111L64.978,100.845154941082L65.05371428571428,84.85008825361729L65.455,72.10406725108624L65.89035714285714,80.00023555755615L66.09100000000001,116.98656153678894L66.89735714285715,106.53227959573269L67.67721428571429,84.10736133158207L67.91192857142858,112.92514667659998L68.20721428571429,101.58212614059448L68.27157142857143,91.45094712078571L68.3737857142857,103.8050717189908L68.45328571428571,116.51431047171354L68.49871428571429,129.42836143821478L68.5555,110.0933179333806L69.04764285714286,87.2464647591114L69.66471428571428,79.68139638006687L69.67985714285714,82.49760907888412L70.05085714285714,100.02606523036957L70.20985714285715,62.423220470547676L70.40292857142857,125.49231258034706L70.49000000000001,93.90947614610195L70.71335714285715,82.67707754671574L71.20928571428573,111.5138806477189L71.48942857142856,116.45930618792772L72.23142857142857,103.68124742805958L72.76521428571428,75.03234413266182L73.01507142857143,28.24227210879326L73.04157142857143,81.57099080085754L73.14,116.19130370020866L73.20814285714286,107.63198067247868L73.4315,109.6259008795023L73.62078571428572,116.67972781509161L74.32114285714286,109.2932393476367L74.34385714285715,115.36681965738535L74.45742857142858,132.807373393327L74.4915,78.94471031427383L74.52935714285714,110.91129694879055L74.87764285714286,90.6266852170229L74.91171428571428,130.20742964744568L74.99121428571429,104.74986229836941L75.23349999999999,106.85311470925808L75.30542857142858,80.587916046381L76.05499999999999,141.44471033290029L76.39571428571429,134.26223338395357L76.72128571428571,116.49884694069624L76.94085714285714,125.82488459348679L77.50492857142856,113.9364596158266L77.51249999999999,110.13117772340775L77.63364285714286,94.31398142874241L77.751,117.47431260347366L78.51571428571428,105.96128937602043L78.60657142857143,76.42383646965027L78.64064285714285,54.612075060606L78.84885714285714,112.67953381687403L79.4735,134.461359500885L79.85964285714286,117.72245851159096L79.93914285714285,102.94856981188059L80.44264285714286,111.03014466166496L80.71521428571428,96.11639124155045L80.7985,98.57112069427967L80.86285714285715,81.12892743945122L81.037,101.59583576768637L81.41178571428571,149.0389908272773L82.13864285714286,118.33024424314499L82.55885714285714,82.74125252664089L82.56264285714286,118.9221818447113L82.74435714285714,129.61044584214687L82.90335714285715,107.56468911468983L83.53557142857143,106.03519868850708L83.65292857142856,87.70429667830467L83.78164285714286,89.45729878544807L84.1905,125.04307114332914L84.31542857142857,95.0449316650629L84.39114285714287,112.36465004086494L84.482,91.31442774832249L84.48578571428571,142.49176030792296L84.49714285714285,105.36539305746555L84.56907142857143,56.06458601355553L84.81892857142857,116.88280601799488L84.96657142857143,111.61787819862366L85.00442857142858,110.65763735026121L85.34135714285713,122.57178735733032L85.39435714285715,124.85745572298765L85.50414285714285,113.21353954076767L85.53442857142858,105.98123547434807L85.64421428571428,100.19683380424976L86.019,91.72401238977909L86.8935,111.59434140473604L86.9995,113.95061020553112L87.13957142857143,86.04530249536037L87.27207142857142,97.82688853144646L87.31750000000001,122.45401718467474L87.55978571428571,112.38785859942436L88.07085714285715,20.052939921617508L88.27528571428572,64.85925045609474L88.77878571428572,117.20153909921646L88.78257142857143,125.56796253472567L89.31257142857143,119.11898379027843L89.77064285714286,101.98683698475361L89.79714285714286,117.09536989033222L90.27035714285714,113.2484286352992L90.69814285714286,108.07908692210913L90.87607142857142,106.347088560462L91.03885714285714,87.40441557765007L91.29628571428572,131.66280354186893L91.49692857142857,94.83228822052479L91.88307142857143,109.94364593923092L92.84464285714286,125.57164606451988L92.86735714285714,104.77090582996607L93.28,91.11531157791615L93.333,121.35646455734968L93.6245,91.92432877421379L93.64721428571428,114.7750113606453L93.97278571428572,105.39567691087723L94.05985714285714,129.4698019772768L94.32485714285714,39.4428816139698L94.40814285714286,85.13334539532661L94.53307142857143,116.32599291205406L94.62392857142858,102.32926931977272L94.77535714285715,105.20617571473122L94.8435,69.05287784337997L94.86621428571429,95.02273765206337L94.87757142857143,127.37887662649155L95.16528571428572,91.60267804563046L95.16907142857143,88.38751685619354L95.34700000000001,100.21255594491959L95.46435714285714,89.06117510795593L95.56657142857142,130.41562699526548L95.57792857142857,114.00095288455486L95.59685714285715,111.491683319211L95.86564285714284,131.69842370599508L95.9072857142857,95.30487415194511L96.09278571428571,122.73062673211098L96.30857142857143,113.936363466084L96.47892857142857,124.76865646243095L96.63414285714285,108.56181499361992L96.68335714285715,117.73926150798798L96.68714285714286,126.63959120213985L96.77042857142858,124.62740585952997L96.831,131.5025633648038L97.2512142857143,115.8749511539936L97.33071428571428,117.11099588125944L97.59192857142857,112.50912663340569L97.60328571428572,117.50723228603601L97.60707142857143,61.26966227591038L97.78878571428572,90.41930016875267L97.87964285714287,72.4804901778698L98.37935714285715,120.1619929894805L98.73142857142857,102.69342155009508L98.9737142857143,122.16956977546215L99.2197857142857,110.81603576242924L99.30685714285714,100.38757831603289L99.62485714285714,91.72064383327961L99.63621428571429,76.95132721960545L99.65514285714286,128.53473909944296L99.90878571428571,84.14198850095272L99.97692857142857,106.81254946440458L100.26085714285715,109.97461610287428L100.4085,113.96660421788692L101.00664285714286,108.75586838275194L101.16942857142858,106.99695140868425L101.43821428571428,90.01191702485085L101.53664285714287,77.60557648539543L101.61614285714285,103.24932289123535L101.63885714285713,46.46227699518204L102.237,104.83878423273563L103.14178571428572,111.278777949512L103.191,120.95202226936817L103.31971428571428,77.36460533738136L103.46357142857143,101.1533513367176L103.56957142857142,124.68733367323875L104.00114285714285,129.5242790952325L104.13364285714285,44.54656299948692L104.27371428571428,130.80867056548595L104.61821428571429,115.0922756716609L105.11035714285714,105.79893556237221L105.3942857142857,112.91769341379404L105.735,127.02284407615662L105.74635714285715,108.92014519125223L106.318,119.47859708964825L106.52242857142858,123.09191104769707L106.56028571428571,92.20197607576847L106.68900000000001,117.53646180778742L106.72685714285714,110.28133046627045L106.82528571428571,103.45420804619789L106.99564285714285,132.08342385292053L107.08271428571427,115.09145674109459L107.36664285714286,127.93485090881586L107.43857142857142,95.70879590511322L107.6165,134.87069216370583L108.0442857142857,102.29081605374813L108.22978571428573,116.49477881193161L108.53642857142857,108.11756008118391L108.57807142857143,21.449405521154404L108.65378571428572,111.98696722090244L108.93014285714285,126.06629670411348L109.14592857142857,132.15827311202884L109.551,113.16502039134502L110.08478571428572,133.25364910811186L110.23242857142857,115.70684161782265L110.34221428571429,98.3167018443346L110.67157142857143,122.19155491143465L110.8532857142857,120.13176549971104L110.86085714285714,108.78665287792683L111.00471428571429,93.61879889667034L111.0917857142857,113.64374001324177L111.36057142857143,120.93364772200584L111.89435714285715,116.49300169944763L112.13664285714286,119.13173523545265L112.50764285714286,81.56039443612099L112.53792857142858,129.32001394033432L113.19664285714285,110.74404281377792L113.32157142857143,72.43451070785522L113.60171428571428,66.80787418782711L113.74935714285715,109.55321830511093L114.07492857142857,133.47090939804912L114.44592857142857,97.96161089837551L114.49514285714285,110.71585104614496L114.52921428571429,134.44953971356153L114.82828571428571,128.88868287950754L115.05164285714285,102.61893865466118L115.48321428571428,113.1788659542799L115.54,101.89747077226639L115.83907142857143,103.58044271171093L116.16842857142858,114.67431274056435L116.64542857142857,90.42612348496914L116.77792857142856,72.01862660050392L117.05807142857142,119.34595023095608L117.5275,106.92653664201498L117.607,130.32090623676777L117.70164285714286,112.64871616661549L117.94392857142857,60.223838210105896L117.99692857142858,117.59437047690153L118.46257142857144,155.75L118.50421428571428,119.90987510234118L118.8827857142857,85.13353106379509L119.13642857142857,126.7560915350914L119.89357142857142,110.75096559524536L120.37435714285715,111.51327059417963L120.37814285714286,126.19135436415672L120.48792857142857,100.82764242589474L120.49549999999999,106.8703420907259L120.87028571428571,111.8832481727004L121.68042857142856,107.49667477607727L121.70314285714286,112.19927579909563L121.72585714285715,49.12724283337593L121.741,108.60824205726385L121.74478571428571,98.01867742836475L122.18014285714285,110.5494589433074L123.05464285714285,109.34832983464003L123.42564285714286,121.75150406360626L123.4635,123.42201632261276L123.49000000000001,122.59241645038128L123.55814285714285,130.53351486846805L123.9405,125.96048557013273L124.26607142857142,58.17997981607914L124.61057142857143,119.22101856023073L124.61814285714286,78.46559946238995L124.73928571428571,73.07109494507313L124.80742857142857,133.2222048267722L125.87878571428571,97.39369747042656L125.9772142857143,120.79244022071362L126.14378571428571,102.76740048825741L126.58671428571428,140.96879397332668L126.63592857142856,133.30763221532106L126.98421428571429,120.12612250447273L127.09400000000001,94.54024498164654L127.24164285714285,132.64231246709824L128.60071428571428,131.37094762921333L128.69914285714285,116.41075719892979L128.78242857142857,102.03950715065002L128.85435714285714,131.6978037059307L128.94899999999998,104.54720848053694L129.00957142857143,94.83763945102692L129.055,112.96781395375729L129.4752142857143,113.39028266072273L129.70992857142858,107.46044621616602L130.49735714285714,124.69015848636627L130.52385714285714,117.27288220822811L130.5579285714286,112.25749944150448L130.74721428571428,102.03041934221983L130.75857142857143,82.93561425805092L130.83807142857142,114.65103455632925L130.95542857142857,107.12657783925533L131.02735714285714,103.28125123679638L131.54221428571427,115.96759640425444L131.84885714285713,100.61074849963188L131.85264285714285,132.480112824589L131.98135714285715,126.08637210726738L132.5,127.20781960338354L132.51892857142857,98.34404815733433L132.61735714285714,73.37850224971771L132.79149999999998,123.16936132311821L132.8482857142857,119.94215820729733L133.1587142857143,122.36694198846817L133.3215,-18.401347279548645L133.41992857142858,116.54075165092945L133.57514285714285,120.06931458413601L133.73792857142857,133.4849754422903L134.23764285714284,61.838126078248024L134.2792857142857,117.13259310275316L134.66542857142858,96.95361015200615L134.81685714285715,111.28407944738865L135.17271428571428,95.22356462478638L135.22571428571428,85.42727184295654L135.29385714285715,123.81270256638527L136.48257142857142,139.44926001876593L136.68321428571429,123.95341274142265L137.82271428571428,103.8522547185421L137.9627857142857,115.15203107893467L138.9205714285714,121.57094147801399L139.01899999999998,133.19382904842496L139.3445714285714,128.57221760600805L139.59064285714285,133.48531859740615L139.61714285714285,124.31479652225971L139.64742857142855,126.0283540263772L139.82914285714284,131.1637664847076L139.8632142857143,119.39671066403389L140.08657142857143,123.31607919931412L140.1357857142857,98.84362232685089L140.73014285714288,107.85114240646362L140.85507142857145,134.32320226728916L141.0140714285714,120.36356926709414L141.71821428571428,116.17378786951303L142.07407142857141,120.22430796921253L142.12328571428571,132.31031735241413L142.3845,118.75943348556757L142.55864285714287,135.92899580299854L142.74414285714286,122.35707503557205L142.95614285714285,129.3865031450987L143.45585714285713,124.48169258236885L143.48614285714285,131.2263351008296L143.86471428571429,137.41709210723639L143.91014285714286,136.50879035517573L143.98585714285713,110.61478108912706L144.43257142857144,128.9263570010662L144.53478571428573,131.0456680767238L144.54235714285713,121.6315323933959L144.88307142857144,107.27064330875874L145.14807142857143,121.35839749872684L145.2502857142857,95.55250284075737L145.27678571428572,128.3313326612115L145.38278571428572,105.99298563599586L145.89764285714287,132.58580128476024L146.24592857142858,133.10875476151705L146.61314285714286,71.34209048748016L146.64721428571428,68.52348399162292L146.69264285714286,139.38586086779833L146.76457142857143,89.74361945688725L146.82892857142858,134.49833405017853L147.03335714285717,103.43025681376457L147.07878571428571,114.86589607596397L147.17342857142856,108.52976728975773L147.31349999999998,123.81432716548443L147.7072142857143,105.57136238366365L147.77914285714286,104.84290872514248L147.80564285714286,127.96823642030358L147.97978571428573,116.1237435862422L148.17664285714287,84.513557523489L148.18800000000002,112.6831444054842L148.32049999999998,119.89842665195465L149.0095,129.32429260388017L149.01328571428573,123.06398120522499L149.09278571428572,135.15260984003544L149.30100000000002,132.00041015446186L149.63035714285712,135.57400266453624L149.63414285714285,95.87659378349781L149.77800000000002,117.40247216820717L149.91049999999998,122.04504591226578L149.94457142857144,52.81635594367981L150.60707142857143,112.41074886918068L150.96671428571426,110.32677613943815L151.72764285714285,126.99080300331116L151.86392857142857,120.4614596515894L152.09864285714286,103.57531030476093L152.39014285714285,120.2662557810545L152.68921428571429,132.32317820936441L152.76871428571428,124.78342705219984L152.799,135.03151255473495L152.84821428571428,141.11538254469633L152.85578571428573,119.5128860771656L153.2495,81.78099510073662L153.25707142857144,118.72290321439505L153.5864285714286,106.91660669445992L153.59778571428572,120.226887434721L154.34735714285713,84.22764134407043L154.37385714285713,115.45852993428707L154.62371428571427,131.12067979574203L154.64264285714287,111.72823489457369L155.03635714285716,129.82469730824232L155.10071428571428,115.67248632013798L155.35435714285714,115.7630096450448L155.4300714285714,121.65128287672997L155.83514285714284,96.44717288017273L156.0887857142857,124.90123369544744L156.14557142857143,130.1355593726039L156.20614285714288,134.54483737051487L156.25535714285715,94.78856992721558L156.38785714285714,119.45857805013657L156.48628571428574,146.797492492944L157.36835714285715,134.39287601783872L157.59550000000002,141.69627618789673L157.70907142857143,130.33509661257267L157.781,123.24854560941458L158.11792857142856,128.8319429270923L158.26557142857143,107.89395225048065L158.28071428571428,113.61354899406433L158.3147857142857,129.8655062429607L158.43214285714285,130.59995268285275L158.64792857142857,100.51651180535555L159.20064285714287,82.04281416535378L159.6397857142857,130.79702815786004L159.76471428571426,126.64135505259037L160.17735714285715,126.51316092163324L160.7225,133.4904261380434L160.85121428571426,143.76464779302478L161.89228571428572,141.21728800982237L162.05507142857144,127.40274165570736L162.3162857142857,125.22918057441711L163.51257142857145,122.20820207893848L163.72078571428574,132.4732348024845L163.77757142857143,125.45912765711546L164.16750000000002,107.97408145666122L164.44764285714285,15.500123620033264L164.50821428571427,133.38863671571016L164.54985714285715,123.60919334739447L164.67857142857144,102.41098333895206L164.98142857142858,116.54930897802114L165.21235714285714,93.9280032068491L165.21614285714284,139.04486414790154L165.4357142857143,123.04773852974176L165.51142857142855,113.21732916682959L165.67421428571427,111.2796565592289L165.96571428571428,120.76833979040384L166.49949999999998,112.70356462150812L166.58657142857143,-8.026617646217346L166.59035714285716,124.30882860720158L167.10521428571428,140.45170065760612L167.46864285714287,120.6482023447752L167.692,119.08731405436993L167.73364285714285,130.69624499231577L168.80878571428573,139.64586303383112L169.22899999999998,109.90643267333508L169.335,131.86260602250695L169.52807142857142,114.96520218253136L169.89528571428573,138.31787760183215L170.01264285714285,108.12792436033487L170.03157142857143,129.34470950439572L170.09592857142857,143.37463874183595L170.43285714285713,132.69387193769217L171.20514285714287,133.9184847921133L171.47771428571428,130.59486669301987L171.8752142857143,95.93076255917549L172.20457142857143,122.9121773391962L172.25,120.69192063808441L172.37114285714284,130.04300861433148L172.47714285714287,129.74951649829745L172.8065,126.98636353760958L172.84435714285715,111.22670789062977L172.86707142857145,123.83412738144398L172.88221428571427,137.21121229976416L172.99957142857141,129.56576605141163L173.00714285714284,91.12215478718281L173.06014285714286,94.59264327585697L173.08285714285714,149.27687233593315L173.35921428571427,126.19641382992268L174.2942857142857,147.2332679927349L174.62742857142857,115.15093364566565L174.72585714285714,105.6848721280694L175.06657142857142,135.664434812963L175.1687857142857,52.35152830183506L175.4337857142857,127.90321764349937L175.6912142857143,119.93176408857107L176.00164285714285,92.27878314256668L176.18335714285715,123.18640966713428L176.24392857142857,104.07967206835747L176.44835714285716,116.37987323850393L177.06542857142855,136.37746638432145L177.09571428571428,130.17110493779182L177.338,106.3635069578886L177.4402142857143,96.20884750783443L177.95128571428572,128.9054527208209L177.97778571428572,130.1555386260152L178.04592857142856,105.4083753079176L178.43585714285715,144.11841585114598L178.5267142857143,97.16641937196255L178.56457142857144,125.06746333837509L178.61757142857144,112.50868567079306L178.8522857142857,142.0813898909837L179.21192857142856,110.03133450448513L179.63214285714284,64.15401530265808L179.7002857142857,100.03521603345871L179.73814285714286,123.03968515992165L179.81764285714286,121.61456030607224L180.2302857142857,84.31355279684067L180.4952857142857,113.18431996554136L180.8662857142857,122.58486372232437L181.45307142857143,141.073721524328L181.578,104.17791058123112L181.64235714285715,86.9551310390234L181.79000000000002,125.11905596405268L182.76671428571427,85.13799373805523L183.5087142857143,128.63717670366168L183.6752857142857,126.38850112259388L183.80778571428573,136.61825849488378L183.92135714285715,116.69163712114096L184.0122142857143,129.3094142600894L184.13335714285714,115.68851348757744L184.40592857142857,114.05313567072153L184.50814285714287,130.4696963056922L184.5232857142857,124.0155917853117L184.58007142857142,118.99518602341413L184.67849999999999,136.39485788345337L184.7617857142857,113.42665710300207L185.40914285714285,113.61049209535122L185.42428571428573,109.2181198745966L185.4735,145.04085493087769L185.77635714285717,54.534445747733116L185.79149999999998,112.47407176345587L185.92778571428573,124.16464377939701L186.25714285714287,136.82585905119777L186.28364285714287,144.80397263355553L186.45021428571428,123.06672313064337L186.65085714285715,139.3445562645793L186.7985,115.07783663272858L187.02942857142858,129.56834717467427L187.39664285714284,83.19699567556381L187.5405,121.8994254693389L187.71464285714288,126.27015405148268L187.71842857142857,99.6788055151701L187.94178571428571,128.27878351137042L188.2597857142857,135.39149387553334L188.35064285714287,117.45933976769447L188.53614285714286,110.12074713408947L188.58914285714286,138.50956703349948L189.1494285714286,104.47826911509037L189.26299999999998,81.12085086107254L189.48635714285712,142.2084675244987L189.6794285714286,138.9209238141775L190.45928571428573,131.68084322288632L190.49335714285715,129.18342494219542L190.69400000000002,124.24241897463799L191.20507142857142,124.70695816725492L191.34135714285713,133.53072945773602L191.7312857142857,142.6010850518942L191.7767142857143,130.16388376057148L192.2045,124.08630494773388L192.46192857142856,129.72075280547142L192.59442857142858,132.5337411724031L193.16228571428573,143.41575187444687L193.19635714285712,138.01701511070132L193.29857142857142,121.58409078419209L193.41214285714287,133.7845382541418L193.54085714285716,132.93362297862768L193.71121428571428,138.56342746689916L193.7415,141.15168238803744L193.8475,131.2330987378955L194.27528571428573,98.74459472298622L194.33585714285715,141.33731272816658L194.57057142857144,136.96520986780524L194.63492857142856,121.70930758863688L194.9605,129.34792886301875L194.99457142857142,119.32695899903774L195.7062857142857,135.22977995499969L195.90314285714285,138.710344273597L196.99342857142858,133.04379069060087L197.07292857142858,125.98847177624702L197.60671428571428,126.59930777549744L197.7695,135.67500299587846L197.97014285714286,142.09200780652463L197.99664285714286,130.82898800075054L198.07235714285716,114.83799275755882L198.17078571428573,116.40639067441225L198.51149999999998,81.8831856995821L198.70835714285715,141.3988767452538L198.93550000000002,106.72622688859701L198.96200000000002,131.90889383479953L199.0717857142857,98.85234874486923L199.27242857142858,135.5002077370882L199.28757142857143,136.95270542800426L199.33678571428572,131.31524708867073L199.38978571428572,114.53240898251534L199.48064285714287,120.39614413678646L199.5260714285714,117.27547493577003L199.64721428571428,85.25895011425018L199.67371428571428,111.12327729165554L199.72671428571428,132.8877015300095L200.15449999999998,144.27050816640258L200.19614285714286,127.1953698694706L200.21885714285716,109.64944430440664L200.37407142857145,82.35017505288124L200.38921428571427,131.07619893550873L200.4422142857143,105.52800879627466L200.5292857142857,125.02568130195141L200.93057142857145,126.453836530447L201.09335714285714,132.07025133818388L201.32807142857143,32.93099772930145L201.38864285714286,147.47428141348064L201.5022142857143,137.10625325143337L202.23664285714287,133.67039358988404L202.407,115.69479306042194L202.5887142857143,144.32474656775594L202.619,121.7610029950738L203.02785714285713,139.84589760005474L203.10357142857143,130.63957466557622L203.838,142.0971228070557L204.36042857142857,101.21280834823847L205.45828571428572,137.39221916347742L205.6627142857143,117.296720713377L205.75735714285713,115.39474949985743L206.23435714285714,105.88854049146175L206.541,116.75060675293207L206.7719285714286,137.06870843470097L206.84385714285713,135.23668781667948L207.06721428571427,141.23406779766083L207.50635714285715,146.9349501542747L207.80542857142856,137.74576508253813L208.23700000000002,138.01326858624816L208.4262857142857,145.0319121759385L208.56635714285716,131.64147321879864L208.77835714285715,135.98546056821942L208.83892857142857,125.75240758061409L208.9525,132.2817757986486L209.22885714285712,135.05063474923372L209.66042857142855,134.01942212879658L209.99357142857144,74.5668003410101L210.251,137.00406596809626L210.5955,110.34791913628578L210.60307142857144,140.91700075939298L210.6257857142857,126.33778710663319L211.31478571428573,127.86316961795092L211.9205,137.85625605657697L212.05678571428572,130.90958800911903L212.49214285714285,133.6718557290733L212.5072857142857,117.69621957838535L212.85935714285714,136.14901293814182L213.06757142857143,129.03293070197105L213.2947142857143,132.24349328130484L213.65435714285715,133.0508775897324L214.42664285714287,136.0903715416789L214.83928571428572,146.39061662182212L215.00585714285714,132.66228177398443L215.02100000000002,140.36082257330418L215.0512857142857,137.45490382239223L215.61157142857144,139.27178417146206L215.7895,149.15854184236377L216.03935714285714,147.69875542074442L216.04692857142857,127.66444799304008L216.6829285714286,136.0758065134287L216.89114285714285,141.07793056219816L216.99714285714285,144.8108067251742L217.12207142857142,143.75060578621924L217.2129285714286,113.59153401851654L217.2507857142857,124.56428189575672L217.7164285714286,134.13333470746875L217.78457142857144,143.3972662575543L218.0685,133.95960538461804L218.21235714285714,141.2957246489823L218.36757142857144,138.60570185631514L218.74992857142857,127.33608336001635L218.82185714285714,131.4697729870677L219.21557142857142,124.47249536216259L219.3405,121.0638842061162L219.58278571428573,125.32837726920843L219.62064285714285,133.60595834255219L219.9197142857143,125.11389040201902L219.9765,140.48315322771668L220.1165714285714,139.33674824237823L221.08950000000002,122.38916915655136L221.1197857142857,132.1443861052394L221.34314285714285,135.55758924037218L221.39614285714288,126.57962691783905L222.02457142857145,142.08126307278872L222.24414285714286,127.93102812767029L222.27064285714286,148.72199258580804L222.2857857142857,145.94831868819892L222.30092857142859,132.67811001092196L222.69085714285714,128.57819878309965L222.83471428571428,142.56884007528424L222.95964285714285,119.21658572554588L223.0012857142857,132.32523216679692L223.44421428571428,112.23249387741089L223.62971428571427,121.35778744518757L223.6865,133.89763521775603L223.76600000000002,119.10638154298067L223.82278571428571,141.2277136258781L224.04992857142855,119.90515050292015L224.26950000000002,144.28834477253258L224.75028571428572,125.07102087885141L225.1212857142857,133.55412202700973L225.58692857142856,131.8258386924863L225.72321428571428,132.45595437288284L225.8065,135.2712586224079L225.97307142857142,136.10869635641575L226.02228571428572,133.57411620020866L226.07907142857144,128.79610062390566L226.4122142857143,122.2203268930316L226.6242142857143,147.52692422643304L226.90435714285715,134.71299995481968L227.07471428571426,138.6047105193138L227.8735,136.42074039950967L228.2747857142857,150.3625297481194L228.28614285714283,127.66142424941063L228.3845714285714,129.342136669904L228.50192857142858,139.6890840008855L229.17957142857142,124.72209014743567L229.1985,135.15071005374193L229.22878571428572,128.40053063631058L229.84207142857144,141.50426183640957L230.04271428571428,130.62868156284094L230.1525,113.66749894618988L230.43642857142856,136.6185651794076L230.7885,121.87651530653238L230.79985714285715,127.78335870057344L231.27307142857143,96.63504947721958L232.07942857142856,141.54351911321282L232.20435714285713,145.6811508797109L232.36335714285715,146.57685369998217L232.4845,132.2406419441104L232.56400000000002,128.20060382410884L232.80249999999998,137.28258193284273L232.84792857142855,140.62966056913137L232.90092857142855,134.27100290358067L232.92742857142858,130.5695295780897L232.935,123.26401908695698L233.2302857142857,140.9317282475531L233.90792857142856,135.79762375727296L234.03285714285713,147.12810669839382L234.16914285714284,143.49033340625465L234.29028571428572,134.08756908774376L234.71050000000002,155.75L234.85057142857144,133.18158156052232L235.6115,136.82110295444727L235.70235714285712,135.53397618979216L235.84621428571427,133.72904493287206L235.8689285714286,136.2493518255651L235.9522142857143,126.73714008927345L236.221,136.5354487001896L236.48978571428572,137.84477610886097L236.54657142857144,139.36110562458634L236.67528571428574,145.1791323516518L236.89107142857142,131.14478519931436L237.3112857142857,131.1225630044937L237.45514285714287,125.20838902145624L237.59142857142857,128.00387316197157L238.00785714285715,140.78455117344856L238.84071428571428,136.14475914090872L239.61678571428573,120.5232474654913L239.80985714285714,122.32079011201859L240.16571428571427,132.58038871735334L240.60485714285716,147.03054372034967L240.81307142857142,144.6838343590498L240.92664285714287,142.51832747645676L240.94178571428571,127.84356501698494L241.1007857142857,133.407850086689L241.22192857142858,134.88644082844257L241.32414285714285,143.5362946409732L241.38850000000002,137.39871755987406L241.44528571428572,130.3981061913073L241.48314285714287,134.0742921344936L241.80114285714285,121.78412203490734L242.33871428571427,147.321980221197L242.39928571428572,144.12138820439577L242.41064285714285,147.28117957524955L242.422,121.03581842780113L242.50528571428572,73.66157372295856L242.94064285714285,142.56106437928975L243.28514285714286,137.63591234385967L243.46307142857142,134.11473636329174L243.64478571428572,111.88565191626549L243.92114285714285,129.645567022264L244.46628571428573,141.64776864275336L244.648,130.0028561502695L244.70857142857142,138.86648979783058L244.82214285714284,128.39988742768764L245.00764285714286,138.3918747752905L245.05685714285713,99.56291523575783L245.0757857142857,145.54797353968024L245.1287857142857,128.64283461868763L245.38242857142856,130.48249914124608L245.549,119.60189421474934L245.6512142857143,128.46452326327562L246.0827857142857,131.52059641480446" style="fill: none;" fill="none"></path></g></g></g></g></g></g><g transform="translate(65, 178)" clip-path="url(#clip_1)"><clipPath id="clip_1"><rect width="265" height="22"></rect></clipPath><g><g><line x1="0" y1="0" x2="0" y2="5" style="visibility: inherit;" fill="rgb(0, 0, 0)" stroke="rgb(204, 204, 204)" stroke-width="1px"></line><line x1="18.928571428571427" y1="0" x2="18.928571428571427" y2="5" style="visibility: inherit;" fill="rgb(0, 0, 0)" stroke="rgb(204, 204, 204)" stroke-width="1px"></line><line x1="37.857142857142854" y1="0" x2="37.857142857142854" y2="5" style="visibility: inherit;" fill="rgb(0, 0, 0)" stroke="rgb(204, 204, 204)" stroke-width="1px"></line><line x1="56.785714285714285" y1="0" x2="56.785714285714285" y2="5" style="visibility: inherit;" fill="rgb(0, 0, 0)" stroke="rgb(204, 204, 204)" stroke-width="1px"></line><line x1="75.71428571428571" y1="0" x2="75.71428571428571" y2="5" style="visibility: inherit;" fill="rgb(0, 0, 0)" stroke="rgb(204, 204, 204)" stroke-width="1px"></line><line x1="94.64285714285714" y1="0" x2="94.64285714285714" y2="5" style="visibility: inherit;" fill="rgb(0, 0, 0)" stroke="rgb(204, 204, 204)" stroke-width="1px"></line><line x1="113.57142857142857" y1="0" x2="113.57142857142857" y2="5" style="visibility: inherit;" fill="rgb(0, 0, 0)" stroke="rgb(204, 204, 204)" stroke-width="1px"></line><line x1="132.5" y1="0" x2="132.5" y2="5" style="visibility: inherit;" fill="rgb(0, 0, 0)" stroke="rgb(204, 204, 204)" stroke-width="1px"></line><line x1="151.42857142857142" y1="0" x2="151.42857142857142" y2="5" style="visibility: inherit;" fill="rgb(0, 0, 0)" stroke="rgb(204, 204, 204)" stroke-width="1px"></line><line x1="170.35714285714286" y1="0" x2="170.35714285714286" y2="5" style="visibility: inherit;" fill="rgb(0, 0, 0)" stroke="rgb(204, 204, 204)" stroke-width="1px"></line><line x1="189.28571428571428" y1="0" x2="189.28571428571428" y2="5" style="visibility: inherit;" fill="rgb(0, 0, 0)" stroke="rgb(204, 204, 204)" stroke-width="1px"></line><line x1="208.21428571428572" y1="0" x2="208.21428571428572" y2="5" style="visibility: inherit;" fill="rgb(0, 0, 0)" stroke="rgb(204, 204, 204)" stroke-width="1px"></line><line x1="227.14285714285714" y1="0" x2="227.14285714285714" y2="5" style="visibility: inherit;" fill="rgb(0, 0, 0)" stroke="rgb(204, 204, 204)" stroke-width="1px"></line><line x1="246.07142857142858" y1="0" x2="246.07142857142858" y2="5" style="visibility: inherit;" fill="rgb(0, 0, 0)" stroke="rgb(204, 204, 204)" stroke-width="1px"></line><line x1="265" y1="0" x2="265" y2="5" style="visibility: inherit;" fill="rgb(0, 0, 0)" stroke="rgb(204, 204, 204)" stroke-width="1px"></line></g><g transform="translate(0, 8)"><text x="0" y="0" dx="0em" dy="0.95em" style="text-anchor: middle; visibility: hidden; font-family: Roboto, sans-serif; font-size: 12px; font-weight: 200;" fill="rgb(50, 49, 63)" stroke="none" stroke-width="1px">-5k</text><text x="18.928571428571427" y="0" dx="0em" dy="0.95em" style="text-anchor: middle; visibility: inherit; font-family: Roboto, sans-serif; font-size: 12px; font-weight: 200;" fill="rgb(50, 49, 63)" stroke="none" stroke-width="1px">0</text><text x="37.857142857142854" y="0" dx="0em" dy="0.95em" style="text-anchor: middle; visibility: hidden; font-family: Roboto, sans-serif; font-size: 12px; font-weight: 200;" fill="rgb(50, 49, 63)" stroke="none" stroke-width="1px">5k</text><text x="56.785714285714285" y="0" dx="0em" dy="0.95em" style="text-anchor: middle; visibility: inherit; font-family: Roboto, sans-serif; font-size: 12px; font-weight: 200;" fill="rgb(50, 49, 63)" stroke="none" stroke-width="1px">10k</text><text x="75.71428571428571" y="0" dx="0em" dy="0.95em" style="text-anchor: middle; visibility: hidden; font-family: Roboto, sans-serif; font-size: 12px; font-weight: 200;" fill="rgb(50, 49, 63)" stroke="none" stroke-width="1px">15k</text><text x="94.64285714285714" y="0" dx="0em" dy="0.95em" style="text-anchor: middle; visibility: inherit; font-family: Roboto, sans-serif; font-size: 12px; font-weight: 200;" fill="rgb(50, 49, 63)" stroke="none" stroke-width="1px">20k</text><text x="113.57142857142857" y="0" dx="0em" dy="0.95em" style="text-anchor: middle; visibility: hidden; font-family: Roboto, sans-serif; font-size: 12px; font-weight: 200;" fill="rgb(50, 49, 63)" stroke="none" stroke-width="1px">25k</text><text x="132.5" y="0" dx="0em" dy="0.95em" style="text-anchor: middle; visibility: inherit; font-family: Roboto, sans-serif; font-size: 12px; font-weight: 200;" fill="rgb(50, 49, 63)" stroke="none" stroke-width="1px">30k</text><text x="151.42857142857142" y="0" dx="0em" dy="0.95em" style="text-anchor: middle; visibility: hidden; font-family: Roboto, sans-serif; font-size: 12px; font-weight: 200;" fill="rgb(50, 49, 63)" stroke="none" stroke-width="1px">35k</text><text x="170.35714285714286" y="0" dx="0em" dy="0.95em" style="text-anchor: middle; visibility: inherit; font-family: Roboto, sans-serif; font-size: 12px; font-weight: 200;" fill="rgb(50, 49, 63)" stroke="none" stroke-width="1px">40k</text><text x="189.28571428571428" y="0" dx="0em" dy="0.95em" style="text-anchor: middle; visibility: hidden; font-family: Roboto, sans-serif; font-size: 12px; font-weight: 200;" fill="rgb(50, 49, 63)" stroke="none" stroke-width="1px">45k</text><text x="208.21428571428572" y="0" dx="0em" dy="0.95em" style="text-anchor: middle; visibility: inherit; font-family: Roboto, sans-serif; font-size: 12px; font-weight: 200;" fill="rgb(50, 49, 63)" stroke="none" stroke-width="1px">50k</text><text x="227.14285714285714" y="0" dx="0em" dy="0.95em" style="text-anchor: middle; visibility: hidden; font-family: Roboto, sans-serif; font-size: 12px; font-weight: 200;" fill="rgb(50, 49, 63)" stroke="none" stroke-width="1px">55k</text><text x="246.07142857142858" y="0" dx="0em" dy="0.95em" style="text-anchor: middle; visibility: inherit; font-family: Roboto, sans-serif; font-size: 12px; font-weight: 200;" fill="rgb(50, 49, 63)" stroke="none" stroke-width="1px">60k</text><text x="265" y="0" dx="0em" dy="0.95em" style="text-anchor: middle; visibility: hidden; font-family: Roboto, sans-serif; font-size: 12px; font-weight: 200;" fill="rgb(50, 49, 63)" stroke="none" stroke-width="1px">65k</text></g><line x1="0" y1="0" x2="265" y2="0" fill="rgb(0, 0, 0)" stroke="rgb(204, 204, 204)" stroke-width="1px"></line></g></g></g></g></svg>