<svg viewBox="0 0 2653 400" xmlns="http://www.w3.org/2000/svg"><g><g><g><g><g><line x1="54" y1="378" x2="49" y2="378" style="visibility: inherit;" fill="rgb(0, 0, 0)" stroke="rgb(204, 204, 204)" stroke-width="1px"></line><line x1="54" y1="340.2" x2="49" y2="340.2" style="visibility: inherit;" fill="rgb(0, 0, 0)" stroke="rgb(204, 204, 204)" stroke-width="1px"></line><line x1="54" y1="302.40000000000003" x2="49" y2="302.40000000000003" style="visibility: inherit;" fill="rgb(0, 0, 0)" stroke="rgb(204, 204, 204)" stroke-width="1px"></line><line x1="54" y1="264.59999999999997" x2="49" y2="264.59999999999997" style="visibility: inherit;" fill="rgb(0, 0, 0)" stroke="rgb(204, 204, 204)" stroke-width="1px"></line><line x1="54" y1="226.79999999999998" x2="49" y2="226.79999999999998" style="visibility: inherit;" fill="rgb(0, 0, 0)" stroke="rgb(204, 204, 204)" stroke-width="1px"></line><line x1="54" y1="189" x2="49" y2="189" style="visibility: inherit;" fill="rgb(0, 0, 0)" stroke="rgb(204, 204, 204)" stroke-width="1px"></line><line x1="54" y1="151.20000000000002" x2="49" y2="151.20000000000002" style="visibility: inherit;" fill="rgb(0, 0, 0)" stroke="rgb(204, 204, 204)" stroke-width="1px"></line><line x1="54" y1="113.40000000000002" x2="49" y2="113.40000000000002" style="visibility: inherit;" fill="rgb(0, 0, 0)" stroke="rgb(204, 204, 204)" stroke-width="1px"></line><line x1="54" y1="75.60000000000002" x2="49" y2="75.60000000000002" style="visibility: inherit;" fill="rgb(0, 0, 0)" stroke="rgb(204, 204, 204)" stroke-width="1px"></line><line x1="54" y1="37.79999999999999" x2="49" y2="37.79999999999999" style="visibility: inherit;" fill="rgb(0, 0, 0)" stroke="rgb(204, 204, 204)" stroke-width="1px"></line><line x1="54" y1="0" x2="49" y2="0" style="visibility: inherit;" fill="rgb(0, 0, 0)" stroke="rgb(204, 204, 204)" stroke-width="1px"></line></g><g transform="translate(44, 0)"><text x="0" y="378" dx="0em" dy="0.3em" style="text-anchor: end; visibility: hidden; font-family: Roboto, sans-serif; font-size: 12px; font-weight: 200;" fill="rgb(50, 49, 63)" stroke="none" stroke-width="1px">-0.1</text><text x="0" y="340.2" dx="0em" dy="0.3em" style="text-anchor: end; visibility: inherit; font-family: Roboto, sans-serif; font-size: 12px; font-weight: 200;" fill="rgb(50, 49, 63)" stroke="none" stroke-width="1px">0</text><text x="0" y="302.40000000000003" dx="0em" dy="0.3em" style="text-anchor: end; visibility: inherit; font-family: Roboto, sans-serif; font-size: 12px; font-weight: 200;" fill="rgb(50, 49, 63)" stroke="none" stroke-width="1px">0.1</text><text x="0" y="264.59999999999997" dx="0em" dy="0.3em" style="text-anchor: end; visibility: inherit; font-family: Roboto, sans-serif; font-size: 12px; font-weight: 200;" fill="rgb(50, 49, 63)" stroke="none" stroke-width="1px">0.2</text><text x="0" y="226.79999999999998" dx="0em" dy="0.3em" style="text-anchor: end; visibility: inherit; font-family: Roboto, sans-serif; font-size: 12px; font-weight: 200;" fill="rgb(50, 49, 63)" stroke="none" stroke-width="1px">0.3</text><text x="0" y="189" dx="0em" dy="0.3em" style="text-anchor: end; visibility: inherit; font-family: Roboto, sans-serif; font-size: 12px; font-weight: 200;" fill="rgb(50, 49, 63)" stroke="none" stroke-width="1px">0.4</text><text x="0" y="151.20000000000002" dx="0em" dy="0.3em" style="text-anchor: end; visibility: inherit; font-family: Roboto, sans-serif; font-size: 12px; font-weight: 200;" fill="rgb(50, 49, 63)" stroke="none" stroke-width="1px">0.5</text><text x="0" y="113.40000000000002" dx="0em" dy="0.3em" style="text-anchor: end; visibility: inherit; font-family: Roboto, sans-serif; font-size: 12px; font-weight: 200;" fill="rgb(50, 49, 63)" stroke="none" stroke-width="1px">0.6</text><text x="0" y="75.60000000000002" dx="0em" dy="0.3em" style="text-anchor: end; visibility: inherit; font-family: Roboto, sans-serif; font-size: 12px; font-weight: 200;" fill="rgb(50, 49, 63)" stroke="none" stroke-width="1px">0.7</text><text x="0" y="37.79999999999999" dx="0em" dy="0.3em" style="text-anchor: end; visibility: inherit; font-family: Roboto, sans-serif; font-size: 12px; font-weight: 200;" fill="rgb(50, 49, 63)" stroke="none" stroke-width="1px">0.8</text><text x="0" y="0" dx="0em" dy="0.3em" style="text-anchor: end; visibility: hidden; font-family: Roboto, sans-serif; font-size: 12px; font-weight: 200;" fill="rgb(50, 49, 63)" stroke="none" stroke-width="1px">0.9</text></g><line x1="54" y1="0" x2="54" y2="378" fill="rgb(0, 0, 0)" stroke="rgb(204, 204, 204)" stroke-width="1px"></line></g></g><g transform="translate(54, 0)" clip-path="url(#clip_0)"><clipPath id="clip_0"><rect width="2599" height="378"></rect></clipPath><g><g><g><line x1="0" y1="0" x2="0" y2="378" fill="rgb(0, 0, 0)" stroke="rgb(60, 60, 60)" stroke-width="1px" opacity="0.25"></line><line x1="185.64285714285714" y1="0" x2="185.64285714285714" y2="378" fill="rgb(0, 0, 0)" stroke="rgb(60, 60, 60)" stroke-width="1px" opacity="0.25"></line><line x1="371.2857142857143" y1="0" x2="371.2857142857143" y2="378" fill="rgb(0, 0, 0)" stroke="rgb(60, 60, 60)" stroke-width="1px" opacity="0.25"></line><line x1="556.9285714285714" y1="0" x2="556.9285714285714" y2="378" fill="rgb(0, 0, 0)" stroke="rgb(60, 60, 60)" stroke-width="1px" opacity="0.25"></line><line x1="742.5714285714286" y1="0" x2="742.5714285714286" y2="378" fill="rgb(0, 0, 0)" stroke="rgb(60, 60, 60)" stroke-width="1px" opacity="0.25"></line><line x1="928.2142857142858" y1="0" x2="928.2142857142858" y2="378" fill="rgb(0, 0, 0)" stroke="rgb(60, 60, 60)" stroke-width="1px" opacity="0.25"></line><line x1="1113.857142857143" y1="0" x2="1113.857142857143" y2="378" fill="rgb(0, 0, 0)" stroke="rgb(60, 60, 60)" stroke-width="1px" opacity="0.25"></line><line x1="1299.5" y1="0" x2="1299.5" y2="378" fill="rgb(0, 0, 0)" stroke="rgb(60, 60, 60)" stroke-width="1px" opacity="0.25"></line><line x1="1485.142857142857" y1="0" x2="1485.142857142857" y2="378" fill="rgb(0, 0, 0)" stroke="rgb(60, 60, 60)" stroke-width="1px" opacity="0.25"></line><line x1="1670.7857142857144" y1="0" x2="1670.7857142857144" y2="378" fill="rgb(0, 0, 0)" stroke="rgb(60, 60, 60)" stroke-width="1px" opacity="0.25"></line><line x1="1856.4285714285716" y1="0" x2="1856.4285714285716" y2="378" fill="rgb(0, 0, 0)" stroke="rgb(60, 60, 60)" stroke-width="1px" opacity="0.25"></line><line x1="2042.0714285714284" y1="0" x2="2042.0714285714284" y2="378" fill="rgb(0, 0, 0)" stroke="rgb(60, 60, 60)" stroke-width="1px" opacity="0.25"></line><line x1="2227.714285714286" y1="0" x2="2227.714285714286" y2="378" fill="rgb(0, 0, 0)" stroke="rgb(60, 60, 60)" stroke-width="1px" opacity="0.25"></line><line x1="2413.357142857143" y1="0" x2="2413.357142857143" y2="378" fill="rgb(0, 0, 0)" stroke="rgb(60, 60, 60)" stroke-width="1px" opacity="0.25"></line><line x1="2599" y1="0" x2="2599" y2="378" fill="rgb(0, 0, 0)" stroke="rgb(60, 60, 60)" stroke-width="1px" opacity="0.25"></line></g><g><line x1="0" y1="378" x2="2599" y2="378" fill="rgb(0, 0, 0)" stroke="rgb(60, 60, 60)" stroke-width="1px" opacity="0.25"></line><line x1="0" y1="340.2" x2="2599" y2="340.2" fill="rgb(0, 0, 0)" stroke="rgb(60, 60, 60)" stroke-width="1px" opacity="0.25"></line><line x1="0" y1="302.40000000000003" x2="2599" y2="302.40000000000003" fill="rgb(0, 0, 0)" stroke="rgb(60, 60, 60)" stroke-width="1px" opacity="0.25"></line><line x1="0" y1="264.59999999999997" x2="2599" y2="264.59999999999997" fill="rgb(0, 0, 0)" stroke="rgb(60, 60, 60)" stroke-width="1px" opacity="0.25"></line><line x1="0" y1="226.79999999999998" x2="2599" y2="226.79999999999998" fill="rgb(0, 0, 0)" stroke="rgb(60, 60, 60)" stroke-width="1px" opacity="0.25"></line><line x1="0" y1="189" x2="2599" y2="189" fill="rgb(0, 0, 0)" stroke="rgb(60, 60, 60)" stroke-width="1px" opacity="0.25"></line><line x1="0" y1="151.20000000000002" x2="2599" y2="151.20000000000002" fill="rgb(0, 0, 0)" stroke="rgb(60, 60, 60)" stroke-width="1px" opacity="0.25"></line><line x1="0" y1="113.40000000000002" x2="2599" y2="113.40000000000002" fill="rgb(0, 0, 0)" stroke="rgb(60, 60, 60)" stroke-width="1px" opacity="0.25"></line><line x1="0" y1="75.60000000000002" x2="2599" y2="75.60000000000002" fill="rgb(0, 0, 0)" stroke="rgb(60, 60, 60)" stroke-width="1px" opacity="0.25"></line><line x1="0" y1="37.79999999999999" x2="2599" y2="37.79999999999999" fill="rgb(0, 0, 0)" stroke="rgb(60, 60, 60)" stroke-width="1px" opacity="0.25"></line><line x1="0" y1="0" x2="2599" y2="0" fill="rgb(0, 0, 0)" stroke="rgb(60, 60, 60)" stroke-width="1px" opacity="0.25"></line></g></g></g><g><g><line x1="0" y1="340.2" x2="2599" y2="340.2" fill="rgb(0, 0, 0)" stroke="rgb(153, 153, 153)" stroke-width="1.5px"></line></g></g><g><g><line x1="185.64285714285714" y1="0" x2="185.64285714285714" y2="378" fill="rgb(0, 0, 0)" stroke="rgb(153, 153, 153)" stroke-width="1.5px"></line></g></g><g><g><g><g><g><path stroke="rgb(255, 112, 67)" stroke-width="2px" d="M197.07845714285713,-11.963603062662886L197.1527142857143,5.338102224670731L197.44974285714284,16.091859523168235L203.2418,19.226999132475942L205.54377142857143,38.01259336989353L207.14029999999997,57.24414132174617L207.40019999999998,67.36979502176959L209.18237142857143,85.39140475749905L209.66504285714288,95.73342079739383L212.15265714285712,72.70832586822286L212.44968571428572,69.39072186079144L215.41997142857142,68.39837045612046L215.64274285714285,72.97004132552051L216.68234285714286,71.06484463009896L221.6947,44.40016526147007L223.29122857142858,42.19868900550852L225.2219142857143,35.97850201268206L226.6328,55.66505980561452L229.45457142857143,59.325230067381675L232.4619857142857,63.30138642354596L234.50405714285714,51.190080504236505L234.61544285714285,45.157422668404976L235.13524285714288,50.824793327241295L235.28375714285716,42.983430928680846L237.0659285714286,53.563677707642576L237.32582857142856,45.326947222109546L238.95948571428573,47.77217628740347L240.07334285714288,56.25996410451743L243.2664,70.8934550930053L244.45451428571428,67.56200585100203L248.42727142857143,60.6011921050594L250.0238,67.19254541701379L250.1351857142857,56.356568906496975L254.10794285714283,48.32981049654992L255.33318571428572,42.023302728878406L256.8183285714286,63.998306323047345L257.9321857142857,69.8204344320835L261.2366285714286,78.66689211124783L263.46434285714287,92.47666813765828L266.84304285714285,97.45571982922849L267.2885857142857,108.52971994702783L268.4767,105.35900612920197L269.6276857142857,113.76171077109584L271.2984714285714,108.08615866623059L274.3430142857143,86.65629141880848L276.0880571428571,97.17540219096642L276.7192428571429,84.33423040082965L276.7935,83.64737926928935L276.97914285714285,82.59284735816347L277.90735714285717,71.715792863455L277.94448571428575,63.21703680713285L278.39002857142856,65.3747752080203L278.5756714285714,72.57518129154145L279.6524,90.83265413190622L285.33307142857143,92.71926141824093L287.37514285714286,87.9523095340671L295.80332857142855,95.89769206659885L298.4394571428572,112.05395780325499L298.55084285714287,129.90026658116298L303.00627142857144,127.02028903540035L305.56814285714285,125.50720614298176L306.1622,115.96728623206037L306.19932857142857,109.96088734919118L308.35278571428574,113.68694849930077L314.85028571428575,122.22270249153394L319.97402857142856,117.82637570331136L320.0482857142857,113.33022543297818L321.9047142857143,121.83203048676441L324.5408428571429,113.34787360777621L327.25122857142856,121.35262456338735L327.51112857142857,114.4632773920151L331.48388571428575,113.31075729320628L332.5234857142857,116.13054636122534L335.4937714285714,118.92525303401023L337.79574285714284,114.69699571290914L341.4343428571429,112.57742802617383L342.7709714285714,124.13485642647443L345.9269,130.82433754185791L349.00857142857143,128.99097663371626L352.4244,130.71159477446278L353.05558571428577,132.4408936853478L353.8352857142857,130.53006151043985L358.81051428571425,124.79343041081937L358.9590285714286,131.3381358822873L359.2560571428571,130.85717857122927L363.4144571428572,127.67370172461342L363.9342571428571,110.37530769119303L365.34514285714283,97.18001294971178L367.3500857142857,103.65912469640432L370.20898571428575,0.6454565643384587L373.14214285714286,26.292754601416245L373.2164,39.36913350819584L375.2213428571429,37.95272843445458L376.2609428571429,57.935435492693856L384.0950714285715,72.62247860568267L384.6148714285714,87.01548975862751L386.8797142857143,97.17531258700053L391.6693,99.67594761208869L396.4960142857143,100.52293649519146L398.12967142857144,83.81615011599337L401.28560000000004,90.74758604669087L403.3648,79.88871506760464L403.62469999999996,89.24271889035492L404.96132857142857,99.0390732294572L408.043,110.25189498941009L413.27812857142857,101.84951418850996L415.84000000000003,97.61948018137039L416.54544285714286,92.64319552504777L419.14444285714285,105.48062604273355L419.9984,110.9711763174496L422.3746285714286,118.78799301803126L427.7211428571428,123.90269452610725L429.7260857142857,138.2665575458428L430.80281428571425,139.21989094290083L434.2557714285714,139.7215783140412L434.36715714285714,126.46436462312452L434.8127,122.05045341971253L440.12208571428573,124.95955431589753L444.2804857142857,123.81332481765523L445.2458285714286,127.71573463229636L449.7755142857143,123.8350959724223L451.29778571428574,131.9638032790326L457.08984285714286,139.52091279688523L459.7259714285714,141.9747738748575L462.25071428571425,143.68521926568042L462.62199999999996,143.2270868698711L462.7333857142857,137.12552159586886L463.2903142857143,131.5955815227336L464.5155571428572,137.41225337323976L471.27295714285714,143.09189110173492L474.80017142857145,145.7567571118209L475.17145714285715,150.2885030831556L476.4709571428571,134.70323015400717L482.33727142857146,130.5982454630177L485.1219142857143,124.26874925972672L489.35457142857143,131.8248774885294L490.8768428571429,134.93918807527552L496.1491,129.45915836745172L496.3347428571428,129.71907311051876L496.6689,142.36534606218902L500.1218571428571,150.82784000477534L501.16145714285716,140.44317937007878L501.53274285714286,152.93614737849762L504.9857,149.7198817018511L506.24807142857145,138.93794417351648L508.47578571428573,155.69841135314422L515.2703142857142,147.14323451634866L516.3470428571429,151.1409434574162L517.1267428571429,155.60840313342993L517.3866428571429,158.78826666096506L519.5400999999999,162.7531308364324L521.8420714285714,166.51862372900504L529.4534285714285,171.0960309624057L531.5326285714285,155.16908624699613L532.7207428571429,142.06263919522493L535.9509285714286,121.63639533712816L537.1761714285714,118.9482825787089L540.3692285714286,111.18302947838272L540.8519,122.57438692376932L544.1934714285715,129.85855835491708L545.0474285714286,123.24619720946171L545.7157428571428,130.4456246983696L551.0993857142857,135.87049521132047L553.4756142857143,145.53781303465607L559.0820285714285,165.82700774780855L560.0473714285714,172.1923477919929L567.1760571428572,169.48641515990028L567.4359571428571,163.86663197657586L571.7428714285714,170.72194415823427L574.7131571428571,170.79532618886518L576.3096857142857,160.92666422214694L579.4656142857143,160.42257527392923L580.6166,153.49083531882715L581.2106571428571,153.99357674629218L583.3269857142857,154.7014660078533L585.0349,154.57431491718452L585.0720285714285,153.08653255905537L585.8888571428571,156.75664716311638L588.1537,164.54158944786502L588.4878571428571,164.79947408678078L590.4185428571428,151.52851358192657L590.5299285714285,152.2392155639954L591.9408142857143,151.98653128583143L592.7947714285714,160.69546152804156L593.0175428571429,160.1664381540011L593.0917999999999,169.08007750375222L594.7997142857143,169.954971759039L597.8442571428571,169.9548333825893L598.5497,167.67238684806887L598.8838571428571,170.5193123785995L601.4086,168.93977620291363L601.4828571428571,163.39566031786708L603.7105714285715,171.39244407447055L609.6140142857142,171.4232851944605L611.5818285714286,172.15215788440588L612.3244,170.36048729017875L613.4753857142857,168.13407876221672L613.8095428571428,185.47526604520866L615.0719142857142,181.7854804679319L618.1164571428571,181.359042442608L619.4902142857143,177.15482741477157L622.2377285714285,184.80471429606055L626.4703857142857,195.67152424962313L630.0347285714286,204.48581288711495L630.2203714285714,194.0326827011322L631.557,188.32084546404212L632.7079857142858,187.47506909439548L636.3094571428571,183.07263296311748L637.2748,182.21037261642215L638.0173714285714,178.44590295790294L641.953,156.77039822630817L646.2227857142857,157.65658120217572L648.1906,165.33816493138818L656.0989857142857,172.35006865024903L663.7474714285714,166.35884195998355L666.0494428571429,171.97850707197662L668.9454714285714,179.33482206887024L669.5766571428571,182.03824339440746L670.5791285714286,179.9430948536956L671.3588285714286,146.99216405861767L671.8043714285714,162.2824552923196L672.3612999999999,169.6083493046254L677.1880142857143,166.743316532118L683.2399714285714,154.82972225524088L683.3884857142857,155.59304889297783L687.0270857142857,164.32195747116683L688.5864857142857,148.32269820323617L690.4800428571428,156.842722643791L691.3340000000001,167.9656474314318L693.5245857142858,161.50640831040513L698.3884285714287,170.8127791197364L701.1359428571428,163.54531349149624L708.4131428571428,162.2166087531049L713.6482714285714,170.4739683983599L716.0987571428573,164.3088548545175L716.3586571428572,172.3184672510177L717.3240000000001,175.6775181001915L717.9923142857143,174.66251240699896L720.1829,185.5835443309072L722.0393285714287,189.1752435783631L728.9081142857143,187.79560036077856L729.1308857142857,192.16434085228207L730.2447428571429,182.77101373229283L730.5789000000001,181.79559820980515L730.9501857142857,182.43813886521284L734.3660142857142,173.55039458321033L734.7001714285714,181.69250098106892L735.4798714285714,184.22633784080585L737.8561,188.1794136585942L738.5615428571429,184.06798053348942L745.9129999999999,192.56962928051126L749.2545714285715,198.58692117160658L752.4476285714286,199.93404069115834L754.6010857142857,204.76988049402792L760.1332428571428,203.7953804984754L760.2075,203.5263782505778L761.3956142857143,203.79812618934588L762.5466,198.27754104223823L770.0465714285714,191.16066269821687L770.9376571428571,184.4967244854575L771.2718142857142,184.88845954556695L773.3138857142858,192.19126501332778L779.4401,199.84515186466805L783.2272142857144,204.80906522188218L784.0069142857143,202.60199120269783L788.9450142857143,209.19395741520847L791.6182714285715,205.6218945895007L792.4351,201.62028955847595L793.0662857142858,201.46862529021942L794.7742000000001,197.85352274453584L798.4499285714286,207.6958680393684L805.5786142857144,200.89702541775077L809.6998857142856,199.4778952140916L809.7370142857143,195.6947186856422L811.5191857142858,196.0836674413662L813.0785857142857,195.85841113594648L819.2790571428571,200.4557821236575L820.4300428571428,199.5692020352579L821.6924142857143,193.61747559508058L825.7022999999999,192.58595386605984L826.9275428571428,181.72342914467674L827.6701142857144,177.78919415824305L828.5611999999999,177.30933693959776L828.5983285714286,193.62126491965154L828.7097142857142,197.5272192029411L829.4151571428572,196.61283802121554L831.8656428571428,194.2573058617736L833.3136571428571,196.56785963945836L833.6849428571429,195.86203921652748L836.9893857142857,202.85556479197393L837.5091857142858,202.5055298821136L838.5859142857144,206.2914342476022L838.8829428571429,204.42283522206296L839.9596714285715,207.28913344820126L843.6354,210.23070622894016L852.2121000000001,216.30458554835002L853.2516999999999,217.10621916903608L854.6254571428572,210.0773324453654L855.9249571428571,211.82969591623902L856.3705,191.60444768119635L858.7467285714285,191.96844150906432L863.7590857142858,189.64901713591004L865.7640285714285,178.21470067552843L870.7021285714286,184.7747881925599L870.7392571428572,194.81169192839897L875.9372571428572,198.9936085489991L880.4298142857143,204.0443859451051L880.6897142857143,205.67427935117536L885.3307857142858,205.85415159621772L889.5263142857143,194.12695700252402L891.2713571428571,196.13498422049656L892.8678857142858,190.95453954437684L895.3926285714285,203.18941019306973L897.3604428571429,201.32405263460166L901.1475571428572,196.82604150538796L910.5782142857144,204.39382252183168L910.8009857142857,208.06730172074282L914.848,207.59232994656162L915.3678,207.91163942893806L918.2267,206.85053977316468L918.4494714285714,208.75412866076684L921.6425285714286,211.78072620147415L922.4964857142857,217.1406314495727L925.0954857142857,197.5390270513986L925.9123142857144,193.09278743055324L927.1375571428572,197.5102594361073L928.0286428571429,197.49097877164996L929.5137857142857,193.24807926652267L930.1821,183.31144182791382L930.4048714285715,189.61878073912305L930.5162571428572,196.46042148798966L933.3380285714286,197.47985120864683L933.3751571428571,192.0805506149494L935.1202000000001,199.97812721182672L936.2711857142857,195.45459079663053L937.2736571428571,198.69122258750838L937.3850428571429,204.66194186599452L937.5706857142857,208.28237679102864L940.2068142857142,200.10847153330235L940.6152285714285,200.58831864562563L942.4345285714286,207.88647339108948L944.5508571428571,211.25089963415695L946.2216428571428,216.21139937344017L947.7439142857143,215.87494146543222L948.2265857142856,220.54511781067L948.2637142857144,224.2509671971405L949.0805428571429,218.67130128448898L949.6746,217.13086293518148L953.7958714285714,219.09185459442625L954.5755714285714,225.93853128709705L957.1374428571429,220.2353962866882L957.2488285714286,223.72418133970424L957.2859571428572,220.05165136177195L959.0681285714286,213.98839392000787L959.9592142857143,208.44604278410634L964.8601857142858,210.7093148651255L968.3131428571428,207.29728742031497L970.6893714285715,204.37251047043875L973.1027285714285,212.64546452993068L973.9566857142858,209.63581264251644L977.0754857142857,208.74577594963714L977.1868714285715,204.91073728342758L977.3725142857143,202.431655675809L979.8601285714285,194.54799517385788L980.5284428571429,193.48525796142349L983.3130857142858,190.3449957438415L984.7611,196.63822008109457L990.6274142857143,203.49097123106847L992.2239428571429,203.79166605292704L994.8600714285715,202.66854711539187L995.8254142857143,202.2683029106528L996.6051142857142,183.57909183370032L996.8278857142857,176.1880456438858L1002.6941999999999,176.76288805417542L1011.5679285714286,170.24709601018054L1012.0506,173.45829854103334L1013.3129714285714,168.89646565680042L1014.7238571428571,174.31257422697033L1015.7634571428571,173.28499282914643L1019.9961142857143,187.59489294448912L1021.2956142857142,180.32998313444423L1022.6693714285714,187.96426507830208L1026.0480714285713,185.45772393175L1030.8747857142857,185.75599218050453L1033.6594285714284,192.0086785856501L1037.001,201.19803556249687L1037.1123857142857,207.04251591183862L1042.7188,211.1941045473288L1044.723742857143,201.23480817852194L1045.0950285714284,201.0481574729332L1046.3574,207.28676337290486L1046.7286857142856,196.49648286453746L1047.6940285714286,199.377768707841L1049.3648142857144,209.17288978459428L1050.2187714285715,213.40473611885136L1053.0034142857144,213.27999186981418L1053.7088571428571,213.8350153440825L1055.4539,207.9310486726097L1059.6494285714284,211.8333433961562L1061.4687285714285,209.78837765553172L1064.4761428571428,209.8859740573421L1064.8845571428571,197.9176305757113L1065.6271285714286,203.56149241634188L1068.3375142857142,208.93040830734176L1070.4538428571427,209.85361054788416L1074.4266,212.8543285683417L1079.6617285714287,218.08598587593215L1081.1097428571427,214.75634353405357L1082.1864714285714,200.85717186861132L1085.416657142857,202.6984667664397L1087.1988285714285,207.2363960009239L1087.2730857142856,212.13876470730386L1088.6839714285716,207.51646432107475L1089.5379285714284,206.11639572822492L1092.1740571428572,213.0336582752997L1097.4091857142857,218.25349151774606L1099.7854142857143,217.43130437160798L1103.4240142857143,212.83190232675656L1103.721042857143,212.156166662694L1110.1814142857143,213.81385342090786L1111.406657142857,208.42200567351887L1114.1541714285713,208.64846734208066L1115.6021857142857,212.8925044338736L1118.7952428571427,216.38903170543625L1122.433842857143,216.42757156152084L1122.9165142857144,220.05464136442157L1123.2506714285714,211.2170827612326L1126.1838285714286,217.621981740577L1128.3744142857142,217.5961176313717L1132.6070714285713,214.59342792661508L1133.164,215.36551357448178L1136.0971571428572,209.82955374772732L1139.3273428571429,215.23857578895718L1144.0055428571427,211.4427215366228L1145.3050428571428,208.55544094555046L1148.052557142857,209.96371699389562L1152.6565,208.1924759301653L1153.4361999999999,219.25451497047848L1154.3644142857142,223.21638659512325L1156.7406428571428,215.90071216592128L1157.2604428571428,213.77249767419025L1161.8272571428572,222.73389088656796L1162.2356714285715,226.6746475820546L1165.9485285714286,214.79761043816987L1168.4361428571428,213.28285496554477L1175.8618571428572,213.29657676266885L1180.5771857142859,216.9181329014608L1180.6143142857143,218.38010909750247L1181.6910428571427,218.07249254691695L1181.7653,223.1564734268199L1185.4410285714284,221.52555344604585L1193.3865428571428,219.7208727159992L1193.6093142857144,217.38484848564366L1193.8320857142858,203.1167672894278L1193.9805999999999,200.71010330143068L1194.0177285714285,204.40788350137623L1198.2875142857142,209.40744771110795L1206.8642142857143,209.83512167983602L1210.5028142857143,210.64233186367792L1210.8741,212.11563203714445L1211.134,215.86869350022806L1211.8023142857144,215.30835367975268L1215.5523,215.9894155208274L1218.745357142857,198.1208036341941L1222.1240571428573,204.75034368513795L1222.1983142857143,203.30041995015506L1223.3864285714285,189.47944313649754L1224.0547428571429,198.68169237349787L1234.5621285714285,199.07302469982193L1235.5274714285715,205.7577632153543L1237.1611285714287,198.86844806719242L1241.5051714285714,203.83176958679465L1241.9878428571428,208.51215382670512L1245.4036714285714,206.98071019663837L1246.4804000000001,207.7462529175824L1247.9284142857143,212.70989124565503L1261.2575714285713,219.16630739122334L1262.2229142857143,215.25579929222505L1263.0397428571428,215.09722397275885L1263.7451857142858,220.42082196638634L1264.6734,225.45291538498643L1265.2674571428572,220.81898645653223L1265.713,223.33503751930436L1269.8342714285714,221.34000890795454L1272.1362428571429,222.609266868616L1279.8589857142856,228.1332552721102L1280.1188857142856,224.8639222006062L1280.453042857143,225.68624536576394L1282.3094714285714,227.16676478694134L1282.4208571428571,226.15729518903495L1283.2005571428572,222.82169536688397L1284.351542857143,227.41796693901597L1285.0569857142857,230.17972604572108L1290.1064714285715,233.83183276487125L1293.1138857142857,227.47098731910722L1293.1510142857144,228.38001107740644L1294.4133857142856,222.82254751141187L1299.5,222.57810926334705L1299.685642857143,221.82504556746937L1300.6509857142858,219.75040483396364L1302.3589,219.28341859047745L1302.9158285714286,217.08170692528077L1305.9603714285715,224.6335099071841L1307.5569,203.7402310766071L1308.5222428571428,207.73314986513657L1310.0445142857143,210.02361417574525L1311.6410428571428,221.4673960518854L1316.5420142857142,220.08616856974277L1316.9504285714286,220.7818018428763L1320.737542857143,219.1533126325788L1322.2226857142857,218.7203898371531L1325.7127714285714,204.96866569688697L1326.2325714285712,205.2725497539157L1326.9008857142858,208.92007524987122L1338.559257142857,215.18517467635488L1340.5270714285714,217.71020461220135L1351.7027714285714,226.02730605752228L1353.0765285714285,232.99249826683345L1362.470057142857,235.47732595520083L1363.4353999999998,239.80507801732824L1366.628457142857,244.0093477978797L1369.0418142857143,246.717505593336L1369.301714285714,242.6960518428023L1369.5987428571427,240.70792380871754L1371.3809142857142,243.851446309176L1371.7150714285715,247.42614350185346L1373.905657142857,240.0543374409393L1374.3883285714285,231.83405542552086L1380.2175142857143,233.54225075368188L1381.4427571428573,238.09582373825074L1383.002157142857,244.06240964712524L1389.9080714285715,244.19560224180265L1393.3981571428571,245.4193528855317L1393.8808285714285,243.6746028330572L1396.4427,246.74510446116886L1398.1506142857145,247.39083327743458L1399.9699142857141,239.58249959703778L1402.0491142857143,232.6225316264371L1406.9500857142857,235.54390996034212L1407.2471142857144,239.14028389496372L1410.9599714285714,228.49651456929794L1411.4055142857144,233.0350109443757L1412.1480857142856,236.58322551519058L1416.5292571428572,241.31550665635862L1417.5317285714286,244.6309193104589L1417.6059857142857,236.070515806879L1420.9475571428572,226.81341947645933L1423.5465571428572,230.07734046771736L1424.5490285714284,230.99659961029755L1424.8089285714286,229.9876631632284L1425.8485285714287,226.19081801865752L1430.8980142857142,231.88508345007853L1434.3138428571428,232.21491180643758L1437.9153142857144,224.87497967151714L1438.2494714285713,218.23714075897962L1438.6950142857143,229.1851330778859L1439.4004571428572,230.4297725543494L1440.0316428571427,234.7209554449688L1442.0365857142858,235.2598044221026L1442.4821285714286,228.49672846836276L1443.4103428571427,229.90295813912203L1444.7840999999999,235.33559483297168L1448.6454714285715,230.9939435796438L1449.3509142857142,230.3489191378559L1449.6108142857142,234.91520669574598L1451.3187285714287,237.98508716973285L1453.2494142857145,238.81754212476815L1453.3608000000002,236.6282661265815L1454.6603,237.00399350113761L1461.4177,238.60238428152667L1461.4548285714286,232.4324889256611L1462.2345285714287,236.99740620361368L1464.2766000000001,240.51907528736587L1467.5067857142856,243.97926534422626L1467.5439142857142,244.44440197904277L1468.9548000000002,247.92581052544438L1470.2543,254.04152612422575L1470.5884571428571,239.80850993525823L1477.085957142857,235.78713736308174L1480.6131714285714,228.95002653014166L1488.0760142857143,229.7242487554242L1489.4126428571428,234.83053550549567L1491.7146142857143,232.1942393392362L1494.5735142857143,231.17346894691914L1497.5066714285715,234.0802074007488L1498.2863714285713,239.8709545684652L1498.5834,243.9715619183973L1499.0660714285714,247.5004165667845L1499.1403285714287,248.85800637185272L1503.0017,239.89852951599931L1503.075957142857,240.99486357918238L1506.306142857143,238.03406750461707L1506.4175285714286,233.0127219243139L1513.7689857142857,223.72667500704213L1514.0288857142857,226.55347911802792L1516.4793714285713,232.53690545927626L1516.6650142857143,223.59082454556886L1520.5263857142859,229.91864507330533L1521.1575714285714,230.66764818991862L1523.6451857142858,234.65786899134946L1524.387757142857,239.56828720966152L1528.3605142857143,240.5871587712414L1530.8481285714286,243.93517852729437L1531.4050571428572,245.87963650214436L1531.9991142857143,244.81241402622516L1532.4817857142857,246.8142802286554L1533.7812857142858,181.2338229126238L1534.7466285714288,194.1732362910459L1543.3975857142857,203.34314094544044L1545.6253,215.83367961172854L1546.7391571428573,224.59739161019522L1547.4446,228.47156124987433L1550.7490428571427,226.84309517427172L1552.1970571428571,229.58405110015522L1552.3455714285715,223.962840918561L1552.6797285714285,227.20848028986973L1553.8307142857143,235.32265566620177L1555.9470428571428,210.51722565600997L1561.3678142857143,205.33371659104367L1565.6747285714284,211.02780368809553L1566.8999714285712,217.6599880819631L1570.9469857142858,224.393443867724L1576.2935,231.1069099658283L1577.5558714285712,237.4040864175418L1587.7662285714287,235.67467960970245L1589.3627571428572,240.13309140866724L1591.9246285714285,238.6354515026461L1603.6572571428574,241.67319185730776L1605.6993285714286,242.01035502669544L1606.2562571428573,239.4120123998266L1610.0805,237.03924488685894L1612.828014285714,216.3262654429074L1613.4220714285714,222.59247095887042L1613.8304857142857,229.45394556668467L1615.0928571428572,227.95401326884755L1618.0631428571428,228.8698739225844L1620.327985714286,227.09104617726481L1620.3651142857143,235.83997245649985L1622.5185714285715,238.4888812547365L1623.2611428571429,236.32627984485384L1624.8576714285714,237.4698228523174L1627.7165714285716,233.8734741946165L1632.9516999999998,229.2031493396413L1633.8056571428572,216.4533266617624L1633.8427857142858,219.18878443050065L1638.8922714285716,225.7140780815993L1642.4566142857143,227.59383143627184L1644.6472,227.2403374854865L1645.0556142857145,230.57000900445354L1655.6001285714287,236.01749570422905L1659.7214,242.41157300524915L1660.761,248.29002110521535L1662.6545571428571,246.98656768932892L1666.2560285714287,254.38361034627252L1667.4070142857142,254.6946527230537L1667.5926571428572,255.14250036120066L1668.2238428571427,263.03548261845816L1671.5282857142856,262.75269557606674L1679.1025142857143,265.7705190770842L1681.7757714285713,267.91761683322085L1685.6742714285715,254.6174164430504L1688.9044571428572,257.7164252865382L1689.3500000000001,256.5763655439221L1690.5381142857143,248.7431910075097L1691.5777142857144,254.1780082382294L1694.8079,254.46444463259712L1695.1791857142857,254.4630961218563L1695.4019571428573,251.84745693519102L1695.5504714285712,253.54731894221337L1696.7014571428572,257.2588931516318L1696.7757142857142,257.4694577384886L1697.2955142857143,255.75411661603164L1697.5182857142856,263.1791184703724L1700.2286714285713,263.2425215778857L1709.3994285714284,267.6313922389349L1712.6667428571427,262.1902865888469L1713.6320857142857,265.40594511602063L1716.9736571428573,267.34774331317885L1717.9761285714285,260.6093069207353L1720.5751285714284,254.5950610788998L1723.0998714285715,253.58454793592213L1726.1444142857144,247.35412177787754L1727.926585714286,246.11890446913893L1728.5206428571428,245.422780284353L1730.5255857142859,246.84224439341386L1736.5775428571428,250.3636620645938L1736.8745714285715,246.20166551494808L1739.2508,245.7512644556846L1740.2532714285717,245.1986304495879L1745.2656285714286,250.18783423993406L1745.5255285714286,254.0106245539111L1746.1938428571427,252.53746542031135L1750.0180857142857,259.007409991962L1750.9091714285717,254.31829796205454L1751.2804571428571,256.30486127647254L1751.8002571428572,251.89813946644037L1754.1022285714284,255.00891863650975L1757.6294428571427,254.45837973659215L1761.7507142857141,237.63086768695285L1762.4190285714285,238.61772620706284L1762.7903142857144,239.59807121631945L1763.5700142857143,239.54355718293584L1767.6170285714284,238.37101065196737L1770.2160285714285,232.5083428735436L1773.8546285714287,237.29908747890823L1779.6095571428573,241.81879180145748L1780.8348,244.13562561215207L1781.4659857142856,227.4389938705803L1782.9140000000002,223.3946355990824L1792.4931714285713,219.70140938840325L1799.7703714285713,217.52377609949122L1801.4040285714284,220.88077892177532L1802.7035285714287,224.5883413440328L1803.8173857142858,227.89606123626703L1804.7084714285713,222.95760762926636L1805.8965857142855,223.54456324917297L1808.569842857143,228.42928180724851L1809.5723142857144,235.3147225701605L1809.7208285714285,240.24008795668004L1810.2777571428571,240.18700359240873L1811.2431,245.1906901407944L1812.0599285714284,243.741945103912L1818.4089142857142,241.16833226657633L1818.5574285714285,243.41911925026142L1819.0401,229.48597196140548L1822.0103857142858,225.68341536520347L1822.1589,226.09688307283938L1823.4955285714286,233.42051249855265L1826.7257142857143,239.83163450205384L1826.9856142857143,246.99571530665045L1828.6192714285714,243.41508848262612L1830.5870857142856,251.65838646876279L1832.0350999999998,251.9663194791416L1834.299942857143,249.4223818390682L1837.9014142857143,247.41470603647258L1839.3123,250.605569991425L1841.0202142857145,250.63759088615453L1841.0573428571429,248.22183058720915L1843.2479285714285,248.67447979544517L1846.3667285714284,252.86125040458975L1847.2578142857144,243.20676415431538L1849.0771142857143,240.66835581834854L1849.5969142857143,246.35591988183958L1855.091942857143,240.92044408612767L1856.2058,240.2421504747225L1858.3963857142855,240.4883818336376L1860.289942857143,227.15486221809252L1867.9384285714286,228.13429587589675L1868.2725857142857,233.52601186139904L1870.2404000000001,236.23490674789838L1875.252757142857,241.5538250567513L1876.5893857142855,244.96736299360532L1880.4136285714285,243.6447644692325L1880.8591714285715,247.2862039387803L1885.0547,240.54487934879361L1887.5794428571428,241.22530217072693L1888.878942857143,245.29871472576625L1894.4482285714287,251.83606892322427L1894.7823857142855,256.31445479360167L1895.7848571428572,252.9590710639693L1896.8987142857143,253.7769623343477L1898.1610857142857,257.62680090218396L1899.8318714285713,258.87687653697094L1900.1289,257.7893445296544L1901.1685,254.01588821940385L1905.3640285714287,256.2719119455433L1905.9580857142857,255.77443886063523L1908.2600571428572,259.89208711491483L1908.8912428571427,259.9545457766401L1912.0843,258.858162992265L1912.418457142857,259.54627639203875L1919.3986285714284,258.63690522064525L1921.3293142857142,253.48058655719646L1932.0223428571428,251.9925067688831L1932.8020428571429,251.87399485906158L1938.0371714285714,249.45137713496064L1939.6336999999999,254.0360908445615L1941.6015142857143,258.69874346775185L1941.8614142857143,263.38682639016747L1942.6039857142857,259.7002007896098L1943.5693285714287,252.65215545537438L1946.9108999999999,242.20822635066904L1948.8415857142857,249.03503294936382L1951.0693,252.05271162153753L1951.3292000000001,252.3983707990584L1952.4059285714286,248.55134311480165L1954.373742857143,254.59474038790046L1954.522257142857,262.40415495374907L1955.0049285714285,264.65192630918165L1955.5247285714286,260.61821909964L1956.4158142857143,256.9967585091143L1956.861357142857,257.93336691201705L1958.0494714285715,251.48462657315514L1958.3093714285715,252.951544685871L1958.8291714285715,257.7164044376631L1963.0247,261.54613986779214L1963.4331142857143,260.5777946614697L1963.655885714286,257.72343721945L1965.1781571428573,244.90028044625444L1965.3266714285712,241.72839256738933L1965.8464714285715,233.9421043084328L1966.7004285714286,239.504813145119L1970.6360571428572,239.39955259944875L1972.2325857142857,241.58284956434176L1974.534557142857,226.79717144253365L1975.1286142857143,238.26015619028848L1976.2424714285714,239.28469304106392L1983.4454142857144,235.44823887130642L1985.1162000000002,239.83279753312806L1986.8983714285716,244.0403924285802L1987.1953999999998,244.27810942730724L1991.2052857142858,249.34475260615795L1991.9478571428572,252.92245117108735L1999.1508,254.7951209500121L2004.274542857143,253.11599491227219L2015.0418285714286,248.9254308150604L2017.0467714285714,244.62719274551216L2017.9749857142856,245.85430292286574L2022.6531857142857,248.44265865239234L2025.6606,250.3253368780702L2027.925442857143,256.41283098919746L2028.6308857142856,261.53944993430576L2030.8214714285714,267.93394095259976L2035.1283857142857,271.58745579916626L2038.0615428571427,275.2904784039456L2042.2942,277.34898057685604L2044.1506285714286,273.64309844654537L2045.5243857142857,273.3939119437115L2047.6035857142858,276.15428259275814L2048.197642857143,279.30020214941067L2049.3115,281.4745453113675L2052.0218857142854,279.04992488341003L2056.254542857143,280.63776333252855L2059.5218571428572,265.46036014976096L2062.0466,269.74126546209766L2065.4253,268.3510005937991L2065.499557142857,273.44134116695784L2065.7223285714285,269.06337675365444L2072.4797285714285,268.5951795719633L2078.4202999999998,268.9972414115087L2079.7569285714285,267.7107207854088L2084.026714285714,270.4083420156079L2084.1752285714283,268.45711914569176L2087.628185714286,273.4082916750142L2089.6702571428573,265.5122178375211L2091.8979714285715,268.04876630443624L2095.425185714286,268.788546733918L2102.9994142857145,269.9119450029105L2107.046428571429,269.82757262065934L2108.6800857142857,270.4530751297572L2108.8286,275.2021224388476L2109.1256285714285,276.80902816724563L2114.6206571428575,274.1501133362832L2116.3657000000003,277.64369408109144L2118.816185714286,283.2273378892632L2118.8904428571427,282.20244183087516L2125.128042857143,283.0112926196991L2127.170114285714,278.4218854936641L2128.209714285714,283.5430582427516L2129.434957142857,286.7398294850611L2130.326042857143,282.33337627526555L2130.6973285714284,280.5714095274042L2135.264142857143,276.703045748061L2135.9324571428574,271.84280316591156L2138.7171,273.08362259338287L2140.127985714286,276.1428223809028L2141.6502571428573,268.2175134213262L2145.4002428571425,268.02001972539927L2146.1056857142858,268.63389988149976L2149.9670571428574,268.8580968536205L2151.1923,265.0418376915773L2153.5685285714285,266.5133178577026L2153.9398142857144,266.3070593056406L2156.8729714285714,264.28008637987887L2157.4299,263.7225084585328L2158.803657142857,268.4427329122194L2168.3457000000003,258.5043081441989L2168.6427285714285,255.312509941635L2170.833314285714,260.18374276093346L2171.3531142857146,258.7745115492586L2177.5164571428572,262.79528849482085L2179.669914285714,266.997478465999L2179.929814285714,271.621451891239L2180.0783285714288,274.6634404701917L2180.226842857143,273.3628077700865L2184.051085714286,272.9810967682566L2185.4619714285714,276.15813251976925L2186.687214285714,274.0709227321396L2187.0956285714283,270.3762756814512L2191.4396714285717,262.2979351088343L2193.2589714285714,259.6085233111953L2193.8159,264.9678865933322L2194.5956,267.06558194867245L2195.152528571429,271.7862976280279L2197.380242857143,268.6352340045175L2199.5337,271.67174553796684L2204.2490285714284,271.7529763506311L2207.8876285714286,271.5440731384625L2212.454442857143,249.29570344074978L2213.7910714285713,250.43768766457552L2214.6079,255.41710817616263L2216.241557142857,257.2130560725505L2216.7242285714287,262.1854945445822L2217.2811571428574,264.4913068284775L2220.5484714285717,266.98818094744905L2222.6276714285714,272.14028713274837L2225.3751857142856,267.6115321922366L2227.045971428571,269.2429766182026L2234.8801,269.27584738860946L2238.8157285714283,273.60488572395354L2238.927114285714,274.22178291649L2239.892457142857,274.9695746107855L2241.043442857143,277.1329168305711L2247.689457142857,274.7743341030473L2247.8751,276.26408844775113L2248.1721285714284,274.9651931337023L2254.1869571428574,279.40515875748207L2256.154771428571,278.1845257808186L2257.2315000000003,275.74016202140535L2260.0161428571428,274.37713762124326L2263.4691,272.8615147269999L2263.5804857142857,273.9125189245753L2268.221557142857,268.22996065340527L2276.129942857143,269.90525090637993L2277.3551857142857,271.865728907948L2278.9145857142857,275.90914249896315L2280.1027,275.6153448781692L2280.8824,273.83792338894625L2283.2214999999997,275.6367723441297L2283.667042857143,271.3985631775341L2284.186842857143,274.58381161598567L2284.446742857143,270.2509562946419L2284.521,268.235733928134L2287.4170285714285,270.41605689486687L2294.0630428571426,273.9646729928772L2295.288285714286,278.3453533829702L2296.624914285714,279.6661187618927L2297.8130285714287,280.7915895755074L2301.9343,287.9779631720396L2303.3080571428573,277.67628312013846L2310.7709,278.7017708897652L2311.6619857142855,278.3295857606465L2313.0728714285715,279.3248614521426L2313.295642857143,279.20925602520964L2314.1124714285716,279.5029424918572L2316.7486,282.4220422176211L2319.3847285714287,285.40463359332784L2319.9416571428574,287.85670994714445L2321.204028571429,286.7223469497809L2323.320357142857,284.30213392423383L2327.4416285714287,284.89100309449714L2328.8525142857143,286.43366096788264L2330.189142857143,283.50661026408704L2334.2732857142855,284.2841683466875L2342.4415714285715,284.16135447214515L2350.0529285714288,282.16816462151246L2351.9464857142857,273.9351141168638L2355.4365714285714,272.20463580392806L2359.7434857142857,279.52174080447895L2361.785557142857,282.3092486984182L2362.8994142857146,279.078880314334L2363.0479285714287,281.3581391475724L2364.6073285714283,282.11790157003276L2365.795442857143,285.218998242587L2366.7979142857143,287.3225919741645L2367.4291000000003,284.7952118878789L2367.9860285714285,285.54228448288734L2368.3573142857144,283.5031993127526L2371.476114285714,284.3695595609574L2376.7483714285713,284.2130427979114L2377.3424285714286,286.9107778137679L2377.453814285714,290.43858779872187L2377.5652,279.3377995802139L2378.3820285714287,271.3462781413006L2382.6518142857144,272.90371899056504L2386.0305142857146,276.38844416636437L2387.775557142857,272.21365136767054L2389.5577285714285,273.60241546320464L2392.268114285714,271.6013965121434L2397.6146285714285,275.6257825127304L2399.3968,274.8810669474911L2399.990857142857,276.28568220110645L2401.104714285714,277.5155390277678L2402.9240142857143,274.60338556041745L2403.4066857142857,267.3164071278357L2403.5923285714284,267.747238534228L2404.1121285714285,269.6870882586247L2406.5997428571427,270.8967621687077L2408.2334,267.04599144683016L2409.2358714285715,263.2878233296056L2413.4685285714286,265.06548214234203" style="fill: none;" fill="none"></path></g></g></g></g><g opacity="0.2"><g><g><g><path stroke="rgb(255, 112, 67)" stroke-width="2px" d="M191.8433285714286,-39.99501686096195L194.14530000000002,103.28674550056458L194.33094285714287,114.52217037677765L195.11064285714284,-38.63710026741031L195.77895714285714,-10.555511283874544L197.07845714285713,109.24510867595673L197.1527142857143,95.95606870651245L197.44974285714284,74.98523576259613L203.2418,37.05466217994691L205.54377142857143,148.29644222259523L207.14029999999997,173.257301402092L207.40019999999998,129.8904652118683L209.18237142857143,198.91304798126222L209.66504285714288,162.01223344802858L212.15265714285712,-77.06607227325443L212.44968571428572,47.53022153377534L215.41997142857142,61.78598005771638L215.64274285714285,103.73019189834595L216.68234285714286,58.137021374702464L221.6947,-137.87212185859684L223.29122857142858,27.053055596351633L225.2219142857143,-7.055434513092075L226.6328,192.53354365825655L229.45457142857143,84.88124163150788L232.4619857142857,91.16773982048035L234.50405714285714,-33.968678998947176L234.61544285714285,2.6180145263671957L235.13524285714288,90.88876647949219L235.28375714285716,-12.57095961570743L237.0659285714286,128.6669659137726L237.32582857142856,-13.239779162406954L238.95948571428573,65.18455667495728L240.07334285714288,116.77961940765381L243.2664,175.3519784331322L244.45451428571428,43.75732226371766L248.42727142857143,10.819542360305794L250.0238,114.36812896728516L250.1351857142857,-21.250856208801302L255.33318571428572,-3.1941478729248383L256.8183285714286,221.63007785081865L257.9321857142857,111.60058815479279L261.2366285714286,142.1721865653992L263.46434285714287,191.64221234321596L266.84304285714285,133.21906192302706L267.2885857142857,188.0904842734337L268.4767,82.57438309192658L269.6276857142857,174.15424282550813L271.2984714285714,67.28787417411804L274.3430142857143,-67.41240506172184L276.0880571428571,172.8112414598465L276.7192428571429,-8.008003878593478L276.7935,78.70768911838532L276.97914285714285,75.00823945999146L277.90735714285717,-6.5220010757446625L277.94448571428575,2.0822153806686483L278.39002857142856,80.89709587097168L278.5756714285714,124.37597651481629L279.6524,222.1853659272194L285.33307142857143,106.29290742874146L287.37514285714286,53.65418429374696L295.80332857142855,153.0662509918213L298.4394571428572,228.30441702604296L298.55084285714287,258.3141484379768L303.00627142857144,106.29687280654908L305.56814285714285,114.61934466362L306.1622,47.31874973773957L306.19932857142857,66.73871440887451L308.35278571428574,140.50008137226106L314.85028571428575,183.64753754138948L319.97402857142856,86.1893206357956L320.0482857142857,80.97455592155457L321.9047142857143,183.0140459060669L324.5408428571429,52.292482566833506L327.25122857142856,178.95833183526995L327.51112857142857,64.88426942825318L331.48388571428575,105.01664156913758L332.5234857142857,136.42324490547182L335.4937714285714,139.03751034736635L337.79574285714284,84.2680274963379L341.4343428571429,97.32376356124878L342.7709714285714,207.3091384291649L345.9269,178.96600348949434L349.00857142857143,115.79694921970368L352.4244,143.09427208900453L353.05558571428577,144.88605959415437L353.8352857142857,116.7784478187561L358.81051428571425,83.50879282951355L358.9590285714286,178.43825901746752L359.2560571428571,127.39588208198548L363.4144571428572,104.76321787834168L363.9342571428571,-14.115879821777376L365.34514285714283,2.2175113677978597L367.3500857142857,150.28733224868776L370.20898571428575,-740.7130539894105L373.14214285714286,210.86874092817308L373.2164,133.47597784996034L375.2213428571429,27.75927586555482L376.2609428571429,201.74516136646272L384.0950714285715,178.32087482213976L384.6148714285714,190.59784222841265L386.8797142857143,170.29264075756075L391.6693,117.6723025560379L396.4960142857143,106.61847395896912L398.12967142857144,-36.41784052848819L401.28560000000004,140.63116414546968L403.3648,1.7404944419860924L403.62469999999996,156.56084157228472L404.96132857142857,169.54067219495775L408.043,190.9474150657654L413.27812857142857,41.37994308471681L415.84000000000003,67.17711396217346L416.54544285714286,56.830271673202525L419.14444285714285,197.86801321506502L419.9984,150.4851279973984L422.3746285714286,175.04343373775484L427.7211428571428,160.71176977157594L429.7260857142857,241.63926161527635L430.80281428571425,146.0807648420334L434.2557714285714,143.33208210468294L434.36715714285714,31.05590171813966L434.8127,90.28476734161377L440.12208571428573,145.89554114341738L444.2804857142857,115.56423110961914L445.2458285714286,155.80028886795046L449.7755142857143,95.90722246170044L451.29778571428574,190.46384174823763L457.08984285714286,193.90732176303865L459.7259714285714,159.6345275759697L462.25071428571425,155.99481768608095L462.62199999999996,139.93003578186037L462.7333857142857,93.21425778865814L463.2903142857143,91.79814476966858L464.5155571428572,179.2732188820839L471.27295714285714,183.96666033267977L474.80017142857145,164.93505485057833L475.17145714285715,182.9022154927254L476.4709571428571,22.540365529060374L482.33727142857146,101.05581493377686L485.1219142857143,78.71712942123413L489.35457142857143,186.20422614812853L490.8768428571429,157.35201330184938L496.1491,90.02091200351715L496.3347428571428,131.58960707187654L496.6689,233.3770477294922L500.1218571428571,211.73005027770998L501.16145714285716,65.7076711177826L501.53274285714286,242.84455622434618L504.9857,126.57331402301789L506.24807142857145,61.34334475994111L508.47578571428573,276.3188224554062L515.2703142857142,85.57401115894318L516.3470428571429,179.911340546608L517.1267428571429,187.75946534872057L517.3866428571429,181.67285825014116L519.5400999999999,191.28715331554415L521.8420714285714,193.61782665252687L529.4534285714285,204.03835512399675L531.5326285714285,40.5473038673401L532.7207428571429,47.73919243812562L535.9509285714286,-25.365589070320162L537.1761714285714,99.60268421173096L540.3692285714286,55.29866702556611L540.8519,204.5548117876053L544.1934714285715,182.28071011304857L545.0474285714286,75.65887684822083L545.7157428571428,182.2578979253769L551.0993857142857,174.91177643537523L553.4756142857143,215.11080522537233L559.0820285714285,311.8426877081394L560.0473714285714,218.00192613601686L567.1760571428572,150.0125721216202L567.4359571428571,123.4226185798645L571.7428714285714,220.05771542787554L574.7131571428571,171.3234362125397L576.3096857142857,89.90465433597565L579.4656142857143,156.79478759765627L580.6166,103.60503466129303L581.2106571428571,157.61166669130327L583.3269857142857,159.79594774246218L585.0349,153.659243953228L585.0720285714285,142.37937755584719L585.8888571428571,183.1694391489029L588.1537,220.56764949560167L588.4878571428571,166.65539796352388L590.4185428571428,56.02110929489137L590.5299285714285,157.35393966436388L591.9408142857143,150.16803295612337L592.7947714285714,223.3712054014206L593.0175428571429,156.35920436382295L593.0917999999999,233.2290557742119L594.7997142857143,176.25134189128877L597.8442571428571,169.9538375258446L598.5497,151.24625523090364L598.8838571428571,191.0078420162201L601.4086,157.57229454517366L601.4828571428571,123.49620337486267L603.7105714285715,228.94306815862657L609.6140142857142,171.64524013996126L611.5818285714286,177.3976515054703L612.3244,157.46633334159853L613.4753857142857,152.11123706102373L613.8095428571428,310.27495813071727L615.0719142857142,155.23112196922304L618.1164571428571,178.2900868177414L619.4902142857143,146.89826352596285L622.2377285714285,239.8588182449341L626.4703857142857,273.8769270300865L630.0347285714286,267.9197917699814L630.2203714285714,118.80441792011261L631.557,147.21434469223024L632.7079857142858,181.38825227022173L636.3094571428571,151.38952703475954L637.2748,176.00492520332338L638.0173714285714,151.35406394004823L641.953,0.7778313875198448L646.2227857142857,164.03419311046602L648.1906,220.62038226127626L656.0989857142857,222.81278557777406L663.7474714285714,123.24165315628052L666.0494428571429,212.4216707468033L668.9454714285714,232.27617098093035L669.5766571428571,201.49401326179506L670.5791285714286,164.86489470005037L671.3588285714286,-90.14650182724003L671.8043714285714,272.32242007255553L672.3612999999999,222.33076686859133L677.1880142857143,146.1244741201401L683.2399714285714,69.09090442657471L683.3884857142857,161.08649797439577L687.0270857142857,227.14147986173631L688.5864857142857,33.18048806190492L690.4800428571428,218.1589641094208L691.3340000000001,248.01423729658129L693.5245857142858,115.02106447219849L698.3884285714287,237.78813625574114L701.1359428571428,111.24338872432709L708.4131428571428,152.65429104566576L713.6482714285714,229.89988453388216L716.0987571428573,119.94025082588196L716.3586571428572,229.9614154815674L717.3240000000001,199.8516709327698L717.9923142857143,167.35779930353166L720.1829,264.1791675209999L722.0393285714287,215.0237020969391L728.9081142857143,177.86669261455538L729.1308857142857,223.60494865179064L730.2447428571429,115.16985626220703L730.5789000000001,174.77580453157427L730.9501857142857,187.0623248934746L734.3660142857142,109.58777589797974L734.7001714285714,240.28897161483766L735.4798714285714,202.46165556907656L737.8561,216.62859864234926L738.5615428571429,154.47914214134218L745.9129999999999,253.7536260008812L749.2545714285715,241.89169396162035L752.4476285714286,209.62888444662096L754.6010857142857,239.57207186222078L760.1332428571428,196.78217561244966L760.2075,201.59044404029848L761.3956142857143,205.75382037162782L762.5466,158.54742826223375L770.0465714285714,139.94247264862062L770.9376571428571,136.538218331337L771.2718142857142,187.70766760110857L773.3138857142858,244.7475207567215L779.4401,254.9280424833298L783.2272142857144,240.5329662680626L784.0069142857143,186.71829457283022L788.9450142857143,256.6345011413097L791.6182714285715,179.91475392580034L792.4351,172.82185335159303L793.0662857142858,200.37713981866838L794.7742000000001,171.83663721084596L798.4499285714286,278.5284841775894L805.5786142857144,151.96764982938768L809.6998857142856,189.26481063365938L809.7370142857143,168.4682515382767L811.5191857142858,198.882823240757L813.0785857142857,194.23730428218843L819.2790571428571,233.54177988767626L820.4300428571428,193.1887322187424L821.6924142857143,150.78455908298494L825.7022999999999,185.16237945556642L826.9275428571428,103.54886598587036L827.6701142857144,149.47560138702394L828.5611999999999,173.85593826770784L828.5983285714286,311.0136646449566L828.7097142857142,225.63728363513948L829.4151571428572,190.0322914838791L831.8656428571428,177.30519737005235L833.3136571428571,213.19627125263216L833.6849428571429,190.78244633674623L836.9893857142857,253.18601934313776L837.5091857142858,199.9864261865616L838.5859142857144,233.53753287792208L838.8829428571429,190.97504879236223L839.9596714285715,227.91708297729494L843.6354,231.40038574934007L852.2121000000001,260.01660228967665L853.2516999999999,222.87535293102266L854.6254571428572,159.49239356517793L855.9249571428571,224.4409674525261L856.3705,46.04897267818452L858.7467285714285,194.58800364732744L863.7590857142858,172.95676631927492L865.7640285714285,95.92511172294617L870.7021285714286,231.9859098315239L870.7392571428572,267.0444909453392L875.9372571428572,229.0896970152855L880.4298142857143,240.39342327117922L880.6897142857143,217.4041679620743L885.3307857142858,207.14864201545717L889.5263142857143,109.72960574626923L891.2713571428571,210.5861964941025L892.8678857142858,153.67232294082643L895.3926285714285,291.2403645336628L897.3604428571429,187.8995941400528L901.1475571428572,164.4551089525223L910.5782142857144,258.8570334434509L910.8009857142857,234.50430775880815L914.848,204.1740904569626L915.3678,210.2096207857132L918.2267,199.21410126686098L918.4494714285714,222.45372737646105L921.6425285714286,233.56230522394182L922.4964857142857,255.7143757760525L925.0954857142857,56.471742939949046L925.9123142857144,161.09443999528887L927.1375571428572,229.30157436132433L928.0286428571429,197.35222120285036L929.5137857142857,162.71311397552492L930.1821,111.80023140907288L930.4048714285715,235.01094110012056L930.5162571428572,245.69780327081682L933.3380285714286,204.81640280485155L933.3751571428571,153.22328896522524L935.1202000000001,256.814785015583L936.2711857142857,162.89995987415315L937.2736571428571,221.98435957431795L937.3850428571429,247.63154454231264L937.5706857142857,234.33763797283174L940.2068142857142,141.28315336704256L940.6152285714285,204.04164458513262L942.4345285714286,260.4092591822147L944.5508571428571,235.46373767852785L946.2216428571428,251.91073356270792L947.7439142857143,213.45354766845705L948.2265857142856,254.155075442791L948.2637142857144,250.9209324538708L949.0805428571429,178.51600069999697L949.6746,206.044757437706L953.7958714285714,233.20456506013872L954.5755714285714,275.21215535402297L957.1374428571429,179.1915230870247L957.2488285714286,248.83199508190157L957.2859571428572,193.62147660255434L959.0681285714286,170.35281987190248L959.9592142857143,168.55928624868395L964.8601857142858,226.99745328426363L968.3131428571428,182.74187679290773L970.6893714285715,183.32370586395265L973.1027285714285,272.1836093187332L973.9566857142858,187.97618676424028L977.0754857142857,202.34042991399767L977.1868714285715,177.31103278398515L977.3725142857143,184.59039623737337L979.8601285714285,137.81148762702944L980.5284428571429,185.83703441619875L983.3130857142858,167.74540371894838L984.7611,241.92880178689958L990.6274142857143,252.8083114743233L992.2239428571429,205.95568288564684L994.8600714285715,194.58577312231066L995.8254142857143,199.38785691261293L996.6051142857142,49.07804818153382L996.8278857142857,122.99674601554871L1002.6941999999999,180.89986867904665L1011.5679285714286,123.35475654602051L1012.0506,196.56842823028566L1013.3129714285714,136.06622571945192L1014.7238571428571,213.2907981991768L1015.7634571428571,165.88977588415148L1019.9961142857143,290.5792560696602L1021.2956142857142,128.04645187854769L1022.6693714285714,242.9060646414757L1026.0480714285713,167.41884584426882L1030.8747857142857,187.9025456428528L1033.6594285714284,237.00752009153368L1037.001,267.331276756525L1037.1123857142857,249.10361219644548L1042.7188,241.07193095684053L1044.723742857143,129.56052775382997L1045.0950285714284,199.70488436222078L1046.3574,252.1842714071274L1046.7286857142856,118.841841173172L1047.6940285714286,220.11357994079592L1049.3648142857144,279.66564638614653L1050.2187714285715,243.86015481948854L1053.0034142857144,212.38224227428438L1053.7088571428571,217.82936460971834L1055.4539,165.4418459057808L1059.6494285714284,239.91707099676134L1061.4687285714285,195.07132912874224L1064.4761428571428,210.58834816217424L1064.8845571428571,111.78479797840119L1065.6271285714286,244.17879320383074L1068.3375142857142,247.56899971961977L1070.4538428571427,216.49763978719713L1074.4266,234.44965989589693L1079.6617285714287,255.7367655158043L1081.1097428571427,190.79383553266527L1082.1864714285714,100.82870693206787L1085.416657142857,215.94975299835207L1087.1988285714285,239.89460803270342L1087.2730857142856,247.41974605321886L1088.6839714285716,174.25105662345888L1089.5379285714284,196.04049224853517L1092.1740571428572,262.81526906490325L1097.4091857142857,255.81917665600778L1099.7854142857143,211.514252614975L1103.4240142857143,179.73128761053087L1103.721042857143,207.29308540821077L1110.1814142857143,225.7437630414963L1111.406657142857,169.6183800816536L1114.1541714285713,210.27824885845186L1115.6021857142857,243.43565661907198L1118.7952428571427,241.55256403684618L1122.433842857143,216.7049321651459L1122.9165142857144,246.15765191316606L1123.2506714285714,147.61563642024996L1126.1838285714286,263.71625472307204L1128.3744142857142,217.40998084545137L1132.6070714285713,192.98390693664552L1133.164,220.92199881076814L1136.0971571428572,169.98879368305208L1139.3273428571429,254.16579998731615L1144.0055428571427,184.12501634359361L1145.3050428571428,187.77648718357088L1148.052557142857,220.09868724346163L1152.6565,195.44534761905672L1153.4361999999999,298.8649270802736L1154.3644142857142,251.72887254953386L1156.7406428571428,163.25184209346773L1157.2604428571428,198.45633108615877L1161.8272571428572,287.2265403985977L1162.2356714285715,255.03517527580263L1165.9485285714286,129.32188410758974L1168.4361428571428,202.38158197402956L1175.8618571428572,213.3953287124634L1180.5771857142859,242.98146314620973L1180.6143142857143,228.90154434442522L1181.6910428571427,215.8586619615555L1181.7653,259.74446697235106L1185.4410285714284,209.78827686309816L1193.3865428571428,206.73308844566347L1193.6093142857144,200.573133122921L1193.8320857142858,100.43336327075959L1193.9805999999999,183.39001328945162L1194.0177285714285,231.019777071476L1198.2875142857142,245.38791800737383L1206.8642142857143,212.91297204494478L1210.5028142857143,216.4515985965729L1210.8741,222.7185627937317L1211.134,242.87843091487886L1211.8023142857144,211.2757441520691L1215.5523,220.89082778692247L1218.745357142857,69.5253836631775L1222.1240571428573,252.46129585504534L1222.1983142857143,192.86572290658953L1223.3864285714285,90.01372475624085L1224.0547428571429,264.90771557092665L1234.5621285714285,201.88933439254762L1235.5274714285715,253.86596335172655L1237.1611285714287,149.28796691894533L1241.5051714285714,239.55141134262087L1241.9878428571428,242.1955748319626L1245.4036714285714,195.95933718681337L1246.4804000000001,213.25565053224565L1247.9284142857143,248.4318129837513L1261.2575714285713,265.63133506178855L1262.2229142857143,187.11296231746675L1263.0397428571428,213.95600159168245L1263.7451857142858,258.73327310085295L1264.6734,261.66748933196067L1265.2674571428572,187.46989138126375L1265.713,241.44235582351686L1269.8342714285714,206.98234398365022L1272.1362428571429,231.74376268386843L1279.8589857142856,267.88786033988L1280.1188857142856,201.33544321060182L1280.453042857143,231.60427601337435L1282.3094714285714,237.82165045738222L1282.4208571428571,218.89242382049562L1283.2005571428572,198.81631304025652L1284.351542857143,260.49605251550673L1285.0569857142857,250.0553366661072L1290.1064714285715,260.11502702236174L1293.1138857142857,181.6937553405762L1293.1510142857144,234.92200173139574L1294.4133857142856,182.82703102827074L1299.5,220.8189553141594L1299.685642857143,216.4054560184479L1300.6509857142858,204.81979365348818L1302.3589,215.92264873981478L1302.9158285714286,201.23660166263582L1305.9603714285715,278.9817313671112L1307.5569,53.37712604999543L1308.5222428571428,236.46907360553743L1310.0445142857143,226.50744749307634L1311.6410428571428,303.82510496377944L1316.5420142857142,210.1458593130112L1316.9504285714286,225.78808064460756L1320.737542857143,207.43352962732317L1322.2226857142857,215.60476512908937L1325.7127714285714,106.00133950710297L1326.2325714285712,207.45951862335207L1326.9008857142858,235.17029972076418L1338.559257142857,260.273349237442L1340.5270714285714,235.88214136362078L1351.7027714285714,285.8831672787666L1353.0765285714285,283.11904547810553L1362.470057142857,253.35993833541872L1363.4353999999998,270.9507035136223L1366.628457142857,274.2663057267666L1369.0418142857143,266.20736251473426L1369.301714285714,213.75476993322374L1369.5987428571427,226.3999204158783L1371.3809142857142,266.4745016813278L1371.7150714285715,273.1522429704666L1373.905657142857,187.0015036582947L1374.3883285714285,172.67497665882112L1380.2175142857143,245.83565647602083L1381.4427571428573,270.8666194796562L1383.002157142857,287.00226561427115L1389.9080714285715,245.15415222644808L1393.3981571428571,254.22634522318842L1393.8808285714285,231.11812294721605L1396.4427,268.8426489651203L1398.1506142857145,252.03796361088754L1399.9699142857141,183.38809819221498L1402.0491142857143,182.5335818052292L1406.9500857142857,256.568255674839L1407.2471142857144,265.02238483428954L1410.9599714285714,151.89627302885057L1411.4055142857144,265.69730452895163L1412.1480857142856,262.11873693466185L1416.5292571428572,275.3724151968956L1417.5317285714286,268.49102021455764L1417.6059857142857,174.46367747783663L1420.9475571428572,160.19267703294756L1423.5465571428572,253.56687022447588L1424.5490285714284,237.61225147247316L1424.8089285714286,222.7266287326813L1425.8485285714287,198.8659816503525L1430.8980142857142,272.8651248335838L1434.3138428571428,234.58859456777574L1437.9153142857144,172.05153365135195L1438.2494714285713,170.46646399497988L1438.6950142857143,307.9747827172279L1439.4004571428572,239.38709599971773L1440.0316428571427,265.60340280532836L1442.0365857142858,239.13775033950807L1442.4821285714286,179.82475562095644L1443.4103428571427,240.0232011795044L1444.7840999999999,274.4327671051025L1448.6454714285715,199.74828947782518L1449.3509142857142,225.70685799121858L1449.6108142857142,267.77750567793845L1451.3187285714287,260.07816140055655L1453.2494142857145,244.80848844051363L1453.3608000000002,220.87265689373018L1454.6603,239.7079987049103L1461.4177,250.10555727481844L1461.4548285714286,188.02947152853014L1462.2345285714287,269.8498436629772L1464.2766000000001,265.86354623436927L1467.5067857142856,268.88128886818885L1467.5439142857142,247.79186071157457L1468.9548000000002,272.98053760528563L1470.2543,298.05462690889834L1470.5884571428571,137.37745900154115L1477.085957142857,206.84643967151644L1480.6131714285714,179.74524528980257L1488.0760142857143,235.29611034393312L1489.4126428571428,271.5790581822395L1491.7146142857143,213.22155053615572L1494.5735142857143,223.82726891040804L1497.5066714285715,254.99919397830965L1498.2863714285713,281.5453481197357L1498.5834,273.48249022364615L1499.0660714285714,272.8966000199318L1499.1403285714287,258.62820185422896L1503.0017,175.41967148780824L1503.075957142857,248.88487429618837L1506.306142857143,216.7260432958603L1506.4175285714286,196.87549717426302L1513.7689857142857,156.89758325815203L1514.0288857142857,246.8972005069256L1516.4793714285713,275.5979573249817L1516.6650142857143,159.20837337970735L1520.5263857142859,275.45820592045783L1521.1575714285714,236.0580148816109L1523.6451857142858,263.3743760704994L1524.387757142857,274.90719864964484L1528.3605142857143,247.91969345211984L1530.8481285714286,268.0299436569214L1531.4050571428572,259.8733586490154L1531.9991142857143,237.13191128969194L1532.4817857142857,261.22115339040755L1533.7812857142858,-290.7304518699646L1534.7466285714288,287.29458830952643L1543.3975857142857,269.336389195919L1545.6253,305.72460542321204L1546.7391571428573,287.66738451719283L1547.4446,256.35288046002387L1550.7490428571427,215.1234786629677L1552.1970571428571,249.30994702577593L1552.3455714285715,183.50855780839922L1552.6797285714285,250.56644232273104L1553.8307142857143,293.7181145220995L1555.9470428571428,31.999458861351023L1561.3678142857143,168.0294464349747L1565.6747285714284,252.0065616488457L1566.8999714285712,265.3899708509445L1570.9469857142858,272.8522486209869L1576.2935,279.4218545079231L1577.5558714285712,282.72311038970946L1587.7662285714287,223.22862077951433L1589.3627571428572,272.2190386176109L1591.9246285714285,227.8573544740677L1603.6572571428574,263.53496260643004L1605.6993285714286,244.43682439327242L1606.2562571428573,220.71246464252474L1610.0805,219.963098359108L1612.828014285714,67.2607248544693L1613.4220714285714,267.68860573768615L1613.8304857142857,278.8340661048889L1615.0928571428572,217.15941853523256L1618.0631428571428,235.46106780767443L1620.327985714286,214.28931863307955L1620.3651142857143,298.8035566627979L1622.5185714285715,257.5523396551609L1623.2611428571429,220.76264019012453L1624.8576714285714,245.6995831847191L1627.7165714285716,207.99155516624452L1632.9516999999998,195.59212292432787L1633.8056571428572,124.69640607833863L1633.8427857142858,238.8751116514206L1638.8922714285716,272.67479796409606L1642.4566142857143,241.12189246416094L1644.6472,224.69634003639223L1645.0556142857145,254.53272698521616L1655.6001285714287,275.22153933048247L1659.7214,288.42796538472174L1660.761,290.5955738246441L1662.6545571428571,237.60597671270372L1666.2560285714287,307.61806487739085L1667.4070142857142,256.93313802480696L1667.5926571428572,258.36553500294684L1668.2238428571427,319.8390762403607L1671.5282857142856,260.7175560414791L1679.1025142857143,287.4889537811279L1681.7757714285713,283.36968101263045L1685.6742714285715,158.89958084821703L1688.9044571428572,280.0191282749176L1689.3500000000001,248.3716732978821L1690.5381142857143,192.3700168848038L1691.5777142857144,293.2908732265234L1694.8079,256.52584753632544L1695.1791857142857,254.45339126586916L1695.4019571428573,233.0234306573868L1695.5504714285712,265.78075207471846L1696.7014571428572,283.97005836367606L1696.7757142857142,258.9848323881626L1697.2955142857143,243.40928460359575L1697.5182857142856,316.6147875532508L1700.2286714285713,263.6988160729408L1709.3994285714284,299.21687125861644L1712.6667428571427,223.03216559886934L1713.6320857142857,288.5481433689594L1716.9736571428573,281.3223237812519L1717.9761285714285,212.11465812921526L1720.5751285714284,211.31220985651018L1723.0998714285715,246.31216646432878L1726.1444142857144,202.5154810667038L1727.926585714286,237.22938973903658L1728.5206428571428,240.41296852827074L1730.5255857142859,257.05773199796675L1736.5775428571428,275.70632366538047L1736.8745714285715,216.24893624782564L1739.2508,242.509853553772L1740.2532714285717,241.22147752046587L1745.2656285714286,286.0937434852123L1745.5255285714286,281.5221810758114L1746.1938428571427,241.93554968833925L1750.0180857142857,305.5697979748249L1750.9091714285717,220.5720654845238L1751.2804571428571,270.60160381793975L1751.8002571428572,220.18419070243837L1754.1022285714284,277.3963293850422L1757.6294428571427,250.4963047027588L1761.7507142857141,116.52795310020447L1762.4190285714285,245.71987195014955L1762.7903142857144,246.653341037035L1763.5700142857143,239.15123487710954L1767.6170285714284,229.93252004384996L1770.2160285714285,190.31635673046114L1773.8546285714287,271.7767412781715L1779.6095571428573,274.3458442211151L1780.8348,260.8092328727245L1781.4659857142856,107.27798838615418L1782.9140000000002,194.28851623535158L1792.4931714285713,193.12228960990907L1799.7703714285713,201.8519562005997L1801.4040285714284,245.04019267559053L1802.7035285714287,251.27063484191896L1803.8173857142858,251.7007994771004L1804.7084714285713,187.4169333100319L1805.8965857142855,227.76871926784517L1808.569842857143,263.58323995471L1809.5723142857144,284.8673208475113L1809.7208285714285,275.6865700006485L1810.2777571428571,239.80497021675112L1811.2431,281.2008277595043L1812.0599285714284,233.31573082208635L1818.4089142857142,222.64675791263582L1818.5574285714285,259.6174059033394L1819.0401,129.21299393177034L1822.0103857142858,198.317475271225L1822.1589,229.0724949359894L1823.4955285714286,286.126632463932L1826.7257142857143,285.9706928551197L1826.9856142857143,298.5536083102226L1828.6192714285714,217.64631510972978L1830.5870857142856,310.98310476243495L1832.0350999999998,254.18242753744127L1834.299942857143,231.11437160968782L1837.9014142857143,232.96602280139925L1839.3123,273.5693286180496L1841.0202142857145,250.8680363416672L1841.0573428571429,230.83627696037294L1843.2479285714285,251.93206999897959L1846.3667285714284,282.99227167367934L1847.2578142857144,173.72611720561983L1849.0771142857143,222.4001384496689L1849.5969142857143,287.28773338794707L1855.091942857143,201.80283958911897L1856.2058,235.36066038608553L1858.3963857142855,242.26044030189516L1860.289942857143,131.19723744392397L1867.9384285714286,235.18300695419313L1868.2725857142857,272.32868919968604L1870.2404000000001,255.73006830811502L1875.252757142857,279.8325978040695L1876.5893857142855,269.53364421129226L1880.4136285714285,234.12639148235323L1880.8591714285715,273.49262897372245L1885.0547,192.0294450044632L1887.5794428571428,246.12211559414865L1888.878942857143,274.6139296710491L1894.4482285714287,298.88358519673346L1894.7823857142855,288.54414982795714L1895.7848571428572,228.8113094687462L1896.8987142857143,259.6630978703499L1898.1610857142857,285.3330161690712L1899.8318714285713,267.87332249879836L1900.1289,249.96267975568773L1901.1685,226.85937477350237L1905.3640285714287,272.5078859746456L1905.9580857142857,252.19426370859148L1908.2600571428572,289.5256540596485L1908.8912428571427,260.40404335856437L1912.0843,250.96780164241792L1912.418457142857,264.4984367609024L1919.3986285714284,252.09241433143617L1921.3293142857142,216.37199814319612L1932.0223428571428,241.28321124315264L1932.8020428571429,251.02109767198564L1938.0371714285714,232.016472530365L1939.6336999999999,287.0309977054596L1941.6015142857143,292.25455496907233L1941.8614142857143,297.12565266788005L1942.6039857142857,233.16858376264574L1943.5693285714287,201.92933739423754L1946.9108999999999,167.04617918729784L1948.8415857142857,298.1656574875116L1951.0693,273.7701040327549L1951.3292000000001,254.88598356842996L1952.4059285714286,220.86535699367525L1954.373742857143,298.08738633692263L1954.522257142857,318.60633518993853L1955.0049285714285,280.82851032614707L1955.5247285714286,231.58875246047975L1956.4158142857143,230.93411589860918L1956.861357142857,264.6738765656948L1958.0494714285715,205.07483954429628L1958.3093714285715,263.50854552984237L1958.8291714285715,292.0077721595764L1963.0247,289.10767845511435L1963.4331142857143,253.60888407826425L1963.655885714286,237.18142218589784L1965.1781571428573,152.6155948162079L1965.3266714285712,218.90119947195055L1965.8464714285715,177.9063576579094L1966.7004285714286,279.53807837963103L1970.6360571428572,238.6420217871666L1972.2325857142857,257.29542936086654L1974.534557142857,120.38876659870148L1975.1286142857143,320.75606281757354L1976.2424714285714,246.65799922943117L1983.4454142857144,207.83834738731386L1985.1162000000002,271.3872442960739L1986.8983714285716,274.3212802827358L1987.1953999999998,245.98889241814615L1991.2052857142858,285.8079715490341L1991.9478571428572,278.6701506793499L1999.1508,268.2722034573555L2004.274542857143,241.03179277181627L2015.0418285714286,218.76710886955263L2017.0467714285714,213.69397122859957L2017.9749857142856,254.68547288775446L2022.6531857142857,267.0703334927559L2025.6606,263.8744473874569L2027.925442857143,300.2228295922279L2028.6308857142856,298.43429775238036L2030.8214714285714,313.95331073999404L2035.1283857142857,297.88078395724295L2038.0615428571427,301.94010010063647L2042.2942,292.16344703435897L2044.1506285714286,246.972897541523L2045.5243857142857,271.60058612823485L2047.6035857142858,296.01990087032317L2048.197642857143,301.940508466959L2049.3115,297.12268708348273L2052.0218857142854,261.6006073772907L2056.254542857143,292.0649941384792L2059.5218571428572,156.23281921148302L2062.0466,300.5497479557991L2065.4253,258.34565178751944L2065.499557142857,310.07510365247725L2065.7223285714285,237.55638695955278L2072.4797285714285,265.2256949365139L2078.4202999999998,271.89076842069625L2079.7569285714285,258.451990377903L2084.026714285714,289.8223702132702L2084.1752285714283,254.4147119343281L2087.628185714286,309.04050053358077L2089.6702571428573,208.6863749742508L2091.8979714285715,286.3035987138748L2095.425185714286,274.1125403165817L2102.9994142857145,277.9967292666435L2107.046428571429,269.22036809921264L2108.6800857142857,274.95464236736296L2108.8286,309.3796924173832L2109.1256285714285,288.3734808683395L2114.6206571428575,255.01464430689813L2116.3657000000003,302.7860210806131L2118.816185714286,323.41126627922057L2118.8904428571427,274.82655052542685L2125.128042857143,288.8323663294315L2127.170114285714,245.39320142269136L2128.209714285714,320.3987113058567L2129.434957142857,309.7461012125015L2130.326042857143,250.62136055231096L2130.6973285714284,267.89102588295935L2135.264142857143,248.86350969672205L2135.9324571428574,236.8649917960167L2138.7171,282.0134542107582L2140.127985714286,298.159030687809L2141.6502571428573,211.18127353191377L2145.4002428571425,266.5987126350403L2146.1056857142858,273.05182428359984L2149.9670571428574,270.4715799808502L2151.1923,237.5772840499878L2153.5685285714285,277.10315052866935L2153.9398142857144,264.8226739883423L2156.8729714285714,249.69252712726595L2157.4299,259.70977554917334L2158.803657142857,302.4128728330135L2168.3457000000003,186.9802348136902L2168.6427285714285,232.3420277953148L2170.833314285714,295.2406478047371L2171.3531142857146,248.63266725540163L2177.5164571428572,291.73169962763785L2179.669914285714,297.23946858644484L2179.929814285714,304.89889998435973L2180.0783285714288,296.5557845056057L2180.226842857143,264.00251669883727L2184.051085714286,270.23402906656264L2185.4619714285714,299.02237342000006L2186.687214285714,259.04985557198523L2187.0956285714283,243.78693051338198L2191.4396714285717,204.16036934852602L2193.2589714285714,240.25357611179354L2193.8159,303.5377305418253L2194.5956,282.1621108174324L2195.152528571429,305.7599727630615L2197.380242857143,245.9579072713852L2199.5337,293.5246728032827L2204.2490285714284,272.33757187128066L2207.8876285714286,270.04065493941306L2212.454442857143,89.18038709163666L2213.7910714285713,258.656229865551L2214.6079,291.2526098906994L2216.241557142857,270.1379925727844L2216.7242285714287,297.97074846625327L2217.2811571428574,281.0855952322483L2220.5484714285717,284.9574881315231L2222.6276714285714,309.2185595154762L2225.3751857142856,235.01934499740602L2227.045971428571,280.98402748703955L2234.8801,269.51240916252135L2238.8157285714283,304.7597681701183L2238.927114285714,278.6614200890064L2239.892457142857,280.3512230336666L2241.043442857143,292.7018878877163L2247.689457142857,257.8002715229988L2247.8751,286.9854352891445L2248.1721285714284,265.6174055457115L2254.1869571428574,311.3583539843559L2256.154771428571,269.39997042417525L2257.2315000000003,258.1487572610378L2260.0161428571428,264.5678308725357L2263.4691,261.95399914383887L2263.5804857142857,281.47630323171614L2268.221557142857,227.3341724395752L2276.129942857143,281.96184797286986L2277.3551857142857,285.9747427225113L2278.9145857142857,305.0084632605314L2280.1027,273.50096527934073L2280.8824,261.0463162779808L2283.2214999999997,288.58258695602416L2283.667042857143,240.8973529458046L2284.186842857143,297.5071569353342L2284.446742857143,239.06860406398775L2284.521,253.73274017572405L2287.4170285714285,286.1072336554527L2294.0630428571426,299.5030740916729L2295.288285714286,309.87188930511473L2296.624914285714,289.1712991118431L2297.8130285714287,288.8912893652916L2301.9343,339.6962911864277L2303.3080571428573,203.5379627466202L2310.7709,286.08192057609557L2311.6619857142855,275.6510731101036L2313.0728714285715,286.48758323192595L2313.295642857143,278.37727598547934L2314.1124714285716,281.6165221452713L2316.7486,303.42998942434787L2319.3847285714287,306.86951251029967L2319.9416571428574,305.50362010002135L2321.204028571429,278.5586525917053L2323.320357142857,266.88453526496886L2327.4416285714287,289.12893040180205L2328.8525142857143,297.53573976159095L2330.189142857143,262.4414420843124L2334.2732857142855,289.88003717064856L2342.4415714285715,283.2774972438812L2350.0529285714288,267.8237327456474L2351.9464857142857,214.68414409160616L2355.4365714285714,259.750865650177L2359.7434857142857,332.1809063002467L2361.785557142857,302.3701661646366L2362.8994142857146,255.83081932067873L2363.0479285714287,297.76132976710795L2364.6073285714283,287.5856999874115L2365.795442857143,307.5367267549038L2366.7979142857143,302.46156981289386L2367.4291000000003,266.60636175870894L2367.9860285714285,290.9187577486038L2368.3573142857144,268.8284716129303L2371.476114285714,290.604512822628L2376.7483714285713,283.086635273695L2377.3424285714286,306.3256248950958L2377.453814285714,315.827253100276L2377.5652,199.44852043390276L2378.3820285714287,213.83352549076082L2382.6518142857144,284.1121867418289L2386.0305142857146,301.4670401036739L2387.775557142857,242.1688310623169L2389.5577285714285,283.5969636261463L2392.268114285714,257.2006207823753L2397.6146285714285,304.5881670087576L2399.3968,269.52155656814574L2399.990857142857,286.39430673122405L2401.104714285714,286.3664758622646L2402.9240142857143,253.64542863965036L2403.4066857142857,214.874054145813L2403.5923285714284,270.8478120982647L2404.1121285714285,283.6476461112499L2406.5997428571427,279.60244817733764L2408.2334,239.33306772708895L2409.2358714285715,236.24133474826814L2413.4685285714286,277.85879720449446" style="fill: none;" fill="none"></path></g></g></g></g></g></g><g transform="translate(54, 378)" clip-path="url(#clip_1)"><clipPath id="clip_1"><rect width="2599" height="22"></rect></clipPath><g><g><line x1="0" y1="0" x2="0" y2="5" style="visibility: inherit;" fill="rgb(0, 0, 0)" stroke="rgb(204, 204, 204)" stroke-width="1px"></line><line x1="185.64285714285714" y1="0" x2="185.64285714285714" y2="5" style="visibility: inherit;" fill="rgb(0, 0, 0)" stroke="rgb(204, 204, 204)" stroke-width="1px"></line><line x1="371.2857142857143" y1="0" x2="371.2857142857143" y2="5" style="visibility: inherit;" fill="rgb(0, 0, 0)" stroke="rgb(204, 204, 204)" stroke-width="1px"></line><line x1="556.9285714285714" y1="0" x2="556.9285714285714" y2="5" style="visibility: inherit;" fill="rgb(0, 0, 0)" stroke="rgb(204, 204, 204)" stroke-width="1px"></line><line x1="742.5714285714286" y1="0" x2="742.5714285714286" y2="5" style="visibility: inherit;" fill="rgb(0, 0, 0)" stroke="rgb(204, 204, 204)" stroke-width="1px"></line><line x1="928.2142857142858" y1="0" x2="928.2142857142858" y2="5" style="visibility: inherit;" fill="rgb(0, 0, 0)" stroke="rgb(204, 204, 204)" stroke-width="1px"></line><line x1="1113.857142857143" y1="0" x2="1113.857142857143" y2="5" style="visibility: inherit;" fill="rgb(0, 0, 0)" stroke="rgb(204, 204, 204)" stroke-width="1px"></line><line x1="1299.5" y1="0" x2="1299.5" y2="5" style="visibility: inherit;" fill="rgb(0, 0, 0)" stroke="rgb(204, 204, 204)" stroke-width="1px"></line><line x1="1485.142857142857" y1="0" x2="1485.142857142857" y2="5" style="visibility: inherit;" fill="rgb(0, 0, 0)" stroke="rgb(204, 204, 204)" stroke-width="1px"></line><line x1="1670.7857142857144" y1="0" x2="1670.7857142857144" y2="5" style="visibility: inherit;" fill="rgb(0, 0, 0)" stroke="rgb(204, 204, 204)" stroke-width="1px"></line><line x1="1856.4285714285716" y1="0" x2="1856.4285714285716" y2="5" style="visibility: inherit;" fill="rgb(0, 0, 0)" stroke="rgb(204, 204, 204)" stroke-width="1px"></line><line x1="2042.0714285714284" y1="0" x2="2042.0714285714284" y2="5" style="visibility: inherit;" fill="rgb(0, 0, 0)" stroke="rgb(204, 204, 204)" stroke-width="1px"></line><line x1="2227.714285714286" y1="0" x2="2227.714285714286" y2="5" style="visibility: inherit;" fill="rgb(0, 0, 0)" stroke="rgb(204, 204, 204)" stroke-width="1px"></line><line x1="2413.357142857143" y1="0" x2="2413.357142857143" y2="5" style="visibility: inherit;" fill="rgb(0, 0, 0)" stroke="rgb(204, 204, 204)" stroke-width="1px"></line><line x1="2599" y1="0" x2="2599" y2="5" style="visibility: inherit;" fill="rgb(0, 0, 0)" stroke="rgb(204, 204, 204)" stroke-width="1px"></line></g><g transform="translate(0, 8)"><text x="0" y="0" dx="0em" dy="0.95em" style="text-anchor: middle; visibility: hidden; font-family: Roboto, sans-serif; font-size: 12px; font-weight: 200;" fill="rgb(50, 49, 63)" stroke="none" stroke-width="1px">-5k</text><text x="185.64285714285714" y="0" dx="0em" dy="0.95em" style="text-anchor: middle; visibility: inherit; font-family: Roboto, sans-serif; font-size: 12px; font-weight: 200;" fill="rgb(50, 49, 63)" stroke="none" stroke-width="1px">0</text><text x="371.2857142857143" y="0" dx="0em" dy="0.95em" style="text-anchor: middle; visibility: inherit; font-family: Roboto, sans-serif; font-size: 12px; font-weight: 200;" fill="rgb(50, 49, 63)" stroke="none" stroke-width="1px">5k</text><text x="556.9285714285714" y="0" dx="0em" dy="0.95em" style="text-anchor: middle; visibility: inherit; font-family: Roboto, sans-serif; font-size: 12px; font-weight: 200;" fill="rgb(50, 49, 63)" stroke="none" stroke-width="1px">10k</text><text x="742.5714285714286" y="0" dx="0em" dy="0.95em" style="text-anchor: middle; visibility: inherit; font-family: Roboto, sans-serif; font-size: 12px; font-weight: 200;" fill="rgb(50, 49, 63)" stroke="none" stroke-width="1px">15k</text><text x="928.2142857142858" y="0" dx="0em" dy="0.95em" style="text-anchor: middle; visibility: inherit; font-family: Roboto, sans-serif; font-size: 12px; font-weight: 200;" fill="rgb(50, 49, 63)" stroke="none" stroke-width="1px">20k</text><text x="1113.857142857143" y="0" dx="0em" dy="0.95em" style="text-anchor: middle; visibility: inherit; font-family: Roboto, sans-serif; font-size: 12px; font-weight: 200;" fill="rgb(50, 49, 63)" stroke="none" stroke-width="1px">25k</text><text x="1299.5" y="0" dx="0em" dy="0.95em" style="text-anchor: middle; visibility: inherit; font-family: Roboto, sans-serif; font-size: 12px; font-weight: 200;" fill="rgb(50, 49, 63)" stroke="none" stroke-width="1px">30k</text><text x="1485.142857142857" y="0" dx="0em" dy="0.95em" style="text-anchor: middle; visibility: inherit; font-family: Roboto, sans-serif; font-size: 12px; font-weight: 200;" fill="rgb(50, 49, 63)" stroke="none" stroke-width="1px">35k</text><text x="1670.7857142857144" y="0" dx="0em" dy="0.95em" style="text-anchor: middle; visibility: inherit; font-family: Roboto, sans-serif; font-size: 12px; font-weight: 200;" fill="rgb(50, 49, 63)" stroke="none" stroke-width="1px">40k</text><text x="1856.4285714285716" y="0" dx="0em" dy="0.95em" style="text-anchor: middle; visibility: inherit; font-family: Roboto, sans-serif; font-size: 12px; font-weight: 200;" fill="rgb(50, 49, 63)" stroke="none" stroke-width="1px">45k</text><text x="2042.0714285714284" y="0" dx="0em" dy="0.95em" style="text-anchor: middle; visibility: inherit; font-family: Roboto, sans-serif; font-size: 12px; font-weight: 200;" fill="rgb(50, 49, 63)" stroke="none" stroke-width="1px">50k</text><text x="2227.714285714286" y="0" dx="0em" dy="0.95em" style="text-anchor: middle; visibility: inherit; font-family: Roboto, sans-serif; font-size: 12px; font-weight: 200;" fill="rgb(50, 49, 63)" stroke="none" stroke-width="1px">55k</text><text x="2413.357142857143" y="0" dx="0em" dy="0.95em" style="text-anchor: middle; visibility: inherit; font-family: Roboto, sans-serif; font-size: 12px; font-weight: 200;" fill="rgb(50, 49, 63)" stroke="none" stroke-width="1px">60k</text><text x="2599" y="0" dx="0em" dy="0.95em" style="text-anchor: middle; visibility: hidden; font-family: Roboto, sans-serif; font-size: 12px; font-weight: 200;" fill="rgb(50, 49, 63)" stroke="none" stroke-width="1px">65k</text></g><line x1="0" y1="0" x2="2599" y2="0" fill="rgb(0, 0, 0)" stroke="rgb(204, 204, 204)" stroke-width="1px"></line></g></g></g></g></svg>