<svg viewBox="0 0 2653 400" xmlns="http://www.w3.org/2000/svg"><g><g><g><g><g><line x1="54" y1="261.40371546222116" x2="49" y2="261.40371546222116" style="visibility: inherit;" fill="rgb(0, 0, 0)" stroke="rgb(204, 204, 204)" stroke-width="1px"></line><line x1="54" y1="139.30930508597316" x2="49" y2="139.30930508597316" style="visibility: inherit;" fill="rgb(0, 0, 0)" stroke="rgb(204, 204, 204)" stroke-width="1px"></line><line x1="54" y1="52.68194231312683" x2="49" y2="52.68194231312683" style="visibility: inherit;" fill="rgb(0, 0, 0)" stroke="rgb(204, 204, 204)" stroke-width="1px"></line></g><g transform="translate(44, 0)"><text x="0" y="261.40371546222116" dx="0em" dy="0.3em" style="text-anchor: end; visibility: inherit; font-family: Roboto, sans-serif; font-size: 12px; font-weight: 200;" fill="rgb(50, 49, 63)" stroke="none" stroke-width="1px">0.02</text><text x="0" y="139.30930508597316" dx="0em" dy="0.3em" style="text-anchor: end; visibility: inherit; font-family: Roboto, sans-serif; font-size: 12px; font-weight: 200;" fill="rgb(50, 49, 63)" stroke="none" stroke-width="1px">0.03</text><text x="0" y="52.68194231312683" dx="0em" dy="0.3em" style="text-anchor: end; visibility: inherit; font-family: Roboto, sans-serif; font-size: 12px; font-weight: 200;" fill="rgb(50, 49, 63)" stroke="none" stroke-width="1px">0.04</text></g><line x1="54" y1="0" x2="54" y2="378" fill="rgb(0, 0, 0)" stroke="rgb(204, 204, 204)" stroke-width="1px"></line></g></g><g transform="translate(54, 0)" clip-path="url(#clip_0)"><clipPath id="clip_0"><rect width="2599" height="378"></rect></clipPath><g><g><g><line x1="0" y1="0" x2="0" y2="378" fill="rgb(0, 0, 0)" stroke="rgb(60, 60, 60)" stroke-width="1px" opacity="0.25"></line><line x1="185.64285714285714" y1="0" x2="185.64285714285714" y2="378" fill="rgb(0, 0, 0)" stroke="rgb(60, 60, 60)" stroke-width="1px" opacity="0.25"></line><line x1="371.2857142857143" y1="0" x2="371.2857142857143" y2="378" fill="rgb(0, 0, 0)" stroke="rgb(60, 60, 60)" stroke-width="1px" opacity="0.25"></line><line x1="556.9285714285714" y1="0" x2="556.9285714285714" y2="378" fill="rgb(0, 0, 0)" stroke="rgb(60, 60, 60)" stroke-width="1px" opacity="0.25"></line><line x1="742.5714285714286" y1="0" x2="742.5714285714286" y2="378" fill="rgb(0, 0, 0)" stroke="rgb(60, 60, 60)" stroke-width="1px" opacity="0.25"></line><line x1="928.2142857142858" y1="0" x2="928.2142857142858" y2="378" fill="rgb(0, 0, 0)" stroke="rgb(60, 60, 60)" stroke-width="1px" opacity="0.25"></line><line x1="1113.857142857143" y1="0" x2="1113.857142857143" y2="378" fill="rgb(0, 0, 0)" stroke="rgb(60, 60, 60)" stroke-width="1px" opacity="0.25"></line><line x1="1299.5" y1="0" x2="1299.5" y2="378" fill="rgb(0, 0, 0)" stroke="rgb(60, 60, 60)" stroke-width="1px" opacity="0.25"></line><line x1="1485.142857142857" y1="0" x2="1485.142857142857" y2="378" fill="rgb(0, 0, 0)" stroke="rgb(60, 60, 60)" stroke-width="1px" opacity="0.25"></line><line x1="1670.7857142857144" y1="0" x2="1670.7857142857144" y2="378" fill="rgb(0, 0, 0)" stroke="rgb(60, 60, 60)" stroke-width="1px" opacity="0.25"></line><line x1="1856.4285714285716" y1="0" x2="1856.4285714285716" y2="378" fill="rgb(0, 0, 0)" stroke="rgb(60, 60, 60)" stroke-width="1px" opacity="0.25"></line><line x1="2042.0714285714284" y1="0" x2="2042.0714285714284" y2="378" fill="rgb(0, 0, 0)" stroke="rgb(60, 60, 60)" stroke-width="1px" opacity="0.25"></line><line x1="2227.714285714286" y1="0" x2="2227.714285714286" y2="378" fill="rgb(0, 0, 0)" stroke="rgb(60, 60, 60)" stroke-width="1px" opacity="0.25"></line><line x1="2413.357142857143" y1="0" x2="2413.357142857143" y2="378" fill="rgb(0, 0, 0)" stroke="rgb(60, 60, 60)" stroke-width="1px" opacity="0.25"></line><line x1="2599" y1="0" x2="2599" y2="378" fill="rgb(0, 0, 0)" stroke="rgb(60, 60, 60)" stroke-width="1px" opacity="0.25"></line></g><g><line x1="0" y1="261.40371546222116" x2="2599" y2="261.40371546222116" fill="rgb(0, 0, 0)" stroke="rgb(60, 60, 60)" stroke-width="1px" opacity="0.25"></line><line x1="0" y1="139.30930508597316" x2="2599" y2="139.30930508597316" fill="rgb(0, 0, 0)" stroke="rgb(60, 60, 60)" stroke-width="1px" opacity="0.25"></line><line x1="0" y1="52.68194231312683" x2="2599" y2="52.68194231312683" fill="rgb(0, 0, 0)" stroke="rgb(60, 60, 60)" stroke-width="1px" opacity="0.25"></line></g></g></g><g><g><line x1="185.64285714285714" y1="0" x2="185.64285714285714" y2="378" fill="rgb(0, 0, 0)" stroke="rgb(153, 153, 153)" stroke-width="1.5px"></line></g></g><g><g><g><g><g><path stroke="rgb(255, 112, 67)" stroke-width="2px" d="M187.20225714285715,371.1164535082253L187.31364285714287,370.6551560685248L188.2789857142857,367.68479684221694L189.13294285714287,364.2628742987898L191.8433285714286,357.0700287093731L194.14530000000002,348.66581395286653L194.33094285714287,342.6313156863967L195.11064285714284,337.24408141576L195.77895714285714,332.3995204043718L197.07845714285713,327.2031992010933L197.1527142857143,323.05090795466134L197.44974285714284,319.4335408429808L203.2418,310.9304952805294L205.54377142857143,301.99014581711566L207.14029999999997,293.3568183903492L207.40019999999998,286.0718663455667L209.18237142857143,278.6429252229231L209.66504285714288,272.102335901657L212.15265714285712,264.8092697438142L212.44968571428572,258.4862156934428L215.41997142857142,251.12141391549795L215.64274285714285,244.7655252284349L216.68234285714286,238.70837388059945L221.6947,230.42287181605607L223.29122857142858,222.45121828711328L225.2219142857143,214.56199290594873L226.6328,207.06076958842505L229.45457142857143,199.11791906675856L232.4619857142857,190.74967296469546L234.50405714285714,182.5726359162241L234.61544285714285,175.5526602442949L235.13524285714288,169.29264313957472L235.28375714285716,163.85177417239618L237.0659285714286,158.32509352489862L237.32582857142856,153.44878905948946L238.95948571428573,148.49464536003435L240.07334285714288,143.71990324363125L243.2664,138.18565476050972L244.45451428571428,132.9027684504924L248.42727142857143,126.65786891062237L250.0238,120.62352895753675L250.1351857142857,115.3843508022217L254.10794285714283,109.27200533354404L255.33318571428572,103.53047151013266L256.8183285714286,98.01071730591525L257.9321857142857,92.82883140037629L261.2366285714286,87.62307210020069L263.46434285714287,83.12811584796924L266.84304285714285,79.2383376841038L267.2885857142857,75.86559409579344L268.4767,72.9364316363294L269.6276857142857,70.38893325283286L271.2984714285714,68.17078272698097L274.3430142857143,66.23769908353096L276.0880571428571,64.55139778890425L276.7192428571429,63.07901558107323L276.7935,61.79242030848888L276.97914285714285,60.66752611077872L277.90735714285717,59.6836848542118L277.94448571428575,58.82262899989755L278.39002857142856,58.0688380911809L278.5756714285714,57.4086719883349L279.6524,56.830572310637514L285.33307142857143,56.32572755745084L287.37514285714286,55.883945595423974L295.80332857142855,55.50030865449483L298.4394571428572,55.16525023038301L298.55084285714287,54.87144713658809L303.00627142857144,54.616244381384924L305.56814285714285,54.393927687687444L306.1622,54.19924934980192L306.19932857142857,54.02845386861785L308.35278571428574,53.87998363086748L314.85028571428575,53.75430465561112L319.97402857142856,53.64804719255379L320.0482857142857,53.55484721660807L321.9047142857143,53.47459996619949L324.5408428571429,53.406452399665916L327.25122857142856,53.34908395164617L327.51112857142857,53.29896391057586L331.48388571428575,53.258757124051954L332.5234857142857,53.22448852436568L335.4937714285714,53.19742011722923L337.79574285714284,53.17607911555639L341.4343428571429,53.16131821960152L342.7709714285714,53.1498631446114L345.9269,53.14345879965173L349.00857142857143,53.14153324737446L352.4244,53.14409167375003L353.05558571428577,53.147139832516935L353.8352857142857,53.15081331637236L358.81051428571425,53.160611296770696L358.9590285714286,53.16941636215927L359.2560571428571,53.17755180107372L363.4144571428572,53.190473067013826L363.9342571428571,53.20255868333052L365.34514285714283,53.215192440323385L367.3500857142857,53.22920905305945L370.20898571428575,53.24578375912113L373.14214285714286,53.26482434393223L373.2164,53.28165951959644L375.2213428571429,53.29958198701828L376.2609428571429,53.31696794536772L384.0950714285715,53.34513987552332L384.6148714285714,53.3707651632193L386.8797142857143,53.397168733511876L391.6693,53.428841822618814L396.4960142857143,53.46552417300992L398.12967142857144,53.5008122826128L401.28560000000004,53.537844234221474L403.3648,53.57441466467106L403.62469999999996,53.60704194720153L404.96132857142857,53.638334451088305L408.043,53.672000963634396L413.27812857142857,53.71237738525138L415.84000000000003,53.753260789571165L416.54544285714286,53.7906719529758L419.14444285714285,53.829148357583676L419.9984,53.864803247651864L422.3746285714286,53.90136420463158L427.7211428571428,53.94556550636928L429.7260857142857,53.98901852828518L430.80281428571425,54.02969113038349L434.2557714285714,54.073576403579544L434.36715714285714,54.1123776473143L434.8127,54.147518502134915L440.12208571428573,54.19129746055699L444.2804857142857,54.24013008976759L445.2458285714286,54.28546069222703L449.7755142857143,54.33691502621226L451.29778571428574,54.38607672516778L457.08984285714286,54.44467505038288L459.7259714285714,54.50330712684667L462.25071428571425,54.56175679088509L462.62199999999996,54.61411452922281L462.7333857142857,54.66040208443291L463.2903142857143,54.70260185565724L464.5155571428572,54.74308577382142L471.27295714285714,54.797908730380314L474.80017142857145,54.85636576537448L475.17145714285715,54.90879302786769L476.4709571428571,54.95868236079952L482.33727142857146,55.02015244536259L485.1219142857143,55.082686364990955L489.35457142857143,55.15079956024469L490.8768428571429,55.21542187250698L496.1491,55.28906799882345L496.3347428571428,55.35434477838215L496.6689,55.4127570127672L500.1218571428571,55.47535465234215L501.16145714285716,55.53375931111594L501.53274285714286,55.58628121301611L504.9857,55.643936260398696L506.24807142857145,55.698824056888576L508.47578571428573,55.75458992724385L515.2703142857142,55.8270627534191L516.3470428571429,55.89449139867438L517.1267428571429,55.95645938895657L517.3866428571429,56.01179454800966L519.5400999999999,56.068033877284506L521.8420714285714,56.12566403945365L529.4534285714285,56.204050804846375L531.5326285714285,56.28061599791939L532.7207428571429,56.352296267813365L535.9509285714286,56.427422066775044L537.1761714285714,56.49805492846689L540.3692285714286,56.57231507542024L540.8519,56.63939563776799L544.1934714285715,56.71127971336665L545.0474285714286,56.77774798142396L545.7157428571428,56.83874173039325L551.0993857142857,56.91364993237269L553.4756142857143,56.988985849933854L559.0820285714285,57.07797884757473L560.0473714285714,57.160112546015284L567.1760571428572,57.2619997175171L567.4359571428571,57.35258314186103L571.7428714285714,57.45047319868079L574.7131571428571,57.5492425145689L576.3096857142857,57.64291722891272L579.4656142857143,57.73898289293301L580.6166,57.82842466951096L581.2106571428571,57.90959786807995L583.3269857142857,57.99027046130528L585.0349,58.06873984293552L585.0720285714285,58.13782005172764L585.8888571428571,58.20214444254962L588.1537,58.2688308685285L588.4878571428571,58.32890322973247L590.4185428571428,58.39041552634637L590.5299285714285,58.44494285856874L591.9408142857143,58.499265012043985L592.7947714285714,58.55087529018292L593.0175428571429,58.59721876032452L593.0917999999999,58.638252712535376L594.7997142857143,58.68214855555303L597.8442571428571,58.73480060339911L598.5497,58.784325602659564L598.8838571428571,58.82937616740659L601.4086,58.88077213776523L601.4828571428571,58.9262543406522L603.7105714285715,58.97671261260555L609.6140142857142,59.04922476551112L611.5818285714286,59.122412045203134L612.3244,59.19028614903452L613.4753857142857,59.25549070998081L613.8095428571428,59.31438182623461L615.0719142857142,59.37226508309066L618.1164571428571,59.438064188881725L619.4902142857143,59.502644135678686L622.2377285714285,59.573029734866566L626.4703857142857,59.65610254034745L630.0347285714286,59.74715331527997L630.2203714285714,59.828068061428766L631.557,59.90596275843047L632.7079857142858,59.98027733382239L636.3094571428571,60.06414802293122L637.2748,60.14282103187105L638.0173714285714,60.21578225774453L641.953,60.30048932702523L646.2227857142857,60.397507589791196L648.1906,60.493228055884735L656.0989857142857,60.62007483821143L663.7474714285714,60.77366933613795L666.0494428571429,60.92144523857923L668.9454714285714,61.067529664988484L669.5766571428571,61.19941552485292L670.5791285714286,61.32093117513888L671.3588285714286,61.43208629311418L671.8043714285714,61.53224766757219L672.3612999999999,61.62338886776137L677.1880142857143,61.73108842589005L683.2399714285714,61.86080305822832L683.3884857142857,61.97560663293763L687.0270857142857,62.09781756667537L688.5864857142857,62.21437656183152L690.4800428571428,62.32799360723805L691.3340000000001,62.432870100211666L693.5245857142858,62.53807951660892L698.3884285714287,62.659797617657134L701.1359428571428,62.78340963519621L708.4131428571428,62.93672752011438L713.6482714285714,63.10404164697175L716.0987571428573,63.266428132087896L716.3586571428572,63.410713709010764L717.3240000000001,63.543557882645025L717.9923142857143,63.66447315761094L720.1829,63.78459561720265L722.0393285714287,63.901953030801685L728.9081142857143,64.0492871993077L729.1308857142857,64.18015276022028L730.2447428571429,64.30234667242752L730.5789000000001,64.41185087928731L730.9501857142857,64.51044815697674L734.3660142857142,64.61941536995602L734.7001714285714,64.71731817330756L735.4798714285714,64.80843941980858L737.8561,64.90416885130823L738.5615428571429,64.99292053837809L745.9129999999999,65.12001483889078L749.2545714285715,65.25423134998827L752.4476285714286,65.39384955140983L754.6010857142857,65.53122299346903L760.1332428571428,65.6900360863082L760.2075,65.83005773771731L761.3956142857143,65.96130292722889L762.5466,66.08459958063682L770.0465714285714,66.24557428782481L770.9376571428571,66.39329390966434L771.2718142857142,66.52542301529589L773.3138857142858,66.6560018181562L779.4401,66.81461229452286L783.2272142857144,66.98134699823736L784.0069142857143,67.13348413383898L788.9450142857143,67.30322469672228L791.6182714285715,67.47202109563483L792.4351,67.62633911958477L793.0662857142858,67.76657183010379L794.7742000000001,67.90242461496909L798.4499285714286,68.04917425462963L805.5786142857144,68.23178381140377L809.6998857142856,68.4235754592187L809.7370142857143,68.59235064382891L811.5191857142858,68.75426208064123L813.0785857142857,68.90847257317219L819.2790571428571,69.0919115262232L820.4300428571428,69.26202831266211L821.6924142857143,69.42132982093469L825.7022999999999,69.59273186162528L826.9275428571428,69.75296026092529L827.6701142857144,69.89957986568422L828.5611999999999,70.03542366936979L828.5983285714286,70.15503876295269L828.7097142857142,70.26098500601256L829.4151571428572,70.35963489711074L831.8656428571428,70.46577701831866L833.3136571428571,70.57056815992972L833.6849428571429,70.66557577346173L836.9893857142857,70.77554252489034L837.5091857142858,70.87631335279461L838.5859142857144,70.97350341918397L838.8829428571429,71.06126239304709L839.9596714285715,71.1470445274734L843.6354,71.25223813544297L852.2121000000001,71.41499336030843L853.2516999999999,71.56656560342586L854.6254571428572,71.71109805113922L855.9249571428571,71.8488547427627L856.3705,71.97356319326693L858.7467285714285,72.1029332253515L863.7590857142858,72.25865781834922L865.7640285714285,72.41238561634465L870.7021285714286,72.58937142505133L870.7392571428572,72.74516894217251L875.9372571428572,72.9265672353788L880.4298142857143,73.12472223739918L880.6897142857143,73.3010631718128L885.3307857142858,73.49638971638082L889.5263142857143,73.7047829638632L891.2713571428571,73.90325317336129L892.8678857142858,74.09172753146126L895.3926285714285,74.27970114022078L897.3604428571429,74.46236038664067L901.1475571428572,74.65670649539682L910.5782142857144,74.91265970653085L910.8009857142857,75.13959359555722L914.848,75.37596096949689L915.3678,75.5884143789643L918.2267,75.8013715652108L918.4494714285714,75.99052760308227L921.6425285714286,76.18624825161024L922.4964857142857,76.36612412392272L925.0954857142857,76.54834210258261L925.9123142857144,76.7160465975588L927.1375571428572,76.87482820460016L928.0286428571429,77.02265733842192L929.5137857142857,77.166461281282L930.1821,77.29906727462162L930.4048714285715,77.41764207488848L930.5162571428572,77.52283705616848L933.3380285714286,77.64188249313534L933.3751571428571,77.74679272814522L935.1202000000001,77.8554788669419L936.2711857142857,77.96187725864097L937.2736571428571,78.06486986707023L937.3850428571429,78.15638388015873L937.5706857142857,78.23852522481985L940.2068142857142,78.3358518507243L940.6152285714285,78.42523990956593L942.4345285714286,78.52119822228312L944.5508571428571,78.62583578341027L946.2216428571428,78.73385320082059L947.7439142857143,78.8434465639388L948.2265857142856,78.9443763417948L948.2637142857144,79.03338281152054L949.0805428571429,79.11947477223434L949.6746,79.20085270406014L953.7958714285714,79.31248011237886L954.5755714285714,79.41814695570179L957.1374428571429,79.53606587228724L957.2488285714286,79.64073311822779L957.2859571428572,79.73302403235022L959.0681285714286,79.8316161026258L959.9592142857143,79.92699310877792L964.8601857142858,80.05927918314721L968.3131428571428,80.20985353979023L970.6893714285715,80.36587686732568L973.1027285714285,80.52714449661114L973.9566857142858,80.67739941767134L977.0754857142857,80.840846381663L977.1868714285715,80.98555356586499L977.3725142857143,81.11454015791908L979.8601285714285,81.25305854562541L980.5284428571429,81.38151956090728L983.3130857142858,81.52272739317034L984.7611,81.66156275527005L990.6274142857143,81.8437592774842L992.2239428571429,82.02029605135799L994.8600714285715,82.20267535766577L995.8254142857143,82.3729204416715L996.6051142857142,82.53058230594256L996.8278857142857,82.67139444535528L1002.6941999999999,82.85639313528081L1011.5679285714286,83.11252856017684L1012.0506,83.34272049782608L1013.3129714285714,83.55839342650317L1014.7238571428571,83.76291836742249L1015.7634571428571,83.95370839525494L1019.9961142857143,84.1666799405755L1021.2956142857142,84.36777688568918L1022.6693714285714,84.55926105413405L1026.0480714285713,84.7640279335551L1030.8747857142857,84.99641882359221L1033.6594285714284,85.23103900331138L1037.001,85.47385405821886L1037.1123857142857,85.68843652932611L1042.7188,85.93888909471653L1044.723742857143,86.18121311649631L1045.0950285714284,86.39826353071791L1046.3574,86.60302774032233L1046.7286857142856,86.78706761394588L1047.6940285714286,86.95953193986554L1049.3648142857144,87.12974111739294L1050.2187714285715,87.28883999840426L1053.0034142857144,87.4599023471669L1053.7088571428571,87.61812482325261L1055.4539,87.77681415822204L1059.6494285714284,87.96375375689597L1061.4687285714285,88.1486742775033L1064.4761428571428,88.3454437301667L1064.8845571428571,88.52298420310075L1065.6271285714286,88.68745333489018L1068.3375142857142,88.86303838155253L1070.4538428571427,89.0416529229794L1074.4266,89.24447706483568L1079.6617285714287,89.4834971969133L1081.1097428571427,89.71040916575613L1082.1864714285714,89.92236588887025L1085.416657142857,90.14646344559485L1087.1988285714285,90.36432350949036L1087.2730857142856,90.55660767065014L1088.6839714285716,90.74218151438697L1089.5379285714284,90.91530166931803L1092.1740571428572,91.0986055101881L1097.4091857142857,91.32193534135824L1099.7854142857143,91.54655953650092L1103.4240142857143,91.78757547619873L1103.721042857143,92.00291776235747L1110.1814142857143,92.27015115212174L1111.406657142857,92.51984500753821L1114.1541714285713,92.77267560332005L1115.6021857142857,93.01250479690826L1118.7952428571427,93.26231312721241L1122.433842857143,93.5265294735354L1122.9165142857144,93.76465159450512L1123.2506714285714,93.97799865647276L1126.1838285714286,94.20170769737749L1128.3744142857142,94.42542911767882L1132.6070714285713,94.67468854003468L1133.164,94.90066397824758L1136.0971571428572,95.13591948887557L1139.3273428571429,95.38320444024731L1144.0055428571427,95.65951859968324L1145.3050428571428,95.91878947053586L1148.052557142857,96.18150167896007L1152.6565,96.47105917614248L1153.4361999999999,96.73549649147368L1154.3644142857142,96.97975862333303L1156.7406428571428,97.22490356255688L1157.2604428571428,97.44699842999144L1161.8272571428572,97.70108020141687L1162.2356714285715,97.92963307324372L1165.9485285714286,98.17863654586554L1168.4361428571428,98.42983732451573L1175.8618571428572,98.74780650366628L1180.5771857142859,99.08940540295129L1180.6143142857143,99.39014049689818L1181.6910428571427,99.66868643694478L1181.7653,99.91444697661616L1185.4410285714284,100.17923079803188L1193.3865428571428,100.51810541859331L1193.6093142857144,100.81894684935247L1193.8320857142858,101.08632706973124L1193.9805999999999,101.32327730918675L1194.0177285714285,101.53197644907803L1198.2875142857142,101.77296952770224L1206.8642142857143,102.10121934654626L1210.5028142857143,102.4394470868099L1210.8741,102.74181112782368L1211.134,103.01110390792432L1211.8023142857144,103.25692037075464L1215.5523,103.52455885772302L1218.745357142857,103.80387940747909L1222.1240571428573,104.09620750247156L1222.1983142857143,104.35414152484414L1223.3864285714285,104.59732650266794L1224.0547428571429,104.82032498321222L1234.5621285714285,105.16353138569292L1235.5274714285715,105.47880249261895L1237.1611285714287,105.77895681423766L1241.5051714285714,106.10430219887861L1241.9878428571428,106.39710360109729L1245.4036714285714,106.70308816153036L1246.4804000000001,106.98738100505248L1247.9284142857143,107.25793442932306L1261.2575714285713,107.6877371844336L1262.2229142857143,108.07961709405927L1263.0397428571428,108.43597859395406L1263.7451857142858,108.75948326050599L1264.6734,109.05733955189838L1265.2674571428572,109.32777650360437L1265.713,109.57193802334211L1269.8342714285714,109.84687660439113L1272.1362428571429,110.12233424509773L1279.8589857142856,110.47848927409993L1280.1188857142856,110.79539610664551L1280.453042857143,111.07887490623791L1282.3094714285714,111.35560602231797L1282.4208571428571,111.60045010713333L1283.2005571428572,111.82721713904172L1284.351542857143,112.04364760817448L1285.0569857142857,112.24435525928673L1290.1064714285715,112.49641278203605L1293.1138857142857,112.76316762465898L1293.1510142857144,112.99813350094901L1294.4133857142856,113.22364749202283L1299.5,113.49882550434822L1299.685642857143,113.74346369655282L1300.6509857142858,113.97309768135982L1302.3589,114.20087203501879L1302.9158285714286,114.40949614735798L1305.9603714285715,114.63931110089581L1307.5569,114.86569123287076L1308.5222428571428,115.07940506277336L1310.0445142857143,115.29056409468855L1311.6410428571428,115.50066084213023L1316.5420142857142,115.76091639266944L1316.9504285714286,115.99592661164455L1320.737542857143,116.26117389963069L1322.2226857142857,116.51735761952983L1325.7127714285714,116.79689276878517L1326.2325714285712,117.05066483195651L1326.9008857142858,117.28410904130634L1338.559257142857,117.6725748669214L1340.5270714285714,118.04519291390162L1351.7027714285714,118.55053035167077L1353.0765285714285,119.01689560534787L1362.470057142857,119.57802444909176L1363.4353999999998,120.08716266464891L1366.628457142857,120.58665609559327L1369.0418142857143,121.0651455966622L1369.301714285714,121.4901266477038L1369.5987428571427,121.86859838286193L1371.3809142857142,122.23043844202473L1371.7150714285715,122.5539684974616L1373.905657142857,122.87426413335514L1374.3883285714285,123.16369872908128L1380.2175142857143,123.51417326401788L1381.4427571428573,123.84249777123466L1383.002157142857,124.15690668739393L1389.9080714285715,124.54811494062915L1393.3981571428571,124.95033542814599L1393.8808285714285,125.31201715698242L1396.4427,125.67293280527831L1398.1506142857145,126.01890644694939L1399.9699142857141,126.35367775854766L1402.0491142857143,126.6830482450405L1406.9500857142857,127.0556153993442L1407.2471142857144,127.38815666897962L1410.9599714285714,127.74367924718925L1411.4055142857144,128.0637859062166L1412.1480857142856,128.35781759270589L1416.5292571428572,128.6912984852628L1417.5317285714286,129.00162898832056L1417.6059857142857,129.27564046597985L1420.9475571428572,129.57402789407845L1423.5465571428572,129.88117461631654L1424.5490285714284,130.1684685172919L1424.8089285714286,130.42544766302106L1425.8485285714287,130.66929732986682L1430.8980142857142,130.9714386237807L1434.3138428571428,131.29662206243816L1437.9153142857144,131.6455022451834L1438.2494714285713,131.95802010562593L1438.6950142857143,132.2405097787444L1439.4004571428572,132.50116371037757L1440.0316428571427,132.74132221228206L1442.0365857142858,132.98770989246768L1442.4821285714286,133.21207466189387L1443.4103428571427,133.42562244014312L1444.7840999999999,133.63756565625246L1448.6454714285715,133.89230108166097L1449.3509142857142,134.128682661079L1449.6108142857142,134.3410028060561L1451.3187285714287,134.5579825150114L1453.2494142857145,134.78308734979854L1453.3608000000002,134.9828580418819L1454.6603,135.18161757106088L1461.4177,135.4774869605426L1461.4548285714286,135.73816962080355L1462.2345285714287,135.9812753124506L1464.2766000000001,136.23172345384748L1467.5067857142856,136.51019044513382L1467.5439142857142,136.75556866458265L1468.9548000000002,136.99675642352406L1470.2543,137.23227480506407L1470.5884571428571,137.44528701591761L1477.085957142857,137.75084653574754L1480.6131714285714,138.0839032990606L1488.0760142857143,138.5136812610054L1489.4126428571428,138.916169979299L1491.7146142857143,139.31252444908517L1494.5735142857143,139.7138994351775L1497.5066714285715,140.1212171179675L1498.2863714285713,140.4938053990238L1498.5834,140.82685234446762L1499.0660714285714,141.1285806031109L1499.1403285714287,141.39513475385786L1503.0017,141.70161430769033L1503.075957142857,141.9723552826761L1506.306142857143,142.27092476919464L1506.4175285714286,142.53541105925171L1513.7689857142857,142.90649768684221L1514.0288857142857,143.2376043894397L1516.4793714285713,143.57506274640988L1516.6650142857143,143.8751878796246L1520.5263857142859,144.2123931422307L1521.1575714285714,144.52080382219447L1523.6451857142858,144.83935012708693L1524.387757142857,145.13351551667992L1528.3605142857143,145.468182625881L1530.8481285714286,145.81013321778596L1531.4050571428572,146.12140911197L1531.9991142857143,146.4064270853993L1532.4817857142857,146.66620962179204L1533.7812857142858,146.9195903286764L1534.7466285714288,147.16090952606274L1543.3975857142857,147.54082511636278L1545.6253,147.91818329969576L1546.7391571428573,148.2716339771741L1547.4446,148.59609533454423L1550.7490428571427,148.94597214515474L1552.1970571428571,149.2819205924593L1552.3455714285715,149.58011439687496L1552.6797285714285,149.8487460853085L1553.8307142857143,150.10746956689908L1555.9470428571428,150.3765605887309L1561.3678142857143,150.7202354568932L1565.6747285714284,151.10777110194198L1566.8999714285712,151.472812165633L1570.9469857142858,151.87437877465732L1576.2935,152.33435843296886L1577.5558714285712,152.76412993769884L1587.7662285714287,153.34764395055063L1589.3627571428572,153.89320517879014L1591.9246285714285,154.42498705333625L1603.6572571428574,155.13178984143275L1605.6993285714286,155.79556776788147L1606.2562571428573,156.39101113363088L1610.0805,156.99353409265584L1612.828014285714,157.5803102839572L1613.4220714285714,158.10874831729L1613.8304857142857,158.58195456192593L1615.0928571428572,159.02427750705425L1618.0631428571428,159.47503970567405L1620.327985714286,159.91865399773081L1620.3651142857143,160.30946460137005L1622.5185714285715,160.69813134278965L1623.2611428571429,161.0553801318617L1624.8576714285714,161.40295386383684L1627.7165714285716,161.7686661429994L1632.9516999999998,162.2006916442848L1633.8056571428572,162.59860448948083L1633.8427857142858,162.94919303740747L1638.8922714285716,163.36463373083447L1642.4566142857143,163.80582070004147L1644.6472,164.24051623168634L1645.0556142857145,164.63143749079433L1655.6001285714287,165.20152727615704L1659.7214,165.79186906902876L1660.761,166.33363499338304L1662.6545571428571,166.85116502717412L1666.2560285714287,167.38457256516452L1667.4070142857142,167.87876792402906L1667.5926571428572,168.31739229493783L1668.2238428571427,168.7168309958998L1671.5282857142856,169.140352407895L1679.1025142857143,169.67914827326587L1681.7757714285713,170.21196146850215L1685.6742714285715,170.76676826811956L1688.9044571428572,171.3263866168753L1689.3500000000001,171.82849271001194L1690.5381142857143,172.29649741284163L1691.5777142857144,172.73120319367288L1694.8079,173.18561550373497L1695.1791857142857,173.5934752487277L1695.4019571428573,173.95702993960438L1695.5504714285712,174.27992869699182L1696.7014571428572,174.5895988644617L1696.7757142857142,174.86342304340997L1697.2955142857143,175.1157602446116L1697.5182857142856,175.3425076414763L1700.2286714285713,175.60292754290643L1709.3994285714284,176.03942645063964L1712.6667428571427,176.49743899925596L1713.6320857142857,176.92213378013648L1716.9736571428573,177.37175313427193L1717.9761285714285,177.78999722087264L1720.5751285714284,178.2172306613183L1723.0998714285715,178.6508053692782L1726.1444142857144,179.10205025919643L1727.926585714286,179.53989218697248L1728.5206428571428,179.93856558593853L1730.5255857142859,180.33541838113052L1736.5775428571428,180.8246551389413L1736.8745714285715,181.26176733740024L1739.2508,181.7014237453601L1740.2532714285717,182.1113641118172L1745.2656285714286,182.58897776159677L1745.5255285714286,183.01503728499293L1746.1938428571427,183.4053054506776L1750.0180857142857,183.8383154877056L1750.9091714285717,184.24001262157884L1751.2804571428571,184.6019016610734L1751.8002571428572,184.9322845992074L1754.1022285714284,185.27712298858125L1757.6294428571427,185.66383609221313L1761.7507142857141,186.10171511888544L1762.4190285714285,186.5026123976239L1762.7903142857144,186.86389281056557L1763.5700142857143,187.20007145010797L1767.6170285714284,187.592328786925L1770.2160285714285,187.99944719386966L1773.8546285714287,188.44474749871173L1779.6095571428573,188.97488279166882L1780.8348,189.47070305764726L1781.4659857142856,189.92197454710526L1782.9140000000002,190.35383629747702L1792.4931714285713,190.96632576607152L1799.7703714285713,191.68274172690053L1801.4040285714284,192.35317320760606L1802.7035285714287,192.9749474862778L1803.8173857142858,193.54933122221465L1804.7084714285713,194.07650796334855L1805.8965857142855,194.56947927600083L1808.569842857143,195.06912543220486L1809.5723142857144,195.53335620905509L1809.7208285714285,195.94523336411493L1810.2777571428571,196.32117421259122L1811.2431,196.6756701695413L1812.0599285714284,197.00762489989518L1818.4089142857142,197.45798636151966L1818.5574285714285,197.85767774614249L1819.0401,198.22114382539357L1822.0103857142858,198.61520259461102L1822.1589,198.96534627663107L1823.4955285714286,199.30676029007495L1826.7257142857143,199.68830196119447L1826.9856142857143,200.0302606167037L1828.6192714285714,200.37213394633793L1830.5870857142856,200.72246214789777L1832.0350999999998,201.067114035319L1834.299942857143,201.4275776018688L1837.9014142857143,201.83608515830636L1839.3123,202.23118525074884L1841.0202142857145,202.62213212912232L1841.0573428571429,202.96674643307838L1843.2479285714285,203.32573828467994L1846.3667285714284,203.72128938577777L1847.2578142857144,204.09191016833768L1849.0771142857143,204.46450259447084L1849.5969142857143,204.80541496113798L1855.091942857143,205.24689480159074L1856.2058,205.66386031073543L1858.3963857142855,206.0871924137356L1860.289942857143,206.5085230154047L1867.9384285714286,207.07794060672688L1868.2725857142857,207.58749722392747L1870.2404000000001,208.0870294404762L1875.252757142857,208.6575941063362L1876.5893857142855,209.1945457762793L1880.4136285714285,209.7674166517651L1880.8591714285715,210.2830479572042L1885.0547,210.84737998815166L1887.5794428571428,211.41062133181993L1888.878942857143,211.94051880467853L1894.4482285714287,212.55473242960304L1894.7823857142855,213.1039587781307L1895.7848571428572,213.61379882313278L1896.8987142857143,214.09196791328372L1898.1610857142857,214.54627117962613L1899.8318714285713,214.99059349764659L1900.1289,215.3892370641599L1901.1685,215.76768333151668L1905.3640285714287,216.21354449038793L1905.9580857142857,216.621610271538L1908.2600571428572,217.0426621713753L1908.8912428571427,217.42994656176336L1912.0843,217.85709440076167L1912.418457142857,218.2417223884046L1919.3986285714284,218.77003142189773L1921.3293142857142,219.28739694284334L1932.0223428571428,220.0353092194697L1932.8020428571429,220.71494121899482L1938.0371714285714,221.4571939153307L1939.6336999999999,222.1545274922078L1941.6015142857143,222.8226317641326L1941.8614142857143,223.41766886827133L1942.6039857142857,223.96173587187462L1943.5693285714287,224.4671361793135L1946.9108999999999,225.00485930386674L1948.8415857142857,225.531780936866L1951.0693,226.05761335486469L1951.3292000000001,226.52735652495915L1952.4059285714286,226.97067037439774L1954.373742857143,227.41586104797037L1954.522257142857,227.81146513660877L1955.0049285714285,228.1728655253442L1955.5247285714286,228.50523420188185L1956.4158142857143,228.82257685615153L1956.861357142857,229.11410227418L1958.0494714285715,229.40399208173903L1958.3093714285715,229.66612005403866L1958.8291714285715,229.91122971370223L1963.0247,230.24595059433287L1963.4331142857143,230.5517756277431L1963.655885714286,230.82689831121203L1965.1781571428573,231.11211181423673L1965.3266714285712,231.3669882683863L1965.8464714285715,231.60581038450022L1966.7004285714286,231.8400908639447L1970.6360571428572,232.15868209625228L1972.2325857142857,232.48448378102253L1974.534557142857,232.83695487455174L1975.1286142857143,233.16384777650939L1976.2424714285714,233.48322378725354L1983.4454142857144,233.97165180112424L1985.1162000000002,234.44944178665574L1986.8983714285716,234.9211596295932L1987.1953999999998,235.34455414293626L1991.2052857142858,235.83324046205487L1991.9478571428572,236.28457224972806L1999.1508,236.8913834876602L2004.274542857143,237.5749557730966L2015.0418285714286,238.49217924294518L2017.0467714285714,239.35882371348598L2017.9749857142856,240.14919766123094L2022.6531857142857,240.98330610083525L2025.6606,241.80682855911596L2027.925442857143,242.59916080004194L2028.6308857142856,243.31759970070564L2030.8214714285714,244.01531979848633L2035.1283857142857,244.75838508094444L2038.0615428571427,245.50049188482032L2042.2942,246.28115364080813L2044.1506285714286,247.02435227376978L2045.5243857142857,247.7200128467983L2047.6035857142858,248.39526006715263L2048.197642857143,249.007455927726L2049.3115,249.57994247232529L2052.0218857142854,250.16627017536692L2056.254542857143,250.81156604281983L2059.5218571428572,251.47952220862393L2062.0466,252.14485127105064L2065.4253,252.8343579404361L2065.499557142857,253.4433450178975L2065.7223285714285,253.9859427871836L2072.4797285714285,254.67267306541663L2078.4202999999998,255.46160040610383L2079.7569285714285,256.1976550495499L2084.026714285714,256.9788247482597L2084.1752285714283,257.6710196491177L2087.628185714286,258.38849268067463L2089.6702571428573,259.08411288259833L2091.8979714285715,259.76645882506256L2095.425185714286,260.478344590033L2102.9994142857145,261.3448334933861L2107.046428571429,262.23633935482474L2108.6800857142857,263.0733467870827L2108.8286,263.8149114363155L2109.1256285714285,264.47702633273565L2114.6206571428575,265.23597304728287L2116.3657000000003,265.96006756341757L2118.816185714286,266.6763091389981L2118.8904428571427,267.3089773905181L2125.128042857143,268.0676297205406L2127.170114285714,268.80162728865787L2128.209714285714,269.48139737475645L2129.434957142857,270.11946675112193L2130.326042857143,270.7099301134142L2130.6973285714284,271.2414698878853L2135.264142857143,271.858708826975L2135.9324571428574,272.4236495760683L2138.7171,273.01220967227994L2140.127985714286,273.57644928426487L2141.6502571428573,274.1230185605439L2145.4002428571425,274.72783277408234L2146.1056857142858,275.2832540894285L2149.9670571428574,275.9000222835745L2151.1923,276.48337283722884L2153.5685285714285,277.07571524170396L2153.9398142857144,277.60915627846117L2156.8729714285714,278.1764355666728L2157.4299,278.69405392752424L2158.803657142857,279.1953721191721L2168.3457000000003,279.957090066888L2168.6427285714285,280.6374816933188L2170.833314285714,281.31013359505585L2171.3531142857146,281.91955799589164L2177.5164571428572,282.6646668468361L2179.669914285714,283.39359761811716L2179.929814285714,284.0439092148425L2180.0783285714288,284.6211133236269L2180.226842857143,285.13389130587336L2184.051085714286,285.7157817497299L2185.4619714285714,286.2760071216066L2186.687214285714,286.81085282035394L2187.0956285714283,287.29528455142764L2191.4396714285717,287.87099076516733L2193.2589714285714,288.44018982178704L2193.8159,288.9600945163317L2194.5956,289.44432269036406L2195.152528571429,289.88944057550765L2197.380242857143,290.35818565209746L2199.5337,290.8452535560622L2204.2490285714284,291.43783555926524L2207.8876285714286,292.08608347078535L2212.454442857143,292.8161083896114L2213.7910714285713,293.50538054219834L2214.6079,294.14055113369375L2216.241557142857,294.7568170531972L2216.7242285714287,295.3159569522421L2217.2811571428574,295.82740445118554L2220.5484714285717,296.39270814081095L2222.6276714285714,296.9635713129668L2225.3751857142856,297.5631645894037L2227.045971428571,298.14997647181195L2234.8801,298.94508384124356L2238.8157285714283,299.7853834480007L2238.927114285714,300.52909430260456L2239.892457142857,301.2182024645211L2241.043442857143,301.865888918574L2247.689457142857,302.6749325045529L2247.8751,303.39376379323056L2248.1721285714284,304.03705266681084L2254.1869571428574,304.82087145475555L2256.154771428571,305.58218550657324L2257.2315000000003,306.29138893537987L2260.0161428571428,307.01697095270794L2263.4691,307.78162433007424L2263.5804857142857,308.45867861893294L2268.221557142857,309.2246453945795L2276.129942857143,310.1895140991169L2277.3551857142857,311.08439079471896L2278.9145857142857,311.9299231448228L2280.1027,312.7182828962407L2280.8824,313.4411186975227L2283.2214999999997,314.1642369384476L2283.667042857143,314.81718048065204L2284.186842857143,315.4110575275739L2284.446742857143,315.9431757522736L2284.521,316.4139325811017L2287.4170285714285,316.936552819375L2294.0630428571426,317.64592323257875L2295.288285714286,318.31627049672585L2296.624914285714,318.95649262266L2297.8130285714287,319.5646355493374L2301.9343,320.2556172956475L2303.3080571428573,320.91571746913297L2310.7709,321.7800365698438L2311.6619857142855,322.57489643414647L2313.0728714285715,323.32836833751963L2313.295642857143,323.9999994551627L2314.1124714285716,324.62223631209577L2316.7486,325.27083176294593L2319.3847285714287,325.942845744726L2319.9416571428574,326.5555723128473L2321.204028571429,327.1433048803336L2323.320357142857,327.74210397154064L2327.4416285714287,328.42842451578287L2328.8525142857143,329.08704699752894L2330.189142857143,329.7184575301619L2334.2732857142855,330.4329309661286L2342.4415714285715,331.3801948737356L2350.0529285714288,332.5118440611748L2351.9464857142857,333.5831814154022L2355.4365714285714,334.664184439844L2359.7434857142857,335.786328478071L2361.785557142857,336.85578526848616L2362.8994142857146,337.84209351990586L2363.0479285714287,338.7166503727698L2364.6073285714283,339.5487963117778L2365.795442857143,340.3288142613298L2366.7979142857143,341.05549374070034L2367.4291000000003,341.72030443822683L2367.9860285714285,342.32761913360844L2368.3573142857144,342.8768105781202L2371.476114285714,343.48565341288923L2376.7483714285713,344.2342329928465L2377.3424285714286,344.91707587987304L2377.453814285714,345.52240613427705L2377.5652,346.05941643446687L2378.3820285714287,346.5649446645778L2382.6518142857144,347.1834560719151L2386.0305142857146,347.8654127752381L2387.775557142857,348.53677072060145L2389.5577285714285,349.2004266359827L2392.268114285714,349.8954923233268L2397.6146285714285,350.7267257581457L2399.3968,351.5318109948929L2399.990857142857,352.26496702482285L2401.104714285714,352.95619795800235L2402.9240142857143,353.63976594796173L2403.4066857142857,354.2612483393451L2403.5923285714284,354.8156841777027L2404.1121285714285,355.32496501551213L2406.5997428571427,355.87653554953346L2408.2334,356.42985820746003L2409.2358714285715,356.9584237023248L2413.4685285714286,357.6004588340303" style="fill: none;" fill="none"></path></g></g></g></g><g opacity="0.2"><g><g><g><path stroke="rgb(255, 112, 67)" stroke-width="2px" d="M187.20225714285715,371.1164535082253L187.31364285714287,370.25071871041644L188.2789857142857,362.85011670254704L189.13294285714287,356.4516828103618L191.8433285714286,336.99987053244774L194.14530000000002,321.4119780283714L194.33094285714287,320.1893520109286L195.11064285714284,315.1078647140197L195.77895714285714,310.81955806679275L197.07845714285713,302.65197629493304L197.1527142857143,302.19190746625037L197.44974285714284,300.35853350417966L203.2418,266.6728355369877L205.54377142857143,254.2657459962979L207.14029999999997,245.95153621638514L207.40019999999998,244.61951461419142L209.18237142857143,235.64108601126978L209.66504285714288,233.2548251044292L212.15265714285712,221.24750455764715L212.44968571428572,219.84527284116982L215.41997142857142,206.17079866353185L215.64274285714285,205.1698227714136L216.68234285714286,200.54208491899266L221.6947,179.17653885792765L223.29122857142858,172.67767165613424L225.2219142857143,165.001483261082L226.6328,159.51315996317538L229.45457142857143,148.82778879305104L232.4619857142857,137.84197653066045L234.50405714285714,130.60457100564946L234.61544285714285,130.2147647875873L235.13524285714288,128.40230554704084L235.28375714285716,127.88646520260264L237.0659285714286,121.76423279161124L237.32582857142856,120.88172771139988L238.95948571428573,115.3929428405551L240.07334285714288,111.70712188605994L243.2664,101.38451653611978L244.45451428571428,97.6321123945334L248.42727142857143,85.4141564282138L250.0238,80.64044298282666L250.1351857142857,80.31018682072099L254.10794285714283,68.76227593809998L255.33318571428572,65.28834776765923L256.8183285714286,61.130503233337805L257.9321857142857,58.049367447318645L261.2366285714286,52.68206122038558L263.46434285714287,52.68267819276466L266.84304285714285,52.68464129510853L267.2885857142857,52.68500587266723L268.4767,52.68607156344652L269.6276857142857,52.68724943659063L271.2984714285714,52.68924061357378L274.3430142857143,52.693643685482456L276.0880571428571,52.69667258761266L276.7192428571429,52.69782245658517L276.7935,52.69796268480907L276.97914285714285,52.698327278496606L277.90735714285717,52.70015025355663L277.94448571428575,52.70023439113356L278.39002857142856,52.701131860083244L278.5756714285714,52.70152450358981L279.6524,52.703852329179846L285.33307142857143,52.71824037343974L287.37514285714286,52.72429870301788L295.80332857142855,52.7542836193453L298.4394571428572,52.76530782380874L298.55084285714287,52.765784706900256L303.00627142857144,52.78623528656303L305.56814285714285,52.79900006977064L306.1622,52.80205808718937L306.19932857142857,52.80225447469033L308.35278571428574,52.813729338194435L314.85028571428575,52.85143954875651L319.97402857142856,52.884495983455786L320.0482857142857,52.88500111841723L321.9047142857143,52.8977420248928L324.5408428571429,52.91648953707746L327.25122857142856,52.936557404105535L327.51112857142857,52.93852216226622L331.48388571428575,52.969567042748714L332.5234857142857,52.977988448263474L335.4937714285714,53.00269259654613L337.79574285714284,53.02254160220897L341.4343428571429,53.05511140519798L342.7709714285714,53.067438309914365L345.9269,53.09737316771343L349.00857142857143,53.12767611557265L352.4244,53.16250440035307L353.05558571428577,53.16907728657932L353.8352857142857,53.177251460633435L358.81051428571425,53.23113352727838L358.9590285714286,53.232791157687636L359.2560571428571,53.23610644588173L363.4144571428572,53.28347972014004L363.9342571428571,53.28954943267373L365.34514285714283,53.30612936359444L367.3500857142857,53.33010162360388L370.20898571428575,53.36509386974313L373.14214285714286,53.40188929984281L373.2164,53.40284508521134L375.2213428571429,53.42859620941205L376.2609428571429,53.442119242728154L384.0950714285715,53.547962874385966L384.6148714285714,53.555247319310176L386.8797142857143,53.58725596485001L391.6693,53.656882298897585L396.4960142857143,53.729648471076025L398.12967142857144,53.75489281749572L401.28560000000004,53.80448709411913L403.3648,53.83773277960835L403.62469999999996,53.84195561033823L404.96132857142857,53.863633740381054L408.043,53.91440045517124L413.27812857142857,54.00311492674482L415.84000000000003,54.047650995417285L416.54544285714286,54.06004677199814L419.14444285714285,54.10619735375228L419.9984,54.121526095836664L422.3746285714286,54.16461418436583L427.7211428571428,54.263861417551524L429.7260857142857,54.30192285363593L430.80281428571425,54.3225626217779L434.2557714285714,54.38959523295014L434.36715714285714,54.39176692172514L434.8127,54.40053844745959L440.12208571428573,54.506550269733054L444.2804857142857,54.59179865726663L445.2458285714286,54.61189381451379L449.7755142857143,54.707477062972806L451.29778571428574,54.74011668592197L457.08984285714286,54.86672752146574L459.7259714285714,54.9256028864289L462.25071428571425,54.982737685850644L462.62199999999996,54.99118732261018L462.7333857142857,54.993730737960455L463.2903142857143,55.00647639844907L464.5155571428572,55.034597890210485L471.27295714285714,55.19274893221368L474.80017142857145,55.27739979855541L475.17145714285715,55.28636688722914L476.4709571428571,55.31796598106187L482.33727142857146,55.46290600635174L485.1219142857143,55.53310899291317L489.35457142857143,55.64144619664841L490.8768428571429,55.68090013402821L496.1491,55.81961056444336L496.3347428571428,55.82454140030566L496.6689,55.83346811890487L500.1218571428571,55.92623663923078L501.16145714285716,55.95441581129686L501.53274285714286,55.96453714351839L504.9857,56.059189482401486L506.24807142857145,56.0941315967893L508.47578571428573,56.15622625060597L515.2703142857142,56.34914458295433L516.3470428571429,56.38020241831633L517.1267428571429,56.402802271783656L517.3866428571429,56.410326468697896L519.5400999999999,56.47308275461965L521.8420714285714,56.54073788878207L529.4534285714285,56.768781164248516L531.5326285714285,56.83220930731813L532.7207428571429,56.86866307992185L535.9509285714286,56.96863502983337L537.1761714285714,57.006869208760584L540.3692285714286,57.10728549159054L540.8519,57.12259700836764L544.1934714285715,57.229116129683916L545.0474285714286,57.256534817548136L545.7157428571428,57.27806151821252L551.0993857142857,57.453293706869175L553.4756142857143,57.5317140808056L559.0820285714285,57.71921356505215L560.0473714285714,57.751867572524716L567.1760571428572,57.99627187888396L567.4359571428571,58.00529175617722L571.7428714285714,58.15590082350043L574.7131571428571,58.2610149014517L576.3096857142857,58.317928919198046L579.4656142857143,58.43124612550928L580.6166,58.47289698550877L581.2106571428571,58.49442504861424L583.3269857142857,58.57148697228954L585.0349,58.6340660406694L585.0720285714285,58.635439036225435L585.8888571428571,58.665474880420774L588.1537,58.74919057670254L588.4878571428571,58.76158110359082L590.4185428571428,58.83347338917625L590.5299285714285,58.837652369916945L591.9408142857143,58.89049571851758L592.7947714285714,58.922561208956786L593.0175428571429,58.9309503338037L593.0917999999999,58.933727672364554L594.7997142857143,58.99824357942579L597.8442571428571,59.113994501645344L598.5497,59.140983666652076L598.8838571428571,59.15379147344727L601.4086,59.25091357808253L601.4828571428571,59.25377985814245L603.7105714285715,59.34009633160838L609.6140142857142,59.57159017899894L611.5818285714286,59.649645810864435L612.3244,59.679208924467694L613.4753857142857,59.7251666724625L613.8095428571428,59.73854482407082L615.0719142857142,59.78916325259379L618.1164571428571,59.91202656676536L619.4902142857143,59.9678169707024L622.2377285714285,60.08006111454108L626.4703857142857,60.25463128729076L630.0347285714286,60.40323365558689L630.2203714285714,60.41103112012892L631.557,60.467144291696584L632.7079857142858,60.5156402501136L636.3094571428571,60.668431990908786L637.2748,60.70961581917164L638.0173714285714,60.741385935016424L641.953,60.9108063302384L646.2227857142857,61.09664447068831L648.1906,61.183000494628125L656.0989857142857,61.53453521379789L663.7474714285714,61.881362953284146L666.0494428571429,61.98709162169706L668.9454714285714,62.12095409637188L669.5766571428571,62.15026886496455L670.5791285714286,62.19689477570794L671.3588285714286,62.23325120877472L671.8043714285714,62.254065505739725L672.3612999999999,62.28012159090307L677.1880142857143,62.50731035669437L683.2399714285714,62.795974857509336L683.3884857142857,62.803109458493964L687.0270857142857,62.97880157878591L688.5864857142857,63.054552558206574L690.4800428571428,63.14693068729475L691.3340000000001,63.18871627660242L693.5245857142858,63.296328519381355L698.3884285714287,63.537223038298436L701.1359428571428,63.674510698930646L708.4131428571428,64.04242208226094L713.6482714285714,64.31090463427206L716.0987571428573,64.43766844820867L716.3586571428572,64.45114096919863L717.3240000000001,64.50133287350661L717.9923142857143,64.53610172349495L720.1829,64.65049973593963L722.0393285714287,64.74789337042554L728.9081142857143,65.11174172934085L729.1308857142857,65.12363694583395L730.2447428571429,65.18320777656646L730.5789000000001,65.2010988648829L730.9501857142857,65.2209790987031L734.3660142857142,65.40478723684367L734.7001714285714,65.42283777649777L735.4798714285714,65.46502818476063L737.8561,65.59400598011624L738.5615428571429,65.63241440024746L745.9129999999999,66.03626271055131L749.2545714285715,66.22191869232401L752.4476285714286,66.40055674661123L754.6010857142857,66.52171416171547L760.1332428571428,66.83544680687163L760.2075,66.83967954041566L761.3956142857143,66.90752897327711L762.5466,66.9734234055089L770.0465714285714,67.40660953071456L770.9376571428571,67.45853362183477L771.2718142857142,67.47803323907205L773.3138857142858,67.59741491796103L779.4401,67.95855851548937L783.2272142857144,68.1840209986819L784.0069142857143,68.23064570670408L788.9450142857143,68.52763052168936L791.6182714285715,68.68960059153433L792.4351,68.7392616595676L793.0662857142858,68.77771838096366L794.7742000000001,68.8819311981503L798.4499285714286,69.10740519236452L805.5786142857144,69.54925035062836L809.6998857142856,69.80746129767243L809.7370142857143,69.8097767618175L811.5191857142858,69.92206845387368L813.0785857142857,70.02061797701093L819.2790571428571,70.41537687649807L820.4300428571428,70.48915429240671L821.6924142857143,70.57027081200937L825.7022999999999,70.82915064035114L826.9275428571428,70.90860095702776L827.6701142857144,70.95687122780483L828.5611999999999,71.01486537765845L828.5983285714286,71.01727955923943L828.7097142857142,71.02455202566435L829.4151571428572,71.07054550195205L831.8656428571428,71.23075779863731L833.3136571428571,71.32579832879205L833.6849428571429,71.35020466111972L836.9893857142857,71.56812928617161L837.5091857142858,71.60252928323794L838.5859142857144,71.6738799991669L838.8829428571429,71.69359477265844L839.9596714285715,71.76511646701913L843.6354,72.01037304269353L852.2121000000001,72.58889918607915L853.2516999999999,72.65964493249481L854.6254571428572,72.75330898135665L855.9249571428571,72.8421144159081L856.3705,72.87258173280303L858.7467285714285,73.03561625859014L863.7590857142858,73.3817459291538L865.7640285714285,73.52104258537068L870.7021285714286,73.86616642126728L870.7392571428572,73.86878410163264L875.9372571428572,74.23527325953089L880.4298142857143,74.55464762909912L880.6897142857143,74.57319476828478L885.3307857142858,74.90584992451339L889.5263142857143,75.20879998418381L891.2713571428571,75.33545933340312L892.8678857142858,75.45161559816921L895.3926285714285,75.63596690012855L897.3604428571429,75.7801863145282L901.1475571428572,76.05907317139473L910.5782142857144,76.76112863791646L910.8009857142857,76.77783744663117L914.848,77.08252562575096L915.3678,77.12181952562608L918.2267,77.3384233594727L918.4494714285714,77.35534686588169L921.6425285714286,77.59855988725597L922.4964857142857,77.6638195859135L925.0954857142857,77.86297650477233L925.9123142857144,77.9257318204049L927.1375571428572,78.02001134719077L928.0286428571429,78.08868836007747L929.5137857142857,78.20340871425319L930.1821,78.25512193433785L930.4048714285715,78.27237182532355L930.5162571428572,78.2809818751289L933.3380285714286,78.50001027208181L933.3751571428571,78.50288243177951L935.1202000000001,78.63882191231879L936.2711857142857,78.72870769589926L937.2736571428571,78.80711979204942L937.3850428571429,78.81580631943977L937.5706857142857,78.83033540242656L940.2068142857142,79.03721381980972L940.6152285714285,79.06932469093277L942.4345285714286,79.21268685339244L944.5508571428571,79.37995751741018L946.2216428571428,79.51236941103087L947.7439142857143,79.6333381009909L948.2265857142856,79.67173933915149L948.2637142857144,79.67471471936729L949.0805428571429,79.73978167263108L949.6746,79.78715655932815L953.7958714285714,80.11705430550884L954.5755714285714,80.17969740637331L957.1374428571429,80.38606017140486L957.2488285714286,80.39506909576734L957.2859571428572,80.39805163181913L959.0681285714286,80.54210946721287L959.9592142857143,80.61428731744783L964.8601857142858,81.01302314635728L968.3131428571428,81.2957217109396L970.6893714285715,81.49112404586457L973.1027285714285,81.69029710208186L973.9566857142858,81.76095925110701L977.0754857142857,82.01975265568191L977.1868714285715,82.02902699470319L977.3725142857143,82.04445394467085L979.8601285714285,82.25182061851623L980.5284428571429,82.30763762094287L983.3130857142858,82.5409186016665L984.7611,82.66261464630726L990.6274142857143,83.15823849415837L992.2239428571429,83.2938438495503L994.8600714285715,83.51847657830555L995.8254142857143,83.60097403915886L996.6051142857142,83.66767212395182L996.8278857142857,83.68672699262858L1002.6941999999999,84.19114003172781L1011.5679285714286,84.96231803307015L1012.0506,85.00455835416369L1013.3129714285714,85.11510430832448L1014.7238571428571,85.2389389791495L1015.7634571428571,85.3303481349921L1019.9961142857143,85.70383567542451L1021.2956142857142,85.81899026127088L1022.6693714285714,85.94092244913314L1026.0480714285713,86.24179945955937L1030.8747857142857,86.6741821540414L1033.6594285714284,86.92494849820852L1037.001,87.22712536882632L1037.1123857142857,87.23725348230639L1042.7188,87.74749678996912L1044.723742857143,87.93092711947152L1045.0950285714284,87.96494650160989L1046.3574,88.08077994474077L1046.7286857142856,88.11487935394604L1047.6940285714286,88.20363162669923L1049.3648142857144,88.35753510334335L1050.2187714285715,88.43631639235689L1053.0034142857144,88.69386501295637L1053.7088571428571,88.75926662430824L1055.4539,88.9213303634309L1059.6494285714284,89.31253988004347L1061.4687285714285,89.48285576535555L1064.4761428571428,89.76534384063115L1064.8845571428571,89.80379031195174L1065.6271285714286,89.87374883510762L1068.3375142857142,90.12970389060855L1070.4538428571427,90.33022644389892L1074.4266,90.70818928324584L1079.6617285714287,91.20927729228842L1081.1097428571427,91.34849428325278L1082.1864714285714,91.45217576201934L1085.416657142857,91.764168972622L1087.1988285714285,91.93686798672633L1087.2730857142856,91.94405661016678L1088.6839714285716,92.08108860846615L1089.5379285714284,92.16414347297182L1092.1740571428572,92.42109361935526L1097.4091857142857,92.93408192220829L1099.7854142857143,93.16807841382781L1103.4240142857143,93.52781326360486L1103.721042857143,93.55723506581755L1110.1814142857143,94.20038234016114L1111.406657142857,94.32295507090612L1114.1541714285713,94.59851530773459L1115.6021857142857,94.74414566363825L1118.7952428571427,95.06625267122885L1122.433842857143,95.43488971371696L1122.9165142857144,95.48392672736665L1123.2506714285714,95.51787264660285L1126.1838285714286,95.81660004497346L1128.3744142857142,96.04041110199742L1132.6070714285713,96.4746507417552L1133.164,96.53196735932484L1136.0971571428572,96.83443070046368L1139.3273428571429,97.16886028028112L1144.0055428571427,97.65558840100188L1145.3050428571428,97.79130321304103L1148.052557142857,98.07895889932908L1152.6565,98.56317697354756L1153.4361999999999,98.6454585039417L1154.3644142857142,98.74351361452635L1156.7406428571428,98.99505445800713L1157.2604428571428,99.0502031321043L1161.8272571428572,99.53598679651672L1162.2356714285715,99.57960094575472L1165.9485285714286,99.97674417709257L1168.4361428571428,100.24386670405899L1175.8618571428572,101.04609919091781L1180.5771857142859,101.55929416787244L1180.6143142857143,101.56335153270949L1181.6910428571427,101.6809399011066L1181.7653,101.68905796432814L1185.4410285714284,102.09170460236444L1193.3865428571428,102.96820513694298L1193.6093142857144,102.99292947591984L1193.8320857142858,103.01762269848888L1193.9805999999999,103.03406387295263L1194.0177285714285,103.03820745572385L1198.2875142857142,103.51304170431217L1206.8642142857143,104.47415508434314L1210.5028142857143,104.88484811112203L1210.8741,104.92684221643592L1211.134,104.95626492762983L1211.8023142857144,105.03193653156606L1215.5523,105.45772678675199L1218.745357142857,105.82175015261357L1222.1240571428573,106.20842361475498L1222.1983142857143,106.21696616602704L1223.3864285714285,106.35327776509261L1224.0547428571429,106.4300723569731L1234.5621285714285,107.64509768062646L1235.5274714285715,107.75750919101574L1237.1611285714287,107.94795374649054L1241.5051714285714,108.45614802685836L1241.9878428571428,108.51275330470787L1245.4036714285714,108.91439254751221L1246.4804000000001,109.04131245322503L1247.9284142857143,109.2122350768631L1261.2575714285713,110.7991357174913L1262.2229142857143,110.91501090023112L1263.0397428571428,111.01312801012571L1263.7451857142858,111.09796398911308L1264.6734,111.2096625575215L1265.2674571428572,111.28123271573328L1265.713,111.33496409352725L1269.8342714285714,111.83297195012594L1272.1362428571429,112.11219329982481L1279.8589857142856,113.05413823463036L1280.1188857142856,113.08597677813476L1280.453042857143,113.12690230479906L1282.3094714285714,113.35469929195158L1282.4208571428571,113.36842130699088L1283.2005571428572,113.46425270759359L1284.351542857143,113.60584253798174L1285.0569857142857,113.69275159406584L1290.1064714285715,114.31665041576733L1293.1138857142857,114.6899296404089L1293.1510142857144,114.69454687430057L1294.4133857142856,114.8516094415415L1299.5,115.48665696303692L1299.685642857143,115.50994321109519L1300.6509857142858,115.63089482797604L1302.3589,115.84520212764339L1302.9158285714286,115.9151841183021L1305.9603714285715,116.29841882124153L1307.5569,116.4999251176211L1308.5222428571428,116.62193400577173L1310.0445142857143,116.81459996732731L1311.6410428571428,117.01700768040976L1316.5420142857142,117.64056704315763L1316.9504285714286,117.69266116054645L1320.737542857143,118.17700736928597L1322.2226857142857,118.36749709758702L1325.7127714285714,118.81631975832141L1326.2325714285712,118.88332703627032L1326.9008857142858,118.96950116636468L1338.559257142857,120.48313487935653L1340.5270714285714,120.74050785664937L1351.7027714285714,122.21253353614573L1353.0765285714285,122.39467088502175L1362.470057142857,123.64745140371357L1363.4353999999998,123.776901622087L1366.628457142857,124.20601892589895L1369.0418142857143,124.53131149784745L1369.301714285714,124.56641656092881L1369.5987428571427,124.60647551151743L1371.3809142857142,124.84740449587913L1371.7150714285715,124.89263356528053L1373.905657142857,125.18944632246681L1374.3883285714285,125.25492501700755L1380.2175142857143,126.04854453872909L1381.4427571428573,126.2159758643784L1383.002157142857,126.42935483047421L1389.9080714285715,127.37862298398451L1393.3981571428571,127.86096004704673L1393.8808285714285,127.9278324262259L1396.4427,128.2831800792483L1398.1506142857145,128.52057625324665L1399.9699142857141,128.77397400463195L1402.0491142857143,129.0641219136811L1406.9500857142857,129.7505603312793L1407.2471142857144,129.79225690855804L1410.9599714285714,130.31473214375276L1411.4055142857144,130.37759612969225L1412.1480857142856,130.48239256051392L1416.5292571428572,131.10222275316738L1417.5317285714286,131.24447435007306L1417.6059857142857,131.25501350497817L1420.9475571428572,131.730204600085L1423.5465571428572,132.1009131028749L1424.5490285714284,132.2441669952356L1424.8089285714286,132.28135184439083L1425.8485285714287,132.43006408142526L1430.8980142857142,133.15485337181764L1434.3138428571428,133.64729200475816L1437.9153142857144,134.1682892110471L1438.2494714285713,134.21674178535255L1438.6950142857143,134.28136347664395L1439.4004571428572,134.38370186134281L1440.0316428571427,134.47534859704493L1442.0365857142858,134.76686465878817L1442.4821285714286,134.83171504969783L1443.4103428571427,134.96694936823684L1444.7840999999999,135.16727775937656L1448.6454714285715,135.73194463262374L1449.3509142857142,135.83535021199316L1449.6108142857142,135.87344331040063L1451.3187285714287,136.12415361714164L1453.2494142857145,136.40808655163667L1453.3608000000002,136.42447440077532L1454.6603,136.61591719864427L1461.4177,137.61539435473938L1461.4548285714286,137.62091600055683L1462.2345285714287,137.73665217418377L1464.2766000000001,138.04029909239824L1467.5067857142856,138.52187139880792L1467.5439142857142,138.5274096918142L1468.9548000000002,138.73823891176917L1470.2543,138.9326900202478L1470.5884571428571,138.9827371153289L1477.085957142857,139.95906636227303L1480.6131714285714,140.4917472989382L1488.0760142857143,141.62489925389687L1489.4126428571428,141.82874634223384L1491.7146142857143,142.1804694016389L1494.5735142857143,142.61837197442605L1497.5066714285715,143.06893323262443L1498.2863714285713,143.18890393112838L1498.5834,143.234625041813L1499.0660714285714,143.30899823087884L1499.1403285714287,143.3204418905449L1503.0017,143.91651095243367L1503.075957142857,143.92801569356945L1506.306142857143,144.42842242601117L1506.4175285714286,144.44572808371427L1513.7689857142857,145.59067880346313L1514.0288857142857,145.63128639951557L1516.4793714285713,146.014875369818L1516.6650142857143,146.04397302160686L1520.5263857142859,146.6503674453333L1521.1575714285714,146.7497154730694L1523.6451857142858,147.14183250428886L1524.387757142857,147.25906046993154L1528.3605142857143,147.88772206471367L1530.8481285714286,148.28257677100396L1531.4050571428572,148.37111621228462L1531.9991142857143,148.4656178237521L1532.4817857142857,148.542431865926L1533.7812857142858,148.74941648325466L1534.7466285714288,148.90334419066767L1543.3975857142857,150.2892015727187L1545.6253,150.647963262282L1546.7391571428573,150.82763078571253L1547.4446,150.94152232661543L1550.7490428571427,151.4760003907964L1552.1970571428571,151.71076635873706L1552.3455714285715,151.73488624589322L1552.6797285714285,151.78911433883317L1553.8307142857143,151.97601594328657L1555.9470428571428,152.32025889707572L1561.3678142857143,153.20520496615327L1565.6747285714284,153.91156545377106L1566.8999714285712,154.11304499812496L1570.9469857142858,154.78024559771563L1576.2935,155.66559202328241L1577.5558714285712,155.87530091012783L1587.7662285714287,157.5807177566711L1589.3627571428572,157.8488846051076L1591.9246285714285,158.28002594017423L1603.6572571428574,160.26798265326403L1605.6993285714286,160.61624363865965L1606.2562571428573,160.7113358243571L1610.0805,161.36565228079863L1612.828014285714,161.83724069853758L1613.4220714285714,161.9393704895732L1613.8304857142857,162.00959977950276L1615.0928571428572,162.22686194325993L1618.0631428571428,162.73910586403463L1620.327985714286,163.13064524062563L1620.3651142857143,163.13708010458646L1622.5185714285715,163.51015273736542L1623.2611428571429,163.63897771136496L1624.8576714285714,163.91624874459865L1627.7165714285716,164.4137780226638L1632.9516999999998,165.32827638645276L1633.8056571428572,165.47788711755155L1633.8427857142858,165.4843927317541L1638.8922714285716,166.3714704698081L1642.4566142857143,167.00013040475346L1644.6472,167.3875456492442L1645.0556142857145,167.45985790900693L1655.6001285714287,169.3364510889155L1659.7214,170.07487751079682L1660.761,170.26159076715868L1662.6545571428571,170.6021526773519L1666.2560285714287,171.2514828529167L1667.4070142857142,171.45947970446116L1667.5926571428572,171.4930363451374L1668.2238428571427,171.60721517924208L1671.5282857142856,172.20601506452607L1679.1025142857143,173.58541060570536L1681.7757714285713,174.07453150891945L1685.6742714285715,174.78999620148997L1688.9044571428572,175.3847747333463L1689.3500000000001,175.46691778398556L1690.5381142857143,175.68622320878129L1691.5777142857144,175.8783072543713L1694.8079,176.4762779086345L1695.1791857142857,176.54513617129479L1695.4019571428573,176.58645868823135L1695.5504714285712,176.61401018354132L1696.7014571428572,176.82765155334187L1696.7757142857142,176.84143802442117L1697.2955142857143,176.93802455345295L1697.5182857142856,176.97940102478734L1700.2286714285713,177.4837694189879L1709.3994285714284,179.199589883688L1712.6667428571427,179.8143368730835L1713.6320857142857,179.99633940029767L1716.9736571428573,180.62749259637997L1717.9761285714285,180.81724058703372L1720.5751285714284,181.3099204797058L1723.0998714285715,181.78967213917434L1726.1444142857144,182.36963335601374L1727.926585714286,182.70983727871845L1728.5206428571428,182.82338166029692L1730.5255857142859,183.20698875630254L1736.5775428571428,184.36919752395133L1736.8745714285715,184.4263975245995L1739.2508,184.88458486973335L1740.2532714285717,185.0781671118796L1745.2656285714286,186.0487573671269L1745.5255285714286,186.0991795521679L1746.1938428571427,186.22897526073297L1750.0180857142857,186.97307001133132L1750.9091714285717,187.1468291717266L1751.2804571428571,187.21922371730537L1751.8002571428572,187.32071058372398L1754.1022285714284,187.77054519970048L1757.6294428571427,188.4616478399458L1761.7507142857141,189.2719304192803L1762.4190285714285,189.40360908199352L1762.7903142857144,189.4767912374181L1763.5700142857143,189.63058913167694L1767.6170285714284,190.43046811349055L1770.2160285714285,190.94571311163608L1773.8546285714287,191.6690209917089L1779.6095571428573,192.81789806532188L1780.8348,193.06326843075868L1781.4659857142856,193.18975145226267L1782.9140000000002,193.4802285590942L1792.4931714285713,195.41137496831197L1799.7703714285713,196.8894828018029L1801.4040285714284,197.22261745890862L1802.7035285714287,197.48795736177266L1803.8173857142858,197.71564590034208L1804.7084714285713,197.89792076990952L1805.8965857142855,198.14126206857097L1808.569842857143,198.68960252346363L1809.5723142857144,198.89557335137965L1809.7208285714285,198.92613245185132L1810.2777571428571,199.0406484161264L1811.2431,199.239262707799L1812.0599285714284,199.40746547660677L1818.4089142857142,200.71913274439692L1818.5574285714285,200.74990040612695L1819.0401,200.84992849151078L1822.0103857142858,201.4664464816508L1822.1589,201.49731358510817L1823.4955285714286,201.77530600518966L1826.7257142857143,202.44850334014754L1826.9856142857143,202.50276274636713L1828.6192714285714,202.844016243853L1830.5870857142856,203.25577016649245L1832.0350999999998,203.5591813364264L1834.299942857143,204.0345391287195L1837.9014142857143,204.79246054628226L1839.3123,205.09000456286583L1841.0202142857145,205.45073890386823L1841.0573428571429,205.45854069652685L1843.2479285714285,205.9220036144852L1846.3667285714284,206.58338976591813L1847.2578142857144,206.7727045606197L1849.0771142857143,207.15963126299533L1849.5969142857143,207.27031664242605L1855.091942857143,208.44333782864672L1856.2058,208.68179638434293L1858.3963857142855,209.1514767914984L1860.289942857143,209.558235745929L1867.9384285714286,211.20795069113117L1868.2725857142857,211.28028960049178L1870.2404000000001,211.7066752443836L1875.252757142857,212.79598934335152L1876.5893857142855,213.0873389183794L1880.4136285714285,213.9226711603682L1880.8591714285715,214.0201762706253L1885.0547,214.9402176557106L1887.5794428571428,215.49548740442106L1888.878942857143,215.78179752144854L1894.4482285714287,217.01240037000986L1894.7823857142855,217.086413656115L1895.7848571428572,217.30865962426572L1896.8987142857143,217.5557975108905L1898.1610857142857,217.8361390074277L1899.8318714285713,218.20774249203913L1900.1289,218.27383608886444L1901.1685,218.50537526888286L1905.3640285714287,219.4419038138377L1905.9580857142857,219.57477061873854L1908.2600571428572,220.09034591625777L1908.8912428571427,220.23191344457064L1912.0843,220.9491609266373L1912.418457142857,221.02436903326827L1919.3986285714284,222.59971168298458L1921.3293142857142,223.0371837401379L1932.0223428571428,225.47332419433957L1932.8020428571429,225.65183706023086L1938.0371714285714,226.8536363526983L1939.6336999999999,227.22124688869687L1941.6015142857143,227.67501731411843L1941.8614142857143,227.73502170256216L1942.6039857142857,227.9065000512544L1943.5693285714287,228.12959812491184L1946.9108999999999,228.90328672698678L1948.8415857142857,229.35133110207795L1951.0693,229.86921089517352L1951.3292000000001,229.92975520390772L1952.4059285714286,230.1804730155366L1954.373742857143,230.63933588280653L1954.522257142857,230.67395100143352L1955.0049285714285,230.78663595635646L1955.5247285714286,230.9080810001159L1956.4158142857143,231.1163213115789L1956.861357142857,231.22049549530612L1958.0494714285715,231.4985204258388L1958.3093714285715,231.55934245268804L1958.8291714285715,231.68112500717572L1963.0247,232.6658805671726L1963.4331142857143,232.76192230696938L1963.655885714286,232.81432858009637L1965.1781571428573,233.1727207258646L1965.3266714285712,233.20765384967208L1965.8464714285715,233.33015608919612L1966.7004285714286,233.5315399346112L1970.6360571428572,234.46149063035725L1972.2325857142857,234.83964282071142L1974.534557142857,235.38583354070573L1975.1286142857143,235.52693035177828L1976.2424714285714,235.79172959589698L1983.4454142857144,237.510295454674L1985.1162000000002,237.91050713716862L1986.8983714285716,238.33795379214266L1987.1953999999998,238.40929290326366L1991.2052857142858,239.37376810096316L1991.9478571428572,239.55278849748868L1999.1508,241.29487916067944L2004.274542857143,242.54074421015406L2015.0418285714286,245.17689680674087L2017.0467714285714,245.67049446006132L2017.9749857142856,245.89932367138198L2022.6531857142857,247.05528354752937L2025.6606,247.800865664229L2027.925442857143,248.3636899528931L2028.6308857142856,248.5391889315455L2030.8214714285714,249.08487465303847L2035.1283857142857,250.16079598176847L2038.0615428571427,250.8958627530001L2042.2942,251.9598585577783L2044.1506285714286,252.4277426498988L2045.5243857142857,252.77445969351265L2047.6035857142858,253.30000771806277L2048.197642857143,253.4503563343973L2049.3115,253.7323873011139L2052.0218857142854,254.4199206270207L2056.254542857143,255.49682153275884L2059.5218571428572,256.3308221613078L2062.0466,256.9768956598197L2065.4253,257.8436668706071L2065.499557142857,257.86276280524925L2065.7223285714285,257.9199747114219L2072.4797285714285,259.6616201192343L2078.4202999999998,261.2010872004691L2079.7569285714285,261.5485770701013L2084.026714285714,262.6612644754616L2084.1752285714283,262.70004538913025L2087.628185714286,263.60299243470405L2089.6702571428573,264.13826358854413L2091.8979714285715,264.72325462475226L2095.425185714286,265.6518375426733L2102.9994142857145,267.65535765905116L2107.046428571429,268.7313103998015L2108.6800857142857,269.1666723530838L2108.8286,269.20630025722346L2109.1256285714285,269.2855141383311L2114.6206571428575,270.7550604173852L2116.3657000000003,271.2231728044614L2118.816185714286,271.8817702842988L2118.8904428571427,271.90174852748504L2125.128042857143,273.5845538620511L2127.170114285714,274.13744323980404L2128.209714285714,274.41930569827724L2129.434957142857,274.7517916444922L2130.326042857143,274.9938277324966L2130.6973285714284,275.09474088539747L2135.264142857143,276.33851985923377L2135.9324571428574,276.5209363358349L2138.7171,277.28218685487894L2140.127985714286,277.6686114725221L2141.6502571428573,278.0860619886984L2145.4002428571425,279.11671568826745L2146.1056857142858,279.3109723094114L2149.9670571428574,280.3763876848011L2151.1923,280.7152513078559L2153.5685285714285,281.373356841974L2153.9398142857144,281.4763111964208L2156.8729714285714,282.29081529355744L2157.4299,282.44568631869043L2158.803657142857,282.8280484408792L2168.3457000000003,285.4965421813554L2168.6427285714285,285.57994734035657L2170.833314285714,286.1958548053454L2171.3531142857146,286.3421760946572L2177.5164571428572,288.0820883985108L2179.669914285714,288.6922093743446L2179.929814285714,288.76590874433157L2180.0783285714288,288.80804832216205L2180.226842857143,288.8501937979122L2184.051085714286,289.9369830484421L2185.4619714285714,290.33883136432854L2186.687214285714,290.68826571498647L2187.0956285714283,290.8047824665658L2191.4396714285717,292.04697414803337L2193.2589714285714,292.56860244042656L2193.8159,292.7284164846477L2194.5956,292.9523361066634L2195.152528571429,293.1123851517119L2197.380242857143,293.75330846719953L2199.5337,294.37397727936616L2204.2490285714284,295.73722972089666L2207.8876285714286,296.79296431636936L2212.454442857143,298.12275374965543L2213.7910714285713,298.5129694805656L2214.6079,298.75164678331737L2216.241557142857,299.22950609027833L2216.7242285714287,299.3708486095724L2217.2811571428574,299.53399657801566L2220.5484714285717,300.4926476513625L2222.6276714285714,301.1041486843524L2225.3751857142856,301.9138483254855L2227.045971428571,302.4071679105942L2234.8801,304.7300252577841L2238.8157285714283,305.90295460063516L2238.927114285714,305.93624704125875L2239.892457142857,306.22458867005577L2241.043442857143,306.56865664172585L2247.689457142857,308.5624045601018L2247.8751,308.61823320527867L2248.1721285714284,308.7076068243679L2254.1869571428574,310.52279030507054L2256.154771428571,311.11866944544755L2257.2315000000003,311.4451975879451L2260.0161428571428,312.29099653032165L2263.4691,313.34264951335683L2263.5804857142857,313.37667480716834L2268.221557142857,314.7953235772241L2276.129942857143,317.2261210618499L2277.3551857142857,317.6042243865267L2278.9145857142857,318.0860359834775L2280.1027,318.45359541539307L2280.8824,318.6949835647919L2283.2214999999997,319.42017520031527L2283.667042857143,319.55846305534095L2284.186842857143,319.71992457620337L2284.446742857143,319.8006707911291L2284.521,319.8237207953312L2287.4170285714285,320.7246988409397L2294.0630428571426,322.8009572559799L2295.288285714286,323.1850974120603L2296.624914285714,323.6045842728814L2297.8130285714287,323.97787599120113L2301.9343,325.2757449827716L2303.3080571428573,325.7094404628226L2310.7709,328.07456909919796L2311.6619857142855,328.358017280174L2313.0728714285715,328.80722798954594L2313.295642857143,328.8782376087225L2314.1124714285716,329.1386325103346L2316.7486,329.9802586424898L2319.3847285714287,330.8238905336879L2319.9416571428574,331.00235676109776L2321.204028571429,331.40722976844984L2323.320357142857,332.08697750484566L2327.4416285714287,333.4143667390239L2328.8525142857143,333.8699413127293L2330.189142857143,334.3020189321075L2334.2732857142855,335.6254149050661L2342.4415714285715,338.2867251779545L2350.0529285714288,340.7839175391538L2351.9464857142857,341.4078161492791L2355.4365714285714,342.5604756685508L2359.7434857142857,343.98783547740834L2361.785557142857,344.6664806816318L2362.8994142857146,345.0371971763144L2363.0479285714287,345.08664449780883L2364.6073285714283,345.60632292213256L2365.795442857143,346.0027854625691L2366.7979142857143,346.33757651116287L2367.4291000000003,346.54854959536715L2367.9860285714285,346.73479886595993L2368.3573142857144,346.859010452855L2371.476114285714,347.9040156476381L2376.7483714285713,349.6771500847768L2377.3424285714286,349.8775156822948L2377.453814285714,349.91506497954737L2377.5652,349.9526377755L2378.3820285714287,350.22834006669535L2382.6518142857144,351.6725811960719L2386.0305142857146,352.8193543911608L2387.775557142857,353.4130063673713L2389.5577285714285,354.02020828927164L2392.268114285714,354.94557544127963L2397.6146285714285,356.7775334292766L2399.3968,357.39015690477635L2399.990857142857,357.594603414332L2401.104714285714,357.97815331693323L2402.9240142857143,358.6055228862284L2403.4066857142857,358.77212146449347L2403.5923285714284,358.8362015218087L2404.1121285714285,359.0157448002643L2406.5997428571427,359.8761172398789L2408.2334,360.44224178267115L2409.2358714285715,360.7899765569174L2413.4685285714286,362.2618296824048" style="fill: none;" fill="none"></path></g></g></g></g></g></g><g transform="translate(54, 378)" clip-path="url(#clip_1)"><clipPath id="clip_1"><rect width="2599" height="22"></rect></clipPath><g><g><line x1="0" y1="0" x2="0" y2="5" style="visibility: inherit;" fill="rgb(0, 0, 0)" stroke="rgb(204, 204, 204)" stroke-width="1px"></line><line x1="185.64285714285714" y1="0" x2="185.64285714285714" y2="5" style="visibility: inherit;" fill="rgb(0, 0, 0)" stroke="rgb(204, 204, 204)" stroke-width="1px"></line><line x1="371.2857142857143" y1="0" x2="371.2857142857143" y2="5" style="visibility: inherit;" fill="rgb(0, 0, 0)" stroke="rgb(204, 204, 204)" stroke-width="1px"></line><line x1="556.9285714285714" y1="0" x2="556.9285714285714" y2="5" style="visibility: inherit;" fill="rgb(0, 0, 0)" stroke="rgb(204, 204, 204)" stroke-width="1px"></line><line x1="742.5714285714286" y1="0" x2="742.5714285714286" y2="5" style="visibility: inherit;" fill="rgb(0, 0, 0)" stroke="rgb(204, 204, 204)" stroke-width="1px"></line><line x1="928.2142857142858" y1="0" x2="928.2142857142858" y2="5" style="visibility: inherit;" fill="rgb(0, 0, 0)" stroke="rgb(204, 204, 204)" stroke-width="1px"></line><line x1="1113.857142857143" y1="0" x2="1113.857142857143" y2="5" style="visibility: inherit;" fill="rgb(0, 0, 0)" stroke="rgb(204, 204, 204)" stroke-width="1px"></line><line x1="1299.5" y1="0" x2="1299.5" y2="5" style="visibility: inherit;" fill="rgb(0, 0, 0)" stroke="rgb(204, 204, 204)" stroke-width="1px"></line><line x1="1485.142857142857" y1="0" x2="1485.142857142857" y2="5" style="visibility: inherit;" fill="rgb(0, 0, 0)" stroke="rgb(204, 204, 204)" stroke-width="1px"></line><line x1="1670.7857142857144" y1="0" x2="1670.7857142857144" y2="5" style="visibility: inherit;" fill="rgb(0, 0, 0)" stroke="rgb(204, 204, 204)" stroke-width="1px"></line><line x1="1856.4285714285716" y1="0" x2="1856.4285714285716" y2="5" style="visibility: inherit;" fill="rgb(0, 0, 0)" stroke="rgb(204, 204, 204)" stroke-width="1px"></line><line x1="2042.0714285714284" y1="0" x2="2042.0714285714284" y2="5" style="visibility: inherit;" fill="rgb(0, 0, 0)" stroke="rgb(204, 204, 204)" stroke-width="1px"></line><line x1="2227.714285714286" y1="0" x2="2227.714285714286" y2="5" style="visibility: inherit;" fill="rgb(0, 0, 0)" stroke="rgb(204, 204, 204)" stroke-width="1px"></line><line x1="2413.357142857143" y1="0" x2="2413.357142857143" y2="5" style="visibility: inherit;" fill="rgb(0, 0, 0)" stroke="rgb(204, 204, 204)" stroke-width="1px"></line><line x1="2599" y1="0" x2="2599" y2="5" style="visibility: inherit;" fill="rgb(0, 0, 0)" stroke="rgb(204, 204, 204)" stroke-width="1px"></line></g><g transform="translate(0, 8)"><text x="0" y="0" dx="0em" dy="0.95em" style="text-anchor: middle; visibility: hidden; font-family: Roboto, sans-serif; font-size: 12px; font-weight: 200;" fill="rgb(50, 49, 63)" stroke="none" stroke-width="1px">-5k</text><text x="185.64285714285714" y="0" dx="0em" dy="0.95em" style="text-anchor: middle; visibility: inherit; font-family: Roboto, sans-serif; font-size: 12px; font-weight: 200;" fill="rgb(50, 49, 63)" stroke="none" stroke-width="1px">0</text><text x="371.2857142857143" y="0" dx="0em" dy="0.95em" style="text-anchor: middle; visibility: inherit; font-family: Roboto, sans-serif; font-size: 12px; font-weight: 200;" fill="rgb(50, 49, 63)" stroke="none" stroke-width="1px">5k</text><text x="556.9285714285714" y="0" dx="0em" dy="0.95em" style="text-anchor: middle; visibility: inherit; font-family: Roboto, sans-serif; font-size: 12px; font-weight: 200;" fill="rgb(50, 49, 63)" stroke="none" stroke-width="1px">10k</text><text x="742.5714285714286" y="0" dx="0em" dy="0.95em" style="text-anchor: middle; visibility: inherit; font-family: Roboto, sans-serif; font-size: 12px; font-weight: 200;" fill="rgb(50, 49, 63)" stroke="none" stroke-width="1px">15k</text><text x="928.2142857142858" y="0" dx="0em" dy="0.95em" style="text-anchor: middle; visibility: inherit; font-family: Roboto, sans-serif; font-size: 12px; font-weight: 200;" fill="rgb(50, 49, 63)" stroke="none" stroke-width="1px">20k</text><text x="1113.857142857143" y="0" dx="0em" dy="0.95em" style="text-anchor: middle; visibility: inherit; font-family: Roboto, sans-serif; font-size: 12px; font-weight: 200;" fill="rgb(50, 49, 63)" stroke="none" stroke-width="1px">25k</text><text x="1299.5" y="0" dx="0em" dy="0.95em" style="text-anchor: middle; visibility: inherit; font-family: Roboto, sans-serif; font-size: 12px; font-weight: 200;" fill="rgb(50, 49, 63)" stroke="none" stroke-width="1px">30k</text><text x="1485.142857142857" y="0" dx="0em" dy="0.95em" style="text-anchor: middle; visibility: inherit; font-family: Roboto, sans-serif; font-size: 12px; font-weight: 200;" fill="rgb(50, 49, 63)" stroke="none" stroke-width="1px">35k</text><text x="1670.7857142857144" y="0" dx="0em" dy="0.95em" style="text-anchor: middle; visibility: inherit; font-family: Roboto, sans-serif; font-size: 12px; font-weight: 200;" fill="rgb(50, 49, 63)" stroke="none" stroke-width="1px">40k</text><text x="1856.4285714285716" y="0" dx="0em" dy="0.95em" style="text-anchor: middle; visibility: inherit; font-family: Roboto, sans-serif; font-size: 12px; font-weight: 200;" fill="rgb(50, 49, 63)" stroke="none" stroke-width="1px">45k</text><text x="2042.0714285714284" y="0" dx="0em" dy="0.95em" style="text-anchor: middle; visibility: inherit; font-family: Roboto, sans-serif; font-size: 12px; font-weight: 200;" fill="rgb(50, 49, 63)" stroke="none" stroke-width="1px">50k</text><text x="2227.714285714286" y="0" dx="0em" dy="0.95em" style="text-anchor: middle; visibility: inherit; font-family: Roboto, sans-serif; font-size: 12px; font-weight: 200;" fill="rgb(50, 49, 63)" stroke="none" stroke-width="1px">55k</text><text x="2413.357142857143" y="0" dx="0em" dy="0.95em" style="text-anchor: middle; visibility: inherit; font-family: Roboto, sans-serif; font-size: 12px; font-weight: 200;" fill="rgb(50, 49, 63)" stroke="none" stroke-width="1px">60k</text><text x="2599" y="0" dx="0em" dy="0.95em" style="text-anchor: middle; visibility: hidden; font-family: Roboto, sans-serif; font-size: 12px; font-weight: 200;" fill="rgb(50, 49, 63)" stroke="none" stroke-width="1px">65k</text></g><line x1="0" y1="0" x2="2599" y2="0" fill="rgb(0, 0, 0)" stroke="rgb(204, 204, 204)" stroke-width="1px"></line></g></g></g></g></svg>