<svg viewBox="0 0 330 200" xmlns="http://www.w3.org/2000/svg"><g><g><g><g><g><line x1="65" y1="178" x2="60" y2="178" style="visibility: inherit;" fill="rgb(0, 0, 0)" stroke="rgb(204, 204, 204)" stroke-width="1px"></line><line x1="65" y1="158.2222222222222" x2="60" y2="158.2222222222222" style="visibility: inherit;" fill="rgb(0, 0, 0)" stroke="rgb(204, 204, 204)" stroke-width="1px"></line><line x1="65" y1="138.44444444444446" x2="60" y2="138.44444444444446" style="visibility: inherit;" fill="rgb(0, 0, 0)" stroke="rgb(204, 204, 204)" stroke-width="1px"></line><line x1="65" y1="118.66666666666669" x2="60" y2="118.66666666666669" style="visibility: inherit;" fill="rgb(0, 0, 0)" stroke="rgb(204, 204, 204)" stroke-width="1px"></line><line x1="65" y1="98.8888888888889" x2="60" y2="98.8888888888889" style="visibility: inherit;" fill="rgb(0, 0, 0)" stroke="rgb(204, 204, 204)" stroke-width="1px"></line><line x1="65" y1="79.1111111111111" x2="60" y2="79.1111111111111" style="visibility: inherit;" fill="rgb(0, 0, 0)" stroke="rgb(204, 204, 204)" stroke-width="1px"></line><line x1="65" y1="59.33333333333332" x2="60" y2="59.33333333333332" style="visibility: inherit;" fill="rgb(0, 0, 0)" stroke="rgb(204, 204, 204)" stroke-width="1px"></line><line x1="65" y1="39.55555555555557" x2="60" y2="39.55555555555557" style="visibility: inherit;" fill="rgb(0, 0, 0)" stroke="rgb(204, 204, 204)" stroke-width="1px"></line><line x1="65" y1="19.777777777777768" x2="60" y2="19.777777777777768" style="visibility: inherit;" fill="rgb(0, 0, 0)" stroke="rgb(204, 204, 204)" stroke-width="1px"></line><line x1="65" y1="0" x2="60" y2="0" style="visibility: inherit;" fill="rgb(0, 0, 0)" stroke="rgb(204, 204, 204)" stroke-width="1px"></line></g><g transform="translate(55, 0)"><text x="0" y="178" dx="0em" dy="0.3em" style="text-anchor: end; visibility: hidden; font-family: Roboto, sans-serif; font-size: 12px; font-weight: 200;" fill="rgb(50, 49, 63)" stroke="none" stroke-width="1px">-5e-3</text><text x="0" y="158.2222222222222" dx="0em" dy="0.3em" style="text-anchor: end; visibility: inherit; font-family: Roboto, sans-serif; font-size: 12px; font-weight: 200;" fill="rgb(50, 49, 63)" stroke="none" stroke-width="1px">0</text><text x="0" y="138.44444444444446" dx="0em" dy="0.3em" style="text-anchor: end; visibility: hidden; font-family: Roboto, sans-serif; font-size: 12px; font-weight: 200;" fill="rgb(50, 49, 63)" stroke="none" stroke-width="1px">5e-3</text><text x="0" y="118.66666666666669" dx="0em" dy="0.3em" style="text-anchor: end; visibility: inherit; font-family: Roboto, sans-serif; font-size: 12px; font-weight: 200;" fill="rgb(50, 49, 63)" stroke="none" stroke-width="1px">0.01</text><text x="0" y="98.8888888888889" dx="0em" dy="0.3em" style="text-anchor: end; visibility: hidden; font-family: Roboto, sans-serif; font-size: 12px; font-weight: 200;" fill="rgb(50, 49, 63)" stroke="none" stroke-width="1px">0.015</text><text x="0" y="79.1111111111111" dx="0em" dy="0.3em" style="text-anchor: end; visibility: inherit; font-family: Roboto, sans-serif; font-size: 12px; font-weight: 200;" fill="rgb(50, 49, 63)" stroke="none" stroke-width="1px">0.02</text><text x="0" y="59.33333333333332" dx="0em" dy="0.3em" style="text-anchor: end; visibility: hidden; font-family: Roboto, sans-serif; font-size: 12px; font-weight: 200;" fill="rgb(50, 49, 63)" stroke="none" stroke-width="1px">0.025</text><text x="0" y="39.55555555555557" dx="0em" dy="0.3em" style="text-anchor: end; visibility: inherit; font-family: Roboto, sans-serif; font-size: 12px; font-weight: 200;" fill="rgb(50, 49, 63)" stroke="none" stroke-width="1px">0.03</text><text x="0" y="19.777777777777768" dx="0em" dy="0.3em" style="text-anchor: end; visibility: hidden; font-family: Roboto, sans-serif; font-size: 12px; font-weight: 200;" fill="rgb(50, 49, 63)" stroke="none" stroke-width="1px">0.035</text><text x="0" y="0" dx="0em" dy="0.3em" style="text-anchor: end; visibility: hidden; font-family: Roboto, sans-serif; font-size: 12px; font-weight: 200;" fill="rgb(50, 49, 63)" stroke="none" stroke-width="1px">0.04</text></g><line x1="65" y1="0" x2="65" y2="178" fill="rgb(0, 0, 0)" stroke="rgb(204, 204, 204)" stroke-width="1px"></line></g></g><g transform="translate(65, 0)" clip-path="url(#clip_0)"><clipPath id="clip_0"><rect width="265" height="178"></rect></clipPath><g><g><g><line x1="0" y1="0" x2="0" y2="178" fill="rgb(0, 0, 0)" stroke="rgb(60, 60, 60)" stroke-width="1px" opacity="0.25"></line><line x1="18.928571428571427" y1="0" x2="18.928571428571427" y2="178" fill="rgb(0, 0, 0)" stroke="rgb(60, 60, 60)" stroke-width="1px" opacity="0.25"></line><line x1="37.857142857142854" y1="0" x2="37.857142857142854" y2="178" fill="rgb(0, 0, 0)" stroke="rgb(60, 60, 60)" stroke-width="1px" opacity="0.25"></line><line x1="56.785714285714285" y1="0" x2="56.785714285714285" y2="178" fill="rgb(0, 0, 0)" stroke="rgb(60, 60, 60)" stroke-width="1px" opacity="0.25"></line><line x1="75.71428571428571" y1="0" x2="75.71428571428571" y2="178" fill="rgb(0, 0, 0)" stroke="rgb(60, 60, 60)" stroke-width="1px" opacity="0.25"></line><line x1="94.64285714285714" y1="0" x2="94.64285714285714" y2="178" fill="rgb(0, 0, 0)" stroke="rgb(60, 60, 60)" stroke-width="1px" opacity="0.25"></line><line x1="113.57142857142857" y1="0" x2="113.57142857142857" y2="178" fill="rgb(0, 0, 0)" stroke="rgb(60, 60, 60)" stroke-width="1px" opacity="0.25"></line><line x1="132.5" y1="0" x2="132.5" y2="178" fill="rgb(0, 0, 0)" stroke="rgb(60, 60, 60)" stroke-width="1px" opacity="0.25"></line><line x1="151.42857142857142" y1="0" x2="151.42857142857142" y2="178" fill="rgb(0, 0, 0)" stroke="rgb(60, 60, 60)" stroke-width="1px" opacity="0.25"></line><line x1="170.35714285714286" y1="0" x2="170.35714285714286" y2="178" fill="rgb(0, 0, 0)" stroke="rgb(60, 60, 60)" stroke-width="1px" opacity="0.25"></line><line x1="189.28571428571428" y1="0" x2="189.28571428571428" y2="178" fill="rgb(0, 0, 0)" stroke="rgb(60, 60, 60)" stroke-width="1px" opacity="0.25"></line><line x1="208.21428571428572" y1="0" x2="208.21428571428572" y2="178" fill="rgb(0, 0, 0)" stroke="rgb(60, 60, 60)" stroke-width="1px" opacity="0.25"></line><line x1="227.14285714285714" y1="0" x2="227.14285714285714" y2="178" fill="rgb(0, 0, 0)" stroke="rgb(60, 60, 60)" stroke-width="1px" opacity="0.25"></line><line x1="246.07142857142858" y1="0" x2="246.07142857142858" y2="178" fill="rgb(0, 0, 0)" stroke="rgb(60, 60, 60)" stroke-width="1px" opacity="0.25"></line><line x1="265" y1="0" x2="265" y2="178" fill="rgb(0, 0, 0)" stroke="rgb(60, 60, 60)" stroke-width="1px" opacity="0.25"></line></g><g><line x1="0" y1="178" x2="265" y2="178" fill="rgb(0, 0, 0)" stroke="rgb(60, 60, 60)" stroke-width="1px" opacity="0.25"></line><line x1="0" y1="158.2222222222222" x2="265" y2="158.2222222222222" fill="rgb(0, 0, 0)" stroke="rgb(60, 60, 60)" stroke-width="1px" opacity="0.25"></line><line x1="0" y1="138.44444444444446" x2="265" y2="138.44444444444446" fill="rgb(0, 0, 0)" stroke="rgb(60, 60, 60)" stroke-width="1px" opacity="0.25"></line><line x1="0" y1="118.66666666666669" x2="265" y2="118.66666666666669" fill="rgb(0, 0, 0)" stroke="rgb(60, 60, 60)" stroke-width="1px" opacity="0.25"></line><line x1="0" y1="98.8888888888889" x2="265" y2="98.8888888888889" fill="rgb(0, 0, 0)" stroke="rgb(60, 60, 60)" stroke-width="1px" opacity="0.25"></line><line x1="0" y1="79.1111111111111" x2="265" y2="79.1111111111111" fill="rgb(0, 0, 0)" stroke="rgb(60, 60, 60)" stroke-width="1px" opacity="0.25"></line><line x1="0" y1="59.33333333333332" x2="265" y2="59.33333333333332" fill="rgb(0, 0, 0)" stroke="rgb(60, 60, 60)" stroke-width="1px" opacity="0.25"></line><line x1="0" y1="39.55555555555557" x2="265" y2="39.55555555555557" fill="rgb(0, 0, 0)" stroke="rgb(60, 60, 60)" stroke-width="1px" opacity="0.25"></line><line x1="0" y1="19.777777777777768" x2="265" y2="19.777777777777768" fill="rgb(0, 0, 0)" stroke="rgb(60, 60, 60)" stroke-width="1px" opacity="0.25"></line><line x1="0" y1="0" x2="265" y2="0" fill="rgb(0, 0, 0)" stroke="rgb(60, 60, 60)" stroke-width="1px" opacity="0.25"></line></g></g></g><g><g><line x1="0" y1="158.2222222222222" x2="265" y2="158.2222222222222" fill="rgb(0, 0, 0)" stroke="rgb(153, 153, 153)" stroke-width="1.5px"></line></g></g><g><g><line x1="18.928571428571427" y1="0" x2="18.928571428571427" y2="178" fill="rgb(0, 0, 0)" stroke="rgb(153, 153, 153)" stroke-width="1.5px"></line></g></g><g><g><g><g><g><path stroke="rgb(255, 112, 67)" stroke-width="2px" d="M19.08757142857143,26.125148495038356L19.098928571428573,-76.02414596613986L19.81442857142857,-19.43959182374958L19.89392857142857,0.7757322845435275L19.962071428571427,8.453051994484138L20.094571428571427,28.519709807382135L20.10214285714286,31.04091790606621L20.13242857142857,20.900340556830326L20.723000000000003,34.447598627892795L20.957714285714285,44.76284377866095L21.1205,53.67018430169903L21.147,65.36683619294338L21.328714285714284,75.458053907241L21.377928571428573,78.31560249955331L21.631571428571426,69.2187282721468L21.661857142857144,74.39211918809029L21.964714285714287,79.14815100667998L21.98742857142857,81.55670309610818L22.09342857142857,79.73764875312095L22.6045,67.1086283203477L22.767285714285716,58.084999791369746L22.964142857142857,64.66467799473841L23.108,73.66411522823186L23.395714285714288,66.19275136861516L23.702357142857142,70.19734898073558L23.910571428571426,67.07226353939096L23.921928571428573,47.7858196261421L23.974928571428574,59.6072810931551L23.99007142857143,66.9616346235609L24.171785714285715,73.13952674073013L24.198285714285714,69.32304995527107L24.364857142857144,74.54950747807393L24.478428571428573,82.3729572460693L24.804000000000002,84.15425421947275L24.925142857142855,91.96606379711442L25.330214285714288,95.01708928305592L25.493,97.59920549628589L25.504357142857142,88.08380590301817L25.90942857142857,94.26154710131952L26.034357142857143,97.27899694996532L26.185785714285714,100.14762696280096L26.299357142857144,102.13562747210474L26.636285714285712,75.28614387398318L26.86342857142857,79.17631415396009L27.20792857142857,84.71193503833646L27.25335714285714,86.29415414267731L27.3745,85.48289877665627L27.491857142857143,80.75229076617624L27.66221428571429,78.83319280886188L27.97264285714286,74.96184447207584L28.15057142857143,60.96455416107308L28.214928571428572,63.431201172835394L28.2225,62.328747195775215L28.24142857142857,58.74452026439101L28.33607142857143,66.01187460310116L28.339857142857145,65.04230130051515L28.385285714285715,65.40740368235227L28.404214285714286,64.86055103414041L28.514,71.83899552753168L29.093214285714286,76.55877569789763L29.30142857142857,53.751860692355905L30.160785714285716,63.1073651920187L30.42957142857143,73.59708479746716L30.44092857142857,82.56875886539297L30.89521428571429,82.4242841779919L31.156428571428574,84.47051760296439L31.217,48.337282487041946L31.220785714285714,50.36491938782303L31.440357142857145,49.68279749952156L32.10285714285715,59.185579905073844L32.62528571428572,31.173138320459056L32.63285714285714,29.777860872773395L32.82214285714286,42.42656698283634L33.09092857142857,44.60819024122398L33.367285714285714,44.83636799795178L33.39378571428571,41.34712616286057L33.798857142857145,48.110228539237816L33.90485714285714,60.595553967714935L34.20771428571428,59.69490524311925L34.44242857142857,48.56321305255535L34.813428571428574,38.879712129510494L34.94971428571428,25.130243939048945L35.271499999999996,29.97213978320085L35.58571428571429,38.35491189492517L35.934,48.754366595761844L35.998357142857145,52.0698589135456L36.07785714285714,52.45695123915877L36.585142857142856,56.36796009764498L36.60028571428572,62.77180858677687L36.63057142857143,66.04122929695956L37.054571428571435,73.9882300412419L37.107571428571426,63.221204596880355L37.25142857142857,27.85146088635948L37.45585714285714,24.021799221792783L37.74735714285715,-347.03120804236625L41.1545,-1.8225598337971878L41.29078571428571,11.239815903403906L41.605,8.50842012911727L42.13878571428572,24.914560272154038L42.4,37.62499190153861L42.47192857142857,27.629327037233892L42.73692857142857,42.845290511748544L42.824,52.667418373740745L43.06628571428572,62.054345928280796L43.61142857142857,70.99500039061216L43.81585714285715,80.22450638316185L43.925642857142854,76.86526340139675L44.27771428571428,73.59143203418854L44.28907142857143,72.63969733398223L44.3345,73.2851506958149L44.87585714285714,72.2515147139596L45.29985714285714,69.8020173168134L45.39828571428572,60.394615008840155L45.860142857142854,61.644746646702906L46.01535714285715,58.096149152286806L46.60592857142857,65.54030694403644L46.87471428571428,64.90255818798097L47.13214285714285,66.61495393922783L47.169999999999995,74.09278266083092L47.181357142857145,77.3489208831153L47.23814285714286,77.7595107676927L47.36307142857143,81.13889807482153L48.05207142857142,81.90528214858921L48.41171428571428,90.01031990812996L48.449571428571424,96.94326039835961L48.582071428571425,96.6464051834278L49.18021428571429,97.0865523323729L49.46414285714285,96.96172540827216L49.895714285714284,94.63924768941382L50.05092857142857,94.96870473333591L50.588499999999996,100.36724068680208L50.60742857142857,88.9149292580289L50.6415,96.73423656367935L50.99357142857143,99.36360690684708L51.09957142857143,83.6934315572464L51.13742857142857,87.50815371623287L51.4895,75.41246787978618L51.61821428571429,78.61607077750003L51.84535714285715,84.01869451082253L52.53814285714286,87.31527805206598L52.64792857142857,94.76142172090542L52.727428571428575,96.32328625119199L52.75392857142857,100.77261590398017L52.9735,96.70375636276202L53.208214285714284,102.24469257979351L53.98428571428571,89.88959217412902L54.196285714285715,84.22375770364563L54.31742857142857,70.42206229729588L54.64678571428571,18.039772371300806L54.77171428571428,26.217008304429744L55.09728571428572,37.025885659958604L55.1465,49.85024590674942L55.48721428571429,57.51790663290912L55.574285714285715,65.3380088710477L55.64242857142857,71.92666340112375L56.19135714285714,78.00177409152113L56.43364285714286,87.11323680927514L57.00528571428571,94.22847427312242L57.10371428571428,87.39304194943047L57.83057142857143,86.52689205281935L57.85707142857143,79.10731064448548L58.296214285714285,82.76969606059464L58.59907142857143,74.69078583015121L58.76185714285714,67.37844055604242L59.083642857142856,71.46531939163032L59.20099999999999,47.75472107467681L59.26157142857143,54.646627018381274L59.477357142857144,52.287316502589015L59.6515,60.25319540708167L59.65528571428571,61.90443951208611L59.738571428571426,69.33331872840621L59.969500000000004,74.04265020963048L60.003571428571426,64.04610911902702L60.200428571428574,59.8406393533321L60.21178571428571,54.27826309680415L60.355642857142854,54.54897631484961L60.44271428571428,56.896282563954244L60.465428571428575,64.38003837668154L60.473,71.22307146923663L60.64714285714286,68.07841717195335L60.95757142857143,65.94838858834805L61.0295,63.99853047404571L61.06357142857143,71.49611296994122L61.321,71.33892458111L61.32857142857143,55.43881822811702L61.55571428571429,64.77375110046994L62.157642857142854,56.97797080330713L62.35828571428572,63.796319533402496L62.434,54.22157674440722L62.55135714285714,64.00274482275387L62.585428571428565,74.27809155529872L62.71414285714285,79.5236003916506L63.02457142857143,87.56081374524886L63.16464285714286,87.16728045147717L63.444785714285715,92.78967776099297L63.876357142857145,98.31501444182497L64.23978571428572,104.325761143622L64.25871428571428,103.32299655753076L64.395,104.97935623899106L64.51235714285714,105.92488525660283L64.87957142857142,90.2856754325202L64.978,89.00836841139086L65.05371428571428,89.93208045764204L65.455,86.87412042351136L65.89035714285714,88.72065539627253L66.09100000000001,92.75255700659962L66.89735714285715,98.78069883637933L67.67721428571429,72.21888703676942L67.91192857142858,81.93053635261055L68.20721428571429,83.04587682114199L68.27157142857143,88.28171146457434L68.3737857142857,93.07693447296762L68.45328571428571,44.322461166350095L68.49871428571429,52.12089637532293L68.5555,64.35058780649325L69.04764285714286,65.47544412604378L69.66471428571428,48.949185501165566L69.67985714285714,50.584100444208545L70.05085714285714,60.29781709881528L70.20985714285715,58.02392428540246L70.40292857142857,66.40483884594649L70.49000000000001,76.37416490243321L70.71335714285715,70.84041602435313L71.20928571428573,80.646191595544L71.48942857142856,86.77535264502134L72.23142857142857,31.793704174961054L72.76521428571428,44.86291712555189L73.01507142857143,57.591328777432324L73.04157142857143,64.88828730032611L73.14,52.999668410367796L73.20814285714286,58.43268881854567L73.4315,66.98832515443897L73.62078571428572,76.78697578795303L74.32114285714286,81.62608268188109L74.34385714285715,80.50216810241162L74.45742857142858,84.65219684329932L74.4915,86.50103682596207L74.52935714285714,52.73356359286927L74.87764285714286,57.55909656975268L74.91171428571428,60.395819326394594L74.99121428571429,68.70577445056213L75.23349999999999,75.81244109954618L75.30542857142858,74.21034154564873L76.05499999999999,82.06264543211168L76.39571428571429,81.5024274942074L76.72128571428571,89.93060963145005L76.94085714285714,97.84568200131476L77.50492857142856,99.43964461616564L77.51249999999999,98.16747669250894L77.63364285714286,97.70037642794368L77.751,102.91099542463681L78.51571428571428,95.86985727984218L78.60657142857143,101.75019284926647L78.64064285714285,107.21106596458179L78.84885714285714,109.27638972951009L79.4735,105.89106468197069L79.85964285714286,107.54694743945196L79.93914285714285,112.70950478184116L80.44264285714286,118.00845031820371L80.71521428571428,115.44089591916025L80.7985,109.88857634307526L80.86285714285715,107.33388688387845L81.037,105.28129629216504L81.41178571428571,111.42943140632433L82.13864285714286,100.41535333341696L82.55885714285714,104.11133340468857L82.56264285714286,72.95797933124906L82.74435714285714,81.72729233962231L82.90335714285715,66.99618999772312L83.53557142857143,75.67310069715562L83.65292857142856,85.16261382799172L83.78164285714286,93.22532186035944L84.1905,98.94675187678068L84.31542857142857,90.92762761820153L84.39114285714287,98.12846978132316L84.482,100.72636847183651L84.48578571428571,103.53671009448148L84.49714285714285,101.1976140549043L84.56907142857143,104.98240443354092L84.81892857142857,110.35524010475004L84.96657142857143,112.91240546888808L85.00442857142858,114.85005058887985L85.34135714285713,116.07298894268699L85.39435714285715,120.02840165710865L85.50414285714285,108.03218095769101L85.53442857142858,94.69147602621767L85.64421428571428,101.1597801670044L86.019,106.23462461830083L86.8935,106.30142411835982L86.9995,112.34971529179387L87.13957142857143,115.28115804384989L87.27207142857142,119.23142483429935L87.31750000000001,113.05470122664518L87.55978571428571,113.4786273594514L88.07085714285715,115.28682319943665L88.27528571428572,114.07860648007224L88.77878571428572,117.19813363842596L88.78257142857143,120.57106849010606L89.31257142857143,114.18885197275425L89.77064285714286,106.04012477394063L89.79714285714286,109.89616340687797L90.27035714285714,97.07806351895563L90.69814285714286,95.7873756725326L90.87607142857142,92.52649764771685L91.03885714285714,89.82997700568367L91.29628571428572,92.96559256363686L91.49692857142857,94.5263365011496L91.88307142857143,101.29975150599999L92.84464285714286,106.45546270237315L92.86735714285714,112.51208452144797L93.28,106.82986030835116L93.333,101.88221192698515L93.6245,105.82342940261881L93.64721428571428,108.07288474147151L93.97278571428572,99.6425182866467L94.05985714285714,102.23490381109339L94.32485714285714,107.22785581150673L94.40814285714286,94.59305926932039L94.53307142857143,94.18661989734721L94.62392857142858,98.70048690707763L94.77535714285715,89.51067331050156L94.8435,94.21265095735461L94.86621428571429,98.23850680597512L94.87757142857143,95.21948380493318L95.16528571428572,95.78587563768323L95.16907142857143,89.53316033165844L95.34700000000001,95.48338164071791L95.46435714285714,101.70438260323084L95.56657142857142,98.93465186475666L95.57792857142857,105.285736215437L95.59685714285715,104.36616541128785L95.86564285714284,99.66653800178858L95.9072857142857,97.87499307919184L96.09278571428571,101.32908257015096L96.30857142857143,104.51927963942393L96.47892857142857,104.23316619432295L96.63414285714285,98.45065919573466L96.68335714285715,100.7974668455404L96.68714285714286,96.17245692449643L96.77042857142858,100.91634209340233L96.831,75.849369321337L97.2512142857143,78.93179647575884L97.33071428571428,88.4498170488346L97.59192857142857,80.79795787931114L97.60328571428572,88.8942129738197L97.60707142857143,96.08428604368004L97.78878571428572,99.587014469813L97.87964285714287,105.65102325465709L98.37935714285715,104.19388626490917L98.73142857142857,95.35106032299615L98.9737142857143,99.78941217859209L99.2197857142857,106.34988877122915L99.30685714285714,112.24020353801617L99.62485714285714,110.57976911492646L99.63621428571429,114.27288278871423L99.65514285714286,115.77957189677895L99.90878571428571,105.67952869904401L99.97692857142857,107.57017807598113L100.26085714285715,104.43587801564506L100.4085,110.10618631526218L101.00664285714286,112.83708619136071L101.16942857142858,113.06355817181526L101.43821428571428,109.92400477923633L101.53664285714287,110.10003551067673L101.61614285714285,111.60485227300434L101.63885714285713,109.12612200137318L102.237,93.01569659681653L103.14178571428572,80.78905099370023L103.191,81.60171098640141L103.31971428571428,88.77363594695245L103.46357142857143,84.13509260011462L103.56957142857142,77.8797784412917L104.00114285714285,87.39040640027108L104.13364285714285,80.22553346612413L104.27371428571428,89.25509536553247L104.61821428571429,90.65885161033192L105.11035714285714,95.73469052671294L105.3942857142857,96.40876816626303L105.735,103.54229609861561L105.74635714285715,108.85414659312796L106.318,110.30982724727855L106.52242857142858,108.24159012772965L106.56028571428571,111.19678042025352L106.68900000000001,113.28185283158408L106.72685714285714,93.92115978650041L106.82528571428571,97.8342139297267L106.99564285714285,93.15896326824375L107.08271428571427,100.11861319978001L107.36664285714286,101.67134829092036L107.43857142857142,108.35487479327045L107.6165,105.9718084742452L108.0442857142857,111.41562916035925L108.22978571428573,111.9034271494345L108.53642857142857,116.7037733160354L108.57807142857143,121.52980435555416L108.65378571428572,123.53810722756796L108.93014285714285,113.39536193726539L109.14592857142857,117.02023707300233L109.551,119.53043867123284L110.08478571428572,122.35986460727507L110.23242857142857,122.42756974295355L110.34221428571429,112.99232646163553L110.67157142857143,107.99570614006016L110.8532857142857,101.2021311425637L110.86085714285714,104.74200130132975L111.00471428571429,101.22864505721637L111.0917857142857,96.19081956467237L111.36057142857143,101.85983525728206L111.89435714285715,103.59387918349292L112.13664285714286,105.21979341658391L112.50764285714286,105.70403836182065L112.53792857142858,108.15765021093614L113.19664285714285,112.09136743058741L113.32157142857143,114.92534016125926L113.60171428571428,116.81205150571131L113.74935714285715,120.07527580990485L114.07492857142857,121.33899812033009L114.44592857142857,121.55336883828056L114.49514285714285,122.07935244665757L114.52921428571429,120.00924420690288L114.82828571428571,123.32909783200543L115.05164285714285,120.66167830839788L115.48321428571428,110.36857038509581L115.54,115.84878108872843L115.83907142857143,109.28326784307816L116.16842857142858,114.4448773594752L116.64542857142857,117.88410093879644L116.77792857142856,111.98878027553795L117.05807142857142,116.60488381376953L117.5275,98.27942336493776L117.607,101.39076598404816L117.70164285714286,108.15803023319961L117.94392857142857,113.31386451696942L117.99692857142858,117.83312953414985L118.46257142857144,122.63334225355516L118.50421428571428,126.56646131046269L118.8827857142857,126.48848983980947L119.13642857142857,100.67977576635808L119.89357142857142,106.27262211726868L120.37435714285715,105.50754850465633L120.37814285714286,99.22718684054247L120.48792857142857,106.00089413620083L120.49549999999999,111.78170966437098L120.87028571428571,114.75598026873301L121.68042857142856,108.25170195295192L121.70314285714286,109.15796359090479L121.72585714285715,112.24646185629273L121.741,110.56567931360662L121.74478571428571,112.97881605488116L122.18014285714285,115.16292456352629L123.05464285714285,113.93495356895316L123.42564285714286,118.5093492272427L123.4635,122.36507741791733L123.49000000000001,117.14913069125451L123.55814285714285,117.66276534902352L123.9405,119.88530758446693L124.26607142857142,113.93236266646358L124.61057142857143,109.88921708526806L124.61814285714286,114.65610738600387L124.73928571428571,117.37422226483098L124.80742857142857,120.12429534301663L125.87878571428571,124.39958853040918L125.9772142857143,123.39619102418402L126.14378571428571,122.18743554522429L126.58671428571428,126.07458923344892L126.63592857142856,124.32563626167213L126.98421428571429,126.23670823995866L127.09400000000001,125.76033190127606L127.24164285714285,124.62165431091739L128.60071428571428,128.03678028673932L128.69914285714285,122.65637396657107L128.78242857142857,124.98348683975802L128.85435714285714,121.53332873165033L128.94899999999998,123.23172703199188L129.00957142857143,126.61200948651428L129.055,129.76013036197364L129.4752142857143,130.0931072674484L129.70992857142858,132.11587549507516L130.49735714285714,131.6269379855761L130.52385714285714,123.77480677090529L130.5579285714286,125.25672059760927L130.74721428571428,128.56467674968212L130.75857142857143,129.86956451038287L130.83807142857142,131.79494523269412L130.95542857142857,134.0217422185983L131.02735714285714,128.96894683937867L131.54221428571427,127.49800574620463L131.84885714285713,127.92015081057048L131.85264285714285,127.0074182986172L131.98135714285715,128.83445774105687L132.5,131.52783628223494L132.51892857142857,132.01511517527013L132.61735714285714,131.6483163003634L132.79149999999998,132.86155455443333L132.8482857142857,124.1311989728229L133.1587142857143,127.654403364319L133.3215,124.23947537717031L133.41992857142858,118.16482341802156L133.57514285714285,117.89062294469687L133.73792857142857,122.77018929245368L134.23764285714284,126.545755293614L134.2792857142857,129.87568732368953L134.66542857142858,131.8393154418706L134.81685714285715,132.93619166980235L135.17271428571428,129.25693902097777L135.22571428571428,122.81664404705968L135.29385714285715,119.83751326097685L136.48257142857142,122.06572455677866L136.68321428571429,120.7045965880371L137.82271428571428,124.88305587217067L137.9627857142857,128.60935570864726L138.9205714285714,129.38973499244403L139.01899999999998,127.17919434693215L139.3445714285714,130.27589940831362L139.59064285714285,131.8798405456225L139.61714285714285,131.60609102079468L139.64742857142855,134.13192812612314L139.82914285714284,135.55252916245436L139.8632142857143,134.9900754151119L140.08657142857143,134.76512080354564L140.1357857142857,136.67257578158086L140.73014285714288,138.7432968057678L140.85507142857145,138.54151064577826L141.0140714285714,139.63442430843997L141.71821428571428,140.47677700884157L142.07407142857141,134.87243095148241L142.12328571428571,134.21455966551486L142.3845,136.3491949210534L142.55864285714287,138.2096970026323L142.74414285714286,124.32435230545707L142.95614285714285,123.59946822608188L143.45585714285713,127.3775771536517L143.48614285714285,129.6894963686113L143.86471428571429,133.09043044350227L143.91014285714286,129.4648640612378L143.98585714285713,131.40520349543704L144.43257142857144,132.56049865234502L144.53478571428573,134.12884793665617L144.54235714285713,132.5259604992427L144.88307142857144,133.7873535694419L145.14807142857143,136.08350648733858L145.2502857142857,138.21214797942372L145.27678571428572,139.4293063179744L145.38278571428572,137.82864905749784L145.89764285714287,138.59409627586734L146.24592857142858,138.3327910117905L146.61314285714286,128.28687286019291L146.64721428571428,124.23672123452583L146.69264285714286,128.25243345406992L146.76457142857143,131.6580433046945L146.82892857142858,123.9525720930762L147.03335714285717,127.62586450704968L147.07878571428571,128.52231827960208L147.17342857142856,127.15839500225907L147.31349999999998,130.59604659121243L147.7072142857143,133.17329740135366L147.77914285714286,134.85138056570054L147.80564285714286,133.42112689476266L147.97978571428573,134.43892595485553L148.17664285714287,136.7568002148964L148.18800000000002,122.89732464106375L148.32049999999998,119.30031886657157L149.0095,123.36551439075782L149.01328571428573,124.35076193281083L149.09278571428572,126.28088889951869L149.30100000000002,129.8142611306411L149.63035714285712,132.1118326868841L149.63414285714285,134.43372615059803L149.77800000000002,135.25197978116896L149.91049999999998,138.03231076397256L149.94457142857144,119.61584455335831L150.60707142857143,120.72943171449802L150.96671428571426,122.2883879611495L151.72764285714285,123.97261240068521L151.86392857142857,127.96013063268329L152.09864285714286,122.38075588759918L152.39014285714285,125.22550437448766L152.68921428571429,126.92740740524081L152.76871428571428,130.68188944617916L152.799,129.43206616992242L152.84821428571428,131.29312046679465L152.85578571428573,121.50539663947757L153.2495,115.49215825712062L153.25707142857144,119.90515460806697L153.5864285714286,116.17239560237151L153.59778571428572,117.94896548837866L154.34735714285713,119.45396315715736L154.37385714285713,123.22774162480408L154.62371428571427,125.74933655079582L154.64264285714287,114.41733631391372L155.03635714285716,115.79019423099719L155.10071428571428,119.4000528156274L155.35435714285714,117.05519702513743L155.4300714285714,120.4960941183438L155.83514285714284,123.13603590152927L156.0887857142857,127.1425736085301L156.14557142857143,130.17278293787524L156.20614285714288,128.79922949337717L156.25535714285715,131.34942460693316L156.38785714285714,-64.18533701218861L157.36835714285715,-15.095603992633269L157.59550000000002,5.792269917720357L157.70907142857143,22.48258826055637L157.781,27.49442900068017L158.11792857142856,41.79100840804577L158.26557142857143,48.929195275076104L158.28071428571428,34.055357327786474L158.3147857142857,43.798574714603006L158.43214285714285,48.41648143863888L158.64792857142857,53.84658023085721L159.20064285714287,58.9951440723652L159.6397857142857,68.59410336456077L159.76471428571426,76.72893358115415L160.17735714285715,85.22952411021541L160.7225,84.77452163187036L160.85121428571426,83.03279998841857L161.89228571428572,91.47340203573197L162.05507142857144,99.21823494752505L162.3162857142857,103.34347776353279L163.51257142857145,108.55347123566371L163.72078571428574,113.53945074170186L163.77757142857143,118.17499845611883L164.16750000000002,120.93655260609606L164.44764285714285,119.2877559866153L164.50821428571427,123.78341504885384L164.54985714285715,123.78772009475317L164.67857142857144,124.47062831986678L164.98142857142858,128.01320029080986L165.21235714285714,128.0217141180034L165.21614285714284,118.60636763929018L165.4357142857143,117.6596974385314L165.51142857142855,117.01583721208807L165.67421428571427,120.9797646377545L165.96571428571428,117.18752705996161L166.49949999999998,118.01693796181655L166.58657142857143,122.86186714281992L166.59035714285716,125.33701423118337L167.10521428571428,111.86740020266532L167.46864285714287,116.76591599695998L167.692,108.22447553426146L167.73364285714285,113.69411998274686L168.80878571428573,117.90744534834074L169.22899999999998,122.7597643554465L169.335,123.63009899848383L169.52807142857142,126.3870991584058L169.89528571428573,128.65604820689344L170.01264285714285,130.35957704399567L170.03157142857143,131.36825595898893L170.09592857142857,134.51786531518877L170.43285714285713,136.51400663801215L171.20514285714287,131.17297603085672L171.47771428571428,133.46587511422246L171.8752142857143,114.82463097704442L172.20457142857143,118.0028977781213L172.25,120.26468788021498L172.37114285714284,118.80888013162333L172.47714285714287,123.50210310384597L172.8065,122.13506000880176L172.84435714285715,125.75462241533631L172.86707142857145,115.22953213905478L172.88221428571427,119.16351169140638L172.99957142857141,122.94458798640906L173.00714285714284,123.09067734408296L173.06014285714286,116.41170578781677L173.08285714285714,121.25036082931327L173.35921428571427,125.16939069847207L174.2942857142857,128.13341901097868L174.62742857142857,130.68536099549138L174.72585714285714,133.93969609481613L175.06657142857142,133.03493607263565L175.1687857142857,134.80406023445093L175.4337857142857,131.01317053762122L175.6912142857143,129.84233836099853L176.00164285714285,130.3731114188844L176.18335714285715,125.7721734523547L176.24392857142857,129.3318807777351L176.44835714285716,131.73143248524212L177.06542857142855,134.5322776416391L177.09571428571428,130.26607558057938L177.338,127.75561846511796L177.4402142857143,129.36147330180205L177.95128571428572,132.00148279089092L177.97778571428572,133.2458749738609L178.04592857142856,134.89440289633615L178.43585714285715,137.64744360461842L178.5267142857143,135.3809616726913L178.56457142857144,136.93387187566825L178.61757142857144,138.9676163791746L178.8522857142857,140.3296367509823L179.21192857142856,138.75132334981075L179.63214285714284,138.26094142829967L179.7002857142857,137.2467295085872L179.73814285714286,131.82168645509572L179.81764285714286,133.6676074860292L180.2302857142857,135.32384167418707L180.4952857142857,130.31304471913825L180.8662857142857,124.42506491839099L181.45307142857143,112.58509624621507L181.578,108.23586598218924L181.64235714285715,112.75757592867708L181.79000000000002,112.91968836881932L182.76671428571427,117.91486751327476L183.5087142857143,106.31809535500972L183.6752857142857,107.7884604751253L183.80778571428573,93.99159205446408L183.92135714285715,95.88648272091827L184.0122142857143,97.8954333622666L184.13335714285714,104.40421662797624L184.40592857142857,109.51257912231362L184.50814285714287,104.07078698601495L184.5232857142857,109.83497104705253L184.58007142857142,112.99255621390459L184.67849999999999,117.46485145947344L184.7617857142857,120.99248058773887L185.40914285714285,125.15644104957948L185.42428571428573,127.76891038199132L185.4735,127.94024657677963L185.77635714285717,130.61779421604854L185.79149999999998,133.17622926986695L185.92778571428573,135.52627868641142L186.25714285714287,138.0811586287152L186.28364285714287,137.09319434266962L186.45021428571428,135.47094678027173L186.65085714285715,134.8504554692473L186.7985,135.89344977253037L187.02942857142858,137.15464225973946L187.39664285714284,139.07332036955583L187.5405,130.1697012266817L187.71464285714288,131.0911746244911L187.71842857142857,103.48165574779976L187.94178571428571,101.98216675702076L188.2597857142857,106.7548785258188L188.35064285714287,104.72414701384578L188.53614285714286,107.88581003690688L188.58914285714286,112.59276676309088L189.1494285714286,117.4937341600036L189.26299999999998,121.89234348223408L189.48635714285712,119.21308638508118L189.6794285714286,121.36999772185108L190.45928571428573,111.9604943356946L190.49335714285715,116.08689691849553L190.69400000000002,120.91689982277627L191.20507142857142,124.38786355207984L191.34135714285713,126.47924247926916L191.7312857142857,115.41952823886389L191.7767142857143,118.357242374859L192.2045,105.95644104208642L192.46192857142856,108.00184533833308L192.59442857142858,113.85650251417486L193.16228571428573,115.57113516573921L193.19635714285712,120.52426250633378L193.29857142857142,123.8791617544633L193.41214285714287,126.76867912735713L193.54085714285716,126.11728298328632L193.71121428571428,127.73715538435853L193.7415,129.3317594249407L193.8475,120.2152813701495L194.27528571428573,124.54216302546969L194.33585714285715,128.43197332465957L194.57057142857144,130.43571938971968L194.63492857142856,132.11220026658924L194.9605,134.94928025969227L194.99457142857142,135.81538463117136L195.7062857142857,134.7528265973434L195.90314285714285,133.2948515740358L196.99342857142858,135.51638647682284L197.07292857142858,137.389430304039L197.60671428571428,138.06851729698866L197.7695,140.03207275061143L197.97014285714286,139.6082311352573L197.99664285714286,141.06548751704196L198.07235714285716,130.2520903417422L198.17078571428573,132.65060201288338L198.51149999999998,128.73651647206424L198.70835714285715,131.59519890783216L198.93550000000002,134.63590297651334L198.96200000000002,135.36870195100568L199.0717857142857,135.06332701199437L199.27242857142858,134.88896434684557L199.28757142857143,136.51623218483817L199.33678571428572,138.40767227458304L199.38978571428572,139.21811259214135L199.48064285714287,134.84813840744212L199.5260714285714,136.92481778625142L199.64721428571428,135.63896335351214L199.67371428571428,137.68473294205472L199.72671428571428,139.71356087814053L200.15449999999998,132.58237709539796L200.19614285714286,132.0584165999436L200.21885714285716,133.22032464751416L200.37407142857145,114.8390372234186L200.38921428571427,118.0795236170305L200.4422142857143,116.30667470903181L200.5292857142857,120.42988773750159L200.93057142857145,124.77172433876974L201.09335714285714,127.73336813195249L201.32807142857143,129.81842439048424L201.38864285714286,126.92686506166561L201.5022142857143,130.38045053817436L202.23664285714287,129.0367195266765L202.407,132.39947474949344L202.5887142857143,134.75652412314676L202.619,133.68306204641442L203.02785714285713,131.12499694321787L203.10357142857143,133.63267943532233L203.838,133.28622431500824L204.36042857142857,136.11504396265332L205.45828571428572,129.71629326099273L205.6627142857143,119.41994240026189L205.75735714285713,122.23965755607888L206.23435714285714,123.78973129369598L206.541,123.99899219714757L206.7719285714286,127.07202572853691L206.84385714285713,130.63909314116484L207.06721428571427,133.30993265024014L207.50635714285715,135.18066857535018L207.80542857142856,137.74336855900862L208.23700000000002,138.2299824732729L208.4262857142857,118.14192408935718L208.56635714285716,122.20045767401106L208.77835714285715,124.51628665806848L208.83892857142857,128.49909121478146L208.9525,130.33859351615968L209.22885714285712,129.43629685115428L209.66042857142855,127.88585244624687L209.99357142857144,131.00882984372808L210.251,134.16757072294502L210.5955,134.91771612758777L210.60307142857144,137.42341778496785L210.6257857142857,126.3523563163465L211.31478571428573,126.58955295628776L211.9205,126.90302986829877L212.05678571428572,126.58551234964212L212.49214285714285,127.53148549233488L212.5072857142857,130.54615659905477L212.85935714285714,133.81042763234572L213.06757142857143,119.61745715453041L213.2947142857143,120.46455093071388L213.65435714285715,118.40938886460701L214.42664285714287,122.68531893871258L214.83928571428572,117.46513130722929L215.00585714285714,119.11168570250823L215.02100000000002,118.3366246621247L215.0512857142857,120.9488220706714L215.61157142857144,125.38667740201168L215.7895,120.58786617087625L216.03935714285714,123.42215135023403L216.04692857142857,127.3600233100305L216.6829285714286,129.79176812597626L216.89114285714285,131.18902617947063L216.99714285714285,134.3591281779131L217.12207142857142,136.71475794023846L217.2129285714286,135.6534512204535L217.2507857142857,138.24671613601566L217.7164285714286,138.6443103464051L217.78457142857144,139.68814164767878L218.0685,139.63186963609076L218.21235714285714,141.81106567719118L218.36757142857144,142.38193501917505L218.74992857142857,140.0189335620435L218.82185714285714,142.05080096584638L219.21557142857142,141.04468298659862L219.3405,142.1002580588194L219.58278571428573,143.56361191846167L219.62064285714285,144.5909236723802L219.9197142857143,143.84128112434257L219.9765,138.47966984138782L220.1165714285714,140.86681608492512L221.08950000000002,132.81122918041532L221.1197857142857,129.3937616395982L221.34314285714285,132.79945244440358L221.39614285714288,130.6071996895302L222.02457142857145,133.3269383077351L222.24414285714286,135.92855239849962L222.27064285714286,137.12993572321164L222.2857857142857,134.3663692031466L222.30092857142859,134.96247992839304L222.69085714285714,137.67220012014818L222.83471428571428,137.58862715439162L222.95964285714285,139.68454281943275L223.0012857142857,141.17630408849686L223.44421428571428,142.22962512592485L223.62971428571427,134.5977145462722L223.6865,135.0921896581195L223.76600000000002,137.5565628527948L223.82278571428571,139.4953917519753L224.04992857142855,141.30961540008985L224.26950000000002,141.68413632537482L224.75028571428572,143.2335925605464L225.1212857142857,142.2659893439677L225.58692857142856,129.02869165715356L225.72321428571428,124.77819788062584L225.8065,127.87672974962729L225.97307142857142,128.21498104268437L226.02228571428572,130.96705909801636L226.07907142857144,133.07083343278705L226.4122142857143,129.81656539507728L226.6242142857143,128.04930135759105L226.90435714285715,131.09831482012828L227.07471428571426,119.42498146230618L227.8735,121.09528294123889L228.2747857142857,125.55787662347639L228.28614285714283,123.67232780052355L228.3845714285714,121.76694188711214L228.50192857142858,123.98437933202862L229.17957142857142,126.22832700040911L229.1985,122.4017486923822L229.22878571428572,126.25099618912834L229.84207142857144,129.58959618029624L230.04271428571428,122.05044186281373L230.1525,125.12188779725112L230.43642857142856,128.5812951785615L230.7885,131.957924788814L230.79985714285715,134.3325186944513L231.27307142857143,136.8911490970361L232.07942857142856,137.59460301437343L232.20435714285713,139.33094177562242L232.36335714285715,141.12638725547046L232.4845,142.75775618385381L232.56400000000002,142.78173360025613L232.80249999999998,143.8934341237775L232.84792857142855,135.58619373875857L232.90092857142855,136.8864006666435L232.92742857142858,121.7237577577484L232.935,122.4252103002998L233.2302857142857,125.85357780889838L233.90792857142856,129.37977217078657L234.03285714285713,131.86063994535272L234.16914285714284,128.32063062747102L234.29028571428572,131.38207625999593L234.71050000000002,134.6520734120436L234.85057142857144,130.1424643442498L235.6115,129.56284155931266L235.70235714285712,132.15654132657085L235.84621428571427,135.15894428103886L235.8689285714286,123.78085310875844L235.9522142857143,114.61992062412264L236.221,119.91364708559568L236.48978571428572,123.84469438529273L236.54657142857144,126.25827710836L236.67528571428574,129.5624788544728L236.89107142857142,131.27212359487126L237.3112857142857,132.3653495635323L237.45514285714287,135.089622225168L237.59142857142857,136.78292500391657L238.00785714285715,138.7554590861367L238.84071428571428,136.7409722860557L239.61678571428573,138.93740085073384L239.80985714285714,124.46602255783299L240.16571428571427,127.191546373473L240.60485714285716,130.97172498529198L240.81307142857142,129.80170784249958L240.92664285714287,133.16907832208207L240.94178571428571,135.94397161170457L241.1007857142857,137.91792415882188L241.22192857142858,140.10071900489092L241.32414285714285,141.78779708423238L241.38850000000002,141.8489961641017L241.44528571428572,142.00455903590253L241.48314285714287,141.41939520370173L241.80114285714285,143.16250121712253L242.33871428571427,144.48451715417187L242.39928571428572,145.97669224844884L242.41064285714285,143.8550756533237L242.422,143.97802738677873L242.50528571428572,137.44943146063534L242.94064285714285,139.17064673638538L243.28514285714286,141.28504519910243L243.46307142857142,135.65217360889295L243.64478571428572,137.7241248671684L243.92114285714285,138.62411017970584L244.46628571428573,140.80416558863257L244.648,140.57307798307198L244.70857142857142,142.29116755297193L244.82214285714284,144.18921949408085L245.00764285714286,141.92393781039536L245.05685714285713,140.02129099971012L245.0757857142857,139.88624195608492L245.1287857142857,136.12484948832392L245.38242857142856,131.38548607650833L245.549,133.84355478498333L245.6512142857143,133.53377790094987L246.0827857142857,133.36458555622303" style="fill: none;" fill="none"></path></g></g></g></g><g opacity="0.2"><g><g><g><path stroke="rgb(255, 112, 67)" stroke-width="2px" d="M19.08757142857143,26.125148495038356L19.098928571428573,-165.71122650305432L19.28442857142857,-313.70488084687133L19.560785714285718,52.418345520893745L19.7955,80.86254859301779L19.81442857142857,84.312416093217L19.89392857142857,87.74346624149216L19.962071428571427,44.19264294372665L20.094571428571427,128.15629901736975L20.10214285714286,44.24578685892954L20.13242857142857,-34.63493149148094L20.723000000000003,111.48274927669102L20.957714285714285,105.32014756732518L21.1205,107.40318200820023L21.147,137.5876070078876L21.328714285714284,139.02460727592307L21.377928571428573,96.6287560529179L21.631571428571426,10.045080277654858L21.661857142857144,108.48085116346675L21.964714285714287,110.8392827808857L21.98742857142857,97.76246835125816L22.09342857142857,67.39434945252205L22.6045,-19.219821631908417L22.767285714285716,-3.9954198135269925L22.964142857142857,110.1857297718525L23.108,136.23164697405363L23.395714285714288,14.026254309548284L23.702357142857142,98.26302906870842L23.910571428571426,45.098712437682686L23.921928571428573,-88.21292778518468L23.974928571428574,143.17596635222435L23.99007142857143,119.065670563115L24.171785714285715,116.99294735325707L24.198285714285714,42.18624463677406L24.364857142857144,111.76690676311651L24.478428571428573,138.1557469955749L24.804000000000002,96.8697198331356L24.925142857142855,147.78491071073543L25.330214285714288,116.83710740837786L25.493,116.07990792393684L25.504357142857142,19.93437233236101L25.90942857142857,138.5327792391181L26.034357142857143,118.91401184267467L26.185785714285714,120.72497198316786L26.299357142857144,116.401711165905L26.636285714285712,-117.45590313275657L26.86342857142857,107.11093468136256L27.20792857142857,124.47298104729916L27.25335714285714,97.66155164440471L27.3745,79.6532500717375L27.491857142857143,46.75211962064108L27.66221428571429,65.03789977232614L27.97264285714286,47.129026611646026L28.15057142857143,-39.6805310646693L28.214928571428572,81.16912259989313L28.2225,54.40012802018059L28.24142857142857,32.965351700782776L28.33607142857143,118.28538040485645L28.339857142857145,58.067787581019914L28.385285714285715,68.03387417727045L28.404214285714286,60.92641152607069L28.514,122.0451558397876L29.093214285714286,110.51635963386958L29.30142857142857,-110.34344511561928L30.160785714285716,130.42202349503833L30.42957142857143,149.07459557428956L30.44092857142857,147.1248252292474L30.89521428571429,81.3846895860301L31.156428571428574,99.19483059147993L31.217,-211.6747231351005L31.220785714285714,64.95583725637859L31.440357142857145,44.774175743261985L32.10285714285715,127.56932694216567L32.62528571428572,-170.41132063335846L32.63285714285714,19.73701853884592L32.82214285714286,133.45115850948625L33.09092857142857,60.30802500910229L33.367285714285714,46.47843545675278L33.39378571428571,16.23688793182373L33.798857142857145,96.78092315130765L33.90485714285714,150.44658148619862L34.20771428571428,53.21333811680477L34.44242857142857,-31.54683752854664L34.94971428571428,-73.81928921408127L35.271499999999996,64.8174332016044L35.58571428571429,98.68265454305542L35.934,123.59554649392763L35.998357142857145,75.93030993474854L36.07785714285714,55.24272394842571L36.585142857142856,84.5141979323493L36.60028571428572,108.85822969343926L36.63057142857143,89.57020820180574L37.054571428571435,131.1803005196982L37.107571428571426,-14.2657448252042L37.74735714285715,-3017.388547897339L38.04642857142857,128.94853421549L38.054,141.9125937314497L38.25842857142857,111.64007383253838L38.364428571428576,40.93888407945633L39.16321428571429,43.90529151757559L39.21621428571428,106.31464903718894L39.44714285714286,125.70336620178486L39.9355,119.27112156483862L40.42764285714286,97.09771629174548L40.59421428571429,6.217569006813908L40.916000000000004,64.59877174099285L41.128,1.5563768413331796L41.1545,113.96192434098984L41.29078571428571,105.24604963925148L41.605,-11.148665951357955L42.13878571428572,142.98493596994214L42.4,129.09839703556563L42.47192857142857,-44.306667255030746L42.73692857142857,152.3503123136858L42.824,123.35452008744079L43.06628571428572,129.60943475945126L43.61142857142857,135.33838823603259L43.81585714285715,146.6466791902979L43.925642857142854,52.6897309323152L44.27771428571428,50.030582706133536L44.28907142857143,65.79032860861884L44.3345,77.93029825886089L44.87585714285714,64.8127251797252L45.29985714285714,52.17366837130653L45.39828571428572,-7.307833704683494L45.860142857142854,70.64159518480301L46.01535714285715,32.55788309044308L46.60592857142857,119.11383384797308L46.87471428571428,60.312858283519745L47.13214285714285,78.93858855962753L47.169999999999995,127.9086305424571L47.181357142857145,100.78243966897327L47.23814285714286,80.7144116792414L47.36307142857143,105.45940628647804L48.05207142857142,87.42073465718163L48.41171428571428,148.3400170666476L48.449571428571424,146.83770036283465L48.582071428571425,94.51002095474136L49.18021428571429,100.25416866938272L49.46414285714285,96.06338083081776L49.895714285714284,77.92502291666136L50.05092857142857,97.3397152473529L50.588499999999996,139.21899921529823L50.60742857142857,6.495835940043145L50.6415,153.00761184717217L50.99357142857143,118.28645241922801L51.09957142857143,-29.08045295874279L51.13742857142857,114.96164589458043L51.4895,-11.636811931927985L51.61821428571429,101.67150797281L51.84535714285715,122.89987179305817L52.53814285714286,111.03987103700638L52.64792857142857,148.34924246867496L52.727428571428575,107.56358998682762L52.75392857142857,132.793201400174L52.9735,67.42130821943283L53.208214285714284,142.12126630213527L53.98428571428571,0.9733778503206063L54.196285714285715,43.4483260512352L54.31742857142857,-28.904893106884423L54.64678571428571,-358.94096967909076L54.77171428571428,85.0662963853942L55.09728571428572,114.81436364518271L55.1465,142.1435925670796L55.48721428571429,112.69992397228876L55.574285714285715,121.6171052902937L55.64242857142857,119.34337385992208L56.19135714285714,121.72265265716446L56.43364285714286,152.6858947163241L57.00528571428571,145.43485535681248L57.10371428571428,38.20034047961235L57.83057142857143,80.29345263375176L57.85707142857143,25.71065100696352L58.296214285714285,109.12686323291724L58.59907142857143,16.549120406309775L58.76185714285714,14.753529489040375L59.083642857142856,100.87744740313953L59.20099999999999,-122.88384713066952L59.26157142857143,104.2457533975442L59.477357142857144,35.30801623397404L59.6515,117.58140588137839L59.65528571428571,73.78798315260146L59.738571428571426,122.79689210322167L59.969500000000004,107.9343964424398L60.003571428571426,-7.896211187044793L60.200428571428574,29.575045466423035L60.21178571428571,14.247391349739495L60.355642857142854,56.497223900424096L60.44271428571428,73.78919147120581L60.465428571428575,118.23854332334464L60.473,120.47047356102202L60.64714285714286,45.44721657368871L60.95757142857143,50.6191664867931L61.0295,49.96594502859646L61.06357142857143,125.45412470234764L61.321,70.2076835532983L61.32857142857143,-58.989816016621056L61.55571428571429,131.95466144382954L62.157642857142854,0.8739125993516732L62.35828571428572,112.86607514818508L62.434,-14.685178736845666L62.55135714285714,134.3950855831305L62.585428571428565,148.22689836803409L62.71414285714285,117.27406562368074L63.02457142857143,145.40239837186203L63.16464285714286,84.33513100941974L63.444785714285715,133.25250429991218L63.876357142857145,138.079322685798L64.23978571428572,147.5834300302797L64.25871428571428,96.10637929042178L64.395,116.89971525801552L64.51235714285714,112.72959408826297L64.87957142857142,-22.265359203020743L64.978,79.81594575113719L65.05371428571428,96.57977862656116L65.455,64.8668342762523L65.89035714285714,102.00965298712254L66.09100000000001,121.76902925140327L66.89735714285715,142.1635556113389L67.67721428571429,-118.93907001283436L67.91192857142858,151.82256995348465L68.20721428571429,91.0726713405715L68.27157142857143,125.96255422631899L68.3737857142857,127.58681809074348L68.45328571428571,-306.54989590909753L68.49871428571429,108.2440612398916L68.5555,152.36426876195603L69.04764285714286,73.57072157329982L69.66471428571428,-69.98569214344029L69.67985714285714,62.350127657254525L70.05085714285714,130.20472876065307L70.20985714285715,41.65935141510433L70.40292857142857,126.71994527346557L70.49000000000001,148.12062619419564L70.71335714285715,31.015567541122437L71.20928571428573,151.21562562427587L71.48942857142856,130.88521659125882L72.23142857142857,-363.8938971095615L72.76521428571428,138.91840049127737L73.01507142857143,149.1941601737506L73.04157142857143,117.40246421098709L73.14,-32.55940851900314L73.20814285714286,97.53262257575989L73.4315,128.56085550619494L73.62078571428572,147.30513362586498L74.32114285714286,116.45178639392057L74.34385714285715,72.41366809606552L74.45742857142858,114.51879712608124L74.4915,99.80662293069894L74.52935714285714,-190.28153065840408L74.87764285714286,92.28711258371669L74.91171428571428,80.81092244386673L74.99121428571429,128.51020559006267L75.23349999999999,126.957140425841L75.30542857142858,62.680477543009644L76.05499999999999,138.57348815600076L76.39571428571429,77.47069512142075L76.72128571428571,150.58588763554064L76.94085714285714,154.80825200739005L77.50492857142856,110.9109493361579L77.51249999999999,89.01203868455356L77.63364285714286,94.33878599935109L77.751,140.41036820411682L78.51571428571428,45.19674833615622L78.60657142857143,144.0693291603691L78.64064285714285,146.51144789283472L78.84885714285714,124.13994928366607L79.4735,81.52782376607257L79.85964285714286,119.46387416952187L79.93914285714285,149.86299122952752L80.44264285714286,156.14348458809158L80.71521428571428,96.96292245719168L80.7985,69.93007972174219L80.86285714285715,88.94849880867532L81.037,90.50937383704716L81.41178571428571,155.67584640822477L82.13864285714286,21.150102939870624L82.55885714285714,130.7102719503972L82.56264285714286,-151.2440278530121L82.74435714285714,144.8375941539804L82.90335714285715,-39.01944816774792L83.53557142857143,138.1184088455306L83.65292857142856,153.45599521220558L83.78164285714286,151.25038458510406L84.1905,140.1222892080744L84.31542857142857,33.21622516711554L84.39114285714287,149.95092403723132L84.482,119.42272134290802L84.48578571428571,123.76195554269684L84.49714285714285,84.36379173729155L84.56907142857143,132.22048601094218L84.81892857142857,149.02204108279614L84.96657142857143,131.31561194194686L85.00442857142858,128.79474251800113L85.34135714285713,124.87413545615142L85.39435714285715,148.49440463466775L85.50414285714285,21.698723793029785L85.53442857142858,-1.3178594642215349L85.64421428571428,147.7103624261088L86.019,142.75686583336858L86.8935,106.78216150403023L86.9995,155.87758127765525L87.13957142857143,136.37793457094165L87.27207142857142,147.66039403114053L87.31750000000001,68.60254280434714L87.55978571428571,116.52950559390915L88.07085714285715,128.29990473637977L88.27528571428572,105.38340746694142L88.77878571428572,139.64850122067662L88.78257142857143,144.8451406194104L89.31257142857143,68.25781834787792L89.77064285714286,47.39600608083936L89.79714285714286,137.64699881441064L90.27035714285714,4.829770882924405L90.69814285714286,86.49865494171777L90.87607142857142,69.05886727240349L91.03885714285714,70.4238694343302L91.29628571428572,115.53174387415248L91.49692857142857,105.75857565800348L91.88307142857143,150.04613162287407L92.84464285714286,143.5596793451243L92.86735714285714,156.0999038423308L93.28,65.93647621737585L93.333,66.27536537912155L93.6245,134.18727320267092L93.64721428571428,124.26158791780472L93.97278571428572,38.97152035766178L94.05985714285714,120.891579962439L94.32485714285714,143.1607398800552L94.40814285714286,3.663949728012085L94.53307142857143,91.26158900724516L94.62392857142858,131.18552981317043L94.77535714285715,23.37414595153597L94.8435,128.05147369454303L94.86621428571429,127.21146938867038L94.87757142857143,73.49241663349999L95.16528571428572,99.86203981108135L95.16907142857143,44.534110834201186L95.34700000000001,138.30546614362132L95.46435714285714,146.47519280885655L95.56657142857142,79.00167163213092L95.57792857142857,150.9927203129563L95.59685714285715,97.74827060765689L95.86564285714284,65.8446292678515L95.9072857142857,84.98174355427423L96.09278571428571,126.1872020214796L96.30857142857143,127.47823887566724L96.47892857142857,102.1740874664651L96.63414285714285,56.83556784523857L96.68335714285715,117.68678747283087L96.68714285714286,62.887549459934235L96.77042857142858,135.0567615876595L96.831,-104.55064784155952L97.2512142857143,101.1151656690571L97.33071428571428,156.94835855015037L97.59192857142857,25.729659921593132L97.60328571428572,147.1607045556108L97.60707142857143,147.82923813660938L97.78878571428572,124.79517478247482L97.87964285714287,149.29200450951853L98.37935714285715,93.70727743705112L98.73142857142857,31.71170641316309L98.9737142857143,131.73099356558586L99.2197857142857,153.5638104788959L99.30685714285714,154.6311573514508L99.62485714285714,98.63008531596924L99.63621428571429,140.85119267056385L99.65514285714286,126.62279351055622L99.90878571428571,32.99233257108265L99.97692857142857,121.17665473951233L100.26085714285715,81.8791939748658L100.4085,150.91381489775247L101.00664285714286,132.4906115291847L101.16942857142858,114.69341390000449L101.43821428571428,87.32951397034857L101.53664285714287,111.36687962710857L101.61614285714285,122.43459913631278L101.63885714285713,91.28739103012616L102.237,-22.926545249091262L103.14178571428572,-7.202709986103897L103.191,87.45019847485754L103.31971428571428,140.38798115485244L103.46357142857143,50.752788841724396L103.56957142857142,32.86202572451698L104.00114285714285,155.8357453181719L104.13364285714285,28.6619397269355L104.27371428571428,154.23833592029084L104.61821428571429,100.76129409339691L105.11035714285714,132.26408862984843L105.3942857142857,101.25991708040237L105.735,154.8803085953825L105.74635714285715,147.08205425035624L106.318,120.78595523370636L106.52242857142858,93.35706397228772L106.56028571428571,132.46446137792535L106.68900000000001,128.28753789017597L106.72685714285714,-45.41235245598686L106.82528571428571,125.99537407524055L106.99564285714285,59.51248719626001L107.08271428571427,150.20527418247528L107.36664285714286,112.8459500124057L107.43857142857142,156.45435240854405L107.6165,88.82154430945712L108.0442857142857,150.59328950796692L108.22978571428573,115.4139733331071L108.53642857142857,151.25052687567143L108.57807142857143,156.2614047875007L108.65378571428572,137.99130330648686L108.93014285714285,40.40085074967808L109.14592857142857,143.10745321379767L109.551,137.59566000931792L110.08478571428572,142.7224545404315L110.23242857142857,122.91482473578716L110.34221428571429,45.08951006001896L110.67157142857143,72.03642218642763L110.8532857142857,52.31066517697441L110.86085714285714,130.2174603127771L111.00471428571429,75.9439993004004L111.0917857142857,59.93499347898695L111.36057142857143,142.65816130737463L111.89435714285715,116.07331006228924L112.13664285714286,116.9210450285011L112.50764285714286,109.18901427918011L112.53792857142858,125.81561089555422L113.19664285714285,140.4012339785695L113.32157142857143,135.32065210822554L113.60171428571428,130.3901872469319L113.74935714285715,143.5597917040189L114.07492857142857,130.43365540355444L114.44592857142857,123.0961351527108L114.49514285714285,125.86470989055103L114.52921428571429,105.11125212079948L114.82828571428571,147.22115916675992L115.05164285714285,101.46500337620574L115.48321428571428,36.29194123215145L115.54,155.28833025093707L115.83907142857143,62.03309874733288L116.16842857142858,151.59154256764384L116.64542857142857,142.6352345670263L116.77792857142856,69.56180042028427L117.05807142857142,149.8256945233378L117.5275,-33.60380838976967L117.607,123.78223171830177L117.70164285714286,156.86014507545363L117.94392857142857,150.41896698541112L117.99692857142858,150.35702039549747L118.46257142857144,157.17913543091467L118.50421428571428,154.87202304787934L118.8827857142857,125.92735089527237L119.13642857142857,-85.05834682782493L119.89357142857142,146.52277864267427L120.37435714285715,100.00152693192163L120.37814285714286,54.02917420864105L120.48792857142857,154.7493777885619L120.49549999999999,153.38462797366083L120.87028571428571,136.1609769132402L121.68042857142856,61.442223582002846L121.70314285714286,115.68007603453265L121.72585714285715,134.47352314326497L121.741,98.46955576870177L121.74478571428571,130.34548866831594L122.18014285714285,130.8813448142674L123.05464285714285,105.0975885424349L123.42564285714286,151.42999994837575L123.4635,150.11367865900198L123.49000000000001,79.6114157239596L123.55814285714285,121.3592508369022L123.9405,135.88032465593682L124.26607142857142,71.09067710902954L124.61057142857143,80.7918251156807L124.61814285714286,148.9620884027746L124.73928571428571,136.9357375403245L124.80742857142857,139.91580487291017L125.87878571428571,155.16768212492266L125.9772142857143,116.17501880725223L126.14378571428571,113.4883592294322L126.58671428571428,154.0493510224753L126.63592857142856,111.73890913691784L126.98421428571429,139.99016067385674L127.09400000000001,122.3319841523965L127.24164285714285,116.4269090294838L128.60071428571428,152.6144901783102L128.69914285714285,83.93508913781908L128.78242857142857,141.7310696484314L128.85435714285714,96.70350234707195L128.94899999999998,135.4546262754334L129.00957142857143,150.93896026578216L129.055,152.41627895749278L129.4752142857143,132.48944925930763L129.70992857142858,146.67317470701204L130.49735714285714,128.10819099098444L130.52385714285714,67.26520671778253L130.5579285714286,135.92164141601987L130.74721428571428,152.37111528673105L130.75857142857143,139.26047806690136L130.83807142857142,145.65137370965547L130.95542857142857,150.0473795433839L131.02735714285714,92.60538665122455L131.54221428571427,116.91205263303385L131.84885714285713,130.9582111918264L131.85264285714285,120.43873677816654L131.98135714285715,141.9831514333685L132.5,150.9113310294019L132.51892857142857,135.52192556940847L132.61735714285714,129.00856702029705L132.79149999999998,141.59289215339552L132.8482857142857,61.30126290188894L133.1587142857143,153.00992349328268L133.3215,99.66319035490352L133.41992857142858,74.4472462038199L133.57514285714285,115.91727855470444L133.73792857142857,157.88706841811333L134.23764285714284,153.71745159704653L134.2792857142857,153.84028013029862L134.66542857142858,145.97099976779685L134.81685714285715,140.83010419540935L135.17271428571428,102.77838307287956L135.22571428571428,76.46763595607545L135.29385714285715,98.39753924310207L136.48257142857142,138.10154027574592L136.68321428571429,110.9089379277494L137.82271428571428,154.954262851427L137.9627857142857,155.42649715476566L138.9205714285714,135.005907215178L139.01899999999998,111.27054937349425L139.3445714285714,152.56202271891135L139.59064285714285,143.42295791084567L139.61714285714285,129.63599198145997L139.64742857142855,152.3096738513559L139.82914285714284,145.77619891572328L139.8632142857143,130.94225254489314L140.08657142857143,133.14618515637184L140.1357857142857,150.39999767268696L140.73014285714288,153.64569893065425L140.85507142857145,137.08931188782054L141.0140714285714,147.4998193561203L141.71821428571428,146.53895463960038L142.07407142857141,94.53951424360275L142.12328571428571,129.48004336158434L142.3845,151.71156995681423L142.55864285714287,151.59921198317576L142.74414285714286,24.395396206114025L142.95614285714285,118.38267952369318L143.45585714285713,154.56757418976892L143.48614285714285,146.3277346533206L143.86471428571429,157.56600517919287L143.91014285714286,103.37267321182621L143.98585714285713,145.36928565303484L144.43257142857144,140.87483592910897L144.53478571428573,145.41582065489558L144.54235714285713,120.99042631851303L144.88307142857144,142.86524795989195L145.14807142857143,152.6082791259719L145.2502857142857,153.53138757000366L145.27678571428572,148.1888556724621L145.38278571428572,126.30916483865845L145.89764285714287,144.1028065851165L146.24592857142858,136.45224984900818L146.61314285714286,55.98919960525299L146.64721428571428,95.08890871538055L146.69264285714286,157.15239516521493L146.76457142857143,156.16726829525498L146.82892857142858,68.49844320946268L147.03335714285717,154.06152630597353L147.07878571428571,134.97384624928236L147.17342857142856,117.34261928498745L147.31349999999998,155.3358670428602L147.7072142857143,151.72105323171448L147.77914285714286,146.92807743698359L147.80564285714286,123.12798982030814L147.97978571428573,141.7637421414256L148.17664285714287,153.43789529945286L148.18800000000002,23.15454141298931L148.32049999999998,93.41367075178358L149.0095,152.62159365498357L149.01328571428573,131.4413139157825L149.09278571428572,140.17147477467853L149.30100000000002,155.24295636773525L149.63035714285712,148.64681487033764L149.63414285714285,151.14374632388353L149.77800000000002,141.14072312249075L149.91049999999998,158.04157800087057L149.94457142857144,-12.92233030663597L150.60707142857143,128.74360816925764L150.96671428571426,133.50776160508394L151.72764285714285,136.0935063179996L151.86392857142857,156.65718807280064L152.09864285714286,82.22755075494447L152.39014285714285,145.69836643586555L152.68921428571429,139.1755292167266L152.76871428571428,157.70185036375187L152.799,120.43743636210758L152.84821428571428,144.68660958690774L152.85578571428573,51.06587598058912L153.2495,72.21655743983055L153.25707142857144,151.6642594943858L153.5864285714286,89.30876931548119L153.59778571428572,130.73444384833175L154.34735714285713,130.28501195377774L154.37385714285713,150.38657354770433L154.62371428571427,143.89655249358879L154.64264285714287,32.86408870750004L155.03635714285716,125.67027006049949L155.10071428571428,145.37919902304807L155.35435714285714,100.1799233853817L155.4300714285714,145.2592715596159L155.83514285714284,142.13496119363438L156.0887857142857,155.97650890973293L156.14557142857143,151.98035499660503L156.20614285714288,118.91414814690748L156.25535714285715,149.70246812908184L156.38785714285714,-1471.3945230907864L156.48628571428574,150.98192188640434L157.36835714285715,149.27267049087416L157.59550000000002,156.1164772397735L157.70907142857143,142.59815797375308L157.781,63.56325006484985L158.11792857142856,144.67950611023437L158.26557142857143,100.3007368263271L158.28071428571428,-72.98750921090446L158.3147857142857,113.91779492464329L158.43214285714285,81.65026917391351L158.64792857142857,92.92548793223168L159.20064285714287,96.04792319403754L159.6397857142857,137.67513827068936L159.76471428571426,135.273039566146L160.17735714285715,146.4059051308367L160.7225,81.49999559919038L160.85121428571426,70.49811471833122L161.89228571428572,152.21806267131535L162.05507142857144,154.95563901764237L162.3162857142857,133.0317006525066L163.51257142857145,146.0483422891961L163.72078571428574,149.42215571138593L163.77757142857143,151.53574348282484L164.16750000000002,140.81068821003038L164.44764285714285,107.42182621690962L164.50821428571427,156.1374204311934L164.54985714285715,123.81870231032372L164.67857142857144,129.3853284973237L164.98142857142858,153.5081034915315L165.21235714285714,128.08298575960927L165.21614285714284,50.84674298101002L165.4357142857143,110.84677582979202L165.51142857142855,112.38215459883213L165.67421428571427,149.50704561918974L165.96571428571428,89.89585006568167L166.49949999999998,123.98597707516616L166.58657142857143,157.72947223233575L166.59035714285716,143.14995803104506L167.10521428571428,14.9303418662813L167.46864285714287,152.0191690083593L167.692,46.75410892566046L167.73364285714285,153.057626751355L168.80878571428573,148.22957379909028L169.22899999999998,157.6805519639618L169.335,129.8936548721459L169.52807142857142,146.2284609650572L169.89528571428573,144.9850421787964L170.01264285714285,142.61939933068223L170.03157142857143,138.62743700295687L170.09592857142857,157.18472609177437L170.43285714285713,150.87967943669193L171.20514285714287,92.73506723509894L171.47771428571428,149.96723081254297L171.8752142857143,-19.331207977400894L172.20457142857143,140.87599819898605L172.25,136.5421609100368L172.37114285714284,108.33183748192256L172.47714285714287,157.2779208875468L172.8065,112.2968318329917L172.84435714285715,151.8036043246587L172.86707142857145,39.483390642537024L172.88221428571427,147.47526617472369L172.99957142857141,150.15594033896923L173.00714285714284,124.1420417378346L173.06014285714286,68.34500885009766L173.08285714285714,156.07281268532904L173.35921428571427,153.37355647815596L174.2942857142857,149.46470473541152L174.62742857142857,149.0509762610826L174.72585714285714,157.36023885880908L175.06657142857142,126.52363033923838L175.1687857142857,147.53595379243293L175.4337857142857,103.73119386699463L175.6912142857143,121.41618548333645L176.00164285714285,134.1929371961289L176.18335714285715,92.66050513585407L176.24392857142857,154.9501023489154L176.44835714285716,149.00033739664488L177.06542857142855,154.68917966882387L177.09571428571428,99.56340828869078L177.338,109.68855824073154L177.4402142857143,140.91836302810245L177.95128571428572,151.00089534351397L177.97778571428572,142.2014187168744L178.04592857142856,146.75839892857604L178.43585714285715,157.46031034127293L178.5267142857143,119.06972285111743L178.56457142857144,148.10973382823997L178.61757142857144,153.60390878965455L178.8522857142857,150.13171778743464L179.21192857142856,127.39264165941212L179.63214285714284,134.73179940299855L179.7002857142857,129.94772897164026L179.73814285714286,92.77916349636183L179.81764285714286,146.95218670864898L180.2302857142857,147.24329755289685L180.4952857142857,94.25173548526233L180.8662857142857,82.05091520481638L181.45307142857143,27.37614137596554L181.578,76.93566785256067L181.64235714285715,145.29906226487623L181.79000000000002,114.08636642164653L182.76671428571427,153.86377971681455L183.5087142857143,22.859358019298973L183.6752857142857,118.37026847071117L183.80778571428573,-5.300624940130424L183.92135714285715,109.52348276310498L184.0122142857143,112.35329125656021L184.13335714285714,151.2461158680833L184.40592857142857,146.27604035205312L184.50814285714287,64.90772554609511L184.5232857142857,151.31819732238847L184.58007142857142,135.71681667698752L184.67849999999999,149.6507139644689L184.7617857142857,146.37984431410828L185.40914285714285,155.1233040454487L185.42428571428573,146.57012410213548L185.4735,129.1733054212398L185.77635714285717,149.88735837406583L185.79149999999998,151.58857334570754L185.92778571428573,152.43892940547732L186.25714285714287,156.46791755775405L186.28364285714287,129.9830907103088L186.45021428571428,123.79608317547375L186.65085714285715,130.38495242761243L186.7985,143.39958910271525L187.02942857142858,146.2310931103097L187.39664285714284,152.88151201233268L187.5405,66.09283559189902L187.71464285714288,137.72276186446348L187.71842857142857,-95.2163571516673L187.94178571428571,91.19076238075891L188.2597857142857,141.10275502585702L188.35064285714287,90.10953826374477L188.53614285714286,130.63941769467462L188.58914285714286,146.46742254661189L189.1494285714286,152.76463067221144L189.26299999999998,153.54790893238453L189.48635714285712,99.93121973507935L189.6794285714286,136.8926875061459L190.45928571428573,44.24292078614235L190.49335714285715,145.78346632586585L190.69400000000002,155.67708465850185L191.20507142857142,149.36742219411664L191.34135714285713,141.53031377494335L191.7312857142857,35.82584706611103L191.7767142857143,139.49915230439768L192.2045,16.711329811149177L192.46192857142856,122.72205002771484L192.59442857142858,155.99083858293793L193.16228571428573,127.9108685106039L193.19635714285712,156.17053959684242L193.29857142857142,148.02343667132985L193.41214285714287,147.56373038474055L193.54085714285716,121.42936647103893L193.71121428571428,139.39492561502587L193.7415,140.8076803071631L193.8475,54.60652946763567L194.27528571428573,155.68152444654453L194.33585714285715,156.425854002436L194.57057142857144,144.85612139892248L194.63492857142856,144.17736592143774L194.9605,155.36695430841712L194.99457142857142,142.04849641935692L195.7062857142857,127.10589255061413L195.90314285714285,122.80221165219942L196.99342857142858,151.50415405589672L197.07292857142858,150.8692047326929L197.60671428571428,142.95571713149548L197.7695,154.163234129962L197.97014285714286,136.55796114934813L197.99664285714286,151.55295557611518L198.07235714285716,52.43108444081413L198.17078571428573,149.91202207240792L198.51149999999998,100.5679336455133L198.70835714285715,152.16833971606363L198.93550000000002,156.51900274948113L198.96200000000002,140.64245194776188L199.0717857142857,132.86562868042122L199.27242857142858,133.6341248386436L199.28757142857143,148.22722531399793L199.33678571428572,152.0198394778288L199.38978571428572,145.05062569719223L199.48064285714287,103.39865206182003L199.5260714285714,151.87010052882962L199.64721428571428,126.38502735396224L199.67371428571428,152.4075665382875L199.72671428571428,154.3144701230857L200.15449999999998,81.26123479008675L200.19614285714286,128.28761893593602L200.21885714285716,141.58225305544005L200.37407142857145,-17.445965713924828L200.38921428571427,141.40040110548335L200.4422142857143,103.5479751908117L200.5292857142857,150.10350281124312L200.93057142857145,156.01871233806014L201.09335714285714,149.04749313534964L201.32807142857143,144.82399320188495L201.38864285714286,106.11711841656101L201.5022142857143,155.23494273796678L202.23664285714287,119.36626191933948L202.407,156.60028692681547L202.5887142857143,151.71955158271723L202.619,125.95765464173424L203.02785714285713,112.71531529890166L203.10357142857143,151.6797714686642L203.838,130.7928833671742L204.36042857142857,156.4732706071809L205.45828571428572,83.6662677195337L205.6627142857143,45.31997473041218L205.75735714285713,142.53236171023713L206.23435714285714,134.94517999556328L206.541,125.50498460067642L206.7719285714286,149.18779163476495L206.84385714285713,156.31028320909374L207.06721428571427,152.53122026473284L207.50635714285715,148.6438336757322L207.80542857142856,156.18640614632102L208.23700000000002,141.73200720051923L208.4262857142857,-26.426233788331338L208.56635714285716,151.40859281602832L208.77835714285715,141.18266246136693L208.83892857142857,157.16222564751902L208.9525,143.57697893099652L209.22885714285712,122.94271921283668L209.66042857142855,116.72773615519205L209.99357142857144,153.484027835437L210.251,156.90014852583408L210.5955,140.31630354788567L210.60307142857144,155.45625430283445L210.6257857142857,46.67701230446499L211.31478571428573,128.29659106996323L211.9205,129.15903584162393L212.05678571428572,124.30042725635899L212.49214285714285,134.3393905684352L212.5072857142857,152.24190439987512L212.85935714285714,157.3024765440625L213.06757142857143,17.47460404369566L213.2947142857143,126.56084876259166L213.65435714285715,103.61896022491986L214.42664285714287,153.4579960294068L214.83928571428572,79.89689572983316L215.00585714285714,130.96147880951563L215.02100000000002,112.75872635510231L215.0512857142857,139.74807883054018L215.61157142857144,157.32468544231313L215.7895,86.05215911401642L216.03935714285714,143.81971190331708L216.04692857142857,155.69979036495917L216.6829285714286,147.29235786696273L216.89114285714285,141.24470299068423L216.99714285714285,157.1734687896549L217.12207142857142,153.66756885271104L217.2129285714286,128.01552253216505L217.2507857142857,156.90972102014348L217.7164285714286,141.50568507363397L217.78457142857144,147.2003046191401L218.0685,139.22689565105568L218.21235714285714,157.49413226806143L218.36757142857144,146.4903225786984L218.74992857142857,123.0130706164572L218.82185714285714,156.67358441288687L219.21557142857142,133.80393228348757L219.3405,149.6969376769331L219.58278571428573,154.0949618263791L219.62064285714285,151.98420006533462L219.9197142857143,138.44631262289153L219.9765,99.89364765750037L220.1165714285714,158.0464423293985L221.08950000000002,74.83741522828737L221.1197857142857,104.79920015732446L221.34314285714285,157.30926003964203L221.39614285714288,114.83016756839221L222.02457142857145,152.90013918301295L222.24414285714286,154.65164396973947L222.27064285714286,145.7759566994177L222.2857857142857,114.47775113251473L222.30092857142859,139.25252268877293L222.69085714285714,157.17330117228752L222.83471428571428,136.9871758106682L222.95964285714285,154.76826375308963L223.0012857142857,151.91209420520397L223.44421428571428,149.81008308380842L223.62971428571427,79.67298103041118L223.6865,138.65078923354545L223.76600000000002,155.29196994234292L223.82278571428571,153.44860301001202L224.04992857142855,154.36607739225857L224.26950000000002,144.3794590499666L224.75028571428572,154.38459726940425L225.1212857142857,135.30241865416366L225.58692857142856,33.76354928811392L225.72321428571428,94.18857873479524L225.8065,150.17600008555584L225.97307142857142,130.64928133206237L226.02228571428572,150.77299788966775L226.07907142857144,148.2111110223664L226.4122142857143,106.3965052548382L226.6242142857143,115.3307945960098L226.90435714285715,153.04121498494513L227.07471428571426,35.415254510111275L227.8735,133.11597719126277L228.2747857142857,157.67391968089052L228.28614285714283,110.10255840255154L228.3845714285714,108.05441047747928L228.50192857142858,139.9426586487227L229.17957142857142,142.37739300727844L229.1985,94.8629310329755L229.22878571428572,153.9529576821046L229.84207142857144,153.6165698872258L230.04271428571428,67.79324931568569L230.1525,147.22622821066113L230.43642857142856,153.47768600471318L230.7885,156.2585870658772L230.79985714285715,151.42180926125081L231.27307142857143,155.30489904350705L232.07942857142856,142.65716481291585L232.20435714285713,151.82688794264365L232.36335714285715,154.04770800388522L232.4845,154.49826371762902L232.56400000000002,142.9542923838728L232.80249999999998,151.8940329733822L232.84792857142855,75.80129982034364L232.90092857142855,146.24362757388087L232.92742857142858,12.602442397011663L232.935,127.47336876226795L233.2302857142857,150.52658332159947L233.90792857142856,154.75681028339184L234.03285714285713,149.7147539295256L234.16914285714284,102.84417012665007L234.29028571428572,153.4144472875115L234.71050000000002,158.18533160464884L234.85057142857144,97.68806465963522L235.6115,125.39145791033903L235.70235714285712,150.82267571716673L235.84621428571427,156.76640160909542L235.8689285714286,41.89590188529757L235.9522142857143,48.69124257895681L236.221,158.0111211280002L236.48978571428572,152.13534626344014L236.54657142857144,143.62815932846732L236.67528571428574,153.34189797813693L236.89107142857142,143.57596033314863L237.3112857142857,140.23299219045373L237.45514285714287,154.6954533474313L237.59142857142857,148.96915319851703L238.00785714285715,152.9512371532619L238.84071428571428,122.24327220022678L239.61678571428573,154.74448511128622L239.80985714285714,20.319545990890923L240.16571428571427,146.8063817024231L240.60485714285716,158.17661696215347L240.81307142857142,121.3814205361737L240.92664285714287,157.4031052161267L240.94178571428571,155.91410528620085L241.1007857142857,152.12391052250234L241.22192857142858,155.80968519217438L241.32414285714285,153.9292278519521L241.38850000000002,142.28942888644008L241.44528571428572,143.12410167066585L241.48314285714287,137.2081341817975L241.80114285714285,155.70714941206904L242.33871428571427,153.99869742244482L242.39928571428572,156.7154605498848L242.41064285714285,128.58639228840667L242.422,144.86287674721746L242.50528571428572,90.46494602494771L242.94064285714285,151.5577533930126L243.28514285714286,156.50178167668898L243.46307142857142,95.11396659082835L243.64478571428572,152.6353806439373L243.92114285714285,145.1010536584589L244.46628571428573,156.49341681025302L244.648,138.91000488731595L244.70857142857142,154.6557793756947L244.82214285714284,157.84897034894675L245.00764285714286,125.62133684092099L245.05685714285713,126.32847214904095L245.0757857142857,138.9143316257331L245.1287857142857,109.05515615476502L245.38242857142856,97.27760840786827L245.549,151.53359024433624L245.6512142857143,131.30439999782377L246.0827857142857,132.14695540318885" style="fill: none;" fill="none"></path></g></g></g></g></g></g><g transform="translate(65, 178)" clip-path="url(#clip_1)"><clipPath id="clip_1"><rect width="265" height="22"></rect></clipPath><g><g><line x1="0" y1="0" x2="0" y2="5" style="visibility: inherit;" fill="rgb(0, 0, 0)" stroke="rgb(204, 204, 204)" stroke-width="1px"></line><line x1="18.928571428571427" y1="0" x2="18.928571428571427" y2="5" style="visibility: inherit;" fill="rgb(0, 0, 0)" stroke="rgb(204, 204, 204)" stroke-width="1px"></line><line x1="37.857142857142854" y1="0" x2="37.857142857142854" y2="5" style="visibility: inherit;" fill="rgb(0, 0, 0)" stroke="rgb(204, 204, 204)" stroke-width="1px"></line><line x1="56.785714285714285" y1="0" x2="56.785714285714285" y2="5" style="visibility: inherit;" fill="rgb(0, 0, 0)" stroke="rgb(204, 204, 204)" stroke-width="1px"></line><line x1="75.71428571428571" y1="0" x2="75.71428571428571" y2="5" style="visibility: inherit;" fill="rgb(0, 0, 0)" stroke="rgb(204, 204, 204)" stroke-width="1px"></line><line x1="94.64285714285714" y1="0" x2="94.64285714285714" y2="5" style="visibility: inherit;" fill="rgb(0, 0, 0)" stroke="rgb(204, 204, 204)" stroke-width="1px"></line><line x1="113.57142857142857" y1="0" x2="113.57142857142857" y2="5" style="visibility: inherit;" fill="rgb(0, 0, 0)" stroke="rgb(204, 204, 204)" stroke-width="1px"></line><line x1="132.5" y1="0" x2="132.5" y2="5" style="visibility: inherit;" fill="rgb(0, 0, 0)" stroke="rgb(204, 204, 204)" stroke-width="1px"></line><line x1="151.42857142857142" y1="0" x2="151.42857142857142" y2="5" style="visibility: inherit;" fill="rgb(0, 0, 0)" stroke="rgb(204, 204, 204)" stroke-width="1px"></line><line x1="170.35714285714286" y1="0" x2="170.35714285714286" y2="5" style="visibility: inherit;" fill="rgb(0, 0, 0)" stroke="rgb(204, 204, 204)" stroke-width="1px"></line><line x1="189.28571428571428" y1="0" x2="189.28571428571428" y2="5" style="visibility: inherit;" fill="rgb(0, 0, 0)" stroke="rgb(204, 204, 204)" stroke-width="1px"></line><line x1="208.21428571428572" y1="0" x2="208.21428571428572" y2="5" style="visibility: inherit;" fill="rgb(0, 0, 0)" stroke="rgb(204, 204, 204)" stroke-width="1px"></line><line x1="227.14285714285714" y1="0" x2="227.14285714285714" y2="5" style="visibility: inherit;" fill="rgb(0, 0, 0)" stroke="rgb(204, 204, 204)" stroke-width="1px"></line><line x1="246.07142857142858" y1="0" x2="246.07142857142858" y2="5" style="visibility: inherit;" fill="rgb(0, 0, 0)" stroke="rgb(204, 204, 204)" stroke-width="1px"></line><line x1="265" y1="0" x2="265" y2="5" style="visibility: inherit;" fill="rgb(0, 0, 0)" stroke="rgb(204, 204, 204)" stroke-width="1px"></line></g><g transform="translate(0, 8)"><text x="0" y="0" dx="0em" dy="0.95em" style="text-anchor: middle; visibility: hidden; font-family: Roboto, sans-serif; font-size: 12px; font-weight: 200;" fill="rgb(50, 49, 63)" stroke="none" stroke-width="1px">-5k</text><text x="18.928571428571427" y="0" dx="0em" dy="0.95em" style="text-anchor: middle; visibility: inherit; font-family: Roboto, sans-serif; font-size: 12px; font-weight: 200;" fill="rgb(50, 49, 63)" stroke="none" stroke-width="1px">0</text><text x="37.857142857142854" y="0" dx="0em" dy="0.95em" style="text-anchor: middle; visibility: hidden; font-family: Roboto, sans-serif; font-size: 12px; font-weight: 200;" fill="rgb(50, 49, 63)" stroke="none" stroke-width="1px">5k</text><text x="56.785714285714285" y="0" dx="0em" dy="0.95em" style="text-anchor: middle; visibility: inherit; font-family: Roboto, sans-serif; font-size: 12px; font-weight: 200;" fill="rgb(50, 49, 63)" stroke="none" stroke-width="1px">10k</text><text x="75.71428571428571" y="0" dx="0em" dy="0.95em" style="text-anchor: middle; visibility: hidden; font-family: Roboto, sans-serif; font-size: 12px; font-weight: 200;" fill="rgb(50, 49, 63)" stroke="none" stroke-width="1px">15k</text><text x="94.64285714285714" y="0" dx="0em" dy="0.95em" style="text-anchor: middle; visibility: inherit; font-family: Roboto, sans-serif; font-size: 12px; font-weight: 200;" fill="rgb(50, 49, 63)" stroke="none" stroke-width="1px">20k</text><text x="113.57142857142857" y="0" dx="0em" dy="0.95em" style="text-anchor: middle; visibility: hidden; font-family: Roboto, sans-serif; font-size: 12px; font-weight: 200;" fill="rgb(50, 49, 63)" stroke="none" stroke-width="1px">25k</text><text x="132.5" y="0" dx="0em" dy="0.95em" style="text-anchor: middle; visibility: inherit; font-family: Roboto, sans-serif; font-size: 12px; font-weight: 200;" fill="rgb(50, 49, 63)" stroke="none" stroke-width="1px">30k</text><text x="151.42857142857142" y="0" dx="0em" dy="0.95em" style="text-anchor: middle; visibility: hidden; font-family: Roboto, sans-serif; font-size: 12px; font-weight: 200;" fill="rgb(50, 49, 63)" stroke="none" stroke-width="1px">35k</text><text x="170.35714285714286" y="0" dx="0em" dy="0.95em" style="text-anchor: middle; visibility: inherit; font-family: Roboto, sans-serif; font-size: 12px; font-weight: 200;" fill="rgb(50, 49, 63)" stroke="none" stroke-width="1px">40k</text><text x="189.28571428571428" y="0" dx="0em" dy="0.95em" style="text-anchor: middle; visibility: hidden; font-family: Roboto, sans-serif; font-size: 12px; font-weight: 200;" fill="rgb(50, 49, 63)" stroke="none" stroke-width="1px">45k</text><text x="208.21428571428572" y="0" dx="0em" dy="0.95em" style="text-anchor: middle; visibility: inherit; font-family: Roboto, sans-serif; font-size: 12px; font-weight: 200;" fill="rgb(50, 49, 63)" stroke="none" stroke-width="1px">50k</text><text x="227.14285714285714" y="0" dx="0em" dy="0.95em" style="text-anchor: middle; visibility: hidden; font-family: Roboto, sans-serif; font-size: 12px; font-weight: 200;" fill="rgb(50, 49, 63)" stroke="none" stroke-width="1px">55k</text><text x="246.07142857142858" y="0" dx="0em" dy="0.95em" style="text-anchor: middle; visibility: inherit; font-family: Roboto, sans-serif; font-size: 12px; font-weight: 200;" fill="rgb(50, 49, 63)" stroke="none" stroke-width="1px">60k</text><text x="265" y="0" dx="0em" dy="0.95em" style="text-anchor: middle; visibility: hidden; font-family: Roboto, sans-serif; font-size: 12px; font-weight: 200;" fill="rgb(50, 49, 63)" stroke="none" stroke-width="1px">65k</text></g><line x1="0" y1="0" x2="265" y2="0" fill="rgb(0, 0, 0)" stroke="rgb(204, 204, 204)" stroke-width="1px"></line></g></g></g></g></svg>