<svg viewBox="0 0 330 200" xmlns="http://www.w3.org/2000/svg"><g><g><g><g><g><line x1="43" y1="135.73234598134957" x2="38" y2="135.73234598134957" style="visibility: inherit;" fill="rgb(0, 0, 0)" stroke="rgb(204, 204, 204)" stroke-width="1px"></line><line x1="43" y1="100.35361342779994" x2="38" y2="100.35361342779994" style="visibility: inherit;" fill="rgb(0, 0, 0)" stroke="rgb(204, 204, 204)" stroke-width="1px"></line><line x1="43" y1="75.2520032073532" x2="38" y2="75.2520032073532" style="visibility: inherit;" fill="rgb(0, 0, 0)" stroke="rgb(204, 204, 204)" stroke-width="1px"></line><line x1="43" y1="55.7816816799859" x2="38" y2="55.7816816799859" style="visibility: inherit;" fill="rgb(0, 0, 0)" stroke="rgb(204, 204, 204)" stroke-width="1px"></line><line x1="43" y1="39.87327065380356" x2="38" y2="39.87327065380356" style="visibility: inherit;" fill="rgb(0, 0, 0)" stroke="rgb(204, 204, 204)" stroke-width="1px"></line><line x1="43" y1="26.422900781036184" x2="38" y2="26.422900781036184" style="visibility: inherit;" fill="rgb(0, 0, 0)" stroke="rgb(204, 204, 204)" stroke-width="1px"></line><line x1="43" y1="14.771660433356825" x2="38" y2="14.771660433356825" style="visibility: inherit;" fill="rgb(0, 0, 0)" stroke="rgb(204, 204, 204)" stroke-width="1px"></line><line x1="43" y1="4.494538100253971" x2="38" y2="4.494538100253971" style="visibility: inherit;" fill="rgb(0, 0, 0)" stroke="rgb(204, 204, 204)" stroke-width="1px"></line></g><g transform="translate(33, 0)"><text x="0" y="135.73234598134957" dx="0em" dy="0.3em" style="text-anchor: end; visibility: inherit; font-family: Roboto, sans-serif; font-size: 12px; font-weight: 200;" fill="rgb(50, 49, 63)" stroke="none" stroke-width="1px">0.2</text><text x="0" y="100.35361342779994" dx="0em" dy="0.3em" style="text-anchor: end; visibility: hidden; font-family: Roboto, sans-serif; font-size: 12px; font-weight: 200;" fill="rgb(50, 49, 63)" stroke="none" stroke-width="1px">0.3</text><text x="0" y="75.2520032073532" dx="0em" dy="0.3em" style="text-anchor: end; visibility: inherit; font-family: Roboto, sans-serif; font-size: 12px; font-weight: 200;" fill="rgb(50, 49, 63)" stroke="none" stroke-width="1px">0.4</text><text x="0" y="55.7816816799859" dx="0em" dy="0.3em" style="text-anchor: end; visibility: hidden; font-family: Roboto, sans-serif; font-size: 12px; font-weight: 200;" fill="rgb(50, 49, 63)" stroke="none" stroke-width="1px">0.5</text><text x="0" y="39.87327065380356" dx="0em" dy="0.3em" style="text-anchor: end; visibility: inherit; font-family: Roboto, sans-serif; font-size: 12px; font-weight: 200;" fill="rgb(50, 49, 63)" stroke="none" stroke-width="1px">0.6</text><text x="0" y="26.422900781036184" dx="0em" dy="0.3em" style="text-anchor: end; visibility: hidden; font-family: Roboto, sans-serif; font-size: 12px; font-weight: 200;" fill="rgb(50, 49, 63)" stroke="none" stroke-width="1px">0.7</text><text x="0" y="14.771660433356825" dx="0em" dy="0.3em" style="text-anchor: end; visibility: inherit; font-family: Roboto, sans-serif; font-size: 12px; font-weight: 200;" fill="rgb(50, 49, 63)" stroke="none" stroke-width="1px">0.8</text><text x="0" y="4.494538100253971" dx="0em" dy="0.3em" style="text-anchor: end; visibility: hidden; font-family: Roboto, sans-serif; font-size: 12px; font-weight: 200;" fill="rgb(50, 49, 63)" stroke="none" stroke-width="1px">0.9</text></g><line x1="43" y1="0" x2="43" y2="178" fill="rgb(0, 0, 0)" stroke="rgb(204, 204, 204)" stroke-width="1px"></line></g></g><g transform="translate(43, 0)" clip-path="url(#clip_0)"><clipPath id="clip_0"><rect width="287" height="178"></rect></clipPath><g><g><g><line x1="0" y1="0" x2="0" y2="178" fill="rgb(0, 0, 0)" stroke="rgb(60, 60, 60)" stroke-width="1px" opacity="0.25"></line><line x1="20.5" y1="0" x2="20.5" y2="178" fill="rgb(0, 0, 0)" stroke="rgb(60, 60, 60)" stroke-width="1px" opacity="0.25"></line><line x1="41" y1="0" x2="41" y2="178" fill="rgb(0, 0, 0)" stroke="rgb(60, 60, 60)" stroke-width="1px" opacity="0.25"></line><line x1="61.5" y1="0" x2="61.5" y2="178" fill="rgb(0, 0, 0)" stroke="rgb(60, 60, 60)" stroke-width="1px" opacity="0.25"></line><line x1="82" y1="0" x2="82" y2="178" fill="rgb(0, 0, 0)" stroke="rgb(60, 60, 60)" stroke-width="1px" opacity="0.25"></line><line x1="102.5" y1="0" x2="102.5" y2="178" fill="rgb(0, 0, 0)" stroke="rgb(60, 60, 60)" stroke-width="1px" opacity="0.25"></line><line x1="123" y1="0" x2="123" y2="178" fill="rgb(0, 0, 0)" stroke="rgb(60, 60, 60)" stroke-width="1px" opacity="0.25"></line><line x1="143.5" y1="0" x2="143.5" y2="178" fill="rgb(0, 0, 0)" stroke="rgb(60, 60, 60)" stroke-width="1px" opacity="0.25"></line><line x1="164" y1="0" x2="164" y2="178" fill="rgb(0, 0, 0)" stroke="rgb(60, 60, 60)" stroke-width="1px" opacity="0.25"></line><line x1="184.5" y1="0" x2="184.5" y2="178" fill="rgb(0, 0, 0)" stroke="rgb(60, 60, 60)" stroke-width="1px" opacity="0.25"></line><line x1="205" y1="0" x2="205" y2="178" fill="rgb(0, 0, 0)" stroke="rgb(60, 60, 60)" stroke-width="1px" opacity="0.25"></line><line x1="225.5" y1="0" x2="225.5" y2="178" fill="rgb(0, 0, 0)" stroke="rgb(60, 60, 60)" stroke-width="1px" opacity="0.25"></line><line x1="246" y1="0" x2="246" y2="178" fill="rgb(0, 0, 0)" stroke="rgb(60, 60, 60)" stroke-width="1px" opacity="0.25"></line><line x1="266.5" y1="0" x2="266.5" y2="178" fill="rgb(0, 0, 0)" stroke="rgb(60, 60, 60)" stroke-width="1px" opacity="0.25"></line><line x1="287" y1="0" x2="287" y2="178" fill="rgb(0, 0, 0)" stroke="rgb(60, 60, 60)" stroke-width="1px" opacity="0.25"></line></g><g><line x1="0" y1="135.73234598134957" x2="287" y2="135.73234598134957" fill="rgb(0, 0, 0)" stroke="rgb(60, 60, 60)" stroke-width="1px" opacity="0.25"></line><line x1="0" y1="100.35361342779994" x2="287" y2="100.35361342779994" fill="rgb(0, 0, 0)" stroke="rgb(60, 60, 60)" stroke-width="1px" opacity="0.25"></line><line x1="0" y1="75.2520032073532" x2="287" y2="75.2520032073532" fill="rgb(0, 0, 0)" stroke="rgb(60, 60, 60)" stroke-width="1px" opacity="0.25"></line><line x1="0" y1="55.7816816799859" x2="287" y2="55.7816816799859" fill="rgb(0, 0, 0)" stroke="rgb(60, 60, 60)" stroke-width="1px" opacity="0.25"></line><line x1="0" y1="39.87327065380356" x2="287" y2="39.87327065380356" fill="rgb(0, 0, 0)" stroke="rgb(60, 60, 60)" stroke-width="1px" opacity="0.25"></line><line x1="0" y1="26.422900781036184" x2="287" y2="26.422900781036184" fill="rgb(0, 0, 0)" stroke="rgb(60, 60, 60)" stroke-width="1px" opacity="0.25"></line><line x1="0" y1="14.771660433356825" x2="287" y2="14.771660433356825" fill="rgb(0, 0, 0)" stroke="rgb(60, 60, 60)" stroke-width="1px" opacity="0.25"></line><line x1="0" y1="4.494538100253971" x2="287" y2="4.494538100253971" fill="rgb(0, 0, 0)" stroke="rgb(60, 60, 60)" stroke-width="1px" opacity="0.25"></line></g></g></g><g><g><line x1="20.5" y1="0" x2="20.5" y2="178" fill="rgb(0, 0, 0)" stroke="rgb(153, 153, 153)" stroke-width="1.5px"></line></g></g><g><g><g><g><g><path stroke="rgb(255, 112, 67)" stroke-width="2px" d="M21.6193,-4.36906925830209L21.7628,1.478826730409951L21.771,5.874512790304278L21.8038,8.722590909856287L22.4434,9.570725424691298L22.6976,14.833023833496965L22.8739,20.570584067600645L22.9026,23.750255559683424L23.0994,29.712978083784854L23.1527,33.328293054419234L23.4274,25.474513020360554L23.4602,24.398980178823674L23.7882,24.079829162572214L23.8128,25.55992532340543L23.927599999999998,24.940056346210852L24.4811,16.69716664370077L24.657400000000003,16.050182342520372L24.870600000000003,14.247660801015792L25.0264,20.084998662567322L25.338,21.214697991120826L25.6701,22.45873071070063L25.895599999999998,18.723393371082974L25.9079,16.92082796377245L25.965300000000003,18.613179527740947L25.9817,16.280257599553984L26.178500000000003,19.442962607545525L26.207199999999997,16.970976873661666L26.3876,17.697551435033567L26.5106,20.26762133432768L26.8632,24.884508859725088L26.9944,23.811748776534483L27.4331,21.61198296421931L27.609399999999997,23.69358720896373L27.6217,20.297313013208008L28.060399999999998,17.86409732105039L28.195700000000002,15.998844401400028L28.3597,22.678616910661603L28.4827,24.53754343919706L28.8476,27.440148124700006L29.0936,32.173571730019404L29.4667,33.94518938265263L29.5159,38.01940669150191L29.647100000000002,36.83330925395901L29.774199999999997,40.01253941756834L29.9587,37.852506565646244L30.294900000000002,30.147194752832497L30.487599999999997,33.84448704202309L30.5573,29.351716350225868L30.5655,29.117801955315166L30.586,28.759886033426547L30.6885,25.1513519892237L30.692600000000002,22.432154994709318L30.7418,23.11454340520753L30.7623,25.431092609151307L30.8812,31.59641966162227L31.5085,32.2590613477081L31.733999999999998,30.594351060162996L32.6647,33.38694424799745L32.9558,39.35695079511375L32.9681,46.46403248456945L33.460100000000004,45.27721963119517L33.743,44.6601006134125L33.8086,40.866591884219744L33.8127,38.560103505356494L34.0505,39.983735621813516L34.768,43.33533210810053L35.333800000000004,41.59302677658185L35.342,39.84643105087678L35.547000000000004,43.17908898329265L35.838100000000004,39.85321884767047L36.1374,42.98773965047787L36.1661,40.28329753535644L36.604800000000004,39.83894387619346L36.7196,40.93014371921683L37.047599999999996,42.0252717876369L37.3018,40.37368417635128L37.7036,39.55738255368005L37.8512,44.10413010364297L38.1997,46.84828020009426L38.54,46.08757560286498L38.9172,46.80130870608459L38.986900000000006,47.52457392012643L39.073,46.72573044306211L39.6224,44.37049154569063L39.6388,47.06266238688803L39.6716,46.861967362102355L40.1308,45.54507287057037L40.188199999999995,38.71729965122433L40.344,33.84614248821161L40.5654,36.203996668491264L40.8811,4.660242413029063L41.205,11.512968129419262L41.2132,15.225597972573246L41.434599999999996,14.815739926320537L41.5494,20.784018284042165L42.414500000000004,25.446514486870104L42.4719,30.27089714037342L42.722,33.84445487093856L43.2509,34.74692472578316L43.7839,35.05472838189069L43.9643,29.1752205612636L44.3128,31.56665905418653L44.5424,27.848737276144796L44.5711,31.041860613083347L44.7187,34.51619172812528L45.059,38.67045765695885L45.637100000000004,35.5390118650574L45.92,34.004073080332475L45.9979,32.23224679143678L46.2849,36.87850858886594L46.3792,38.9438194795519L46.641600000000004,41.971163186004745L47.232,44.01042531140138L47.4534,50.00619465423654L47.5723,50.41910191689915L47.9536,50.6371797295606L47.9659,45.04997532892909L48.015100000000004,43.26640931441516L48.601400000000005,44.43780927990139L49.0606,43.97438086918153L49.1672,45.562331586848146L49.6674,43.98316020340414L49.8355,47.32443515060374L50.4751,50.54988728864068L50.7662,51.62339581057168L51.045,52.379566022977684L51.086,52.17638702077742L51.0983,49.5145449997183L51.159800000000004,47.17027990468709L51.2951,49.63783164792823L52.0413,52.11651879713117L52.4308,53.30423350375184L52.4718,55.36188689670141L52.6153,48.47992120969956L53.2631,46.75410998709941L53.5706,44.15821749078646L54.038,47.2662421694953L54.2061,48.58016738209511L54.7883,46.28120556922206L54.8088,46.388886534734965L54.8457,51.795487295328506L55.227,55.61003736183134L55.3418,50.95181041891892L55.3828,56.58690427245001L55.7641,55.10102457660794L55.9035,50.296781661577626L56.1495,57.88355477920338L56.8998,53.92863180355607L57.0187,55.754421598243226L57.104800000000004,57.84099837433989L57.1335,59.35718670772227L57.3713,61.28533931347821L57.6255,63.15684647647508L58.466,65.48730779823772L58.6956,57.63358418312424L58.826800000000006,51.662080902054875L59.1835,43.100952787147065L59.318799999999996,42.03435344019632L59.6714,39.024497506753775L59.7247,43.476222456819826L60.0937,46.44672919329005L60.188,43.7459943013614L60.261799999999994,46.690598917449584L60.8563,48.97695926278167L61.1187,53.206039552908216L61.7378,62.81007985992264L61.8444,66.05482975215912L62.631600000000006,64.66070200580202L62.6603,61.83459847537387L63.1359,65.2944987343442L63.463899999999995,65.33228718396097L63.64019999999999,60.39181452970524L63.9887,60.14681210139023L64.1158,56.84574198459049L64.1814,57.08100473946372L64.4151,57.41334753963405L64.6037,57.35355877383264L64.6078,56.65700367431906L64.698,58.3854575497391L64.9481,62.16922718596808L64.985,62.29742018199823L65.1982,55.93347687346084L65.2105,56.26277502420347L65.3663,56.145553328992136L65.4606,60.27935763769239L65.4852,60.02258482786327L65.4934,64.45326252195254L65.682,64.90051871815608L66.0182,64.90044779691085L66.0961,63.73841206103087L66.133,65.1902373777938L66.4118,64.38175167407195L66.42,61.60185917947831L66.666,65.64038598056322L67.3179,65.65632885837488L67.5352,66.03395963976786L67.6172,65.1086031483981L67.7443,63.972222653525115L67.7812,73.2412917720731L67.9206,71.18491591449553L68.2568,70.95034949688089L68.4085,68.6709201622142L68.7119,72.86396123634619L69.1793,79.18953791557246L69.5729,84.68007798812127L69.5934,78.20570443294888L69.741,74.86095342909846L69.8681,74.37640217962216L70.2658,71.89677522975019L70.3724,71.41926085338437L70.45439999999999,69.36459777119089L70.889,58.391998477597554L71.3605,58.81456390262549L71.5778,62.56580951106211L72.4511,66.13678047396684L73.2957,63.07661162305392L73.54990000000001,65.94384229823662L73.8697,69.84542805186393L73.9394,71.32424887967018L74.0501,70.17598592944383L74.1362,53.86038010940513L74.18539999999999,61.054203772706416L74.2469,64.72304694174456L74.77990000000001,63.26980155703548L75.4482,57.47369750314772L75.4646,57.833740872878785L75.8664,62.06019768136723L76.0386,54.463341874092L76.2477,58.42640889471182L76.342,63.886852841509516L76.5839,60.67444083615422L77.12100000000001,65.34127706895106L77.42439999999999,61.675745775511935L78.228,61.02191715083601L78.8061,65.1669233137789L79.0767,62.05369759663972L79.1054,66.12035442746726L79.212,67.8838886019643L79.28580000000001,67.3472328722343L79.52770000000001,73.302375061458L79.73270000000001,75.35319164805495L80.49119999999999,74.55972029401443L80.5158,77.09746424131606L80.6388,71.72944304617599L80.6757,71.1904889429829L80.71669999999999,71.54514261632178L81.09389999999999,66.76299669208824L81.1308,71.13371785241434L81.2169,72.5398048486405L81.4793,74.77973855685511L81.5572,72.45126164131081L82.369,77.33667561484073L82.73800000000001,80.96761492122374L83.09060000000001,81.80161373523894L83.32839999999999,84.86290491541851L83.93929999999999,84.2373037861483L83.94749999999999,84.0653990939748L84.0787,84.23906015495365L84.2058,80.77719873292243L85.03399999999999,76.50787601581266L85.13239999999999,72.69119563882035L85.16929999999999,72.91099699736544L85.3948,77.11333523495418L86.0713,81.7463365276614L86.4895,84.88815443922473L86.5756,83.47724193685676L87.1209,87.76083695992111L87.4161,85.41357312600742L87.5063,82.85692807354413L87.57600000000001,82.76148709892402L87.7646,80.51689865720824L88.1705,86.76871790045901L88.9577,82.4027196271512L89.41279999999999,81.51832150674647L89.4169,79.2035419776805L89.61370000000001,79.43871233394925L89.7859,79.30243822414944L90.47059999999999,82.12677648756454L90.59769999999999,81.57495464350488L90.7371,77.95819760834176L91.17989999999999,77.34632454692017L91.31519999999999,71.15074474815573L91.39720000000001,69.01106781774959L91.4956,68.75364614885078L91.4997,77.96045327025008L91.512,80.31711196774576L91.5899,79.75968630999593L91.8605,78.33989653508266L92.0204,79.73235823849352L92.0614,79.30463143145448L92.4263,83.63818828639374L92.48370000000001,83.41609458507128L92.6026,85.84875746164376L92.6354,84.63959716441498L92.7543,86.5012911997439L93.1602,88.4540953658819L94.10730000000001,92.63014350440612L94.2221,93.1965370186512L94.3738,88.35118881303326L94.51729999999999,89.53423277628382L94.5665,76.76807635807828L94.8289,76.98207422815908L95.3824,75.62734499527404L95.60379999999999,69.23996983113365L96.1491,72.84715930127093L96.15320000000001,78.67197820667772L96.72720000000001,81.21855525220815L97.22330000000001,84.39673202674199L97.252,85.44754377812552L97.7645,85.56428873173894L98.2278,78.26199970493428L98.42049999999999,79.46978741745703L98.5968,76.38728512408768L98.8756,83.85053789838784L99.0929,82.67060589752045L99.5111,79.88934155692795L100.55250000000001,84.6209546794194L100.5771,87.01365245621288L101.024,86.70056412802826L101.0814,86.91092034602302L101.3971,86.21383275269038L101.4217,87.46838599444659L101.7743,89.50095387612606L101.86859999999999,93.22093348010513L102.15559999999999,80.32433361713547L102.2458,77.64642946396077L102.3811,80.3067404641421L102.4795,80.29495114590108L102.6435,77.73858740652362L102.7173,72.02948950283384L102.7419,75.60982267493436L102.7542,79.66711533193573L103.0658,80.28814783236939L103.06989999999999,77.0480908473244L103.2626,81.82904277359033L103.3897,79.0586691033313L103.5004,81.03190376352855L103.51270000000001,84.79339009510205L103.5332,87.15579439912803L103.8243,81.91018876382469L103.8694,82.20957004313932L104.0703,86.89432292205217L104.304,89.14170291022648L104.48849999999999,92.56454079711094L104.6566,92.32808543073499L104.7099,95.66888935723475L104.71400000000001,98.4140000405781L104.80420000000001,94.31305435056103L104.8698,93.21400743389964L105.3249,94.615525195954L105.411,99.69326852895571L105.6939,95.44332614235056L105.7062,98.01847765633387L105.7103,95.30978391113118L105.90710000000001,91.01400045301004L106.00550000000001,87.26411572368923L106.5467,88.77600162677847L106.928,86.50664436730153L107.19040000000001,84.60726288285781L107.45689999999999,90.09048889567872L107.55120000000001,88.05562568893792L107.8956,87.46284158241903L107.90790000000001,84.9537031182286L107.9284,83.36929428513695L108.20309999999999,78.51386413103997L108.27690000000001,77.8795292345322L108.5844,76.03164790100372L108.74430000000001,79.77511178064157L109.3921,84.04279759718298L109.56840000000001,84.23492777875597L109.8595,83.51945708638615L109.9661,83.26589715414072L110.0522,72.17847207990327L110.07679999999999,68.1550684467758L110.7246,68.46142295095036L111.70450000000001,65.05036805583565L111.7578,66.71479020497527L111.8972,64.35968834582553L112.053,67.16297539646926L112.1678,66.6241477138328L112.6352,74.44488671898768L112.7787,70.38688873920047L112.93039999999999,74.65633782778826L113.3035,73.23139972132638L113.8365,73.39974685176368L114.14399999999999,77.00576250546396L114.513,82.59146623997677L114.5253,86.33953920676613L115.1444,89.10328041104091L115.36580000000001,82.61455230018191L115.40679999999999,82.49743504378608L115.5462,86.49973528224662L115.5872,79.68900852969996L115.6938,81.45626017876596L115.87830000000001,87.74680629567078L115.9726,90.6114266320008L116.2801,90.525625555514L116.35799999999999,90.90802862251104L116.5507,86.92372322447731L117.014,89.53671204324078L117.2149,88.15764291833075L117.54700000000001,88.22296632856275L117.5921,80.556203942906L117.6741,84.08781943582684L117.9734,87.5854801932447L118.2071,88.20129930240968L118.6458,90.23348109915622L119.2239,93.89382069052978L119.3838,91.5465338344455L119.5027,82.37776027668569L119.8594,83.53844120855945L120.05619999999999,86.4666764456791L120.06439999999999,89.74456349347862L120.2202,86.65065948199565L120.3145,85.73477701198905L120.60560000000001,90.35644080144964L121.1837,94.01359143499577L121.4461,93.42727759935953L121.8479,90.21811644272192L121.8807,89.75642114427566L122.5941,90.89341759343898L122.7294,87.24819848374501L123.0328,87.39827544563248L123.1927,90.25964235526206L123.5453,92.689635904335L123.9471,92.71680075698369L124.0004,95.31195535173218L124.0373,89.11882338694677L124.3612,93.56290198102094L124.6031,93.54449307849819L125.0705,91.43328834570274L125.132,91.97128565451743L125.4559,88.18519701538563L125.8126,91.88260591492154L126.32919999999999,89.27159774570104L126.47269999999999,87.33659527605799L126.7761,88.27503639597748L127.28450000000001,87.09635124122669L127.3706,94.73279576028993L127.4731,97.63890384512784L127.7355,92.34617388054602L127.7929,90.86487101035826L128.2972,97.27976438660842L128.3423,100.25721531768438L128.7523,91.57524252680747L129.027,90.52759389252847L129.84699999999998,90.53702804651952L130.3677,93.06331433688166L130.3718,94.10423541846949L130.4907,93.8841797724593L130.4989,97.5942277868095L130.9048,96.38678749462265L131.7822,95.06989437681816L131.8068,93.39426651942514L131.8314,83.8042877919745L131.8478,82.28571639250487L131.8519,84.62998924589405L132.3234,87.90314508690824L133.2705,88.18892361587024L133.6723,88.73087814984731L133.7133,89.72880344171789L133.74200000000002,92.32370054985124L133.8158,91.93134214551354L134.22990000000001,92.4084634310045L134.5825,80.68088890391184L134.9556,84.85031868071252L134.9638,83.92126270968255L135.095,75.52912046051061L135.1688,81.02602760595192L136.3291,81.26764213081898L136.4357,85.50170903291446L136.6161,81.14124995510105L137.0958,84.26058409914152L137.1491,87.30790906714125L137.5263,86.29904889993823L137.64520000000002,86.8019029261538L137.80509999999998,90.13457163486356L139.277,94.66918263909712L139.3836,91.89463310679771L139.47379999999998,91.78396236427521L139.5517,95.57829743059823L139.6542,99.323218343673L139.7198,95.86882865371724L139.769,97.72744704473462L140.2241,96.25047349556417L140.4783,97.18724182022248L141.3311,101.38555392405618L141.35979999999998,98.8764883023647L141.3967,99.50082514625218L141.6017,100.63627490159716L141.614,99.86048564219185L141.7001,97.34501058937964L141.8272,100.83040327266772L141.9051,102.99365537458426L142.46269999999998,105.93922587252735L142.79479999999998,100.87143254402709L142.7989,101.57788876953454L142.9383,97.34564404440566L143.5,97.16412531245601L143.5205,96.60726564124364L143.6271,95.09128506699568L143.8157,94.75365042732487L143.8772,93.17916331136135L144.2134,98.70234939843138L144.3897,84.20203318279323L144.4963,86.7932716396483L144.6644,88.3151750742163L144.8407,96.34403808575853L145.3819,95.33485475933068L145.427,95.84165492929473L145.8452,94.65981505923759L146.0092,94.3483058738716L146.3946,84.99107199827533L146.452,85.18736634123957L146.5258,87.5786120965509L147.8132,91.84532639227173L148.0305,93.6257242634303L149.2646,99.76108689224847L149.4163,105.25341508415109L150.4536,107.29958718976104L150.56019999999998,110.98208662480636L150.9128,114.71479391626659L151.17929999999998,117.20661243878267L151.20799999999997,113.53156022741814L151.24079999999998,111.77031263877605L151.4376,114.57167866277169L151.4745,117.8705605886954L151.7164,111.19899099988687L151.7697,104.31563219476735L152.41340000000002,105.70200211338707L152.5487,109.50905295059658L152.7209,114.76293968304618L153.48350000000002,114.8839093952198L153.8689,116.00327856044976L153.9222,114.41167336348441L154.2051,117.23237647337876L154.39370000000002,117.83735730651911L154.59459999999999,110.78885459564589L154.8242,104.9528227601433L155.3654,107.35508247351804L155.3982,110.40620893278425L155.8082,101.66884545395206L155.8574,105.28802242168898L155.9394,108.22591996953422L156.4232,112.3047973238749L156.53390000000002,115.2804519836617L156.5421,107.79523671127411L156.9111,100.3639395437899L157.1981,102.91249335468774L157.3088,103.64391707853814L157.3375,102.84146727152113L157.4523,99.88613791096866L158.0099,104.35672889849535L158.3871,104.62283239231951L158.78480000000002,98.88485396273506L158.8217,94.00189298804759L158.8709,102.20840930879031L158.9488,103.19218752240226L159.0185,106.67164599001197L159.2399,107.11853671657668L159.2891,101.66901253660413L159.39159999999998,102.77443238096807L159.5433,107.18157698465802L159.9697,103.64179490730717L160.0476,103.12794202443605L160.0763,106.83248323566917L160.2649,109.41447259579785L160.4781,110.12799855197768L160.49040000000002,108.26385648159282L160.63389999999998,108.58096602526831L161.3801,109.94301942827161L161.38420000000002,104.79881757829371L161.4703,108.5753964854879L161.6958,111.60484920585748L162.05249999999998,114.68751034173378L162.0566,115.11032738386652L162.2124,118.34177223833008L162.3559,124.32536255745835L162.39280000000002,110.98506940570364L163.1103,107.558103927181L163.4998,102.02381729959735L164.3239,102.63317190075422L164.4715,106.76234025368197L164.7257,104.60613011308413L165.04139999999998,103.7853521467622L165.3653,106.14320789476716L165.4514,111.03935968857749L165.4842,114.68052501643469L165.5375,117.94044308668153L165.5457,119.22774162956878L165.9721,111.06334450982295L165.9803,112.02232280002009L166.33700000000002,109.4562941670942L166.3493,105.26987638962584L167.1611,98.02034573937209L167.1898,100.1641358559791L167.4604,104.88340011029415L167.48090000000002,97.91863418829443L167.90730000000002,102.78684301238738L167.977,103.38147643264995L168.2517,106.61947502527013L168.3337,110.77653059749984L168.7724,111.66446575756426L169.0471,114.64754078022295L169.1086,116.42804608270899L169.1742,115.44631443102685L169.2275,117.29698673442107L169.371,70.88159086487362L169.47760000000002,78.2896483711904L170.4329,83.94849572942691L170.6789,92.29913154960916L170.80190000000002,98.67508372257088L170.87980000000002,101.64935590085824L171.2447,100.3867789549553L171.40460000000002,102.52251279718989L171.42100000000002,98.19744640326458L171.4579,100.66848264223549L171.585,107.17081133597685L171.81869999999998,88.64666209016082L172.4173,85.22693059254507L172.8929,88.99087325886829L173.0282,93.58996022379752L173.4751,98.52128340260211L174.06550000000001,103.7321007844825L174.20489999999998,108.91991162578937L175.3324,107.46417693613435L175.5087,111.26763457608057L175.7916,109.97142304549145L177.08720000000002,112.62098738448236L177.3127,112.92008892240993L177.3742,110.64113457725941L177.7965,108.61077700659911L178.0999,92.64541314151839L178.1655,97.17477980713613L178.2106,102.41994488396655L178.35,101.24610834945453L178.678,101.96097528192347L178.9281,100.57784437048402L178.9322,107.60226780136026L179.17000000000002,109.84559446973466L179.252,108.00981632138209L179.42829999999998,108.97572753171292L179.74400000000003,105.97339137108949L180.32209999999998,102.22257075365141L180.4164,92.734958978266L180.4205,94.68538812036877L180.9781,99.52203508905255L181.3717,100.96656838954243L181.61360000000002,100.69308698143564L181.6587,103.30373061763514L182.8231,107.75082013414577L183.2782,113.27735541795704L183.393,118.68685209128867L183.6021,117.45811172537503L183.99980000000002,124.67248877934632L184.12689999999998,124.98931881682641L184.1474,125.44752994085816L184.2171,133.94506899600094L184.582,133.62588870159064L185.41840000000002,137.09388308240636L185.71359999999999,139.6479740991506L186.1441,124.91053794503632L186.5008,128.12871955791886L186.55,126.93097356469428L186.6812,119.11813281086027L186.79600000000002,124.46369075954227L187.1527,124.75471659860591L187.1937,124.75334420460202L187.21830000000003,122.13119831741862L187.23469999999998,123.8262974093854L187.3618,127.64605969982965L187.36999999999998,127.8678569459774L187.4274,126.07721198886176L187.452,134.10763828635675L187.7513,134.17949538163953L188.76399999999998,139.3031442742555L189.1248,132.99454973800718L189.23139999999998,136.66753141756192L189.6004,138.96275665883323L189.7111,131.24388776362605L189.9981,124.88774877950758L190.2769,123.8637931025466L190.6131,117.80284975432524L190.8099,116.64967136905544L190.8755,116.00643386736174L191.0969,117.3231188877072L191.7652,120.67800938453213L191.798,116.72646115846051L192.06040000000002,116.30937131042946L192.17110000000002,115.80031858693027L192.7246,120.50740126702625L192.7533,124.29407342915074L192.8271,122.81530772548722L193.2494,129.50517907160986L193.3478,124.6061070031083L193.3888,126.64813909612853L193.4462,122.18126543846178L193.7004,125.31060504691979L194.0899,124.74854445793873L194.545,109.11261956643642L194.6188,109.95619647026624L194.65980000000002,110.80235922420616L194.7459,110.75509057948578L195.19279999999998,109.7445356246699L195.47979999999998,104.8602548620383L195.88160000000002,108.83083246134949L196.5171,112.7500251009588L196.6524,114.82941597211415L196.72209999999998,100.84667243725492L196.882,97.77195600907793L197.9398,95.05579957464487L198.74339999999998,93.49302426384244L198.9238,95.91400399729949L199.06730000000002,98.66825301801045L199.1903,101.20107082140308L199.2887,97.44610127643061L199.41989999999998,97.88402529397365L199.7151,101.61634387719644L199.82580000000002,107.16421149626262L199.8422,111.36098157376823L199.9037,111.31465669981992L200.0103,115.79302605800997L200.10049999999998,114.47256904322109L200.8016,112.17502865677308L200.818,114.18103259808386L200.8713,102.44518151487907L201.19930000000002,99.49866883085679L201.2157,99.81427624339896L201.3633,105.6024671390952L201.72,111.00517030609606L201.74869999999999,117.46667499427997L201.9291,114.17739865658216L202.1464,121.94467670870291L202.3063,122.24866292876891L202.5564,119.76853527527751L202.95409999999998,117.85980420722092L203.1099,120.9132824576817L203.29850000000002,120.94447270758253L203.30259999999998,118.62213946160176L203.5445,119.0526032500885L203.88889999999998,123.13818296599301L203.9873,113.98978945441306L204.18820000000002,111.73561835413514L204.2456,116.86976659998578L204.85240000000002,111.95689256388094L204.97539999999998,111.36278195780841L205.2173,111.57798613675044L205.4264,100.62708733580438L206.27100000000002,101.38636413749819L206.3079,105.68871839347003L206.5252,107.93309598521228L207.0787,112.515340917519L207.22629999999998,115.58816745136882L207.6486,114.38470497014924L207.6978,117.73904526798569L208.16109999999998,111.62743945444343L208.4399,112.22523806779597L208.5834,115.89229016434297L209.1984,122.119952535532L209.2353,126.65811735286334L209.346,123.2359642465252L209.469,124.05784317482801L209.60840000000002,128.03396248113543L209.79289999999997,129.36501221102634L209.82569999999998,128.20589080161741L209.94050000000001,124.2994023171541L210.4038,126.61387704828742L210.4694,126.09821271137668L210.7236,130.46112656859722L210.7933,130.52901441893206L211.1459,129.34493604273956L211.1828,130.08620923166185L211.9536,129.107916941316L212.1668,123.75912726979172L213.3476,122.2745635032438L213.4337,122.15741042270466L214.0118,119.79640976415483L214.1881,124.31985829692994L214.40540000000001,129.17409544487305L214.4341,134.34326233295778L214.51610000000002,130.25289041285936L214.6227,122.92953891433176L214.9917,113.09610158585248L215.2049,119.39701083479744L215.45090000000002,122.33413836644384L215.4796,122.67696995415992L215.5985,118.93529135865106L215.81580000000002,124.88742190886359L215.83219999999997,133.23409227951794L215.8855,135.79229797556033L215.9429,131.25365866677524L216.0413,127.3707268782967L216.0905,128.35851210993843L216.2217,121.77361015674401L216.2504,123.22843700587993L216.30780000000001,128.12869750308033L216.7711,132.2770231515698L216.81619999999998,131.20934794310548L216.8408,128.13613739893574L217.0089,115.52672626352324L217.0253,112.66988646816871L217.08270000000002,106.02972945562234L217.177,110.72151152100786L217.6116,110.63034848203344L217.7879,112.54101750431263L218.0421,100.35143704483215L218.10770000000002,109.64959890094441L218.2307,110.5309805735297L219.0261,107.27535526361098L219.2106,111.00618138666897L219.40740000000002,114.74295909444729L219.44019999999998,114.95892923172947L219.88299999999998,119.69395058940393L219.965,123.19934626187717L220.7604,125.09190279036231L221.3262,123.39305417293367L222.5152,119.29217279733449L222.73659999999998,115.27704969152225L222.8391,116.40461342473036L223.35569999999998,118.83187892567682L223.68779999999998,120.6407934954325L223.9379,126.76050473930582L224.01579999999998,132.26960198683295L224.2577,139.66768176212943L224.7333,144.19438484911947L225.0572,149.03536699136214L225.52460000000002,151.84733873042035L225.7296,146.84850970535288L225.8813,146.52244148251404L226.11090000000002,150.20433220950645L226.17649999999998,154.59911604032317L226.2995,157.77139836706303L226.59879999999998,154.2412640330142L227.06619999999998,156.53687650271667L227.42700000000002,136.73103506000916L227.7058,141.87761273129L228.07889999999998,140.17270201372799L228.0871,146.58441026499108L228.11169999999998,141.04214153583808L228.8579,140.46974229874252L229.51389999999998,140.96105899695183L229.66150000000002,139.39857911908868L230.13299999999998,142.70764245395168L230.14939999999999,140.3016695163514L230.5307,146.54122471164555L230.7562,136.7915972596509L231.00220000000002,139.8064331881879L231.39170000000001,140.70569030287245L232.2281,142.08923528940738L232.675,141.98455930840228L232.8554,142.76358646725822L232.8718,148.91667515955987L232.90460000000002,151.10093624955206L233.5114,147.5157401465816L233.7041,152.25744528351777L233.9747,160.41536666066062L233.9829,158.85967063431363L234.67170000000002,160.08511509241436L234.8972,153.34968888503752L235.012,160.90024299060957L235.1473,165.96778752017602L235.2457,159.0568782460119L235.2867,156.4397267224407L235.79100000000003,150.95517824672447L235.8648,144.5197162854182L236.17229999999998,146.11811425317802L236.3281,150.1887204273995L236.49620000000002,140.01074324376364L236.91029999999998,139.77167599570546L236.98819999999998,140.51693803790073L237.4146,140.79071211683052L237.5499,136.2437945273037L237.81230000000002,137.96905051568285L237.8533,137.72515454259403L238.17720000000003,135.36389269027237L238.2387,134.72541061057564L238.3904,140.28417453293002L239.44410000000002,128.9661822186577L239.47689999999997,125.62210570579556L239.7188,130.7785877624445L239.77620000000002,129.255249966015L240.45680000000002,133.67388849053359L240.6946,138.54425190563745L240.7233,144.23762845197885L240.7397,148.19651584574044L240.7561,146.48182612065008L241.1784,145.98492718804587L241.33419999999998,150.2095774358967L241.46949999999998,147.4111886766125L241.51459999999997,142.66756179710305L241.9943,133.11503890051895L242.1952,130.15357664391448L242.2567,136.15798338445347L242.3428,138.6254665156288L242.4043,144.44761946461978L242.6503,140.51856464010453L242.8881,144.30164215076687L243.40879999999999,144.40513192431027L243.8106,144.13923247897273L244.3149,119.64685793322468L244.4625,120.74993733252361L244.5527,125.72968709560621L244.73309999999998,127.5978520551802L244.78640000000001,132.98918995036934L244.8479,135.60698648635767L245.2087,138.5331703120971L245.4383,144.90026899966182L245.7417,139.27926831459166L245.9262,141.26271352239002L246.7913,141.30314353620386L247.2259,146.7984280095232L247.23819999999998,147.61047009395654L247.3448,148.60505456875475L247.4719,151.54789657802547L248.20579999999998,148.34428352309016L248.2263,150.3540580464317L248.25910000000002,148.59919393568393L248.9233,154.7496232229189L249.14059999999998,153.0150871678324L249.2595,149.64195827480992L249.567,147.81616541949091L249.9483,145.82983950578594L249.9606,147.20243107131915L250.4731,140.0258326543802L251.3464,142.0809257194599L251.4817,144.5489848063737L251.6539,149.87099544927108L251.7851,149.4731655685388L251.87120000000002,147.10429563565788L252.12949999999998,149.50211915088929L252.1787,143.95449983139358L252.2361,148.09056317604583L252.2648,142.51109773896363L252.273,140.0328323102156L252.5928,142.71728825734598L253.3267,147.27110886940596L253.462,153.2416627205939L253.60959999999997,155.12496747922756L253.7408,156.76251314576504L254.19590000000002,168.01236848826557L254.3476,152.30291292126566L255.1717,153.74589394568073L255.27009999999999,153.21942310308816L255.42589999999998,154.63445401582322L255.4505,154.4689094257429L255.54070000000002,154.8900785358716L255.8318,159.1906764885469L256.1229,163.81532463939976L256.1844,167.81000853436612L256.3238,165.9392581716376L256.5575,162.07716149221093L257.0126,163.00124254482645L257.1684,165.4695019385642L257.316,160.84412922069342L257.767,162.04912233501602L258.669,161.8576857584372L259.5095,158.80811736332186L259.7186,147.2321783565065L260.104,144.98280504217627L260.5796,154.91710612284908L260.8051,159.02050485239363L260.92810000000003,154.28259015594148L260.9445,157.59861246858043L261.1167,158.73257626097313L261.2479,163.5202234112927L261.35859999999997,166.92416193534788L261.42830000000004,162.8502544058307L261.4898,164.03479204770196L261.5308,160.83887971009133L261.8752,162.1824741738034L262.4574,161.9382039450312L262.523,166.24724683889656L262.5353,172.2236933544112L262.5476,154.65300070618986L262.6378,143.88821659257857L263.1093,145.88454335652696L263.48240000000004,150.5239341841002L263.6751,144.99437498359924L263.8719,146.79519146819212L264.1712,144.21211507909172L264.7616,149.48726808519484L264.9584,148.48674360880662L265.024,150.38353247592948L265.147,152.07887509896986L265.3479,148.1165959783481L265.40119999999996,138.92523357570937L265.4217,139.44254627902075L265.4791,141.8105465448102L265.7538,143.32042014424727L265.9342,138.60209674911113L266.0449,134.2308738089376L266.5123,136.27124881516946" style="fill: none;" fill="none"></path></g></g></g></g><g opacity="0.2"><g><g><g><path stroke="rgb(255, 112, 67)" stroke-width="2px" d="M21.184700000000003,-5.2038768969901374L21.4389,36.06674223909574L21.4594,40.30606458691566L21.545499999999997,-4.8916774104300185L21.6193,1.8284054353208132L21.7628,38.289262617258416L21.771,33.40779646327894L21.8038,26.22041081278347L22.4434,14.556864778414814L22.6976,54.45140299067238L22.8739,66.609673242443L22.9026,46.45996592917005L23.0994,81.1687892115931L23.1527,60.92178155267952L23.4274,-13.322032192721062L23.4602,17.62538676271322L23.7882,21.982506566599024L23.8128,36.23021572434268L23.927599999999998,20.846355537378198L24.4811,-25.191944112489146L24.657400000000003,11.724560242694482L24.870600000000003,2.703465281243478L25.0264,77.31535036152432L25.338,29.53845640705261L25.6701,31.713746409591934L25.895599999999998,-3.809755110254509L25.9079,5.16860494898692L25.965300000000003,31.616055819059135L25.9817,1.3284731400677976L26.178500000000003,45.953822832566686L26.207199999999997,1.1632033222882971L26.3876,23.054171516143274L26.5106,41.18326548075199L26.8632,67.71140884512619L26.9944,16.507747317277502L27.4331,7.314626376223009L27.609399999999997,40.24652727896644L27.6217,-0.792433738009819L28.060399999999998,2.16827150945259L28.195700000000002,3.6791232416975914L28.3597,96.46367231374523L28.4827,39.18373115585078L28.8476,51.71033613878344L29.0936,76.79025442895455L29.4667,47.85200267653708L29.5159,74.72871101203108L29.647100000000002,28.753632184939413L29.774199999999997,67.07973479743924L29.9587,23.724060126912175L30.294900000000002,-11.2796314562266L30.487599999999997,66.37684534361077L30.5573,2.46444136527005L30.5655,27.453760198279262L30.586,26.227979273600525L30.6885,2.8376038751131922L30.692600000000002,5.0302269280228895L30.7418,28.187396486389297L30.7623,44.201557233074205L30.8812,96.87326437707077L31.5085,37.180990147425504L31.733999999999998,19.470517982038594L32.6647,56.64754649308872L32.9558,101.51892161085723L32.9681,128.76331906604656L33.460100000000004,37.18246937040558L33.743,40.34364354773531L33.8086,17.56236268443883L33.8127,23.54866073691318L34.0505,50.9766690138058L34.768,72.21661203496969L35.333800000000004,29.986638943834098L35.342,28.213465467267348L35.547000000000004,71.8642472059527L35.838100000000004,19.05685483990377L36.1374,69.64145502737513L36.1661,22.958950766737075L36.604800000000004,36.70619703564644L36.7196,49.21331943546613L37.047599999999996,50.33995803323536L37.3018,29.329142925199964L37.7036,33.8977704486343L37.8512,86.5144252635432L38.1997,69.64560658291327L38.54,40.8003345538949L38.9172,52.117572805327306L38.986900000000006,52.91438786579984L39.073,41.18280792912454L39.6224,29.070680814994294L39.6388,69.36047451304198L39.6716,45.43108586431704L40.1308,36.61222567334877L40.188199999999995,0.9471854634845334L40.344,5.065148403785686L40.5654,55.36134895936764L40.8811,-96.37430147058149L41.205,88.88349385357058L41.2132,47.96037518713987L41.434599999999996,11.921562390768013L41.5494,82.9355872281061L42.414500000000004,69.29718014472395L42.4719,76.17899483284421L42.722,65.07375409589055L43.2509,41.532592677269164L43.7839,37.302521283471904L43.9643,-4.379029022200748L44.3128,51.033961687478374L44.5424,4.942086939461017L44.5711,58.292372440314594L44.7187,64.688438130555L45.059,76.38311997670006L45.637100000000004,15.81078251319748L45.92,23.6886553701348L45.9979,20.443052925140613L46.2849,80.52578139112278L46.3792,55.45227286034137L46.641600000000004,67.5482475996984L47.232,60.28728521099593L47.4534,112.59094415900667L47.5723,53.44975038918874L47.9536,52.2229100129225L47.9659,12.84709581887647L48.015100000000004,31.404922046400436L48.601400000000005,53.366533850203155L49.0606,40.70989360483265L49.1672,57.93174811039489L49.6674,33.390348177757005L49.8355,76.10087472197364L50.4751,78.13090219878029L50.7662,59.76517023625773L51.045,58.0238443018164L51.086,50.727954360906764L51.0983,32.43375779832736L51.159800000000004,31.934904615403017L51.2951,69.81202033661815L52.0413,72.39465700943447L52.4308,62.364892226787354L52.4718,71.80219166966641L52.6153,10.476126551461368L53.2631,35.24893932226178L53.5706,27.456910293096183L54.038,73.6533493117178L54.2061,58.66910353512944L54.7883,31.312848943100082L54.8088,47.16778095763742L54.8457,105.56695719798788L55.227,89.46652882671971L55.3418,23.22029911232816L55.3828,113.66455567858118L55.7641,45.09446379180356L55.9035,21.843895238946693L56.1495,150.4287866954477L56.8998,29.775530828487348L57.0187,70.15869845112606L57.104800000000004,74.5390346997549L57.1335,71.12290565594577L57.3713,76.5819610598824L57.6255,77.95840657899267L58.466,84.39286728873769L58.6956,15.567992097786561L58.826800000000006,17.687710260449528L59.1835,-1.780124122946913L59.318799999999996,34.7203510759637L59.6714,19.972713953720334L59.7247,84.72445071588095L60.0937,71.458115575559L60.188,26.442318214196927L60.261799999999994,71.44551213347256L60.8563,67.4787187819065L61.1187,91.79343531412245L61.7378,221.29179634812235L61.8444,93.83377775980682L62.631600000000006,55.23520263988234L62.6603,43.81697648340186L63.1359,95.31418789646041L63.463899999999995,65.60472389654171L63.64019999999999,31.272311299974298L63.9887,58.403600904475205L64.1158,36.18404633333226L64.1814,58.793097668881664L64.4151,59.84320822372374L64.6037,56.92447981395717L64.6078,51.80167608497078L64.698,71.95054941977091L64.9481,95.68532145167526L64.985,63.22558669107086L65.1982,20.194252175997214L65.2105,58.67002279627976L65.3663,55.30655453802687L65.4606,97.75445518930839L65.4852,58.196618678471836L65.4934,105.44615866685962L65.682,68.18874867751937L66.0182,64.899937398174L66.0961,55.803038716061L66.133,76.41845338472596L66.4118,58.774284670124025L66.42,43.84660000066928L66.666,102.01835993589964L67.3179,65.77115130658467L67.5352,68.80096592566748L67.6172,58.72367388859357L67.7443,56.20338537627971L67.7812,216.59655823122736L67.9206,57.66284316066659L68.2568,69.28058663791838L68.4085,53.817983942949766L68.7119,111.0288055453868L69.1793,147.1555937763828L69.5729,139.6505995838251L69.5934,41.977636199499344L69.741,53.96077695719954L69.8681,70.96639654723128L70.2658,55.86922358444408L70.3724,68.05770234781409L70.45439999999999,55.85283661845281L70.889,4.694265153957154L71.3605,61.91755183830038L71.5778,95.72379094182065L72.4511,97.33838763303135L73.2957,43.74416678878907L73.54990000000001,89.93753512433771L73.8697,104.67234540483125L73.9394,82.77745625029708L74.0501,62.329970370387024L74.1362,-16.01528966332576L74.18539999999999,145.1340821423559L74.2469,96.98083354581726L74.77990000000001,53.46939949286593L75.4482,24.30243250155494L75.4646,60.46964241874617L75.8664,100.61675868057297L76.0386,13.448821904840724L76.2477,93.94598175270896L76.342,118.42542889177138L76.5839,40.49916745711995L77.12100000000001,109.24650927588135L77.42439999999999,39.04749720616452L78.228,56.455673406060676L78.8061,102.77200092194589L79.0767,42.4264339847407L79.1054,102.82068955520391L79.212,81.75038934441916L79.28580000000001,63.5794563830691L79.52770000000001,135.2479837543577L79.73270000000001,91.73269856015337L80.49119999999999,69.05271355468385L80.5158,97.92920341799203L80.6388,40.55684191403491L80.6757,67.40696951347277L80.71669999999999,74.14091154626448L81.09389999999999,38.41881832834448L81.1308,111.40366240114025L81.2169,83.38829659268167L81.4793,92.85863214703504L81.5572,57.308833589508104L82.369,124.03428545517227L82.73800000000001,112.81470628891552L83.09060000000001,88.05099577040431L83.32839999999999,110.77981221607543L83.93929999999999,79.86264968377017L83.94749999999999,82.83813830222297L84.0787,85.49915011562068L84.2058,59.241426040797506L85.03399999999999,50.73337308987934L85.13239999999999,49.26256353027399L85.16929999999999,74.50939147678321L85.3948,115.3869742462098L86.0713,125.22780910126727L86.4895,111.6170093828076L86.5756,73.94511001717416L87.1209,126.9916545870343L87.4161,70.16055657706943L87.5063,66.38237717675729L87.57600000000001,82.07768694370348L87.7646,65.87028692959777L88.1705,153.50037767155453L88.9577,56.13680043251329L89.41279999999999,75.4049544466331L89.4169,64.14184655695317L89.61370000000001,81.15012529183761L89.7859,78.32793901938459L90.47059999999999,105.70161690764974L90.59769999999999,77.70335640778467L90.7371,55.59009762015728L91.17989999999999,73.06502224507834L91.31519999999999,36.16333414817261L91.39720000000001,54.98919690794311L91.4956,66.92312062094952L91.4997,218.77749080477537L91.512,99.46352632893695L91.5899,75.84976218256878L91.8605,68.75142875797287L92.0204,90.4680884626619L92.0614,76.28673071636607L92.4263,123.46324407607766L92.48370000000001,81.83420705992934L92.6026,105.69814259367772L92.6354,76.39927645066554L92.7543,101.21740521913983L93.1602,103.96714448872207L94.10730000000001,130.5965175151517L94.2221,97.38490675774409L94.3738,59.69651380709242L94.51729999999999,98.55709749544341L94.5665,17.184890502838133L94.8289,78.53783500956558L95.3824,66.45273603952998L95.60379999999999,33.39673796596782L96.1491,104.43798891520757L96.15320000000001,138.60030703924846L96.72720000000001,102.13343136163247L97.22330000000001,111.49493024687266L97.252,93.40799322592203L97.7645,86.4091086527196L98.2278,38.47249773167378L98.42049999999999,88.69308020589081L98.5968,56.930597742547995L98.8756,173.64102675653L99.0929,74.61927921939103L99.5111,62.126280355467046L100.55250000000001,129.3437243938317L100.5771,106.49261384116606L101.024,84.47989217484823L101.0814,88.43994083331415L101.3971,81.35490928071385L101.4217,97.07190464921295L101.7743,105.71840983939997L101.86859999999999,126.03615896317946L102.15559999999999,20.33272519109041L102.2458,60.47351143996398L102.3811,102.29997704656459L102.4795,80.2101536577331L102.6435,61.26566432466311L102.7173,39.25996679142624L102.7419,106.91185914218903L102.7542,116.25999617147001L103.0658,84.89288338125019L103.06989999999999,56.72079919275215L103.2626,127.18010085864015L103.3897,61.357568402173534L103.5004,96.72477577712883L103.51270000000001,118.06395638030291L103.5332,106.35513173333247L103.8243,51.31948847582893L103.8694,84.39497525666754L104.0703,131.0248520545401L104.304,107.28826620342352L104.48849999999999,122.19371106915472L104.6566,90.64502297089413L104.7099,124.44043243626868L104.71400000000001,121.22095109469713L104.80420000000001,69.40241865229608L104.8698,85.68817095849523L105.3249,105.42618422324394L105.411,148.93014462214745L105.6939,69.76773601984517L105.7062,119.20289781051166L105.7103,77.96057927993023L105.90710000000001,65.10466411738187L106.00550000000001,64.18811238517108L106.5467,100.5056746454236L106.928,71.71329545193294L107.19040000000001,72.03631050055006L107.45689999999999,144.95582708756976L107.55120000000001,74.66317107065869L107.8956,83.31153615908873L107.90790000000001,68.7545545566428L107.9284,72.74370422758291L108.20309999999999,49.809781863607114L108.27690000000001,73.44554449217792L108.5844,63.77534767334632L108.74430000000001,112.84764799221306L109.3921,123.08531100880408L109.56840000000001,85.63025601426664L109.8595,78.5364984282094L109.9661,81.4625111428985L110.0522,18.088070438052252L110.07679999999999,43.64572741039189L110.7246,70.69847953171153L111.70450000000001,43.789665727575795L111.7578,79.7327036508419L111.8972,49.06058198780307L112.053,90.53305498355961L112.1678,62.8414941300547L112.6352,172.47069895644694L112.7787,45.69824334935568L112.93039999999999,113.71969993958939L113.3035,63.61027951469082L113.8365,74.62097018638218L114.14399999999999,108.58394789270903L114.513,138.9430369957794L114.5253,119.46267325975059L115.1444,112.0901328322833L115.36580000000001,46.32318643222476L115.40679999999999,81.65917968149873L115.5462,122.46446322937275L115.5872,41.99238640519024L115.6938,95.3547695653767L115.87830000000001,155.1242865904771L115.9726,114.57956557633574L116.2801,89.91061515668034L116.35799999999999,93.71064831181114L116.5507,62.617560851868994L117.014,111.07947568628272L117.2149,78.82793858941255L117.54700000000001,88.69452869891487L117.5921,39.25407101608977L117.6741,114.86863364681605L117.9734,118.00502176477849L118.2071,92.7662100850882L118.6458,106.44751219113202L119.2239,126.05928560447008L119.3838,76.29338186690187L119.5027,35.16611550228799L119.8594,92.38060599258715L120.05619999999999,111.05993318273768L120.06439999999999,117.86454393511579L120.2202,67.13062391229916L120.3145,79.41257599095358L120.60560000000001,133.69641455487724L121.1837,126.1444619405905L121.4461,89.32008554022823L121.8479,70.0607398926847L121.8807,86.50388566160721L122.5941,99.54466221913856L122.7294,64.72817766224127L123.0328,88.48601887810301L123.1927,114.19594345944715L123.5453,112.51422552507273L123.9471,92.91254847284857L124.0004,116.68561474987585L124.0373,54.142402065443186L124.3612,134.71827589116145L124.6031,93.41212376795563L125.0705,77.58187233199801L125.132,95.94415211605691L125.4559,64.91785499357192L125.8126,124.45130844249927L126.32919999999999,72.48314204097414L126.47269999999999,74.54877828839409L126.7761,95.34394921510813L127.28450000000001,79.05309735598766L127.3706,188.4119222040127L127.4731,122.01416596082822L127.7355,61.530912314377595L127.7929,80.88718910890363L128.2972,166.76580796064565L128.3423,125.33750185382505L128.7523,46.224387329530124L129.027,83.3375861917122L129.84699999999998,90.60495312613429L130.3677,113.78734468705771L130.3718,101.98580042212555L130.4907,92.31666078232772L130.4989,130.30088425217392L130.9048,88.15757548101917L131.7822,86.13701452872473L131.8068,82.20007989147685L131.8314,35.022125245922126L131.8478,72.0731985274435L131.8519,103.66243808465279L132.3234,115.97434453322734L133.2705,90.27367168354695L133.6723,92.73374051528374L133.7133,97.26837930921026L133.74200000000002,113.6949211092779L133.8158,89.15851581995743L134.22990000000001,95.92135275079552L134.5825,24.442378973372353L134.9556,122.73952545261542L134.9638,77.51185299015665L135.095,31.310342290628064L135.1688,136.08822453741345L136.3291,83.02649287731285L136.4357,124.14774695389556L136.6161,54.903398030184114L137.0958,110.76189927441504L137.1491,113.08483703727005L137.5263,79.36346950135963L137.64520000000002,90.50889303028099L137.80509999999998,118.82156607742006L139.277,136.9308681448429L139.3836,74.16976847791317L139.47379999999998,90.9916093271976L139.5517,129.211070468238L139.6542,132.4117461812967L139.7198,74.37344410266242L139.769,112.41679961742199L140.2241,86.30011898862112L140.4783,104.24296005742187L141.3311,139.61206134664198L141.35979999999998,82.67776280240281L141.3967,104.13081301320258L141.6017,109.27506797772338L141.614,94.47195963604995L141.7001,81.10906898237636L141.8272,131.11981604700821L141.9051,120.37905712430405L142.46269999999998,130.70368801473012L142.79479999999998,71.134408350873L142.7989,106.83811479791197L142.9383,71.76049604186771L143.5,95.86880589199265L143.5205,92.70121156223479L143.6271,84.89506880961821L143.8157,92.3615741126809L143.8772,82.61567841607626L144.2134,154.14401331279294L144.3897,19.386193066318693L144.4963,108.12984665383084L144.6644,100.1288011888004L144.8407,199.56590944008767L145.3819,88.39715210093966L145.427,99.57845389079644L145.8452,86.59613741672487L146.0092,92.13867410096691L146.3946,37.072293888460905L146.452,86.61321916768907L146.5258,107.04414790514345L147.8132,130.8763549757386L148.0305,107.63753205538205L149.2646,164.58067584125462L149.4163,160.24967224521924L150.4536,123.63781871028225L150.56019999999998,143.38836023096712L150.9128,147.6693703728245L151.17929999999998,137.60750934597124L151.20799999999997,90.85263696249697L151.24079999999998,100.04631726425693L151.4376,137.92309917669303L151.4745,146.20736985517576L151.7164,74.10626374021761L151.7697,66.30584352552349L152.41340000000002,116.38737014556841L152.5487,143.28247791686908L152.7209,166.39717584329065L153.48350000000002,115.75947680325545L153.8689,124.51273419596217L153.9222,103.74106959731668L154.2051,140.77182062725166L154.39370000000002,122.31954091834176L154.59459999999999,72.0721329052854L154.8242,71.59794602679663L155.3654,126.92251196395779L155.3982,136.2212137008131L155.8082,56.10372014566197L155.8574,137.00809486103765L155.9394,132.91455737053008L156.4232,149.14558018581172L156.53390000000002,140.34291021293745L156.5421,67.24249001737253L156.9111,60.03530263500439L157.1981,123.84598674324963L157.3088,109.09678434772758L157.3375,97.27437017198272L157.4523,81.1397272621319L158.0099,145.83451747226763L158.3871,106.56222267029123L158.78480000000002,65.98172862852688L158.8217,65.16306544994129L158.8709,210.13503070768436L158.9488,110.61956649017442L159.0185,136.89819002141672L159.2399,110.40402149514921L159.2891,70.11157783049548L159.39159999999998,111.17186688349133L159.5433,147.8899389611995L159.9697,81.68614065496149L160.0476,99.51653251827932L160.0763,139.47900454490744L160.2649,130.66353118932201L160.4781,115.44272362080571L160.49040000000002,95.90806479556198L160.63389999999998,110.89775434584037L161.3801,120.42768124238387L161.38420000000002,74.69371924473288L161.4703,142.01217751823745L161.6958,137.20300829175622L162.05249999999998,140.8190817139112L162.0566,118.21520082576733L162.2124,145.98420135964426L162.3559,186.71799950313954L162.39280000000002,49.622861750778405L163.1103,86.21114997017074L163.4998,70.06832969593592L164.3239,107.14872924741718L164.4715,144.18370623868972L164.7257,90.48545768191212L165.04139999999998,98.09573709971806L165.3653,125.30064539383649L165.4514,157.87666114228122L165.4842,146.63820935677833L165.5375,145.87531356376743L165.5457,129.09860673758394L165.9721,67.7472463974639L165.9803,119.25341106364523L166.33700000000002,92.9274656891792L166.3493,79.91944453765974L167.1611,58.45251946014615L167.1898,117.37449748578925L167.4604,149.44967792455452L167.48090000000002,59.559482283474615L167.90730000000002,149.26112668604964L167.977,107.78476226298517L168.2517,134.32912073838435L168.3337,148.52165798502097L168.7724,118.33598811112692L169.0471,139.78367335429382L169.1086,130.4407804293437L169.1742,108.68919066301753L169.2275,131.91724204658033L169.371,-49.39936490001225L169.47760000000002,166.87796443074276L170.4329,141.37765711704364L170.6789,204.2456377275151L170.80190000000002,167.4949781244329L170.87980000000002,126.69809548947921L171.2447,91.80227598896987L171.40460000000002,119.66053074109905L171.42100000000002,72.1391858873817L171.4579,120.87518491807562L171.585,178.17246958765674L171.81869999999998,13.113818312076281L172.4173,63.91917968865195L172.8929,122.28846767250215L173.0282,136.64889784120007L173.4751,145.81783365820237L174.06550000000001,154.77358878611207L174.20489999999998,159.64653011288954L175.3324,97.64802944627591L175.5087,145.00128933421604L175.7916,101.1710027337569L177.08720000000002,134.5116977563925L177.3127,115.10342278762624L177.3742,95.79100737015908L177.7965,95.24549822647359L178.0999,23.715380455179343L178.1655,139.37196349565548L178.2106,153.93379873811412L178.35,93.23425539544438L178.678,107.28604199013863L178.9281,91.22228910106946L178.9322,188.2824707443325L179.17000000000002,127.9553151053521L179.252,95.8276553045852L179.42829999999998,116.26163959675304L179.74400000000003,86.96364705577338L180.32209999999998,79.14161493267792L180.4164,44.33119876974623L180.4205,110.17755976881739L180.9781,145.58823371686037L181.3717,112.1341211280094L181.61360000000002,98.74980012815682L181.6587,124.82423652335902L182.8231,148.9427447489561L183.2782,168.76750862968257L183.393,172.49939733355396L183.6021,109.09144759468619L183.99980000000002,209.17446947543448L184.12689999999998,127.30403399076695L184.1474,128.81809197472987L184.2171,250.19642770830552L184.582,131.36264125238142L185.41840000000002,167.19911358812305L185.71359999999999,160.63364058537348L186.1441,59.41074259332088L186.5008,155.6352915760172L186.55,118.76440301082164L186.6812,77.21877742478235L186.79600000000002,177.37412580231847L187.1527,126.87827790939278L187.1937,124.74346810404403L187.21830000000003,105.27859415806422L187.23469999999998,137.10588018914305L187.3618,161.5603363514296L187.36999999999998,129.48091912398948L187.4274,114.17216643104582L187.452,237.36978205652818L187.7513,134.69838368300685L188.76399999999998,189.15802614892763L189.1248,97.50160681369145L189.23139999999998,168.97028764763934L189.6004,157.5455191778509L189.7111,89.72813999064019L189.9981,89.18319894728906L190.2769,116.82909486866384L190.6131,83.42240071275228L190.8099,108.77175236248416L190.8755,111.51201912442615L191.0969,127.43469281472126L191.7652,149.59616572129076L191.798,92.59096067949235L192.06040000000002,113.3650933160203L192.17110000000002,112.22186637548735L192.7246,164.91960336990098L192.7533,157.84220463996874L192.8271,112.85363963858266L193.2494,203.85470850413122L193.3478,95.68854234349244L193.3888,142.94959672639771L193.4462,95.40609037446417L193.7004,151.91309681398153L194.0899,120.80693544352417L194.545,41.085034928151565L194.6188,116.28037475235521L194.65980000000002,117.1467430694811L194.7459,110.41566449401485L195.19279999999998,102.79782159011665L195.47979999999998,76.01497412016448L195.88160000000002,144.43543216749492L196.5171,147.77469279146L196.6524,131.46334085274705L196.72209999999998,37.549232234098184L196.882,78.35855826211174L197.9398,77.6639300449844L198.74339999999998,83.00291565033802L198.9238,115.65492148354453L199.06730000000002,121.56339519087193L199.1903,121.98648327189697L199.2887,74.34319440779241L199.41989999999998,101.10218836525736L199.7151,134.56666090656964L199.82580000000002,162.96388976351585L199.8422,149.56944471394962L199.9037,110.98199293380314L200.0103,157.36565177083673L200.10049999999998,105.51688693930159L200.8016,97.21506536510022L200.818,130.16319416894422L200.8713,46.1793436493776L201.19930000000002,80.80175396639278L201.2157,102.11992365002672L201.3633,164.97265805142064L201.72,164.72139054097784L201.74869999999999,187.75721815583717L201.9291,93.58022491865945L202.1464,218.68617759109748L202.3063,124.46817350265067L202.5564,103.7380689506833L202.95409999999998,105.23186973230992L203.1099,146.75185257621183L203.29850000000002,121.16926969509244L203.30259999999998,103.51591149834509L203.5445,122.21480003286533L203.88889999999998,160.0560990349691L203.9873,66.85505038996884L204.18820000000002,97.03220214827024L204.2456,166.86665962663318L204.85240000000002,82.97194380535252L204.97539999999998,107.20243581189686L205.2173,113.14260677916482L205.4264,47.0038201239859L206.27100000000002,107.05470523127808L206.3079,145.14214129842722L206.5252,126.05236733260803L207.0787,155.36526412593597L207.22629999999998,141.62087679542967L207.6486,106.1811900166716L207.6978,146.65147005444234L208.16109999999998,77.01799057928467L208.4399,116.65264954973321L208.5834,148.13062257209148L209.1984,188.4513167328041L209.2353,168.9635416807512L209.346,101.91508761517947L209.469,130.21268338215881L209.60840000000002,163.7013574105501L209.79289999999997,139.594521175136L209.82569999999998,120.28941678882823L209.94050000000001,100.39931081973505L210.4038,145.37281956996137L210.4694,122.47436969361054L210.7236,170.63740682908906L210.7933,131.01914850798892L211.1459,121.26676956579715L211.1828,135.6152041601518L211.9536,122.37344789187017L212.1668,92.67763247689086L213.3476,112.27630482593025L213.4337,121.31890005196233L214.0118,104.46263557146794L214.1881,166.44431482425236L214.40540000000001,175.4674759658154L214.4341,184.81560952853255L214.51610000000002,105.39684643696027L214.6227,83.05173282812271L214.9917,63.422285071923056L215.2049,186.9481723976807L215.45090000000002,147.01517040707398L215.4796,125.18478284775284L215.5985,95.90272711668638L215.81580000000002,186.7858485940175L215.83219999999997,245.06738637226877L215.8855,156.81675647775225L215.9429,104.11834101198194L216.0413,103.59400619892203L216.0905,135.8176532366225L216.2217,85.05960496759877L216.2504,134.48163689833854L216.30780000000001,175.01951411404704L216.7711,169.92065864375502L216.81619999999998,123.88831229496418L216.8408,108.73111533563525L217.0089,56.43767203846517L217.0253,94.47827205671395L217.08270000000002,69.07403625204633L217.177,154.9406025452862L217.6116,109.97706779747848L217.7879,127.68450454484493L218.0421,42.60429219436025L218.10770000000002,254.21732047619554L218.2307,117.15108805903745L219.0261,86.86259180448026L219.2106,143.94014629003652L219.40740000000002,147.7421524121544L219.44019999999998,116.52917606550265L219.88299999999998,164.45996477672324L219.965,153.70104220496984L220.7604,140.07706181806415L221.3262,112.05480947645562L222.5152,94.38186902723176L222.73659999999998,90.81069234212337L222.8391,124.97995167523139L223.35569999999998,138.63113563816466L223.68779999999998,134.89893318239004L223.9379,191.3264741814912L225.0572,195.1574963996486L225.52460000000002,175.30182829839165L225.7296,117.44531639070425L225.8813,144.21108430913503L226.11090000000002,182.60398134640937L226.2995,184.8096024208723L226.59879999999998,132.33746763580623L227.06619999999998,175.1231792243093L227.42700000000002,58.13665424864096L227.7058,192.04294396183025L228.07889999999998,128.79689438908434L228.0871,216.01576479278978L228.11169999999998,109.04928243697623L228.8579,136.45750466369842L229.51389999999998,144.58096312834516L229.66150000000002,128.91032236446682L230.13299999999998,171.14981542667846L230.14939999999999,124.70411736839591L230.5307,213.06941763943922L230.7562,87.42342220978833L231.00220000000002,165.25868532330492L231.39170000000001,147.4661187127081L232.2281,152.75126000988118L232.675,141.2349166246549L232.8554,148.58508291953092L232.8718,214.0244505687089L232.90460000000002,168.6757307064334L233.5114,125.31646960902685L233.7041,197.10833199014678L233.9747,267.02868752153125L233.9829,148.41394956032L234.67170000000002,169.45174701664138L234.8972,115.97920694742925L235.012,252.62826312297653L235.1473,215.06799789553915L235.2457,120.92866200676367L235.2867,139.6158810998547L235.79100000000003,119.23299885415818L235.8648,108.46351584355365L236.17229999999998,158.57580958446638L236.3281,186.93441760221666L236.49620000000002,89.09460243083423L236.91029999999998,138.07022776368933L236.98819999999998,146.07678462940493L237.4146,142.786739449132L237.5499,109.06704832362149L237.81230000000002,151.50672396305836L237.8533,135.98972719953542L238.17720000000003,120.02858380822201L238.2387,130.2632692259707L238.3904,196.24240850034977L239.44410000000002,74.09415084297106L239.47689999999997,104.72560583836433L239.7188,181.07838933838661L239.77620000000002,119.01275089922942L240.45680000000002,174.52109579789692L240.6946,185.04646888922088L240.7397,183.66881040425054L240.7561,135.04546384509317L241.1784,142.48998520776536L241.33419999999998,188.74491211742665L241.46949999999998,129.5508057028127L241.51459999999997,114.51327174631534L241.9943,84.4710911258704L242.1952,111.37275613606383L242.2567,198.87927556421906L242.3428,158.79901554449046L242.4043,204.33519581147678L242.6503,116.50048353692304L242.8881,177.81009890055816L243.40879999999999,145.1535615211196L243.8106,142.24916062551046L244.3149,31.02019132151264L244.4625,129.12859253851815L244.5527,173.6628528683682L244.73309999999998,142.3703000425284L244.78640000000001,186.54451630238324L244.8479,157.1953990030098L245.2087,163.1061914885064L245.4383,213.5694591227439L245.7417,106.91883048273222L245.9262,157.04561051146055L246.7913,141.59466093562017L247.2259,201.8372513592846L247.23819999999998,153.68866234499873L247.3448,156.11812060496786L247.4719,176.28538725040514L248.20579999999998,128.21746084231415L248.2263,166.36957518366413L248.25910000000002,136.91457038612637L248.9233,219.814098134203L249.14059999999998,141.4559801187192L249.2595,128.58726176885L249.567,135.69522547554686L249.9483,132.73065918249569L249.9606,157.77401033648502L250.4731,100.7655990822986L251.3464,158.4984568114055L251.4817,164.72790700117912L251.6539,202.45170299430043L251.7851,146.6623748046944L251.87120000000002,131.72429800991813L252.12949999999998,169.02849208063452L252.1787,111.93660061139722L252.2361,185.5918563942509L252.2648,110.3443426947253L252.273,124.01320688339744L252.5928,164.9413610642931L253.3267,189.76950080951758L253.462,215.42914478302626L253.60959999999997,170.02937673732677L253.7408,169.55189300181158L254.19590000000002,572.9842042733926L254.3476,84.07279514044845L255.1717,164.90053918674795L255.27009999999999,149.5214482205615L255.42589999999998,165.55705358213902L255.4505,153.2867056714982L255.54070000000002,157.98260395036303L255.8318,198.62323218354226L256.1844,203.688125021042L256.3238,153.543071282308L256.5575,138.40973154724108L257.0126,169.95695994579086L257.1684,185.65029290762746L257.316,133.27592300935527L257.767,171.24975253426433L258.669,160.49222048067176L259.5095,139.53471674276068L259.7186,91.49632860312497L260.104,130.30782394712855L260.5796,331.4996635808487L260.8051,196.14384972511684L260.92810000000003,126.15650196525316L260.9445,186.1128817309971L261.1167,167.3594085782906L261.2479,208.9569167519442L261.35859999999997,196.35492777593998L261.42830000000004,138.07929630891064L261.4898,173.0697411284084L261.5308,140.75448649714676L261.8752,172.5151225389303L262.4574,160.20014364428016L262.523,205.7801891970903L262.5353,234.50384473824332L262.5476,81.50010958556906L262.6378,90.90699988876304L263.1093,161.78116295699957L263.48240000000004,194.08526130659286L263.6751,113.06102993865815L263.8719,160.9832996533791L264.1712,127.58477823827629L264.7616,201.41578478010436L264.9584,141.60595295569712L265.024,165.40565928684802L265.147,165.36053867054173L265.3479,123.92514468153925L265.40119999999996,91.62844809891526L265.4217,143.25881240829628L265.4791,161.06146269698803L265.7538,155.03323971664133L265.9342,110.57281694484264L266.0449,107.93849097410238L266.5123,152.55799211151538" style="fill: none;" fill="none"></path></g></g></g></g></g></g><g transform="translate(43, 178)" clip-path="url(#clip_1)"><clipPath id="clip_1"><rect width="287" height="22"></rect></clipPath><g><g><line x1="0" y1="0" x2="0" y2="5" style="visibility: inherit;" fill="rgb(0, 0, 0)" stroke="rgb(204, 204, 204)" stroke-width="1px"></line><line x1="20.5" y1="0" x2="20.5" y2="5" style="visibility: inherit;" fill="rgb(0, 0, 0)" stroke="rgb(204, 204, 204)" stroke-width="1px"></line><line x1="41" y1="0" x2="41" y2="5" style="visibility: inherit;" fill="rgb(0, 0, 0)" stroke="rgb(204, 204, 204)" stroke-width="1px"></line><line x1="61.5" y1="0" x2="61.5" y2="5" style="visibility: inherit;" fill="rgb(0, 0, 0)" stroke="rgb(204, 204, 204)" stroke-width="1px"></line><line x1="82" y1="0" x2="82" y2="5" style="visibility: inherit;" fill="rgb(0, 0, 0)" stroke="rgb(204, 204, 204)" stroke-width="1px"></line><line x1="102.5" y1="0" x2="102.5" y2="5" style="visibility: inherit;" fill="rgb(0, 0, 0)" stroke="rgb(204, 204, 204)" stroke-width="1px"></line><line x1="123" y1="0" x2="123" y2="5" style="visibility: inherit;" fill="rgb(0, 0, 0)" stroke="rgb(204, 204, 204)" stroke-width="1px"></line><line x1="143.5" y1="0" x2="143.5" y2="5" style="visibility: inherit;" fill="rgb(0, 0, 0)" stroke="rgb(204, 204, 204)" stroke-width="1px"></line><line x1="164" y1="0" x2="164" y2="5" style="visibility: inherit;" fill="rgb(0, 0, 0)" stroke="rgb(204, 204, 204)" stroke-width="1px"></line><line x1="184.5" y1="0" x2="184.5" y2="5" style="visibility: inherit;" fill="rgb(0, 0, 0)" stroke="rgb(204, 204, 204)" stroke-width="1px"></line><line x1="205" y1="0" x2="205" y2="5" style="visibility: inherit;" fill="rgb(0, 0, 0)" stroke="rgb(204, 204, 204)" stroke-width="1px"></line><line x1="225.5" y1="0" x2="225.5" y2="5" style="visibility: inherit;" fill="rgb(0, 0, 0)" stroke="rgb(204, 204, 204)" stroke-width="1px"></line><line x1="246" y1="0" x2="246" y2="5" style="visibility: inherit;" fill="rgb(0, 0, 0)" stroke="rgb(204, 204, 204)" stroke-width="1px"></line><line x1="266.5" y1="0" x2="266.5" y2="5" style="visibility: inherit;" fill="rgb(0, 0, 0)" stroke="rgb(204, 204, 204)" stroke-width="1px"></line><line x1="287" y1="0" x2="287" y2="5" style="visibility: inherit;" fill="rgb(0, 0, 0)" stroke="rgb(204, 204, 204)" stroke-width="1px"></line></g><g transform="translate(0, 8)"><text x="0" y="0" dx="0em" dy="0.95em" style="text-anchor: middle; visibility: hidden; font-family: Roboto, sans-serif; font-size: 12px; font-weight: 200;" fill="rgb(50, 49, 63)" stroke="none" stroke-width="1px">-5k</text><text x="20.5" y="0" dx="0em" dy="0.95em" style="text-anchor: middle; visibility: inherit; font-family: Roboto, sans-serif; font-size: 12px; font-weight: 200;" fill="rgb(50, 49, 63)" stroke="none" stroke-width="1px">0</text><text x="41" y="0" dx="0em" dy="0.95em" style="text-anchor: middle; visibility: hidden; font-family: Roboto, sans-serif; font-size: 12px; font-weight: 200;" fill="rgb(50, 49, 63)" stroke="none" stroke-width="1px">5k</text><text x="61.5" y="0" dx="0em" dy="0.95em" style="text-anchor: middle; visibility: inherit; font-family: Roboto, sans-serif; font-size: 12px; font-weight: 200;" fill="rgb(50, 49, 63)" stroke="none" stroke-width="1px">10k</text><text x="82" y="0" dx="0em" dy="0.95em" style="text-anchor: middle; visibility: hidden; font-family: Roboto, sans-serif; font-size: 12px; font-weight: 200;" fill="rgb(50, 49, 63)" stroke="none" stroke-width="1px">15k</text><text x="102.5" y="0" dx="0em" dy="0.95em" style="text-anchor: middle; visibility: inherit; font-family: Roboto, sans-serif; font-size: 12px; font-weight: 200;" fill="rgb(50, 49, 63)" stroke="none" stroke-width="1px">20k</text><text x="123" y="0" dx="0em" dy="0.95em" style="text-anchor: middle; visibility: hidden; font-family: Roboto, sans-serif; font-size: 12px; font-weight: 200;" fill="rgb(50, 49, 63)" stroke="none" stroke-width="1px">25k</text><text x="143.5" y="0" dx="0em" dy="0.95em" style="text-anchor: middle; visibility: inherit; font-family: Roboto, sans-serif; font-size: 12px; font-weight: 200;" fill="rgb(50, 49, 63)" stroke="none" stroke-width="1px">30k</text><text x="164" y="0" dx="0em" dy="0.95em" style="text-anchor: middle; visibility: hidden; font-family: Roboto, sans-serif; font-size: 12px; font-weight: 200;" fill="rgb(50, 49, 63)" stroke="none" stroke-width="1px">35k</text><text x="184.5" y="0" dx="0em" dy="0.95em" style="text-anchor: middle; visibility: inherit; font-family: Roboto, sans-serif; font-size: 12px; font-weight: 200;" fill="rgb(50, 49, 63)" stroke="none" stroke-width="1px">40k</text><text x="205" y="0" dx="0em" dy="0.95em" style="text-anchor: middle; visibility: hidden; font-family: Roboto, sans-serif; font-size: 12px; font-weight: 200;" fill="rgb(50, 49, 63)" stroke="none" stroke-width="1px">45k</text><text x="225.5" y="0" dx="0em" dy="0.95em" style="text-anchor: middle; visibility: inherit; font-family: Roboto, sans-serif; font-size: 12px; font-weight: 200;" fill="rgb(50, 49, 63)" stroke="none" stroke-width="1px">50k</text><text x="246" y="0" dx="0em" dy="0.95em" style="text-anchor: middle; visibility: hidden; font-family: Roboto, sans-serif; font-size: 12px; font-weight: 200;" fill="rgb(50, 49, 63)" stroke="none" stroke-width="1px">55k</text><text x="266.5" y="0" dx="0em" dy="0.95em" style="text-anchor: middle; visibility: inherit; font-family: Roboto, sans-serif; font-size: 12px; font-weight: 200;" fill="rgb(50, 49, 63)" stroke="none" stroke-width="1px">60k</text><text x="287" y="0" dx="0em" dy="0.95em" style="text-anchor: middle; visibility: hidden; font-family: Roboto, sans-serif; font-size: 12px; font-weight: 200;" fill="rgb(50, 49, 63)" stroke="none" stroke-width="1px">65k</text></g><line x1="0" y1="0" x2="287" y2="0" fill="rgb(0, 0, 0)" stroke="rgb(204, 204, 204)" stroke-width="1px"></line></g></g></g></g></svg>