<svg viewBox="0 0 330 200" xmlns="http://www.w3.org/2000/svg"><g><g><g><g><g><line x1="65" y1="178" x2="60" y2="178" style="visibility: inherit;" fill="rgb(0, 0, 0)" stroke="rgb(204, 204, 204)" stroke-width="1px"></line><line x1="65" y1="152.57142857142856" x2="60" y2="152.57142857142856" style="visibility: inherit;" fill="rgb(0, 0, 0)" stroke="rgb(204, 204, 204)" stroke-width="1px"></line><line x1="65" y1="127.14285714285712" x2="60" y2="127.14285714285712" style="visibility: inherit;" fill="rgb(0, 0, 0)" stroke="rgb(204, 204, 204)" stroke-width="1px"></line><line x1="65" y1="101.71428571428571" x2="60" y2="101.71428571428571" style="visibility: inherit;" fill="rgb(0, 0, 0)" stroke="rgb(204, 204, 204)" stroke-width="1px"></line><line x1="65" y1="76.28571428571428" x2="60" y2="76.28571428571428" style="visibility: inherit;" fill="rgb(0, 0, 0)" stroke="rgb(204, 204, 204)" stroke-width="1px"></line><line x1="65" y1="50.857142857142854" x2="60" y2="50.857142857142854" style="visibility: inherit;" fill="rgb(0, 0, 0)" stroke="rgb(204, 204, 204)" stroke-width="1px"></line><line x1="65" y1="25.428571428571416" x2="60" y2="25.428571428571416" style="visibility: inherit;" fill="rgb(0, 0, 0)" stroke="rgb(204, 204, 204)" stroke-width="1px"></line><line x1="65" y1="0" x2="60" y2="0" style="visibility: inherit;" fill="rgb(0, 0, 0)" stroke="rgb(204, 204, 204)" stroke-width="1px"></line></g><g transform="translate(55, 0)"><text x="0" y="178" dx="0em" dy="0.3em" style="text-anchor: end; visibility: hidden; font-family: Roboto, sans-serif; font-size: 12px; font-weight: 200;" fill="rgb(50, 49, 63)" stroke="none" stroke-width="1px">-0.05</text><text x="0" y="152.57142857142856" dx="0em" dy="0.3em" style="text-anchor: end; visibility: inherit; font-family: Roboto, sans-serif; font-size: 12px; font-weight: 200;" fill="rgb(50, 49, 63)" stroke="none" stroke-width="1px">0</text><text x="0" y="127.14285714285712" dx="0em" dy="0.3em" style="text-anchor: end; visibility: inherit; font-family: Roboto, sans-serif; font-size: 12px; font-weight: 200;" fill="rgb(50, 49, 63)" stroke="none" stroke-width="1px">0.05</text><text x="0" y="101.71428571428571" dx="0em" dy="0.3em" style="text-anchor: end; visibility: inherit; font-family: Roboto, sans-serif; font-size: 12px; font-weight: 200;" fill="rgb(50, 49, 63)" stroke="none" stroke-width="1px">0.1</text><text x="0" y="76.28571428571428" dx="0em" dy="0.3em" style="text-anchor: end; visibility: inherit; font-family: Roboto, sans-serif; font-size: 12px; font-weight: 200;" fill="rgb(50, 49, 63)" stroke="none" stroke-width="1px">0.15</text><text x="0" y="50.857142857142854" dx="0em" dy="0.3em" style="text-anchor: end; visibility: inherit; font-family: Roboto, sans-serif; font-size: 12px; font-weight: 200;" fill="rgb(50, 49, 63)" stroke="none" stroke-width="1px">0.2</text><text x="0" y="25.428571428571416" dx="0em" dy="0.3em" style="text-anchor: end; visibility: inherit; font-family: Roboto, sans-serif; font-size: 12px; font-weight: 200;" fill="rgb(50, 49, 63)" stroke="none" stroke-width="1px">0.25</text><text x="0" y="0" dx="0em" dy="0.3em" style="text-anchor: end; visibility: hidden; font-family: Roboto, sans-serif; font-size: 12px; font-weight: 200;" fill="rgb(50, 49, 63)" stroke="none" stroke-width="1px">0.3</text></g><line x1="65" y1="0" x2="65" y2="178" fill="rgb(0, 0, 0)" stroke="rgb(204, 204, 204)" stroke-width="1px"></line></g></g><g transform="translate(65, 0)" clip-path="url(#clip_0)"><clipPath id="clip_0"><rect width="265" height="178"></rect></clipPath><g><g><g><line x1="0" y1="0" x2="0" y2="178" fill="rgb(0, 0, 0)" stroke="rgb(60, 60, 60)" stroke-width="1px" opacity="0.25"></line><line x1="18.928571428571427" y1="0" x2="18.928571428571427" y2="178" fill="rgb(0, 0, 0)" stroke="rgb(60, 60, 60)" stroke-width="1px" opacity="0.25"></line><line x1="37.857142857142854" y1="0" x2="37.857142857142854" y2="178" fill="rgb(0, 0, 0)" stroke="rgb(60, 60, 60)" stroke-width="1px" opacity="0.25"></line><line x1="56.785714285714285" y1="0" x2="56.785714285714285" y2="178" fill="rgb(0, 0, 0)" stroke="rgb(60, 60, 60)" stroke-width="1px" opacity="0.25"></line><line x1="75.71428571428571" y1="0" x2="75.71428571428571" y2="178" fill="rgb(0, 0, 0)" stroke="rgb(60, 60, 60)" stroke-width="1px" opacity="0.25"></line><line x1="94.64285714285714" y1="0" x2="94.64285714285714" y2="178" fill="rgb(0, 0, 0)" stroke="rgb(60, 60, 60)" stroke-width="1px" opacity="0.25"></line><line x1="113.57142857142857" y1="0" x2="113.57142857142857" y2="178" fill="rgb(0, 0, 0)" stroke="rgb(60, 60, 60)" stroke-width="1px" opacity="0.25"></line><line x1="132.5" y1="0" x2="132.5" y2="178" fill="rgb(0, 0, 0)" stroke="rgb(60, 60, 60)" stroke-width="1px" opacity="0.25"></line><line x1="151.42857142857142" y1="0" x2="151.42857142857142" y2="178" fill="rgb(0, 0, 0)" stroke="rgb(60, 60, 60)" stroke-width="1px" opacity="0.25"></line><line x1="170.35714285714286" y1="0" x2="170.35714285714286" y2="178" fill="rgb(0, 0, 0)" stroke="rgb(60, 60, 60)" stroke-width="1px" opacity="0.25"></line><line x1="189.28571428571428" y1="0" x2="189.28571428571428" y2="178" fill="rgb(0, 0, 0)" stroke="rgb(60, 60, 60)" stroke-width="1px" opacity="0.25"></line><line x1="208.21428571428572" y1="0" x2="208.21428571428572" y2="178" fill="rgb(0, 0, 0)" stroke="rgb(60, 60, 60)" stroke-width="1px" opacity="0.25"></line><line x1="227.14285714285714" y1="0" x2="227.14285714285714" y2="178" fill="rgb(0, 0, 0)" stroke="rgb(60, 60, 60)" stroke-width="1px" opacity="0.25"></line><line x1="246.07142857142858" y1="0" x2="246.07142857142858" y2="178" fill="rgb(0, 0, 0)" stroke="rgb(60, 60, 60)" stroke-width="1px" opacity="0.25"></line><line x1="265" y1="0" x2="265" y2="178" fill="rgb(0, 0, 0)" stroke="rgb(60, 60, 60)" stroke-width="1px" opacity="0.25"></line></g><g><line x1="0" y1="178" x2="265" y2="178" fill="rgb(0, 0, 0)" stroke="rgb(60, 60, 60)" stroke-width="1px" opacity="0.25"></line><line x1="0" y1="152.57142857142856" x2="265" y2="152.57142857142856" fill="rgb(0, 0, 0)" stroke="rgb(60, 60, 60)" stroke-width="1px" opacity="0.25"></line><line x1="0" y1="127.14285714285712" x2="265" y2="127.14285714285712" fill="rgb(0, 0, 0)" stroke="rgb(60, 60, 60)" stroke-width="1px" opacity="0.25"></line><line x1="0" y1="101.71428571428571" x2="265" y2="101.71428571428571" fill="rgb(0, 0, 0)" stroke="rgb(60, 60, 60)" stroke-width="1px" opacity="0.25"></line><line x1="0" y1="76.28571428571428" x2="265" y2="76.28571428571428" fill="rgb(0, 0, 0)" stroke="rgb(60, 60, 60)" stroke-width="1px" opacity="0.25"></line><line x1="0" y1="50.857142857142854" x2="265" y2="50.857142857142854" fill="rgb(0, 0, 0)" stroke="rgb(60, 60, 60)" stroke-width="1px" opacity="0.25"></line><line x1="0" y1="25.428571428571416" x2="265" y2="25.428571428571416" fill="rgb(0, 0, 0)" stroke="rgb(60, 60, 60)" stroke-width="1px" opacity="0.25"></line><line x1="0" y1="0" x2="265" y2="0" fill="rgb(0, 0, 0)" stroke="rgb(60, 60, 60)" stroke-width="1px" opacity="0.25"></line></g></g></g><g><g><line x1="0" y1="152.57142857142856" x2="265" y2="152.57142857142856" fill="rgb(0, 0, 0)" stroke="rgb(153, 153, 153)" stroke-width="1.5px"></line></g></g><g><g><line x1="18.928571428571427" y1="0" x2="18.928571428571427" y2="178" fill="rgb(0, 0, 0)" stroke="rgb(153, 153, 153)" stroke-width="1.5px"></line></g></g><g><g><g><g><g><path stroke="rgb(255, 112, 67)" stroke-width="2px" d="M20.10214285714286,-6.721983367567702L20.13242857142857,0.7928008764232777L20.723000000000003,-6.212205170212146L20.957714285714285,1.330523670481765L21.1205,12.636958518846505L21.147,12.126404145923182L21.328714285714284,14.76753292563576L21.377928571428573,26.152281247389197L21.631571428571426,19.1554330939328L21.661857142857144,18.957175190735786L21.964714285714287,10.95866122437702L21.98742857142857,11.686628780711441L22.09342857142857,10.001099789018001L22.6045,-0.7863662155447231L22.964142857142857,-2.1356340474394706L23.108,12.724749575907127L23.395714285714288,16.726135782770363L23.702357142857142,19.58021082295285L23.910571428571426,10.383738043242625L23.921928571428573,13.797797947985872L23.974928571428574,12.13121297536671L23.99007142857143,14.28043751448388L24.171785714285715,11.16904767343109L24.198285714285714,14.376683282648175L24.364857142857144,19.776476773450003L24.478428571428573,24.514422167142918L24.804000000000002,31.987894207779988L24.925142857142855,28.426449168620394L25.330214285714288,24.85044071772559L25.493,25.432674923682214L25.504357142857142,19.53557839759314L25.90942857142857,14.404054722411567L26.034357142857143,17.56274407480691L26.185785714285714,31.616351134142572L26.299357142857144,32.4859092791864L26.636285714285712,39.68542892535982L26.86342857142857,42.79847118702L27.20792857142857,43.335844404665465L27.25335714285714,48.13682461190804L27.3745,48.06130977074342L27.491857142857143,48.089565918195824L27.66221428571429,38.08125962253925L27.97264285714286,25.925303955069523L28.15057142857143,35.50852629141606L28.214928571428572,30.950164615103212L28.2225,27.976642876953214L28.24142857142857,30.330396246560223L28.33607142857143,24.614675615258086L28.339857142857145,29.878264768250876L28.385285714285715,35.92268336029435L28.404214285714286,38.58249123697501L28.514,40.97277606258292L29.093214285714286,44.2392237039144L29.30142857142857,42.44019594719672L30.160785714285716,40.61053967249646L30.42957142857143,46.80994632804471L30.44092857142857,55.89008585132037L30.89521428571429,56.96340534151214L31.156428571428574,47.80569805314604L31.217,51.44794523618274L31.220785714285714,52.00212085110993L31.440357142857145,54.016496593504144L32.10285714285715,56.47535636709009L32.62528571428572,58.57090789540858L32.63285714285714,56.89754352501842L32.82214285714286,58.42913222546615L33.09092857142857,47.6430058746074L33.367285714285714,53.36247112253672L33.39378571428571,54.14824542757094L33.798857142857145,47.476825068979174L33.90485714285714,46.38810302032809L34.20771428571428,48.04480929280317L34.44242857142857,46.998257386859535L34.813428571428574,48.90737371551253L34.94971428571428,55.252954552610085L35.271499999999996,62.77021071827945L35.58571428571429,63.95736020928589L35.934,64.81961522186769L35.998357142857145,61.303752744014275L36.07785714285714,61.94498844050861L36.585142857142856,59.302516532351206L36.60028571428572,63.043961565176524L36.63057142857143,62.593491573464185L37.054571428571435,65.85142063470114L37.107571428571426,53.77064675268202L37.25142857142857,53.04569439253705L37.45585714285714,54.38982767956897L37.74735714285715,45.94604416257361L38.04642857142857,56.73502910622881L38.054,55.80273706287512L38.25842857142857,53.1911913536524L38.364428571428576,53.55594843930488L39.16321428571429,57.669995747064746L39.21621428571428,62.338728064581616L39.44714285714286,63.63099215043928L39.9355,53.90860714408749L40.42764285714286,51.792024840950475L40.59421428571429,40.2384376128598L40.916000000000004,41.128787273731696L41.128,25.808814482074304L41.1545,29.444121227885525L41.29078571428571,32.623750261229496L41.605,40.975458253872944L42.13878571428572,36.4240004735218L42.4,35.615655273964606L42.47192857142857,37.24111533343834L42.73692857142857,38.02871861337985L42.824,33.033138240919854L43.06628571428572,35.65975969603104L43.61142857142857,39.156738500197356L43.81585714285715,46.88872608238862L43.925642857142854,48.80083981302675L44.27771428571428,50.522542532265355L44.28907142857143,59.851924998655946L44.3345,61.051140512734754L44.87585714285714,65.16334433635413L45.29985714285714,67.13186699981522L45.39828571428572,66.54847140967077L45.860142857142854,67.35194111203448L46.01535714285715,73.54650623626289L46.60592857142857,76.1739857429657L46.87471428571428,74.96036616305923L47.13214285714285,77.86880832917771L47.169999999999995,72.22667652069829L47.181357142857145,75.85366454344761L47.23814285714286,72.88453495654545L47.36307142857143,67.76588331113621L48.05207142857142,71.63477167296442L48.41171428571428,68.81473247653307L48.449571428571424,68.33519975886178L48.582071428571425,66.17476372264109L49.18021428571429,59.74577439659014L49.46414285714285,57.21071222738423L49.895714285714284,58.624129898312454L50.05092857142857,65.79945006115177L50.588499999999996,62.81169004622397L50.60742857142857,60.239554378040104L50.6415,59.54355143954867L50.99357142857143,62.557817916194615L51.09957142857143,61.60865019045908L51.13742857142857,67.21690975254228L51.4895,66.95007855041618L51.61821428571429,64.73074529651504L51.84535714285715,72.92139006186424L52.53814285714286,74.91593617582771L52.64792857142857,80.35153419729843L52.727428571428575,82.92487431256154L52.75392857142857,81.83123055590715L52.9735,84.95200391486813L53.208214285714284,88.18768155834363L53.98428571428571,93.00020881126778L54.196285714285715,85.67362581050455L54.31742857142857,64.85045221299227L54.64678571428571,56.518790128018026L54.77171428571428,59.5859052478421L55.09728571428572,51.89325976831525L55.1465,56.86495749180441L55.48721428571429,56.67465562340664L55.574285714285715,53.831883140306594L55.64242857142857,58.807155397435885L56.19135714285714,56.9320698816221L56.43364285714286,58.515932092482196L57.00528571428571,65.53665287846965L57.10371428571428,70.2735403913804L57.83057142857143,67.47800940849038L57.85707142857143,66.25671242056076L58.296214285714285,71.14595205017967L58.59907142857143,71.07944170121539L58.76185714285714,64.60247192697574L59.083642857142856,60.79291080961622L59.20099999999999,60.66226799138752L59.26157142857143,64.08553557175708L59.477357142857144,67.00492403482932L59.6515,72.01098259063477L59.65528571428571,71.63266884994216L59.738571428571426,75.1158089483618L59.969500000000004,72.87132959853206L60.003571428571426,75.90845898695325L60.200428571428574,76.19444229850801L60.21178571428571,76.75282569159067L60.355642857142854,74.01492471358792L60.44271428571428,78.11815840498525L60.465428571428575,71.08764725750663L60.473,75.83377385898217L60.64714285714286,80.02560435062233L60.95757142857143,80.73375296423649L61.0295,77.08344763594776L61.06357142857143,79.78939449458137L61.321,77.33982342269861L61.32857142857143,73.40303245181379L61.55571428571429,78.29516022584795L62.157642857142854,77.48613817817598L62.35828571428572,80.2959111721847L62.434,80.58965978415267L62.55135714285714,72.56111517192483L62.585428571428565,80.37468746743612L62.71414285714285,79.55092403832163L63.02457142857143,82.79358982729818L63.16464285714286,82.76338354056483L63.444785714285715,85.09312736804286L63.876357142857145,91.11046840399706L64.23978571428572,93.51234230811782L64.25871428571428,95.94666221588616L64.395,91.48440221386925L64.51235714285714,85.95234387579151L64.87957142857142,87.62710577061875L64.978,89.75585354846397L65.05371428571428,89.00397626183455L65.455,86.69140829622798L65.89035714285714,82.63447044829026L66.09100000000001,85.81750966293525L66.89735714285715,85.95663043774618L67.67721428571429,81.71026188181416L67.91192857142858,83.38548754012369L68.20721428571429,86.23329030043593L68.27157142857143,85.0791529179966L68.3737857142857,86.6524704923588L68.45328571428571,75.8910742247061L68.49871428571429,81.36025667324793L68.5555,80.78027258118915L69.04764285714286,77.82415181241197L69.66471428571428,76.03597543362123L69.67985714285714,74.7911311754834L70.05085714285714,79.56984036360804L70.20985714285715,64.77199180879718L70.40292857142857,66.57042908655056L70.49000000000001,73.7974812632812L70.71335714285715,76.39078450691703L71.20928571428573,78.39823910484982L71.48942857142856,73.58021774089836L72.23142857142857,78.68415871221646L72.76521428571428,84.879160970133L73.01507142857143,82.6773938686368L73.04157142857143,88.09945175426222L73.14,89.91207888255114L73.20814285714286,88.38863254645166L73.4315,91.68704574295847L73.62078571428572,92.65882990110232L74.32114285714286,92.60779760678999L74.34385714285715,94.07817167164146L74.45742857142858,71.72727826903711L74.4915,77.45220121328975L74.52935714285714,77.5654174489451L74.87764285714286,70.11232750750187L74.91171428571428,73.46156928428239L74.99121428571429,75.17692927921762L75.23349999999999,77.51984462668332L75.30542857142858,76.55734883848022L76.05499999999999,83.98889710856652L76.39571428571429,85.0498720476835L76.72128571428571,84.93214279902897L76.94085714285714,83.49801071465795L77.50492857142856,86.01378879641622L77.51249999999999,89.80547470202654L77.63364285714286,90.84860098529835L77.751,86.53211518203437L78.51571428571428,79.23080889602828L78.60657142857143,81.88164044757421L78.64064285714285,84.04834853467202L78.84885714285714,88.23791258720874L79.4735,90.25587217406347L79.85964285714286,90.85886538940568L79.93914285714285,85.50781987170011L80.44264285714286,89.04759549611309L80.71521428571428,91.62742804281764L80.7985,89.41321567613294L80.86285714285715,91.24525190525189L81.037,93.11207907324606L81.41178571428571,91.31504723577353L82.13864285714286,78.14127418660497L82.55885714285714,82.37920875931454L82.56264285714286,80.69420935846425L82.74435714285714,76.96069147080229L82.90335714285715,80.06429269421135L83.53557142857143,84.28656429901343L83.65292857142856,86.47987340357831L83.78164285714286,82.94459548117116L84.1905,75.95012383122742L84.31542857142857,68.62864504350948L84.39114285714287,63.868325001131986L84.482,63.01950755109163L84.48578571428571,71.89033864808017L84.49714285714285,75.34513335006989L84.56907142857143,78.27434488109985L84.81892857142857,75.82503945965622L84.96657142857143,76.65653474158593L85.00442857142858,72.35464584225865L85.34135714285713,78.47952662789581L85.39435714285715,77.51174753182781L85.50414285714285,81.166720426406L85.53442857142858,79.23205806933937L85.64421428571428,81.23312765941245L86.019,84.79399531006355L86.8935,90.08231613320324L86.9995,87.29522954658168L87.13957142857143,85.22841591038782L87.27207142857142,85.8334137104424L87.31750000000001,83.06945352953664L87.55978571428571,85.89149774558692L88.07085714285715,89.15840448029185L88.27528571428572,85.18486036922083L88.77878571428572,88.92896902104621L88.78257142857143,92.44821318862458L89.31257142857143,93.6113425689905L89.77064285714286,96.75813782656077L89.79714285714286,94.79141443489863L90.27035714285714,93.99086070191149L90.69814285714286,77.977902543055L90.87607142857142,80.22798008781415L91.03885714285714,82.0867211687529L91.29628571428572,87.11777218670086L91.49692857142857,87.86758534118988L91.88307142857143,85.43122541859256L92.84464285714286,88.47108918778724L92.86735714285714,93.46644615322528L93.28,92.11119011625624L93.333,89.33538275718868L93.6245,89.00741725826559L93.64721428571428,90.20439721185929L93.97278571428572,94.22289484842545L94.05985714285714,97.26958756052132L94.32485714285714,79.16539504771407L94.40814285714286,79.9071506721406L94.53307142857143,82.39730171527917L94.62392857142858,83.96172404222689L94.77535714285715,83.31572937699192L94.8435,79.45754258351252L94.86621428571429,83.31806157492426L94.87757142857143,87.76976602117865L95.16528571428572,86.65551421102829L95.16907142857143,83.78560782450722L95.34700000000001,88.37145189262363L95.46435714285714,85.40592762318522L95.56657142857142,85.29944876461191L95.57792857142857,87.64897794893186L95.59685714285715,88.79713337361946L95.86564285714284,88.56078743208712L95.9072857142857,88.22455200389017L96.09278571428571,92.57575678540103L96.30857142857143,92.08335987048358L96.47892857142857,91.2419991796504L96.63414285714285,93.46620056323658L96.68335714285715,97.41116865016366L96.68714285714286,98.78703178220778L96.77042857142858,96.40773856435756L96.831,93.66173532051307L97.2512142857143,96.03195572514106L97.33071428571428,101.45939160477965L97.59192857142857,97.62682842733535L97.60328571428572,100.19805514152085L97.60707142857143,102.5136606087775L97.78878571428572,104.64702168150114L97.87964285714287,97.9226375790104L98.37935714285715,98.01222745246339L98.73142857142857,94.21735805198013L98.9737142857143,92.87971192990558L99.2197857142857,97.92487679664087L99.30685714285714,96.1134535836256L99.62485714285714,96.23577357984796L99.63621428571429,97.18904609913095L99.65514285714286,96.43766842552058L99.90878571428571,93.6473971924261L99.97692857142857,91.08651685361255L100.26085714285715,89.77279273850179L100.4085,95.14416653658006L101.00664285714286,95.87929877125521L101.16942857142858,93.3645074254251L101.43821428571428,93.81177359117798L101.53664285714287,97.49585259298381L101.61614285714285,98.81178801495831L101.63885714285713,93.84894950545244L102.237,91.4595174200826L103.14178571428572,79.19629274867904L103.191,75.78627558960343L103.31971428571428,72.07552621073862L103.46357142857143,72.48911456440021L103.56957142857142,70.00984319025874L104.00114285714285,76.54104976879401L104.13364285714285,81.174116762103L104.27371428571428,80.88061121698007L104.61821428571429,73.5474168828835L105.11035714285714,77.6160290999828L105.3942857142857,81.27516198449473L105.735,85.34379871644525L105.74635714285715,91.37923557333937L106.318,92.70758040484019L106.52242857142858,75.70981783100942L106.56028571428571,77.83645046725799L106.68900000000001,82.77946983360096L106.72685714285714,78.20663991332361L106.82528571428571,82.96473053696732L106.99564285714285,88.85548701810542L107.08271428571427,92.29381832534027L107.36664285714286,89.94564102082818L107.43857142857142,89.8150814828229L107.6165,93.20326373663445L108.0442857142857,93.24799748407614L108.22978571428573,93.08840509682935L108.53642857142857,91.3873935764106L108.57807142857143,84.51600514647069L108.65378571428572,87.43139536642538L108.93014285714285,89.01828386753897L109.14592857142857,89.01290328298101L109.551,93.17729525923117L110.08478571428572,96.05565064642198L110.23242857142857,94.75970274219377L110.34221428571429,93.09504267821731L110.67157142857143,97.42004060897746L110.8532857142857,98.12106570633188L110.86085714285714,100.79424669861548L111.00471428571429,96.28505538604144L111.0917857142857,95.96643209012821L111.36057142857143,98.83463975555202L111.89435714285715,103.89045165058815L112.13664285714286,105.02343153488677L112.50764285714286,102.8129126658836L112.53792857142858,100.35888813340793L113.19664285714285,100.05660985372148L113.32157142857143,96.09056888764458L113.60171428571428,96.29250933775585L113.74935714285715,96.40266090566044L114.07492857142857,99.49319231823956L114.44592857142857,101.14120854724783L114.49514285714285,103.13569829004902L114.52921428571429,102.14102375577394L114.82828571428571,103.27774101926785L115.05164285714285,106.511715899829L115.48321428571428,105.57027433173124L115.54,105.08283231152895L115.83907142857143,101.1230835232123L116.16842857142858,102.14907208642506L116.64542857142857,103.47163931310006L116.77792857142856,102.92684698956187L117.05807142857142,97.36325211829651L117.5275,98.33631549141555L117.607,102.7177555788561L117.70164285714286,106.8811769464294L117.94392857142857,99.1637687528952L117.99692857142858,93.81359900197369L118.46257142857144,92.30324105594185L118.50421428571428,95.85117716272546L118.8827857142857,89.12809040964004L119.13642857142857,90.91851562890825L119.89357142857142,89.51358499590697L120.37435714285715,91.92895761558074L120.37814285714286,92.15181057432795L120.48792857142857,92.07645333683325L120.49549999999999,96.96388688210203L120.87028571428571,96.59963999394824L121.68042857142856,97.60262368349137L121.70314285714286,98.19424837589929L121.72585714285715,85.64898350614179L121.741,84.1883498736574L121.74478571428571,86.24714476061355L122.18014285714285,89.5049167928966L123.05464285714285,92.04872262631828L123.42564285714286,89.93231671424208L123.4635,91.35671115006893L123.49000000000001,94.46558106252107L123.55814285714285,94.10704793342573L123.9405,90.10995695802683L124.26607142857142,76.41406509882978L124.61057142857143,82.12112066839877L124.61814285714286,85.3810451663788L124.73928571428571,76.4334722317936L124.80742857142857,82.30063671711672L125.87878571428571,83.46391759577921L125.9772142857143,88.55421368242395L126.14378571428571,88.17808419392347L126.58671428571428,84.22068258038618L126.63592857142856,86.05182382678959L126.98421428571429,86.36997686250064L127.09400000000001,88.29892706776243L127.24164285714285,93.5927416013842L128.60071428571428,97.91793676182141L128.69914285714285,96.43765223740094L128.78242857142857,98.3822167948658L128.85435714285714,101.07060913090864L128.94899999999998,105.39059167725293L129.00957142857143,104.73869719748205L129.055,104.63015351849673L129.4752142857143,105.1994612193538L129.70992857142858,104.11461626937216L130.49735714285714,105.4531943314318L130.52385714285714,99.12249605236691L130.5579285714286,100.20440000505769L130.74721428571428,103.72970936592708L130.75857142857143,108.17805861012084L130.83807142857142,101.93769455256879L130.95542857142857,105.7511411679318L131.02735714285714,107.09017440935506L131.54221428571427,109.76250675191088L131.84885714285713,110.1757268420239L131.85264285714285,109.59539182474698L131.98135714285715,101.58225980323341L132.5,99.67374714794231L132.51892857142857,102.63581975286615L132.61735714285714,101.80344525006603L132.79149999999998,104.085905239981L132.8482857142857,98.36515734767997L133.1587142857143,100.58331323138052L133.3215,96.55278054127214L133.41992857142858,95.8729520267093L133.57514285714285,93.13674636110291L133.73792857142857,97.92343145107618L134.23764285714284,101.16228016010449L134.2792857142857,100.2170120244462L134.66542857142858,98.17485163006835L134.81685714285715,95.53588989971563L135.17271428571428,77.63918484604397L135.22571428571428,82.49520311891213L135.29385714285715,88.12767645505407L136.48257142857142,89.91055709386862L136.68321428571429,88.82297084203317L137.82271428571428,95.39270249889077L137.9627857142857,99.87230407306416L138.9205714285714,102.60460236971869L139.01899999999998,106.58970708491736L139.3445714285714,108.96319931901208L139.59064285714285,108.81330283047919L139.61714285714285,104.97780881989152L139.64742857142855,101.0447726302125L139.82914285714284,103.3188197635976L139.8632142857143,106.97880303149871L140.08657142857143,103.93205790213231L140.1357857142857,94.92998939889479L140.73014285714288,96.96733481227639L140.85507142857145,100.29280683802202L141.0140714285714,104.64993344071529L141.71821428571428,105.62483054013096L142.07407142857141,106.0712528860533L142.12328571428571,108.12370784810943L142.3845,109.85939933909606L142.55864285714287,112.894181426394L142.74414285714286,113.19011444697325L142.95614285714285,107.48545408078787L143.45585714285713,107.31753787126362L143.48614285714285,109.73392856807844L143.86471428571429,86.6591069784859L143.91014285714286,88.8678604043738L143.98585714285713,93.36835240465926L144.43257142857144,96.87408433121155L144.53478571428573,98.68503784947093L144.54235714285713,101.5366547872759L144.88307142857144,98.42063298730143L145.14807142857143,98.60541042066349L145.2502857142857,100.66375474669734L145.27678571428572,97.76514354876645L145.38278571428572,95.9177447706794L145.89764285714287,99.17052062760877L146.24592857142858,99.94394499247207L146.61314285714286,96.28636156340526L146.64721428571428,97.28455130886499L146.69264285714286,101.14945065447402L146.76457142857143,103.82051631700809L146.82892857142858,107.3348150247351L147.03335714285717,110.01199483952948L147.07878571428571,108.0944271012717L147.17342857142856,108.23522944642288L147.31349999999998,110.8878371766302L147.7072142857143,106.07005764855114L147.77914285714286,109.84302886763885L147.80564285714286,109.45349053724355L147.97978571428573,110.75150103103732L148.17664285714287,112.61897384150045L148.18800000000002,110.55924027703018L148.32049999999998,110.96939087328454L149.0095,110.1546040168259L149.01328571428573,104.65622228053901L149.09278571428572,108.35682667704657L149.30100000000002,105.22329005972485L149.63035714285712,107.8955649905042L149.63414285714285,109.12698042587186L149.77800000000002,112.09326148917428L149.91049999999998,115.11927262640691L149.94457142857144,110.71845018842092L150.60707142857143,108.01844440049565L150.96671428571426,96.45241820200458L151.72764285714285,96.22487220993374L151.86392857142857,99.49472808203481L152.09864285714286,100.9233301313932L152.39014285714285,96.06421273861605L152.68921428571429,95.23041909592656L152.76871428571428,98.03656017380925L152.799,101.31539421618147L152.84821428571428,101.40803757035823L152.85578571428573,105.76228432807648L153.2495,101.36891406568334L153.25707142857144,102.33218628027947L153.5864285714286,99.53215747398545L153.59778571428572,96.55338902398454L154.34735714285713,92.70589400602975L154.37385714285713,95.30768923060035L154.62371428571427,98.81108650735108L154.64264285714287,97.50123953708795L155.03635714285716,99.7465484572145L155.10071428571428,98.90230973495937L155.35435714285714,102.29946529316015L155.4300714285714,105.7357448849989L155.83514285714284,105.59284475658775L156.0887857142857,105.91163642170311L156.14557142857143,105.54558763425429L156.20614285714288,107.82727029560768L156.25535714285715,111.65648175752992L156.38785714285714,112.70844266977285L156.48628571428574,114.60677801831073L157.36835714285715,116.99354853972014L157.59550000000002,118.2019214152097L157.70907142857143,120.21590800655655L157.781,122.43191733100196L158.11792857142856,112.00219573615456L158.26557142857143,112.01389571329581L158.28071428571428,106.91572438266117L158.3147857142857,106.4791353664214L158.43214285714285,111.00640875246998L158.64792857142857,109.6328161994768L159.20064285714287,108.50039729642272L159.6397857142857,106.28208332288669L159.76471428571426,108.6345585563333L160.17735714285715,110.39703284825846L160.7225,111.66688841242191L160.85121428571426,115.39680449526898L161.89228571428572,111.13514127959112L162.05507142857144,110.84034699107308L162.3162857142857,112.16714944036336L163.51257142857145,115.76416550025566L163.72078571428574,111.25272651715977L163.77757142857143,107.01725536305166L164.16750000000002,105.20723695756375L164.44764285714285,94.45038031493434L164.50821428571427,95.8186132892317L164.54985714285715,100.4050457573589L164.67857142857144,98.64018280136655L164.98142857142858,98.4524024344531L165.21235714285714,102.43637403058398L165.21614285714284,107.63298417029723L165.4357142857143,107.6803770514028L165.51142857142855,103.5223812630081L165.67421428571427,103.52625561251368L165.96571428571428,96.48149477868547L166.49949999999998,93.81935354998606L166.58657142857143,92.34641842443789L166.59035714285716,93.2287493446051L167.10521428571428,96.6983850133911L167.46864285714287,99.39952609288004L167.692,102.23395582049027L167.73364285714285,102.2531403019413L168.80878571428573,102.98408743357953L169.22899999999998,107.34697642458303L169.335,110.73927477279268L169.52807142857142,111.77652847244697L169.89528571428573,115.30696538750246L170.01264285714285,114.98370116202379L170.03157142857143,114.96824707560927L170.09592857142857,118.50910024384264L170.43285714285713,115.91584091942708L171.20514285714287,118.03298378903969L171.47771428571428,119.97449351967808L171.8752142857143,116.39056861510353L172.20457142857143,118.60305950611118L172.25,115.87100583727135L172.37114285714284,117.12359646864509L172.47714285714287,119.27739611915067L172.8065,117.43011349077022L172.84435714285715,119.13810640072067L172.86707142857145,121.03587468593427L172.88221428571427,120.03484885994804L172.99957142857141,120.92448437691088L173.00714285714284,122.26205166111713L173.06014285714286,122.54135684011065L173.08285714285714,125.01293490707079L173.35921428571427,124.25938978738237L174.2942857142857,125.61384815051174L174.62742857142857,119.47594712810702L174.72585714285714,123.2313546226648L175.06657142857142,123.16880442501751L175.1687857142857,123.13671072063691L175.4337857142857,124.63261307873158L175.6912142857143,121.09095679719712L176.00164285714285,116.22430622662068L176.18335714285715,114.49311503140439L176.24392857142857,111.11527928256935L176.44835714285716,111.02095900789199L177.06542857142855,110.75137912820469L177.09571428571428,112.67094018899311L177.338,113.77150254835475L177.4402142857143,114.01902322478755L177.95128571428572,116.51621364672994L177.97778571428572,118.33072616124664L178.04592857142856,118.6338887777767L178.43585714285715,119.32656286617133L178.5267142857143,120.53724561885883L178.56457142857144,120.02627127245168L178.61757142857144,116.14677469558143L178.8522857142857,115.0260823567527L179.21192857142856,115.42612022048061L179.63214285714284,113.24280415232732L179.7002857142857,112.31385791987445L179.73814285714286,113.87575407617487L179.81764285714286,114.05146001314124L180.2302857142857,113.0370400450515L180.4952857142857,109.42800432573895L180.8662857142857,112.14298647071915L181.45307142857143,113.42119938296956L181.578,115.67202432214232L181.64235714285715,102.14892522222357L181.79000000000002,96.98045032199138L182.76671428571427,91.92599258699585L183.5087142857143,91.37388159689688L183.6752857142857,92.57532270811777L183.80778571428573,94.9920192572813L183.92135714285715,96.57012783170869L184.0122142857143,91.14780088841096L184.13335714285714,90.1934406375539L184.40592857142857,93.83677264771283L184.50814285714287,100.25390188121703L184.5232857142857,101.91410565290015L184.58007142857142,101.99022784651218L184.67849999999999,106.38004386614513L184.7617857142857,103.50490472500145L185.40914285714285,99.26619737310676L185.42428571428573,102.15035717610161L185.4735,103.39705503655715L185.77635714285717,104.41108603257473L185.79149999999998,102.98138509628046L185.92778571428573,107.18834573121437L186.25714285714287,108.75658843426874L186.28364285714287,111.37026877284352L186.45021428571428,106.88368678801903L186.65085714285715,110.54897615517474L186.7985,111.78642980511948L187.02942857142858,109.24948753291817L187.39664285714284,111.22045218287958L187.5405,114.16146068861632L187.71464285714288,113.57651582457693L187.71842857142857,114.52813885507804L187.94178571428571,116.3042520540669L188.2597857142857,118.04095096003887L188.35064285714287,112.61679707756012L188.53614285714286,111.3721946646225L188.58914285714286,112.00969528528408L189.1494285714286,105.25541368011989L189.26299999999998,106.73671303706972L189.48635714285712,103.1219595375873L189.6794285714286,105.8382983460678L190.45928571428573,107.3270376618973L190.49335714285715,107.9367612345628L190.69400000000002,108.14710606590113L191.20507142857142,110.51113589937864L191.34135714285713,114.32725552124813L191.7312857142857,109.17502477579323L191.7767142857143,111.18042582400744L192.2045,104.44037103568847L192.46192857142856,103.86086164170739L192.59442857142858,104.91806890792296L193.16228571428573,109.25524526879897L193.19635714285712,110.6304176585744L193.29857142857142,107.63278006652432L193.41214285714287,109.44882857603257L193.54085714285716,113.81354587126303L193.71121428571428,112.05676665412112L193.7415,113.32043351587839L193.8475,114.36721526144555L194.27528571428573,117.40956521273542L194.33585714285715,112.6905670358347L194.57057142857144,116.75754854146439L194.63492857142856,116.62707573805837L194.9605,117.45727090219965L194.99457142857142,118.02010638477148L195.7062857142857,117.48750137416928L195.90314285714285,120.31320868199381L196.99342857142858,119.83680609336157L197.07292857142858,117.49880641529485L197.60671428571428,116.0205863999586L197.7695,117.26322375618142L197.97014285714286,119.42152149026336L197.99664285714286,121.13859443702867L198.07235714285716,121.47272608932691L198.17078571428573,115.38795578866701L198.51149999999998,112.9511106046862L198.70835714285715,114.8214949530981L198.93550000000002,116.602776645582L198.96200000000002,116.06402348637221L199.0717857142857,114.10939525380465L199.27242857142858,117.8650986551612L199.28757142857143,121.98116556956255L199.33678571428572,123.99688345717925L199.38978571428572,121.87339155085064L199.48064285714287,115.54389843352823L199.5260714285714,115.77391767104513L199.64721428571428,110.32160819386L199.67371428571428,110.70089063253042L199.72671428571428,111.87070307355309L200.15449999999998,113.6491617406655L200.19614285714286,114.32706013203372L200.21885714285716,114.30067642321593L200.37407142857145,109.40572688317276L200.38921428571427,108.59553622951809L200.4422142857143,100.5517308397688L200.5292857142857,105.82742023951651L200.93057142857145,102.34541529385265L201.09335714285714,104.15448879597223L201.32807142857143,96.36350914984922L201.38864285714286,102.01796227765618L201.5022142857143,100.87007916641494L202.23664285714287,100.53002730872477L202.407,103.70315669458527L202.5887142857143,104.24000097649837L202.619,103.13853735138767L203.02785714285713,106.49820311895236L203.10357142857143,107.60564222905168L203.838,109.627508520173L204.36042857142857,110.03991525950156L205.45828571428572,110.31084789437867L205.6627142857143,110.07762113213386L205.75735714285713,111.6217099663176L206.23435714285714,114.20293416936177L206.541,114.21163412891438L206.7719285714286,116.31094438596028L206.84385714285713,118.25036050920005L207.06721428571427,121.84605311012747L207.50635714285715,123.86569466270964L207.80542857142856,125.64449084766017L208.23700000000002,126.82988182254215L208.4262857142857,125.88496771175441L208.56635714285716,123.91959303059693L208.77835714285715,124.9344302738126L208.83892857142857,126.98592729839767L208.9525,128.04282262841232L209.22885714285712,124.86333615514556L209.66042857142855,124.52247427167741L209.99357142857144,114.78217556939774L210.251,118.40519741598195L210.5955,119.78999027779894L210.60307142857144,122.73531823997295L210.6257857142857,120.8394015278301L211.31478571428573,122.31515661008282L211.9205,120.64032755631392L212.05678571428572,118.6811735496159L212.49214285714285,120.50376559478524L212.5072857142857,118.13130313908421L212.85935714285714,121.44133646274247L213.06757142857143,120.12925029586552L213.2947142857143,121.25248568595343L213.65435714285715,122.41867606208879L214.42664285714287,120.25957115589213L214.83928571428572,122.64701231306532L215.00585714285714,122.26562556404777L215.02100000000002,125.05004704655519L215.0512857142857,125.39908323682548L215.61157142857144,125.7870909242159L215.7895,127.14302439513844L216.03935714285714,129.2142039488208L216.04692857142857,128.2119964493893L216.6829285714286,129.11053872004004L216.89114285714285,126.41221871056126L216.99714285714285,129.1298330443621L217.12207142857142,130.26063756179784L217.2129285714286,129.9395864814357L217.2507857142857,128.71026960057375L217.7164285714286,122.22585413452887L217.78457142857144,122.58027229598956L218.0685,121.19208800786306L218.21235714285714,121.74816717971574L218.36757142857144,118.90783800592106L218.74992857142857,119.64497141326802L218.82185714285714,119.69735238665865L219.21557142857142,120.42524893565614L219.3405,118.15779142076408L219.58278571428573,119.09474954526769L219.62064285714285,118.16646839052292L219.9197142857143,115.20842170724715L219.9765,114.06211088812074L220.1165714285714,115.07063230576236L221.08950000000002,107.74870659012343L221.1197857142857,107.99682484580347L221.34314285714285,110.0978885950454L221.39614285714288,108.69493718008586L222.02457142857145,111.75700383932411L222.24414285714286,115.49854930993995L222.27064285714286,118.42508311924483L222.2857857142857,119.95921140204442L222.30092857142859,118.1362705337602L222.69085714285714,116.56159976104468L222.83471428571428,117.22073795296525L222.95964285714285,116.35772552251777L223.0012857142857,110.77109997777019L223.44421428571428,103.26610764855174L223.62971428571427,103.98221316278733L223.6865,109.33560996502608L223.76600000000002,112.97595597705859L223.82278571428571,116.13065543377164L224.04992857142855,114.9512133123459L224.26950000000002,116.73485879332253L224.75028571428572,118.94946272487613L225.1212857142857,117.89743929179376L225.58692857142856,119.58891111007996L225.72321428571428,121.759368412055L225.8065,124.03202911612942L225.97307142857142,121.81270156936894L226.02228571428572,123.98146192396015L226.07907142857144,122.90749363675852L226.4122142857143,125.1087858019809L226.6242142857143,125.6426599052927L226.90435714285715,122.54947075316288L227.07471428571426,124.18443711728416L227.8735,124.55188287644222L228.2747857142857,123.98278418753361L228.28614285714283,123.85390482184526L228.3845714285714,123.69716414570476L228.50192857142858,123.10797394504561L229.17957142857142,123.94651156957987L229.1985,126.56986814393527L229.22878571428572,125.24220451647471L229.84207142857144,127.78680154252339L230.04271428571428,128.70847392655085L230.1525,126.55509408580154L230.43642857142856,123.52041266724085L230.7885,120.35535011329667L230.79985714285715,121.70693082352155L231.27307142857143,122.17573780584055L232.07942857142856,122.8618892407877L232.20435714285713,122.52110727700932L232.36335714285715,122.82344737756078L232.4845,121.04330540150785L232.56400000000002,121.60861365077616L232.80249999999998,122.60383626078664L232.84792857142855,121.78582725528283L232.90092857142855,123.99995598231969L232.92742857142858,119.14490316931754L232.935,115.65428890503199L233.2302857142857,115.86081048974415L233.90792857142856,118.22120660900356L234.03285714285713,120.43121045890044L234.16914285714284,124.11396432369034L234.29028571428572,124.97313441990961L234.71050000000002,128.25802513802716L234.85057142857144,129.9150310948567L235.6115,130.13638760632472L235.70235714285712,127.58056570933998L235.84621428571427,125.74957418301852L235.8689285714286,125.12754425755335L235.9522142857143,126.04480557450857L236.221,127.63930760762715L236.48978571428572,129.0658322890603L236.54657142857144,130.2182062950296L236.67528571428574,128.3075774282787L236.89107142857142,126.85641565996046L237.3112857142857,127.04081457324986L237.45514285714287,128.73029665234446L237.59142857142857,128.2720331887697L238.00785714285715,127.78310686753271L238.84071428571428,127.22032130319697L239.61678571428573,126.2617495186705L239.80985714285714,126.62275431362076L240.16571428571427,124.73362235937738L240.60485714285716,128.07264711531303L240.81307142857142,130.14279479546403L240.92664285714287,124.93869063251037L240.94178571428571,127.79201202467632L241.1007857142857,128.67946757119205L241.22192857142858,131.33043620590237L241.32414285714285,131.2537092105198L241.38850000000002,126.76273842850318L241.44528571428572,128.90859148512138L241.48314285714287,125.97271592371546L241.80114285714285,127.05894612152294L242.33871428571427,128.0080723004821L242.39928571428572,128.46101986487625L242.41064285714285,130.3232654914473L242.422,124.88950497452315L242.50528571428572,123.48416721411374L242.94064285714285,122.17485376213104L243.28514285714286,123.52750440882888L243.46307142857142,121.72369036692209L243.64478571428572,123.69039092031427L243.92114285714285,123.29399711702646L244.46628571428573,124.9464901698802L244.648,125.29619819879487L244.70857142857142,123.25560691156825L244.82214285714284,122.31586216524964L245.00764285714286,120.78446265176812L245.05685714285713,119.83839525714403L245.0757857142857,115.82116641819451L245.1287857142857,118.07081147437428L245.38242857142856,119.42444167743122L245.549,115.23429782140627L245.6512142857143,114.91869573301463L246.0827857142857,116.79447005265136" style="fill: none;" fill="none"></path></g></g></g></g><g opacity="0.2"><g><g><g><path stroke="rgb(255, 112, 67)" stroke-width="2px" d="M19.560785714285718,-58.49542542866301L19.7955,82.75656809125628L19.81442857142857,27.585243310247137L19.89392857142857,-65.65234620230541L19.962071428571427,21.56065011024475L20.094571428571427,10.447035755429937L20.10214285714286,12.692229815891814L20.13242857142857,41.94781335762568L20.723000000000003,-46.045483112335205L20.957714285714285,45.61132505961826L21.1205,80.84234891619L21.147,8.973995174680425L21.328714285714284,31.404519489833284L21.377928571428573,99.11364566428321L21.631571428571426,-26.357895919254872L21.661857142857144,17.65080560956681L21.964714285714287,-42.33828248296466L21.98742857142857,16.584704841886236L22.09342857142857,-1.436155455453061L22.767285714285716,-70.70850024904523L22.964142857142857,49.92118280274527L23.108,116.03982361725397L23.395714285714288,44.664582593100405L23.702357142857142,39.58260926178522L23.910571428571426,-54.279826641082764L23.921928571428573,37.87211007731302L23.974928571428574,0.34973270552499236L23.99007142857143,29.507237826074864L24.171785714285715,-10.916978563581182L24.198285714285714,37.184363756860996L24.364857142857144,58.228194696562625L24.478428571428573,58.29693749972751L24.804000000000002,85.33591992514474L24.925142857142855,2.9783435208456774L25.330214285714288,-0.7240979330880188L25.493,29.59983713286264L25.504357142857142,-22.69951472963605L25.90942857142857,-22.369722059794853L26.034357142857143,40.21044150420597L26.185785714285714,132.42611744999886L26.299357142857144,38.725942526544834L26.636285714285712,91.36799291202001L26.86342857142857,65.15267370428357L27.20792857142857,47.195668203490115L27.25335714285714,82.62929803984505L27.3745,47.51866313389368L27.491857142857143,48.292650563376284L27.66221428571429,-33.86270635468621L27.97264285714286,-61.46918255942211L28.15057142857143,104.41502228804998L28.214928571428572,-1.8294997896467162L28.2225,6.591694423130583L28.24142857142857,47.25951542173114L28.33607142857143,-16.49805147307262L28.339857142857145,67.7412862266813L28.385285714285715,79.40497183799744L28.404214285714286,57.717545781816746L28.514,58.169591665267944L29.093214285714286,67.7404601914542L29.30142857142857,29.49622654914856L30.160785714285716,27.445810079574585L30.42957142857143,91.41702833345957L30.44092857142857,121.22662006105695L30.89521428571429,64.68667616162982L31.156428571428574,-18.091450691223145L31.217,77.65727833339146L31.220785714285714,55.989980254854466L31.440357142857145,68.5121589728764L32.10285714285715,74.169757604599L32.62528571428572,73.65101506028857L32.63285714285714,44.85550282682691L32.82214285714286,69.45098968914577L33.09092857142857,-29.978279488427304L33.367285714285714,94.52225768566132L33.39378571428571,59.80304980278015L33.798857142857145,-0.534079517636969L33.90485714285714,38.55308139324188L34.20771428571428,59.967385343142915L34.44242857142857,39.466668776103425L34.813428571428574,62.64650556019373L34.94971428571428,100.91961254392352L35.271499999999996,116.86906067814145L35.58571428571429,72.50084057876042L35.934,71.02495813369751L35.998357142857145,36.001307010650635L36.07785714285714,66.55974514143807L36.585142857142856,40.28551977021353L36.60028571428572,89.96992829016276L36.63057142857143,59.35160260541098L37.054571428571435,89.29771370547158L37.107571428571426,-33.17094353267126L37.25142857142857,47.82843392235892L37.45585714285714,64.06314839635577L37.74735714285715,-14.821336371558047L38.04642857142857,134.3801492495196L38.054,49.09330604757581L38.25842857142857,34.39666158812387L38.364428571428576,56.18099900654383L39.16321428571429,87.27760287693569L39.21621428571428,95.93824878760748L39.44714285714286,72.93104578767505L39.9355,-16.060616561344716L40.42764285714286,36.55958557128906L40.59421428571429,-42.90944416182384L40.916000000000004,47.536381210599615L41.128,-84.44469308853154L41.1545,55.60639677728925L41.29078571428571,55.50664355073657L41.605,101.08034838948932L42.13878571428572,3.668439115796759L42.4,29.798221996852327L42.47192857142857,48.939095122473574L42.73692857142857,43.696878535406924L42.824,-2.918653760637567L43.06628571428572,54.56281873158045L43.61142857142857,64.32351621559687L43.81585714285715,102.53367779936109L43.925642857142854,62.561787690435125L44.27771428571428,62.91315579414368L44.28907142857143,126.99288400581904L44.3345,69.6815596137728L44.87585714285714,94.75772698436465L45.29985714285714,81.29877505983625L45.39828571428572,62.34993617875235L45.860142857142854,73.13428834506443L46.01535714285715,118.12706307002476L46.60592857142857,95.083222755364L46.87471428571428,66.22628457205636L47.13214285714285,98.80005541018076L47.169999999999995,31.6218273809978L47.181357142857145,101.95608592884881L47.23814285714286,51.51653722354343L47.36307142857143,30.928374597004485L48.05207142857142,99.47808255468097L48.41171428571428,48.5196965762547L48.449571428571424,64.88413647242955L48.582071428571425,50.62670782634189L49.18021428571429,13.478130340576172L49.46414285714285,38.966576439993716L49.895714285714284,68.79610289846148L50.05092857142857,117.43822926282883L50.588499999999996,41.30961399418967L50.60742857142857,41.728610890252256L50.6415,54.534612280981875L50.99357142857143,84.2506536245346L51.09957142857143,54.77775461333139L51.13742857142857,107.57799074479513L51.4895,65.02976875645774L51.61821428571429,48.758822407041265L51.84535714285715,131.8671776822635L52.53814285714286,89.27012867586953L52.64792857142857,119.47001825911659L52.727428571428575,101.44448593684606L52.75392857142857,73.96058123452323L52.9735,107.41134003230505L53.208214285714284,111.473951791014L53.98428571428571,127.63462622676577L54.196285714285715,32.94624982561383L54.31742857142857,-85.00812489645824L54.64678571428571,-3.441859926496222L54.77171428571428,81.65907798494611L55.09728571428572,-3.4685658727373565L55.1465,92.64488043955393L55.48721428571429,55.30510611193521L55.574285714285715,33.37324183327811L55.64242857142857,94.6128032718386L56.19135714285714,43.43760199206216L56.43364285714286,69.91454701764243L57.00528571428571,116.06282377243042L57.10371428571428,104.36359970058713L57.83057142857143,47.35935200963702L57.85707142857143,57.467378360884524L58.296214285714285,106.33244708606176L58.59907142857143,70.60078525543213L58.76185714285714,17.989525522504522L59.083642857142856,33.37656113079615L59.20099999999999,59.72206803730555L59.26157142857143,88.7218383210046L59.477357142857144,88.01494920253754L59.6515,108.03819088424954L59.65528571428571,68.9100502899715L59.738571428571426,100.18299752473831L59.969500000000004,56.71843722888401L60.003571428571426,97.76583278179169L60.200428571428574,78.25258449145726L60.21178571428571,80.77135535648891L60.355642857142854,54.311014396803714L60.44271428571428,107.64798775741033L60.465428571428575,20.491017852510716L60.473,109.99032431840897L60.64714285714286,110.19304018361228L60.95757142857143,85.83010118348258L61.0295,50.813217486654L61.06357142857143,99.26333991970334L61.321,59.710943085806704L61.32857142857143,45.07104497296469L61.55571428571429,113.50244043554578L62.157642857142854,71.66383196626391L62.35828571428572,100.51706435850687L62.434,82.70368668011257L62.55135714285714,14.781917061124517L62.585428571428565,136.6067897251674L62.71414285714285,73.62252821241107L63.02457142857143,106.13015181677682L63.16464285714286,82.54599731309074L63.444785714285715,101.85964442150933L63.876357142857145,134.41559487581253L64.23978571428572,110.79795942136221L64.25871428571428,113.46578417505536L64.395,59.370760560035706L64.51235714285714,46.13966173785074L64.87957142857142,99.67990039076123L64.978,105.07585804803031L65.05371428571428,83.59292496953692L65.455,70.04850113391876L65.89035714285714,53.43781937871661L66.09100000000001,108.72495581422534L66.89735714285715,86.95784388269696L67.67721428571429,51.15033079896655L67.91192857142858,95.44161973680768L68.20721428571429,106.72813311644964L68.27157142857143,76.77314782142639L68.3737857142857,97.97519860948834L68.45328571428571,-1.5556956359318268L68.49871428571429,120.72043855701175L68.5555,76.60628870555333L69.04764285714286,56.54977447646005L69.66471428571428,63.16696837970188L69.67985714285714,65.83233397347587L70.05085714285714,113.96087861912591L70.20985714285715,-41.724000249590205L70.40292857142857,79.51328097070966L70.49000000000001,125.80856168270111L70.71335714285715,95.05406522750854L71.20928571428573,92.84533039161138L71.48942857142856,38.906260711806155L72.23142857142857,115.4157994730132L72.76521428571428,129.46286574431826L73.01507142857143,66.83188964639392L73.04157142857143,127.12049129179545L73.14,102.9570511664663L73.20814285714286,77.4248138325555L73.4315,115.42480628831046L73.62078571428572,99.65248966217041L74.32114285714286,92.24053240673882L74.34385714285715,104.66004403999872L74.45742857142858,-89.12587261199955L74.4915,118.65287617274693L74.52935714285714,78.38020314489093L74.87764285714286,16.474516289574744L74.91171428571428,97.56512895652227L74.99121428571429,87.52189711162022L75.23349999999999,94.38115343877249L75.30542857142858,69.63053488731384L76.05499999999999,137.47167892115456L76.39571428571429,92.68541300296783L76.72128571428571,84.08487820625305L76.94085714285714,73.17696177959442L77.50492857142856,104.11914253234863L77.51249999999999,117.09318146535328L77.63364285714286,98.3556901386806L77.751,55.46756981100354L78.51571428571428,26.68534234591892L78.60657142857143,100.95893636771612L78.64064285714285,99.6415428008352L78.84885714285714,118.38903748989105L79.4735,104.7785649384771L79.85964285714286,95.19843951293402L79.93914285714285,46.99783655575342L80.44264285714286,114.52237417016711L80.71521428571428,110.19376391172409L80.7985,73.47814634868077L80.86285714285715,104.42990607874734L81.037,106.547113937991L81.41178571428571,78.38230991363525L82.13864285714286,-16.6666990688869L82.55885714285714,112.87844281537193L82.56264285714286,68.56773826054165L82.74435714285714,50.09160372189112L82.90335714285715,102.40004576104027L83.53557142857143,114.67307634013038L83.65292857142856,102.26450777905328L83.78164285714286,57.50218551499503L84.1905,25.612860645566656L84.31542857142857,15.938002620424534L84.39114285714287,29.60962830271039L84.482,56.91080491883414L84.48578571428571,135.73123785427637L84.49714285714285,100.20832800865173L84.56907142857143,99.35506393228259L84.81892857142857,58.19807093484061L84.96657142857143,82.64057455744062L85.00442857142858,41.39515032087054L85.34135714285713,122.55858670813697L85.39435714285715,70.54691108635494L85.50414285714285,107.47054174968176L85.53442857142858,65.30883225372858L85.64421428571428,95.63426782403674L86.019,110.42056741884775L86.8935,128.14088730301177L86.9995,67.23734411171505L87.13957142857143,70.35413416794368L87.27207142857142,90.18741427149091L87.31750000000001,63.1780023915427L87.55978571428571,106.20096349716187L88.07085714285715,112.66942180054528L88.27528571428572,56.588370782988406L88.77878571428572,115.8742755481175L88.78257142857143,117.77523268972125L89.31257142857143,101.98206056867328L89.77064285714286,119.40474631956644L89.79714285714286,80.63745428834643L90.27035714285714,88.22949859074184L90.69814285714286,-37.26289469855175L90.87607142857142,96.42116110665458L91.03885714285714,95.46356271845954L91.29628571428572,123.32484426668711L91.49692857142857,93.26378164972577L91.88307142857143,67.89742204121181L92.84464285714286,110.3481415595327L92.86735714285714,129.41663808482033L93.28,82.35779011249542L93.333,69.35867077963692L93.6245,86.64714096273694L93.64721428571428,98.818728353296L93.97278571428572,123.14290242961474L94.05985714285714,119.1957859311785L94.32485714285714,-51.12543303625927L94.40814285714286,85.24535918235779L94.53307142857143,100.31822479622704L94.62392857142858,95.2204355427197L94.77535714285715,78.66668580259595L94.8435,51.69124746322632L94.86621428571429,111.10114087377276L94.87757142857143,119.80744228192738L95.16528571428572,78.6365544625691L95.16907142857143,63.13169137069156L95.34700000000001,121.37449362874031L95.46435714285714,64.06387591362L95.56657142857142,84.53315009389605L95.57792857142857,104.5578847016607L95.59685714285715,97.06008798735482L95.86564285714284,86.85987155778068L95.9072857142857,85.8047593321119L96.09278571428571,123.89016496709414L96.30857142857143,88.53971649919238L96.47892857142857,85.18696076529366L96.63414285714285,109.47315806150436L96.68335714285715,125.80200455444198L96.68714285714286,108.68873530626297L96.77042857142858,79.28462835720607L96.831,73.89951525415692L97.2512142857143,113.08977142402105L97.33071428571428,140.51913506644112L97.59192857142857,70.04493933064597L97.60328571428572,118.70245723213468L97.60707142857143,119.17842782395225L97.78878571428572,120.00022677864347L97.87964285714287,49.52911920206888L98.37935714285715,98.65698080403465L98.73142857142857,66.9067405632564L98.9737142857143,83.25304557595935L99.2197857142857,134.23352231298173L99.30685714285714,83.07714554241726L99.62485714285714,97.1160765034812L99.63621428571429,104.04948275429862L99.65514285714286,91.03021270888192L99.90878571428571,73.56659274441856L99.97692857142857,72.65657474313464L100.26085714285715,80.31828640188489L100.4085,133.8004468211106L101.00664285714286,101.16984059129443L101.16942857142858,75.26625495297569L101.43821428571428,97.0306235381535L101.53664285714287,124.00914245843887L101.61614285714285,108.28220851080758L101.63885714285713,58.132783838680815L102.237,74.26344060897827L103.14178571428572,-9.058717591421939L103.191,51.245332428387236L103.31971428571428,45.37029707431793L103.46357142857143,75.46559468337468L103.56957142857142,52.16721805504389L104.00114285714285,123.54432334218707L104.13364285714285,114.51700873034339L104.27371428571428,78.76833360535758L104.61821428571429,20.7724609375L105.11035714285714,106.89669735091073L105.3942857142857,107.60892159598214L105.735,114.62464339392524L105.74635714285715,134.8145926254136L106.318,102.26730796269007L106.52242857142858,-46.61834233147759L106.56028571428571,93.14123288222723L106.68900000000001,118.35300265039716L106.72685714285714,45.297257372311186L106.82528571428571,117.2073827300753L106.99564285714285,131.2496197266238L107.08271428571427,117.03853052003043L107.36664285714286,73.04646337032318L107.43857142857142,88.87548087324414L107.6165,117.58706716980252L108.0442857142857,93.56993379763193L108.22978571428573,91.93986316238131L108.53642857142857,79.14568771634784L108.57807142857143,35.0645375932966L108.65378571428572,108.41264629364014L108.93014285714285,100.43867816243853L109.14592857142857,88.97418071542468L109.551,123.14726374404769L110.08478571428572,116.77037220341819L110.23242857142857,85.43312684127262L110.34221428571429,81.114948119436L110.67157142857143,128.54584538936615L110.8532857142857,103.1661479643413L110.86085714285714,120.03238531521387L111.00471428571429,63.83366216932025L111.0917857142857,93.67338902609688L111.36057142857143,119.47633098704475L111.89435714285715,140.27572086240565L112.13664285714286,113.17717201369149L112.50764285714286,86.90442441190991L112.53792857142858,82.69795748165676L113.19664285714285,97.88119731630597L113.32157142857143,67.54807734489441L113.60171428571428,97.74581847872052L113.74935714285715,97.19539104189191L114.07492857142857,121.73488559893198L114.44592857142857,113.00152206420898L114.49514285714285,117.48948512758527L114.52921428571429,94.98262833697456L114.82828571428571,111.45837837457657L115.05164285714285,129.78573184353965L115.48321428571428,98.79498173509326L115.54,101.57484793663025L115.83907142857143,72.6258750302451L116.16842857142858,109.53282584462848L116.64542857142857,112.98978705917087L116.77792857142856,99.00612846442633L117.05807142857142,57.32361033984592L117.5275,105.33918140615735L117.607,134.2497588310923L117.70164285714286,136.8441602310964L117.94392857142857,43.62373273713248L117.99692857142858,55.30991833550589L118.46257142857144,81.43361583777836L118.50421428571428,121.38468455416816L118.8827857142857,40.74390869481223L119.13642857142857,103.8037069610187L119.89357142857142,79.40269076824188L120.37435714285715,109.31172122274127L120.37814285714286,93.75562121186938L120.48792857142857,91.53412829978126L120.49549999999999,132.1373840357576L120.87028571428571,93.9782566513334L121.68042857142856,104.8208177770887L121.70314285714286,102.45200640814645L121.72585714285715,-4.635791540145874L121.741,73.67657668249947L121.74478571428571,101.06371779952731L122.18014285714285,112.95019420555658L123.05464285714285,110.35578427995954L123.42564285714286,74.7011331830706L123.4635,101.60768094233103L123.49000000000001,116.83925141607013L123.55814285714285,91.52678492239542L123.9405,61.344007151467466L124.26607142857142,-22.151451723916196L124.61057142857143,123.19320911169052L124.61814285714286,108.84181327479226L124.73928571428571,12.04028340748377L124.80742857142857,124.52498440657344L125.87878571428571,91.83572588648114L125.9772142857143,125.18765601090021L126.14378571428571,85.47118508815765L126.58671428571428,55.74036605017526L126.63592857142856,99.23003705910273L126.98421428571429,88.65963559491294L127.09400000000001,102.18104411874499L127.24164285714285,131.6908494744982L128.60071428571428,129.0451609492302L128.69914285714285,85.78445705345699L128.78242857142857,112.37670598711286L128.85435714285714,120.41821954931531L128.94899999999998,136.48030213373048L129.00957142857143,100.04719430208206L129.055,103.84899491071701L129.4752142857143,109.29661008289881L129.70992857142858,96.30728949819293L130.49735714285714,115.08656759772983L130.52385714285714,53.56222483089991L130.5579285714286,107.990561238357L130.74721428571428,129.10037837283951L130.75857142857143,140.1915884166956L130.83807142857142,57.02753354821887L130.95542857142857,133.19545369488853L131.02735714285714,116.72682347467966L131.54221428571427,128.99453787292754L131.84885714285713,113.14955667087011L131.85264285714285,105.41888243811471L131.98135714285715,43.91398181234088L132.5,85.93871344838824L132.51892857142857,123.95303079485893L132.61735714285714,95.81307792663574L132.79149999999998,120.51213369199208L132.8482857142857,57.19452907357898L133.1587142857143,116.54676295178275L133.3215,67.54616003377097L133.41992857142858,90.98041566780634L133.57514285714285,73.44503673485347L133.73792857142857,132.3718700494085L134.23764285714284,124.47137168901305L134.2792857142857,93.41418068749564L134.66542857142858,83.47799239839826L134.81685714285715,76.54401777471814L135.17271428571428,-51.15841381890435L135.22571428571428,117.44261331217628L135.29385714285715,128.66301734958375L136.48257142857142,102.74145218304224L136.68321428571429,80.9959156853812L137.82271428571428,142.67323032447268L137.9627857142857,132.11074818883623L138.9205714285714,122.26819175056048L139.01899999999998,135.2693951172488L139.3445714285714,126.04456146274295L139.59064285714285,107.73453957693917L139.61714285714285,77.37482733385903L139.64742857142855,72.73980726514544L139.82914285714284,119.68450323172978L139.8632142857143,133.31868261524608L140.08657142857143,82.00548229898725L140.1357857142857,30.144611154283787L140.73014285714288,111.62954196759634L140.85507142857145,124.22530223642077L141.0140714285714,136.00695931911469L141.71821428571428,112.64089327199119L142.07407142857141,109.28403009687152L142.12328571428571,122.89465421438217L142.3845,122.35068728242602L142.55864285714287,134.73466234973498L142.74414285714286,115.3198619229453L142.95614285714285,66.43060324873242L143.45585714285713,106.10909170763833L143.48614285714285,127.12401899269648L143.86471428571429,-79.40395331382756L143.91014285714286,104.76364325625556L143.98585714285713,125.75713909523826L144.43257142857144,122.10385999935012L144.53478571428573,111.71796562841959L144.54235714285713,122.0589471757412L144.88307142857144,75.9954924924033L145.14807142857143,99.93520211321967L145.2502857142857,115.47708522421973L145.27678571428572,76.90464656693595L145.38278571428572,82.62253061362675L145.89764285714287,122.57984195862498L146.24592857142858,105.5100646018982L146.61314285714286,69.96375295094082L146.64721428571428,104.4682447229113L146.69264285714286,128.9640541417258L146.76457142857143,123.04343149491719L146.82892857142858,132.62624342952455L147.03335714285717,129.27891186731202L147.07878571428571,94.29422649315424L147.17342857142856,109.24854468447822L147.31349999999998,129.9779157595975L147.7072142857143,71.39784104483468L147.77914285714286,136.9960512476308L147.80564285714286,106.65009173325129L147.97978571428573,120.09292081424168L148.17664285714287,126.05865521516118L148.18800000000002,95.73591183764594L148.32049999999998,113.92113041026252L149.0095,104.29081008263998L149.01328571428573,65.08590126037598L149.09278571428572,134.9890452027321L149.30100000000002,82.67210030555725L149.63035714285712,127.1271829349654L149.63414285714285,117.98913413286209L149.77800000000002,133.4407596332686L149.91049999999998,136.89663146649087L149.94457142857144,79.04695756094796L150.60707142857143,88.5872552054269L150.96671428571426,13.214950970240999L151.72764285714285,94.5872871194567L151.86392857142857,123.02696952223778L152.09864285714286,111.20458094562802L152.39014285714285,61.09449904305594L152.68921428571429,89.22983861821038L152.76871428571428,118.23157547201428L152.799,124.91224904571261L152.84821428571428,102.07476597172874L152.85578571428573,137.0985847647701L153.2495,69.75105266911643L153.25707142857144,109.26458795581546L153.5864285714286,79.38113049098423L153.59778571428572,75.11602263791221L154.34735714285713,65.01654461451939L154.37385714285713,114.0320843713624L154.62371428571427,124.024060351508L154.64264285714287,88.07463593142373L155.03635714285716,115.90541101353507L155.10071428571428,92.82655893053327L155.35435714285714,126.74784709726062L155.4300714285714,130.46569145577294L155.83514285714284,104.56443235703878L156.0887857142857,108.20589119195938L156.14557142857143,102.91123652458191L156.20614285714288,124.24790453059333L156.25535714285715,139.2142494916916L156.38785714285714,120.27911218575068L156.48628571428574,128.26856847746032L157.36835714285715,134.1704708167485L157.59550000000002,126.89824424045425L157.70907142857143,134.71000822952814L157.781,138.3799188626664L158.11792857142856,36.942396061761045L158.26557142857143,112.09809718813214L158.28071428571428,70.22560611792973L158.3147857142857,103.33712588889259L158.43214285714285,143.58793361272132L158.64792857142857,99.74745340006692L159.20064285714287,100.35069404329572L159.6397857142857,90.3174958739962L159.76471428571426,125.56466720359664L160.17735714285715,123.08106914588383L160.7225,120.80568501353264L160.85121428571426,142.23997105870927L161.89228571428572,80.46513879299164L162.05507142857144,108.71879465239388L162.3162857142857,121.7157769032887L163.51257142857145,141.65088763620173L163.72078571428574,78.7851574420929L163.77757142857143,76.53574984414237L164.16750000000002,92.18103892462594L164.44764285714285,17.036280870437622L164.50821428571427,105.66540469442096L164.54985714285715,133.41232204437256L164.67857142857144,85.93895595414298L164.98142857142858,97.1009994660105L165.21235714285714,131.1079073207719L165.21614285714284,145.03153911020075L165.4357142857143,108.02145040886742L165.51142857142855,73.59844435964312L165.67421428571427,103.55413822616849L165.96571428571428,45.7823143516268L166.49949999999998,74.6606650352478L166.58657142857143,81.74611481598446L166.59035714285716,99.57863908154624L167.10521428571428,121.66838597399848L167.46864285714287,118.83888566493988L167.692,122.6325566470623L167.73364285714285,102.3912056684494L168.80878571428573,108.24451023340225L169.22899999999998,138.7454726057393L169.335,135.15270059023584L169.52807142857142,119.24135427815574L169.89528571428573,140.71453597290176L170.01264285714285,112.65725862128394L170.03157142857143,114.85702832256045L170.09592857142857,143.99163370047296L170.43285714285713,97.25287627322334L171.20514285714287,133.26947099821908L171.47771428571428,133.9469979746001L171.8752142857143,90.59805987562451L172.20457142857143,134.5257398528712L172.25,96.20917697463717L172.37114285714284,126.13814216000694L172.47714285714287,134.77769196459224L172.8065,104.13573523078647L172.84435714285715,131.43005537561007L172.86707142857145,134.6935841483729L172.88221428571427,112.83074496473584L172.99957142857141,127.32694326128278L173.00714285714284,131.88815064089638L173.06014285714286,124.55143837417874L173.08285714285714,142.80019345453806L173.35921428571427,118.83633556536265L174.2942857142857,135.36150751795088L174.62742857142857,75.30318403244019L174.72585714285714,150.2579757720232L175.06657142857142,122.71864808457237L175.1687857142857,122.90574127435684L175.4337857142857,135.3982054591179L175.6912142857143,95.60264355795724L176.00164285714285,81.20037834984916L176.18335714285715,102.03421446255274L176.24392857142857,86.80593676226479L176.44835714285716,110.34216227701731L177.06542857142855,108.81128786291394L177.09571428571428,126.4854861838477L177.338,121.69194313458033L177.4402142857143,115.80036055190223L177.95128571428572,134.48779717513492L177.97778571428572,131.38926704440797L178.04592857142856,120.81566564100127L178.43585714285715,124.31154524002757L178.5267142857143,129.25019198656082L178.56457142857144,116.34893130404609L178.61757142857144,88.22711900302342L178.8522857142857,106.96077191829681L179.21192857142856,118.30508123976844L179.63214285714284,97.53008687496185L179.7002857142857,105.6284907715661L179.73814285714286,125.11628543053355L179.81764285714286,115.31596667425971L180.2302857142857,105.73654224191394L180.4952857142857,83.45478005068642L180.8662857142857,131.68195633377348L181.45307142857143,122.62014148916516L181.578,131.87058413028717L181.64235714285715,4.826949732644203L181.79000000000002,59.78437685966492L182.76671428571427,55.55046888760157L183.5087142857143,87.40049266815186L183.6752857142857,101.221759557724L183.80778571428573,112.38431081601553L183.92135714285715,107.92733544111252L184.0122142857143,52.124825017792844L184.13335714285714,83.3251758813858L184.40592857142857,120.05681777000427L184.50814285714287,146.4361925944686L184.5232857142857,113.86212951796395L184.58007142857142,102.53805805955615L184.67849999999999,137.9723263680935L184.7617857142857,82.81332959447589L185.40914285714285,68.76140184061867L185.42428571428573,122.90685149601526L185.4735,112.36919209786825L185.77635714285717,111.70878451211112L185.79149999999998,92.69222589901514L185.92778571428573,137.46466898918152L186.25714285714287,120.04279411690574L186.28364285714287,130.18019776684898L186.45021428571428,74.59500660215106L186.65085714285715,136.92704225650854L186.7985,120.69203885963984L187.02942857142858,90.99182101658411L187.39664285714284,125.4049354834216L187.5405,135.32707927908217L187.71464285714288,109.36683065550667L187.71842857142857,121.37670459917612L187.94178571428571,129.08644376482283L188.2597857142857,130.53948898826326L188.35064285714287,73.58067323480334L188.53614285714286,102.41513795512063L188.58914285714286,116.59760958807807L189.1494285714286,56.64673130852835L189.26299999999998,117.39721168790545L189.48635714285712,77.10758599213192L189.6794285714286,125.38703173824719L190.45928571428573,118.04107962335858L190.49335714285715,112.32477186407361L190.69400000000002,109.66089919635229L191.20507142857142,127.52439978293009L191.34135714285713,141.79080493109566L191.7312857142857,72.09585596833911L191.7767142857143,125.61273828574589L192.2045,55.9340751000813L192.46192857142856,99.69029403584344L192.59442857142858,112.52649497134345L193.16228571428573,140.4686948167426L193.19635714285712,120.52715010302406L193.29857142857142,86.05961772373745L193.41214285714287,122.51842358708382L193.54085714285716,145.22519984841347L193.71121428571428,99.41371622255869L193.7415,122.41469175049237L193.8475,121.90061175823212L194.27528571428573,139.30450994414943L194.33585714285715,78.72925228731972L194.57057142857144,146.026481016406L194.63492857142856,115.68809933321815L194.9605,123.4319541326591L194.99457142857142,122.0706764970507L195.7062857142857,113.65449154376984L195.90314285714285,140.64903668420655L196.99342857142858,116.40826943090983L197.07292857142858,100.67287430592947L197.60671428571428,105.38224891253881L197.7695,126.20613850014549L197.97014285714286,134.95418878964014L197.99664285714286,133.49588990637233L198.07235714285716,123.87737847226005L198.17078571428573,71.59755969047546L198.51149999999998,95.41381493636541L198.70835714285715,128.28212985396385L198.93550000000002,129.42216456362178L198.96200000000002,112.18676714386258L199.0717857142857,100.04248059647423L199.27242857142858,144.89384936328446L199.28757142857143,151.60335205189352L199.33678571428572,138.50344333691257L199.38978571428572,106.59121209383011L199.48064285714287,69.992300425257L199.5260714285714,117.42930201973233L199.64721428571428,71.08285638264248L199.67371428571428,113.43048064197812L199.72671428571428,120.28951719829014L200.15449999999998,126.44823313185147L200.19614285714286,119.20570593220847L200.21885714285716,114.11080022369113L200.37407142857145,74.17813920974731L200.38921428571427,102.76481988600321L200.4422142857143,42.66270516599927L200.5292857142857,143.79508657540595L200.93057142857145,77.28639609473092L201.09335714285714,117.17388662270136L201.32807142857143,40.29399989332471L201.38864285714286,142.71148560728346L201.5022142857143,92.60908431666238L202.23664285714287,98.0827688574791L202.407,126.53928456987653L202.5887142857143,108.10351966108594L202.619,95.2116106067385L203.02785714285713,130.67678134781974L203.10357142857143,115.57557287386484L203.838,124.17831674643925L204.36042857142857,113.00789162942343L205.45828571428572,112.26067456177302L205.6627142857143,108.39915312188012L205.75735714285713,122.73408698609896L206.23435714285714,132.77928540110588L206.541,114.2742453132357L206.7719285714286,131.4190952522414L206.84385714285713,132.20779785513878L207.06721428571427,147.72325068073613L207.50635714285715,138.4004920657192L207.80542857142856,138.4459912606648L208.23700000000002,135.36081031390597L208.4262857142857,119.08468419313431L208.56635714285716,109.77533917767661L208.77835714285715,132.23793108974183L208.83892857142857,141.74997965565748L208.9525,135.6490037739277L209.22885714285712,101.98145809343882L209.66042857142855,122.06938629065242L209.99357142857144,44.68396031856537L210.251,144.47907595123564L210.5955,129.75595857841628L210.60307142857144,143.9320227546351L210.6257857142857,107.19501732076917L211.31478571428573,132.93575466104915L211.9205,108.58704961197716L212.05678571428572,104.58168815714973L212.49214285714285,133.620452608381L212.5072857142857,101.0573520234653L212.85935714285714,145.26272382480758L213.06757142857143,110.68653181621008L213.2947142857143,129.33609775560242L213.65435714285715,130.81142319525992L214.42664285714287,104.72109486375537L214.83928571428572,139.82876096878732L215.00585714285714,119.52089141947883L215.02100000000002,145.08875246984618L215.0512857142857,127.91099942581992L215.61157142857144,128.57947411707468L215.7895,136.90129970226968L216.03935714285714,144.1199059826987L216.04692857142857,120.99938837971006L216.6829285714286,135.57709702849388L216.89114285714285,106.99316159316473L216.99714285714285,148.68774603679776L217.12207142857142,138.39872253154005L217.2129285714286,127.62907132932118L217.2507857142857,119.86321860551834L217.7164285714286,75.55932315758297L217.78457142857144,125.13092103174753L218.0685,111.2017125572477L218.21235714285714,125.75011400665555L218.36757142857144,98.46678050926752L218.74992857142857,124.94991511532238L218.82185714285714,120.0743236541748L219.21557142857142,125.66371754237584L219.3405,101.83953160047531L219.58278571428573,125.83777604784284L219.62064285714285,111.48588762113027L219.9197142857143,93.9201841013772L219.9765,105.81243138653892L220.1165714285714,122.32867988518305L221.08950000000002,55.054847751344944L221.1197857142857,109.78246278422219L221.34314285714285,125.2186588559832L221.39614285714288,98.59828683308191L222.02457142857145,133.79384422302246L222.24414285714286,142.42540933617522L222.27064285714286,139.48653135342258L222.2857857142857,130.99990510940552L222.30092857142859,105.01707313741956L222.69085714285714,105.22913305248532L222.83471428571428,121.9643718259675L222.95964285714285,110.14686557224817L223.0012857142857,70.56571286065238L223.44421428571428,49.25476941040583L223.62971428571427,109.1358249783516L223.6865,147.86251482048203L223.76600000000002,139.17451170299734L223.82278571428571,138.83414824519838L224.04992857142855,106.46309706142969L224.26950000000002,129.5712582383837L224.75028571428572,134.88735003556525L225.1212857142857,110.32631983075824L225.58692857142856,131.76196239250046L225.72321428571428,137.3795447328261L225.8065,140.38773483889443L225.97307142857142,105.84081971645355L226.02228571428572,139.58942578732967L226.07907142857144,115.17844317640576L226.4122142857143,140.95087204022067L226.6242142857143,129.4848030422415L226.90435714285715,100.28865046160561L227.07471428571426,135.95083439350128L227.8735,127.1962876021862L228.2747857142857,119.8871395247323L228.28614285714283,122.92639594418662L228.3845714285714,122.56914518134933L228.50192857142858,118.8677362714495L229.17957142857142,129.98123316253935L229.1985,145.44943431019783L229.22878571428572,115.68737939425877L229.84207142857144,146.09955718900477L230.04271428571428,135.3414932148797L230.1525,111.05781949417931L230.43642857142856,101.6806562287467L230.7885,97.57727697917394L230.79985714285715,131.4338805249759L231.27307142857143,125.54961100646427L232.07942857142856,127.79992989557128L232.20435714285713,120.068594455719L232.36335714285715,124.99930482251304L232.4845,108.23211970499582L232.56400000000002,125.67697957583836L232.80249999999998,129.76617602791106L232.84792857142855,115.89884441239494L232.90092857142855,139.93442337853568L232.92742857142858,84.20444112164634L232.935,90.53331083910805L233.2302857142857,117.34708877972193L233.90792857142856,135.20831966400146L234.03285714285713,136.33599226389612L234.16914285714284,150.61771754734218L234.29028571428572,131.15634216155325L234.71050000000002,151.89846817497164L234.85057142857144,141.8400411776134L235.6115,131.7294287298407L235.70235714285712,109.18702779497418L235.84621428571427,112.57243844441004L235.8689285714286,120.65096823658261L235.9522142857143,132.64607964243208L236.221,139.11449437056268L236.48978571428572,139.33213286527564L236.54657142857144,138.51152086257935L236.67528571428574,114.55731394461222L236.89107142857142,116.41280883550644L237.3112857142857,128.36788216233253L237.45514285714287,140.8890283363206L237.59142857142857,124.97403875419072L238.00785714285715,124.26444039174488L238.84071428571428,123.17011043855122L239.61678571428573,119.36317552839007L239.80985714285714,129.22080521498407L240.16571428571427,111.13806616408485L240.60485714285716,152.10267773589916L240.81307142857142,145.04107072310788L240.92664285714287,87.48620329584394L240.94178571428571,148.32657089616572L241.1007857142857,135.0662378157888L241.22192857142858,150.40871867537498L241.32414285714285,130.70152640768458L241.38850000000002,94.44247329235077L241.44528571428572,144.3516979089805L241.48314285714287,104.84403770310539L241.80114285714285,134.87624213525226L242.33871428571427,134.83866889987672L242.39928571428572,131.7207572545324L242.41064285714285,143.72532827939307L242.422,85.78424486092159L242.50528571428572,113.37034300395422L242.94064285714285,112.75208973884583L243.28514285714286,133.2621541449002L243.46307142857142,108.74214340959277L243.64478571428572,137.84418670620238L243.92114285714285,120.44126138516835L244.46628571428573,136.83902214041777L244.648,127.81294942327908L244.70857142857142,108.57004010677338L244.82214285714284,115.55278112207141L245.00764285714286,109.76340713671274L245.05685714285713,113.02981187616076L245.0757857142857,86.91029001985278L245.1287857142857,134.26087999343872L245.38242857142856,129.16614100762774L245.549,85.07900023460388L245.6512142857143,112.64739545754023L246.0827857142857,130.2938950742994" style="fill: none;" fill="none"></path></g></g></g></g></g></g><g transform="translate(65, 178)" clip-path="url(#clip_1)"><clipPath id="clip_1"><rect width="265" height="22"></rect></clipPath><g><g><line x1="0" y1="0" x2="0" y2="5" style="visibility: inherit;" fill="rgb(0, 0, 0)" stroke="rgb(204, 204, 204)" stroke-width="1px"></line><line x1="18.928571428571427" y1="0" x2="18.928571428571427" y2="5" style="visibility: inherit;" fill="rgb(0, 0, 0)" stroke="rgb(204, 204, 204)" stroke-width="1px"></line><line x1="37.857142857142854" y1="0" x2="37.857142857142854" y2="5" style="visibility: inherit;" fill="rgb(0, 0, 0)" stroke="rgb(204, 204, 204)" stroke-width="1px"></line><line x1="56.785714285714285" y1="0" x2="56.785714285714285" y2="5" style="visibility: inherit;" fill="rgb(0, 0, 0)" stroke="rgb(204, 204, 204)" stroke-width="1px"></line><line x1="75.71428571428571" y1="0" x2="75.71428571428571" y2="5" style="visibility: inherit;" fill="rgb(0, 0, 0)" stroke="rgb(204, 204, 204)" stroke-width="1px"></line><line x1="94.64285714285714" y1="0" x2="94.64285714285714" y2="5" style="visibility: inherit;" fill="rgb(0, 0, 0)" stroke="rgb(204, 204, 204)" stroke-width="1px"></line><line x1="113.57142857142857" y1="0" x2="113.57142857142857" y2="5" style="visibility: inherit;" fill="rgb(0, 0, 0)" stroke="rgb(204, 204, 204)" stroke-width="1px"></line><line x1="132.5" y1="0" x2="132.5" y2="5" style="visibility: inherit;" fill="rgb(0, 0, 0)" stroke="rgb(204, 204, 204)" stroke-width="1px"></line><line x1="151.42857142857142" y1="0" x2="151.42857142857142" y2="5" style="visibility: inherit;" fill="rgb(0, 0, 0)" stroke="rgb(204, 204, 204)" stroke-width="1px"></line><line x1="170.35714285714286" y1="0" x2="170.35714285714286" y2="5" style="visibility: inherit;" fill="rgb(0, 0, 0)" stroke="rgb(204, 204, 204)" stroke-width="1px"></line><line x1="189.28571428571428" y1="0" x2="189.28571428571428" y2="5" style="visibility: inherit;" fill="rgb(0, 0, 0)" stroke="rgb(204, 204, 204)" stroke-width="1px"></line><line x1="208.21428571428572" y1="0" x2="208.21428571428572" y2="5" style="visibility: inherit;" fill="rgb(0, 0, 0)" stroke="rgb(204, 204, 204)" stroke-width="1px"></line><line x1="227.14285714285714" y1="0" x2="227.14285714285714" y2="5" style="visibility: inherit;" fill="rgb(0, 0, 0)" stroke="rgb(204, 204, 204)" stroke-width="1px"></line><line x1="246.07142857142858" y1="0" x2="246.07142857142858" y2="5" style="visibility: inherit;" fill="rgb(0, 0, 0)" stroke="rgb(204, 204, 204)" stroke-width="1px"></line><line x1="265" y1="0" x2="265" y2="5" style="visibility: inherit;" fill="rgb(0, 0, 0)" stroke="rgb(204, 204, 204)" stroke-width="1px"></line></g><g transform="translate(0, 8)"><text x="0" y="0" dx="0em" dy="0.95em" style="text-anchor: middle; visibility: hidden; font-family: Roboto, sans-serif; font-size: 12px; font-weight: 200;" fill="rgb(50, 49, 63)" stroke="none" stroke-width="1px">-5k</text><text x="18.928571428571427" y="0" dx="0em" dy="0.95em" style="text-anchor: middle; visibility: inherit; font-family: Roboto, sans-serif; font-size: 12px; font-weight: 200;" fill="rgb(50, 49, 63)" stroke="none" stroke-width="1px">0</text><text x="37.857142857142854" y="0" dx="0em" dy="0.95em" style="text-anchor: middle; visibility: hidden; font-family: Roboto, sans-serif; font-size: 12px; font-weight: 200;" fill="rgb(50, 49, 63)" stroke="none" stroke-width="1px">5k</text><text x="56.785714285714285" y="0" dx="0em" dy="0.95em" style="text-anchor: middle; visibility: inherit; font-family: Roboto, sans-serif; font-size: 12px; font-weight: 200;" fill="rgb(50, 49, 63)" stroke="none" stroke-width="1px">10k</text><text x="75.71428571428571" y="0" dx="0em" dy="0.95em" style="text-anchor: middle; visibility: hidden; font-family: Roboto, sans-serif; font-size: 12px; font-weight: 200;" fill="rgb(50, 49, 63)" stroke="none" stroke-width="1px">15k</text><text x="94.64285714285714" y="0" dx="0em" dy="0.95em" style="text-anchor: middle; visibility: inherit; font-family: Roboto, sans-serif; font-size: 12px; font-weight: 200;" fill="rgb(50, 49, 63)" stroke="none" stroke-width="1px">20k</text><text x="113.57142857142857" y="0" dx="0em" dy="0.95em" style="text-anchor: middle; visibility: hidden; font-family: Roboto, sans-serif; font-size: 12px; font-weight: 200;" fill="rgb(50, 49, 63)" stroke="none" stroke-width="1px">25k</text><text x="132.5" y="0" dx="0em" dy="0.95em" style="text-anchor: middle; visibility: inherit; font-family: Roboto, sans-serif; font-size: 12px; font-weight: 200;" fill="rgb(50, 49, 63)" stroke="none" stroke-width="1px">30k</text><text x="151.42857142857142" y="0" dx="0em" dy="0.95em" style="text-anchor: middle; visibility: hidden; font-family: Roboto, sans-serif; font-size: 12px; font-weight: 200;" fill="rgb(50, 49, 63)" stroke="none" stroke-width="1px">35k</text><text x="170.35714285714286" y="0" dx="0em" dy="0.95em" style="text-anchor: middle; visibility: inherit; font-family: Roboto, sans-serif; font-size: 12px; font-weight: 200;" fill="rgb(50, 49, 63)" stroke="none" stroke-width="1px">40k</text><text x="189.28571428571428" y="0" dx="0em" dy="0.95em" style="text-anchor: middle; visibility: hidden; font-family: Roboto, sans-serif; font-size: 12px; font-weight: 200;" fill="rgb(50, 49, 63)" stroke="none" stroke-width="1px">45k</text><text x="208.21428571428572" y="0" dx="0em" dy="0.95em" style="text-anchor: middle; visibility: inherit; font-family: Roboto, sans-serif; font-size: 12px; font-weight: 200;" fill="rgb(50, 49, 63)" stroke="none" stroke-width="1px">50k</text><text x="227.14285714285714" y="0" dx="0em" dy="0.95em" style="text-anchor: middle; visibility: hidden; font-family: Roboto, sans-serif; font-size: 12px; font-weight: 200;" fill="rgb(50, 49, 63)" stroke="none" stroke-width="1px">55k</text><text x="246.07142857142858" y="0" dx="0em" dy="0.95em" style="text-anchor: middle; visibility: inherit; font-family: Roboto, sans-serif; font-size: 12px; font-weight: 200;" fill="rgb(50, 49, 63)" stroke="none" stroke-width="1px">60k</text><text x="265" y="0" dx="0em" dy="0.95em" style="text-anchor: middle; visibility: hidden; font-family: Roboto, sans-serif; font-size: 12px; font-weight: 200;" fill="rgb(50, 49, 63)" stroke="none" stroke-width="1px">65k</text></g><line x1="0" y1="0" x2="265" y2="0" fill="rgb(0, 0, 0)" stroke="rgb(204, 204, 204)" stroke-width="1px"></line></g></g></g></g></svg>