<svg viewBox="0 0 2653 400" xmlns="http://www.w3.org/2000/svg"><g><g><g><g><g><line x1="54" y1="378" x2="49" y2="378" style="visibility: inherit;" fill="rgb(0, 0, 0)" stroke="rgb(204, 204, 204)" stroke-width="1px"></line><line x1="54" y1="340.19999999999993" x2="49" y2="340.19999999999993" style="visibility: inherit;" fill="rgb(0, 0, 0)" stroke="rgb(204, 204, 204)" stroke-width="1px"></line><line x1="54" y1="302.39999999999986" x2="49" y2="302.39999999999986" style="visibility: inherit;" fill="rgb(0, 0, 0)" stroke="rgb(204, 204, 204)" stroke-width="1px"></line><line x1="54" y1="264.59999999999974" x2="49" y2="264.59999999999974" style="visibility: inherit;" fill="rgb(0, 0, 0)" stroke="rgb(204, 204, 204)" stroke-width="1px"></line><line x1="54" y1="226.79999999999964" x2="49" y2="226.79999999999964" style="visibility: inherit;" fill="rgb(0, 0, 0)" stroke="rgb(204, 204, 204)" stroke-width="1px"></line><line x1="54" y1="188.99999999999957" x2="49" y2="188.99999999999957" style="visibility: inherit;" fill="rgb(0, 0, 0)" stroke="rgb(204, 204, 204)" stroke-width="1px"></line><line x1="54" y1="151.1999999999995" x2="49" y2="151.1999999999995" style="visibility: inherit;" fill="rgb(0, 0, 0)" stroke="rgb(204, 204, 204)" stroke-width="1px"></line><line x1="54" y1="113.39999999999942" x2="49" y2="113.39999999999942" style="visibility: inherit;" fill="rgb(0, 0, 0)" stroke="rgb(204, 204, 204)" stroke-width="1px"></line><line x1="54" y1="75.59999999999931" x2="49" y2="75.59999999999931" style="visibility: inherit;" fill="rgb(0, 0, 0)" stroke="rgb(204, 204, 204)" stroke-width="1px"></line><line x1="54" y1="37.800000000000075" x2="49" y2="37.800000000000075" style="visibility: inherit;" fill="rgb(0, 0, 0)" stroke="rgb(204, 204, 204)" stroke-width="1px"></line><line x1="54" y1="0" x2="49" y2="0" style="visibility: inherit;" fill="rgb(0, 0, 0)" stroke="rgb(204, 204, 204)" stroke-width="1px"></line></g><g transform="translate(44, 0)"><text x="0" y="378" dx="0em" dy="0.3em" style="text-anchor: end; visibility: hidden; font-family: Roboto, sans-serif; font-size: 12px; font-weight: 200;" fill="rgb(50, 49, 63)" stroke="none" stroke-width="1px">1.54</text><text x="0" y="340.19999999999993" dx="0em" dy="0.3em" style="text-anchor: end; visibility: inherit; font-family: Roboto, sans-serif; font-size: 12px; font-weight: 200;" fill="rgb(50, 49, 63)" stroke="none" stroke-width="1px">1.55</text><text x="0" y="302.39999999999986" dx="0em" dy="0.3em" style="text-anchor: end; visibility: inherit; font-family: Roboto, sans-serif; font-size: 12px; font-weight: 200;" fill="rgb(50, 49, 63)" stroke="none" stroke-width="1px">1.56</text><text x="0" y="264.59999999999974" dx="0em" dy="0.3em" style="text-anchor: end; visibility: inherit; font-family: Roboto, sans-serif; font-size: 12px; font-weight: 200;" fill="rgb(50, 49, 63)" stroke="none" stroke-width="1px">1.57</text><text x="0" y="226.79999999999964" dx="0em" dy="0.3em" style="text-anchor: end; visibility: inherit; font-family: Roboto, sans-serif; font-size: 12px; font-weight: 200;" fill="rgb(50, 49, 63)" stroke="none" stroke-width="1px">1.58</text><text x="0" y="188.99999999999957" dx="0em" dy="0.3em" style="text-anchor: end; visibility: inherit; font-family: Roboto, sans-serif; font-size: 12px; font-weight: 200;" fill="rgb(50, 49, 63)" stroke="none" stroke-width="1px">1.59</text><text x="0" y="151.1999999999995" dx="0em" dy="0.3em" style="text-anchor: end; visibility: inherit; font-family: Roboto, sans-serif; font-size: 12px; font-weight: 200;" fill="rgb(50, 49, 63)" stroke="none" stroke-width="1px">1.6</text><text x="0" y="113.39999999999942" dx="0em" dy="0.3em" style="text-anchor: end; visibility: inherit; font-family: Roboto, sans-serif; font-size: 12px; font-weight: 200;" fill="rgb(50, 49, 63)" stroke="none" stroke-width="1px">1.61</text><text x="0" y="75.59999999999931" dx="0em" dy="0.3em" style="text-anchor: end; visibility: inherit; font-family: Roboto, sans-serif; font-size: 12px; font-weight: 200;" fill="rgb(50, 49, 63)" stroke="none" stroke-width="1px">1.62</text><text x="0" y="37.800000000000075" dx="0em" dy="0.3em" style="text-anchor: end; visibility: inherit; font-family: Roboto, sans-serif; font-size: 12px; font-weight: 200;" fill="rgb(50, 49, 63)" stroke="none" stroke-width="1px">1.63</text><text x="0" y="0" dx="0em" dy="0.3em" style="text-anchor: end; visibility: hidden; font-family: Roboto, sans-serif; font-size: 12px; font-weight: 200;" fill="rgb(50, 49, 63)" stroke="none" stroke-width="1px">1.64</text></g><line x1="54" y1="0" x2="54" y2="378" fill="rgb(0, 0, 0)" stroke="rgb(204, 204, 204)" stroke-width="1px"></line></g></g><g transform="translate(54, 0)" clip-path="url(#clip_0)"><clipPath id="clip_0"><rect width="2599" height="378"></rect></clipPath><g><g><g><line x1="0" y1="0" x2="0" y2="378" fill="rgb(0, 0, 0)" stroke="rgb(60, 60, 60)" stroke-width="1px" opacity="0.25"></line><line x1="185.64285714285714" y1="0" x2="185.64285714285714" y2="378" fill="rgb(0, 0, 0)" stroke="rgb(60, 60, 60)" stroke-width="1px" opacity="0.25"></line><line x1="371.2857142857143" y1="0" x2="371.2857142857143" y2="378" fill="rgb(0, 0, 0)" stroke="rgb(60, 60, 60)" stroke-width="1px" opacity="0.25"></line><line x1="556.9285714285714" y1="0" x2="556.9285714285714" y2="378" fill="rgb(0, 0, 0)" stroke="rgb(60, 60, 60)" stroke-width="1px" opacity="0.25"></line><line x1="742.5714285714286" y1="0" x2="742.5714285714286" y2="378" fill="rgb(0, 0, 0)" stroke="rgb(60, 60, 60)" stroke-width="1px" opacity="0.25"></line><line x1="928.2142857142858" y1="0" x2="928.2142857142858" y2="378" fill="rgb(0, 0, 0)" stroke="rgb(60, 60, 60)" stroke-width="1px" opacity="0.25"></line><line x1="1113.857142857143" y1="0" x2="1113.857142857143" y2="378" fill="rgb(0, 0, 0)" stroke="rgb(60, 60, 60)" stroke-width="1px" opacity="0.25"></line><line x1="1299.5" y1="0" x2="1299.5" y2="378" fill="rgb(0, 0, 0)" stroke="rgb(60, 60, 60)" stroke-width="1px" opacity="0.25"></line><line x1="1485.142857142857" y1="0" x2="1485.142857142857" y2="378" fill="rgb(0, 0, 0)" stroke="rgb(60, 60, 60)" stroke-width="1px" opacity="0.25"></line><line x1="1670.7857142857144" y1="0" x2="1670.7857142857144" y2="378" fill="rgb(0, 0, 0)" stroke="rgb(60, 60, 60)" stroke-width="1px" opacity="0.25"></line><line x1="1856.4285714285716" y1="0" x2="1856.4285714285716" y2="378" fill="rgb(0, 0, 0)" stroke="rgb(60, 60, 60)" stroke-width="1px" opacity="0.25"></line><line x1="2042.0714285714284" y1="0" x2="2042.0714285714284" y2="378" fill="rgb(0, 0, 0)" stroke="rgb(60, 60, 60)" stroke-width="1px" opacity="0.25"></line><line x1="2227.714285714286" y1="0" x2="2227.714285714286" y2="378" fill="rgb(0, 0, 0)" stroke="rgb(60, 60, 60)" stroke-width="1px" opacity="0.25"></line><line x1="2413.357142857143" y1="0" x2="2413.357142857143" y2="378" fill="rgb(0, 0, 0)" stroke="rgb(60, 60, 60)" stroke-width="1px" opacity="0.25"></line><line x1="2599" y1="0" x2="2599" y2="378" fill="rgb(0, 0, 0)" stroke="rgb(60, 60, 60)" stroke-width="1px" opacity="0.25"></line></g><g><line x1="0" y1="378" x2="2599" y2="378" fill="rgb(0, 0, 0)" stroke="rgb(60, 60, 60)" stroke-width="1px" opacity="0.25"></line><line x1="0" y1="340.19999999999993" x2="2599" y2="340.19999999999993" fill="rgb(0, 0, 0)" stroke="rgb(60, 60, 60)" stroke-width="1px" opacity="0.25"></line><line x1="0" y1="302.39999999999986" x2="2599" y2="302.39999999999986" fill="rgb(0, 0, 0)" stroke="rgb(60, 60, 60)" stroke-width="1px" opacity="0.25"></line><line x1="0" y1="264.59999999999974" x2="2599" y2="264.59999999999974" fill="rgb(0, 0, 0)" stroke="rgb(60, 60, 60)" stroke-width="1px" opacity="0.25"></line><line x1="0" y1="226.79999999999964" x2="2599" y2="226.79999999999964" fill="rgb(0, 0, 0)" stroke="rgb(60, 60, 60)" stroke-width="1px" opacity="0.25"></line><line x1="0" y1="188.99999999999957" x2="2599" y2="188.99999999999957" fill="rgb(0, 0, 0)" stroke="rgb(60, 60, 60)" stroke-width="1px" opacity="0.25"></line><line x1="0" y1="151.1999999999995" x2="2599" y2="151.1999999999995" fill="rgb(0, 0, 0)" stroke="rgb(60, 60, 60)" stroke-width="1px" opacity="0.25"></line><line x1="0" y1="113.39999999999942" x2="2599" y2="113.39999999999942" fill="rgb(0, 0, 0)" stroke="rgb(60, 60, 60)" stroke-width="1px" opacity="0.25"></line><line x1="0" y1="75.59999999999931" x2="2599" y2="75.59999999999931" fill="rgb(0, 0, 0)" stroke="rgb(60, 60, 60)" stroke-width="1px" opacity="0.25"></line><line x1="0" y1="37.800000000000075" x2="2599" y2="37.800000000000075" fill="rgb(0, 0, 0)" stroke="rgb(60, 60, 60)" stroke-width="1px" opacity="0.25"></line><line x1="0" y1="0" x2="2599" y2="0" fill="rgb(0, 0, 0)" stroke="rgb(60, 60, 60)" stroke-width="1px" opacity="0.25"></line></g></g></g><g><g><line x1="0" y1="6199.200000000007" x2="2599" y2="6199.200000000007" fill="rgb(0, 0, 0)" stroke="rgb(153, 153, 153)" stroke-width="1.5px"></line></g></g><g><g><line x1="185.64285714285714" y1="0" x2="185.64285714285714" y2="378" fill="rgb(0, 0, 0)" stroke="rgb(153, 153, 153)" stroke-width="1.5px"></line></g></g><g><g><g><g><g><path stroke="rgb(255, 112, 67)" stroke-width="2px" d="M187.35077142857142,-74.46662190745161L188.3161142857143,312.58259096519924L189.17007142857142,305.9582382506968L191.88045714285713,240.38505952470334L194.18242857142857,193.76711034703695L194.36807142857143,173.12486455694236L195.14777142857142,159.54627877551982L195.81608571428572,181.21666696286252L197.11558571428571,184.60327190575887L197.18984285714288,188.13359576332783L197.48687142857142,186.51953569332298L203.27892857142857,172.57160661950985L205.5809,204.95541198842608L207.17742857142855,199.68440783539864L207.43732857142857,279.37382687875936L209.2195,260.9757153044022L209.70217142857143,251.9790315919957L212.1897857142857,244.43880517280297L212.4868142857143,291.5169505479832L215.4571,282.7163139414129L215.67987142857143,277.3708311398227L216.71947142857144,247.34581231256266L221.7318285714286,237.6392815654169L223.32835714285713,254.16062520760897L225.25904285714284,262.7560112426446L226.66992857142858,286.24614454983146L229.4917,401.8246777485781L256.8554571428572,395.7001323358853L257.9693142857143,360.53386861312526L261.2737571428571,329.56862098863917L263.50147142857145,305.84179362963266L266.88017142857143,285.733171649803L267.3257142857143,258.7643643750803L268.5138285714286,245.88318998530076L269.6648142857143,228.19348554856347L271.3356,217.4624329385502L274.38014285714286,203.8599565578196L276.1251857142857,197.24192473569016L276.7563714285714,185.30004220894347L276.8306285714286,180.97989060270106L277.01627142857143,164.65031231356502L277.94448571428575,152.19619606578723L277.9816142857143,145.85626022235604L278.42715714285714,148.160939625771L278.6128,149.30670001012066L279.6895285714286,159.4440759559231L285.3702,153.87982584446272L287.41227142857144,165.07929609892872L295.84045714285713,153.74102962749092L298.4765857142857,152.3449819859332L298.58797142857145,142.85329647372618L303.04339999999996,131.8899793796132L305.6052714285714,127.9485134939118L306.19932857142857,132.77199383127126L306.23645714285715,119.58804528463509L308.3899142857143,134.11024116390794L314.88741428571427,135.7973860192065L320.01115714285714,139.99072540461313L320.08541428571425,143.63525714303177L321.9418428571429,143.03873140949167L324.5779714285714,145.83739527308532L327.28835714285714,137.78211118631273L327.54825714285715,131.66110852183536L331.52101428571433,131.43882254809273L332.5606142857143,124.34473933676276L335.5309,125.28258163120513L337.8328714285714,143.20609001334572L341.4714714285714,140.415260149526L342.80809999999997,127.19844580464901L345.96402857142857,114.40902377814362L349.0457,121.87193476917328L352.4615285714286,130.99493171052092L353.0927142857143,125.70183126129531L353.8724142857143,115.95370304388643L358.84764285714283,110.56119714746536L358.99615714285716,110.14815866087946L359.2931857142857,106.67107765024974L363.45158571428567,106.08695737539375L363.9713857142857,101.47061912712233L365.3822714285714,124.18781141026636L367.38721428571426,131.85801991057775L370.2461142857143,347.8407190201002L373.17927142857144,303.28154563550174L373.2535285714286,290.2810901956612L375.2584714285714,255.0620127073593L376.29807142857146,233.7009207990435L384.13219999999995,237.7791068995753L384.652,229.29568262197108L386.91684285714285,206.01130653538482L391.7064285714286,203.79858331443964L396.5331428571429,188.14377333270974L398.1668,173.9770329404811L401.3227285714286,171.3004199971489L403.4019285714286,161.15528785116192L403.66182857142854,158.17736648380958L404.99845714285715,153.31033340829296L408.0801285714286,150.70445771307308L413.31525714285715,130.82117217332194L415.8771285714286,131.84395577856242L416.58257142857144,336.54797152025316L419.18157142857143,293.0774374515911L420.0355285714286,267.2501767148131L422.4117571428572,245.3572304571124L427.7582714285714,225.271738997805L429.7632142857143,220.0593901144421L430.83994285714283,393.95082717474907L434.2929,359.5087207315592L434.4042857142857,454.49087087973965L434.8498285714286,403.70081657740116L440.15921428571426,371.28753311391665L444.3176142857143,343.9233791250269L445.2829571428572,309.08668540463384L449.81264285714286,279.2169919449583L451.3349142857143,252.78167345675993L457.12697142857144,242.432432032934L459.7631,230.855120836484L462.28784285714283,208.53091409719153L462.65912857142854,196.71037001021392L462.7705142857143,180.47241422196456L463.3274428571429,186.96799954980878L464.5526857142857,184.93955674052265L471.3100857142857,172.90511446046293L474.8373,156.09948189622844L475.20858571428573,155.32609039531664L476.5080857142857,145.47729663694568L482.3744,135.90813242719142L485.1590428571429,123.28589962757819L489.3917,113.46733435134335L490.9139714285715,110.06251000381828L496.18622857142856,125.64754744638083L496.3718714285714,121.85089569140551L496.70602857142853,110.77212520886715L500.1589857142857,111.79040142964908L501.19858571428574,113.05602097560286L501.56987142857145,120.55269455204883L505.0228285714286,113.22802541640401L506.2852,106.80015444335693L508.5129142857143,101.82948224729729L515.3074428571429,99.63326362822298L516.3841714285714,97.78585125338682L517.1638714285715,88.48684633690452L517.4237714285714,90.62922465932587L519.5772285714286,90.46078137750465L521.8792,88.70620180206055L529.4905571428571,90.83952056403075L531.5697571428572,84.22477786259827L532.7578714285714,93.94789558694605L535.9880571428571,99.76437704428682L537.2133,106.88716473143246L540.4063571428571,95.08914229350678L540.8890285714286,100.86831447851021L544.2306,101.51439209561308L545.0845571428572,98.23667282339133L545.7528714285714,104.22672595333736L551.1365142857143,95.13906282887453L553.5127428571428,91.84189271678777L559.1191571428571,87.7037277750746L560.0845,79.14458879179755L567.2131857142857,68.14774131291506L567.4730857142857,80.99167087773515L571.78,84.18468755392638L574.7502857142857,89.28741202459193L576.3468142857142,86.82739626549765L579.5027428571428,98.31966376103573L580.6537285714286,108.42383815917881L581.2477857142857,109.63641306631358L583.3641142857143,105.56489101946518L585.0720285714285,93.11115412746436L585.1091571428572,92.66201522217007L585.9259857142857,189.73338093317415L588.1908285714286,175.58959285802217L588.5249857142857,171.30202878158093L590.4556714285715,168.56238319488295L590.5670571428572,164.5178530089686L591.9779428571428,168.5330685675722L592.8319,153.49725854677683L593.0546714285715,292.88825255759326L593.1289285714286,271.0694027125591L594.8368428571429,394.2784109067222L597.8813857142857,351.4830353113307L598.5868285714286,315.80680203261244L598.9209857142857,290.46913866436296L601.4457285714286,276.07188235384496L601.5199857142857,262.68800024018617L603.7477,348.2408712937712L609.6511428571429,318.6966669916056L611.6189571428571,287.97044092429354L612.3615285714286,264.94180171616324L613.5125142857142,239.68775680842936L613.8466714285714,226.73300384805935L615.1090428571429,203.3843378912883L618.1535857142857,198.20825670859037L619.5273428571428,183.94783923005787L622.2748571428572,161.87464891501773L626.5075142857143,155.16937641725426L630.0718571428572,154.69554666507122L630.2574999999999,147.74255466690403L631.5941285714285,123.77637455987141L632.7451142857143,123.71466791512658L636.3465857142857,135.2224082451613L637.3119285714286,144.0325430038615L638.0545,155.6271651001532L641.9901285714286,143.91434105516691L646.2599142857143,137.59398210538606L648.2277285714287,130.17337306228407L656.1361142857144,123.71228323462854L663.7846000000001,120.00918470632443L666.0865714285715,114.72787374475344L668.9826,112.82482236339979L669.6137857142857,111.8827959136123L670.6162571428572,109.8196487742868L671.3959571428571,116.35768617201154L671.8415,118.48570493447453L672.3984285714287,110.79188611718311L677.2251428571428,100.54577391699922L683.2771,92.61855769694728L683.4256142857142,105.39663638005105L687.0642142857142,100.81626700192297L688.6236142857142,118.17469232625658L690.5171714285715,123.36131311803148L691.3711285714286,120.62191173099352L693.5617142857143,132.11917779768018L698.4255571428571,112.24016517678992L701.1730714285715,108.92062530811901L708.4502714285713,117.82482919302868L713.6854000000001,110.48282670079249L716.1358857142857,114.08039988818685L716.3957857142857,99.91543209513648L717.3611285714286,97.83387260798496L718.0294428571428,92.72488710701755L720.2200285714285,93.03831164961468L722.0764571428572,91.3429904138535L728.945242857143,80.43136470472376L729.1680142857142,90.19914235636936L730.2818714285714,91.55192432749304L730.6160285714285,90.26812081087402L730.9873142857143,79.0073714723608L734.4031428571429,84.98317675440255L734.7373,80.82290767280254L735.5169999999999,86.59563401463954L737.8932285714286,81.77966257950365L738.5986714285714,73.10869081702384L745.9501285714285,74.85763454201529L749.2917,75.13038660738926L752.4847571428571,80.02554811671098L754.6382142857143,88.073864130116L760.1703714285715,84.4981461216924L760.2446285714286,89.9534977396396L761.4327428571428,88.206546882676L762.5837285714287,93.1969943835776L770.0837,103.96736536222274L770.9747857142858,100.33986173535035L771.3089428571428,304.99221461926265L773.3510142857143,283.7547638547343L779.4772285714286,265.3402747096688L783.2643428571429,239.65988592272055L784.0440428571429,215.3125276562346L788.9821428571428,194.8912247792286L791.6554,179.9246693181834L792.4722285714286,167.51761409823874L793.1034142857143,157.85328576293207L794.8113285714286,144.94827108282942L798.4870571428571,137.43372699630564L805.6157428571429,138.02003226239637L809.7370142857143,129.77070959885208L809.7741428571428,133.16450128741306L811.5563142857143,138.1676988715292L813.1157142857143,133.99975854574103L819.3161857142858,116.73828240356673L820.4671714285714,111.55761963313155L821.7295428571427,111.8764998807627L825.7394285714286,109.39098170014967L826.9646714285715,103.58114568738524L827.7072428571429,100.24347352544686L828.5983285714286,102.94426103341831L828.635457142857,109.22446329305424L828.7468428571428,102.20741566571824L829.4522857142856,98.23938288653031L831.9027714285714,295.1150021226614L833.3507857142856,265.92523959669825L833.7220714285714,242.7887896446567L837.0265142857144,234.56724489231328L837.5463142857143,210.7182657243895L838.6230428571428,197.88040735358305L838.9200714285714,186.05797762775998L839.9968,173.69379762900078L843.6725285714285,161.23246070845238L852.2492285714286,141.82032258835503L853.2888285714286,314.65209463905495L854.6625857142858,272.88646917483914L855.9620857142858,240.86484349546066L856.4076285714285,228.07011043191758L858.7838571428571,213.740277759051L863.7962142857143,204.95962547198755L865.8011571428572,195.69855592171476L870.7392571428572,182.43777098819663L870.7763857142858,179.89149656735304L875.9743857142857,187.6737160364596L880.4669428571428,188.76606159602773L880.7268428571427,170.780414239325L885.3679142857144,273.75560677963426L889.5634428571428,261.1382513022862L891.3084857142858,245.45015687870549L892.9050142857143,224.13745906385137L895.429757142857,206.94286782183258L897.3975714285715,187.26856030856132L901.1846857142857,167.15717152922494L910.6153428571428,162.6508802309332L910.8381142857143,149.51487003895744L914.8851285714286,153.08549244472647L915.4049285714285,140.59029808748568L918.2638285714285,132.70144602401936L918.4866,121.1816898628431L921.6796571428571,117.65824346848213L922.5336142857143,107.80636049615504L925.1326142857143,109.52565301881329L925.9494428571429,100.00586658782267L927.1746857142857,103.57752249229769L928.0657714285715,94.84899263081346L929.5509142857143,107.09982133773134L930.2192285714286,105.765274949866L930.442,93.39313713725976L930.5533857142858,94.07830039013363L933.3751571428571,101.49974226692109L933.4122857142858,92.041206786643L935.1573285714285,98.37622694045498L936.3083142857142,102.277098528668L937.3107857142858,103.94353768677436L937.4221714285715,107.95474193676574L937.6078142857142,100.68144561080341L940.2439428571429,94.03133869517582L940.6523571428571,291.48586899336794L942.4716571428571,263.174808938015L944.5879857142857,247.309061710964L946.2587714285714,234.49678826669123L947.7810428571429,428.6661977119474L948.2637142857144,391.66977645273005L948.3008428571428,351.7287404770155L949.1176714285714,317.27831495031967L949.7117285714285,280.11366783305175L953.833,250.99878549287993L954.6127,226.38939749693873L957.1745714285714,226.1094589519891L957.2859571428572,221.85635762670142L957.3230857142858,214.72817050122558L959.1052571428571,201.53392227486734L959.9963428571428,179.837737329034L964.8973142857143,177.13907435752L968.3502714285714,171.01004833490583L970.7265,169.60342388362673L973.1398571428572,173.36889322636617L973.9938142857143,166.27840718261243L977.1126142857144,157.3294659589245L977.224,144.0207986963929L977.4096428571428,135.75179779870672L979.8972571428571,146.90061472062087L980.5655714285714,148.90185525223987L983.3502142857143,137.65581271559702L984.7982285714286,123.055734740861L990.6645428571428,113.84490136186074L992.2610714285714,102.2376588872755L994.8971999999999,95.75123532135635L995.8625428571428,185.40166139761993L996.6422428571428,173.72265691649184L996.8650142857143,177.8275151538906L1002.7313285714285,154.93466932749314L1011.6050571428572,162.14984836723988L1012.0877285714286,163.13272766775168L1013.3501000000001,163.03479542981552L1014.7609857142858,155.67325828971386L1015.8005857142857,153.64572560186238L1020.0332428571429,145.75793370830286L1021.3327428571429,153.65936504344054L1022.7065,144.80565542630777L1026.0852,361.01152334546265L1030.9119142857144,322.03089587713794L1033.696557142857,301.4098536055405L1037.0381285714286,290.59321507059195L1037.1495142857143,264.6197272928105L1042.7559285714285,243.02356566234582L1044.7608714285714,236.6366308613095L1045.1321571428573,222.34979408235623L1046.3945285714285,204.7622557784812L1046.7658142857142,193.13073859646366L1047.7311571428572,185.49734282939264L1049.4019428571428,188.0158837204004L1050.2559,177.04679293085653L1053.0405428571428,161.91704628225892L1053.7459857142858,164.8693690592997L1055.4910285714286,169.98742438066105L1059.6865571428573,147.86289172351485L1061.5058571428572,146.46052042860683L1064.5132714285714,141.45781896852031L1064.9216857142858,146.6968793432629L1065.6642571428572,142.32509174177534L1068.3746428571428,133.861432935753L1070.4909714285714,158.92255703868L1074.4637285714286,140.0711130887273L1079.6988571428572,143.7481478387773L1081.1468714285716,313.1440515858408L1082.2236,298.0195721289849L1085.4537857142857,280.5008613077416L1087.2359571428572,256.6434011927965L1087.3102142857144,245.25717624048542L1088.7211,218.0723857576859L1089.5750571428573,208.33150110676266L1092.2111857142856,182.2907185365417L1097.4463142857142,183.71082204817984L1099.822542857143,186.62142289325004L1103.4611428571427,180.41019296936372L1103.7581714285714,179.16695946509583L1110.218542857143,171.17081611683648L1111.4437857142857,175.81591298284857L1114.1913,169.1013183814346L1115.6393142857141,162.0931643340201L1118.8323714285714,142.0185783740751L1122.4709714285714,135.7170258125673L1122.9536428571428,120.94842731161972L1123.2877999999998,136.8972247256L1126.2209571428573,134.18761901853358L1128.4115428571429,128.57113360670124L1132.6442,128.19681030851496L1133.2011285714284,122.905491336252L1136.1342857142859,129.28178190310138L1139.3644714285713,127.85491153893057L1144.0426714285713,120.66997994821602L1145.3421714285714,115.42454305123388L1148.0896857142857,107.36598764614313L1152.6936285714285,123.12821599032743L1153.4733285714285,122.1499954824637L1154.4015428571429,104.71991757252766L1156.7777714285714,104.66152318165784L1157.2975714285715,109.02355528512865L1161.8643857142856,109.88144000172318L1162.2728,112.04465019439243L1165.9856571428572,122.5987580134609L1168.4732714285715,118.39210050166179L1175.8989857142858,127.96648941669781L1180.6143142857143,120.2467865343066L1180.6514428571427,113.27422250088057L1181.7281714285714,115.55385277008804L1181.8024285714287,109.29054837659241L1185.478157142857,103.29115363433928L1193.4236714285714,103.04528089109483L1193.6464428571428,112.17722314497942L1193.8692142857142,100.30400967943226L1194.0177285714285,102.47905668838409L1194.0548571428571,100.42629191709239L1198.3246428571429,125.16463555328328L1206.9013428571427,112.98445650553687L1210.539942857143,104.04625656838404L1210.9112285714286,304.90474592352064L1211.1711285714287,275.09176531581716L1211.8394428571428,266.10420306248324L1215.5894285714285,248.65722618725994L1218.7824857142857,225.31013141339884L1222.1611857142857,210.96853247050302L1222.2354428571427,201.42632209103388L1223.4235571428571,199.92865690474568L1224.0918714285715,188.78409134021675L1234.5992571428571,180.33295545148576L1235.5646,174.4798528845272L1237.198257142857,168.09455564691527L1241.5423,153.72433090878778L1242.0249714285715,147.4277532630514L1245.4408,143.9472702490607L1246.5175285714286,140.15672619680421L1247.965542857143,136.24265472684726L1261.2947,151.12977917544347L1262.260042857143,154.24780595586L1263.0768714285714,145.48415164018598L1263.7823142857142,155.537318952797L1264.7105285714285,146.84602774633575L1265.3045857142856,141.38140141958658L1265.7501285714286,139.6945246015561L1269.8714,147.57407434931943L1272.1733714285715,132.91909382529514L1279.8961142857142,138.65161742083092L1280.1560142857143,141.74417131199593L1280.4901714285713,141.74902309548753L1282.3466,136.72085713341426L1282.4579857142858,136.83080824776164L1283.2376857142858,138.19945655128697L1284.3886714285713,125.37580114468577L1285.0941142857143,111.05680288699823L1290.1436,106.08171128069363L1293.1510142857144,95.04159386515127L1293.1881428571428,93.29433811954324L1294.4505142857142,92.83747399911624L1299.5371285714286,481.02699228324343L1300.6881142857142,402.0406246673719L1302.3960285714286,367.1746157239588L1302.9529571428573,335.8779915734931L1305.9975,305.4195498139591L1307.5940285714287,276.1278677887955L1308.5593714285715,249.2063229659792L1310.081642857143,228.09314345065044L1311.6781714285714,224.60599110022196L1316.5791428571429,205.86228447531656L1316.9875571428572,191.97421608453587L1320.7746714285713,170.94481647838728L1322.2598142857144,165.55021476386727L1325.7499,158.40911240586792L1326.2696999999998,151.8606684604481L1326.9380142857142,152.69818597260445L1338.5963857142856,145.77540577809503L1340.5642,136.6729994688919L1351.7399,138.13016838396075L1353.1136571428572,142.41161324375898L1362.5071857142857,137.73421652251008L1363.4725285714285,151.2663783313196L1366.6655857142857,147.9875029980414L1369.078942857143,149.7005101918657L1369.3388428571427,267.8462998647715L1369.6358714285714,251.39617243643576L1371.4180428571428,235.4940457880458L1371.7522000000001,221.61042728212666L1373.942785714286,204.31341900983145L1374.425457142857,196.6842178540719L1380.2546428571427,170.7413312021674L1381.4798857142855,158.3670266170827L1383.0392857142856,154.16535834940566L1389.9452,143.38573035602792L1393.4352857142858,127.96719769359503L1393.917957142857,110.9519256562517L1396.4798285714287,120.46959726706015L1398.187742857143,114.38918982371118L1400.0070428571428,110.9029597518349L1402.086242857143,131.08127886993617L1406.9872142857143,121.61831263532554L1407.284242857143,114.29640166276047L1410.9971,110.28499505481686L1411.4426428571428,101.93764337739755L1412.1852142857144,93.48141533447496L1416.5663857142858,92.43977788270917L1417.568857142857,99.20016298436816L1417.6431142857143,103.00419767047401L1420.984685714286,104.90386173303601L1423.5836857142858,101.35402172381303L1424.586157142857,107.251110290656L1424.846057142857,123.29480488699978L1425.8856571428573,112.07500626604943L1430.9351428571429,120.34852945979763L1434.3509714285715,121.96305765606162L1437.9524428571428,105.07073282671108L1438.2866,101.02560935504175L1438.732142857143,97.27085996260995L1439.437585714286,94.1943630927114L1440.0687714285714,93.1655798080811L1442.0737142857142,109.9071064917298L1442.5192571428572,101.43428162982764L1443.4474714285714,109.79845710733039L1444.8212285714285,104.22367729481125L1448.6826,101.85449674609026L1449.3880428571429,96.95740500189304L1449.6479428571429,108.72434730527699L1451.355857142857,101.99590849016255L1453.2865428571429,110.47023279760406L1453.3979285714283,117.68386452160921L1454.6974285714286,115.46366713925195L1461.4548285714286,110.7291029339173L1461.491957142857,113.91362268943332L1462.2716571428573,113.12611460392138L1464.3137285714288,126.03109963626524L1467.5439142857142,127.86031403738825L1467.5810428571428,116.01029719153908L1468.9919285714284,118.4653556604287L1470.2914285714287,129.93540093764955L1470.6255857142855,127.15673280069154L1477.1230857142857,122.81103934643352L1480.6503,110.4877131863505L1488.113142857143,105.00580722785494L1489.4497714285715,106.73862412466505L1491.751742857143,93.88133229719828L1494.610642857143,93.18133427247385L1497.5438000000001,85.40432100775753L1498.3235,99.22355704137466L1498.6205285714286,100.65577408669853L1499.1032,103.75243442244371L1499.1774571428573,101.5679016521075L1503.0388285714284,111.44516763395649L1503.1130857142857,113.38412355090739L1506.3432714285714,105.17378978639692L1506.454657142857,98.98055176446483L1513.8061142857143,95.57326405682052L1514.0660142857143,109.696014366516L1516.5165,108.12125701104841L1516.7021428571427,116.04509770931153L1520.5635142857143,113.06074109002195L1521.1947,117.07480539265404L1523.6823142857143,113.71073203830687L1524.4248857142857,106.14487531103866L1528.397642857143,93.09245967493231L1530.8852571428572,101.4008492765209L1531.4421857142859,109.08730905799622L1532.0362428571427,95.55343319406171L1532.5189142857143,85.99281542966787L1533.8184142857142,87.20006415622478L1534.783757142857,95.35213108006538L1543.4347142857143,86.47395268486213L1545.6624285714286,80.50835532741858L1546.776285714286,82.82098626262238L1547.4817285714284,75.57347538735897L1550.7861714285714,70.40244900873802L1552.2341857142858,78.07867870123717L1552.3827,85.65105299596071L1552.7168571428572,93.40727995495297L1553.867842857143,78.06294096579246L1555.9841714285715,77.38297060912846L1561.404942857143,75.94561557343128L1565.711857142857,85.3663835171435L1566.9370999999999,80.98245508938005L1570.9841142857142,84.80237146206903L1576.3306285714284,83.84570310374104L1577.5929999999998,77.89300463087862L1587.803357142857,76.06935043708906L1589.3998857142858,74.0730249466349L1591.961757142857,76.0645681730809L1603.6943857142855,71.3978323425145L1605.736457142857,82.67770118076872L1606.2933857142857,87.23784420599004L1610.1176285714284,89.91236501879753L1612.8651428571427,87.19298474864202L1613.4592,97.62505050158019L1613.8676142857144,94.57757895247013L1615.1299857142858,96.99880991448424L1618.1002714285714,95.47082181119237L1620.3651142857143,86.8716173265564L1620.402242857143,78.67325582505548L1622.5557,86.39788267003257L1623.2982714285715,93.2405220769321L1624.8948,80.60230948076804L1627.7537,93.74924323276572L1632.9888285714285,108.01063291058706L1633.8427857142858,113.92540086044299L1633.8799142857142,122.99190941034063L1638.9294000000002,117.16292609427528L1642.4937428571427,100.18255910661529L1644.6843285714285,112.46663115429817L1645.0927428571426,118.47310826175769L1655.6372571428572,103.55793922796357L1659.7585285714285,99.45488380896137L1660.7981285714286,84.33039391459681L1662.6916857142858,84.92837392521562L1666.2931571428571,77.03729062665244L1667.4441428571429,86.73558912151829L1667.6297857142858,89.0647382641273L1668.2609714285713,83.92362217870739L1671.5654142857143,83.04095660114487L1679.1396428571427,73.13778105268784L1681.8129000000001,79.73347089298326L1685.7114,79.687563092728L1688.9415857142858,92.3358783328084L1689.3871285714288,101.48092634595993L1690.575242857143,101.17509130000659L1691.6148428571428,101.97483370125394L1694.8450285714287,100.74696081858112L1695.2163142857144,93.05616401372272L1695.4390857142857,87.08747163806615L1695.5875999999998,86.38120613402745L1696.7385857142858,86.18682798290676L1696.8128428571429,103.78471009926469L1697.3326428571427,95.68971842846582L1697.5554142857143,273.3590000209457L1700.2658,248.41795177272354L1709.4365571428573,210.28913345553894L1712.7038714285713,197.52045143565928L1713.6692142857144,192.25955476386756L1717.010785714286,181.83330524077945L1718.0132571428571,164.58372494570207L1720.612257142857,163.57524553955736L1723.1370000000002,145.85945026009193L1726.1815428571426,137.15316244181034L1727.963714285714,132.49212606791696L1728.5577714285714,140.10805213829923L1730.5627142857143,131.1777183429095L1736.6146714285715,130.09716139265035L1736.9117,122.52064494811553L1739.2879285714287,116.48962101771073L1740.2903999999999,109.4242562791617L1745.3027571428572,110.35002143136191L1745.5626571428572,105.55565842435631L1746.2309714285716,96.97045294727731L1750.0552142857143,97.49625543341381L1750.9462999999998,101.84494097060274L1751.3175857142858,106.54861701980663L1751.8373857142858,127.43221539541338L1754.139357142857,357.29443839037447L1757.6665714285714,327.47185652962753L1761.7878428571428,307.3054743996209L1762.4561571428571,279.01563439972165L1762.8274428571428,274.19344568276495L1763.607142857143,263.1474468609051L1767.654157142857,241.65877682570147L1770.2531571428572,225.1241300208998L1773.891757142857,201.24861136186385L1779.6466857142857,189.31646633918507L1780.8719285714285,191.00574732159828L1781.5031142857144,174.9944380526219L1782.9511285714284,180.84098107057514L1792.5303,166.74700483920847L1799.8075000000001,156.94008034461186L1801.441157142857,161.00563375374338L1802.7406571428573,161.2008514015689L1803.8545142857142,373.73610352861743L1804.7456,343.33494291763435L1805.9337142857141,316.3046853565365L1808.6069714285716,296.33386315920023L1809.6094428571428,274.7429087849681L1809.757957142857,244.48921938916155L1810.3148857142858,237.4167193765296L1811.2802285714286,214.9584547558345L1812.097057142857,195.4374021002387L1818.4460428571429,177.4446577854259L1818.5945571428572,169.4776040292787L1819.0772285714286,177.03215178875652L1822.0475142857142,163.33221042535155L1822.1960285714285,150.88992340005683L1823.532657142857,138.04242050037695L1826.762842857143,162.06829218724644L1827.022742857143,159.15484929276732L1828.6564,148.10448697439853L1830.6242142857145,149.7143282661053L1832.0722285714285,143.13292919472892L1834.3370714285713,151.23454665028692L1837.938542857143,141.3895455982109L1839.3494285714287,327.5563848585478L1841.0573428571429,289.24528846939586L1841.0944714285715,280.6034272022546L1843.285057142857,259.95177450373L1846.403857142857,249.12365288961075L1847.294942857143,249.1545925985207L1849.1142428571427,238.8700152761257L1849.634042857143,216.43873400566156L1855.1290714285713,198.98345758760092L1856.2429285714286,180.72692136471213L1858.4335142857142,176.7365605727192L1860.3270714285713,171.17323713429386L1867.975557142857,175.1470741805718L1868.3097142857143,176.49731800722023L1870.2775285714288,165.35792146060663L1875.2898857142857,166.30196767115848L1876.6265142857142,160.45967787715654L1880.4507571428571,140.81098238465478L1880.8963,126.01646054672737L1885.0918285714286,120.47179961516143L1887.6165714285714,120.79197596051158L1888.9160714285713,125.33455344679547L1894.4853571428573,131.34918866366775L1894.8195142857141,134.0236397110232L1895.8219857142858,145.04640784065623L1896.935842857143,137.91834665134138L1898.1982142857141,137.384519389312L1899.869,132.10318150003553L1900.1660285714286,127.4297736771984L1901.2056285714284,113.8090516065734L1905.4011571428573,112.15635753434185L1905.9952142857142,106.34405066477139L1908.297185714286,102.16667173036566L1908.9283714285714,107.63861787951096L1912.1214285714286,101.51756324335807L1912.4555857142857,90.4789738985262L1919.435757142857,105.79941592864648L1921.3664428571428,105.61531496493068L1932.0594714285714,99.21851515531277L1932.8391714285715,96.41050011415716L1938.0743,96.72237747558815L1939.6708285714285,103.14258105450939L1941.638642857143,110.66250828786085L1941.898542857143,104.5444418930217L1942.6411142857141,112.8663367701738L1943.6064571428572,114.07402825853052L1946.9480285714287,104.1988976864623L1948.8787142857143,101.45913316759321L1951.1064285714285,100.65937172533121L1951.3663285714288,112.01018765161233L1952.4430571428572,99.25956304272228L1954.4108714285715,110.9997894373712L1954.5593857142856,126.69246596906031L1955.0420571428572,116.26517404696018L1955.5618571428572,121.57755568466791L1956.4529428571427,108.69933600367972L1956.8984857142857,120.97892743870507L1958.0865999999999,118.63693769223805L1958.3464999999999,247.72087969733423L1958.8663000000001,254.94320853297398L1963.0618285714286,231.9320684802342L1963.470242857143,213.752560613827L1963.693014285714,211.96867079336454L1965.2152857142858,198.79618727477265L1965.3637999999999,190.52229330955132L1965.8836,203.0499739463565L1966.7375571428572,204.67946920063056L1970.6731857142856,202.85242882170195L1972.2697142857144,212.58898851989704L1974.5716857142859,206.90889848617434L1975.1657428571427,207.29884075591707L1976.2795999999998,191.57346674828563L1983.482542857143,174.5868600523239L1985.1533285714283,178.91156995482058L1986.9354999999998,172.96299586520985L1987.2325285714285,159.9030850646698L1991.2424142857144,153.27237517218512L1991.9849857142856,153.43079905947363L1999.1879285714285,145.37011036236504L2004.3116714285713,142.46825316127882L2015.0789571428572,133.33040261646835L2017.0839,127.07952962434977L2018.0121142857142,132.161385937143L2022.6903142857143,121.5669893145879L2025.6977285714286,114.16640409818105L2027.9625714285714,125.91870357239517L2028.6680142857142,115.97898868698002L2030.8586,121.35800525739936L2035.1655142857144,126.29512759995214L2038.0986714285714,121.81535568716193L2042.3313285714285,126.58816150379955L2044.1877571428572,133.14264589204157L2045.5615142857143,139.2447024804192L2047.6407142857142,137.44780950206686L2048.2347714285715,139.85612262217882L2049.3486285714284,140.01253780712426L2052.059014285714,132.05706595527556L2056.2916714285716,123.39032507858529L2059.5589857142854,128.56135638602333L2062.0837285714288,122.73793848085683L2065.4624285714285,121.13081494339112L2065.536685714286,119.41426686997553L2065.759457142857,110.52828783565731L2072.516857142857,127.63971254310934L2078.4574285714284,136.8643325016134L2079.794057142857,142.00256426612083L2084.063842857143,141.20399436884563L2084.212357142857,133.2694078737179L2087.6653142857144,142.72121196943223L2089.707385714286,313.1730661505585L2091.9350999999997,292.70459865173126L2095.4623142857145,268.68729247137566L2103.0365428571426,244.4962891895566L2107.0835571428574,220.89114311387567L2108.7172142857144,230.15378544597442L2108.8657285714285,211.36732443943652L2109.162757142857,192.60873956265874L2114.6577857142856,170.75773752802365L2116.402828571429,149.64591945311622L2118.8533142857145,138.25594068834394L2118.9275714285714,130.40999218130915L2125.1651714285713,108.9693744779631L2127.207242857143,103.91431901537587L2128.246842857143,106.70821300431358L2129.4720857142856,112.7040871860383L2130.363171428571,111.37476150008645L2130.734457142857,113.1778888068389L2135.3012714285715,115.35256080439626L2135.9695857142856,110.6840522728645L2138.7542285714285,110.18632002005637L2140.1651142857145,116.85928037470404L2141.687385714286,129.42355108132074L2145.437371428571,129.45781561108757L2146.1428142857144,118.38639301035035L2150.004185714286,105.72036715629528L2151.229428571429,101.96932050600414L2153.605657142857,112.08276640949042L2153.976942857143,103.75610553816293L2156.9101,110.80283715195552L2157.4670285714287,104.12966963098219L2158.8407857142856,108.43707318295854L2168.3828285714285,116.62991197434137L2168.679857142857,128.5607117683803L2170.8704428571427,127.45655331463453L2171.3902428571428,317.44787427266726L2177.5535857142854,285.6925977093789L2179.707042857143,254.72200479045244L2179.966942857143,242.37454858145156L2180.1154571428574,222.86547886661157L2180.2639714285715,220.8776078620301L2184.088214285714,204.5920917862592L2185.4991,205.4101471484851L2186.724342857143,187.1484343081404L2187.132757142857,174.2398989666136L2191.4768,175.86491721893367L2193.2961,177.30531693435074L2193.8530285714287,176.44566109272347L2194.6327285714283,173.00664061946492L2195.189657142857,164.92528845396436L2197.4173714285716,151.4609489945073L2199.5708285714286,144.24343298608352L2204.286157142857,127.53292014295987L2207.9247571428573,120.21575088793031L2212.4915714285717,114.20419017189838L2213.8282,128.3592705255686L2214.6450285714286,124.86932849697416L2216.2786857142855,124.65954829090249L2216.7613571428574,132.6985653009628L2217.3182857142856,127.39392419120965L2220.5856000000003,132.3718946961306L2222.6648,126.65004894183909L2225.4123142857143,121.08685802639991L2227.0831,125.56591764810565L2234.9172285714285,120.78281091804378L2238.8528571428574,115.65796645753112L2238.964242857143,113.48047826534145L2239.9295857142856,103.80150851792942L2241.0805714285716,111.96638089220177L2247.7265857142856,112.93395394892674L2247.912228571429,119.16884557003404L2248.2092571428575,98.88024430039006L2254.224085714286,112.44391005242097L2256.1919,103.92591282121464L2257.2686285714285,87.0950047143964L2260.0532714285714,83.79302113329686L2263.506228571429,90.32652381140464L2263.6176142857144,96.14551094584985L2268.2586857142855,99.31529921352168L2276.1670714285715,101.02856845337652L2277.3923142857143,104.35462065623261L2278.9517142857144,103.39336099157725L2280.1398285714286,90.49939213400015L2280.9195285714286,83.76100153897512L2283.2586285714283,81.26752040030028L2283.7041714285715,86.29046590725962L2284.2239714285715,82.86904676810457L2284.4838714285715,91.28589481742435L2284.558128571429,92.30087297086564L2287.454157142857,102.85413184851626L2294.1001714285712,111.90114938489178L2295.3254142857145,126.01356550358581L2296.6620428571428,111.00511308439873L2297.850157142857,105.87008457675981L2301.9714285714285,111.49856279500116L2303.3451857142854,106.99007557583654L2310.8080285714286,118.3240059804859L2311.699114285714,202.51789491577657L2313.11,206.6803315274649L2313.3327714285715,189.0919028531177L2314.1495999999997,168.9667496978043L2316.7857285714285,148.45880377552754L2319.4218571428573,144.48398317579705L2319.978785714286,141.81497075896678L2321.241157142857,154.91656940743462L2323.3574857142858,144.80757085804706L2327.4787571428574,150.77230649013705L2328.889642857143,135.18833602187885L2330.2262714285716,130.23117147418563L2334.310414285714,128.2504932949355L2342.4787,127.96240130925034L2350.090057142857,120.42961589526023L2351.9836142857143,119.62334239436709L2355.4737,110.14572816870222L2359.7806142857144,114.25028176429558L2361.822685714286,117.48992836248637L2362.9365428571427,146.64345635133978L2363.085057142857,140.433570103875L2364.644457142857,154.06614687977012L2365.8325714285716,144.76946693064517L2366.835042857143,145.1368890140566L2367.4662285714285,142.05084323497528L2368.023157142857,133.46786845574388L2368.394442857143,123.54430671016681L2371.513242857143,118.66809375864398L2376.7855,131.6680854306926L2377.3795571428573,122.42088079972085L2377.4909428571427,139.77753914087668L2377.6023285714286,157.52528410239898L2378.419157142857,146.93826630057995L2382.688942857143,159.03296962720947L2386.067642857143,151.70116743824278L2387.8126857142856,141.5222218625073L2389.594857142857,164.4577059612968L2392.3052428571427,172.06102716271528L2397.651757142857,167.13551760592873L2399.4339285714286,391.3507044939402" style="fill: none;" fill="none"></path></g></g></g></g><g opacity="0.2"><g><g><g><path stroke="rgb(255, 112, 67)" stroke-width="2px" d="M188.3161142857143,950.7818452835091L189.17007142857142,290.5518476486206L191.88045714285713,48.91253871917696L194.18242857142857,33.32004232406584L194.36807142857143,92.62316865920997L195.14777142857142,101.13025588989234L195.81608571428572,282.09703130722045L197.11558571428571,201.41871614456164L197.18984285714288,206.6237251281737L197.48687142857142,177.68007202148425L203.27892857142857,93.25807971954322L205.5809,395.0697438240053L207.17742857142855,167.88739128112778L207.43732857142857,771.414739322663L209.2195,145.08241338729843L209.70217142857143,194.32204170227038L212.1897857142857,195.39089126586902L212.4868142857143,601.7263094902044L215.4571,224.0745417594909L215.67987142857143,241.40414400100704L216.71947142857144,43.609296512603436L221.7318285714286,171.28815336227402L223.32835714285713,367.8235427856447L225.25904285714284,322.2225992202759L226.66992857142858,449.5585410118105L232.49911428571428,1796.247257423403L234.54118571428572,84.86815137863135L234.65257142857143,3017.067447137836L235.32088571428574,1625.112365913393L237.10305714285712,108.666276168823L237.36295714285714,2697.917393875125L238.9966142857143,151.07058448791489L240.1104714285714,64.33650655746432L243.3035285714286,101.14197177886939L244.49164285714286,49.99310417175264L248.4644,127.75686664581279L250.06092857142855,69.97139854431124L250.1723142857143,130.6430308341978L254.1450714285714,124.27184028625469L255.3703142857143,80.77660245895362L256.8554571428572,198.19053812026965L257.9693142857143,108.17736310958838L261.2737571428571,107.281097602844L263.50147142857145,135.46366853713968L266.88017142857143,141.29773063659647L267.3257142857143,65.00791711807223L268.5138285714286,153.31958456039413L269.6648142857143,101.052750778198L271.3356,140.32305879592874L274.38014285714286,106.06579942703223L276.1251857142857,149.65611619949325L276.7563714285714,99.42469282150245L276.8306285714286,149.91026086807236L277.01627142857143,47.201568317413006L277.94448571428575,62.61472148895235L277.9816142857143,100.25066299438453L278.42715714285714,164.74032325744614L278.6128,157.54947109222397L279.6895285714286,232.3770515441894L285.3702,113.8465015411375L287.41227142857144,245.65926475524898L295.84045714285713,72.16001672744723L298.4765857142857,142.29988975524887L298.58797142857145,74.55546541213961L303.04339999999996,53.00138397216768L305.6052714285714,99.58646221160865L306.19932857142857,167.48139066696152L306.23645714285715,24.71607370376554L308.3899142857143,238.61350936889644L314.88741428571427,147.9383866310118L320.01115714285714,170.16703290939316L320.08541428571425,169.86241979598984L321.9418428571429,138.7459198951719L324.5779714285714,165.9777013778685L327.28835714285714,79.81274528503394L327.54825714285715,87.61147184371924L331.52101428571433,129.8391406059263L332.5606142857143,73.29195184707613L335.5309,132.0318142890928L337.8328714285714,272.193950843811L341.4714714285714,120.3307954788206L342.80809999999997,32.08221359252897L345.96402857142857,22.368389797210366L349.0457,175.57977361679065L352.4615285714286,196.64989871978747L353.0927142857143,87.60921878814673L353.8724142857143,45.79971714019743L358.84764285714283,71.75311489105196L358.99615714285716,107.17565460205054L359.2931857142857,81.6476337432859L363.45158571428567,101.8832270622251L363.9713857142857,68.24826164245577L365.3822714285714,287.67649812698363L367.38721428571426,187.0581905364989L370.2461142857143,1902.2035042762777L373.17927142857144,-17.397590446472538L373.2535285714286,196.72064466476428L375.2584714285714,1.6006247520443084L376.29807142857146,79.97136039733863L384.13219999999995,267.12863130569457L384.652,168.24292345046982L386.91684285714285,38.44033641815153L391.7064285714286,187.87424726486194L396.5331428571429,75.48057003021212L398.1668,72.02303094863863L401.3227285714286,152.03759593963608L403.4019285714286,88.14364356994605L403.66182857142854,136.74610776901224L404.99845714285715,118.28366918563823L408.0801285714286,131.95070428848246L413.31525714285715,-12.273240852356327L415.8771285714286,139.2046420097349L416.58257142857144,1809.745313358309L419.18157142857143,-19.76780490875281L420.0355285714286,81.37861890792823L422.4117571428572,87.79982728958106L427.7582714285714,80.72207851409888L429.7632142857143,182.54757328033435L430.83994285714283,1645.398878288271L434.2929,111.63850708007793L434.4042857142857,1138.0508677482617L434.8498285714286,38.1789819717404L440.15921428571426,138.01818294525125L444.3176142857143,146.9912020683287L445.2829571428572,58.37672395706148L449.81264285714286,64.25314350128146L451.3349142857143,62.5340620994565L457.12697142857144,167.95182867050156L459.7631,147.53644151687607L462.28784285714283,47.86982460021944L462.65912857142854,111.64121074676494L462.7705142857143,63.61237449645967L463.3274428571429,233.7149159431457L464.5526857142857,170.3414194107054L471.3100857142857,86.29658861160254L474.8373,35.15402956008879L475.20858571428573,149.7602073669432L476.5080857142857,74.5982734680173L482.3744,67.04152507781954L485.1590428571429,32.447208595275555L489.3917,42.80585689544645L490.9139714285715,85.55893821716285L496.18622857142856,237.80871791839596L496.3718714285714,94.52745122909522L496.70602857142853,31.041301918029458L500.1589857142857,119.11865158081035L501.19858571428574,122.16433210372905L501.56987142857145,174.50416488647448L505.0228285714286,60.514423084258745L506.2852,60.54055852889986L508.5129142857143,66.05693979263278L515.3074428571429,83.82769031524634L516.3841714285714,84.49053926467872L517.1638714285715,21.56449956893888L517.4237714285714,106.04732437133765L519.5772285714286,89.24854202270484L521.8792,76.07898159027071L529.4905571428571,106.19242115020728L531.5697571428572,36.62031812667814L532.7578714285714,163.9224640846251L535.9880571428571,141.62397308349588L537.2133,158.14788265228256L540.4063571428571,10.182062816619503L540.8890285714286,142.45940608978256L544.2306,106.16403264999366L545.0845571428572,74.64784069061251L545.7528714285714,147.3354689598082L551.1365142857143,29.737683963775307L553.5127428571428,68.11307830810519L559.1191571428571,57.92250795364351L560.0845,17.546850872039467L567.2131857142857,-10.99350528717078L567.4730857142857,173.4258524894713L571.78,107.16393871307349L574.7502857142857,126.01029796600322L576.3468142857142,69.12334842681857L579.5027428571428,181.02631015777575L580.6537285714286,181.14076538085925L581.2477857142857,118.36297674179058L583.3641142857143,76.26328153610201L585.0720285714285,3.4850804328914764L585.1091571428572,89.42968769073462L585.9259857142857,888.3289472579964L588.1908285714286,73.80069179534884L588.5249857142857,140.44562501907328L590.4556714285715,148.84591741561874L590.5670571428572,135.41049642562845L591.9779428571428,197.42945594787585L592.8319,45.288724136352215L593.0546714285715,1296.0463897705092L593.1289285714286,114.04522104263286L594.8368428571429,1280.9793059349074L597.8813857142857,43.49664373397795L598.5868285714286,59.05489368438692L598.9209857142857,108.12103672027564L601.4457285714286,172.4588410377501L601.5199857142857,166.3679306030272L603.7477,963.9410416603097L609.6511428571429,106.07526226043677L611.6189571428571,66.84235496520968L612.3615285714286,99.21110315322852L613.5125142857142,57.94143362045259L613.8466714285714,133.50125713348368L615.1090428571429,35.35049600601164L618.1535857142857,160.95744295120224L619.5273428571428,81.31958885192847L622.2748571428572,3.0200497627254608L626.5075142857143,106.9133989334104L630.0718571428572,151.28552598953232L630.2574999999999,97.70380897521949L631.5941285714285,-48.7015445709233L632.7451142857143,123.27058238983135L636.3465857142857,218.04040832519524L637.3119285714286,207.43662757873523L638.0545,239.07042903900143L641.9901285714286,59.62041063308687L646.2599142857143,92.10812015533423L648.2277285714287,76.7693178176877L656.1361142857144,77.21362037658663L663.7846000000001,93.35901660919166L666.0865714285715,76.71975059509249L668.9826,99.12909193038917L669.6137857142857,105.10329408645606L670.6162571428572,94.97175378799415L671.3959571428571,163.41011924743637L671.8415,133.80046291351297L672.3984285714287,55.42161626815767L677.2251428571428,26.807359886169106L683.2771,35.568591785430584L683.4256142857142,197.35690755844104L687.0642142857142,67.85262508392306L688.6236142857142,243.09844179153438L690.5171714285715,160.68797750473007L691.3711285714286,100.90720338821387L693.5617142857143,214.86179752349847L698.4255571428571,-30.82354860305823L701.1730714285715,85.03082199096656L708.4502714285713,181.90590305328357L713.6854000000001,57.644480895995805L716.1358857142857,139.97113151550272L716.3957857142857,-2.0258934974674103L717.3611285714286,82.85346908569312L718.0294428571428,55.95694227218599L720.2200285714285,95.29394073486304L722.0764571428572,79.14223594665503L728.945242857143,1.903435420989621L729.1680142857142,160.49511594772324L730.2818714285714,101.28751916885352L730.6160285714285,81.02894468307471L730.9873142857143,-2.0331032752994416L734.4031428571429,127.9893819808958L734.7373,50.8826105117795L735.5169999999999,128.14033670425394L737.8932285714286,47.120458316802655L738.5986714285714,10.706123542785274L745.9501285714285,87.44429512023902L749.2917,77.09330720901461L752.4847571428571,115.2546612739561L754.6382142857143,145.9953515052794L760.1703714285715,58.76470012664766L760.2446285714286,129.2141429901121L761.4327428571428,75.63422842025729L762.5837285714287,129.11185426712015L770.0837,181.47872371673571L770.9747857142858,74.23372907638522L771.3089428571428,1777.818164062502L773.3510142857143,130.91474933624247L779.4772285714286,132.8163282394407L783.2643428571429,54.84528465270967L784.0440428571429,40.09137554168669L788.9821428571428,47.924799156188676L791.6554,72.21454067230196L792.4722285714286,78.22749538421603L793.1034142857143,88.30180807113624L794.8113285714286,52.07447690963716L798.4870571428571,83.35364742279029L805.6157428571429,142.2395078659056L809.7370142857143,70.40263338088961L809.7741428571428,157.58867425918564L811.5563142857143,174.17431755065905L813.1157142857143,104.0042535781858L819.3161857142858,-7.487750816345584L820.4671714285714,74.27383346557589L821.7295428571427,114.17139215469341L825.7394285714286,91.50340003967261L826.9646714285715,61.769375038146684L827.7072428571429,76.22317714691134L828.5983285714286,122.38107604980449L828.635457142857,154.4213287353514L828.7468428571428,51.70767946243257L829.4522857142856,69.68255681991549L831.9027714285714,1711.9739667892477L833.3507857142856,55.85465354919405L833.7220714285714,76.2822072029111L837.0265142857144,175.39907855987536L837.5463142857143,39.08380908966032L838.6230428571428,105.48991842269874L838.9200714285714,100.97524566650367L839.9968,84.71223993301368L843.6725285714285,71.55169172286959L852.2492285714286,2.1165744781490448L853.2888285714286,1558.4741918563857L854.6625857142858,-27.689097690582646L855.9620857142858,10.414127540588009L856.4076285714285,135.98998231887796L858.7838571428571,110.61246557235698L863.7962142857143,141.76771802902206L865.8011571428572,129.04921932220438L870.7392571428572,87.00359745025611L870.7763857142858,161.56666917800888L875.9743857142857,243.6801807403564L880.4669428571428,196.62736816406237L880.7268428571427,41.34272260665861L885.3679142857144,1014.8393694877634L889.5634428571428,170.33466024398788L891.3084857142858,132.54731340408304L892.9050142857143,70.75591249465914L895.429757142857,83.19818658828711L897.3975714285715,45.6780521392819L901.1846857142857,22.421111297607094L910.6153428571428,130.22035760879496L910.8381142857143,54.97866554260225L914.8851285714286,178.78226680755603L915.4049285714285,50.66586656570406L918.2638285714285,75.92757625579806L918.4866,38.277215194701824L921.6796571428571,92.30098171234107L922.5336142857143,36.90510435104338L925.1326142857143,121.8989221572874L925.9494428571429,31.494616699218422L927.1746857142857,129.2817346572874L928.0657714285715,32.032195758819256L929.5509142857143,195.26562137603747L930.2192285714286,96.1609165191648L930.442,4.354309272765744L930.5533857142858,99.00922937393165L933.3751571428571,154.90979118347153L933.4122857142858,23.97076292037931L935.1573285714285,143.9676014900206L936.3083142857142,130.35058422088602L937.3107857142858,115.93643589019756L937.4221714285715,136.82226104736307L937.6078142857142,48.337558937072465L940.2439428571429,46.172372531890545L940.6523571428571,1712.511095237734L942.4716571428571,59.427999687194536L944.5879857142857,133.12770051956156L946.2587714285714,142.29042692184433L947.7810428571429,1826.0493247032186L948.2637142857144,125.41684312820415L948.3008428571428,64.28423566818209L949.1176714285714,69.34820337295504L949.7117285714285,12.6500598907467L953.833,41.46709127426115L954.6127,49.28249044418306L957.1745714285714,224.0948192596435L957.2859571428572,191.24797267913806L957.3230857142858,163.42859430313095L959.1052571428571,106.57859487533545L959.9963428571428,23.69634075164762L964.8973142857143,157.7175490379332L968.3502714285714,126.90115613937358L970.7265,159.48033971786484L973.1398571428572,200.46792669296252L973.9938142857143,115.25015516281108L977.1126142857144,92.92642993926978L977.224,48.24202938079805L977.4096428571428,76.24210281372042L979.8972571428571,227.13554306030267L980.5655714285714,163.3042256355284L983.3502142857143,56.7211787223813L984.7982285714286,17.983042430877358L990.6645428571428,47.55710048675508L992.2610714285714,18.70356960296598L994.8971999999999,49.07025260925264L995.8625428571428,830.5907933235177L996.6422428571428,89.67211647033668L996.8650142857143,207.36903591155993L1002.7313285714285,-9.818762111664189L1011.6050571428572,214.07548112869256L1012.0877285714286,170.20623607635483L1013.3501000000001,162.3300044059752L1014.7609857142858,102.69432706832862L1015.8005857142857,139.05413789749124L1020.0332428571429,88.99169368743873L1021.3327428571429,210.5237643241881L1022.7065,81.08797473907447L1026.0852,1916.9849006652853L1030.9119142857144,41.498183441161785L1033.696557142857,153.00595922470077L1037.0381285714286,212.7488820075988L1037.1495142857143,77.69577426910372L1042.7559285714285,87.6020090103147L1044.7608714285714,190.67164106369006L1045.1321571428573,119.53141136169414L1046.3945285714285,78.18964405059786L1046.7658142857142,109.42195100784278L1047.7311571428572,130.56192083358744L1049.4019428571428,206.1411206245421L1050.2559,98.10530347824073L1053.0405428571428,53.032476139068315L1053.7459857142858,186.11641330718982L1055.4910285714286,206.82064218521106L1059.6865571428573,-11.361203956604374L1061.5058571428572,136.3680450439451L1064.5132714285714,105.45477075576758L1064.9216857142858,184.40093679428088L1065.6642571428572,110.86255474090557L1068.3746428571428,72.95083923339816L1070.4909714285714,339.2804829597474L1074.4637285714286,4.402524662017453L1079.6988571428572,170.21074218749985L1081.1468714285716,1532.2391621589675L1082.2236,189.17290849685656L1085.4537857142857,154.42358179092392L1087.2359571428572,84.9479095458982L1087.3102142857144,163.31368846893295L1088.7211,22.431024742126137L1089.5750571428573,138.22906894683817L1092.2111857142856,-5.117536354065311L1097.4463142857142,193.9309112548827L1099.822542857143,207.5682060241698L1103.4611428571427,135.70970220565775L1103.7581714285714,170.21975440978989L1110.218542857143,113.62480087280254L1111.4437857142857,209.24538059234607L1114.1913,120.77825231552104L1115.6393142857141,111.65743274688701L1118.8323714285714,-2.45262222290076L1122.4709714285714,90.36650819778419L1122.9536428571428,14.662939739226925L1123.2877999999998,251.67627496719356L1126.2209571428573,114.68734188079814L1128.4115428571429,88.15085334777808L1132.6442,125.50290985107402L1133.2011285714284,84.82534332275367L1136.1342857142859,175.17016811370837L1139.3644714285713,117.58612318038921L1144.0426714285713,68.96202964782687L1145.3421714285714,77.67459554672213L1148.0896857142857,49.370810222625444L1152.6936285714285,236.56458063125606L1153.4733285714285,115.11001510620098L1154.4015428571429,-20.719495582580937L1156.7777714285714,104.24127502441382L1157.2975714285715,140.41588468551615L1161.8643857142856,116.05539722442607L1162.2728,127.61267108917217L1165.9856571428572,198.55373067855822L1168.4732714285715,88.11795873641944L1175.8989857142858,196.87069816589343L1180.6143142857143,64.69023628234835L1180.6514428571427,63.09462232589693L1181.7281714285714,131.9597165107725L1181.8024285714287,64.21529216766329L1185.478157142857,60.115181636810014L1193.4236714285714,101.27580327987647L1193.6464428571428,177.8972665786742L1193.8692142857142,14.85580129623376L1194.0177285714285,118.13226385116558L1194.0548571428571,85.65311594009376L1198.3246428571429,303.19960041046147L1206.9013428571427,25.32710237503019L1210.539942857143,39.72052259445158L1210.9112285714286,1750.4273168563864L1211.1711285714287,60.53605241775484L1211.8394428571428,201.42322225570666L1215.5894285714285,123.09619588851909L1218.7824857142857,57.28759689331026L1222.1611857142857,107.75604171752906L1222.2354428571427,132.75369329452494L1223.4235571428571,189.15037794113147L1224.0918714285715,108.57975883483863L1234.5992571428571,119.51248569488506L1235.5646,132.35670490264872L1237.198257142857,122.14135093688945L1241.5423,50.305828285217L1242.0249714285715,102.1130387306211L1245.4408,118.8992039680479L1246.5175285714286,112.8772370338438L1247.965542857143,108.07417316436744L1261.2947,258.26826496124266L1262.260042857143,176.68737573623645L1263.0768714285714,82.41457386016822L1263.7823142857142,227.88716239929192L1264.7105285714285,84.29722709655738L1265.3045857142856,102.05400867462134L1265.7501285714286,127.55454225540142L1269.8714,204.28099794387805L1272.1733714285715,27.451283168792397L1279.8961142857142,179.9069921493529L1280.1560142857143,164.00041980743393L1280.4901714285713,141.78394002914413L1282.3466,100.53454799652076L1282.4579857142858,137.62209577560404L1283.2376857142858,148.0492369651793L1284.3886714285713,33.08752698898283L1285.0941142857143,8.006962966918575L1290.1436,70.27736349105807L1293.1510142857144,15.588945579528438L1293.1881428571428,80.71982545852637L1294.4505142857142,89.54955024719214L1299.5371285714286,3274.718771409992L1299.7227714285714,141.17516441345194L1300.6881142857142,131.98765439987162L1302.3960285714286,116.25366611480693L1302.9529571428573,110.64490957260112L1305.9975,86.2186328887937L1307.5940285714287,65.3237955093381L1308.5593714285715,55.459467601775835L1310.081642857143,76.14747447967501L1311.6781714285714,199.50992746353137L1316.5791428571429,70.96905155181857L1316.9875571428572,92.02565832138038L1320.7746714285713,19.602088165282876L1322.2598142857144,126.72676963806133L1325.7499,107.01658887863135L1326.2696999999998,104.73334236144996L1326.9380142857142,158.72556610107407L1338.5963857142856,95.9540860176084L1340.5642,71.16551799774142L1351.7399,148.61700696945175L1353.1136571428572,173.2239787101744L1362.5071857142857,104.07229585647559L1363.4725285714285,248.65357561111446L1366.6655857142857,124.3903510093687L1369.078942857143,162.02854557037338L1369.3388428571427,1118.1086222648632L1369.6358714285714,133.00918979644754L1371.4180428571428,121.05087203979473L1371.7522000000001,121.69389410018901L1373.942785714286,79.83167095184302L1374.425457142857,141.7789833068846L1380.2546428571427,-15.962394046783817L1381.4798857142855,69.31260509490939L1383.0392857142856,123.92712278366069L1389.9452,65.8077518463132L1393.4352857142858,17.004315090179116L1393.917957142857,-11.502245235443485L1396.4798285714287,188.96562738418567L1398.187742857143,70.6301919937131L1400.0070428571428,85.81353349685645L1402.086242857143,276.2990180969238L1406.9872142857143,53.51598186492891L1407.284242857143,61.60264892578096L1410.9971,81.41601963043189L1411.4426428571428,41.86407966613737L1412.1852142857144,32.62429876327482L1416.5663857142858,84.94340343475318L1417.568857142857,147.85277051925644L1417.6431142857143,130.38077516555765L1420.984685714286,118.575214576721L1423.5836857142858,75.80681247711154L1424.586157142857,149.6908132553099L1424.846057142857,238.75680370330807L1425.8856571428573,31.329242420196206L1430.9351428571429,179.89077014923083L1434.3509714285715,133.58236713409403L1437.9524428571428,-16.49862127304114L1438.2866,71.91398305892916L1438.732142857143,70.24897499084445L1439.437585714286,72.05367250442477L1440.0687714285714,85.76171321868873L1442.0737142857142,230.3912083625793L1442.5192571428572,40.457722377776776L1443.4474714285714,169.9930970191954L1444.8212285714285,64.10354061126681L1448.6826,84.80416460037208L1449.3880428571429,61.714400482177446L1449.6479428571429,193.40775175094592L1451.355857142857,53.57320947647066L1453.2865428571429,171.45758314132675L1453.3979285714283,169.5983616828917L1454.6974285714286,99.48552532196021L1461.4548285714286,76.65576381683321L1461.491957142857,136.8317238807676L1462.2716571428573,107.45863838195777L1464.3137285714288,218.90468044281L1467.5439142857142,141.02466030120829L1467.5810428571428,30.729028415679604L1468.9919285714284,136.1337272644041L1470.2914285714287,212.4821202278136L1470.6255857142855,107.15943260192847L1477.1230857142857,91.53629465103126L1480.6503,21.800169181823403L1488.113142857143,65.5540577888486L1489.4497714285715,119.20922441482524L1491.751742857143,1.3509861946102264L1494.610642857143,88.14364356994605L1497.5438000000001,29.435323905944497L1498.3235,198.67674751281726L1498.6205285714286,110.9630410194395L1499.1032,126.03823585510234L1499.1774571428573,85.8464281082151L1503.0388285714284,182.52909822463977L1503.1130857142857,127.33824892044048L1506.3432714285714,46.08630580902067L1506.454657142857,54.409543704986284L1513.8061142857143,71.05196399688693L1514.0660142857143,211.33351249694812L1516.5165,96.78816719055152L1516.7021428571427,173.07077093124374L1520.5635142857143,91.58315820693946L1521.1947,145.96290750503525L1523.6823142857143,89.50043363571143L1524.4248857142857,51.69551296234102L1528.397642857143,-0.8421380996707795L1530.8852571428572,161.19401378631576L1531.4421857142859,164.40461797714218L1532.0362428571427,-1.846099662781131L1532.5189142857143,17.18771381378141L1533.8184142857142,95.88829679489112L1534.783757142857,154.02028484344467L1543.4347142857143,22.580177021026284L1545.6624285714286,37.57561368942228L1546.776285714286,99.46434659957862L1547.4817285714284,23.415159416198403L1550.7861714285714,33.188013267516766L1552.2341857142858,133.3223645210264L1552.3827,140.14732046127298L1552.7168571428572,149.2266838073729L1553.867842857143,-32.3659904479985L1555.9841714285715,72.48941345214816L1561.404942857143,65.6013719558713L1565.711857142857,153.16502494811996L1566.9370999999999,49.43254394531221L1570.9841142857142,112.29324502944927L1576.3306285714284,76.96082754135104L1577.5929999999998,35.05309267044035L1587.803357142857,62.94501943588228L1589.3998857142858,59.70602674484224L1591.961757142857,90.39714975357032L1603.6943857142855,37.81263513565031L1605.736457142857,163.8557736396788L1606.2933857142857,120.05592269897441L1610.1176285714284,109.16014595031714L1612.8651428571427,67.62236280441256L1613.4592,172.70172042846664L1613.8676142857144,72.64577550888033L1615.1299857142858,114.4237343788145L1618.1002714285714,84.47431726455665L1620.3651142857143,24.98553915023771L1620.402242857143,19.67193288803068L1622.5557,141.98986930847153L1623.2982714285715,142.48509092330917L1624.8948,-10.351384449005497L1627.7537,188.36406154632556L1632.9888285714285,210.64587993621814L1633.8427857142858,156.49233741760239L1633.8799142857142,188.24104471206653L1638.9294000000002,75.21335763931246L1642.4937428571427,-22.020409870148075L1644.6843285714285,200.87167425155627L1645.0927428571426,161.70005006790146L1655.6372571428572,-3.7823756217960236L1659.7585285714285,69.92633743286105L1660.7981285714286,-24.516344833374394L1662.6916857142858,89.23186941146827L1666.2931571428571,20.247363281249672L1667.4441428571429,156.53154058456406L1667.6297857142858,105.8269755363462L1668.2609714285713,46.924442481994305L1671.5654142857143,76.68865842819186L1679.1396428571427,1.8673865318294647L1681.8129000000001,127.20081253051738L1685.7114,79.35717744827247L1688.9415857142858,183.36227817535388L1689.3871285714288,167.2952882766722L1690.575242857143,98.9740817070005L1691.6148428571428,107.73035688400245L1694.8450285714287,91.91030187606788L1695.2163142857144,37.707642745971356L1695.4390857142857,44.1324560165402L1695.5875999999998,81.29841012954688L1696.7385857142858,84.78794260025L1696.8128428571429,230.43176336288448L1697.3326428571427,37.43231935501066L1697.5554142857143,1551.9953052520766L1700.2658,68.9241783142087L1709.4365571428573,-64.1133459091191L1712.7038714285713,105.62780542373633L1713.6692142857144,154.3983475685118L1717.010785714286,106.79849309921241L1718.0132571428571,40.44330282211271L1720.612257142857,156.31750030517563L1723.1370000000002,18.36380882263151L1726.1815428571426,74.49643535613986L1727.963714285714,98.94794626235938L1728.5577714285714,194.91774959564196L1730.5627142857143,66.90859479904147L1736.6146714285715,122.32069416046123L1736.9117,67.99456758499117L1739.2879285714287,73.08602256774874L1740.2903999999999,58.576795291900346L1745.3027571428572,117.01249523162822L1745.5626571428572,71.05196399688693L1746.2309714285716,35.18512172698942L1750.0552142857143,101.28030939102149L1750.9462999999998,133.14121885299662L1751.3175857142858,140.39966268539408L1751.8373857142858,277.725652885437L1754.139357142857,2011.5487973213217L1757.6665714285714,112.84704608917217L1761.7878428571428,162.173642349243L1762.4561571428571,75.42153997421237L1762.8274428571428,239.48949737548824L1763.607142857143,183.65247173309314L1767.654157142857,87.01080722808814L1770.2531571428572,106.1288849830625L1773.891757142857,29.423157405852944L1779.6466857142857,103.44414396285987L1780.8719285714285,203.1630317687987L1781.5031142857144,59.7655074119565L1782.9511285714284,222.91692180633538L1792.5303,65.31658573150607L1799.8075000000001,86.36237783431983L1801.441157142857,190.2642886161803L1802.7406571428573,162.60577840805038L1803.8545142857142,1903.2930819511434L1804.7456,124.54626245498638L1805.9337142857141,121.77545471191387L1808.6069714285716,152.60942144393906L1809.6094428571428,119.35882730483989L1809.757957142857,26.76184816360441L1810.3148857142858,186.51790781021106L1811.2802285714286,53.332583141326616L1812.097057142857,54.949826431274126L1818.4460428571429,47.95589132308931L1818.5945571428572,112.1409384727476L1819.0772285714286,231.40012664794918L1822.0475142857142,64.73755044937106L1822.1960285714285,61.34625120162935L1823.532657142857,45.58252258300749L1826.762842857143,334.97579498291026L1827.022742857143,138.187612724304L1828.6564,68.5781089782712L1830.6242142857145,161.29990739822372L1832.0722285714285,95.7684342384336L1834.3370714285713,209.53962965011584L1837.938542857143,70.5378167152402L1839.3494285714287,1667.347244453432L1841.0573428571429,13.531004619598018L1841.0944714285715,218.41036005020135L1843.285057142857,111.32758541107158L1846.403857142857,171.19667930603012L1847.294942857143,249.3772570610046L1849.1142428571427,164.85477848052963L1849.634042857143,55.007054042815874L1855.1290714285713,73.36269779205294L1856.2429285714286,49.33971805572481L1858.4335142857142,148.01904602050766L1860.3270714285713,131.13554878234842L1867.975557142857,203.74567193984973L1868.3097142857143,186.21464653015124L1870.2775285714288,85.19078893661475L1875.2898857142857,173.09600515365585L1876.6265142857142,118.4143464088438L1880.4507571428571,-0.5952032089237091L1880.8963,19.544409942626626L1885.0918285714286,80.56842012405372L1887.6165714285714,123.09619588851909L1888.9160714285713,158.02621765136703L1894.4853571428573,174.63484210968005L1894.8195142857141,153.27091856002792L1895.8219857142858,224.3741981506347L1896.935842857143,86.61967678070044L1898.1982142857141,133.54271335601786L1899.869,94.09486455917335L1900.1660285714286,93.79656000137305L1901.2056285714284,15.784510803222329L1905.4011571428573,100.26237888336158L1905.9952142857142,64.51449794769259L1908.297185714286,72.10323972701998L1908.9283714285714,147.01868934631332L1912.1214285714286,57.46603889465303L1912.4555857142857,11.03732271194421L1919.435757142857,216.05636758804314L1921.3664428571428,104.29039163589454L1932.0594714285714,53.182529640197465L1932.8391714285715,76.20199842452975L1938.0743,98.96687192916846L1939.6708285714285,149.34699697494491L1941.638642857143,164.7813288688658L1941.898542857143,60.514423084258745L1942.6411142857141,172.75669498443588L1943.6064571428572,122.76544733047466L1946.9480285714287,33.130335044860516L1948.8787142857143,81.7418114662168L1951.1064285714285,94.90371150970435L1951.3663285714288,193.69884653091418L1952.4430571428572,7.496871185302365L1954.4108714285715,195.49092693328845L1954.5593857142856,239.62828559875484L1955.0420571428572,41.22286005020109L1955.5618571428572,159.80928583145126L1956.4529428571427,16.018377971648842L1956.8984857142857,209.35172481536853L1958.0865999999999,101.78229017257667L1958.3464999999999,1176.7020360946667L1958.8663000000001,306.9202963829041L1963.0618285714286,66.32730646133395L1963.470242857143,82.91970891952491L1963.693014285714,199.13051290512072L1965.2152857142858,103.99749441146827L1965.3637999999999,130.97738428115824L1965.8836,293.2082001686096L1966.7375571428572,216.40649242401116L1970.6731857142856,189.70372838973987L1972.2697142857144,282.6602952003479L1974.5716857142859,166.03087348937973L1975.1657428571427,210.1051465988158L1976.2795999999998,78.40233249664279L1983.482542857143,52.33898563384981L1985.1533285714283,210.035301876068L1986.9354999999998,130.15276594161966L1987.2325285714285,65.91454668045016L1991.2424142857144,105.55300397872901L1991.9849857142856,154.57093162536606L1999.1879285714285,87.35958023071265L2004.3116714285713,121.58439559936504L2015.0789571428572,67.56783885955782L2017.0839,82.09373874664283L2018.0121142857142,168.73408956527695L2022.6903142857143,45.32206935882536L2025.6977285714286,60.906454753875444L2027.9625714285714,210.496727657318L2028.6680142857142,44.44563074111906L2030.8586,160.0692884445189L2035.1655142857144,161.826221179962L2038.0986714285714,89.57568569183326L2042.3313285714285,160.93671483993515L2044.1877571428572,180.31344337463366L2045.5615142857143,183.159503173828L2047.6407142857142,124.51607151031475L2048.2347714285715,157.1880809783934L2049.3486285714284,141.13821430206278L2052.059014285714,74.80375213623019L2056.2916714285716,61.01820631027193L2059.5589857142854,165.77582759857162L2062.0837285714288,80.82842273712134L2065.4624285714285,109.5647947311399L2065.536685714286,107.06074876785254L2065.759457142857,46.578373146056805L2072.516857142857,250.7858674049377L2078.4574285714284,203.2513515472411L2079.794057142857,178.9809863090514L2084.063842857143,135.45690937042215L2084.212357142857,76.1664001464841L2087.6653142857144,210.74321193695056L2089.707385714286,1539.867557716371L2091.9350999999997,145.3987423896788L2095.4623142857145,95.84143323898292L2103.0365428571426,70.4003803253171L2107.0835571428574,51.011485290527055L2108.7172142857144,296.8144409179688L2108.8657285714285,76.1664001464841L2109.162757142857,57.60843200683565L2114.6577857142856,13.502165508269893L2116.402828571429,-2.289951610565555L2118.8533142857145,56.285437774657915L2118.9275714285714,73.94488735198946L2125.1651714285713,-45.3327758789067L2127.207242857143,67.53449363708468L2128.246842857143,126.81508941650371L2129.4720857142856,155.85472269058212L2130.363171428571,101.80797500610328L2130.734457142857,126.15449352264385L2135.3012714285715,131.00306911468485L2135.9695857142856,77.08609743118258L2138.7542285714285,106.60427970886207L2140.1651142857145,164.88271636962875L2141.687385714286,219.84510583877557L2145.437371428571,129.70440788269022L2146.1428142857144,38.708450031280194L2150.004185714286,14.566508960723507L2151.229428571429,74.97408313751193L2153.605657142857,184.8664180755614L2153.976942857143,43.8314477920529L2156.9101,161.51620073318466L2157.4670285714287,56.10474271774263L2158.8407857142856,139.4362561225889L2168.3828285714285,175.5914895057677L2168.679857142857,214.42335290908807L2170.8704428571427,119.51023263931255L2171.3902428571428,1684.7624628067035L2177.5535857142854,57.1587221145627L2179.707042857143,31.8352787017819L2179.966942857143,153.51334733962997L2180.1154571428574,82.46414108276343L2180.2639714285715,206.57145423889148L2184.088214285714,87.38977117538428L2185.4991,211.29746360778796L2186.724342857143,55.72397632598848L2187.132757142857,81.34076757431006L2191.4768,187.55972070693957L2193.2961,187.67147226333606L2193.8530285714287,170.25895757675156L2194.6327285714283,148.2569686889647L2195.189657142857,106.76604909896827L2197.4173714285716,54.561850261687944L2199.5708285714286,92.30098171234107L2204.286157142857,7.2720162391658905L2207.9247571428573,67.55612297058077L2212.4915714285717,70.94066305160494L2213.8282,230.2294389724731L2214.6450285714286,99.75318832397437L2216.2786857142855,123.14981861114482L2216.7613571428574,190.55313034057605L2217.3182857142856,89.2179004669187L2220.5856000000003,168.19696111679062L2222.6648,85.47151966094947L2225.4123142857143,81.0501234054563L2227.0831,157.80046148300156L2234.9172285714285,86.36012477874732L2238.8528571428574,78.77588911056495L2238.964242857143,97.80970258712745L2239.9295857142856,34.14466066360441L2241.0805714285716,170.72669191360458L2247.7265857142856,119.89730758666973L2247.912228571429,164.0396229743956L2248.2092571428575,-47.131164836884L2254.224085714286,210.0578324317931L2256.1919,42.624260616302166L2257.2686285714285,-34.03235034942672L2260.0532714285714,60.02956552505464L2263.506228571429,137.34632177352884L2263.6176142857144,138.02313966751078L2268.2586857142855,122.12738199233989L2276.1670714285715,113.35848970413188L2277.3923142857143,128.2912914276121L2278.9517142857144,96.47544307708716L2280.1398285714286,-2.2949083328250763L2280.9195285714286,35.266682338714276L2283.2586285714283,63.32263154983492L2283.7041714285715,122.43920488357524L2284.2239714285715,58.24604673385591L2284.4838714285715,151.8596045494078L2284.558128571429,99.60538787841773L2287.454157142857,178.80299491882312L2294.1001714285712,177.01001329421985L2295.3254142857145,227.57669134140008L2296.6620428571428,2.9934637069698455L2297.850157142857,68.91471548080416L2301.9714285714285,152.00515193939194L2303.3451857142854,74.54374952316256L2310.8080285714286,199.89114446640002L2311.699114285714,808.4378497123727L2313.11,236.63622779846187L2313.3327714285715,62.51288337707491L2314.1495999999997,24.13163108825651L2316.7857285714285,0.8688323020931366L2319.4218571428573,115.8783070564268L2319.978785714286,122.60683221816997L2321.241157142857,249.20512361526485L2323.3574857142858,72.05592555999728L2327.4787571428574,193.69884653091418L2328.889642857143,23.034843635558754L2330.2262714285716,94.55583972930884L2334.310414285714,113.99610443115215L2342.4787,125.8890835762022L2350.090057142857,66.21825857162447L2351.9836142857143,113.82081670761089L2355.4737,41.93797988891569L2359.7806142857144,143.78961009979233L2361.822685714286,140.80476207733133L2362.9365428571427,356.45327253341685L2363.085057142857,95.74274940490699L2364.644457142857,252.17600269317623L2365.8325714285716,77.86385221481295L2366.835042857143,147.78112335205063L2367.4662285714285,119.84143180847148L2368.023157142857,71.69859094619723L2368.394442857143,52.12719841003389L2371.513242857143,83.57534809112525L2376.7855,225.2254025459289L2377.3795571428573,55.87132616043062L2377.4909428571427,264.6885721206665L2377.6023285714286,285.2508584976196L2378.419157142857,70.7464496612546L2382.688942857143,246.0751788139343L2386.067642857143,98.93623037338233L2387.8126857142856,68.26718730926486L2389.594857142857,329.51799316406255L2392.3052428571427,226.78001089096063L2397.651757142857,131.68799800872782L2399.4339285714286,2004.9649183273336L2400.0279857142855,2792.894275617603L2401.141842857143,86.44483966827369L2402.961142857143,164.12433786392197L2403.4438142857143,468.4233753204348L2403.629457142857,281.2070743560791L2404.149257142857,55.03093643188448L2406.6368714285713,69.38875837326022L2408.2705285714287,265.8899013519287L2409.273,623.2943598747258L2413.4685285714286,342.3892490386964" style="fill: none;" fill="none"></path></g></g></g></g></g></g><g transform="translate(54, 378)" clip-path="url(#clip_1)"><clipPath id="clip_1"><rect width="2599" height="22"></rect></clipPath><g><g><line x1="0" y1="0" x2="0" y2="5" style="visibility: inherit;" fill="rgb(0, 0, 0)" stroke="rgb(204, 204, 204)" stroke-width="1px"></line><line x1="185.64285714285714" y1="0" x2="185.64285714285714" y2="5" style="visibility: inherit;" fill="rgb(0, 0, 0)" stroke="rgb(204, 204, 204)" stroke-width="1px"></line><line x1="371.2857142857143" y1="0" x2="371.2857142857143" y2="5" style="visibility: inherit;" fill="rgb(0, 0, 0)" stroke="rgb(204, 204, 204)" stroke-width="1px"></line><line x1="556.9285714285714" y1="0" x2="556.9285714285714" y2="5" style="visibility: inherit;" fill="rgb(0, 0, 0)" stroke="rgb(204, 204, 204)" stroke-width="1px"></line><line x1="742.5714285714286" y1="0" x2="742.5714285714286" y2="5" style="visibility: inherit;" fill="rgb(0, 0, 0)" stroke="rgb(204, 204, 204)" stroke-width="1px"></line><line x1="928.2142857142858" y1="0" x2="928.2142857142858" y2="5" style="visibility: inherit;" fill="rgb(0, 0, 0)" stroke="rgb(204, 204, 204)" stroke-width="1px"></line><line x1="1113.857142857143" y1="0" x2="1113.857142857143" y2="5" style="visibility: inherit;" fill="rgb(0, 0, 0)" stroke="rgb(204, 204, 204)" stroke-width="1px"></line><line x1="1299.5" y1="0" x2="1299.5" y2="5" style="visibility: inherit;" fill="rgb(0, 0, 0)" stroke="rgb(204, 204, 204)" stroke-width="1px"></line><line x1="1485.142857142857" y1="0" x2="1485.142857142857" y2="5" style="visibility: inherit;" fill="rgb(0, 0, 0)" stroke="rgb(204, 204, 204)" stroke-width="1px"></line><line x1="1670.7857142857144" y1="0" x2="1670.7857142857144" y2="5" style="visibility: inherit;" fill="rgb(0, 0, 0)" stroke="rgb(204, 204, 204)" stroke-width="1px"></line><line x1="1856.4285714285716" y1="0" x2="1856.4285714285716" y2="5" style="visibility: inherit;" fill="rgb(0, 0, 0)" stroke="rgb(204, 204, 204)" stroke-width="1px"></line><line x1="2042.0714285714284" y1="0" x2="2042.0714285714284" y2="5" style="visibility: inherit;" fill="rgb(0, 0, 0)" stroke="rgb(204, 204, 204)" stroke-width="1px"></line><line x1="2227.714285714286" y1="0" x2="2227.714285714286" y2="5" style="visibility: inherit;" fill="rgb(0, 0, 0)" stroke="rgb(204, 204, 204)" stroke-width="1px"></line><line x1="2413.357142857143" y1="0" x2="2413.357142857143" y2="5" style="visibility: inherit;" fill="rgb(0, 0, 0)" stroke="rgb(204, 204, 204)" stroke-width="1px"></line><line x1="2599" y1="0" x2="2599" y2="5" style="visibility: inherit;" fill="rgb(0, 0, 0)" stroke="rgb(204, 204, 204)" stroke-width="1px"></line></g><g transform="translate(0, 8)"><text x="0" y="0" dx="0em" dy="0.95em" style="text-anchor: middle; visibility: hidden; font-family: Roboto, sans-serif; font-size: 12px; font-weight: 200;" fill="rgb(50, 49, 63)" stroke="none" stroke-width="1px">-5k</text><text x="185.64285714285714" y="0" dx="0em" dy="0.95em" style="text-anchor: middle; visibility: inherit; font-family: Roboto, sans-serif; font-size: 12px; font-weight: 200;" fill="rgb(50, 49, 63)" stroke="none" stroke-width="1px">0</text><text x="371.2857142857143" y="0" dx="0em" dy="0.95em" style="text-anchor: middle; visibility: inherit; font-family: Roboto, sans-serif; font-size: 12px; font-weight: 200;" fill="rgb(50, 49, 63)" stroke="none" stroke-width="1px">5k</text><text x="556.9285714285714" y="0" dx="0em" dy="0.95em" style="text-anchor: middle; visibility: inherit; font-family: Roboto, sans-serif; font-size: 12px; font-weight: 200;" fill="rgb(50, 49, 63)" stroke="none" stroke-width="1px">10k</text><text x="742.5714285714286" y="0" dx="0em" dy="0.95em" style="text-anchor: middle; visibility: inherit; font-family: Roboto, sans-serif; font-size: 12px; font-weight: 200;" fill="rgb(50, 49, 63)" stroke="none" stroke-width="1px">15k</text><text x="928.2142857142858" y="0" dx="0em" dy="0.95em" style="text-anchor: middle; visibility: inherit; font-family: Roboto, sans-serif; font-size: 12px; font-weight: 200;" fill="rgb(50, 49, 63)" stroke="none" stroke-width="1px">20k</text><text x="1113.857142857143" y="0" dx="0em" dy="0.95em" style="text-anchor: middle; visibility: inherit; font-family: Roboto, sans-serif; font-size: 12px; font-weight: 200;" fill="rgb(50, 49, 63)" stroke="none" stroke-width="1px">25k</text><text x="1299.5" y="0" dx="0em" dy="0.95em" style="text-anchor: middle; visibility: inherit; font-family: Roboto, sans-serif; font-size: 12px; font-weight: 200;" fill="rgb(50, 49, 63)" stroke="none" stroke-width="1px">30k</text><text x="1485.142857142857" y="0" dx="0em" dy="0.95em" style="text-anchor: middle; visibility: inherit; font-family: Roboto, sans-serif; font-size: 12px; font-weight: 200;" fill="rgb(50, 49, 63)" stroke="none" stroke-width="1px">35k</text><text x="1670.7857142857144" y="0" dx="0em" dy="0.95em" style="text-anchor: middle; visibility: inherit; font-family: Roboto, sans-serif; font-size: 12px; font-weight: 200;" fill="rgb(50, 49, 63)" stroke="none" stroke-width="1px">40k</text><text x="1856.4285714285716" y="0" dx="0em" dy="0.95em" style="text-anchor: middle; visibility: inherit; font-family: Roboto, sans-serif; font-size: 12px; font-weight: 200;" fill="rgb(50, 49, 63)" stroke="none" stroke-width="1px">45k</text><text x="2042.0714285714284" y="0" dx="0em" dy="0.95em" style="text-anchor: middle; visibility: inherit; font-family: Roboto, sans-serif; font-size: 12px; font-weight: 200;" fill="rgb(50, 49, 63)" stroke="none" stroke-width="1px">50k</text><text x="2227.714285714286" y="0" dx="0em" dy="0.95em" style="text-anchor: middle; visibility: inherit; font-family: Roboto, sans-serif; font-size: 12px; font-weight: 200;" fill="rgb(50, 49, 63)" stroke="none" stroke-width="1px">55k</text><text x="2413.357142857143" y="0" dx="0em" dy="0.95em" style="text-anchor: middle; visibility: inherit; font-family: Roboto, sans-serif; font-size: 12px; font-weight: 200;" fill="rgb(50, 49, 63)" stroke="none" stroke-width="1px">60k</text><text x="2599" y="0" dx="0em" dy="0.95em" style="text-anchor: middle; visibility: hidden; font-family: Roboto, sans-serif; font-size: 12px; font-weight: 200;" fill="rgb(50, 49, 63)" stroke="none" stroke-width="1px">65k</text></g><line x1="0" y1="0" x2="2599" y2="0" fill="rgb(0, 0, 0)" stroke="rgb(204, 204, 204)" stroke-width="1px"></line></g></g></g></g></svg>