<svg viewBox="0 0 330 200" xmlns="http://www.w3.org/2000/svg"><g><g><g><g><g><line x1="61.953125" y1="178" x2="56.953125" y2="178" style="visibility: inherit;" fill="rgb(0, 0, 0)" stroke="rgb(204, 204, 204)" stroke-width="1px"></line><line x1="61.953125" y1="160.20000000000002" x2="56.953125" y2="160.20000000000002" style="visibility: inherit;" fill="rgb(0, 0, 0)" stroke="rgb(204, 204, 204)" stroke-width="1px"></line><line x1="61.953125" y1="142.4" x2="56.953125" y2="142.4" style="visibility: inherit;" fill="rgb(0, 0, 0)" stroke="rgb(204, 204, 204)" stroke-width="1px"></line><line x1="61.953125" y1="124.6" x2="56.953125" y2="124.6" style="visibility: inherit;" fill="rgb(0, 0, 0)" stroke="rgb(204, 204, 204)" stroke-width="1px"></line><line x1="61.953125" y1="106.8" x2="56.953125" y2="106.8" style="visibility: inherit;" fill="rgb(0, 0, 0)" stroke="rgb(204, 204, 204)" stroke-width="1px"></line><line x1="61.953125" y1="88.99999999999999" x2="56.953125" y2="88.99999999999999" style="visibility: inherit;" fill="rgb(0, 0, 0)" stroke="rgb(204, 204, 204)" stroke-width="1px"></line><line x1="61.953125" y1="71.19999999999999" x2="56.953125" y2="71.19999999999999" style="visibility: inherit;" fill="rgb(0, 0, 0)" stroke="rgb(204, 204, 204)" stroke-width="1px"></line><line x1="61.953125" y1="53.400000000000006" x2="56.953125" y2="53.400000000000006" style="visibility: inherit;" fill="rgb(0, 0, 0)" stroke="rgb(204, 204, 204)" stroke-width="1px"></line><line x1="61.953125" y1="35.599999999999994" x2="56.953125" y2="35.599999999999994" style="visibility: inherit;" fill="rgb(0, 0, 0)" stroke="rgb(204, 204, 204)" stroke-width="1px"></line><line x1="61.953125" y1="17.799999999999997" x2="56.953125" y2="17.799999999999997" style="visibility: inherit;" fill="rgb(0, 0, 0)" stroke="rgb(204, 204, 204)" stroke-width="1px"></line><line x1="61.953125" y1="0" x2="56.953125" y2="0" style="visibility: inherit;" fill="rgb(0, 0, 0)" stroke="rgb(204, 204, 204)" stroke-width="1px"></line></g><g transform="translate(51.953125, 0)"><text x="0" y="178" dx="0em" dy="0.3em" style="text-anchor: end; visibility: hidden; font-family: Roboto, sans-serif; font-size: 12px; font-weight: 200;" fill="rgb(50, 49, 63)" stroke="none" stroke-width="1px">-5e-3</text><text x="0" y="160.20000000000002" dx="0em" dy="0.3em" style="text-anchor: end; visibility: inherit; font-family: Roboto, sans-serif; font-size: 12px; font-weight: 200;" fill="rgb(50, 49, 63)" stroke="none" stroke-width="1px">0</text><text x="0" y="142.4" dx="0em" dy="0.3em" style="text-anchor: end; visibility: hidden; font-family: Roboto, sans-serif; font-size: 12px; font-weight: 200;" fill="rgb(50, 49, 63)" stroke="none" stroke-width="1px">5e-3</text><text x="0" y="124.6" dx="0em" dy="0.3em" style="text-anchor: end; visibility: inherit; font-family: Roboto, sans-serif; font-size: 12px; font-weight: 200;" fill="rgb(50, 49, 63)" stroke="none" stroke-width="1px">0.01</text><text x="0" y="106.8" dx="0em" dy="0.3em" style="text-anchor: end; visibility: hidden; font-family: Roboto, sans-serif; font-size: 12px; font-weight: 200;" fill="rgb(50, 49, 63)" stroke="none" stroke-width="1px">0.015</text><text x="0" y="88.99999999999999" dx="0em" dy="0.3em" style="text-anchor: end; visibility: inherit; font-family: Roboto, sans-serif; font-size: 12px; font-weight: 200;" fill="rgb(50, 49, 63)" stroke="none" stroke-width="1px">0.02</text><text x="0" y="71.19999999999999" dx="0em" dy="0.3em" style="text-anchor: end; visibility: hidden; font-family: Roboto, sans-serif; font-size: 12px; font-weight: 200;" fill="rgb(50, 49, 63)" stroke="none" stroke-width="1px">0.025</text><text x="0" y="53.400000000000006" dx="0em" dy="0.3em" style="text-anchor: end; visibility: inherit; font-family: Roboto, sans-serif; font-size: 12px; font-weight: 200;" fill="rgb(50, 49, 63)" stroke="none" stroke-width="1px">0.03</text><text x="0" y="35.599999999999994" dx="0em" dy="0.3em" style="text-anchor: end; visibility: hidden; font-family: Roboto, sans-serif; font-size: 12px; font-weight: 200;" fill="rgb(50, 49, 63)" stroke="none" stroke-width="1px">0.035</text><text x="0" y="17.799999999999997" dx="0em" dy="0.3em" style="text-anchor: end; visibility: inherit; font-family: Roboto, sans-serif; font-size: 12px; font-weight: 200;" fill="rgb(50, 49, 63)" stroke="none" stroke-width="1px">0.04</text><text x="0" y="0" dx="0em" dy="0.3em" style="text-anchor: end; visibility: hidden; font-family: Roboto, sans-serif; font-size: 12px; font-weight: 200;" fill="rgb(50, 49, 63)" stroke="none" stroke-width="1px">0.045</text></g><line x1="61.953125" y1="0" x2="61.953125" y2="178" fill="rgb(0, 0, 0)" stroke="rgb(204, 204, 204)" stroke-width="1px"></line></g></g><g transform="translate(61, 0)" clip-path="url(#clip_0)"><clipPath id="clip_0"><rect width="268" height="178"></rect></clipPath><g><g><g><line x1="0" y1="0" x2="0" y2="178" fill="rgb(0, 0, 0)" stroke="rgb(60, 60, 60)" stroke-width="1px" opacity="0.25"></line><line x1="19.146205357142858" y1="0" x2="19.146205357142858" y2="178" fill="rgb(0, 0, 0)" stroke="rgb(60, 60, 60)" stroke-width="1px" opacity="0.25"></line><line x1="38.292410714285715" y1="0" x2="38.292410714285715" y2="178" fill="rgb(0, 0, 0)" stroke="rgb(60, 60, 60)" stroke-width="1px" opacity="0.25"></line><line x1="57.43861607142857" y1="0" x2="57.43861607142857" y2="178" fill="rgb(0, 0, 0)" stroke="rgb(60, 60, 60)" stroke-width="1px" opacity="0.25"></line><line x1="76.58482142857143" y1="0" x2="76.58482142857143" y2="178" fill="rgb(0, 0, 0)" stroke="rgb(60, 60, 60)" stroke-width="1px" opacity="0.25"></line><line x1="95.73102678571429" y1="0" x2="95.73102678571429" y2="178" fill="rgb(0, 0, 0)" stroke="rgb(60, 60, 60)" stroke-width="1px" opacity="0.25"></line><line x1="114.87723214285714" y1="0" x2="114.87723214285714" y2="178" fill="rgb(0, 0, 0)" stroke="rgb(60, 60, 60)" stroke-width="1px" opacity="0.25"></line><line x1="134.0234375" y1="0" x2="134.0234375" y2="178" fill="rgb(0, 0, 0)" stroke="rgb(60, 60, 60)" stroke-width="1px" opacity="0.25"></line><line x1="153.16964285714286" y1="0" x2="153.16964285714286" y2="178" fill="rgb(0, 0, 0)" stroke="rgb(60, 60, 60)" stroke-width="1px" opacity="0.25"></line><line x1="172.31584821428572" y1="0" x2="172.31584821428572" y2="178" fill="rgb(0, 0, 0)" stroke="rgb(60, 60, 60)" stroke-width="1px" opacity="0.25"></line><line x1="191.46205357142858" y1="0" x2="191.46205357142858" y2="178" fill="rgb(0, 0, 0)" stroke="rgb(60, 60, 60)" stroke-width="1px" opacity="0.25"></line><line x1="210.60825892857142" y1="0" x2="210.60825892857142" y2="178" fill="rgb(0, 0, 0)" stroke="rgb(60, 60, 60)" stroke-width="1px" opacity="0.25"></line><line x1="229.75446428571428" y1="0" x2="229.75446428571428" y2="178" fill="rgb(0, 0, 0)" stroke="rgb(60, 60, 60)" stroke-width="1px" opacity="0.25"></line><line x1="248.90066964285714" y1="0" x2="248.90066964285714" y2="178" fill="rgb(0, 0, 0)" stroke="rgb(60, 60, 60)" stroke-width="1px" opacity="0.25"></line><line x1="268.046875" y1="0" x2="268.046875" y2="178" fill="rgb(0, 0, 0)" stroke="rgb(60, 60, 60)" stroke-width="1px" opacity="0.25"></line></g><g><line x1="0" y1="178" x2="268.046875" y2="178" fill="rgb(0, 0, 0)" stroke="rgb(60, 60, 60)" stroke-width="1px" opacity="0.25"></line><line x1="0" y1="160.20000000000002" x2="268.046875" y2="160.20000000000002" fill="rgb(0, 0, 0)" stroke="rgb(60, 60, 60)" stroke-width="1px" opacity="0.25"></line><line x1="0" y1="142.4" x2="268.046875" y2="142.4" fill="rgb(0, 0, 0)" stroke="rgb(60, 60, 60)" stroke-width="1px" opacity="0.25"></line><line x1="0" y1="124.6" x2="268.046875" y2="124.6" fill="rgb(0, 0, 0)" stroke="rgb(60, 60, 60)" stroke-width="1px" opacity="0.25"></line><line x1="0" y1="106.8" x2="268.046875" y2="106.8" fill="rgb(0, 0, 0)" stroke="rgb(60, 60, 60)" stroke-width="1px" opacity="0.25"></line><line x1="0" y1="88.99999999999999" x2="268.046875" y2="88.99999999999999" fill="rgb(0, 0, 0)" stroke="rgb(60, 60, 60)" stroke-width="1px" opacity="0.25"></line><line x1="0" y1="71.19999999999999" x2="268.046875" y2="71.19999999999999" fill="rgb(0, 0, 0)" stroke="rgb(60, 60, 60)" stroke-width="1px" opacity="0.25"></line><line x1="0" y1="53.400000000000006" x2="268.046875" y2="53.400000000000006" fill="rgb(0, 0, 0)" stroke="rgb(60, 60, 60)" stroke-width="1px" opacity="0.25"></line><line x1="0" y1="35.599999999999994" x2="268.046875" y2="35.599999999999994" fill="rgb(0, 0, 0)" stroke="rgb(60, 60, 60)" stroke-width="1px" opacity="0.25"></line><line x1="0" y1="17.799999999999997" x2="268.046875" y2="17.799999999999997" fill="rgb(0, 0, 0)" stroke="rgb(60, 60, 60)" stroke-width="1px" opacity="0.25"></line><line x1="0" y1="0" x2="268.046875" y2="0" fill="rgb(0, 0, 0)" stroke="rgb(60, 60, 60)" stroke-width="1px" opacity="0.25"></line></g></g></g><g><g><line x1="0" y1="160.20000000000002" x2="268.046875" y2="160.20000000000002" fill="rgb(0, 0, 0)" stroke="rgb(153, 153, 153)" stroke-width="1.5px"></line></g></g><g><g><line x1="19.146205357142858" y1="0" x2="19.146205357142858" y2="178" fill="rgb(0, 0, 0)" stroke="rgb(153, 153, 153)" stroke-width="1.5px"></line></g></g><g><g><g><g><g><path stroke="rgb(255, 112, 67)" stroke-width="2px" d="M20.103515625,107.98779201209544L21.060825892857142,105.26604480804924L22.018136160714285,102.31866970156557L22.975446428571427,99.15518054954713L23.932756696428573,95.7881153726908L24.890066964285715,92.23234930957756L25.847377232142858,88.50435095303082L26.8046875,84.62144423864964L27.761997767857146,80.60112067557L28.719308035714285,76.46047485098545L29.676618303571427,72.21573300050602L30.63392857142857,67.88193511154938L31.591238839285715,63.47272763695522L32.548549107142854,59.000265247956975L33.505859375,54.47520051030474L34.46316964285714,49.90673265713529L35.420479910714285,45.302703613277984L36.37779017857142,40.66972985217114L37.33510044642857,36.01333838141032L38.292410714285715,31.338098663337956L39.24972098214286,27.86706963297176L40.20703125,25.29285283842471L41.164341517857146,23.38786625485503L42.121651785714285,21.983412555454898L43.07896205357143,20.954319038333594L44.03627232142857,20.20765153313888L44.99358258928571,19.674365990101546L45.950892857142854,19.303145472871122L46.908203125,19.05584948295242L47.865513392857146,18.904099141812303L48.822823660714285,18.826797348035665L49.78013392857143,18.80823641217919L50.73744419642857,18.836732868670644L51.694754464285715,18.903582318101407L52.652064732142854,19.002309605015625L53.609375,19.12807733796949L54.566685267857146,19.277283365238358L55.52399553571429,19.447241030383644L56.48130580357143,19.63593455075689L57.43861607142857,19.841850632010736L58.395926339285715,20.063856602071386L59.353236607142854,20.30109956718634L60.310546875,20.552924599128556L61.26785714285714,20.81883084471348L62.225167410714285,21.098432082441974L63.18247767857143,21.39143077237675L64.13978794642857,21.697581774078802L65.09709821428571,22.016692513488152L66.05440848214286,22.3485993414361L67.01171875,22.693163524629338L67.96902901785714,23.050268262837847L68.92633928571428,23.419799494178278L69.88364955357143,23.801655379731184L70.84095982142857,24.195743174774034L71.79827008928571,24.601973505836057L72.75558035714285,25.020252717695374L73.712890625,25.450497549988203L74.67020089285714,25.892622291006393L75.62751116071429,26.346536010258134L76.58482142857143,26.812150684713885L77.54213169642858,27.28937705947447L78.49944196428572,27.778118173014466L79.45675223214286,28.278288305517147L80.4140625,28.789789730541028L81.37137276785714,29.31252936905956L82.32868303571429,29.846407414497538L83.28599330357143,30.39132584515745L84.24330357142857,30.947177782058866L85.20061383928571,31.51385654657132L86.15792410714286,32.09126579437242L87.115234375,32.67928970922451L88.07254464285714,33.277825148433294L89.02985491071428,33.886758027939585L89.98716517857142,34.5059695183914L90.94447544642857,35.135350840262674L91.90178571428571,35.77478032061557L92.85909598214286,36.42413687905643L93.81640625,37.08330666620631L94.77371651785715,37.752160842078354L95.73102678571429,38.43057638907655L96.68833705357143,39.11842443622234L97.64564732142857,39.815578547781875L98.60295758928572,40.52191070476295L99.56026785714286,41.237288315148746L100.517578125,41.96157877967277L101.47488839285714,42.69464270351382L102.43219866071428,43.43634921628009L103.38950892857143,44.1865534192721L104.34681919642857,44.94511695213218L105.30412946428571,45.71189952886794L106.26143973214285,46.486759430814786L107.21875,47.2695487807791L108.17606026785714,48.06012700240372L109.13337053571429,48.858343673291216L110.09068080357143,49.66404783575145L111.04799107142858,50.477091528916894L112.00530133928572,51.29732223139505L112.96261160714286,52.12458912138373L113.919921875,52.95873245633407L114.87723214285714,53.79960113452437L115.83454241071429,54.64703520514577L116.79185267857143,55.500880016450566L117.74916294642857,56.360976371490985L118.70647321428571,57.22715999415033L119.66378348214286,58.09926961957119L120.62109375,58.97714792081352L121.57840401785714,59.86062522288509L122.53571428571428,60.749541336786L123.49302455357142,61.643727853232114L124.45033482142857,62.54301533966872L125.40764508928571,63.44724039238883L126.36495535714286,64.35623390790653L127.322265625,65.26982423964066L128.27957589285714,66.18784294156805L129.23688616071428,67.11011376363894L130.19419642857142,68.03647332255093L131.15150669642856,68.96674234475742L132.10881696428572,69.90075010485353L133.06612723214286,70.83832035446976L134.0234375,71.77927952631218L134.98074776785714,72.72344925764584L135.93805803571428,73.67065610562918L136.89536830357142,74.62072349766014L137.85267857142856,75.57347253259483L138.80998883928572,76.52872597193486L139.76729910714286,77.4863078141901L140.724609375,78.44604128066418L141.68191964285714,79.40774222425824L142.63922991071428,80.37122950348338L143.59654017857142,81.33632930564534L144.55385044642856,82.30285629527026L145.5111607142857,83.27063523687931L146.46847098214283,84.23948143398721L147.42578125,85.20921503390187L148.38309151785714,86.17965809017294L149.34040178571428,87.1506272844329L150.29771205357142,88.12194209176896L151.25502232142858,89.09341727543747L152.21233258928572,90.06487597587468L153.16964285714286,91.03613738089696L154.126953125,92.00701773757142L155.08426339285717,92.97733619766865L156.0415736607143,93.94691237651834L156.99888392857144,94.91556793187844L157.95619419642858,95.88312264599284L158.91350446428572,96.8493915106426L159.87081473214286,97.8141927436654L160.828125,98.777352055706L161.78543526785714,99.73868715173532L162.74274553571428,100.69801996574458L163.70005580357144,101.65516709041485L164.65736607142858,102.6099538760444L165.61467633928572,103.56220200335711L166.57198660714286,104.51173381799403L167.529296875,105.45837131152444L168.48660714285714,106.40193790962854L169.44391741071428,107.34225640742477L170.40122767857142,108.27915507228455L171.35853794642856,109.21245605769388L172.31584821428572,110.1419846073393L173.27315848214286,111.06756911278657L174.23046875,111.98903776131336L175.18777901785714,112.90621943697695L176.14508928571428,113.81893760084779L177.10239955357142,114.72702525961633L178.05970982142856,115.63031573175319L179.0170200892857,116.52863832384271L179.97433035714283,117.42182275270642L180.931640625,118.30970243546291L181.88895089285714,119.19211778610244L182.84626116071428,120.06889660011485L183.80357142857142,120.93988274792991L184.76088169642858,121.80490829416873L185.71819196428572,122.66381264656343L186.67550223214286,123.5164381298104L187.6328125,124.36262584374678L188.59012276785717,125.20221427937419L189.5474330357143,126.03504677688174L190.50474330357144,126.86097283056448L191.46205357142858,127.6798320842798L192.41936383928572,128.49147807241314L193.37667410714286,129.29575429341932L194.333984375,130.09251035934304L195.29129464285714,130.88160212828018L196.24860491071428,131.6628794957619L197.20591517857144,132.4361985307981L198.16322544642858,133.20141268092044L199.12053571428572,133.9583785359018L200.07784598214286,134.70695969157825L201.03515625,135.4470113759746L201.99246651785714,136.17839659617138L202.94977678571428,136.90098160055626L203.90708705357142,137.61463165396876L204.86439732142856,138.3192100163334L205.82170758928572,139.01458567046413L206.77901785714286,139.7006322813897L207.736328125,140.37721766123516L208.69363839285714,141.04422054542772L209.65094866071428,141.70151166969868L210.60825892857142,142.34896982271295L211.56556919642856,142.98647638943757L212.5228794642857,143.61390959386728L213.48018973214283,144.2311550690903L214.4375,144.83809526066634L215.39481026785714,145.43461618402486L216.35212053571428,146.02061054223668L217.30943080357142,146.59596455558076L218.26674107142858,147.16057532338667L219.22405133928572,147.71433382209764L220.18136160714286,148.25713793112644L221.138671875,148.78888790719225L222.09598214285717,149.30948365380476L223.0532924107143,149.81882438730082L224.01060267857144,150.31682027115758L224.96791294642858,150.80337794293507L225.92522321428572,151.2784031144514L226.88253348214286,151.74181035743655L227.83984375,152.19351149892367L228.79715401785714,152.63342205308967L229.75446428571428,153.06146080782796L230.71177455357144,153.47754792571408L231.66908482142858,153.88160427379862L232.62639508928572,154.2735568663635L233.58370535714286,154.65333092545484L234.541015625,155.02085755424156L235.49832589285714,155.37606618396043L236.45563616071428,155.7188899884557L237.41294642857142,156.04926731323715L238.37025669642856,156.3671349936726L239.32756696428572,156.67243409944552L240.28487723214286,156.96510980543667L241.2421875,157.24510296710312L242.19949776785714,157.51236406389887L243.15680803571428,157.76684436975586L244.11411830357142,158.00849346862762L245.07142857142856,158.23726950102863L246.0287388392857,158.45312721269806L246.98604910714283,158.65602534858272" style="fill: none;" fill="none"></path></g></g></g></g><g opacity="0.2"><g><g><g><path stroke="rgb(255, 112, 67)" stroke-width="2px" d="M20.103515625,107.98779201209544L21.060825892857142,103.2410648882389L22.018136160714285,98.49434439539908L22.975446428571427,93.74761727154254L23.932756696428573,89.000890147686L24.890066964285715,84.25416302382945L25.847377232142858,79.5074358999729L26.8046875,74.76071540713309L27.761997767857146,70.01398165225982L28.719308035714285,65.26726115942002L29.676618303571427,60.52053403556347L30.63392857142857,55.77380691170693L31.591238839285715,51.02707978785038L32.548549107142854,46.28035266399384L33.505859375,41.533632171154025L34.46316964285714,36.78691167831421L35.420479910714285,32.040177923440936L36.37779017857142,27.29344416856766L37.33510044642857,22.546723675727847L38.292410714285715,17.800003182888034L39.24972098214286,17.806634199619296L40.20703125,17.82656703591347L41.164341517857146,17.85977516770363L42.121651785714285,17.90625859498978L43.07896205357143,17.96599079370499L44.03627232142857,18.038985025882724L44.99358258928571,18.125214767456058L45.950892857142854,18.224653494358066L46.908203125,18.337327730655673L47.865513392857146,18.463157904148105L48.822823660714285,18.602170538902286L49.78013392857143,18.754299324750903L50.73744419642857,18.919544261693957L51.694754464285715,19.097852301597598L52.652064732142854,19.289223444461825L53.609375,19.493578118085864L54.566685267857146,19.71090306043625L55.52399553571429,19.941171747446063L56.48130580357143,20.184317868947986L57.43861607142857,20.44028837680817L58.395926339285715,20.70905674695969L59.353236607142854,20.990583193302157L60.310546875,21.2847881436348L61.26785714285714,21.591618549823764L62.225167410714285,21.911021363735202L63.18247767857143,22.242956799268725L64.13978794642857,22.587332022190097L65.09709821428571,22.94410724639893L66.05440848214286,23.313202899694446L67.01171875,23.694552671909335L67.96902901785714,24.088103514909747L68.92633928571428,24.49374933242798L69.88364955357143,24.911423814296725L70.84095982142857,25.341060650348666L71.79827008928571,25.78258026838303L72.75558035714285,26.235876572132113L73.712890625,26.70089651346207L74.67020089285714,27.17754725813866L75.62751116071429,27.665722709894183L76.58482142857143,28.165343296527865L77.54213169642858,28.67631618380547L78.49944196428572,29.19852201342583L79.45675223214286,29.7319077372551L80.4140625,30.27634073495865L81.37137276785714,30.83174143433571L82.32868303571429,31.397990477085116L83.28599330357143,31.97499502897263L84.24330357142857,32.56262246966362L85.20061383928571,33.1607667028904L86.15792410714286,33.769361418485644L87.115234375,34.388234210014346L88.07254464285714,35.01731876730919L89.02985491071428,35.65646920800209L89.98716517857142,36.305552911758426L90.94447544642857,36.964490306377414L91.90178571428571,37.63312224745751L92.85909598214286,38.31132937669754L93.81640625,38.999018859863284L94.77371651785715,39.69601829051972L95.73102678571429,40.40222157239914L96.68833705357143,41.11748282313347L97.64564732142857,41.84168268442154L98.60295758928572,42.57468853592873L99.56026785714286,43.316354495286944L100.517578125,44.06654794216156L101.47488839285714,44.825109732151034L102.43219866071428,45.59193376898766L103.38950892857143,46.36683438420296L104.34681919642857,47.149692219495776L105.30412946428571,47.94036139249802L106.26143973214285,48.7386960208416L107.21875,49.54453032910824L108.17606026785714,50.357744958996776L109.13337053571429,51.17816087305546L110.09068080357143,52.00562555789948L111.04799107142858,52.83999976217747L112.00530133928572,53.681117710471156L112.96261160714286,54.52883352041245L113.919921875,55.38296152353287L114.87723214285714,56.24337573051453L115.83454241071429,57.10989047288895L116.79185267857143,57.982366499304774L117.74916294642857,58.86063140332699L118.70647321428571,59.744506147503856L119.66378348214286,60.63383821845055L120.62109375,61.528481733798984L121.57840401785714,62.42823113203049L122.53571428571428,63.33295379281044L123.49302455357142,64.24245741665364L124.45033482142857,65.15656959712506L125.40764508928571,66.07514445185662L126.36495535714286,66.99799631237983L127.322265625,67.92494614124297L128.27957589285714,68.85583479404448L129.23688616071428,69.79046334028243L130.19419642857142,70.72870579063891L131.15150669642856,71.67033669054507L132.10881696428572,72.61521015763282L133.06612723214286,73.56313389241694L134.0234375,74.51394211947917L134.98074776785714,75.46744253933429L135.93805803571428,76.42347600758075L136.89536830357142,77.38185685575007L137.85267857142856,78.34239941537379L138.80998883928572,79.30493128001689L139.76729910714286,80.26928004324435L140.724609375,81.23526666760444L141.68191964285714,82.20268559157847L142.63922991071428,83.17136440873145L143.59654017857142,84.14115060567855L144.55385044642856,85.11182535886763L145.5111607142857,86.08324278593062L146.46847098214283,87.05519069433211L147.42578125,88.02750330865382L148.38309151785714,89.00000822246074L149.34040178571428,89.97250650525092L150.29771205357142,90.94482575058936L151.25502232142858,91.91676702797412L152.21233258928572,92.88817782402037L153.16964285714286,93.85886583924292L154.126953125,94.82863877415656L155.08426339285717,95.79732422232627L156.0415736607143,96.7647431463003L156.99888392857144,97.73072313964366L157.95619419642858,98.69507853388785L158.91350446428572,99.65761039853095L159.87081473214286,100.61814632713794L160.828125,101.576533806324L161.78543526785714,102.53256727457045L162.74274553571428,103.48608095645903L163.70005580357144,104.4368759214878L164.65736607142858,105.38480297178029L165.61467633928572,106.32967312335967L166.57198660714286,107.27131065428256L167.529296875,108.20953652709721L168.48660714285714,109.14417833536862L169.44391741071428,110.07505704164504L170.40122767857142,111.00201681703328L171.35853794642856,111.92486204653977L172.31584821428572,112.84342695474623L173.27315848214286,113.75754908174275L174.23046875,114.66705602109431L175.18777901785714,115.57177868187426L176.14508928571428,116.4715247645974L177.10239955357142,117.36615501791238L178.05970982142856,118.2555036664009L179.0170200892857,119.13938835710286L179.97433035714283,120.01763999909161L180.931640625,120.89010276347398L181.88895089285714,121.75663739889859L182.84626116071428,122.61703502833842L183.80357142857142,123.4711862400174L184.76088169642858,124.31888878792523L185.71819196428572,125.16000342071055L186.67550223214286,125.99438094049691L187.6328125,126.82185888737439L188.59012276785717,127.64226817041634L189.5474330357143,128.45546622276305L190.50474330357144,129.26132042407988L191.46205357142858,130.05964179039L192.41936383928572,130.8503242254257L193.37667410714286,131.63318206071853L194.333984375,132.40808267593383L195.29129464285714,133.17490008175372L196.24860491071428,133.93346684500574L197.20591517857144,134.683656976372L198.16322544642858,135.42531630471348L199.12053571428572,136.15831055194138L200.07784598214286,136.88252367526292L201.03515625,137.59778658375143L201.99246651785714,138.3039848923683L202.94977678571428,139.00099426954984L203.90708705357142,139.68867712169884L204.86439732142856,140.3668908819556L205.82170758928572,141.03552116528152L206.77901785714286,141.69445524439215L207.736328125,142.34354392141103L208.69363839285714,142.9826976776123L209.65094866071428,143.61176399961113L210.60825892857142,144.23064507991074L211.56556919642856,144.8392298489809L212.5228794642857,145.43738734424113L213.48018973214283,146.02502473145722L214.4375,146.60201519243418L215.39481026785714,147.16825511753558L216.35212053571428,147.72365664578973L217.30943080357142,148.268087156862L218.26674107142858,148.80147536732255L219.22405133928572,149.32369445897638L220.18136160714286,149.83466237299143L221.138671875,150.3342862751335L222.09598214285717,150.8224650423974L223.0532924107143,151.2990958940238L224.01060267857144,151.7641208086163L224.96791294642858,152.21743617653848L225.92522321428572,152.65894501917066L226.88253348214286,153.08858765736224L227.83984375,153.50626794137062L228.79715401785714,153.91191210113467L229.75446428571428,154.305448438786L230.71177455357144,154.6868011120707L231.66908482142858,155.0558930354193L232.62639508928572,155.41266908850523L233.58370535714286,155.75704928468915L234.541015625,156.08898181915285L235.49832589285714,156.40839126408102L236.45563616071428,156.71522167026998L237.41294642857142,157.00942641338335L238.37025669642856,157.29093793993817L239.32756696428572,157.55970962559806L240.28487723214286,157.81569857597353L241.2421875,158.05883309319617L242.19949776785714,158.2890916264616L243.15680803571428,158.50642775865273L244.11411830357142,158.71078616222368L245.07142857142856,158.9021498451941L246.0287388392857,159.08046368723737L246.98604910714283,159.2456980559975" style="fill: none;" fill="none"></path></g></g></g></g></g></g><g transform="translate(61, 178)" clip-path="url(#clip_1)"><clipPath id="clip_1"><rect width="268" height="22"></rect></clipPath><g><g><line x1="0" y1="0" x2="0" y2="5" style="visibility: inherit;" fill="rgb(0, 0, 0)" stroke="rgb(204, 204, 204)" stroke-width="1px"></line><line x1="19.146205357142858" y1="0" x2="19.146205357142858" y2="5" style="visibility: inherit;" fill="rgb(0, 0, 0)" stroke="rgb(204, 204, 204)" stroke-width="1px"></line><line x1="38.292410714285715" y1="0" x2="38.292410714285715" y2="5" style="visibility: inherit;" fill="rgb(0, 0, 0)" stroke="rgb(204, 204, 204)" stroke-width="1px"></line><line x1="57.43861607142857" y1="0" x2="57.43861607142857" y2="5" style="visibility: inherit;" fill="rgb(0, 0, 0)" stroke="rgb(204, 204, 204)" stroke-width="1px"></line><line x1="76.58482142857143" y1="0" x2="76.58482142857143" y2="5" style="visibility: inherit;" fill="rgb(0, 0, 0)" stroke="rgb(204, 204, 204)" stroke-width="1px"></line><line x1="95.73102678571429" y1="0" x2="95.73102678571429" y2="5" style="visibility: inherit;" fill="rgb(0, 0, 0)" stroke="rgb(204, 204, 204)" stroke-width="1px"></line><line x1="114.87723214285714" y1="0" x2="114.87723214285714" y2="5" style="visibility: inherit;" fill="rgb(0, 0, 0)" stroke="rgb(204, 204, 204)" stroke-width="1px"></line><line x1="134.0234375" y1="0" x2="134.0234375" y2="5" style="visibility: inherit;" fill="rgb(0, 0, 0)" stroke="rgb(204, 204, 204)" stroke-width="1px"></line><line x1="153.16964285714286" y1="0" x2="153.16964285714286" y2="5" style="visibility: inherit;" fill="rgb(0, 0, 0)" stroke="rgb(204, 204, 204)" stroke-width="1px"></line><line x1="172.31584821428572" y1="0" x2="172.31584821428572" y2="5" style="visibility: inherit;" fill="rgb(0, 0, 0)" stroke="rgb(204, 204, 204)" stroke-width="1px"></line><line x1="191.46205357142858" y1="0" x2="191.46205357142858" y2="5" style="visibility: inherit;" fill="rgb(0, 0, 0)" stroke="rgb(204, 204, 204)" stroke-width="1px"></line><line x1="210.60825892857142" y1="0" x2="210.60825892857142" y2="5" style="visibility: inherit;" fill="rgb(0, 0, 0)" stroke="rgb(204, 204, 204)" stroke-width="1px"></line><line x1="229.75446428571428" y1="0" x2="229.75446428571428" y2="5" style="visibility: inherit;" fill="rgb(0, 0, 0)" stroke="rgb(204, 204, 204)" stroke-width="1px"></line><line x1="248.90066964285714" y1="0" x2="248.90066964285714" y2="5" style="visibility: inherit;" fill="rgb(0, 0, 0)" stroke="rgb(204, 204, 204)" stroke-width="1px"></line><line x1="268.046875" y1="0" x2="268.046875" y2="5" style="visibility: inherit;" fill="rgb(0, 0, 0)" stroke="rgb(204, 204, 204)" stroke-width="1px"></line></g><g transform="translate(0, 8)"><text x="0" y="0" dx="0em" dy="0.95em" style="text-anchor: middle; visibility: hidden; font-family: Roboto, sans-serif; font-size: 12px; font-weight: 200;" fill="rgb(50, 49, 63)" stroke="none" stroke-width="1px">-2k</text><text x="19.146205357142858" y="0" dx="0em" dy="0.95em" style="text-anchor: middle; visibility: inherit; font-family: Roboto, sans-serif; font-size: 12px; font-weight: 200;" fill="rgb(50, 49, 63)" stroke="none" stroke-width="1px">0</text><text x="38.292410714285715" y="0" dx="0em" dy="0.95em" style="text-anchor: middle; visibility: hidden; font-family: Roboto, sans-serif; font-size: 12px; font-weight: 200;" fill="rgb(50, 49, 63)" stroke="none" stroke-width="1px">2k</text><text x="57.43861607142857" y="0" dx="0em" dy="0.95em" style="text-anchor: middle; visibility: inherit; font-family: Roboto, sans-serif; font-size: 12px; font-weight: 200;" fill="rgb(50, 49, 63)" stroke="none" stroke-width="1px">4k</text><text x="76.58482142857143" y="0" dx="0em" dy="0.95em" style="text-anchor: middle; visibility: hidden; font-family: Roboto, sans-serif; font-size: 12px; font-weight: 200;" fill="rgb(50, 49, 63)" stroke="none" stroke-width="1px">6k</text><text x="95.73102678571429" y="0" dx="0em" dy="0.95em" style="text-anchor: middle; visibility: inherit; font-family: Roboto, sans-serif; font-size: 12px; font-weight: 200;" fill="rgb(50, 49, 63)" stroke="none" stroke-width="1px">8k</text><text x="114.87723214285714" y="0" dx="0em" dy="0.95em" style="text-anchor: middle; visibility: hidden; font-family: Roboto, sans-serif; font-size: 12px; font-weight: 200;" fill="rgb(50, 49, 63)" stroke="none" stroke-width="1px">10k</text><text x="134.0234375" y="0" dx="0em" dy="0.95em" style="text-anchor: middle; visibility: inherit; font-family: Roboto, sans-serif; font-size: 12px; font-weight: 200;" fill="rgb(50, 49, 63)" stroke="none" stroke-width="1px">12k</text><text x="153.16964285714286" y="0" dx="0em" dy="0.95em" style="text-anchor: middle; visibility: hidden; font-family: Roboto, sans-serif; font-size: 12px; font-weight: 200;" fill="rgb(50, 49, 63)" stroke="none" stroke-width="1px">14k</text><text x="172.31584821428572" y="0" dx="0em" dy="0.95em" style="text-anchor: middle; visibility: inherit; font-family: Roboto, sans-serif; font-size: 12px; font-weight: 200;" fill="rgb(50, 49, 63)" stroke="none" stroke-width="1px">16k</text><text x="191.46205357142858" y="0" dx="0em" dy="0.95em" style="text-anchor: middle; visibility: hidden; font-family: Roboto, sans-serif; font-size: 12px; font-weight: 200;" fill="rgb(50, 49, 63)" stroke="none" stroke-width="1px">18k</text><text x="210.60825892857142" y="0" dx="0em" dy="0.95em" style="text-anchor: middle; visibility: inherit; font-family: Roboto, sans-serif; font-size: 12px; font-weight: 200;" fill="rgb(50, 49, 63)" stroke="none" stroke-width="1px">20k</text><text x="229.75446428571428" y="0" dx="0em" dy="0.95em" style="text-anchor: middle; visibility: hidden; font-family: Roboto, sans-serif; font-size: 12px; font-weight: 200;" fill="rgb(50, 49, 63)" stroke="none" stroke-width="1px">22k</text><text x="248.90066964285714" y="0" dx="0em" dy="0.95em" style="text-anchor: middle; visibility: inherit; font-family: Roboto, sans-serif; font-size: 12px; font-weight: 200;" fill="rgb(50, 49, 63)" stroke="none" stroke-width="1px">24k</text><text x="268.046875" y="0" dx="0em" dy="0.95em" style="text-anchor: middle; visibility: hidden; font-family: Roboto, sans-serif; font-size: 12px; font-weight: 200;" fill="rgb(50, 49, 63)" stroke="none" stroke-width="1px">26k</text></g><line x1="0" y1="0" x2="268.046875" y2="0" fill="rgb(0, 0, 0)" stroke="rgb(204, 204, 204)" stroke-width="1px"></line></g></g></g></g></svg>