<svg viewBox="0 0 330 200" xmlns="http://www.w3.org/2000/svg"><g><g><g><g><g><line x1="51.5625" y1="178" x2="46.5625" y2="178" style="visibility: inherit;" fill="rgb(0, 0, 0)" stroke="rgb(204, 204, 204)" stroke-width="1px"></line><line x1="51.5625" y1="163.16666666666666" x2="46.5625" y2="163.16666666666666" style="visibility: inherit;" fill="rgb(0, 0, 0)" stroke="rgb(204, 204, 204)" stroke-width="1px"></line><line x1="51.5625" y1="148.33333333333334" x2="46.5625" y2="148.33333333333334" style="visibility: inherit;" fill="rgb(0, 0, 0)" stroke="rgb(204, 204, 204)" stroke-width="1px"></line><line x1="51.5625" y1="133.5" x2="46.5625" y2="133.5" style="visibility: inherit;" fill="rgb(0, 0, 0)" stroke="rgb(204, 204, 204)" stroke-width="1px"></line><line x1="51.5625" y1="118.66666666666669" x2="46.5625" y2="118.66666666666669" style="visibility: inherit;" fill="rgb(0, 0, 0)" stroke="rgb(204, 204, 204)" stroke-width="1px"></line><line x1="51.5625" y1="103.83333333333336" x2="46.5625" y2="103.83333333333336" style="visibility: inherit;" fill="rgb(0, 0, 0)" stroke="rgb(204, 204, 204)" stroke-width="1px"></line><line x1="51.5625" y1="89" x2="46.5625" y2="89" style="visibility: inherit;" fill="rgb(0, 0, 0)" stroke="rgb(204, 204, 204)" stroke-width="1px"></line><line x1="51.5625" y1="74.16666666666666" x2="46.5625" y2="74.16666666666666" style="visibility: inherit;" fill="rgb(0, 0, 0)" stroke="rgb(204, 204, 204)" stroke-width="1px"></line><line x1="51.5625" y1="59.33333333333334" x2="46.5625" y2="59.33333333333334" style="visibility: inherit;" fill="rgb(0, 0, 0)" stroke="rgb(204, 204, 204)" stroke-width="1px"></line><line x1="51.5625" y1="44.5" x2="46.5625" y2="44.5" style="visibility: inherit;" fill="rgb(0, 0, 0)" stroke="rgb(204, 204, 204)" stroke-width="1px"></line><line x1="51.5625" y1="29.66666666666668" x2="46.5625" y2="29.66666666666668" style="visibility: inherit;" fill="rgb(0, 0, 0)" stroke="rgb(204, 204, 204)" stroke-width="1px"></line><line x1="51.5625" y1="14.83333333333334" x2="46.5625" y2="14.83333333333334" style="visibility: inherit;" fill="rgb(0, 0, 0)" stroke="rgb(204, 204, 204)" stroke-width="1px"></line><line x1="51.5625" y1="0" x2="46.5625" y2="0" style="visibility: inherit;" fill="rgb(0, 0, 0)" stroke="rgb(204, 204, 204)" stroke-width="1px"></line></g><g transform="translate(41.5625, 0)"><text x="0" y="178" dx="0em" dy="0.3em" style="text-anchor: end; visibility: hidden; font-family: Roboto, sans-serif; font-size: 12px; font-weight: 200;" fill="rgb(50, 49, 63)" stroke="none" stroke-width="1px">0.02</text><text x="0" y="163.16666666666666" dx="0em" dy="0.3em" style="text-anchor: end; visibility: inherit; font-family: Roboto, sans-serif; font-size: 12px; font-weight: 200;" fill="rgb(50, 49, 63)" stroke="none" stroke-width="1px">0.04</text><text x="0" y="148.33333333333334" dx="0em" dy="0.3em" style="text-anchor: end; visibility: hidden; font-family: Roboto, sans-serif; font-size: 12px; font-weight: 200;" fill="rgb(50, 49, 63)" stroke="none" stroke-width="1px">0.06</text><text x="0" y="133.5" dx="0em" dy="0.3em" style="text-anchor: end; visibility: inherit; font-family: Roboto, sans-serif; font-size: 12px; font-weight: 200;" fill="rgb(50, 49, 63)" stroke="none" stroke-width="1px">0.08</text><text x="0" y="118.66666666666669" dx="0em" dy="0.3em" style="text-anchor: end; visibility: hidden; font-family: Roboto, sans-serif; font-size: 12px; font-weight: 200;" fill="rgb(50, 49, 63)" stroke="none" stroke-width="1px">0.1</text><text x="0" y="103.83333333333336" dx="0em" dy="0.3em" style="text-anchor: end; visibility: inherit; font-family: Roboto, sans-serif; font-size: 12px; font-weight: 200;" fill="rgb(50, 49, 63)" stroke="none" stroke-width="1px">0.12</text><text x="0" y="89" dx="0em" dy="0.3em" style="text-anchor: end; visibility: hidden; font-family: Roboto, sans-serif; font-size: 12px; font-weight: 200;" fill="rgb(50, 49, 63)" stroke="none" stroke-width="1px">0.14</text><text x="0" y="74.16666666666666" dx="0em" dy="0.3em" style="text-anchor: end; visibility: inherit; font-family: Roboto, sans-serif; font-size: 12px; font-weight: 200;" fill="rgb(50, 49, 63)" stroke="none" stroke-width="1px">0.16</text><text x="0" y="59.33333333333334" dx="0em" dy="0.3em" style="text-anchor: end; visibility: hidden; font-family: Roboto, sans-serif; font-size: 12px; font-weight: 200;" fill="rgb(50, 49, 63)" stroke="none" stroke-width="1px">0.18</text><text x="0" y="44.5" dx="0em" dy="0.3em" style="text-anchor: end; visibility: inherit; font-family: Roboto, sans-serif; font-size: 12px; font-weight: 200;" fill="rgb(50, 49, 63)" stroke="none" stroke-width="1px">0.2</text><text x="0" y="29.66666666666668" dx="0em" dy="0.3em" style="text-anchor: end; visibility: hidden; font-family: Roboto, sans-serif; font-size: 12px; font-weight: 200;" fill="rgb(50, 49, 63)" stroke="none" stroke-width="1px">0.22</text><text x="0" y="14.83333333333334" dx="0em" dy="0.3em" style="text-anchor: end; visibility: inherit; font-family: Roboto, sans-serif; font-size: 12px; font-weight: 200;" fill="rgb(50, 49, 63)" stroke="none" stroke-width="1px">0.24</text><text x="0" y="0" dx="0em" dy="0.3em" style="text-anchor: end; visibility: hidden; font-family: Roboto, sans-serif; font-size: 12px; font-weight: 200;" fill="rgb(50, 49, 63)" stroke="none" stroke-width="1px">0.26</text></g><line x1="51.5625" y1="0" x2="51.5625" y2="178" fill="rgb(0, 0, 0)" stroke="rgb(204, 204, 204)" stroke-width="1px"></line></g></g><g transform="translate(51, 0)" clip-path="url(#clip_0)"><clipPath id="clip_0"><rect width="278" height="178"></rect></clipPath><g><g><g><line x1="0" y1="0" x2="0" y2="178" fill="rgb(0, 0, 0)" stroke="rgb(60, 60, 60)" stroke-width="1px" opacity="0.25"></line><line x1="19.888392857142858" y1="0" x2="19.888392857142858" y2="178" fill="rgb(0, 0, 0)" stroke="rgb(60, 60, 60)" stroke-width="1px" opacity="0.25"></line><line x1="39.776785714285715" y1="0" x2="39.776785714285715" y2="178" fill="rgb(0, 0, 0)" stroke="rgb(60, 60, 60)" stroke-width="1px" opacity="0.25"></line><line x1="59.66517857142857" y1="0" x2="59.66517857142857" y2="178" fill="rgb(0, 0, 0)" stroke="rgb(60, 60, 60)" stroke-width="1px" opacity="0.25"></line><line x1="79.55357142857143" y1="0" x2="79.55357142857143" y2="178" fill="rgb(0, 0, 0)" stroke="rgb(60, 60, 60)" stroke-width="1px" opacity="0.25"></line><line x1="99.44196428571429" y1="0" x2="99.44196428571429" y2="178" fill="rgb(0, 0, 0)" stroke="rgb(60, 60, 60)" stroke-width="1px" opacity="0.25"></line><line x1="119.33035714285714" y1="0" x2="119.33035714285714" y2="178" fill="rgb(0, 0, 0)" stroke="rgb(60, 60, 60)" stroke-width="1px" opacity="0.25"></line><line x1="139.21875" y1="0" x2="139.21875" y2="178" fill="rgb(0, 0, 0)" stroke="rgb(60, 60, 60)" stroke-width="1px" opacity="0.25"></line><line x1="159.10714285714286" y1="0" x2="159.10714285714286" y2="178" fill="rgb(0, 0, 0)" stroke="rgb(60, 60, 60)" stroke-width="1px" opacity="0.25"></line><line x1="178.99553571428572" y1="0" x2="178.99553571428572" y2="178" fill="rgb(0, 0, 0)" stroke="rgb(60, 60, 60)" stroke-width="1px" opacity="0.25"></line><line x1="198.88392857142858" y1="0" x2="198.88392857142858" y2="178" fill="rgb(0, 0, 0)" stroke="rgb(60, 60, 60)" stroke-width="1px" opacity="0.25"></line><line x1="218.77232142857142" y1="0" x2="218.77232142857142" y2="178" fill="rgb(0, 0, 0)" stroke="rgb(60, 60, 60)" stroke-width="1px" opacity="0.25"></line><line x1="238.66071428571428" y1="0" x2="238.66071428571428" y2="178" fill="rgb(0, 0, 0)" stroke="rgb(60, 60, 60)" stroke-width="1px" opacity="0.25"></line><line x1="258.54910714285717" y1="0" x2="258.54910714285717" y2="178" fill="rgb(0, 0, 0)" stroke="rgb(60, 60, 60)" stroke-width="1px" opacity="0.25"></line><line x1="278.4375" y1="0" x2="278.4375" y2="178" fill="rgb(0, 0, 0)" stroke="rgb(60, 60, 60)" stroke-width="1px" opacity="0.25"></line></g><g><line x1="0" y1="178" x2="278.4375" y2="178" fill="rgb(0, 0, 0)" stroke="rgb(60, 60, 60)" stroke-width="1px" opacity="0.25"></line><line x1="0" y1="163.16666666666666" x2="278.4375" y2="163.16666666666666" fill="rgb(0, 0, 0)" stroke="rgb(60, 60, 60)" stroke-width="1px" opacity="0.25"></line><line x1="0" y1="148.33333333333334" x2="278.4375" y2="148.33333333333334" fill="rgb(0, 0, 0)" stroke="rgb(60, 60, 60)" stroke-width="1px" opacity="0.25"></line><line x1="0" y1="133.5" x2="278.4375" y2="133.5" fill="rgb(0, 0, 0)" stroke="rgb(60, 60, 60)" stroke-width="1px" opacity="0.25"></line><line x1="0" y1="118.66666666666669" x2="278.4375" y2="118.66666666666669" fill="rgb(0, 0, 0)" stroke="rgb(60, 60, 60)" stroke-width="1px" opacity="0.25"></line><line x1="0" y1="103.83333333333336" x2="278.4375" y2="103.83333333333336" fill="rgb(0, 0, 0)" stroke="rgb(60, 60, 60)" stroke-width="1px" opacity="0.25"></line><line x1="0" y1="89" x2="278.4375" y2="89" fill="rgb(0, 0, 0)" stroke="rgb(60, 60, 60)" stroke-width="1px" opacity="0.25"></line><line x1="0" y1="74.16666666666666" x2="278.4375" y2="74.16666666666666" fill="rgb(0, 0, 0)" stroke="rgb(60, 60, 60)" stroke-width="1px" opacity="0.25"></line><line x1="0" y1="59.33333333333334" x2="278.4375" y2="59.33333333333334" fill="rgb(0, 0, 0)" stroke="rgb(60, 60, 60)" stroke-width="1px" opacity="0.25"></line><line x1="0" y1="44.5" x2="278.4375" y2="44.5" fill="rgb(0, 0, 0)" stroke="rgb(60, 60, 60)" stroke-width="1px" opacity="0.25"></line><line x1="0" y1="29.66666666666668" x2="278.4375" y2="29.66666666666668" fill="rgb(0, 0, 0)" stroke="rgb(60, 60, 60)" stroke-width="1px" opacity="0.25"></line><line x1="0" y1="14.83333333333334" x2="278.4375" y2="14.83333333333334" fill="rgb(0, 0, 0)" stroke="rgb(60, 60, 60)" stroke-width="1px" opacity="0.25"></line><line x1="0" y1="0" x2="278.4375" y2="0" fill="rgb(0, 0, 0)" stroke="rgb(60, 60, 60)" stroke-width="1px" opacity="0.25"></line></g></g></g><g><g><line x1="0" y1="192.83333333333331" x2="278.4375" y2="192.83333333333331" fill="rgb(0, 0, 0)" stroke="rgb(153, 153, 153)" stroke-width="1.5px"></line></g></g><g><g><line x1="19.888392857142858" y1="0" x2="19.888392857142858" y2="178" fill="rgb(0, 0, 0)" stroke="rgb(153, 153, 153)" stroke-width="1.5px"></line></g></g><g><g><g><g><g><path stroke="rgb(255, 112, 67)" stroke-width="2px" d="M20.8828125,1.8381028076012995L21.877232142857142,2.7910453095257304L22.871651785714285,3.874378606319693L23.866071428571427,5.072376353047835L24.860491071428573,6.405469851283071L25.854910714285715,7.862253916490152L26.849330357142858,9.44036813726425L27.84375,11.157398326556791L28.838169642857146,12.935029955027272L29.832589285714285,14.70117828519686L30.827008928571427,16.616053119373472L31.82142857142857,18.674612160990232L32.815848214285715,20.698800383342917L33.810267857142854,22.83722944879132L34.8046875,25.11382770428408L35.79910714285714,27.50658045463201L36.793526785714285,30.016901265135587L37.78794642857142,32.44081722303835L38.78236607142857,34.70230485772618L39.776785714285715,36.95149767685771L40.77120535714286,38.973084568733086L41.765625,41.00485064163025L42.760044642857146,43.234569590325805L43.754464285714285,45.57829074407969L44.74888392857143,48.07490892579908L45.74330357142857,50.5984433893511L46.73772321428571,52.91023450380115L47.732142857142854,55.12944073136715L48.7265625,57.172801635336576L49.720982142857146,59.14388510249778L50.715401785714285,61.31738665841598L51.70982142857143,63.58934655416185L52.70424107142857,65.95804729454512L53.698660714285715,68.36524827013763L54.693080357142854,70.20929994940599L55.6875,71.9439786123357L56.681919642857146,73.77960001366128L57.67633928571429,75.66359896797063L58.67075892857143,77.45421320341755L59.66517857142857,78.76988819489242L60.659598214285715,80.12413654117461L61.654017857142854,81.6272759409938L62.6484375,83.3030545561885L63.64285714285714,85.06232015543146L64.63727678571429,86.86891183992715L65.63169642857143,88.63488228673755L66.62611607142857,90.21765395221206L67.62053571428571,91.40509530755901L68.61495535714286,92.56817877854063L69.609375,93.86019801602426L70.60379464285714,95.24638002589512L71.59821428571428,96.63085420671692L72.59263392857143,98.03946855598342L73.58705357142857,99.41035539150363L74.58147321428571,100.56480964433398L75.57589285714285,101.59375345345357L76.5703125,102.37066962605182L77.56473214285714,103.18686298131772L78.55915178571429,103.79763180623338L79.55357142857143,104.60325075009484L80.54799107142858,105.55636327202403L81.54241071428572,106.61549481691337L82.53683035714286,107.76730693221978L83.53125,108.88689574680488L84.52566964285714,110.0891980044468L85.52008928571429,111.17287628381294L86.51450892857143,112.01843805278341L87.50892857142857,112.9111201613041L88.50334821428571,113.84421271289366L89.49776785714286,114.81873425178638L90.4921875,115.42666780128368L91.48660714285714,116.0943853947297L92.48102678571428,116.75379305790094L93.47544642857142,117.50370436906898L94.46986607142857,118.33766975152147L95.46428571428571,119.15797019430188L96.45870535714286,119.93141158875451L97.453125,120.53951124661776L98.44754464285715,120.82373236921802L99.44196428571429,121.07012260498608L100.43638392857143,121.50425983418009L101.43080357142857,122.02693252312733L102.42522321428572,122.63768932335334L103.41964285714286,123.2959542391794L104.4140625,124.03173775211515L105.40848214285714,124.2302397682212L106.40290178571428,124.49497632919858L107.39732142857143,124.83997008711171L108.39174107142857,125.33967662687778L109.38616071428571,125.91789616630382L110.38058035714285,126.56379653280624L111.375,127.23798058173801L112.36941964285714,127.93054113753574L113.36383928571429,128.67669713266898L114.35825892857143,129.45337044385667L115.35267857142858,130.24533463100204L116.34709821428572,131.01505544455108L117.34151785714286,131.74590877727107L118.3359375,132.43857896354177L119.33035714285714,133.13864625727768L120.32477678571429,133.8361451949211L121.31919642857143,134.52367561775412L122.31361607142857,135.21262657735915L123.30803571428571,135.88381152381567L124.30245535714286,135.71398859817157L125.296875,135.35015587048915L126.29129464285714,135.08324559207426L127.28571428571428,134.73609279011384L128.28013392857142,134.53430383146338L129.27455357142858,134.44011670087733L130.26897321428572,134.48429725371608L131.26339285714286,134.66204557511497L132.2578125,134.97225196182538L133.25223214285714,135.37405430705087L134.24665178571428,135.83008704432316L135.24107142857142,136.33472431213914L136.23549107142856,136.8669083337424L137.22991071428572,137.41195386735654L138.22433035714286,137.9713342102519L139.21875,138.53101899705734L140.21316964285714,139.091524429231L141.20758928571428,139.65185530917762L142.20200892857142,140.20088650720385L143.19642857142856,140.74104816215413L144.19084821428572,141.26733691694238L145.18526785714286,141.7625843402367L146.1796875,142.2516077340808L147.17410714285714,142.743759623725L148.16852678571428,143.22929166233513L149.16294642857142,143.7055924379242L150.15736607142856,144.1706950114865L151.1517857142857,144.61535983128786L152.14620535714283,145.04713186092692L153.140625,145.4486554186725L154.13504464285714,145.8220128164848L155.12946428571428,146.1921609603508L156.12388392857142,146.52199624742855L157.11830357142858,146.81936955525228L158.11272321428572,147.12624064277477L159.10714285714286,147.45316213963434L160.1015625,147.7842443941128L161.09598214285717,148.12010352444847L162.0904017857143,148.4148458778695L163.08482142857144,148.35373519214372L164.07924107142858,148.26965687360533L165.07366071428572,148.24424973716845L166.06808035714286,148.30180474932334L167.0625,148.39223461022587L168.05691964285714,148.53046100094852L169.05133928571428,148.70920765671804L170.04575892857144,148.91911142615092L171.04017857142858,149.15409945519193L172.03459821428572,149.40110854702334L173.02901785714286,149.6634864995427L174.0234375,149.93552141827575L175.01785714285714,150.21431178364176L176.01227678571428,150.49386808250037L177.00669642857142,150.774843006019L178.00111607142856,151.05354125617055L178.99553571428572,151.3303030545381L179.98995535714286,151.60562979124597L180.984375,151.87859376030468L181.97879464285714,152.147044156506L182.97321428571428,152.41139448793595L183.96763392857142,152.66807989083952L184.96205357142856,152.92002240448795L185.9564732142857,153.1667662532769L186.95089285714283,153.4067494038445L187.9453125,153.60947691458406L188.93973214285714,153.80933680442084L189.93415178571428,154.01185590637218L190.92857142857142,154.21270940899544L191.92299107142858,154.41011407411665L192.91741071428572,154.60930275111207L193.91183035714286,154.8088666957664L194.90625,155.00493776358795L195.90066964285717,155.19902478209016L196.8950892857143,155.39115611276878L197.88950892857144,155.57940563641012L198.88392857142858,155.7643511982463L199.87834821428572,155.94508448754016L200.87276785714286,156.12182658821953L201.8671875,156.2942751631488L202.86160714285714,156.45242461223404L203.85602678571428,156.60086279307106L204.85044642857144,156.749158777163L205.84486607142858,156.89774435230095L206.83928571428572,157.04504588926028L207.83370535714286,157.1897228538696L208.828125,157.33186219256118L209.82254464285714,157.47178534644863L210.81696428571428,157.60833099698672L211.81138392857142,157.74152208797577L212.80580357142856,157.87021287450926L213.80022321428572,157.99584260175908L214.79464285714286,158.118196888677L215.7890625,158.23717847890688L216.78348214285714,158.35121198326064L217.77790178571428,158.46250483196286L218.77232142857142,158.57047698994648L219.76674107142856,158.67442247544255L220.7611607142857,158.775480334801L221.75558035714283,158.8733726907599L222.75,158.96804133741142L223.74441964285714,159.05932272712323L224.73883928571428,159.14750754128406L225.73325892857142,159.23254751348634L226.72767857142858,159.31470946154L227.72209821428572,159.3933876881864L228.71651785714286,159.46906025066184L229.7109375,159.54148656252553L230.70535714285717,159.6109261587054L231.6997767857143,159.67744623228356L232.69419642857144,159.74118306654398L233.68861607142858,159.8021934958177L234.68303571428572,159.86018666256635L235.67745535714286,159.91537409039438L236.671875,159.96789193361008L237.66629464285714,160.0176717369904L238.66071428571428,160.06477573920165L239.65513392857144,160.10937402479055L240.64955357142858,160.1514177241639L241.64397321428572,160.19103103736288L242.63839285714286,160.22827524764617L243.6328125,160.26316624280332L244.62723214285714,160.29580708614003L245.62165178571428,160.3263154806458L246.61607142857142,160.3547535342407L247.61049107142856,160.38108894397908L248.60491071428572,160.40543560161737L249.59933035714286,160.42782873103087L250.59375,160.4483801231053L251.58816964285714,160.46719982798083L252.58258928571428,160.4843803325885L253.57700892857142,160.49985322936553L254.57142857142856,160.51381164450075L255.5658482142857,160.52628892376043L256.56026785714283,160.5373997045679L257.5546875,160.5471910825097" style="fill: none;" fill="none"></path></g></g></g></g><g opacity="0.2"><g><g><g><path stroke="rgb(255, 112, 67)" stroke-width="2px" d="M20.8828125,1.8381028076012995L21.877232142857142,3.5000345309575467L22.871651785714285,5.2800425589084625L23.866071428571427,7.120193908611947L24.860491071428573,9.092678248882294L25.854910714285715,11.130887016654015L26.849330357142858,13.24888901909193L27.84375,15.517835065722466L28.838169642857146,17.616253465414047L29.832589285714285,19.475524246692657L30.827008928571427,21.89195515712103L31.82142857142857,24.425987149278335L32.815848214285715,26.41237452129524L33.810267857142854,28.91903146604698L34.8046875,31.624839946627617L35.79910714285714,34.378137558698654L36.793526785714285,37.24821842710178L37.78794642857142,39.43912845849991L38.78236607142857,41.24268764754137L39.776785714285715,43.46448716521263L40.77120535714286,44.83245486517748L41.765625,46.89780659476915L42.760044642857146,49.70500332117081L43.754464285714285,52.38215475777784L44.74888392857143,55.3247015873591L45.74330357142857,57.927950342496246L46.73772321428571,59.62580007314682L47.732142857142854,61.57681097090244L48.7265625,63.10981362561384L49.720982142857146,64.87126585841179L50.715401785714285,67.63323905070624L51.70982142857143,70.19154056409994L52.70424107142857,72.84154903888702L53.698660714285715,75.3607717603445L54.693080357142854,75.56834468742213L55.6875,76.98522718747458L56.681919642857146,79.11424772938093L57.67633928571429,81.13887396454811L58.67075892857143,82.65811725954214L59.66517857142857,82.59353115657964L60.659598214285715,84.05989209314188L61.654017857142854,85.99575111766657L62.6484375,88.17326649526757L63.64285714285714,90.17517044643563L64.63727678571429,92.11930719017982L65.63169642857143,93.76722536484402L66.62611607142857,94.81757841507596L67.62053571428571,94.85609357059002L68.61495535714286,95.94838780164719L69.609375,97.6151270121336L70.60379464285714,99.2749699652195L71.59821428571428,100.65448116014403L72.59263392857143,102.13325314968824L73.58705357142857,103.39449463536343L74.58147321428571,103.91994192699593L75.57589285714285,104.58412114034098L76.5703125,104.6285821075241L77.56473214285714,105.55892480661473L78.55915178571429,105.57267864048481L79.55357142857143,106.94458074371022L80.54799107142858,108.32634648432335L81.54241071428572,109.6935958241423L82.53683035714286,111.11476085583371L83.53125,112.14070071280003L84.52566964285714,113.58338891963166L85.52008928571429,114.32231626907986L86.51450892857143,114.47585193564495L87.50892857142857,115.50547753274441L88.50334821428571,116.55601293593645L89.49776785714286,117.65093747029704L90.4921875,117.1934746777018L91.48660714285714,118.03493964920443L92.48102678571428,118.67019657790661L93.47544642857142,119.6831341162324L94.46986607142857,120.76138164351386L95.46428571428571,121.54196835557622L96.45870535714286,122.17922564099234L97.453125,122.30680087705454L98.44754464285715,121.6497500066956L99.44196428571429,121.78619422763586L100.43638392857143,122.76597115645808L101.43080357142857,123.54595002532005L102.42522321428572,124.41270127395791L103.41964285714286,125.20903665075701L104.4140625,126.17010858654976L105.40848214285714,124.80713625252247L106.40290178571428,125.26436695953211L107.39732142857143,125.84260819604L108.39174107142857,126.7919487580657L109.38616071428571,127.5983467027545L110.38058035714285,128.44094447294873L111.375,129.19732797394198L112.36941964285714,129.94329525281987L113.36383928571429,130.8452129935225L114.35825892857143,131.71057725449404L115.35267857142858,132.5469805498918L116.34709821428572,133.2520565589269L117.34151785714286,133.86995127548775L118.3359375,134.45165169239044L119.33035714285714,135.1732168296973L120.32477678571429,135.863251482447L121.31919642857143,136.5218109091123L122.31361607142857,137.21489030371112L123.30803571428571,137.83444277445477L124.30245535714286,135.22044072051844L125.296875,134.29276700566214L126.29129464285714,134.30753759543103L127.28571428571428,133.7271799594164L128.28013392857142,133.94785467038554L129.27455357142858,134.16638535261154L130.26897321428572,134.61269698540372L131.26339285714286,135.17862663418055L132.2578125,135.87378927320242L133.25223214285714,136.54179237286252L134.24665178571428,137.15543218702078L135.24107142857142,137.80132637172937L136.23549107142856,138.4135681465268L137.22991071428572,138.9959924494227L138.22433035714286,139.59703333179158L139.21875,140.15760290871066L140.21316964285714,140.72049334148568L141.20758928571428,141.2803169290225L142.20200892857142,141.7965084264676L143.19642857142856,142.31089297185343L144.19084821428572,142.7968636105458L145.18526785714286,143.20189716418585L146.1796875,143.6728319724401L147.17410714285714,144.1740760530035L148.16852678571428,144.64036914954585L149.16294642857142,145.08984156697989L150.15736607142856,145.52239936590195L151.1517857142857,145.90766696383557L152.14620535714283,146.30196932206553L153.140625,146.61558325837058L154.13504464285714,146.90708275387686L155.12946428571428,147.2679040034612L156.12388392857142,147.48058005049825L157.11830357142858,147.68361073111495L158.11272321428572,148.0180847408871L159.10714285714286,148.40327773988247L160.1015625,148.74645219619077L161.09598214285717,149.09619412198663L162.0904017857143,149.27144084249935L163.08482142857144,148.17613226175308L164.07924107142858,148.02530426035327L165.07366071428572,148.17041024689874L166.06808035714286,148.46907400339842L167.0625,148.65504639347395L168.05691964285714,148.93218144898614L169.05133928571428,149.22869012504816L170.04575892857144,149.5291442560653L171.04017857142858,149.83703341459236L172.03459821428572,150.11897872015834L173.02901785714286,150.42602242405218L174.0234375,150.72612290084362L175.01785714285714,151.02454628298682L176.01227678571428,151.30632857605815L177.00669642857142,151.59142637749514L178.00111607142856,151.86350804567337L178.99553571428572,152.13464203104377L179.98995535714286,152.40579811980328L180.984375,152.67189529538155L181.97879464285714,152.92722812046608L182.97321428571428,153.17966263865432L183.96763392857142,153.41407184302807L184.96205357142856,153.65223033477864L185.9564732142857,153.88386556381982L186.95089285714283,154.10420043518147L187.9453125,154.198653742671L188.93973214285714,154.39017960925898L189.93415178571428,154.6004270464182L190.92857142857142,154.7964399009943L191.92299107142858,154.98382138212523L192.91741071428572,155.18819484363001L193.91183035714286,155.388849409918L194.90625,155.5747693044444L195.90066964285717,155.76309017961225L196.8950892857143,155.9495377925535L197.88950892857144,156.1265058144927L198.88392857142858,156.30184923733273L199.87834821428572,156.47034060955048L200.87276785714286,156.63548331831893L201.8671875,156.79545383403698L202.86160714285714,156.91204644863805L203.85602678571428,157.03226125612855L204.85044642857144,157.18014398093024L205.84486607142858,157.3295711800456L206.83928571428572,157.47314098104835L207.83370535714286,157.61019028226534L208.828125,157.7449546456337L209.82254464285714,157.878437012434L210.81696428571428,158.00516679386297L211.81138392857142,158.1286086961627L212.80580357142856,158.24422047287226L213.80022321428572,158.36095399657884L214.79464285714286,158.47378903503218L215.7890625,158.58296872551242L216.78348214285714,158.68262185528874L217.77790178571428,158.78594967350364L218.77232142857142,158.88427107408643L219.76674107142856,158.97651404266557L220.7611607142857,159.0691797385613L221.75558035714283,159.1578723502656L222.75,159.24317209174237L223.74441964285714,159.32460926597318L224.73883928571428,159.403794657439L225.73325892857142,159.4796949326992L226.72767857142858,159.55349262307087L227.72209821428572,159.62204628437757L228.71651785714286,159.68898363535604L229.7109375,159.75197553137937L230.70535714285717,159.81273498510322L231.6997767857143,159.87077019611993L232.69419642857144,159.92641824111342L233.68861607142858,159.97950505589446L234.68303571428572,160.02872930342951L235.67745535714286,160.07576255251965L236.671875,160.12052191545567L237.66629464285714,160.16234429056445L238.66071428571428,160.20167174562812L239.65513392857144,160.2389877922833L240.64955357142858,160.27360722546777L241.64397321428572,160.30615722884735L242.63839285714286,160.33651623378196L243.6328125,160.36456819747886L244.62723214285714,160.3906695370873L245.62165178571428,160.41498050217828L246.61607142857142,160.43740162750086L247.61049107142856,160.4576262285312L248.60491071428572,160.47619307537875L249.59933035714286,160.49290876338878L250.59375,160.50810760632157L251.58816964285714,160.5218945952753L252.58258928571428,160.5343111741046L253.57700892857142,160.54482133562365L254.57142857142856,160.55437828848758L255.5658482142857,160.56255101660886L256.56026785714283,160.56969041128954L257.5546875,160.5756472746531" style="fill: none;" fill="none"></path></g></g></g></g></g></g><g transform="translate(51, 178)" clip-path="url(#clip_1)"><clipPath id="clip_1"><rect width="278" height="22"></rect></clipPath><g><g><line x1="0" y1="0" x2="0" y2="5" style="visibility: inherit;" fill="rgb(0, 0, 0)" stroke="rgb(204, 204, 204)" stroke-width="1px"></line><line x1="19.888392857142858" y1="0" x2="19.888392857142858" y2="5" style="visibility: inherit;" fill="rgb(0, 0, 0)" stroke="rgb(204, 204, 204)" stroke-width="1px"></line><line x1="39.776785714285715" y1="0" x2="39.776785714285715" y2="5" style="visibility: inherit;" fill="rgb(0, 0, 0)" stroke="rgb(204, 204, 204)" stroke-width="1px"></line><line x1="59.66517857142857" y1="0" x2="59.66517857142857" y2="5" style="visibility: inherit;" fill="rgb(0, 0, 0)" stroke="rgb(204, 204, 204)" stroke-width="1px"></line><line x1="79.55357142857143" y1="0" x2="79.55357142857143" y2="5" style="visibility: inherit;" fill="rgb(0, 0, 0)" stroke="rgb(204, 204, 204)" stroke-width="1px"></line><line x1="99.44196428571429" y1="0" x2="99.44196428571429" y2="5" style="visibility: inherit;" fill="rgb(0, 0, 0)" stroke="rgb(204, 204, 204)" stroke-width="1px"></line><line x1="119.33035714285714" y1="0" x2="119.33035714285714" y2="5" style="visibility: inherit;" fill="rgb(0, 0, 0)" stroke="rgb(204, 204, 204)" stroke-width="1px"></line><line x1="139.21875" y1="0" x2="139.21875" y2="5" style="visibility: inherit;" fill="rgb(0, 0, 0)" stroke="rgb(204, 204, 204)" stroke-width="1px"></line><line x1="159.10714285714286" y1="0" x2="159.10714285714286" y2="5" style="visibility: inherit;" fill="rgb(0, 0, 0)" stroke="rgb(204, 204, 204)" stroke-width="1px"></line><line x1="178.99553571428572" y1="0" x2="178.99553571428572" y2="5" style="visibility: inherit;" fill="rgb(0, 0, 0)" stroke="rgb(204, 204, 204)" stroke-width="1px"></line><line x1="198.88392857142858" y1="0" x2="198.88392857142858" y2="5" style="visibility: inherit;" fill="rgb(0, 0, 0)" stroke="rgb(204, 204, 204)" stroke-width="1px"></line><line x1="218.77232142857142" y1="0" x2="218.77232142857142" y2="5" style="visibility: inherit;" fill="rgb(0, 0, 0)" stroke="rgb(204, 204, 204)" stroke-width="1px"></line><line x1="238.66071428571428" y1="0" x2="238.66071428571428" y2="5" style="visibility: inherit;" fill="rgb(0, 0, 0)" stroke="rgb(204, 204, 204)" stroke-width="1px"></line><line x1="258.54910714285717" y1="0" x2="258.54910714285717" y2="5" style="visibility: inherit;" fill="rgb(0, 0, 0)" stroke="rgb(204, 204, 204)" stroke-width="1px"></line><line x1="278.4375" y1="0" x2="278.4375" y2="5" style="visibility: inherit;" fill="rgb(0, 0, 0)" stroke="rgb(204, 204, 204)" stroke-width="1px"></line></g><g transform="translate(0, 8)"><text x="0" y="0" dx="0em" dy="0.95em" style="text-anchor: middle; visibility: hidden; font-family: Roboto, sans-serif; font-size: 12px; font-weight: 200;" fill="rgb(50, 49, 63)" stroke="none" stroke-width="1px">-2k</text><text x="19.888392857142858" y="0" dx="0em" dy="0.95em" style="text-anchor: middle; visibility: inherit; font-family: Roboto, sans-serif; font-size: 12px; font-weight: 200;" fill="rgb(50, 49, 63)" stroke="none" stroke-width="1px">0</text><text x="39.776785714285715" y="0" dx="0em" dy="0.95em" style="text-anchor: middle; visibility: hidden; font-family: Roboto, sans-serif; font-size: 12px; font-weight: 200;" fill="rgb(50, 49, 63)" stroke="none" stroke-width="1px">2k</text><text x="59.66517857142857" y="0" dx="0em" dy="0.95em" style="text-anchor: middle; visibility: inherit; font-family: Roboto, sans-serif; font-size: 12px; font-weight: 200;" fill="rgb(50, 49, 63)" stroke="none" stroke-width="1px">4k</text><text x="79.55357142857143" y="0" dx="0em" dy="0.95em" style="text-anchor: middle; visibility: hidden; font-family: Roboto, sans-serif; font-size: 12px; font-weight: 200;" fill="rgb(50, 49, 63)" stroke="none" stroke-width="1px">6k</text><text x="99.44196428571429" y="0" dx="0em" dy="0.95em" style="text-anchor: middle; visibility: inherit; font-family: Roboto, sans-serif; font-size: 12px; font-weight: 200;" fill="rgb(50, 49, 63)" stroke="none" stroke-width="1px">8k</text><text x="119.33035714285714" y="0" dx="0em" dy="0.95em" style="text-anchor: middle; visibility: hidden; font-family: Roboto, sans-serif; font-size: 12px; font-weight: 200;" fill="rgb(50, 49, 63)" stroke="none" stroke-width="1px">10k</text><text x="139.21875" y="0" dx="0em" dy="0.95em" style="text-anchor: middle; visibility: inherit; font-family: Roboto, sans-serif; font-size: 12px; font-weight: 200;" fill="rgb(50, 49, 63)" stroke="none" stroke-width="1px">12k</text><text x="159.10714285714286" y="0" dx="0em" dy="0.95em" style="text-anchor: middle; visibility: hidden; font-family: Roboto, sans-serif; font-size: 12px; font-weight: 200;" fill="rgb(50, 49, 63)" stroke="none" stroke-width="1px">14k</text><text x="178.99553571428572" y="0" dx="0em" dy="0.95em" style="text-anchor: middle; visibility: inherit; font-family: Roboto, sans-serif; font-size: 12px; font-weight: 200;" fill="rgb(50, 49, 63)" stroke="none" stroke-width="1px">16k</text><text x="198.88392857142858" y="0" dx="0em" dy="0.95em" style="text-anchor: middle; visibility: hidden; font-family: Roboto, sans-serif; font-size: 12px; font-weight: 200;" fill="rgb(50, 49, 63)" stroke="none" stroke-width="1px">18k</text><text x="218.77232142857142" y="0" dx="0em" dy="0.95em" style="text-anchor: middle; visibility: inherit; font-family: Roboto, sans-serif; font-size: 12px; font-weight: 200;" fill="rgb(50, 49, 63)" stroke="none" stroke-width="1px">20k</text><text x="238.66071428571428" y="0" dx="0em" dy="0.95em" style="text-anchor: middle; visibility: hidden; font-family: Roboto, sans-serif; font-size: 12px; font-weight: 200;" fill="rgb(50, 49, 63)" stroke="none" stroke-width="1px">22k</text><text x="258.54910714285717" y="0" dx="0em" dy="0.95em" style="text-anchor: middle; visibility: inherit; font-family: Roboto, sans-serif; font-size: 12px; font-weight: 200;" fill="rgb(50, 49, 63)" stroke="none" stroke-width="1px">24k</text><text x="278.4375" y="0" dx="0em" dy="0.95em" style="text-anchor: middle; visibility: hidden; font-family: Roboto, sans-serif; font-size: 12px; font-weight: 200;" fill="rgb(50, 49, 63)" stroke="none" stroke-width="1px">26k</text></g><line x1="0" y1="0" x2="278.4375" y2="0" fill="rgb(0, 0, 0)" stroke="rgb(204, 204, 204)" stroke-width="1px"></line></g></g></g></g></svg>