<svg viewBox="0 0 330 200" xmlns="http://www.w3.org/2000/svg"><g><g><g><g><g><line x1="51.5625" y1="178" x2="46.5625" y2="178" style="visibility: inherit;" fill="rgb(0, 0, 0)" stroke="rgb(204, 204, 204)" stroke-width="1px"></line><line x1="51.5625" y1="155.75" x2="46.5625" y2="155.75" style="visibility: inherit;" fill="rgb(0, 0, 0)" stroke="rgb(204, 204, 204)" stroke-width="1px"></line><line x1="51.5625" y1="133.5" x2="46.5625" y2="133.5" style="visibility: inherit;" fill="rgb(0, 0, 0)" stroke="rgb(204, 204, 204)" stroke-width="1px"></line><line x1="51.5625" y1="111.25" x2="46.5625" y2="111.25" style="visibility: inherit;" fill="rgb(0, 0, 0)" stroke="rgb(204, 204, 204)" stroke-width="1px"></line><line x1="51.5625" y1="89" x2="46.5625" y2="89" style="visibility: inherit;" fill="rgb(0, 0, 0)" stroke="rgb(204, 204, 204)" stroke-width="1px"></line><line x1="51.5625" y1="66.75" x2="46.5625" y2="66.75" style="visibility: inherit;" fill="rgb(0, 0, 0)" stroke="rgb(204, 204, 204)" stroke-width="1px"></line><line x1="51.5625" y1="44.50000000000002" x2="46.5625" y2="44.50000000000002" style="visibility: inherit;" fill="rgb(0, 0, 0)" stroke="rgb(204, 204, 204)" stroke-width="1px"></line><line x1="51.5625" y1="22.25" x2="46.5625" y2="22.25" style="visibility: inherit;" fill="rgb(0, 0, 0)" stroke="rgb(204, 204, 204)" stroke-width="1px"></line><line x1="51.5625" y1="0" x2="46.5625" y2="0" style="visibility: inherit;" fill="rgb(0, 0, 0)" stroke="rgb(204, 204, 204)" stroke-width="1px"></line></g><g transform="translate(41.5625, 0)"><text x="0" y="178" dx="0em" dy="0.3em" style="text-anchor: end; visibility: hidden; font-family: Roboto, sans-serif; font-size: 12px; font-weight: 200;" fill="rgb(50, 49, 63)" stroke="none" stroke-width="1px">0.05</text><text x="0" y="155.75" dx="0em" dy="0.3em" style="text-anchor: end; visibility: inherit; font-family: Roboto, sans-serif; font-size: 12px; font-weight: 200;" fill="rgb(50, 49, 63)" stroke="none" stroke-width="1px">0.1</text><text x="0" y="133.5" dx="0em" dy="0.3em" style="text-anchor: end; visibility: hidden; font-family: Roboto, sans-serif; font-size: 12px; font-weight: 200;" fill="rgb(50, 49, 63)" stroke="none" stroke-width="1px">0.15</text><text x="0" y="111.25" dx="0em" dy="0.3em" style="text-anchor: end; visibility: inherit; font-family: Roboto, sans-serif; font-size: 12px; font-weight: 200;" fill="rgb(50, 49, 63)" stroke="none" stroke-width="1px">0.2</text><text x="0" y="89" dx="0em" dy="0.3em" style="text-anchor: end; visibility: hidden; font-family: Roboto, sans-serif; font-size: 12px; font-weight: 200;" fill="rgb(50, 49, 63)" stroke="none" stroke-width="1px">0.25</text><text x="0" y="66.75" dx="0em" dy="0.3em" style="text-anchor: end; visibility: inherit; font-family: Roboto, sans-serif; font-size: 12px; font-weight: 200;" fill="rgb(50, 49, 63)" stroke="none" stroke-width="1px">0.3</text><text x="0" y="44.50000000000002" dx="0em" dy="0.3em" style="text-anchor: end; visibility: hidden; font-family: Roboto, sans-serif; font-size: 12px; font-weight: 200;" fill="rgb(50, 49, 63)" stroke="none" stroke-width="1px">0.35</text><text x="0" y="22.25" dx="0em" dy="0.3em" style="text-anchor: end; visibility: inherit; font-family: Roboto, sans-serif; font-size: 12px; font-weight: 200;" fill="rgb(50, 49, 63)" stroke="none" stroke-width="1px">0.4</text><text x="0" y="0" dx="0em" dy="0.3em" style="text-anchor: end; visibility: hidden; font-family: Roboto, sans-serif; font-size: 12px; font-weight: 200;" fill="rgb(50, 49, 63)" stroke="none" stroke-width="1px">0.45</text></g><line x1="51.5625" y1="0" x2="51.5625" y2="178" fill="rgb(0, 0, 0)" stroke="rgb(204, 204, 204)" stroke-width="1px"></line></g></g><g transform="translate(51, 0)" clip-path="url(#clip_0)"><clipPath id="clip_0"><rect width="278" height="178"></rect></clipPath><g><g><g><line x1="0" y1="0" x2="0" y2="178" fill="rgb(0, 0, 0)" stroke="rgb(60, 60, 60)" stroke-width="1px" opacity="0.25"></line><line x1="19.888392857142858" y1="0" x2="19.888392857142858" y2="178" fill="rgb(0, 0, 0)" stroke="rgb(60, 60, 60)" stroke-width="1px" opacity="0.25"></line><line x1="39.776785714285715" y1="0" x2="39.776785714285715" y2="178" fill="rgb(0, 0, 0)" stroke="rgb(60, 60, 60)" stroke-width="1px" opacity="0.25"></line><line x1="59.66517857142857" y1="0" x2="59.66517857142857" y2="178" fill="rgb(0, 0, 0)" stroke="rgb(60, 60, 60)" stroke-width="1px" opacity="0.25"></line><line x1="79.55357142857143" y1="0" x2="79.55357142857143" y2="178" fill="rgb(0, 0, 0)" stroke="rgb(60, 60, 60)" stroke-width="1px" opacity="0.25"></line><line x1="99.44196428571429" y1="0" x2="99.44196428571429" y2="178" fill="rgb(0, 0, 0)" stroke="rgb(60, 60, 60)" stroke-width="1px" opacity="0.25"></line><line x1="119.33035714285714" y1="0" x2="119.33035714285714" y2="178" fill="rgb(0, 0, 0)" stroke="rgb(60, 60, 60)" stroke-width="1px" opacity="0.25"></line><line x1="139.21875" y1="0" x2="139.21875" y2="178" fill="rgb(0, 0, 0)" stroke="rgb(60, 60, 60)" stroke-width="1px" opacity="0.25"></line><line x1="159.10714285714286" y1="0" x2="159.10714285714286" y2="178" fill="rgb(0, 0, 0)" stroke="rgb(60, 60, 60)" stroke-width="1px" opacity="0.25"></line><line x1="178.99553571428572" y1="0" x2="178.99553571428572" y2="178" fill="rgb(0, 0, 0)" stroke="rgb(60, 60, 60)" stroke-width="1px" opacity="0.25"></line><line x1="198.88392857142858" y1="0" x2="198.88392857142858" y2="178" fill="rgb(0, 0, 0)" stroke="rgb(60, 60, 60)" stroke-width="1px" opacity="0.25"></line><line x1="218.77232142857142" y1="0" x2="218.77232142857142" y2="178" fill="rgb(0, 0, 0)" stroke="rgb(60, 60, 60)" stroke-width="1px" opacity="0.25"></line><line x1="238.66071428571428" y1="0" x2="238.66071428571428" y2="178" fill="rgb(0, 0, 0)" stroke="rgb(60, 60, 60)" stroke-width="1px" opacity="0.25"></line><line x1="258.54910714285717" y1="0" x2="258.54910714285717" y2="178" fill="rgb(0, 0, 0)" stroke="rgb(60, 60, 60)" stroke-width="1px" opacity="0.25"></line><line x1="278.4375" y1="0" x2="278.4375" y2="178" fill="rgb(0, 0, 0)" stroke="rgb(60, 60, 60)" stroke-width="1px" opacity="0.25"></line></g><g><line x1="0" y1="178" x2="278.4375" y2="178" fill="rgb(0, 0, 0)" stroke="rgb(60, 60, 60)" stroke-width="1px" opacity="0.25"></line><line x1="0" y1="155.75" x2="278.4375" y2="155.75" fill="rgb(0, 0, 0)" stroke="rgb(60, 60, 60)" stroke-width="1px" opacity="0.25"></line><line x1="0" y1="133.5" x2="278.4375" y2="133.5" fill="rgb(0, 0, 0)" stroke="rgb(60, 60, 60)" stroke-width="1px" opacity="0.25"></line><line x1="0" y1="111.25" x2="278.4375" y2="111.25" fill="rgb(0, 0, 0)" stroke="rgb(60, 60, 60)" stroke-width="1px" opacity="0.25"></line><line x1="0" y1="89" x2="278.4375" y2="89" fill="rgb(0, 0, 0)" stroke="rgb(60, 60, 60)" stroke-width="1px" opacity="0.25"></line><line x1="0" y1="66.75" x2="278.4375" y2="66.75" fill="rgb(0, 0, 0)" stroke="rgb(60, 60, 60)" stroke-width="1px" opacity="0.25"></line><line x1="0" y1="44.50000000000002" x2="278.4375" y2="44.50000000000002" fill="rgb(0, 0, 0)" stroke="rgb(60, 60, 60)" stroke-width="1px" opacity="0.25"></line><line x1="0" y1="22.25" x2="278.4375" y2="22.25" fill="rgb(0, 0, 0)" stroke="rgb(60, 60, 60)" stroke-width="1px" opacity="0.25"></line><line x1="0" y1="0" x2="278.4375" y2="0" fill="rgb(0, 0, 0)" stroke="rgb(60, 60, 60)" stroke-width="1px" opacity="0.25"></line></g></g></g><g><g><line x1="0" y1="200.25" x2="278.4375" y2="200.25" fill="rgb(0, 0, 0)" stroke="rgb(153, 153, 153)" stroke-width="1.5px"></line></g></g><g><g><line x1="19.888392857142858" y1="0" x2="19.888392857142858" y2="178" fill="rgb(0, 0, 0)" stroke="rgb(153, 153, 153)" stroke-width="1.5px"></line></g></g><g><g><g><g><g><path stroke="rgb(255, 112, 67)" stroke-width="2px" d="M25.854910714285715,-4.480184294993673L26.849330357142858,7.325943768346573L27.84375,13.521114404731096L28.838169642857146,16.75937240062202L29.832589285714285,19.999129802482138L30.827008928571427,22.80000461485783L31.82142857142857,22.562974979961957L32.815848214285715,24.330014017203432L33.810267857142854,23.93706786771798L34.8046875,29.17297586815285L35.79910714285714,33.024651902215034L36.793526785714285,39.60168949716682L37.78794642857142,39.899197349060266L38.78236607142857,39.289112430070645L39.776785714285715,40.10102803244282L40.77120535714286,42.99320706054375L41.765625,46.05657146305948L42.760044642857146,48.301028530387136L43.754464285714285,52.62194258552889L44.74888392857143,55.01275873850107L45.74330357142857,56.61864886587858L46.73772321428571,58.86934619129135L47.732142857142854,59.224494632716194L48.7265625,55.775290651328014L49.720982142857146,58.62134135968397L50.715401785714285,65.11821651748319L51.70982142857143,69.57953709850433L52.70424107142857,71.61420560637124L53.698660714285715,73.20254638870576L54.693080357142854,74.76886544327803L55.6875,77.77808301159702L56.681919642857146,79.69944966757247L57.67633928571429,81.74371037193316L58.67075892857143,84.65476616328746L59.66517857142857,83.29208840350466L60.659598214285715,85.62251796863451L61.654017857142854,87.69537584820701L62.6484375,88.57455958696268L63.64285714285714,88.37125687442291L64.63727678571429,90.28034187713592L65.63169642857143,92.1261615396933L66.62611607142857,94.12389620974034L67.62053571428571,94.103358461114L68.61495535714286,94.38986724769863L69.609375,96.74343361096881L70.60379464285714,92.95870940268311L71.59821428571428,93.05605851017226L72.59263392857143,95.72846819878704L73.58705357142857,97.40814323942335L74.58147321428571,98.48609649514431L75.57589285714285,100.43409979959603L76.5703125,101.10767899664502L77.56473214285714,96.5535280886676L78.55915178571429,97.31394357044293L79.55357142857143,99.97823106275109L80.54799107142858,102.5682058269966L81.54241071428572,104.10645274406653L82.53683035714286,105.84634786268701L83.53125,107.8664332378321L84.52566964285714,112.85547435092033L85.52008928571429,112.20989627384537L86.51450892857143,112.35793921055519L87.50892857142857,110.50862258802013L88.50334821428571,110.27881346338005L89.49776785714286,111.66641341446407L90.4921875,109.78851622599545L91.48660714285714,108.9852706499326L92.48102678571428,112.87936960081753L93.47544642857142,115.37569998891806L94.46986607142857,116.51792339135628L95.46428571428571,117.18545402946906L96.45870535714286,117.74830259276693L97.453125,118.06722788222308L98.44754464285715,117.48616317040056L99.44196428571429,117.00092511387062L100.43638392857143,119.5930967626055L101.43080357142857,120.34193968872722L102.42522321428572,121.12636588935554L103.41964285714286,122.64406070870474L104.4140625,124.18262144439461L105.40848214285714,123.53730702683447L106.40290178571428,121.64945689410816L107.39732142857143,121.1320581080164L108.39174107142857,123.56665312980365L109.38616071428571,124.45665353483857L110.38058035714285,124.06068605145228L111.375,125.18117958945749L112.36941964285714,126.24175396679149L113.36383928571429,128.89214197079585L114.35825892857143,129.56511186449274L115.35267857142858,132.58786422480367L116.34709821428572,131.58163626493084L117.34151785714286,132.9265434457146L118.3359375,134.3866717527196L119.33035714285714,136.3046882167019L120.32477678571429,136.2008251754076L121.31919642857143,136.70769505461828L122.31361607142857,136.7640865639649L123.30803571428571,136.72117671554054L124.30245535714286,128.80677950208823L125.296875,124.73442697109896L126.29129464285714,124.8002549140562L127.28571428571428,122.46066610716863L128.28013392857142,125.74997667260068L129.27455357142858,127.26545745215418L130.26897321428572,130.99566088975186L131.26339285714286,131.47592398850492L132.2578125,133.62589489678848L133.25223214285714,134.42557190062274L134.24665178571428,136.0968536129598L135.24107142857142,137.63448791342054L136.23549107142856,138.39011268419011L137.22991071428572,138.3981541611341L138.22433035714286,139.67825983034422L139.21875,140.59050822545825L140.21316964285714,140.91728018974825L141.20758928571428,141.23729031584799L142.20200892857142,141.60804571541937L143.19642857142856,141.67858890839017L144.19084821428572,141.86849062742604L145.18526785714286,142.96942418912795L146.1796875,144.33694055201823L147.17410714285714,141.69939280085293L148.16852678571428,142.4140562325736L149.16294642857142,143.98662028935104L150.15736607142856,144.7944979908521L151.1517857142857,144.9756902358916L152.14620535714283,145.13389955654523L153.140625,146.62404654205758L154.13504464285714,147.43851094894612L155.12946428571428,147.89193998552398L156.12388392857142,148.8437880397053L157.11830357142858,148.84538476592672L158.11272321428572,148.678562075786L159.10714285714286,148.17003714841982L160.1015625,148.2730457300839L161.09598214285717,149.17138103523686L162.0904017857143,140.49732446104142L163.08482142857144,139.2068459125341L164.07924107142858,140.26435835144858L165.07366071428572,141.85571210108762L166.06808035714286,144.21876191334712L167.0625,145.6222700863696L168.05691964285714,145.25988640565424L169.05133928571428,145.86197261417897L170.04575892857144,147.4521461373698L171.04017857142858,148.89027029569166L172.03459821428572,149.94066287878792L173.02901785714286,151.37311667440244L174.0234375,150.3847052987516L175.01785714285714,150.00687335495738L176.01227678571428,150.80470941245608L177.00669642857142,150.8137344673113L178.00111607142856,152.63228223228435L178.99553571428572,153.7798980680998L179.98995535714286,151.53310241614528L180.984375,152.83894579595497L181.97879464285714,154.94306583561215L182.97321428571428,155.72818545725085L183.96763392857142,157.0197490909124L184.96205357142856,155.94063133099357L185.9564732142857,156.15908603884196L186.95089285714283,156.2863533371782L187.9453125,156.58475947021716L188.93973214285714,156.80259598656116L189.93415178571428,157.94059329754643L190.92857142857142,157.79497970469535L191.92299107142858,157.02915528420448L192.91741071428572,158.19388019683814L193.91183035714286,158.27961792777265L194.90625,158.5826768000457L195.90066964285717,160.18530507255917L196.8950892857143,159.67901852046234L197.88950892857144,160.26285460275608L198.88392857142858,160.56401417425826L199.87834821428572,160.14808129189447L200.87276785714286,158.825587810149L201.8671875,159.9629838746351L202.86160714285714,160.2130838716708L203.85602678571428,161.1968273559216L204.85044642857144,161.8783232007244L205.84486607142858,162.30837605249496L206.83928571428572,162.05856276831625L207.83370535714286,160.6613377875637L208.828125,161.61534872566003L209.82254464285714,161.9827118278371L210.81696428571428,162.88573169514092L211.81138392857142,163.16826458786514L212.80580357142856,162.69750332175545L213.80022321428572,161.95892592704402L214.79464285714286,162.29498273122772L215.7890625,162.29066653290806L216.78348214285714,163.50826599035787L217.77790178571428,164.2126475259919L218.77232142857142,164.12406425152545L219.76674107142856,165.32784797923662L220.7611607142857,164.73202285277458L221.75558035714283,164.20978909166718L222.75,164.97709556207514L223.74441964285714,165.67875432332733L224.73883928571428,165.47174836258213L225.73325892857142,165.94123992749783L226.72767857142858,163.41127228076235L227.72209821428572,164.44380240139586L228.71651785714286,163.54945592580174L229.7109375,164.54190035901928L230.70535714285717,165.43818336570652L231.6997767857143,164.80324048356442L232.69419642857144,166.0550872686489L233.68861607142858,166.7007966515839L234.68303571428572,166.53326943302156L235.67745535714286,166.49078758580782L236.671875,166.6228553792768L237.66629464285714,166.53459318392024L238.66071428571428,167.04658039600585L239.65513392857144,167.7176195502088L240.64955357142858,168.0235542471742L241.64397321428572,167.10082639618298L242.63839285714286,167.86928883702063L243.6328125,168.60913655110016L244.62723214285714,169.19759881624753L245.62165178571428,169.38391056823835L246.61607142857142,169.5787218852547L247.61049107142856,169.23797316206677L248.60491071428572,167.85163061343397L249.59933035714286,167.8476874275698L250.59375,168.0331212548125L251.58816964285714,168.32787223791826L252.58258928571428,168.6272738953133L253.57700892857142,168.74048560517L254.57142857142856,168.57016725429676L255.5658482142857,168.5888888625508L256.56026785714283,168.44432094915956L257.5546875,168.40826027201456" style="fill: none;" fill="none"></path></g></g></g></g><g opacity="0.2"><g><g><g><path stroke="rgb(255, 112, 67)" stroke-width="2px" d="M24.860491071428573,-4.6344122886657715L25.854910714285715,13.673572927713394L26.849330357142858,35.81810528039932L27.84375,29.25388941168785L28.838169642857146,25.28701627254486L29.832589285714285,28.75701406598091L30.827008928571427,30.51703178882599L31.82142857142857,21.900741696357727L32.815848214285715,29.317746102809906L33.810267857142854,22.819508850574493L34.8046875,44.14753758907318L35.79910714285714,44.08597522974014L36.793526785714285,58.5477320253849L37.78794642857142,40.75815969705582L38.78236607142857,37.52470353245735L39.776785714285715,42.452092707157135L40.77120535714286,51.37590283155441L41.765625,54.94158619642258L42.760044642857146,54.814230889081955L43.754464285714285,65.16563260555267L44.74888392857143,61.95531868934631L45.74330357142857,61.28289380669594L46.73772321428571,65.40743926167488L47.732142857142854,60.256293058395386L48.7265625,45.75358310341835L49.720982142857146,66.89111599326134L50.715401785714285,83.99711006879807L51.70982142857143,82.54389622807503L52.70424107142857,77.52700158953667L53.698660714285715,77.81839498877525L54.693080357142854,79.32078444957733L55.6875,86.52334177494049L56.681919642857146,85.28328859806061L57.67633928571429,87.68473783135414L58.67075892857143,93.11491058766842L59.66517857142857,79.33184498548508L60.659598214285715,92.39527949690819L61.654017857142854,93.71958637237549L62.6484375,91.12967701256275L63.64285714285714,87.78041014075279L64.63727678571429,95.82860776782036L65.63169642857143,97.49056601524353L66.62611607142857,99.92980541288853L67.62053571428571,94.0436706840992L68.61495535714286,95.22253283858299L69.609375,103.58348236978054L70.60379464285714,81.9593588411808L71.59821428571428,93.3389792740345L72.59263392857143,103.49515722692013L73.58705357142857,102.28969806432724L74.58147321428571,101.61889778077602L75.57589285714285,106.09548391401768L76.5703125,103.0652684122324L77.56473214285714,83.3180276453495L78.55915178571429,99.52390098571777L79.55357142857143,107.72131638228893L80.54799107142858,110.09531983733177L81.54241071428572,108.57698278129101L82.53683035714286,110.90291799604893L83.53125,113.73730631172657L84.52566964285714,127.35487499833107L85.52008928571429,110.33368499577045L86.51450892857143,112.78818899393082L87.50892857142857,105.13404616713524L88.50334821428571,109.6109306961298L89.49776785714286,115.69912576675415L90.4921875,104.33087752759457L91.48660714285714,106.65083819627762L92.48102678571428,124.19659467041492L93.47544642857142,122.63066017627716L94.46986607142857,119.83751015365124L95.46428571428571,119.12546494603157L96.45870535714286,119.38408122956753L97.453125,118.99410450458527L98.44754464285715,115.79744385182858L99.44196428571429,115.59070201218128L100.43638392857143,127.12659561634064L101.43080357142857,122.51826444268227L102.42522321428572,123.40610453486443L103.41964285714286,127.05486127734184L104.4140625,128.65406358242035L105.40848214285714,121.66186200082302L106.40290178571428,116.1628924459219L107.39732142857143,119.62836788594723L108.39174107142857,130.64219491183758L109.38616071428571,127.04321721196175L110.38058035714285,122.90990555286407L111.375,128.4376139342785L112.36941964285714,129.32404825091362L113.36383928571429,136.59483210742474L114.35825892857143,131.52093061804771L115.35267857142858,141.37273827195168L116.34709821428572,128.65728625655174L117.34151785714286,136.83517993986607L118.3359375,138.63016964495182L119.33035714285714,141.8789235651493L120.32477678571429,135.89897321164608L121.31919642857143,138.18078564107418L122.31361607142857,136.92797438800335L123.30803571428571,136.59646996855736L124.30245535714286,105.80556260049343L125.296875,112.89915242791176L126.29129464285714,124.99156737327576L127.28571428571428,115.66123613715172L128.28013392857142,135.30953550338745L129.27455357142858,131.66982346773148L130.26897321428572,141.83656463027L131.26339285714286,132.87168861925602L132.2578125,139.87424784898758L133.25223214285714,136.74963319301605L134.24665178571428,140.9540160894394L135.24107142857142,142.10323759913445L136.23549107142856,140.58614717423916L137.22991071428572,138.42152470350266L138.22433035714286,143.39856693148613L139.21875,143.24173012375832L140.21316964285714,141.8669612109661L141.20758928571428,142.16731974482536L142.20200892857142,142.6855535954237L143.19642857142856,141.88360506296158L144.19084821428572,142.42039249837399L145.18526785714286,146.1690123528242L146.1796875,148.311284981668L147.17410714285714,134.03401964902878L148.16852678571428,144.49104683101177L149.16294642857142,148.55688457936049L150.15736607142856,147.14239256083965L151.1517857142857,145.50228019803762L152.14620535714283,145.5936953946948L153.140625,150.9547862187028L154.13504464285714,149.8055481314659L155.12946428571428,149.20971812307835L156.12388392857142,151.61009644716978L157.11830357142858,148.85002525150776L158.11272321428572,148.19373363256454L159.10714285714286,146.69213657826185L160.1015625,148.5724144205451L161.09598214285717,151.78216801583767L162.0904017857143,115.28834754228592L163.08482142857144,135.45639263093472L164.07924107142858,143.33775387704372L165.07366071428572,146.48058393597603L166.06808035714286,151.08637543022633L167.0625,149.70121571421623L168.05691964285714,144.20670883357525L169.05133928571428,147.61178565770388L170.04575892857144,152.07358793914318L171.04017857142858,153.06981863081455L172.03459821428572,152.99336632341146L173.02901785714286,155.53618551790714L174.0234375,147.51213473826647L175.01785714285714,148.9087992683053L176.01227678571428,153.1234204545617L177.00669642857142,150.83996353298426L178.00111607142856,157.91743667423725L178.99553571428572,157.11515659093857L179.98995535714286,145.00335255265236L180.984375,156.63405311852694L181.97879464285714,161.05816470086575L182.97321428571428,158.00993935763836L183.96763392857142,160.7733559012413L184.96205357142856,152.80444534122944L185.9564732142857,156.79397003352642L186.95089285714283,156.6562239229679L187.9453125,157.4520022943616L188.93973214285714,157.43568336218596L189.93415178571428,161.24789798259735L190.92857142857142,157.37179020047188L191.92299107142858,154.80347806215286L192.91741071428572,161.57886197417974L193.91183035714286,158.52879320830107L194.90625,159.4634416475892L195.90066964285717,164.84294348955154L196.8950892857143,158.20762322843075L197.88950892857144,161.95962821692228L198.88392857142858,161.43925917893648L199.87834821428572,158.93927635252476L200.87276785714286,154.98209112882614L201.8671875,163.26854118704796L202.86160714285714,160.9399369880557L203.85602678571428,164.05583185702562L204.85044642857144,163.85892049968243L205.84486607142858,163.55821715295315L206.83928571428572,161.3325429111719L207.83370535714286,156.60065268725157L208.828125,164.38794301450253L209.82254464285714,163.05036084353924L210.81696428571428,165.5101331844926L211.81138392857142,163.9893758073449L212.80580357142856,161.32935339212418L213.80022321428572,159.8124353736639L214.79464285714286,163.27164781838655L215.7890625,162.27812258154154L216.78348214285714,167.04691441357136L217.77790178571428,166.25975636392832L218.77232142857142,163.86661911010742L219.76674107142856,168.8263444378972L220.7611607142857,163.00040607899427L221.75558035714283,162.69204722344875L222.75,167.20707999169827L223.74441964285714,167.71795009821653L224.73883928571428,164.87013728916645L225.73325892857142,167.30569978803396L226.72767857142858,156.05855380743742L227.72209821428572,167.44459306448698L228.71651785714286,160.95026148110628L229.7109375,167.42619199305773L230.70535714285717,168.04300585389137L231.6997767857143,162.9579377323389L232.69419642857144,169.6932669878006L233.68861607142858,168.5773895457387L234.68303571428572,166.04639345407486L235.67745535714286,166.36732471734285L236.671875,167.00667740404606L237.66629464285714,166.27808117866516L238.66071428571428,168.53454323112965L239.65513392857144,169.6678270921111L240.64955357142858,168.91267696022987L241.64397321428572,164.41914857923985L242.63839285714286,170.10263280570507L243.6328125,170.7593189701438L244.62723214285714,170.90781727433205L245.62165178571428,169.9253790974617L246.61607142857142,170.1448922753334L247.61049107142856,168.24767218530178L248.60491071428572,163.82257258147L249.59933035714286,167.83622754365206L250.59375,168.57203831523657L251.58816964285714,169.1844922825694L252.58258928571428,169.49740996211767L253.57700892857142,169.06950713694096L254.57142857142856,168.07517954707146L255.5658482142857,168.64329853653908L256.56026785714283,168.02417045086622L257.5546875,168.3034589290619" style="fill: none;" fill="none"></path></g></g></g></g></g></g><g transform="translate(51, 178)" clip-path="url(#clip_1)"><clipPath id="clip_1"><rect width="278" height="22"></rect></clipPath><g><g><line x1="0" y1="0" x2="0" y2="5" style="visibility: inherit;" fill="rgb(0, 0, 0)" stroke="rgb(204, 204, 204)" stroke-width="1px"></line><line x1="19.888392857142858" y1="0" x2="19.888392857142858" y2="5" style="visibility: inherit;" fill="rgb(0, 0, 0)" stroke="rgb(204, 204, 204)" stroke-width="1px"></line><line x1="39.776785714285715" y1="0" x2="39.776785714285715" y2="5" style="visibility: inherit;" fill="rgb(0, 0, 0)" stroke="rgb(204, 204, 204)" stroke-width="1px"></line><line x1="59.66517857142857" y1="0" x2="59.66517857142857" y2="5" style="visibility: inherit;" fill="rgb(0, 0, 0)" stroke="rgb(204, 204, 204)" stroke-width="1px"></line><line x1="79.55357142857143" y1="0" x2="79.55357142857143" y2="5" style="visibility: inherit;" fill="rgb(0, 0, 0)" stroke="rgb(204, 204, 204)" stroke-width="1px"></line><line x1="99.44196428571429" y1="0" x2="99.44196428571429" y2="5" style="visibility: inherit;" fill="rgb(0, 0, 0)" stroke="rgb(204, 204, 204)" stroke-width="1px"></line><line x1="119.33035714285714" y1="0" x2="119.33035714285714" y2="5" style="visibility: inherit;" fill="rgb(0, 0, 0)" stroke="rgb(204, 204, 204)" stroke-width="1px"></line><line x1="139.21875" y1="0" x2="139.21875" y2="5" style="visibility: inherit;" fill="rgb(0, 0, 0)" stroke="rgb(204, 204, 204)" stroke-width="1px"></line><line x1="159.10714285714286" y1="0" x2="159.10714285714286" y2="5" style="visibility: inherit;" fill="rgb(0, 0, 0)" stroke="rgb(204, 204, 204)" stroke-width="1px"></line><line x1="178.99553571428572" y1="0" x2="178.99553571428572" y2="5" style="visibility: inherit;" fill="rgb(0, 0, 0)" stroke="rgb(204, 204, 204)" stroke-width="1px"></line><line x1="198.88392857142858" y1="0" x2="198.88392857142858" y2="5" style="visibility: inherit;" fill="rgb(0, 0, 0)" stroke="rgb(204, 204, 204)" stroke-width="1px"></line><line x1="218.77232142857142" y1="0" x2="218.77232142857142" y2="5" style="visibility: inherit;" fill="rgb(0, 0, 0)" stroke="rgb(204, 204, 204)" stroke-width="1px"></line><line x1="238.66071428571428" y1="0" x2="238.66071428571428" y2="5" style="visibility: inherit;" fill="rgb(0, 0, 0)" stroke="rgb(204, 204, 204)" stroke-width="1px"></line><line x1="258.54910714285717" y1="0" x2="258.54910714285717" y2="5" style="visibility: inherit;" fill="rgb(0, 0, 0)" stroke="rgb(204, 204, 204)" stroke-width="1px"></line><line x1="278.4375" y1="0" x2="278.4375" y2="5" style="visibility: inherit;" fill="rgb(0, 0, 0)" stroke="rgb(204, 204, 204)" stroke-width="1px"></line></g><g transform="translate(0, 8)"><text x="0" y="0" dx="0em" dy="0.95em" style="text-anchor: middle; visibility: hidden; font-family: Roboto, sans-serif; font-size: 12px; font-weight: 200;" fill="rgb(50, 49, 63)" stroke="none" stroke-width="1px">-2k</text><text x="19.888392857142858" y="0" dx="0em" dy="0.95em" style="text-anchor: middle; visibility: inherit; font-family: Roboto, sans-serif; font-size: 12px; font-weight: 200;" fill="rgb(50, 49, 63)" stroke="none" stroke-width="1px">0</text><text x="39.776785714285715" y="0" dx="0em" dy="0.95em" style="text-anchor: middle; visibility: hidden; font-family: Roboto, sans-serif; font-size: 12px; font-weight: 200;" fill="rgb(50, 49, 63)" stroke="none" stroke-width="1px">2k</text><text x="59.66517857142857" y="0" dx="0em" dy="0.95em" style="text-anchor: middle; visibility: inherit; font-family: Roboto, sans-serif; font-size: 12px; font-weight: 200;" fill="rgb(50, 49, 63)" stroke="none" stroke-width="1px">4k</text><text x="79.55357142857143" y="0" dx="0em" dy="0.95em" style="text-anchor: middle; visibility: hidden; font-family: Roboto, sans-serif; font-size: 12px; font-weight: 200;" fill="rgb(50, 49, 63)" stroke="none" stroke-width="1px">6k</text><text x="99.44196428571429" y="0" dx="0em" dy="0.95em" style="text-anchor: middle; visibility: inherit; font-family: Roboto, sans-serif; font-size: 12px; font-weight: 200;" fill="rgb(50, 49, 63)" stroke="none" stroke-width="1px">8k</text><text x="119.33035714285714" y="0" dx="0em" dy="0.95em" style="text-anchor: middle; visibility: hidden; font-family: Roboto, sans-serif; font-size: 12px; font-weight: 200;" fill="rgb(50, 49, 63)" stroke="none" stroke-width="1px">10k</text><text x="139.21875" y="0" dx="0em" dy="0.95em" style="text-anchor: middle; visibility: inherit; font-family: Roboto, sans-serif; font-size: 12px; font-weight: 200;" fill="rgb(50, 49, 63)" stroke="none" stroke-width="1px">12k</text><text x="159.10714285714286" y="0" dx="0em" dy="0.95em" style="text-anchor: middle; visibility: hidden; font-family: Roboto, sans-serif; font-size: 12px; font-weight: 200;" fill="rgb(50, 49, 63)" stroke="none" stroke-width="1px">14k</text><text x="178.99553571428572" y="0" dx="0em" dy="0.95em" style="text-anchor: middle; visibility: inherit; font-family: Roboto, sans-serif; font-size: 12px; font-weight: 200;" fill="rgb(50, 49, 63)" stroke="none" stroke-width="1px">16k</text><text x="198.88392857142858" y="0" dx="0em" dy="0.95em" style="text-anchor: middle; visibility: hidden; font-family: Roboto, sans-serif; font-size: 12px; font-weight: 200;" fill="rgb(50, 49, 63)" stroke="none" stroke-width="1px">18k</text><text x="218.77232142857142" y="0" dx="0em" dy="0.95em" style="text-anchor: middle; visibility: inherit; font-family: Roboto, sans-serif; font-size: 12px; font-weight: 200;" fill="rgb(50, 49, 63)" stroke="none" stroke-width="1px">20k</text><text x="238.66071428571428" y="0" dx="0em" dy="0.95em" style="text-anchor: middle; visibility: hidden; font-family: Roboto, sans-serif; font-size: 12px; font-weight: 200;" fill="rgb(50, 49, 63)" stroke="none" stroke-width="1px">22k</text><text x="258.54910714285717" y="0" dx="0em" dy="0.95em" style="text-anchor: middle; visibility: inherit; font-family: Roboto, sans-serif; font-size: 12px; font-weight: 200;" fill="rgb(50, 49, 63)" stroke="none" stroke-width="1px">24k</text><text x="278.4375" y="0" dx="0em" dy="0.95em" style="text-anchor: middle; visibility: hidden; font-family: Roboto, sans-serif; font-size: 12px; font-weight: 200;" fill="rgb(50, 49, 63)" stroke="none" stroke-width="1px">26k</text></g><line x1="0" y1="0" x2="278.4375" y2="0" fill="rgb(0, 0, 0)" stroke="rgb(204, 204, 204)" stroke-width="1px"></line></g></g></g></g></svg>