<svg viewBox="0 0 330 200" xmlns="http://www.w3.org/2000/svg"><g><g><g><g><g><line x1="51.5625" y1="178" x2="46.5625" y2="178" style="visibility: inherit;" fill="rgb(0, 0, 0)" stroke="rgb(204, 204, 204)" stroke-width="1px"></line><line x1="51.5625" y1="161.8181818181818" x2="46.5625" y2="161.8181818181818" style="visibility: inherit;" fill="rgb(0, 0, 0)" stroke="rgb(204, 204, 204)" stroke-width="1px"></line><line x1="51.5625" y1="145.63636363636363" x2="46.5625" y2="145.63636363636363" style="visibility: inherit;" fill="rgb(0, 0, 0)" stroke="rgb(204, 204, 204)" stroke-width="1px"></line><line x1="51.5625" y1="129.45454545454547" x2="46.5625" y2="129.45454545454547" style="visibility: inherit;" fill="rgb(0, 0, 0)" stroke="rgb(204, 204, 204)" stroke-width="1px"></line><line x1="51.5625" y1="113.2727272727273" x2="46.5625" y2="113.2727272727273" style="visibility: inherit;" fill="rgb(0, 0, 0)" stroke="rgb(204, 204, 204)" stroke-width="1px"></line><line x1="51.5625" y1="97.09090909090908" x2="46.5625" y2="97.09090909090908" style="visibility: inherit;" fill="rgb(0, 0, 0)" stroke="rgb(204, 204, 204)" stroke-width="1px"></line><line x1="51.5625" y1="80.90909090909092" x2="46.5625" y2="80.90909090909092" style="visibility: inherit;" fill="rgb(0, 0, 0)" stroke="rgb(204, 204, 204)" stroke-width="1px"></line><line x1="51.5625" y1="64.72727272727275" x2="46.5625" y2="64.72727272727275" style="visibility: inherit;" fill="rgb(0, 0, 0)" stroke="rgb(204, 204, 204)" stroke-width="1px"></line><line x1="51.5625" y1="48.54545454545454" x2="46.5625" y2="48.54545454545454" style="visibility: inherit;" fill="rgb(0, 0, 0)" stroke="rgb(204, 204, 204)" stroke-width="1px"></line><line x1="51.5625" y1="32.363636363636374" x2="46.5625" y2="32.363636363636374" style="visibility: inherit;" fill="rgb(0, 0, 0)" stroke="rgb(204, 204, 204)" stroke-width="1px"></line><line x1="51.5625" y1="16.181818181818187" x2="46.5625" y2="16.181818181818187" style="visibility: inherit;" fill="rgb(0, 0, 0)" stroke="rgb(204, 204, 204)" stroke-width="1px"></line><line x1="51.5625" y1="0" x2="46.5625" y2="0" style="visibility: inherit;" fill="rgb(0, 0, 0)" stroke="rgb(204, 204, 204)" stroke-width="1px"></line></g><g transform="translate(41.5625, 0)"><text x="0" y="178" dx="0em" dy="0.3em" style="text-anchor: end; visibility: hidden; font-family: Roboto, sans-serif; font-size: 12px; font-weight: 200;" fill="rgb(50, 49, 63)" stroke="none" stroke-width="1px">0.02</text><text x="0" y="161.8181818181818" dx="0em" dy="0.3em" style="text-anchor: end; visibility: inherit; font-family: Roboto, sans-serif; font-size: 12px; font-weight: 200;" fill="rgb(50, 49, 63)" stroke="none" stroke-width="1px">0.03</text><text x="0" y="145.63636363636363" dx="0em" dy="0.3em" style="text-anchor: end; visibility: hidden; font-family: Roboto, sans-serif; font-size: 12px; font-weight: 200;" fill="rgb(50, 49, 63)" stroke="none" stroke-width="1px">0.04</text><text x="0" y="129.45454545454547" dx="0em" dy="0.3em" style="text-anchor: end; visibility: inherit; font-family: Roboto, sans-serif; font-size: 12px; font-weight: 200;" fill="rgb(50, 49, 63)" stroke="none" stroke-width="1px">0.05</text><text x="0" y="113.2727272727273" dx="0em" dy="0.3em" style="text-anchor: end; visibility: hidden; font-family: Roboto, sans-serif; font-size: 12px; font-weight: 200;" fill="rgb(50, 49, 63)" stroke="none" stroke-width="1px">0.06</text><text x="0" y="97.09090909090908" dx="0em" dy="0.3em" style="text-anchor: end; visibility: inherit; font-family: Roboto, sans-serif; font-size: 12px; font-weight: 200;" fill="rgb(50, 49, 63)" stroke="none" stroke-width="1px">0.07</text><text x="0" y="80.90909090909092" dx="0em" dy="0.3em" style="text-anchor: end; visibility: hidden; font-family: Roboto, sans-serif; font-size: 12px; font-weight: 200;" fill="rgb(50, 49, 63)" stroke="none" stroke-width="1px">0.08</text><text x="0" y="64.72727272727275" dx="0em" dy="0.3em" style="text-anchor: end; visibility: inherit; font-family: Roboto, sans-serif; font-size: 12px; font-weight: 200;" fill="rgb(50, 49, 63)" stroke="none" stroke-width="1px">0.09</text><text x="0" y="48.54545454545454" dx="0em" dy="0.3em" style="text-anchor: end; visibility: hidden; font-family: Roboto, sans-serif; font-size: 12px; font-weight: 200;" fill="rgb(50, 49, 63)" stroke="none" stroke-width="1px">0.1</text><text x="0" y="32.363636363636374" dx="0em" dy="0.3em" style="text-anchor: end; visibility: inherit; font-family: Roboto, sans-serif; font-size: 12px; font-weight: 200;" fill="rgb(50, 49, 63)" stroke="none" stroke-width="1px">0.11</text><text x="0" y="16.181818181818187" dx="0em" dy="0.3em" style="text-anchor: end; visibility: hidden; font-family: Roboto, sans-serif; font-size: 12px; font-weight: 200;" fill="rgb(50, 49, 63)" stroke="none" stroke-width="1px">0.12</text><text x="0" y="0" dx="0em" dy="0.3em" style="text-anchor: end; visibility: hidden; font-family: Roboto, sans-serif; font-size: 12px; font-weight: 200;" fill="rgb(50, 49, 63)" stroke="none" stroke-width="1px">0.13</text></g><line x1="51.5625" y1="0" x2="51.5625" y2="178" fill="rgb(0, 0, 0)" stroke="rgb(204, 204, 204)" stroke-width="1px"></line></g></g><g transform="translate(51, 0)" clip-path="url(#clip_0)"><clipPath id="clip_0"><rect width="278" height="178"></rect></clipPath><g><g><g><line x1="0" y1="0" x2="0" y2="178" fill="rgb(0, 0, 0)" stroke="rgb(60, 60, 60)" stroke-width="1px" opacity="0.25"></line><line x1="19.888392857142858" y1="0" x2="19.888392857142858" y2="178" fill="rgb(0, 0, 0)" stroke="rgb(60, 60, 60)" stroke-width="1px" opacity="0.25"></line><line x1="39.776785714285715" y1="0" x2="39.776785714285715" y2="178" fill="rgb(0, 0, 0)" stroke="rgb(60, 60, 60)" stroke-width="1px" opacity="0.25"></line><line x1="59.66517857142857" y1="0" x2="59.66517857142857" y2="178" fill="rgb(0, 0, 0)" stroke="rgb(60, 60, 60)" stroke-width="1px" opacity="0.25"></line><line x1="79.55357142857143" y1="0" x2="79.55357142857143" y2="178" fill="rgb(0, 0, 0)" stroke="rgb(60, 60, 60)" stroke-width="1px" opacity="0.25"></line><line x1="99.44196428571429" y1="0" x2="99.44196428571429" y2="178" fill="rgb(0, 0, 0)" stroke="rgb(60, 60, 60)" stroke-width="1px" opacity="0.25"></line><line x1="119.33035714285714" y1="0" x2="119.33035714285714" y2="178" fill="rgb(0, 0, 0)" stroke="rgb(60, 60, 60)" stroke-width="1px" opacity="0.25"></line><line x1="139.21875" y1="0" x2="139.21875" y2="178" fill="rgb(0, 0, 0)" stroke="rgb(60, 60, 60)" stroke-width="1px" opacity="0.25"></line><line x1="159.10714285714286" y1="0" x2="159.10714285714286" y2="178" fill="rgb(0, 0, 0)" stroke="rgb(60, 60, 60)" stroke-width="1px" opacity="0.25"></line><line x1="178.99553571428572" y1="0" x2="178.99553571428572" y2="178" fill="rgb(0, 0, 0)" stroke="rgb(60, 60, 60)" stroke-width="1px" opacity="0.25"></line><line x1="198.88392857142858" y1="0" x2="198.88392857142858" y2="178" fill="rgb(0, 0, 0)" stroke="rgb(60, 60, 60)" stroke-width="1px" opacity="0.25"></line><line x1="218.77232142857142" y1="0" x2="218.77232142857142" y2="178" fill="rgb(0, 0, 0)" stroke="rgb(60, 60, 60)" stroke-width="1px" opacity="0.25"></line><line x1="238.66071428571428" y1="0" x2="238.66071428571428" y2="178" fill="rgb(0, 0, 0)" stroke="rgb(60, 60, 60)" stroke-width="1px" opacity="0.25"></line><line x1="258.54910714285717" y1="0" x2="258.54910714285717" y2="178" fill="rgb(0, 0, 0)" stroke="rgb(60, 60, 60)" stroke-width="1px" opacity="0.25"></line><line x1="278.4375" y1="0" x2="278.4375" y2="178" fill="rgb(0, 0, 0)" stroke="rgb(60, 60, 60)" stroke-width="1px" opacity="0.25"></line></g><g><line x1="0" y1="178" x2="278.4375" y2="178" fill="rgb(0, 0, 0)" stroke="rgb(60, 60, 60)" stroke-width="1px" opacity="0.25"></line><line x1="0" y1="161.8181818181818" x2="278.4375" y2="161.8181818181818" fill="rgb(0, 0, 0)" stroke="rgb(60, 60, 60)" stroke-width="1px" opacity="0.25"></line><line x1="0" y1="145.63636363636363" x2="278.4375" y2="145.63636363636363" fill="rgb(0, 0, 0)" stroke="rgb(60, 60, 60)" stroke-width="1px" opacity="0.25"></line><line x1="0" y1="129.45454545454547" x2="278.4375" y2="129.45454545454547" fill="rgb(0, 0, 0)" stroke="rgb(60, 60, 60)" stroke-width="1px" opacity="0.25"></line><line x1="0" y1="113.2727272727273" x2="278.4375" y2="113.2727272727273" fill="rgb(0, 0, 0)" stroke="rgb(60, 60, 60)" stroke-width="1px" opacity="0.25"></line><line x1="0" y1="97.09090909090908" x2="278.4375" y2="97.09090909090908" fill="rgb(0, 0, 0)" stroke="rgb(60, 60, 60)" stroke-width="1px" opacity="0.25"></line><line x1="0" y1="80.90909090909092" x2="278.4375" y2="80.90909090909092" fill="rgb(0, 0, 0)" stroke="rgb(60, 60, 60)" stroke-width="1px" opacity="0.25"></line><line x1="0" y1="64.72727272727275" x2="278.4375" y2="64.72727272727275" fill="rgb(0, 0, 0)" stroke="rgb(60, 60, 60)" stroke-width="1px" opacity="0.25"></line><line x1="0" y1="48.54545454545454" x2="278.4375" y2="48.54545454545454" fill="rgb(0, 0, 0)" stroke="rgb(60, 60, 60)" stroke-width="1px" opacity="0.25"></line><line x1="0" y1="32.363636363636374" x2="278.4375" y2="32.363636363636374" fill="rgb(0, 0, 0)" stroke="rgb(60, 60, 60)" stroke-width="1px" opacity="0.25"></line><line x1="0" y1="16.181818181818187" x2="278.4375" y2="16.181818181818187" fill="rgb(0, 0, 0)" stroke="rgb(60, 60, 60)" stroke-width="1px" opacity="0.25"></line><line x1="0" y1="0" x2="278.4375" y2="0" fill="rgb(0, 0, 0)" stroke="rgb(60, 60, 60)" stroke-width="1px" opacity="0.25"></line></g></g></g><g><g><line x1="0" y1="210.36363636363637" x2="278.4375" y2="210.36363636363637" fill="rgb(0, 0, 0)" stroke="rgb(153, 153, 153)" stroke-width="1.5px"></line></g></g><g><g><line x1="19.888392857142858" y1="0" x2="19.888392857142858" y2="178" fill="rgb(0, 0, 0)" stroke="rgb(153, 153, 153)" stroke-width="1.5px"></line></g></g><g><g><g><g><g><path stroke="rgb(255, 112, 67)" stroke-width="2px" d="M27.84375,-0.3801795832793293L28.838169642857146,6.981876577660289L29.832589285714285,15.027604110576323L30.827008928571427,16.201015598071102L31.82142857142857,6.505322288982983L32.815848214285715,11.34510144485075L33.810267857142854,6.42654652756377L34.8046875,19.48305931934097L35.79910714285714,28.803854694709603L36.793526785714285,44.116733219507196L37.78794642857142,43.762244448036306L38.78236607142857,39.73955318536843L39.776785714285715,38.24262710087084L40.77120535714286,39.47630026305832L41.765625,43.65501314681817L42.760044642857146,46.79749571525147L43.754464285714285,50.582295693589494L44.74888392857143,54.255280937828864L45.74330357142857,56.18324750285759L46.73772321428571,57.048754704770104L47.732142857142854,51.51901334511768L48.7265625,36.109975878946486L49.720982142857146,39.87890973909605L50.715401785714285,56.56119386946922L51.70982142857143,64.73343272843542L52.70424107142857,67.42242586561277L53.698660714285715,66.45330776130217L54.693080357142854,67.62634891142557L55.6875,73.79956676674047L56.681919642857146,78.17400905712032L57.67633928571429,79.02172434464086L58.67075892857143,84.97842721860334L59.66517857142857,79.7094832657813L60.659598214285715,83.24284285909111L61.654017857142854,86.81445917034732L62.6484375,84.7322101673524L63.64285714285714,84.38694882496166L64.63727678571429,86.3243282081844L65.63169642857143,89.83644244016334L66.62611607142857,90.98387610723802L67.62053571428571,88.4176869422013L68.61495535714286,89.34792006607695L69.609375,92.00028417767983L70.60379464285714,81.75380594683038L71.59821428571428,85.5901662624607L72.59263392857143,86.24791779324775L73.58705357142857,88.3993066469293L74.58147321428571,86.89939459311628L75.57589285714285,91.3165991645889L76.5703125,91.43957721408967L77.56473214285714,74.82604441086093L78.55915178571429,79.0650206644747L79.55357142857143,83.41349226604656L80.54799107142858,87.06782533201458L81.54241071428572,88.92173380684379L82.53683035714286,90.31196460329461L83.53125,93.28699536233728L84.52566964285714,104.95115899165425L85.52008928571429,100.13709217067087L86.51450892857143,97.8871313863372L87.50892857142857,89.30894631773741L88.50334821428571,86.19586267842833L89.49776785714286,89.48755278399582L90.4921875,84.90362378512508L91.48660714285714,80.75915184690328L92.48102678571428,91.29067237491982L93.47544642857142,95.61670602410939L94.46986607142857,96.71306266537192L95.46428571428571,98.45303491278966L96.45870535714286,99.12846280474821L97.453125,99.42844299546266L98.44754464285715,100.65763383935573L99.44196428571429,100.06982559002141L100.43638392857143,105.91501876642894L101.43080357142857,107.32869657384812L102.42522321428572,109.17904828121257L103.41964285714286,111.05280530226743L104.4140625,114.40234045012004L105.40848214285714,112.42785901448705L106.40290178571428,104.7412948954231L107.39732142857143,102.90004048370636L108.39174107142857,108.21187409059485L109.38616071428571,110.16163261650432L110.38058035714285,105.37765200831087L111.375,107.82716303559332L112.36941964285714,109.12109013455357L113.36383928571429,116.42412652084622L114.35825892857143,115.80838073120735L115.35267857142858,122.90368431797668L116.34709821428572,118.58504310622814L117.34151785714286,121.09161226226863L118.3359375,125.12063672233629L119.33035714285714,128.28062225377283L120.32477678571429,127.676207621391L121.31919642857143,127.52345533801842L122.31361607142857,127.34607734730245L123.30803571428571,124.85115365304908L124.30245535714286,105.03045420326603L125.296875,97.04485737624874L126.29129464285714,98.60095135680118L127.28571428571428,91.6845756633529L128.28013392857142,100.558133824313L129.27455357142858,103.68007573756896L130.26897321428572,114.18702803096348L131.26339285714286,113.74323340398703L132.2578125,119.18319024252109L133.25223214285714,119.19229047688698L134.24665178571428,122.5723976698521L135.24107142857142,125.51573374982057L136.23549107142856,126.76704280797662L137.22991071428572,126.81844396559525L138.22433035714286,128.3197470139662L139.21875,129.941649839193L140.21316964285714,129.6998205285385L141.20758928571428,129.7450952153813L142.20200892857142,128.8973148149363L143.19642857142856,130.06678606228397L144.19084821428572,128.50346410652335L145.18526785714286,131.11480406998925L146.1796875,134.74884483109935L147.17410714285714,127.81525533788506L148.16852678571428,128.4747464199727L149.16294642857142,132.25053712409064L150.15736607142856,134.83833374743745L151.1517857142857,132.860603457674L152.14620535714283,131.0634805001362L153.140625,134.4167572298055L154.13504464285714,136.28808702744053L155.12946428571428,136.77157974948665L156.12388392857142,138.29378163671865L157.11830357142858,137.94956942478146L158.11272321428572,137.0663007628495L159.10714285714286,135.36560450789426L160.1015625,133.80937592943818L161.09598214285717,135.97692297266323L162.0904017857143,105.26957456733838L163.08482142857144,104.59129146660295L164.07924107142858,108.97455713363995L165.07366071428572,115.00122059149017L166.06808035714286,121.86166707004207L167.0625,126.05895150205998L168.05691964285714,125.99356682463157L169.05133928571428,126.77541597346848L170.04575892857144,130.12131997897822L171.04017857142858,133.524477012147L172.03459821428572,136.56630213072435L173.02901785714286,140.16120827273005L174.0234375,134.83069532129412L175.01785714285714,133.0716145722111L176.01227678571428,134.88350389658788L177.00669642857142,134.45026652211382L178.00111607142856,140.0105183952137L178.99553571428572,142.7754400284684L179.98995535714286,135.64361728097185L180.984375,138.69376807791596L181.97879464285714,144.8253686765209L182.97321428571428,146.88346316002216L183.96763392857142,150.32756798318516L184.96205357142856,147.6166656749543L185.9564732142857,147.5355444195812L186.95089285714283,147.12031940938004L187.9453125,148.5689557661891L188.93973214285714,148.21780118824472L189.93415178571428,150.94427172299228L190.92857142857142,149.736487041495L191.92299107142858,146.02927625944045L192.91741071428572,149.60632405841372L193.91183035714286,149.5765663310383L194.90625,150.4053988961854L195.90066964285717,155.16681637794127L196.8950892857143,153.1595973207463L197.88950892857144,154.4345873817884L198.88392857142858,154.63003383297342L199.87834821428572,152.91412239327317L200.87276785714286,147.8678445386781L201.8671875,151.40428683086995L202.86160714285714,151.87027600009537L203.85602678571428,154.8155419160314L204.85044642857144,156.32408603098636L205.84486607142858,157.69630072036063L206.83928571428572,157.67107295317797L207.83370535714286,152.9544533537358L208.828125,155.28691723534556L209.82254464285714,155.75054957240016L210.81696428571428,157.94287342356108L211.81138392857142,158.5897964142349L212.80580357142856,157.21704359106198L213.80022321428572,154.08237814723196L214.79464285714286,154.56589403833456L215.7890625,154.1082842767923L216.78348214285714,157.7976574742263L217.77790178571428,159.96351088320594L218.77232142857142,159.24721466327287L219.76674107142856,162.97588722409293L220.7611607142857,160.63901054042051L221.75558035714283,158.3766769375263L222.75,160.99624143223278L223.74441964285714,163.3504789860354L224.73883928571428,164.30100259010044L225.73325892857142,165.11803921164164L226.72767857142858,155.40577077576185L227.72209821428572,158.46005442143905L228.71651785714286,154.84618348457352L229.7109375,157.90127624197603L230.70535714285717,160.63393215585225L231.6997767857143,158.92121339019275L232.69419642857144,163.14976125413858L233.68861607142858,165.06030944174088L234.68303571428572,165.09611997531272L235.67745535714286,164.36004041603496L236.671875,165.07731396469657L237.66629464285714,164.4211687597144L238.66071428571428,166.18231322015532L239.65513392857144,168.02580827455122L240.64955357142858,168.7201094359336L241.64397321428572,165.54580951465056L242.63839285714286,167.81334124413218L243.6328125,170.15630901503164L244.62723214285714,172.09673893358126L245.62165178571428,172.630722387398L246.61607142857142,173.40207219579818L247.61049107142856,171.79863881658468L248.60491071428572,166.94498042862014L249.59933035714286,166.85471222879096L250.59375,167.32771695071625L251.58816964285714,168.26393277379017L252.58258928571428,169.45016216199744L253.57700892857142,169.59554838470441L254.57142857142856,169.43793339547574L255.5658482142857,169.4726663720568L256.56026785714283,169.7745887138103L257.5546875,169.14711775747216" style="fill: none;" fill="none"></path></g></g></g></g><g opacity="0.2"><g><g><g><path stroke="rgb(255, 112, 67)" stroke-width="2px" d="M25.854910714285715,-3.392589233138323L26.849330357142858,60.01655648513275L27.84375,32.848292312838815L28.838169642857146,26.36914997751063L29.832589285714285,36.77724206447601L30.827008928571427,19.43402276255868L31.82142857142857,-20.583319263024766L32.815848214285715,25.006102291020493L33.810267857142854,-7.562076102603555L34.8046875,56.824348861520946L35.79910714285714,55.57150867310438L36.793526785714285,88.22754201022063L37.78794642857142,42.738767233761884L38.78236607142857,28.105644469911418L39.776785714285715,33.90797701207075L40.77120535714286,43.05198029496453L41.765625,55.77499649199573L42.760044642857146,55.91668323495171L43.754464285714285,61.569637054746806L44.74888392857143,64.92106141827323L45.74330357142857,61.782950834794484L46.73772321428571,59.562982884320355L47.732142857142854,35.453679068522035L48.7265625,-8.661185210401337L49.720982142857146,50.830307597463786L50.715401785714285,105.03727793151683L51.70982142857143,88.48152200742203L52.70424107142857,75.23670507561077L53.698660714285715,63.636971056461334L54.693080357142854,71.03535315665333L55.6875,91.73990717801182L56.681919642857146,90.88692935488443L57.67633928571429,81.48535326936029L58.67075892857143,102.28986685384405L59.66517857142857,64.39676500992341L60.659598214285715,93.51159428466451L61.654017857142854,97.1944127516313L62.6484375,78.68069843270563L63.64285714285714,83.38353606245734L64.63727678571429,91.95482445846905L65.63169642857143,100.04350745677948L66.62611607142857,94.31860107725318L67.62053571428571,80.9597065448761L68.61495535714286,92.05140823125839L69.609375,99.70871345021509L70.60379464285714,51.97498987479645L71.59821428571428,96.73958528583701L72.59263392857143,88.15950777855788L73.58705357142857,94.65177952701396L74.58147321428571,82.54027569293976L75.57589285714285,104.15409884127705L76.5703125,91.7969821474769L77.56473214285714,26.542967010628104L78.55915178571429,91.38454496318644L79.55357142857143,96.05123752355576L80.54799107142858,97.68823059580545L81.54241071428572,94.309655232863L82.53683035714286,94.35232281143016L83.53125,101.93317843567242L84.52566964285714,138.85013433478096L85.52008928571429,86.1462105350061L86.51450892857143,91.34818287871103L87.50892857142857,64.37859602407976L88.50334821428571,77.14846336841583L89.49776785714286,99.05402714014053L90.4921875,71.58158014579254L91.48660714285714,68.71428028561853L92.48102678571428,121.89790389212696L93.47544642857142,108.1892413117669L94.46986607142857,99.89934915304184L95.46428571428571,103.50982925566761L96.45870535714286,101.09142511541194L97.453125,100.30026042461395L98.44754464285715,104.22996972907674L99.44196428571429,98.36150786551563L100.43638392857143,122.90261143445969L101.43080357142857,111.43719770149751L102.42522321428572,114.55663293058223L103.41964285714286,116.49841164458883L104.4140625,124.13692697340792L105.40848214285714,106.6895223422484L106.40290178571428,82.40221792459488L107.39732142857143,97.54889484969051L108.39174107142857,123.64939051053743L109.38616071428571,115.8281183324077L110.38058035714285,91.47420836578716L111.375,114.94605445861816L112.36941964285714,112.88156576590104L113.36383928571429,137.64857601848516L114.35825892857143,114.01886953007092L115.35267857142858,143.52441036701202L116.34709821428572,106.03399208458988L117.34151785714286,128.37632887200877L118.3359375,136.82998905940488L119.33035714285714,137.4643302045085L120.32477678571429,125.91962759603155L121.31919642857143,127.0795190144669L122.31361607142857,126.83057256178422L123.30803571428571,117.60028166662563L124.30245535714286,47.42654642733661L125.296875,73.83671659773047L126.29129464285714,103.12334948778152L127.28571428571428,71.58385880426927L128.28013392857142,126.34691222960299L129.27455357142858,112.75321942296894L130.26897321428572,144.72285813364115L131.26339285714286,112.4534552693367L132.2578125,134.99306480451062L133.25223214285714,119.21873803301291L134.24665178571428,132.3958341994069L135.24107142857142,134.06980423222888L136.23549107142856,130.4036597582427L137.22991071428572,126.96782857992433L138.22433035714286,132.68290899829432L139.21875,134.65530492500827L140.21316964285714,128.99700409444895L141.20758928571428,129.8766747740182L142.20200892857142,126.433453026143L143.19642857142856,133.46556187488815L144.19084821428572,123.96005967259407L145.18526785714286,138.70401083881205L146.1796875,145.31027579307556L147.17410714285714,107.66451087323101L148.16852678571428,130.39139237728986L149.16294642857142,143.2239288579334L150.15736607142856,142.3591176840392L151.1517857142857,127.11282480304892L152.14620535714283,125.8405919047919L153.140625,144.162217725407L154.13504464285714,141.72663925181735L155.12946428571428,138.17673047293317L156.12388392857142,142.71768087148666L157.11830357142858,136.94920268383893L158.11272321428572,134.49930121410978L159.10714285714286,130.42295601693067L160.1015625,129.2865866233002L161.09598214285717,142.27635656703603L162.0904017857143,16.02634326436303L163.08482142857144,102.6200312050906L164.07924107142858,121.71342297846621L165.07366071428572,132.5162112658674L166.06808035714286,141.79983964833346L167.0625,138.25730938261205L168.05691964285714,125.80354260585527L169.05133928571428,129.0476650622758L170.04575892857144,139.84535349499095L171.04017857142858,143.41490213979375L172.03459821428572,145.4066063815897L173.02901785714286,150.60890424793416L174.0234375,119.33889205618338L175.01785714285714,127.95928614518859L176.01227678571428,140.14930724555796L177.00669642857142,133.19117040254852L178.00111607142856,156.1700004014102L178.99553571428572,150.81099352511492L179.98995535714286,114.91675742106004L180.984375,147.55826883153483L181.97879464285714,162.6453329162164L182.97321428571428,152.86480025269768L183.96763392857142,160.33699762550268L184.96205357142856,139.73810584165832L185.9564732142857,147.29978577115318L186.95089285714283,145.91357172348282L187.9453125,152.77905517816544L188.93973214285714,147.19725819609383L189.93415178571428,158.86807671460238L190.92857142857142,146.2263628108935L191.92299107142858,135.25519492409447L192.91741071428572,160.0021192241799L193.91183035714286,149.49008293585345L194.90625,152.8141935386441L195.90066964285717,169.00468593429437L196.8950892857143,147.32611693577334L197.88950892857144,158.14002724669197L198.88392857142858,155.1980500817299L199.87834821428572,147.9272547716444L200.87276785714286,133.20209952376106L201.8671875,161.68207224255258L202.86160714285714,153.22455702315676L203.85602678571428,163.3752209842205L204.85044642857144,160.70829236507416L205.84486607142858,161.68429966135457L206.83928571428572,157.5977547548034L207.83370535714286,139.24677764285696L208.828125,162.06564039127394L209.82254464285714,157.0979810519652L210.81696428571428,164.3143146159974L211.81138392857142,160.46991635588083L212.80580357142856,153.22748069871557L213.80022321428572,144.97225670110095L214.79464285714286,155.97111209685153L215.7890625,152.77835590731013L216.78348214285714,168.5198983292688L217.77790178571428,166.2580223530531L218.77232142857142,157.1654787740924L219.76674107142856,173.81234185397625L220.7611607142857,153.8474626784975L221.75558035714283,151.801769904115L222.75,168.60935074497354L223.74441964285714,170.19248187677428L224.73883928571428,167.06346181441438L225.73325892857142,167.49255189299583L226.72767857142858,127.17949063398622L227.72209821428572,167.33656626668844L228.71651785714286,144.34337107430804L229.7109375,166.78013956817713L230.70535714285717,168.57571340555495L231.6997767857143,153.94362447749484L232.69419642857144,175.4389784837311L233.68861607142858,170.61284011196008L234.68303571428572,165.20019433850592L235.67745535714286,162.22080919688398L236.671875,167.16189021549442L237.66629464285714,162.51424675773492L238.66071428571428,171.30063930831173L239.65513392857144,173.3834657763893L240.64955357142858,170.73792218620127L241.64397321428572,156.32050036842173L242.63839285714286,174.4033553329381L243.6328125,176.9655590992082L244.62723214285714,177.73611338436604L245.62165178571428,174.1826118000529L246.61607142857142,175.64380757646128L247.61049107142856,167.1386605582454L248.60491071428572,152.83903573859823L249.59933035714286,166.5923702730374L250.59375,168.70238692381164L251.58816964285714,170.98481000959873L252.58258928571428,172.89764132147485L253.57700892857142,170.01807709444654L254.57142857142856,168.97986483302984L255.5658482142857,169.57360908524558L256.56026785714283,170.65205051953143L257.5546875,167.32353029061449" style="fill: none;" fill="none"></path></g></g></g></g></g></g><g transform="translate(51, 178)" clip-path="url(#clip_1)"><clipPath id="clip_1"><rect width="278" height="22"></rect></clipPath><g><g><line x1="0" y1="0" x2="0" y2="5" style="visibility: inherit;" fill="rgb(0, 0, 0)" stroke="rgb(204, 204, 204)" stroke-width="1px"></line><line x1="19.888392857142858" y1="0" x2="19.888392857142858" y2="5" style="visibility: inherit;" fill="rgb(0, 0, 0)" stroke="rgb(204, 204, 204)" stroke-width="1px"></line><line x1="39.776785714285715" y1="0" x2="39.776785714285715" y2="5" style="visibility: inherit;" fill="rgb(0, 0, 0)" stroke="rgb(204, 204, 204)" stroke-width="1px"></line><line x1="59.66517857142857" y1="0" x2="59.66517857142857" y2="5" style="visibility: inherit;" fill="rgb(0, 0, 0)" stroke="rgb(204, 204, 204)" stroke-width="1px"></line><line x1="79.55357142857143" y1="0" x2="79.55357142857143" y2="5" style="visibility: inherit;" fill="rgb(0, 0, 0)" stroke="rgb(204, 204, 204)" stroke-width="1px"></line><line x1="99.44196428571429" y1="0" x2="99.44196428571429" y2="5" style="visibility: inherit;" fill="rgb(0, 0, 0)" stroke="rgb(204, 204, 204)" stroke-width="1px"></line><line x1="119.33035714285714" y1="0" x2="119.33035714285714" y2="5" style="visibility: inherit;" fill="rgb(0, 0, 0)" stroke="rgb(204, 204, 204)" stroke-width="1px"></line><line x1="139.21875" y1="0" x2="139.21875" y2="5" style="visibility: inherit;" fill="rgb(0, 0, 0)" stroke="rgb(204, 204, 204)" stroke-width="1px"></line><line x1="159.10714285714286" y1="0" x2="159.10714285714286" y2="5" style="visibility: inherit;" fill="rgb(0, 0, 0)" stroke="rgb(204, 204, 204)" stroke-width="1px"></line><line x1="178.99553571428572" y1="0" x2="178.99553571428572" y2="5" style="visibility: inherit;" fill="rgb(0, 0, 0)" stroke="rgb(204, 204, 204)" stroke-width="1px"></line><line x1="198.88392857142858" y1="0" x2="198.88392857142858" y2="5" style="visibility: inherit;" fill="rgb(0, 0, 0)" stroke="rgb(204, 204, 204)" stroke-width="1px"></line><line x1="218.77232142857142" y1="0" x2="218.77232142857142" y2="5" style="visibility: inherit;" fill="rgb(0, 0, 0)" stroke="rgb(204, 204, 204)" stroke-width="1px"></line><line x1="238.66071428571428" y1="0" x2="238.66071428571428" y2="5" style="visibility: inherit;" fill="rgb(0, 0, 0)" stroke="rgb(204, 204, 204)" stroke-width="1px"></line><line x1="258.54910714285717" y1="0" x2="258.54910714285717" y2="5" style="visibility: inherit;" fill="rgb(0, 0, 0)" stroke="rgb(204, 204, 204)" stroke-width="1px"></line><line x1="278.4375" y1="0" x2="278.4375" y2="5" style="visibility: inherit;" fill="rgb(0, 0, 0)" stroke="rgb(204, 204, 204)" stroke-width="1px"></line></g><g transform="translate(0, 8)"><text x="0" y="0" dx="0em" dy="0.95em" style="text-anchor: middle; visibility: hidden; font-family: Roboto, sans-serif; font-size: 12px; font-weight: 200;" fill="rgb(50, 49, 63)" stroke="none" stroke-width="1px">-2k</text><text x="19.888392857142858" y="0" dx="0em" dy="0.95em" style="text-anchor: middle; visibility: inherit; font-family: Roboto, sans-serif; font-size: 12px; font-weight: 200;" fill="rgb(50, 49, 63)" stroke="none" stroke-width="1px">0</text><text x="39.776785714285715" y="0" dx="0em" dy="0.95em" style="text-anchor: middle; visibility: hidden; font-family: Roboto, sans-serif; font-size: 12px; font-weight: 200;" fill="rgb(50, 49, 63)" stroke="none" stroke-width="1px">2k</text><text x="59.66517857142857" y="0" dx="0em" dy="0.95em" style="text-anchor: middle; visibility: inherit; font-family: Roboto, sans-serif; font-size: 12px; font-weight: 200;" fill="rgb(50, 49, 63)" stroke="none" stroke-width="1px">4k</text><text x="79.55357142857143" y="0" dx="0em" dy="0.95em" style="text-anchor: middle; visibility: hidden; font-family: Roboto, sans-serif; font-size: 12px; font-weight: 200;" fill="rgb(50, 49, 63)" stroke="none" stroke-width="1px">6k</text><text x="99.44196428571429" y="0" dx="0em" dy="0.95em" style="text-anchor: middle; visibility: inherit; font-family: Roboto, sans-serif; font-size: 12px; font-weight: 200;" fill="rgb(50, 49, 63)" stroke="none" stroke-width="1px">8k</text><text x="119.33035714285714" y="0" dx="0em" dy="0.95em" style="text-anchor: middle; visibility: hidden; font-family: Roboto, sans-serif; font-size: 12px; font-weight: 200;" fill="rgb(50, 49, 63)" stroke="none" stroke-width="1px">10k</text><text x="139.21875" y="0" dx="0em" dy="0.95em" style="text-anchor: middle; visibility: inherit; font-family: Roboto, sans-serif; font-size: 12px; font-weight: 200;" fill="rgb(50, 49, 63)" stroke="none" stroke-width="1px">12k</text><text x="159.10714285714286" y="0" dx="0em" dy="0.95em" style="text-anchor: middle; visibility: hidden; font-family: Roboto, sans-serif; font-size: 12px; font-weight: 200;" fill="rgb(50, 49, 63)" stroke="none" stroke-width="1px">14k</text><text x="178.99553571428572" y="0" dx="0em" dy="0.95em" style="text-anchor: middle; visibility: inherit; font-family: Roboto, sans-serif; font-size: 12px; font-weight: 200;" fill="rgb(50, 49, 63)" stroke="none" stroke-width="1px">16k</text><text x="198.88392857142858" y="0" dx="0em" dy="0.95em" style="text-anchor: middle; visibility: hidden; font-family: Roboto, sans-serif; font-size: 12px; font-weight: 200;" fill="rgb(50, 49, 63)" stroke="none" stroke-width="1px">18k</text><text x="218.77232142857142" y="0" dx="0em" dy="0.95em" style="text-anchor: middle; visibility: inherit; font-family: Roboto, sans-serif; font-size: 12px; font-weight: 200;" fill="rgb(50, 49, 63)" stroke="none" stroke-width="1px">20k</text><text x="238.66071428571428" y="0" dx="0em" dy="0.95em" style="text-anchor: middle; visibility: hidden; font-family: Roboto, sans-serif; font-size: 12px; font-weight: 200;" fill="rgb(50, 49, 63)" stroke="none" stroke-width="1px">22k</text><text x="258.54910714285717" y="0" dx="0em" dy="0.95em" style="text-anchor: middle; visibility: inherit; font-family: Roboto, sans-serif; font-size: 12px; font-weight: 200;" fill="rgb(50, 49, 63)" stroke="none" stroke-width="1px">24k</text><text x="278.4375" y="0" dx="0em" dy="0.95em" style="text-anchor: middle; visibility: hidden; font-family: Roboto, sans-serif; font-size: 12px; font-weight: 200;" fill="rgb(50, 49, 63)" stroke="none" stroke-width="1px">26k</text></g><line x1="0" y1="0" x2="278.4375" y2="0" fill="rgb(0, 0, 0)" stroke="rgb(204, 204, 204)" stroke-width="1px"></line></g></g></g></g></svg>