<svg viewBox="0 0 330 200" xmlns="http://www.w3.org/2000/svg"><g><g><g><g><g><line x1="61.953125" y1="178" x2="56.953125" y2="178" style="visibility: inherit;" fill="rgb(0, 0, 0)" stroke="rgb(204, 204, 204)" stroke-width="1px"></line><line x1="61.953125" y1="158.2222222222222" x2="56.953125" y2="158.2222222222222" style="visibility: inherit;" fill="rgb(0, 0, 0)" stroke="rgb(204, 204, 204)" stroke-width="1px"></line><line x1="61.953125" y1="138.44444444444446" x2="56.953125" y2="138.44444444444446" style="visibility: inherit;" fill="rgb(0, 0, 0)" stroke="rgb(204, 204, 204)" stroke-width="1px"></line><line x1="61.953125" y1="118.66666666666669" x2="56.953125" y2="118.66666666666669" style="visibility: inherit;" fill="rgb(0, 0, 0)" stroke="rgb(204, 204, 204)" stroke-width="1px"></line><line x1="61.953125" y1="98.8888888888889" x2="56.953125" y2="98.8888888888889" style="visibility: inherit;" fill="rgb(0, 0, 0)" stroke="rgb(204, 204, 204)" stroke-width="1px"></line><line x1="61.953125" y1="79.1111111111111" x2="56.953125" y2="79.1111111111111" style="visibility: inherit;" fill="rgb(0, 0, 0)" stroke="rgb(204, 204, 204)" stroke-width="1px"></line><line x1="61.953125" y1="59.33333333333334" x2="56.953125" y2="59.33333333333334" style="visibility: inherit;" fill="rgb(0, 0, 0)" stroke="rgb(204, 204, 204)" stroke-width="1px"></line><line x1="61.953125" y1="39.555555555555536" x2="56.953125" y2="39.555555555555536" style="visibility: inherit;" fill="rgb(0, 0, 0)" stroke="rgb(204, 204, 204)" stroke-width="1px"></line><line x1="61.953125" y1="19.777777777777768" x2="56.953125" y2="19.777777777777768" style="visibility: inherit;" fill="rgb(0, 0, 0)" stroke="rgb(204, 204, 204)" stroke-width="1px"></line><line x1="61.953125" y1="0" x2="56.953125" y2="0" style="visibility: inherit;" fill="rgb(0, 0, 0)" stroke="rgb(204, 204, 204)" stroke-width="1px"></line></g><g transform="translate(51.953125, 0)"><text x="0" y="178" dx="0em" dy="0.3em" style="text-anchor: end; visibility: hidden; font-family: Roboto, sans-serif; font-size: 12px; font-weight: 200;" fill="rgb(50, 49, 63)" stroke="none" stroke-width="1px">0</text><text x="0" y="158.2222222222222" dx="0em" dy="0.3em" style="text-anchor: end; visibility: inherit; font-family: Roboto, sans-serif; font-size: 12px; font-weight: 200;" fill="rgb(50, 49, 63)" stroke="none" stroke-width="1px">5e-3</text><text x="0" y="138.44444444444446" dx="0em" dy="0.3em" style="text-anchor: end; visibility: hidden; font-family: Roboto, sans-serif; font-size: 12px; font-weight: 200;" fill="rgb(50, 49, 63)" stroke="none" stroke-width="1px">0.01</text><text x="0" y="118.66666666666669" dx="0em" dy="0.3em" style="text-anchor: end; visibility: inherit; font-family: Roboto, sans-serif; font-size: 12px; font-weight: 200;" fill="rgb(50, 49, 63)" stroke="none" stroke-width="1px">0.015</text><text x="0" y="98.8888888888889" dx="0em" dy="0.3em" style="text-anchor: end; visibility: hidden; font-family: Roboto, sans-serif; font-size: 12px; font-weight: 200;" fill="rgb(50, 49, 63)" stroke="none" stroke-width="1px">0.02</text><text x="0" y="79.1111111111111" dx="0em" dy="0.3em" style="text-anchor: end; visibility: inherit; font-family: Roboto, sans-serif; font-size: 12px; font-weight: 200;" fill="rgb(50, 49, 63)" stroke="none" stroke-width="1px">0.025</text><text x="0" y="59.33333333333334" dx="0em" dy="0.3em" style="text-anchor: end; visibility: hidden; font-family: Roboto, sans-serif; font-size: 12px; font-weight: 200;" fill="rgb(50, 49, 63)" stroke="none" stroke-width="1px">0.03</text><text x="0" y="39.555555555555536" dx="0em" dy="0.3em" style="text-anchor: end; visibility: inherit; font-family: Roboto, sans-serif; font-size: 12px; font-weight: 200;" fill="rgb(50, 49, 63)" stroke="none" stroke-width="1px">0.035</text><text x="0" y="19.777777777777768" dx="0em" dy="0.3em" style="text-anchor: end; visibility: hidden; font-family: Roboto, sans-serif; font-size: 12px; font-weight: 200;" fill="rgb(50, 49, 63)" stroke="none" stroke-width="1px">0.04</text><text x="0" y="0" dx="0em" dy="0.3em" style="text-anchor: end; visibility: hidden; font-family: Roboto, sans-serif; font-size: 12px; font-weight: 200;" fill="rgb(50, 49, 63)" stroke="none" stroke-width="1px">0.045</text></g><line x1="61.953125" y1="0" x2="61.953125" y2="178" fill="rgb(0, 0, 0)" stroke="rgb(204, 204, 204)" stroke-width="1px"></line></g></g><g transform="translate(61, 0)" clip-path="url(#clip_0)"><clipPath id="clip_0"><rect width="268" height="178"></rect></clipPath><g><g><g><line x1="0" y1="0" x2="0" y2="178" fill="rgb(0, 0, 0)" stroke="rgb(60, 60, 60)" stroke-width="1px" opacity="0.25"></line><line x1="19.146205357142858" y1="0" x2="19.146205357142858" y2="178" fill="rgb(0, 0, 0)" stroke="rgb(60, 60, 60)" stroke-width="1px" opacity="0.25"></line><line x1="38.292410714285715" y1="0" x2="38.292410714285715" y2="178" fill="rgb(0, 0, 0)" stroke="rgb(60, 60, 60)" stroke-width="1px" opacity="0.25"></line><line x1="57.43861607142857" y1="0" x2="57.43861607142857" y2="178" fill="rgb(0, 0, 0)" stroke="rgb(60, 60, 60)" stroke-width="1px" opacity="0.25"></line><line x1="76.58482142857143" y1="0" x2="76.58482142857143" y2="178" fill="rgb(0, 0, 0)" stroke="rgb(60, 60, 60)" stroke-width="1px" opacity="0.25"></line><line x1="95.73102678571429" y1="0" x2="95.73102678571429" y2="178" fill="rgb(0, 0, 0)" stroke="rgb(60, 60, 60)" stroke-width="1px" opacity="0.25"></line><line x1="114.87723214285714" y1="0" x2="114.87723214285714" y2="178" fill="rgb(0, 0, 0)" stroke="rgb(60, 60, 60)" stroke-width="1px" opacity="0.25"></line><line x1="134.0234375" y1="0" x2="134.0234375" y2="178" fill="rgb(0, 0, 0)" stroke="rgb(60, 60, 60)" stroke-width="1px" opacity="0.25"></line><line x1="153.16964285714286" y1="0" x2="153.16964285714286" y2="178" fill="rgb(0, 0, 0)" stroke="rgb(60, 60, 60)" stroke-width="1px" opacity="0.25"></line><line x1="172.31584821428572" y1="0" x2="172.31584821428572" y2="178" fill="rgb(0, 0, 0)" stroke="rgb(60, 60, 60)" stroke-width="1px" opacity="0.25"></line><line x1="191.46205357142858" y1="0" x2="191.46205357142858" y2="178" fill="rgb(0, 0, 0)" stroke="rgb(60, 60, 60)" stroke-width="1px" opacity="0.25"></line><line x1="210.60825892857142" y1="0" x2="210.60825892857142" y2="178" fill="rgb(0, 0, 0)" stroke="rgb(60, 60, 60)" stroke-width="1px" opacity="0.25"></line><line x1="229.75446428571428" y1="0" x2="229.75446428571428" y2="178" fill="rgb(0, 0, 0)" stroke="rgb(60, 60, 60)" stroke-width="1px" opacity="0.25"></line><line x1="248.90066964285714" y1="0" x2="248.90066964285714" y2="178" fill="rgb(0, 0, 0)" stroke="rgb(60, 60, 60)" stroke-width="1px" opacity="0.25"></line><line x1="268.046875" y1="0" x2="268.046875" y2="178" fill="rgb(0, 0, 0)" stroke="rgb(60, 60, 60)" stroke-width="1px" opacity="0.25"></line></g><g><line x1="0" y1="178" x2="268.046875" y2="178" fill="rgb(0, 0, 0)" stroke="rgb(60, 60, 60)" stroke-width="1px" opacity="0.25"></line><line x1="0" y1="158.2222222222222" x2="268.046875" y2="158.2222222222222" fill="rgb(0, 0, 0)" stroke="rgb(60, 60, 60)" stroke-width="1px" opacity="0.25"></line><line x1="0" y1="138.44444444444446" x2="268.046875" y2="138.44444444444446" fill="rgb(0, 0, 0)" stroke="rgb(60, 60, 60)" stroke-width="1px" opacity="0.25"></line><line x1="0" y1="118.66666666666669" x2="268.046875" y2="118.66666666666669" fill="rgb(0, 0, 0)" stroke="rgb(60, 60, 60)" stroke-width="1px" opacity="0.25"></line><line x1="0" y1="98.8888888888889" x2="268.046875" y2="98.8888888888889" fill="rgb(0, 0, 0)" stroke="rgb(60, 60, 60)" stroke-width="1px" opacity="0.25"></line><line x1="0" y1="79.1111111111111" x2="268.046875" y2="79.1111111111111" fill="rgb(0, 0, 0)" stroke="rgb(60, 60, 60)" stroke-width="1px" opacity="0.25"></line><line x1="0" y1="59.33333333333334" x2="268.046875" y2="59.33333333333334" fill="rgb(0, 0, 0)" stroke="rgb(60, 60, 60)" stroke-width="1px" opacity="0.25"></line><line x1="0" y1="39.555555555555536" x2="268.046875" y2="39.555555555555536" fill="rgb(0, 0, 0)" stroke="rgb(60, 60, 60)" stroke-width="1px" opacity="0.25"></line><line x1="0" y1="19.777777777777768" x2="268.046875" y2="19.777777777777768" fill="rgb(0, 0, 0)" stroke="rgb(60, 60, 60)" stroke-width="1px" opacity="0.25"></line><line x1="0" y1="0" x2="268.046875" y2="0" fill="rgb(0, 0, 0)" stroke="rgb(60, 60, 60)" stroke-width="1px" opacity="0.25"></line></g></g></g><g><g><line x1="0" y1="178" x2="268.046875" y2="178" fill="rgb(0, 0, 0)" stroke="rgb(153, 153, 153)" stroke-width="1.5px"></line></g></g><g><g><line x1="19.146205357142858" y1="0" x2="19.146205357142858" y2="178" fill="rgb(0, 0, 0)" stroke="rgb(153, 153, 153)" stroke-width="1.5px"></line></g></g><g><g><g><g><g><path stroke="rgb(255, 112, 67)" stroke-width="2px" d="M25.847377232142858,-11.648712359752192L26.8046875,2.2775557705810554L27.761997767857146,3.585231426145974L28.719308035714285,3.296310721529733L29.676618303571427,15.111935572951399L30.63392857142857,25.726605334398208L31.591238839285715,18.80736786305967L32.548549107142854,15.932697064434478L33.505859375,18.41631977388629L34.46316964285714,17.107949126582902L35.420479910714285,24.750653049447532L36.37779017857142,15.334129126496546L37.33510044642857,7.683119240285537L38.292410714285715,6.563592667811377L39.24972098214286,18.474422371822023L40.20703125,24.653591091878894L41.164341517857146,25.030866246793558L42.121651785714285,41.687411033046864L43.07896205357143,40.645389196656645L44.03627232142857,36.748313947224005L44.99358258928571,42.309276209091756L45.950892857142854,47.14754396656084L46.908203125,43.25656689103011L47.865513392857146,48.82941788796926L48.822823660714285,54.20850315730486L49.78013392857143,61.77098187510062L50.73744419642857,60.6507604308933L51.694754464285715,64.29989434289072L52.652064732142854,65.5203741887738L53.609375,67.92724622435223L54.566685267857146,64.52300226160912L55.52399553571429,70.57400097979799L56.48130580357143,72.33929577599424L57.43861607142857,66.08931956579866L58.395926339285715,70.94448422328716L59.353236607142854,72.6225278731897L60.310546875,76.58996096550267L61.26785714285714,66.24402565870021L62.225167410714285,68.84269475008874L63.18247767857143,67.24630844027007L64.13978794642857,73.757663144053L65.09709821428571,73.51498972450489L66.05440848214286,67.5847217861708L67.01171875,75.13098365850425L67.96902901785714,59.14298410729809L68.92633928571428,43.24667913614453L69.88364955357143,57.8809805081446L70.84095982142857,60.241073108925406L71.79827008928571,67.3322363971051L72.75558035714285,68.36250743030602L73.712890625,69.90571600929388L74.67020089285714,65.6822061050809L75.62751116071429,58.82206382916429L76.58482142857143,67.57840271139759L77.54213169642858,76.58432140802995L78.49944196428572,80.07713758230744L79.45675223214286,86.0015232133146L80.4140625,90.71440085523218L81.37137276785714,100.13674367245162L82.32868303571429,100.38637670591189L83.28599330357143,102.69256727090857L84.24330357142857,102.46212047654551L85.20061383928571,103.05265428663452L86.15792410714286,102.14307614279693L87.115234375,93.4135055902417L88.07254464285714,92.8433074232753L89.02985491071428,98.19696578692077L89.98716517857142,105.81229757817148L90.94447544642857,108.83759843713788L91.90178571428571,106.14298854183687L92.85909598214286,105.37001134198371L93.81640625,104.2284169342843L94.77371651785715,94.54286614437181L95.73102678571429,90.35242122402207L96.68833705357143,96.79031083035319L97.64564732142857,97.2034400959229L98.60295758928572,96.39567142357035L99.56026785714286,101.79525028922774L100.517578125,103.35940735578193L101.47488839285714,101.39111426145215L102.43219866071428,101.98768974328537L103.38950892857143,100.04946284088321L104.34681919642857,106.04072835928173L105.30412946428571,106.10192687641761L106.26143973214285,110.83159464597081L107.21875,111.208194029857L108.17606026785714,113.7789326033507L109.13337053571429,115.50658113736785L110.09068080357143,118.85142732289597L111.04799107142858,124.15245216303595L112.00530133928572,121.6597049751955L112.96261160714286,123.58937103611218L113.919921875,123.02532032718369L114.87723214285714,128.61624744674023L115.83454241071429,125.45049881034888L116.79185267857143,126.66257876235042L117.74916294642857,123.92302445442672L118.70647321428571,126.0606470659062L119.66378348214286,105.0667624285895L120.62109375,90.32887133367578L121.57840401785714,88.53374022403699L122.53571428571428,86.49556961680662L123.49302455357142,95.11918519571194L124.45033482142857,101.46104812227627L125.40764508928571,108.69912202668777L126.36495535714286,113.10496348529428L127.322265625,117.26369999722996L128.27957589285714,122.20674952163971L129.23688616071428,126.36791988823721L130.19419642857142,130.14956524147672L131.15150669642856,130.96915310453227L132.10881696428572,128.00807504269298L133.06612723214286,132.73358418292938L134.0234375,133.89282718826536L134.98074776785714,134.39923547905414L135.93805803571428,134.14466915451902L136.89536830357142,136.58445897972936L137.85267857142856,131.47194412925782L138.80998883928572,134.17454190101955L139.76729910714286,134.93602457030715L140.724609375,135.60038843507672L141.68191964285714,126.47948728298279L142.63922991071428,128.6304592700625L143.59654017857142,130.83882155325654L144.55385044642856,129.2136866694438L145.5111607142857,133.28718644321324L146.46847098214283,136.7836772147645L147.42578125,139.69106967563852L148.38309151785714,140.3651486301688L149.34040178571428,141.23964032181914L150.29771205357142,144.2204549394454L151.25502232142858,143.49006940666598L152.21233258928572,142.52965331200784L153.16964285714286,140.42310278687484L154.126953125,143.3770754334009L155.08426339285717,144.27257578570914L156.0415736607143,140.66030507953423L156.99888392857144,131.17333654060195L157.95619419642858,130.30721848336566L158.91350446428572,129.85624061633825L159.87081473214286,133.78418452771774L160.828125,135.51748743867353L161.78543526785714,131.71892074577326L162.74274553571428,134.2062994621387L163.70005580357144,139.04280572441715L164.65736607142858,142.25403666350027L165.61467633928572,142.83790978873904L166.57198660714286,145.38393880840812L167.529296875,148.17734602395035L168.48660714285714,147.63193451906923L169.44391741071428,148.80377581165223L170.40122767857142,148.44449313064234L171.35853794642856,149.53124255442006L172.31584821428572,151.49751178578384L173.27315848214286,147.49093139911975L174.23046875,150.18670224857158L175.18777901785714,152.46989982455568L176.14508928571428,153.0079792125267L177.10239955357142,154.70062741860403L178.05970982142856,150.39142104206294L179.0170200892857,151.21557497280887L179.97433035714283,152.08192561436113L180.931640625,150.1120983276576L181.88895089285714,151.8408795796376L182.84626116071428,154.2116060503083L183.80357142857142,154.7984039814007L184.76088169642858,156.0003200365104L185.71819196428572,156.5471977179968L186.67550223214286,156.3177107139738L187.6328125,155.93981824144865L188.59012276785717,157.5112490091646L189.5474330357143,156.89276239661768L190.50474330357144,157.9617785786354L191.46205357142858,159.17461236645354L192.41936383928572,158.70797061973016L193.37667410714286,158.34519583804988L194.333984375,158.8910226927805L195.29129464285714,159.13158600429523L196.24860491071428,159.88476329578432L197.20591517857144,161.46403402444625L198.16322544642858,161.13997327215344L199.12053571428572,158.1954665544456L200.07784598214286,156.53359488244277L201.03515625,158.55404239811165L201.99246651785714,159.9399079265337L202.94977678571428,161.8794968134608L203.90708705357142,162.09918293905218L204.86439732142856,160.58390330232507L205.82170758928572,161.01125958562145L206.77901785714286,162.16394414385343L207.736328125,162.60961255774424L208.69363839285714,163.8060672988733L209.65094866071428,164.17936821931127L210.60825892857142,164.5670530809517L211.56556919642856,165.5984460006772L212.5228794642857,165.47561385882764L213.48018973214283,165.84159266610013L214.4375,165.75381114962047L215.39481026785714,165.74913689719767L216.35212053571428,161.1152651840414L217.30943080357142,162.83778479453625L218.26674107142858,163.65208293409134L219.22405133928572,164.94448337283836L220.18136160714286,165.42505837351118L221.138671875,166.3925151865943L222.09598214285717,167.30930708501407L223.0532924107143,165.49724086359802L224.01060267857144,165.94838414959776L224.96791294642858,166.692400939146L225.92522321428572,164.8064357446017L226.88253348214286,165.93379363117765L227.83984375,165.0743014859831L228.79715401785714,165.628168653621L229.75446428571428,165.62292700274116L230.71177455357144,166.84354188565328L231.66908482142858,167.64154400592835L232.62639508928572,166.9876468157306L233.58370535714286,168.07692962645802L234.541015625,168.7400143743316L235.49832589285714,169.05343031502085L236.45563616071428,169.24153477152063L237.41294642857142,168.93600370602516L238.37025669642856,169.68616942205855L239.32756696428572,169.0977750684747L240.28487723214286,169.1639485509645L241.2421875,169.54640583241115L242.19949776785714,169.77752125804457L243.15680803571428,169.44757260227226L244.11411830357142,170.01598686501669L245.07142857142856,168.81288585621925L246.0287388392857,168.82784466920717L246.98604910714283,166.7455074633752L247.943359375,167.90656450380774" style="fill: none;" fill="none"></path></g></g></g></g><g opacity="0.2"><g><g><g><path stroke="rgb(255, 112, 67)" stroke-width="2px" d="M23.932756696428573,-43.36638495657181L24.890066964285715,11.137802282969151L25.847377232142858,41.68201888269848L26.8046875,37.64362654421064L27.761997767857146,7.0288706620534125L28.719308035714285,2.515284929010601L29.676618303571427,47.6665851606263L30.63392857142857,55.3827604121632L31.591238839285715,-0.7232152289814375L32.548549107142854,7.756985770331478L33.505859375,25.519416610399876L34.46316964285714,13.350543095005875L35.420479910714285,46.766490949524766L36.37779017857142,-11.853185249699479L37.33510044642857,-14.44414452049469L38.292410714285715,3.321778655052185L39.24972098214286,52.99678797192043L40.20703125,42.57571784655252L41.164341517857146,26.125683102342816L42.121651785714285,90.04165551397536L43.07896205357143,37.619519114494324L44.03627232142857,25.429411609967538L44.99358258928571,58.46342026856211L45.950892857142854,61.20396790901819L46.908203125,31.95128180583317L47.865513392857146,65.02246099710464L48.822823660714285,69.83927575747171L49.78013392857143,83.7471407784356L50.73744419642857,57.395369771454064L51.694754464285715,74.90457681814829L52.652064732142854,69.06724121504361L53.609375,74.92199428876239L54.566685267857146,54.62965373860464L55.52399553571429,88.15940457582474L56.48130580357143,77.4696161813206L57.43861607142857,47.925504260592994L58.395926339285715,85.05470359987682L59.353236607142854,77.4993157684803L60.310546875,88.12026684151755L61.26785714285714,36.17624148395327L62.225167410714285,76.39505992001956L63.18247767857143,62.60681844088766L64.13978794642857,92.6812643441889L65.09709821428571,72.80972074800069L66.05440848214286,50.34989239109886L67.01171875,97.06229605277377L67.96902901785714,12.677878022193909L68.92633928571428,-2.951944159136887L69.88364955357143,100.41190994779268L70.84095982142857,67.10009115934372L71.79827008928571,87.94092731012238L72.75558035714285,71.35673236184651L73.712890625,74.39066565367911L74.67020089285714,53.40763103299671L75.62751116071429,38.8847760491901L76.58482142857143,93.02651191420024L77.54213169642858,102.7577721046077L78.49944196428572,90.22813444005119L79.45675223214286,103.21926876571442L80.4140625,104.41120139095518L81.37137276785714,127.5204273197386L82.32868303571429,101.11187270614836L83.28599330357143,109.39493357804086L84.24330357142857,101.79238448209232L85.20061383928571,104.76889316903221L86.15792410714286,99.49961466590563L87.115234375,68.04319119784567L88.07254464285714,91.18616900179121L89.02985491071428,113.75603539745012L89.98716517857142,127.94435558716455L90.94447544642857,117.62987905575169L91.90178571428571,98.31177853544551L92.85909598214286,103.12354635530049L93.81640625,100.91065818733638L94.77371651785715,66.39423416389359L95.73102678571429,78.17394067512618L96.68833705357143,115.5004274977578L97.64564732142857,98.40409702393744L98.60295758928572,94.04809371961487L99.56026785714286,117.48777636720074L100.517578125,107.90523883038098L101.47488839285714,95.67076245612567L102.43219866071428,103.72148723734749L103.38950892857143,94.41649090581471L104.34681919642857,123.45284377204048L105.30412946428571,106.27978506684303L106.26143973214285,124.57719160119692L107.21875,112.30268598927391L108.17606026785714,121.25014158255523L109.13337053571429,120.52755968934959L110.09068080357143,128.5723865495788L111.04799107142858,139.55855560468305L112.00530133928572,114.41515846053758L112.96261160714286,129.19746302564937L113.919921875,121.38604795436063L114.87723214285714,144.86487938794824L115.83454241071429,116.2500418358379L116.79185267857143,130.18518612285453L117.74916294642857,115.96119474702412L118.70647321428571,132.273112780518L119.66378348214286,44.05328520139057L120.62109375,47.496875339084205L121.57840401785714,83.31664043664932L122.53571428571428,80.57213628954356L123.49302455357142,120.18156797190505L124.45033482142857,119.89208725260364L125.40764508928571,129.73477431138355L126.36495535714286,125.90944022436935L127.322265625,129.350027985043L128.27957589285714,136.5724872019556L129.23688616071428,138.4613212661611L130.19419642857142,141.139972049329L131.15150669642856,133.35108033153745L132.10881696428572,119.40244192547267L133.06612723214286,146.4670951217413L134.0234375,137.26187717252307L134.98074776785714,135.87098457415897L135.93805803571428,133.40483577383887L136.89536830357142,143.67509815924697L137.85267857142856,116.61369784507487L138.80998883928572,142.02896667520204L139.76729910714286,137.1490835779243L140.724609375,137.5311959170633L141.68191964285714,99.97186830970976L142.63922991071428,134.8817216075129L143.59654017857142,137.25687443878917L144.55385044642856,124.49063841336304L145.5111607142857,145.12579516073066L146.46847098214283,146.9453535195854L147.42578125,148.14067901505362L148.38309151785714,142.32419059177238L149.34040178571428,143.78113180067805L150.29771205357142,152.8834474219216L151.25502232142858,141.36738645202584L152.21233258928572,139.73844403690762L153.16964285714286,134.3009403232071L154.126953125,151.96205843736726L155.08426339285717,146.87512368460494L156.0415736607143,130.1621433397134L156.99888392857144,103.60183422433006L157.95619419642858,127.79006287952262L158.91350446428572,128.54558619028992L159.87081473214286,145.1997715201643L160.828125,140.55489902363885L161.78543526785714,120.67933629453182L162.74274553571428,141.43524385657577L163.70005580357144,153.09890204916397L164.65736607142858,151.5866765802105L165.61467633928572,144.5347910589642L166.57198660714286,152.78333564682137L167.529296875,156.29568574412L168.48660714285714,146.04683233300844L169.44391741071428,152.20943956822157L170.40122767857142,147.4003278389573L171.35853794642856,152.6896080672741L172.31584821428572,157.21198173943492L173.27315848214286,135.84680715037715L174.23046875,158.02128627979093L175.18777901785714,159.10544277975956L176.14508928571428,154.5717724338174L177.10239955357142,159.61988626751634L178.05970982142856,137.86779001024036L179.0170200892857,153.6107723340392L179.97433035714283,154.59975716637243L180.931640625,144.38728777567545L181.88895089285714,156.86515009320445L182.84626116071428,161.10152985569505L183.80357142857142,156.50378546863794L184.76088169642858,159.49338857167297L185.71819196428572,158.13656097981664L186.67550223214286,155.650764108532L187.6328125,154.84156824317245L188.59012276785717,162.078219677839L189.5474330357143,155.09528567890325L190.50474330357144,161.06860685762433L191.46205357142858,162.69941056230002L192.41936383928572,157.3517930433154L193.37667410714286,157.29088162879148L194.333984375,160.4773319893413L195.29129464285714,159.83072312838502L196.24860491071428,162.07368479917446L197.20591517857144,166.05378957961997L198.16322544642858,160.19817171080243L199.12053571428572,149.63799390610723L200.07784598214286,151.7037803356846L201.03515625,164.42596799052424L201.99246651785714,163.96757961851029L202.94977678571428,167.51642701609265L203.90708705357142,162.73764574155211L204.86439732142856,156.18012185808686L205.82170758928572,162.2532637839516L206.77901785714286,165.51393364121517L207.736328125,163.90483638561435L208.69363839285714,167.28326389027964L209.65094866071428,165.26427401933404L210.60825892857142,165.69376221009426L211.56556919642856,168.5959316736294L212.5228794642857,165.11863294657735L213.48018973214283,166.90521857473584L214.4375,165.49869611735144L215.39481026785714,165.73555235109396L216.35212053571428,147.64807551768092L217.30943080357142,167.84385741253695L218.26674107142858,166.01863690217337L219.22405133928572,168.70052214794688L220.18136160714286,166.82172946921654L221.138671875,169.20418654961716L222.09598214285717,169.97373353979654L223.0532924107143,160.2309234076076L224.01060267857144,167.25951932453447L224.96791294642858,168.85469973377056L225.92522321428572,159.32534939795732L226.88253348214286,169.21017748903898L227.83984375,162.57640243901145L228.79715401785714,167.23784510956872L229.75446428571428,165.60769345487157L230.71177455357144,170.39095388911664L231.66908482142858,169.9607376679778L232.62639508928572,165.08725810671845L233.58370535714286,171.2426577951345L234.541015625,170.66710442283917L235.49832589285714,169.96429539264906L236.45563616071428,169.78821334822308L237.41294642857142,168.04805404692888L238.37025669642856,171.86633853428066L239.32756696428572,167.38775397837162L240.28487723214286,169.3562652344505L241.2421875,170.65792230661543L242.19949776785714,170.4492004637917L243.15680803571428,168.48865932143397L244.11411830357142,171.66794081611764L245.07142857142856,165.31637354940176L246.0287388392857,168.87131871945328L246.98604910714283,160.69371495892605L247.943359375,171.2808865275648" style="fill: none;" fill="none"></path></g></g></g></g></g></g><g transform="translate(61, 178)" clip-path="url(#clip_1)"><clipPath id="clip_1"><rect width="268" height="22"></rect></clipPath><g><g><line x1="0" y1="0" x2="0" y2="5" style="visibility: inherit;" fill="rgb(0, 0, 0)" stroke="rgb(204, 204, 204)" stroke-width="1px"></line><line x1="19.146205357142858" y1="0" x2="19.146205357142858" y2="5" style="visibility: inherit;" fill="rgb(0, 0, 0)" stroke="rgb(204, 204, 204)" stroke-width="1px"></line><line x1="38.292410714285715" y1="0" x2="38.292410714285715" y2="5" style="visibility: inherit;" fill="rgb(0, 0, 0)" stroke="rgb(204, 204, 204)" stroke-width="1px"></line><line x1="57.43861607142857" y1="0" x2="57.43861607142857" y2="5" style="visibility: inherit;" fill="rgb(0, 0, 0)" stroke="rgb(204, 204, 204)" stroke-width="1px"></line><line x1="76.58482142857143" y1="0" x2="76.58482142857143" y2="5" style="visibility: inherit;" fill="rgb(0, 0, 0)" stroke="rgb(204, 204, 204)" stroke-width="1px"></line><line x1="95.73102678571429" y1="0" x2="95.73102678571429" y2="5" style="visibility: inherit;" fill="rgb(0, 0, 0)" stroke="rgb(204, 204, 204)" stroke-width="1px"></line><line x1="114.87723214285714" y1="0" x2="114.87723214285714" y2="5" style="visibility: inherit;" fill="rgb(0, 0, 0)" stroke="rgb(204, 204, 204)" stroke-width="1px"></line><line x1="134.0234375" y1="0" x2="134.0234375" y2="5" style="visibility: inherit;" fill="rgb(0, 0, 0)" stroke="rgb(204, 204, 204)" stroke-width="1px"></line><line x1="153.16964285714286" y1="0" x2="153.16964285714286" y2="5" style="visibility: inherit;" fill="rgb(0, 0, 0)" stroke="rgb(204, 204, 204)" stroke-width="1px"></line><line x1="172.31584821428572" y1="0" x2="172.31584821428572" y2="5" style="visibility: inherit;" fill="rgb(0, 0, 0)" stroke="rgb(204, 204, 204)" stroke-width="1px"></line><line x1="191.46205357142858" y1="0" x2="191.46205357142858" y2="5" style="visibility: inherit;" fill="rgb(0, 0, 0)" stroke="rgb(204, 204, 204)" stroke-width="1px"></line><line x1="210.60825892857142" y1="0" x2="210.60825892857142" y2="5" style="visibility: inherit;" fill="rgb(0, 0, 0)" stroke="rgb(204, 204, 204)" stroke-width="1px"></line><line x1="229.75446428571428" y1="0" x2="229.75446428571428" y2="5" style="visibility: inherit;" fill="rgb(0, 0, 0)" stroke="rgb(204, 204, 204)" stroke-width="1px"></line><line x1="248.90066964285714" y1="0" x2="248.90066964285714" y2="5" style="visibility: inherit;" fill="rgb(0, 0, 0)" stroke="rgb(204, 204, 204)" stroke-width="1px"></line><line x1="268.046875" y1="0" x2="268.046875" y2="5" style="visibility: inherit;" fill="rgb(0, 0, 0)" stroke="rgb(204, 204, 204)" stroke-width="1px"></line></g><g transform="translate(0, 8)"><text x="0" y="0" dx="0em" dy="0.95em" style="text-anchor: middle; visibility: hidden; font-family: Roboto, sans-serif; font-size: 12px; font-weight: 200;" fill="rgb(50, 49, 63)" stroke="none" stroke-width="1px">-2k</text><text x="19.146205357142858" y="0" dx="0em" dy="0.95em" style="text-anchor: middle; visibility: inherit; font-family: Roboto, sans-serif; font-size: 12px; font-weight: 200;" fill="rgb(50, 49, 63)" stroke="none" stroke-width="1px">0</text><text x="38.292410714285715" y="0" dx="0em" dy="0.95em" style="text-anchor: middle; visibility: hidden; font-family: Roboto, sans-serif; font-size: 12px; font-weight: 200;" fill="rgb(50, 49, 63)" stroke="none" stroke-width="1px">2k</text><text x="57.43861607142857" y="0" dx="0em" dy="0.95em" style="text-anchor: middle; visibility: inherit; font-family: Roboto, sans-serif; font-size: 12px; font-weight: 200;" fill="rgb(50, 49, 63)" stroke="none" stroke-width="1px">4k</text><text x="76.58482142857143" y="0" dx="0em" dy="0.95em" style="text-anchor: middle; visibility: hidden; font-family: Roboto, sans-serif; font-size: 12px; font-weight: 200;" fill="rgb(50, 49, 63)" stroke="none" stroke-width="1px">6k</text><text x="95.73102678571429" y="0" dx="0em" dy="0.95em" style="text-anchor: middle; visibility: inherit; font-family: Roboto, sans-serif; font-size: 12px; font-weight: 200;" fill="rgb(50, 49, 63)" stroke="none" stroke-width="1px">8k</text><text x="114.87723214285714" y="0" dx="0em" dy="0.95em" style="text-anchor: middle; visibility: hidden; font-family: Roboto, sans-serif; font-size: 12px; font-weight: 200;" fill="rgb(50, 49, 63)" stroke="none" stroke-width="1px">10k</text><text x="134.0234375" y="0" dx="0em" dy="0.95em" style="text-anchor: middle; visibility: inherit; font-family: Roboto, sans-serif; font-size: 12px; font-weight: 200;" fill="rgb(50, 49, 63)" stroke="none" stroke-width="1px">12k</text><text x="153.16964285714286" y="0" dx="0em" dy="0.95em" style="text-anchor: middle; visibility: hidden; font-family: Roboto, sans-serif; font-size: 12px; font-weight: 200;" fill="rgb(50, 49, 63)" stroke="none" stroke-width="1px">14k</text><text x="172.31584821428572" y="0" dx="0em" dy="0.95em" style="text-anchor: middle; visibility: inherit; font-family: Roboto, sans-serif; font-size: 12px; font-weight: 200;" fill="rgb(50, 49, 63)" stroke="none" stroke-width="1px">16k</text><text x="191.46205357142858" y="0" dx="0em" dy="0.95em" style="text-anchor: middle; visibility: hidden; font-family: Roboto, sans-serif; font-size: 12px; font-weight: 200;" fill="rgb(50, 49, 63)" stroke="none" stroke-width="1px">18k</text><text x="210.60825892857142" y="0" dx="0em" dy="0.95em" style="text-anchor: middle; visibility: inherit; font-family: Roboto, sans-serif; font-size: 12px; font-weight: 200;" fill="rgb(50, 49, 63)" stroke="none" stroke-width="1px">20k</text><text x="229.75446428571428" y="0" dx="0em" dy="0.95em" style="text-anchor: middle; visibility: hidden; font-family: Roboto, sans-serif; font-size: 12px; font-weight: 200;" fill="rgb(50, 49, 63)" stroke="none" stroke-width="1px">22k</text><text x="248.90066964285714" y="0" dx="0em" dy="0.95em" style="text-anchor: middle; visibility: inherit; font-family: Roboto, sans-serif; font-size: 12px; font-weight: 200;" fill="rgb(50, 49, 63)" stroke="none" stroke-width="1px">24k</text><text x="268.046875" y="0" dx="0em" dy="0.95em" style="text-anchor: middle; visibility: hidden; font-family: Roboto, sans-serif; font-size: 12px; font-weight: 200;" fill="rgb(50, 49, 63)" stroke="none" stroke-width="1px">26k</text></g><line x1="0" y1="0" x2="268.046875" y2="0" fill="rgb(0, 0, 0)" stroke="rgb(204, 204, 204)" stroke-width="1px"></line></g></g></g></g></svg>