<svg viewBox="0 0 330 200" xmlns="http://www.w3.org/2000/svg"><g><g><g><g><g><line x1="61.953125" y1="178" x2="56.953125" y2="178" style="visibility: inherit;" fill="rgb(0, 0, 0)" stroke="rgb(204, 204, 204)" stroke-width="1px"></line><line x1="61.953125" y1="155.75" x2="56.953125" y2="155.75" style="visibility: inherit;" fill="rgb(0, 0, 0)" stroke="rgb(204, 204, 204)" stroke-width="1px"></line><line x1="61.953125" y1="133.5" x2="56.953125" y2="133.5" style="visibility: inherit;" fill="rgb(0, 0, 0)" stroke="rgb(204, 204, 204)" stroke-width="1px"></line><line x1="61.953125" y1="111.25000000000247" x2="56.953125" y2="111.25000000000247" style="visibility: inherit;" fill="rgb(0, 0, 0)" stroke="rgb(204, 204, 204)" stroke-width="1px"></line><line x1="61.953125" y1="89" x2="56.953125" y2="89" style="visibility: inherit;" fill="rgb(0, 0, 0)" stroke="rgb(204, 204, 204)" stroke-width="1px"></line><line x1="61.953125" y1="66.75000000000247" x2="56.953125" y2="66.75000000000247" style="visibility: inherit;" fill="rgb(0, 0, 0)" stroke="rgb(204, 204, 204)" stroke-width="1px"></line><line x1="61.953125" y1="44.5" x2="56.953125" y2="44.5" style="visibility: inherit;" fill="rgb(0, 0, 0)" stroke="rgb(204, 204, 204)" stroke-width="1px"></line><line x1="61.953125" y1="22.25000000000247" x2="56.953125" y2="22.25000000000247" style="visibility: inherit;" fill="rgb(0, 0, 0)" stroke="rgb(204, 204, 204)" stroke-width="1px"></line><line x1="61.953125" y1="0" x2="56.953125" y2="0" style="visibility: inherit;" fill="rgb(0, 0, 0)" stroke="rgb(204, 204, 204)" stroke-width="1px"></line></g><g transform="translate(51.953125, 0)"><text x="0" y="178" dx="0em" dy="0.3em" style="text-anchor: end; visibility: hidden; font-family: Roboto, sans-serif; font-size: 12px; font-weight: 200;" fill="rgb(50, 49, 63)" stroke="none" stroke-width="1px">0.998</text><text x="0" y="155.75" dx="0em" dy="0.3em" style="text-anchor: end; visibility: inherit; font-family: Roboto, sans-serif; font-size: 12px; font-weight: 200;" fill="rgb(50, 49, 63)" stroke="none" stroke-width="1px">0.999</text><text x="0" y="133.5" dx="0em" dy="0.3em" style="text-anchor: end; visibility: hidden; font-family: Roboto, sans-serif; font-size: 12px; font-weight: 200;" fill="rgb(50, 49, 63)" stroke="none" stroke-width="1px">1</text><text x="0" y="111.25000000000247" dx="0em" dy="0.3em" style="text-anchor: end; visibility: inherit; font-family: Roboto, sans-serif; font-size: 12px; font-weight: 200;" fill="rgb(50, 49, 63)" stroke="none" stroke-width="1px">1</text><text x="0" y="89" dx="0em" dy="0.3em" style="text-anchor: end; visibility: hidden; font-family: Roboto, sans-serif; font-size: 12px; font-weight: 200;" fill="rgb(50, 49, 63)" stroke="none" stroke-width="1px">1</text><text x="0" y="66.75000000000247" dx="0em" dy="0.3em" style="text-anchor: end; visibility: inherit; font-family: Roboto, sans-serif; font-size: 12px; font-weight: 200;" fill="rgb(50, 49, 63)" stroke="none" stroke-width="1px">1</text><text x="0" y="44.5" dx="0em" dy="0.3em" style="text-anchor: end; visibility: hidden; font-family: Roboto, sans-serif; font-size: 12px; font-weight: 200;" fill="rgb(50, 49, 63)" stroke="none" stroke-width="1px">1</text><text x="0" y="22.25000000000247" dx="0em" dy="0.3em" style="text-anchor: end; visibility: inherit; font-family: Roboto, sans-serif; font-size: 12px; font-weight: 200;" fill="rgb(50, 49, 63)" stroke="none" stroke-width="1px">1</text><text x="0" y="0" dx="0em" dy="0.3em" style="text-anchor: end; visibility: hidden; font-family: Roboto, sans-serif; font-size: 12px; font-weight: 200;" fill="rgb(50, 49, 63)" stroke="none" stroke-width="1px">1.01</text></g><line x1="61.953125" y1="0" x2="61.953125" y2="178" fill="rgb(0, 0, 0)" stroke="rgb(204, 204, 204)" stroke-width="1px"></line></g></g><g transform="translate(61, 0)" clip-path="url(#clip_0)"><clipPath id="clip_0"><rect width="268" height="178"></rect></clipPath><g><g><g><line x1="0" y1="0" x2="0" y2="178" fill="rgb(0, 0, 0)" stroke="rgb(60, 60, 60)" stroke-width="1px" opacity="0.25"></line><line x1="19.146205357142858" y1="0" x2="19.146205357142858" y2="178" fill="rgb(0, 0, 0)" stroke="rgb(60, 60, 60)" stroke-width="1px" opacity="0.25"></line><line x1="38.292410714285715" y1="0" x2="38.292410714285715" y2="178" fill="rgb(0, 0, 0)" stroke="rgb(60, 60, 60)" stroke-width="1px" opacity="0.25"></line><line x1="57.43861607142857" y1="0" x2="57.43861607142857" y2="178" fill="rgb(0, 0, 0)" stroke="rgb(60, 60, 60)" stroke-width="1px" opacity="0.25"></line><line x1="76.58482142857143" y1="0" x2="76.58482142857143" y2="178" fill="rgb(0, 0, 0)" stroke="rgb(60, 60, 60)" stroke-width="1px" opacity="0.25"></line><line x1="95.73102678571429" y1="0" x2="95.73102678571429" y2="178" fill="rgb(0, 0, 0)" stroke="rgb(60, 60, 60)" stroke-width="1px" opacity="0.25"></line><line x1="114.87723214285714" y1="0" x2="114.87723214285714" y2="178" fill="rgb(0, 0, 0)" stroke="rgb(60, 60, 60)" stroke-width="1px" opacity="0.25"></line><line x1="134.0234375" y1="0" x2="134.0234375" y2="178" fill="rgb(0, 0, 0)" stroke="rgb(60, 60, 60)" stroke-width="1px" opacity="0.25"></line><line x1="153.16964285714286" y1="0" x2="153.16964285714286" y2="178" fill="rgb(0, 0, 0)" stroke="rgb(60, 60, 60)" stroke-width="1px" opacity="0.25"></line><line x1="172.31584821428572" y1="0" x2="172.31584821428572" y2="178" fill="rgb(0, 0, 0)" stroke="rgb(60, 60, 60)" stroke-width="1px" opacity="0.25"></line><line x1="191.46205357142858" y1="0" x2="191.46205357142858" y2="178" fill="rgb(0, 0, 0)" stroke="rgb(60, 60, 60)" stroke-width="1px" opacity="0.25"></line><line x1="210.60825892857142" y1="0" x2="210.60825892857142" y2="178" fill="rgb(0, 0, 0)" stroke="rgb(60, 60, 60)" stroke-width="1px" opacity="0.25"></line><line x1="229.75446428571428" y1="0" x2="229.75446428571428" y2="178" fill="rgb(0, 0, 0)" stroke="rgb(60, 60, 60)" stroke-width="1px" opacity="0.25"></line><line x1="248.90066964285714" y1="0" x2="248.90066964285714" y2="178" fill="rgb(0, 0, 0)" stroke="rgb(60, 60, 60)" stroke-width="1px" opacity="0.25"></line><line x1="268.046875" y1="0" x2="268.046875" y2="178" fill="rgb(0, 0, 0)" stroke="rgb(60, 60, 60)" stroke-width="1px" opacity="0.25"></line></g><g><line x1="0" y1="178" x2="268.046875" y2="178" fill="rgb(0, 0, 0)" stroke="rgb(60, 60, 60)" stroke-width="1px" opacity="0.25"></line><line x1="0" y1="155.75" x2="268.046875" y2="155.75" fill="rgb(0, 0, 0)" stroke="rgb(60, 60, 60)" stroke-width="1px" opacity="0.25"></line><line x1="0" y1="133.5" x2="268.046875" y2="133.5" fill="rgb(0, 0, 0)" stroke="rgb(60, 60, 60)" stroke-width="1px" opacity="0.25"></line><line x1="0" y1="111.25000000000247" x2="268.046875" y2="111.25000000000247" fill="rgb(0, 0, 0)" stroke="rgb(60, 60, 60)" stroke-width="1px" opacity="0.25"></line><line x1="0" y1="89" x2="268.046875" y2="89" fill="rgb(0, 0, 0)" stroke="rgb(60, 60, 60)" stroke-width="1px" opacity="0.25"></line><line x1="0" y1="66.75000000000247" x2="268.046875" y2="66.75000000000247" fill="rgb(0, 0, 0)" stroke="rgb(60, 60, 60)" stroke-width="1px" opacity="0.25"></line><line x1="0" y1="44.5" x2="268.046875" y2="44.5" fill="rgb(0, 0, 0)" stroke="rgb(60, 60, 60)" stroke-width="1px" opacity="0.25"></line><line x1="0" y1="22.25000000000247" x2="268.046875" y2="22.25000000000247" fill="rgb(0, 0, 0)" stroke="rgb(60, 60, 60)" stroke-width="1px" opacity="0.25"></line><line x1="0" y1="0" x2="268.046875" y2="0" fill="rgb(0, 0, 0)" stroke="rgb(60, 60, 60)" stroke-width="1px" opacity="0.25"></line></g></g></g><g><g><line x1="0" y1="22383.499999999978" x2="268.046875" y2="22383.499999999978" fill="rgb(0, 0, 0)" stroke="rgb(153, 153, 153)" stroke-width="1.5px"></line></g></g><g><g><line x1="19.146205357142858" y1="0" x2="19.146205357142858" y2="178" fill="rgb(0, 0, 0)" stroke="rgb(153, 153, 153)" stroke-width="1.5px"></line></g></g><g><g><g><g><g><path stroke="rgb(255, 112, 67)" stroke-width="2px" d="M26.8046875,197.94059528805104L27.761997767857146,148.18037348318998L28.719308035714285,113.65077872405045L29.676618303571427,127.88780527654403L30.63392857142857,100.99790394821143L31.591238839285715,81.18096072353057L32.548549107142854,64.48504226573125L33.505859375,53.22993237922098L34.46316964285714,44.35101956728223L35.420479910714285,49.679297908052995L36.37779017857142,98.51115936816588L37.33510044642857,170.05965328529368L38.292410714285715,165.44204308787317L39.24972098214286,157.79748631753046L40.20703125,118.68911767659995L41.164341517857146,95.6271276877225L42.121651785714285,74.75569863738646L43.07896205357143,55.1183777787735L44.03627232142857,46.716548303550944L44.99358258928571,68.79328866901452L45.950892857142854,55.017632215136516L46.908203125,39.381094050150296L47.865513392857146,29.38412701036645L48.822823660714285,46.44303696503456L49.78013392857143,27.769237869463595L50.73744419642857,62.86668852498378L51.694754464285715,49.86289941902229L52.652064732142854,39.16094573649089L53.609375,27.281507862678726L54.566685267857146,24.27075181304143L55.52399553571429,13.800310366356685L56.48130580357143,8.21922459168528L57.43861607142857,12.334002673935897L58.395926339285715,31.475251998833755L59.353236607142854,27.103030285508737L60.310546875,22.433673344640283L61.26785714285714,19.273384187530308L62.225167410714285,22.5681605765292L63.18247767857143,14.490634888016254L64.13978794642857,15.006990107276998L65.09709821428571,15.203749602660057L66.05440848214286,117.67961654726666L67.01171875,134.86520793604578L67.96902901785714,150.80701329760376L68.92633928571428,199.99561461424616L69.88364955357143,153.55299888379247L70.84095982142857,120.77939745636778L71.79827008928571,99.89005691442208L72.75558035714285,73.34017842087437L73.712890625,60.356181540667905L74.67020089285714,50.95411427126624L75.62751116071429,42.24785572142277L76.58482142857143,40.645735252625954L77.54213169642858,52.92272145834894L78.49944196428572,41.344770385852954L79.45675223214286,35.96764468253945L80.4140625,29.77791521631832L81.37137276785714,30.575008731647905L82.32868303571429,26.146722130971614L83.28599330357143,18.036494619307987L84.24330357142857,20.543829064390042L85.20061383928571,16.916045525458813L86.15792410714286,22.892763462999046L87.115234375,42.0448935823254L88.07254464285714,76.59156756234908L89.02985491071428,57.97321372191766L89.98716517857142,59.64278780650517L90.94447544642857,56.96499090231749L91.90178571428571,45.41080509699854L92.85909598214286,43.15039021257651L93.81640625,152.06135395166882L94.77371651785715,119.89029766733671L95.73102678571429,97.2784341976706L96.68833705357143,97.21332545321773L97.64564732142857,81.98887441506668L98.60295758928572,65.81913992285382L99.56026785714286,62.69822788331719L100.517578125,50.32750986534808L101.47488839285714,43.92939024015448L102.43219866071428,37.540229583261215L103.38950892857143,31.435451989112163L104.34681919642857,31.800746909788494L105.30412946428571,75.8857015323035L106.26143973214285,114.62256417399986L107.21875,87.00772375615432L108.17606026785714,74.85695869379992L109.13337053571429,63.21547875743055L110.09068080357143,81.15399490647899L111.04799107142858,96.73828803074078L112.00530133928572,76.80900003998342L112.96261160714286,58.82078976753824L113.919921875,49.605362228157496L114.87723214285714,42.927665376652286L115.83454241071429,128.95576629219119L116.79185267857143,213.97554306329587L117.74916294642857,170.7455920639911L118.70647321428571,143.67241330566915L119.66378348214286,188.55832295425463L120.62109375,144.89495660901707L121.57840401785714,110.75804486066305L122.53571428571428,88.5447680911772L123.49302455357142,73.59544460583255L124.45033482142857,61.45054966613211L125.40764508928571,72.39208089984544L126.36495535714286,59.711909056184005L127.322265625,48.592543211334785L128.27957589285714,41.016405554991934L129.23688616071428,32.4097426591857L130.19419642857142,32.04283871177131L131.15150669642856,24.841860771089443L132.10881696428572,24.46559539025082L133.06612723214286,21.865455887824496L134.0234375,17.72279169763228L134.98074776785714,39.63455365389641L135.93805803571428,35.89710199808856L136.89536830357142,32.88014035874602L137.85267857142856,33.969490015286226L138.80998883928572,34.94021396248772L139.76729910714286,23.638415245221346L140.724609375,38.539142136294515L141.68191964285714,81.32379215955812L142.63922991071428,67.1155632319471L143.59654017857142,62.50164927162044L144.55385044642856,82.45658878294168L145.5111607142857,74.52105465460346L146.46847098214283,63.94334935540918L147.42578125,61.30399773341166L148.38309151785714,57.48253204070824L149.34040178571428,53.950839226467835L150.29771205357142,53.41191333713015L151.25502232142858,62.91847658434973L152.21233258928572,60.60735695473412L153.16964285714286,62.462903786724866L154.126953125,74.30910598372897L155.08426339285717,68.39278387289148L156.0415736607143,62.30232714869754L156.99888392857144,52.13926770234175L157.95619419642858,50.26810650354942L158.91350446428572,50.167451219107164L159.87081473214286,48.807865201154556L160.828125,49.9264067511624L161.78543526785714,44.59313535577588L162.74274553571428,46.198545695418666L163.70005580357144,85.94852442439563L164.65736607142858,90.07807729382198L165.61467633928572,85.40017471168196L166.57198660714286,79.85628522230851L167.529296875,71.78247372736867L168.48660714285714,84.50553844388301L169.44391741071428,96.30459795820398L170.40122767857142,83.62007791215196L171.35853794642856,74.13865895052551L172.31584821428572,70.64320669278273L173.27315848214286,91.91374118348115L174.23046875,86.72313063044909L175.18777901785714,76.9341847261638L176.14508928571428,65.85822496458482L177.10239955357142,65.00201113390669L178.05970982142856,59.717122748469905L179.0170200892857,54.94793892202578L179.97433035714283,94.623115862188L180.931640625,79.9490418049834L181.88895089285714,71.24037012292483L182.84626116071428,90.55829856725941L183.80357142857142,80.37082451245634L184.76088169642858,71.89979565894811L185.71819196428572,64.1496878384215L186.67550223214286,55.69538282746961L187.6328125,50.82452357607788L188.59012276785717,44.54972538679348L189.5474330357143,44.71994435721129L190.50474330357144,34.9248038239305L191.46205357142858,103.91856844930068L192.41936383928572,113.96744718336028L193.37667410714286,92.40195428840157L194.333984375,77.38254190561005L195.29129464285714,71.12145968851473L196.24860491071428,88.94272196528894L197.20591517857144,125.99718177303392L198.16322544642858,109.10779886902034L199.12053571428572,91.68305868179264L200.07784598214286,76.6303984180453L201.03515625,62.31725128630816L201.99246651785714,74.17357987888938L202.94977678571428,63.665136654994065L203.90708705357142,56.57408115373929L204.86439732142856,51.28136045796962L205.82170758928572,51.75446493219284L206.77901785714286,53.22886829627123L207.736328125,65.1072422458272L208.69363839285714,55.64594722747962L209.65094866071428,45.982346455992655L210.60825892857142,41.75042167146516L211.56556919642856,55.51548199749553L212.5228794642857,46.31781358904748L213.48018973214283,39.649934450389686L214.4375,33.218962485970486L215.39481026785714,35.593186226771174L216.35212053571428,31.695256272934493L217.30943080357142,80.7049597234609L218.26674107142858,66.78959708991971L219.22405133928572,55.731748564979476L220.18136160714286,51.11232187228289L221.138671875,75.65704342512636L222.09598214285717,70.19960440741757L223.0532924107143,62.96894354533089L224.01060267857144,54.494376419601494L224.96791294642858,48.2918299111655L225.92522321428572,40.151683648733744L226.88253348214286,31.11181802772526L227.83984375,28.97291185090626L228.79715401785714,30.024296368246198L229.75446428571428,32.184250142993065L230.71177455357144,60.93017176703219L231.66908482142858,53.953955387444864L232.62639508928572,45.912461741362335L233.58370535714286,45.26326203850435L234.541015625,44.12976002305454L235.49832589285714,41.49994312951679L236.45563616071428,36.84019621375058L237.41294642857142,30.75302132727057L238.37025669642856,27.468120731256963L239.32756696428572,30.267517114582233L240.28487723214286,45.2481790955568L241.2421875,39.18209116994355L242.19949776785714,27.469992920282106L243.15680803571428,24.566532703880963L244.11411830357142,29.049851955224952L245.07142857142856,26.08620899531381L246.0287388392857,23.892122890951477L246.98604910714283,22.15108025118149L247.943359375,16.852265523286093" style="fill: none;" fill="none"></path></g></g></g></g><g opacity="0.2"><g><g><g><path stroke="rgb(255, 112, 67)" stroke-width="2px" d="M20.103515625,4392.423009037968L21.060825892857142,41.66041827201851L22.018136160714285,51.646729469299395L22.975446428571427,23.289849519729714L23.932756696428573,200.4480711221694L24.890066964285715,17.359068155288796L25.847377232142858,17.337848901748757L26.8046875,15.31936740875254L27.761997767857146,17.141570806503395L28.719308035714285,20.308544397354225L29.676618303571427,167.11395001411435L30.63392857142857,25.870641231536965L31.591238839285715,25.244673252105812L32.548549107142854,17.000993251800637L33.505859375,21.040608644485573L34.46316964285714,18.852373123169045L35.420479910714285,65.0281212329865L36.37779017857142,239.49812865257255L37.33510044642857,376.98297715187056L38.292410714285715,152.0708254575729L39.24972098214286,135.64049220085144L40.20703125,5.25878882408154L41.164341517857146,28.70341157913218L42.121651785714285,14.165570497512917L43.07896205357143,-1.905361652374149L44.03627232142857,22.313763856887917L44.99358258928571,132.92442774772644L45.950892857142854,14.995773792266945L46.908203125,-6.05107331275928L47.865513392857146,0.33592200279247697L48.822823660714285,96.01353621482853L49.78013392857143,-26.49582409858688L50.73744419642857,164.86073052883145L51.694754464285715,12.072821617126564L52.652064732142854,8.059730291366696L53.609375,-7.242003917693973L54.566685267857146,15.520950317382912L55.52399553571429,-16.628871202468755L56.48130580357143,-8.00059223175037L57.43861607142857,24.29245924949656L58.395926339285715,87.10410213470463L59.353236607142854,14.396329879760842L60.310546875,8.863409519195676L61.26785714285714,10.088821411132932L62.225167410714285,32.14358305931101L63.18247767857143,-8.98463511466968L64.13978794642857,16.50764560699473L65.09709821428571,15.77558135986338L66.05440848214286,415.49990093708016L68.92633928571428,342.9499468803404L69.88364955357143,18.579175233841042L70.84095982142857,25.53113317489634L71.79827008928571,39.180418014526445L72.75558035714285,-3.8203992843626744L73.712890625,22.621443033218483L74.67020089285714,23.62935757637034L75.62751116071429,16.945292711258034L76.58482142857143,35.98957276344307L77.54213169642858,88.60271191596989L78.49944196428572,7.696350574493527L79.45675223214286,20.340373277664284L80.4140625,11.789014101028542L81.37137276785714,32.89156174659739L82.32868303571429,13.277014255523781L83.28599330357143,-5.533854007720828L84.24330357142857,27.830769777298073L85.20061383928571,6.372799634933591L86.15792410714286,40.26259994506844L87.115234375,97.70577168464665L88.07254464285714,176.9928387403488L89.02985491071428,3.863622903823971L89.98716517857142,64.49498748779303L90.94447544642857,49.18264365196236L91.90178571428571,11.83145260810862L92.85909598214286,36.58105945587166L93.81640625,468.5838422775265L94.77371651785715,26.393165349960427L95.73102678571429,31.562705993652443L96.68833705357143,97.0241031646729L97.64564732142857,37.7428135871888L98.60295758928572,18.825849056243996L99.56026785714286,53.62807726860054L100.517578125,14.375110626220803L101.47488839285714,25.33485507965098L102.43219866071428,18.971731424331765L103.38950892857143,13.693442106247048L104.34681919642857,32.862385272979836L105.30412946428571,204.00760090351096L106.26143973214285,227.2015712261199L107.21875,6.752093791961789L108.17606026785714,39.543797731399614L109.13337053571429,29.38242769241343L110.09068080357143,133.2878074645996L111.04799107142858,142.0301399230957L112.00530133928572,18.889506816864113L112.96261160714286,6.542553663253903L113.919921875,22.823025941848854L114.87723214285714,23.52060890197764L115.83454241071429,378.97493457794167L116.79185267857143,461.0642693042752L117.74916294642857,45.10854697227486L118.70647321428571,64.99098753929144L119.66378348214286,319.0079978704451L120.62109375,17.998298168182473L121.57840401785714,11.547645092010598L122.53571428571428,23.987432479858498L123.49302455357142,30.14897322654734L124.45033482142857,26.154448747634987L125.40764508928571,104.19090604782109L126.36495535714286,22.860159635543923L127.322265625,16.276886224746804L128.27957589285714,18.998255491256813L129.23688616071428,7.3966286182404755L130.19419642857142,30.976524114608864L131.15150669642856,3.914018630981564L132.10881696428572,23.372074127197365L133.06612723214286,14.30880045890818L134.0234375,5.683173894882321L134.98074776785714,103.31561183929448L135.93805803571428,25.035133123397927L136.89536830357142,24.112095594406227L137.85267857142856,37.13541245460518L138.80998883928572,37.76138043403633L139.76729910714286,-9.207437276840091L140.724609375,81.84437966346745L141.68191964285714,205.66668128967277L142.63922991071428,25.822897911071877L143.59654017857142,49.09246182441719L144.55385044642856,140.45063173770905L145.5111607142857,51.45840859413155L146.46847098214283,33.20189332962046L147.42578125,53.63338208198555L148.38309151785714,46.37639737129219L149.34040178571428,43.68685698509224L150.29771205357142,51.84565997123726L151.25502232142858,90.54692602157597L152.21233258928572,53.890665531158525L153.16964285714286,67.85558676719671L154.126953125,108.73713111877443L155.08426339285717,51.19847273826607L156.0415736607143,44.601937294006426L156.99888392857144,22.60287618637095L157.95619419642858,44.830044269561846L158.91350446428572,49.87492179870613L159.87081473214286,44.856568336486895L160.828125,53.17716813087471L161.78543526785714,29.093315362930397L162.74274553571428,50.864269495010454L163.70005580357144,201.4719001054763L164.65736607142858,102.0795903205872L165.61467633928572,71.80502033233648L166.57198660714286,63.744356393814144L167.529296875,48.31795907020577L168.48660714285714,121.48194527626038L169.44391741071428,130.59561467170715L170.40122767857142,46.75569152832039L171.35853794642856,46.58328509330757L172.31584821428572,60.48454856872564L173.27315848214286,153.73123204708097L174.23046875,71.63791871070868L175.18777901785714,48.485060691833574L176.14508928571428,33.6687169075013L177.10239955357142,62.51363968849188L178.05970982142856,44.35791587829598L179.0170200892857,41.087498426437456L179.97433035714283,209.9290988445281L180.931640625,37.30251407623299L181.88895089285714,45.93079304695137L182.84626116071428,146.7010281085968L183.80357142857142,50.76347804069527L184.76088169642858,47.28086805343636L185.71819196428572,41.62593698501595L186.67550223214286,31.125058889389138L187.6328125,36.66858887672432L188.59012276785717,26.31359314918528L189.5474330357143,45.214643239975054L190.50474330357144,6.457676649093747L191.46205357142858,304.4316968917845L192.41936383928572,143.17200100421906L193.37667410714286,29.727240562439064L194.333984375,33.732374668121416L195.29129464285714,52.92518949508675L196.24860491071428,140.73576545715332L197.20591517857144,233.68670558929435L198.16322544642858,60.02302980422979L199.12053571428572,41.04240751266487L200.07784598214286,32.883604526519875L201.03515625,20.719667434692482L201.99246651785714,108.63103485107423L202.94977678571428,33.12497353553782L203.90708705357142,35.96570110321053L204.86439732142856,35.899390935897905L205.82170758928572,53.129424810409624L206.77901785714286,57.513853073120174L207.736328125,99.62876653671269L208.69363839285714,28.14905858039866L209.65094866071428,17.897506713867287L210.60825892857142,29.451390266418557L211.56556919642856,95.52018857002263L212.5228794642857,19.587089776992897L213.48018973214283,20.271410703659157L214.4375,14.528950214386086L215.39481026785714,42.493273973465044L216.35212053571428,20.366897344589333L217.30943080357142,223.13941037654868L218.26674107142858,26.348074436187844L219.22405133928572,23.594876289367775L220.18136160714286,37.687113046646196L221.138671875,146.99014043807983L222.09598214285717,54.33892226219185L223.0532924107143,41.95483541488655L224.01060267857144,29.86516571044932L224.96791294642858,30.265679121017556L225.92522321428572,16.494383573532204L226.88253348214286,4.839708566665768L227.83984375,22.756715774536232L228.79715401785714,33.079882621765236L229.75446428571428,38.46161580085762L230.71177455357144,144.4730064868927L231.66908482142858,33.67932653427132L232.62639508928572,22.541870832443337L233.58370535714286,43.37652540206917L234.541015625,40.83551979064949L235.49832589285714,33.857037782669146L236.45563616071428,23.29780673980723L237.41294642857142,13.062169313430886L238.37025669642856,17.92137837409983L239.32756696428572,38.403262853622515L240.28487723214286,88.78572797775273L241.2421875,21.552523136139015L242.19949776785714,-6.5682926177977325L243.15680803571428,16.12835144996653L244.11411830357142,42.07949852943428L245.07142857142856,17.473121643066506L246.0287388392857,17.515560150146584L246.98604910714283,17.091175079345803L247.943359375,1.4525852203370326" style="fill: none;" fill="none"></path></g></g></g></g></g></g><g transform="translate(61, 178)" clip-path="url(#clip_1)"><clipPath id="clip_1"><rect width="268" height="22"></rect></clipPath><g><g><line x1="0" y1="0" x2="0" y2="5" style="visibility: inherit;" fill="rgb(0, 0, 0)" stroke="rgb(204, 204, 204)" stroke-width="1px"></line><line x1="19.146205357142858" y1="0" x2="19.146205357142858" y2="5" style="visibility: inherit;" fill="rgb(0, 0, 0)" stroke="rgb(204, 204, 204)" stroke-width="1px"></line><line x1="38.292410714285715" y1="0" x2="38.292410714285715" y2="5" style="visibility: inherit;" fill="rgb(0, 0, 0)" stroke="rgb(204, 204, 204)" stroke-width="1px"></line><line x1="57.43861607142857" y1="0" x2="57.43861607142857" y2="5" style="visibility: inherit;" fill="rgb(0, 0, 0)" stroke="rgb(204, 204, 204)" stroke-width="1px"></line><line x1="76.58482142857143" y1="0" x2="76.58482142857143" y2="5" style="visibility: inherit;" fill="rgb(0, 0, 0)" stroke="rgb(204, 204, 204)" stroke-width="1px"></line><line x1="95.73102678571429" y1="0" x2="95.73102678571429" y2="5" style="visibility: inherit;" fill="rgb(0, 0, 0)" stroke="rgb(204, 204, 204)" stroke-width="1px"></line><line x1="114.87723214285714" y1="0" x2="114.87723214285714" y2="5" style="visibility: inherit;" fill="rgb(0, 0, 0)" stroke="rgb(204, 204, 204)" stroke-width="1px"></line><line x1="134.0234375" y1="0" x2="134.0234375" y2="5" style="visibility: inherit;" fill="rgb(0, 0, 0)" stroke="rgb(204, 204, 204)" stroke-width="1px"></line><line x1="153.16964285714286" y1="0" x2="153.16964285714286" y2="5" style="visibility: inherit;" fill="rgb(0, 0, 0)" stroke="rgb(204, 204, 204)" stroke-width="1px"></line><line x1="172.31584821428572" y1="0" x2="172.31584821428572" y2="5" style="visibility: inherit;" fill="rgb(0, 0, 0)" stroke="rgb(204, 204, 204)" stroke-width="1px"></line><line x1="191.46205357142858" y1="0" x2="191.46205357142858" y2="5" style="visibility: inherit;" fill="rgb(0, 0, 0)" stroke="rgb(204, 204, 204)" stroke-width="1px"></line><line x1="210.60825892857142" y1="0" x2="210.60825892857142" y2="5" style="visibility: inherit;" fill="rgb(0, 0, 0)" stroke="rgb(204, 204, 204)" stroke-width="1px"></line><line x1="229.75446428571428" y1="0" x2="229.75446428571428" y2="5" style="visibility: inherit;" fill="rgb(0, 0, 0)" stroke="rgb(204, 204, 204)" stroke-width="1px"></line><line x1="248.90066964285714" y1="0" x2="248.90066964285714" y2="5" style="visibility: inherit;" fill="rgb(0, 0, 0)" stroke="rgb(204, 204, 204)" stroke-width="1px"></line><line x1="268.046875" y1="0" x2="268.046875" y2="5" style="visibility: inherit;" fill="rgb(0, 0, 0)" stroke="rgb(204, 204, 204)" stroke-width="1px"></line></g><g transform="translate(0, 8)"><text x="0" y="0" dx="0em" dy="0.95em" style="text-anchor: middle; visibility: hidden; font-family: Roboto, sans-serif; font-size: 12px; font-weight: 200;" fill="rgb(50, 49, 63)" stroke="none" stroke-width="1px">-2k</text><text x="19.146205357142858" y="0" dx="0em" dy="0.95em" style="text-anchor: middle; visibility: inherit; font-family: Roboto, sans-serif; font-size: 12px; font-weight: 200;" fill="rgb(50, 49, 63)" stroke="none" stroke-width="1px">0</text><text x="38.292410714285715" y="0" dx="0em" dy="0.95em" style="text-anchor: middle; visibility: hidden; font-family: Roboto, sans-serif; font-size: 12px; font-weight: 200;" fill="rgb(50, 49, 63)" stroke="none" stroke-width="1px">2k</text><text x="57.43861607142857" y="0" dx="0em" dy="0.95em" style="text-anchor: middle; visibility: inherit; font-family: Roboto, sans-serif; font-size: 12px; font-weight: 200;" fill="rgb(50, 49, 63)" stroke="none" stroke-width="1px">4k</text><text x="76.58482142857143" y="0" dx="0em" dy="0.95em" style="text-anchor: middle; visibility: hidden; font-family: Roboto, sans-serif; font-size: 12px; font-weight: 200;" fill="rgb(50, 49, 63)" stroke="none" stroke-width="1px">6k</text><text x="95.73102678571429" y="0" dx="0em" dy="0.95em" style="text-anchor: middle; visibility: inherit; font-family: Roboto, sans-serif; font-size: 12px; font-weight: 200;" fill="rgb(50, 49, 63)" stroke="none" stroke-width="1px">8k</text><text x="114.87723214285714" y="0" dx="0em" dy="0.95em" style="text-anchor: middle; visibility: hidden; font-family: Roboto, sans-serif; font-size: 12px; font-weight: 200;" fill="rgb(50, 49, 63)" stroke="none" stroke-width="1px">10k</text><text x="134.0234375" y="0" dx="0em" dy="0.95em" style="text-anchor: middle; visibility: inherit; font-family: Roboto, sans-serif; font-size: 12px; font-weight: 200;" fill="rgb(50, 49, 63)" stroke="none" stroke-width="1px">12k</text><text x="153.16964285714286" y="0" dx="0em" dy="0.95em" style="text-anchor: middle; visibility: hidden; font-family: Roboto, sans-serif; font-size: 12px; font-weight: 200;" fill="rgb(50, 49, 63)" stroke="none" stroke-width="1px">14k</text><text x="172.31584821428572" y="0" dx="0em" dy="0.95em" style="text-anchor: middle; visibility: inherit; font-family: Roboto, sans-serif; font-size: 12px; font-weight: 200;" fill="rgb(50, 49, 63)" stroke="none" stroke-width="1px">16k</text><text x="191.46205357142858" y="0" dx="0em" dy="0.95em" style="text-anchor: middle; visibility: hidden; font-family: Roboto, sans-serif; font-size: 12px; font-weight: 200;" fill="rgb(50, 49, 63)" stroke="none" stroke-width="1px">18k</text><text x="210.60825892857142" y="0" dx="0em" dy="0.95em" style="text-anchor: middle; visibility: inherit; font-family: Roboto, sans-serif; font-size: 12px; font-weight: 200;" fill="rgb(50, 49, 63)" stroke="none" stroke-width="1px">20k</text><text x="229.75446428571428" y="0" dx="0em" dy="0.95em" style="text-anchor: middle; visibility: hidden; font-family: Roboto, sans-serif; font-size: 12px; font-weight: 200;" fill="rgb(50, 49, 63)" stroke="none" stroke-width="1px">22k</text><text x="248.90066964285714" y="0" dx="0em" dy="0.95em" style="text-anchor: middle; visibility: inherit; font-family: Roboto, sans-serif; font-size: 12px; font-weight: 200;" fill="rgb(50, 49, 63)" stroke="none" stroke-width="1px">24k</text><text x="268.046875" y="0" dx="0em" dy="0.95em" style="text-anchor: middle; visibility: hidden; font-family: Roboto, sans-serif; font-size: 12px; font-weight: 200;" fill="rgb(50, 49, 63)" stroke="none" stroke-width="1px">26k</text></g><line x1="0" y1="0" x2="268.046875" y2="0" fill="rgb(0, 0, 0)" stroke="rgb(204, 204, 204)" stroke-width="1px"></line></g></g></g></g></svg>